<?xml version="1.0"?>
<!DOCTYPE svg PUBLIC "-//W3C//DTD SVG 1.1//EN" "http://www.w3.org/Graphics/SVG/1.1/DTD/svg11.dtd">
<svg width="14.043486568516386mm" height="26.4750338315585mm" viewBox="0 0 14.043486568516386 26.4750338315585" xmlns="http://www.w3.org/2000/svg" version="1.1">
<g id="Body004" transform="translate(8.905805,21.337681) scale(1,-1)">
<path id="Body004_f0000"  d="M 1.5499999999999978 4.7536827828537325 A 5 5 0 0 0 5 -8.57021e-16A 5 5 0 1 0 -4.87068 1.12979L -4.870684985947771 1.129791028315838 A 5 5 0 1 1 1.55 4.75368L 1.55 4.753682782853732 Z " stroke="#191919" stroke-width="0.35 px" style="stroke-width:0.35;stroke-miterlimit:4;stroke-dasharray:none;stroke-linecap:square;fill:#cccccc;fill-opacity:1.0;fill-rule: evenodd"/>
<path id="Body004_f0001"  d="M -4.87068498594777 1.1297910283158386 L -8.768124086780768 6.576093064944785 L -8.768124086780768 6.576093064944785 L -4.870684985947771 1.129791028315838 L -4.870684985947771 1.1297910283158379 Z " stroke="#191919" stroke-width="0.35 px" style="stroke-width:0.35;stroke-miterlimit:4;stroke-dasharray:none;stroke-linecap:square;fill:#cccccc;fill-opacity:1.0;fill-rule: evenodd"/>
<path id="Body004_f0002"  d="M 1.5500000000000054 17.449999999999996 L 1.55 4.753682782853732 L 1.55 4.753682782853731 L 1.5500000000000054 17.45 L 1.5500000000000054 17.45 Z " stroke="#191919" stroke-width="0.35 px" style="stroke-width:0.35;stroke-miterlimit:4;stroke-dasharray:none;stroke-linecap:square;fill:#cccccc;fill-opacity:1.0;fill-rule: evenodd"/>
<circle cx="0.0" cy="0.0" r="5.0" stroke="#191919" stroke-width="0.35 px" style="stroke-width:0.35;stroke-miterlimit:4;stroke-dasharray:none;stroke-linecap:square;fill:#cccccc"/>
<circle cx="0.0" cy="0.0" r="0.5" stroke="#191919" stroke-width="0.35 px" style="stroke-width:0.35;stroke-miterlimit:4;stroke-dasharray:none;stroke-linecap:square;fill:#cccccc"/>
<path id="Body004_f0005"  d="M -8.768124086780771 6.576093064944782 A 10.9602 10.9602 0 0 0 -1.55 10.85L -1.5499999999999956 10.85 A 10.9602 10.9602 0 0 1 -8.76812 6.57609L -8.768124086780768 6.576093064944785 Z " stroke="#191919" stroke-width="0.35 px" style="stroke-width:0.35;stroke-miterlimit:4;stroke-dasharray:none;stroke-linecap:square;fill:#cccccc;fill-opacity:1.0;fill-rule: evenodd"/>
<path id="Body004_f0006"  d="M 1.55 4.753682782853731 A 5 5 0 0 1 -4.87068 1.12979L -8.768124086780768 6.576093064944785 A 10.9602 10.9602 0 0 0 -1.55 10.85L -1.549999999999993 17.45 L 8.826273045769994e-15 21.2 L 1.5500000000000054 17.45 L 1.55 4.753682782853732 Z " stroke="#191919" stroke-width="0.35 px" style="stroke-width:0.35;stroke-miterlimit:4;stroke-dasharray:none;stroke-linecap:square;fill:#cccccc;fill-opacity:1.0;fill-rule: evenodd"/>
<path id="Body004_f0007"  d="M 8.881784197001252e-15 21.2 L 1.5500000000000054 17.45 L 1.5500000000000054 17.45 L 8.826273045769994e-15 21.2 L 8.826273045769994e-15 21.2 Z " stroke="#191919" stroke-width="0.35 px" style="stroke-width:0.35;stroke-miterlimit:4;stroke-dasharray:none;stroke-linecap:square;fill:#cccccc;fill-opacity:1.0;fill-rule: evenodd"/>
<circle cx="0.0" cy="0.0" r="5.0" stroke="#191919" stroke-width="0.35 px" style="stroke-width:0.35;stroke-miterlimit:4;stroke-dasharray:none;stroke-linecap:square;fill:#cccccc"/>
<path id="Body004_f0009"  d="M -1.549999999999993 17.45 L 8.826273045769994e-15 21.2 L 8.826273045769994e-15 21.2 L -1.5499999999999927 17.45 L -1.549999999999993 17.45 Z " stroke="#191919" stroke-width="0.35 px" style="stroke-width:0.35;stroke-miterlimit:4;stroke-dasharray:none;stroke-linecap:square;fill:#cccccc;fill-opacity:1.0;fill-rule: evenodd"/>
<path id="Body004_f0010"  d="M -1.5499999999999956 10.85 L -1.549999999999993 17.45 L -1.5499999999999927 17.45 L -1.5499999999999956 10.85 L -1.5499999999999958 10.85 Z " stroke="#191919" stroke-width="0.35 px" style="stroke-width:0.35;stroke-miterlimit:4;stroke-dasharray:none;stroke-linecap:square;fill:#cccccc;fill-opacity:1.0;fill-rule: evenodd"/>
<circle cx="0.0" cy="0.0" r="0.5" stroke="#191919" stroke-width="0.35 px" style="stroke-width:0.35;stroke-miterlimit:4;stroke-dasharray:none;stroke-linecap:square;fill:#cccccc"/>
<circle cx="0.0" cy="0.0" r="0.5" stroke="#191919" stroke-width="0.35 px" style="stroke-width:0.35;stroke-miterlimit:4;stroke-dasharray:none;stroke-linecap:square;fill:#cccccc"/>
<title>b'Needle_FR'</title>
</g>
</svg>