<?xml version="1.0"?>
<!DOCTYPE svg PUBLIC "-//W3C//DTD SVG 1.1//EN" "http://www.w3.org/Graphics/SVG/1.1/DTD/svg11.dtd">
<svg width="10.197636511112776mm" height="26.399949490103864mm" viewBox="0 0 10.197636511112776 26.399949490103864" xmlns="http://www.w3.org/2000/svg" version="1.1">
<g id="Body003" transform="translate(5.098685,21.299977) scale(1,-1)">
<path id="Body003_f0000"  d="M -3.152919282189115 10.290000000000004 A 10.7622 10.7622 0 0 0 -1.55 10.65L -1.5499999999999876 10.650000000000002 A 10.7622 10.7622 0 0 1 -3.15292 10.29L -3.15291928218912 10.290000000000003 Z " stroke="#191919" stroke-width="0.35 px" style="stroke-width:0.35;stroke-miterlimit:4;stroke-dasharray:none;stroke-linecap:square;fill:#ff5500;fill-opacity:1.0;fill-rule: evenodd"/>
<path id="Body003_f0001"  d="M -3.1529192821891265 3.8806056228377575 L -3.15291928218912 10.290000000000003 L -3.1529192821891203 10.290000000000003 L -3.152919282189126 3.880605622837757 L -3.1529192821891256 3.880605622837757 Z " stroke="#191919" stroke-width="0.35 px" style="stroke-width:0.35;stroke-miterlimit:4;stroke-dasharray:none;stroke-linecap:square;fill:#ff5500;fill-opacity:1.0;fill-rule: evenodd"/>
<path id="Body003_f0002"  d="M 1.550000000000001 4.753682782853732 A 5 5 0 1 0 -3.15292 3.88061L -3.152919282189126 3.880605622837757 A 5 5 0 1 1 1.55 4.75368L 1.5500000000000032 4.753682782853732 Z " stroke="#191919" stroke-width="0.35 px" style="stroke-width:0.35;stroke-miterlimit:4;stroke-dasharray:none;stroke-linecap:square;fill:#ff5500;fill-opacity:1.0;fill-rule: evenodd"/>
<path id="Body003_f0003"  d="M 1.5500000000000165 17.45 L 1.5500000000000165 17.45 L 1.5500000000000032 4.753682782853732 L 1.5500000000000032 4.753682782853732 L 1.5500000000000165 17.45 Z " stroke="#191919" stroke-width="0.35 px" style="stroke-width:0.35;stroke-miterlimit:4;stroke-dasharray:none;stroke-linecap:square;fill:#ff5500;fill-opacity:1.0;fill-rule: evenodd"/>
<path id="Body003_f0004"  d="M 2.2359891715950647e-14 21.2 L 2.2359891715950647e-14 21.2 L 1.5500000000000165 17.45 L 1.5500000000000165 17.45 L 2.2359891715950647e-14 21.2 Z " stroke="#191919" stroke-width="0.35 px" style="stroke-width:0.35;stroke-miterlimit:4;stroke-dasharray:none;stroke-linecap:square;fill:#ff5500;fill-opacity:1.0;fill-rule: evenodd"/>
<path id="Body003_f0005"  d="M -1.5499999999999805 17.45 L -1.5499999999999805 17.45 L 2.2359891715950647e-14 21.2 L 2.2359891715950647e-14 21.2 L -1.549999999999981 17.45 Z " stroke="#191919" stroke-width="0.35 px" style="stroke-width:0.35;stroke-miterlimit:4;stroke-dasharray:none;stroke-linecap:square;fill:#ff5500;fill-opacity:1.0;fill-rule: evenodd"/>
<path id="Body003_f0006"  d="M -1.5499999999999876 10.650000000000002 L -1.5499999999999876 10.650000000000002 L -1.5499999999999805 17.45 L -1.549999999999981 17.45 L -1.549999999999988 10.650000000000002 Z " stroke="#191919" stroke-width="0.35 px" style="stroke-width:0.35;stroke-miterlimit:4;stroke-dasharray:none;stroke-linecap:square;fill:#ff5500;fill-opacity:1.0;fill-rule: evenodd"/>
<circle cx="0.0" cy="0.0" r="1.0" stroke="#191919" stroke-width="0.35 px" style="stroke-width:0.35;stroke-miterlimit:4;stroke-dasharray:none;stroke-linecap:square;fill:#ff5500"/>
<circle cx="0.0" cy="0.0" r="1.0" stroke="#191919" stroke-width="0.35 px" style="stroke-width:0.35;stroke-miterlimit:4;stroke-dasharray:none;stroke-linecap:square;fill:#ff5500"/>
<circle cx="0.0" cy="0.0" r="1.0" stroke="#191919" stroke-width="0.35 px" style="stroke-width:0.35;stroke-miterlimit:4;stroke-dasharray:none;stroke-linecap:square;fill:#ff5500"/>
<title>b'Needle_AL'</title>
</g>
</svg>