<?xml version="1.0"?>
<!DOCTYPE svg PUBLIC "-//W3C//DTD SVG 1.1//EN" "http://www.w3.org/Graphics/SVG/1.1/DTD/svg11.dtd">
<svg width="105.97800000000001mm" height="81.89833206113556mm" viewBox="0 0 105.97800000000001 81.89833206113556" xmlns="http://www.w3.org/2000/svg" version="1.1">
<g id="MultiTransform002" transform="translate(52.989000,40.609332) scale(1,-1)">
<path id="MultiTransform002_f0000"  d="M 51.95 39.570332061135545 L -51.95000000000001 39.57033206113557 L -51.95 -40.25 L 51.95 -40.25 L 51.95 39.570332061135545 Z M -38.900000000000006 -30.949999999999996 L -37.900000000000006 -30.949999999999996 A 3 3 0 0 0 -37.9 -36.95L -38.900000000000006 -36.949999999999996 A 3 3 0 0 0 -38.9 -30.95Z M -38.900000000000006 -21.249999999999996 L -37.900000000000006 -21.249999999999996 A 3 3 0 0 0 -37.9 -27.25L -38.900000000000006 -27.249999999999996 A 3 3 0 0 0 -38.9 -21.25Z M -13.300000000000008 -30.949999999999996 L -12.300000000000008 -30.949999999999996 A 3 3 0 0 0 -12.3 -36.95L -13.300000000000008 -36.949999999999996 A 3 3 0 0 0 -13.3 -30.95Z M -13.300000000000008 -21.249999999999996 L -12.300000000000008 -21.249999999999996 A 3 3 0 0 0 -12.3 -27.25L -13.300000000000008 -27.249999999999996 A 3 3 0 0 0 -13.3 -21.25Z M -38.900000000000006 -11.549999999999997 L -37.900000000000006 -11.549999999999997 A 3 3 0 0 0 -37.9 -17.55L -38.900000000000006 -17.549999999999997 A 3 3 0 0 0 -38.9 -11.55Z M -38.900000000000006 -1.8499999999999979 L -37.900000000000006 -1.8499999999999979 A 3 3 0 0 0 -37.9 -7.85L -38.900000000000006 -7.849999999999998 A 3 3 0 0 0 -38.9 -1.85Z M -13.300000000000008 -11.549999999999997 L -12.300000000000008 -11.549999999999997 A 3 3 0 0 0 -12.3 -17.55L -13.300000000000008 -17.549999999999997 A 3 3 0 0 0 -13.3 -11.55Z M -13.300000000000008 -1.8499999999999979 L -12.300000000000008 -1.8499999999999979 A 3 3 0 0 0 -12.3 -7.85L -13.300000000000008 -7.849999999999998 A 3 3 0 0 0 -13.3 -1.85Z M 12.29999999999999 -30.949999999999996 L 13.29999999999999 -30.949999999999996 A 3 3 0 0 0 13.3 -36.95L 12.29999999999999 -36.949999999999996 A 3 3 0 0 0 12.3 -30.95Z M 12.29999999999999 -21.249999999999996 L 13.29999999999999 -21.249999999999996 A 3 3 0 0 0 13.3 -27.25L 12.29999999999999 -27.249999999999996 A 3 3 0 0 0 12.3 -21.25Z M 37.89999999999999 -30.949999999999996 L 38.89999999999999 -30.949999999999996 A 3 3 0 0 0 38.9 -36.95L 37.89999999999999 -36.949999999999996 A 3 3 0 0 0 37.9 -30.95Z M 37.89999999999999 -21.249999999999996 L 38.89999999999999 -21.249999999999996 A 3 3 0 0 0 38.9 -27.25L 37.89999999999999 -27.249999999999996 A 3 3 0 0 0 37.9 -21.25Z M 12.29999999999999 -11.549999999999997 L 13.29999999999999 -11.549999999999997 A 3 3 0 0 0 13.3 -17.55L 12.29999999999999 -17.549999999999997 A 3 3 0 0 0 12.3 -11.55Z M 12.29999999999999 -1.8499999999999979 L 13.29999999999999 -1.8499999999999979 A 3 3 0 0 0 13.3 -7.85L 12.29999999999999 -7.849999999999998 A 3 3 0 0 0 12.3 -1.85Z M 37.89999999999999 -11.549999999999997 L 38.89999999999999 -11.549999999999997 A 3 3 0 0 0 38.9 -17.55L 37.89999999999999 -17.549999999999997 A 3 3 0 0 0 37.9 -11.55Z M 37.89999999999999 -1.8499999999999979 L 38.89999999999999 -1.8499999999999979 A 3 3 0 0 0 38.9 -7.85L 37.89999999999999 -7.849999999999998 A 3 3 0 0 0 37.9 -1.85Z M -38.900000000000006 7.850000000000001 L -37.900000000000006 7.850000000000001 A 3 3 0 0 0 -37.9 1.85L -38.900000000000006 1.8500000000000014 A 3 3 0 0 0 -38.9 7.85Z M -38.900000000000006 17.550000000000004 L -37.900000000000006 17.550000000000004 A 3 3 0 0 0 -37.9 11.55L -38.900000000000006 11.550000000000004 A 3 3 0 0 0 -38.9 17.55Z M -13.300000000000008 7.850000000000001 L -12.300000000000008 7.850000000000001 A 3 3 0 0 0 -12.3 1.85L -13.300000000000008 1.8500000000000014 A 3 3 0 0 0 -13.3 7.85Z M -13.300000000000008 17.550000000000004 L -12.300000000000008 17.550000000000004 A 3 3 0 0 0 -12.3 11.55L -13.300000000000008 11.550000000000004 A 3 3 0 0 0 -13.3 17.55Z M -38.900000000000006 27.25 L -37.900000000000006 27.25 A 3 3 0 0 0 -37.9 21.25L -38.900000000000006 21.25 A 3 3 0 0 0 -38.9 27.25Z M -38.900000000000006 36.949999999999996 L -37.900000000000006 36.949999999999996 A 3 3 0 0 0 -37.9 30.95L -38.900000000000006 30.949999999999996 A 3 3 0 0 0 -38.9 36.95Z M -13.300000000000008 27.25 L -12.300000000000008 27.25 A 3 3 0 0 0 -12.3 21.25L -13.300000000000008 21.25 A 3 3 0 0 0 -13.3 27.25Z M -13.300000000000008 36.949999999999996 L -12.300000000000008 36.949999999999996 A 3 3 0 0 0 -12.3 30.95L -13.300000000000008 30.949999999999996 A 3 3 0 0 0 -13.3 36.95Z M 12.29999999999999 7.850000000000001 L 13.29999999999999 7.850000000000001 A 3 3 0 0 0 13.3 1.85L 12.29999999999999 1.8500000000000014 A 3 3 0 0 0 12.3 7.85Z M 12.29999999999999 17.550000000000004 L 13.29999999999999 17.550000000000004 A 3 3 0 0 0 13.3 11.55L 12.29999999999999 11.550000000000004 A 3 3 0 0 0 12.3 17.55Z M 37.89999999999999 7.850000000000001 L 38.89999999999999 7.850000000000001 A 3 3 0 0 0 38.9 1.85L 37.89999999999999 1.8500000000000014 A 3 3 0 0 0 37.9 7.85Z M 37.89999999999999 17.550000000000004 L 38.89999999999999 17.550000000000004 A 3 3 0 0 0 38.9 11.55L 37.89999999999999 11.550000000000004 A 3 3 0 0 0 37.9 17.55Z M 12.29999999999999 27.25 L 13.29999999999999 27.25 A 3 3 0 0 0 13.3 21.25L 12.29999999999999 21.25 A 3 3 0 0 0 12.3 27.25Z M 12.29999999999999 36.949999999999996 L 13.29999999999999 36.949999999999996 A 3 3 0 0 0 13.3 30.95L 12.29999999999999 30.949999999999996 A 3 3 0 0 0 12.3 36.95Z M 37.89999999999999 27.25 L 38.89999999999999 27.25 A 3 3 0 0 0 38.9 21.25L 37.89999999999999 21.25 A 3 3 0 0 0 37.9 27.25Z M 37.89999999999999 36.949999999999996 L 38.89999999999999 36.949999999999996 A 3 3 0 0 0 38.9 30.95L 37.89999999999999 30.949999999999996 A 3 3 0 0 0 37.9 36.95Z " stroke="#191919" stroke-width="0.35 px" style="stroke-width:0.35;stroke-miterlimit:4;stroke-dasharray:none;stroke-linecap:square;fill:#cccccc;fill-opacity:1.0;fill-rule: evenodd"/>
<path id="MultiTransform002_f0001"  d="M -51.95000000000002 39.57033206113557 L 51.95 39.570332061135545 L 50.829667938864475 38.45000000000001 L -50.829667938864475 38.45000000000003 L -51.95000000000001 39.57033206113557 Z " stroke="#191919" stroke-width="0.35 px" style="stroke-width:0.35;stroke-miterlimit:4;stroke-dasharray:none;stroke-linecap:square;fill:#cccccc;fill-opacity:1.0;fill-rule: evenodd"/>
<path id="MultiTransform002_f0002"  d="M 50.829667938864475 -40.25 L 50.829667938864475 -28.45000000000003 L 50.829667938864475 -18.45000000000003 L 50.829667938864475 18.45000000000003 L 50.829667938864475 28.45000000000003 L 50.829667938864475 38.45000000000001 L 51.95 39.570332061135545 L 51.95 -40.25 L 50.829667938864475 -40.25 Z " stroke="#191919" stroke-width="0.35 px" style="stroke-width:0.35;stroke-miterlimit:4;stroke-dasharray:none;stroke-linecap:square;fill:#cccccc;fill-opacity:1.0;fill-rule: evenodd"/>
<path id="MultiTransform002_f0003"  d="M -51.95 -40.25 L -51.95 39.57033206113557 L -50.82966793886452 38.45000000000002 L -50.829667938864475 28.45000000000003 L -50.829667938864475 18.45000000000003 L -50.829667938864475 -18.45000000000003 L -50.829667938864475 -28.45000000000003 L -50.829667938864475 -40.25 L -51.95 -40.25 Z " stroke="#191919" stroke-width="0.35 px" style="stroke-width:0.35;stroke-miterlimit:4;stroke-dasharray:none;stroke-linecap:square;fill:#cccccc;fill-opacity:1.0;fill-rule: evenodd"/>
<path id="MultiTransform002_f0004"  d="M -51.95 -40.25 L 51.95 -40.25 L 50.829667938864475 -40.25 L -50.829667938864475 -40.25 L -51.95 -40.25 Z " stroke="#191919" stroke-width="0.35 px" style="stroke-width:0.35;stroke-miterlimit:4;stroke-dasharray:none;stroke-linecap:square;fill:#cccccc;fill-opacity:1.0;fill-rule: evenodd"/>
<path id="MultiTransform002_f0005"  d="M -38.900000000000006 -36.949999999999996 A 3 3 0 0 0 -38.9 -30.95L -38.900000000000006 -30.949999999999996 A 3 3 0 0 1 -38.9 -36.95L -38.900000000000006 -36.949999999999996 Z " stroke="#191919" stroke-width="0.35 px" style="stroke-width:0.35;stroke-miterlimit:4;stroke-dasharray:none;stroke-linecap:square;fill:#cccccc;fill-opacity:1.0;fill-rule: evenodd"/>
<path id="MultiTransform002_f0006"  d="M -38.900000000000006 -30.949999999999992 L -37.900000000000006 -30.949999999999992 L -37.900000000000006 -30.949999999999996 L -38.900000000000006 -30.949999999999996 L -38.900000000000006 -30.949999999999996 Z " stroke="#191919" stroke-width="0.35 px" style="stroke-width:0.35;stroke-miterlimit:4;stroke-dasharray:none;stroke-linecap:square;fill:#cccccc;fill-opacity:1.0;fill-rule: evenodd"/>
<path id="MultiTransform002_f0007"  d="M -37.900000000000006 -36.94999999999999 L -38.900000000000006 -36.94999999999999 L -38.900000000000006 -36.949999999999996 L -37.900000000000006 -36.949999999999996 L -37.900000000000006 -36.949999999999996 Z " stroke="#191919" stroke-width="0.35 px" style="stroke-width:0.35;stroke-miterlimit:4;stroke-dasharray:none;stroke-linecap:square;fill:#cccccc;fill-opacity:1.0;fill-rule: evenodd"/>
<path id="MultiTransform002_f0008"  d="M -37.900000000000006 -30.949999999999996 A 3 3 0 0 0 -37.9 -36.95L -37.900000000000006 -36.949999999999996 A 3 3 0 0 1 -37.9 -30.95L -37.900000000000006 -30.949999999999996 Z " stroke="#191919" stroke-width="0.35 px" style="stroke-width:0.35;stroke-miterlimit:4;stroke-dasharray:none;stroke-linecap:square;fill:#cccccc;fill-opacity:1.0;fill-rule: evenodd"/>
<path id="MultiTransform002_f0009"  d="M -38.900000000000006 -27.249999999999996 A 3 3 0 0 0 -38.9 -21.25L -38.900000000000006 -21.249999999999996 A 3 3 0 0 1 -38.9 -27.25L -38.900000000000006 -27.249999999999996 Z " stroke="#191919" stroke-width="0.35 px" style="stroke-width:0.35;stroke-miterlimit:4;stroke-dasharray:none;stroke-linecap:square;fill:#cccccc;fill-opacity:1.0;fill-rule: evenodd"/>
<path id="MultiTransform002_f0010"  d="M -37.900000000000006 -27.25 L -38.900000000000006 -27.25 L -38.900000000000006 -27.249999999999996 L -37.900000000000006 -27.249999999999996 L -37.900000000000006 -27.249999999999996 Z " stroke="#191919" stroke-width="0.35 px" style="stroke-width:0.35;stroke-miterlimit:4;stroke-dasharray:none;stroke-linecap:square;fill:#cccccc;fill-opacity:1.0;fill-rule: evenodd"/>
<path id="MultiTransform002_f0011"  d="M -37.900000000000006 -21.249999999999996 A 3 3 0 0 0 -37.9 -27.25L -37.900000000000006 -27.249999999999996 A 3 3 0 0 1 -37.9 -21.25L -37.900000000000006 -21.249999999999996 Z " stroke="#191919" stroke-width="0.35 px" style="stroke-width:0.35;stroke-miterlimit:4;stroke-dasharray:none;stroke-linecap:square;fill:#cccccc;fill-opacity:1.0;fill-rule: evenodd"/>
<path id="MultiTransform002_f0012"  d="M -38.900000000000006 -21.25 L -37.900000000000006 -21.25 L -37.900000000000006 -21.249999999999996 L -38.900000000000006 -21.249999999999996 L -38.900000000000006 -21.249999999999996 Z " stroke="#191919" stroke-width="0.35 px" style="stroke-width:0.35;stroke-miterlimit:4;stroke-dasharray:none;stroke-linecap:square;fill:#cccccc;fill-opacity:1.0;fill-rule: evenodd"/>
<path id="MultiTransform002_f0013"  d="M -13.300000000000008 -36.949999999999996 A 3 3 0 0 0 -13.3 -30.95L -13.300000000000008 -30.949999999999996 A 3 3 0 0 1 -13.3 -36.95L -13.300000000000008 -36.949999999999996 Z " stroke="#191919" stroke-width="0.35 px" style="stroke-width:0.35;stroke-miterlimit:4;stroke-dasharray:none;stroke-linecap:square;fill:#cccccc;fill-opacity:1.0;fill-rule: evenodd"/>
<path id="MultiTransform002_f0014"  d="M -12.300000000000011 -36.94999999999999 L -13.300000000000011 -36.94999999999999 L -13.300000000000008 -36.949999999999996 L -12.300000000000008 -36.949999999999996 L -12.300000000000008 -36.949999999999996 Z " stroke="#191919" stroke-width="0.35 px" style="stroke-width:0.35;stroke-miterlimit:4;stroke-dasharray:none;stroke-linecap:square;fill:#cccccc;fill-opacity:1.0;fill-rule: evenodd"/>
<path id="MultiTransform002_f0015"  d="M -12.300000000000008 -30.949999999999996 A 3 3 0 0 0 -12.3 -36.95L -12.300000000000008 -36.949999999999996 A 3 3 0 0 1 -12.3 -30.95L -12.300000000000008 -30.949999999999996 Z " stroke="#191919" stroke-width="0.35 px" style="stroke-width:0.35;stroke-miterlimit:4;stroke-dasharray:none;stroke-linecap:square;fill:#cccccc;fill-opacity:1.0;fill-rule: evenodd"/>
<path id="MultiTransform002_f0016"  d="M -13.300000000000011 -30.949999999999992 L -12.300000000000008 -30.949999999999992 L -12.300000000000008 -30.949999999999996 L -13.300000000000008 -30.949999999999996 L -13.300000000000008 -30.949999999999996 Z " stroke="#191919" stroke-width="0.35 px" style="stroke-width:0.35;stroke-miterlimit:4;stroke-dasharray:none;stroke-linecap:square;fill:#cccccc;fill-opacity:1.0;fill-rule: evenodd"/>
<path id="MultiTransform002_f0017"  d="M -13.300000000000008 -27.249999999999996 A 3 3 0 0 0 -13.3 -21.25L -13.300000000000008 -21.249999999999996 A 3 3 0 0 1 -13.3 -27.25L -13.300000000000008 -27.249999999999996 Z " stroke="#191919" stroke-width="0.35 px" style="stroke-width:0.35;stroke-miterlimit:4;stroke-dasharray:none;stroke-linecap:square;fill:#cccccc;fill-opacity:1.0;fill-rule: evenodd"/>
<path id="MultiTransform002_f0018"  d="M -12.300000000000011 -27.25 L -13.300000000000011 -27.25 L -13.300000000000008 -27.249999999999996 L -12.300000000000008 -27.249999999999996 L -12.300000000000008 -27.249999999999996 Z " stroke="#191919" stroke-width="0.35 px" style="stroke-width:0.35;stroke-miterlimit:4;stroke-dasharray:none;stroke-linecap:square;fill:#cccccc;fill-opacity:1.0;fill-rule: evenodd"/>
<path id="MultiTransform002_f0019"  d="M -12.300000000000008 -21.249999999999996 A 3 3 0 0 0 -12.3 -27.25L -12.300000000000008 -27.249999999999996 A 3 3 0 0 1 -12.3 -21.25L -12.300000000000008 -21.249999999999996 Z " stroke="#191919" stroke-width="0.35 px" style="stroke-width:0.35;stroke-miterlimit:4;stroke-dasharray:none;stroke-linecap:square;fill:#cccccc;fill-opacity:1.0;fill-rule: evenodd"/>
<path id="MultiTransform002_f0020"  d="M -13.300000000000011 -21.25 L -12.300000000000008 -21.25 L -12.300000000000008 -21.249999999999996 L -13.300000000000008 -21.249999999999996 L -13.300000000000008 -21.249999999999996 Z " stroke="#191919" stroke-width="0.35 px" style="stroke-width:0.35;stroke-miterlimit:4;stroke-dasharray:none;stroke-linecap:square;fill:#cccccc;fill-opacity:1.0;fill-rule: evenodd"/>
<path id="MultiTransform002_f0021"  d="M -38.900000000000006 -17.549999999999997 A 3 3 0 0 0 -38.9 -11.55L -38.900000000000006 -11.549999999999997 A 3 3 0 0 1 -38.9 -17.55L -38.900000000000006 -17.549999999999997 Z " stroke="#191919" stroke-width="0.35 px" style="stroke-width:0.35;stroke-miterlimit:4;stroke-dasharray:none;stroke-linecap:square;fill:#cccccc;fill-opacity:1.0;fill-rule: evenodd"/>
<path id="MultiTransform002_f0022"  d="M -37.900000000000006 -17.549999999999997 L -38.900000000000006 -17.549999999999997 L -38.900000000000006 -17.549999999999997 L -37.900000000000006 -17.549999999999997 L -37.900000000000006 -17.549999999999997 Z " stroke="#191919" stroke-width="0.35 px" style="stroke-width:0.35;stroke-miterlimit:4;stroke-dasharray:none;stroke-linecap:square;fill:#cccccc;fill-opacity:1.0;fill-rule: evenodd"/>
<path id="MultiTransform002_f0023"  d="M -37.900000000000006 -11.549999999999997 A 3 3 0 0 0 -37.9 -17.55L -37.900000000000006 -17.549999999999997 A 3 3 0 0 1 -37.9 -11.55L -37.900000000000006 -11.549999999999997 Z " stroke="#191919" stroke-width="0.35 px" style="stroke-width:0.35;stroke-miterlimit:4;stroke-dasharray:none;stroke-linecap:square;fill:#cccccc;fill-opacity:1.0;fill-rule: evenodd"/>
<path id="MultiTransform002_f0024"  d="M -38.900000000000006 -11.549999999999997 L -37.900000000000006 -11.549999999999997 L -37.900000000000006 -11.549999999999997 L -38.900000000000006 -11.549999999999997 L -38.900000000000006 -11.549999999999997 Z " stroke="#191919" stroke-width="0.35 px" style="stroke-width:0.35;stroke-miterlimit:4;stroke-dasharray:none;stroke-linecap:square;fill:#cccccc;fill-opacity:1.0;fill-rule: evenodd"/>
<path id="MultiTransform002_f0025"  d="M -38.900000000000006 -7.849999999999998 A 3 3 0 0 0 -38.9 -1.85L -38.900000000000006 -1.8499999999999979 A 3 3 0 0 1 -38.9 -7.85L -38.900000000000006 -7.849999999999998 Z " stroke="#191919" stroke-width="0.35 px" style="stroke-width:0.35;stroke-miterlimit:4;stroke-dasharray:none;stroke-linecap:square;fill:#cccccc;fill-opacity:1.0;fill-rule: evenodd"/>
<path id="MultiTransform002_f0026"  d="M -37.900000000000006 -7.849999999999996 L -38.900000000000006 -7.849999999999996 L -38.900000000000006 -7.849999999999998 L -37.900000000000006 -7.849999999999998 L -37.900000000000006 -7.849999999999998 Z " stroke="#191919" stroke-width="0.35 px" style="stroke-width:0.35;stroke-miterlimit:4;stroke-dasharray:none;stroke-linecap:square;fill:#cccccc;fill-opacity:1.0;fill-rule: evenodd"/>
<path id="MultiTransform002_f0027"  d="M -37.900000000000006 -1.8499999999999965 A 3 3 0 0 0 -37.9 -7.85L -37.900000000000006 -7.849999999999998 A 3 3 0 0 1 -37.9 -1.85L -37.900000000000006 -1.8499999999999965 Z " stroke="#191919" stroke-width="0.35 px" style="stroke-width:0.35;stroke-miterlimit:4;stroke-dasharray:none;stroke-linecap:square;fill:#cccccc;fill-opacity:1.0;fill-rule: evenodd"/>
<path id="MultiTransform002_f0028"  d="M -38.900000000000006 -1.8499999999999954 L -37.900000000000006 -1.8499999999999954 L -37.900000000000006 -1.8499999999999979 L -38.900000000000006 -1.8499999999999979 L -38.900000000000006 -1.8499999999999965 Z " stroke="#191919" stroke-width="0.35 px" style="stroke-width:0.35;stroke-miterlimit:4;stroke-dasharray:none;stroke-linecap:square;fill:#cccccc;fill-opacity:1.0;fill-rule: evenodd"/>
<path id="MultiTransform002_f0029"  d="M -13.300000000000008 -17.549999999999997 A 3 3 0 0 0 -13.3 -11.55L -13.300000000000008 -11.549999999999997 A 3 3 0 0 1 -13.3 -17.55L -13.300000000000008 -17.549999999999997 Z " stroke="#191919" stroke-width="0.35 px" style="stroke-width:0.35;stroke-miterlimit:4;stroke-dasharray:none;stroke-linecap:square;fill:#cccccc;fill-opacity:1.0;fill-rule: evenodd"/>
<path id="MultiTransform002_f0030"  d="M -12.300000000000011 -17.549999999999997 L -13.300000000000011 -17.549999999999997 L -13.300000000000008 -17.549999999999997 L -12.300000000000008 -17.549999999999997 L -12.300000000000008 -17.549999999999997 Z " stroke="#191919" stroke-width="0.35 px" style="stroke-width:0.35;stroke-miterlimit:4;stroke-dasharray:none;stroke-linecap:square;fill:#cccccc;fill-opacity:1.0;fill-rule: evenodd"/>
<path id="MultiTransform002_f0031"  d="M -12.300000000000008 -11.549999999999997 A 3 3 0 0 0 -12.3 -17.55L -12.300000000000008 -17.549999999999997 A 3 3 0 0 1 -12.3 -11.55L -12.300000000000008 -11.549999999999997 Z " stroke="#191919" stroke-width="0.35 px" style="stroke-width:0.35;stroke-miterlimit:4;stroke-dasharray:none;stroke-linecap:square;fill:#cccccc;fill-opacity:1.0;fill-rule: evenodd"/>
<path id="MultiTransform002_f0032"  d="M -13.300000000000011 -11.549999999999997 L -12.300000000000008 -11.549999999999997 L -12.300000000000008 -11.549999999999997 L -13.300000000000008 -11.549999999999997 L -13.300000000000008 -11.549999999999997 Z " stroke="#191919" stroke-width="0.35 px" style="stroke-width:0.35;stroke-miterlimit:4;stroke-dasharray:none;stroke-linecap:square;fill:#cccccc;fill-opacity:1.0;fill-rule: evenodd"/>
<path id="MultiTransform002_f0033"  d="M -13.300000000000008 -7.849999999999998 A 3 3 0 0 0 -13.3 -1.85L -13.300000000000008 -1.8499999999999979 A 3 3 0 0 1 -13.3 -7.85L -13.300000000000008 -7.849999999999998 Z " stroke="#191919" stroke-width="0.35 px" style="stroke-width:0.35;stroke-miterlimit:4;stroke-dasharray:none;stroke-linecap:square;fill:#cccccc;fill-opacity:1.0;fill-rule: evenodd"/>
<path id="MultiTransform002_f0034"  d="M -12.300000000000011 -7.849999999999996 L -13.300000000000011 -7.849999999999996 L -13.300000000000008 -7.849999999999998 L -12.300000000000008 -7.849999999999998 L -12.300000000000008 -7.849999999999998 Z " stroke="#191919" stroke-width="0.35 px" style="stroke-width:0.35;stroke-miterlimit:4;stroke-dasharray:none;stroke-linecap:square;fill:#cccccc;fill-opacity:1.0;fill-rule: evenodd"/>
<path id="MultiTransform002_f0035"  d="M -12.300000000000008 -1.8499999999999965 A 3 3 0 0 0 -12.3 -7.85L -12.300000000000008 -7.849999999999998 A 3 3 0 0 1 -12.3 -1.85L -12.300000000000008 -1.8499999999999965 Z " stroke="#191919" stroke-width="0.35 px" style="stroke-width:0.35;stroke-miterlimit:4;stroke-dasharray:none;stroke-linecap:square;fill:#cccccc;fill-opacity:1.0;fill-rule: evenodd"/>
<path id="MultiTransform002_f0036"  d="M -13.300000000000011 -1.8499999999999954 L -12.300000000000008 -1.8499999999999954 L -12.300000000000008 -1.8499999999999979 L -13.300000000000008 -1.8499999999999979 L -13.300000000000008 -1.8499999999999965 Z " stroke="#191919" stroke-width="0.35 px" style="stroke-width:0.35;stroke-miterlimit:4;stroke-dasharray:none;stroke-linecap:square;fill:#cccccc;fill-opacity:1.0;fill-rule: evenodd"/>
<path id="MultiTransform002_f0037"  d="M 12.29999999999999 -36.949999999999996 A 3 3 0 0 0 12.3 -30.95L 12.29999999999999 -30.949999999999996 A 3 3 0 0 1 12.3 -36.95L 12.29999999999999 -36.949999999999996 Z " stroke="#191919" stroke-width="0.35 px" style="stroke-width:0.35;stroke-miterlimit:4;stroke-dasharray:none;stroke-linecap:square;fill:#cccccc;fill-opacity:1.0;fill-rule: evenodd"/>
<path id="MultiTransform002_f0038"  d="M 13.29999999999999 -36.94999999999999 L 12.29999999999999 -36.94999999999999 L 12.29999999999999 -36.949999999999996 L 13.29999999999999 -36.949999999999996 L 13.29999999999999 -36.949999999999996 Z " stroke="#191919" stroke-width="0.35 px" style="stroke-width:0.35;stroke-miterlimit:4;stroke-dasharray:none;stroke-linecap:square;fill:#cccccc;fill-opacity:1.0;fill-rule: evenodd"/>
<path id="MultiTransform002_f0039"  d="M 13.29999999999999 -30.949999999999996 A 3 3 0 0 0 13.3 -36.95L 13.29999999999999 -36.949999999999996 A 3 3 0 0 1 13.3 -30.95L 13.29999999999999 -30.949999999999996 Z " stroke="#191919" stroke-width="0.35 px" style="stroke-width:0.35;stroke-miterlimit:4;stroke-dasharray:none;stroke-linecap:square;fill:#cccccc;fill-opacity:1.0;fill-rule: evenodd"/>
<path id="MultiTransform002_f0040"  d="M 12.29999999999999 -30.949999999999992 L 13.29999999999999 -30.949999999999992 L 13.29999999999999 -30.949999999999996 L 12.29999999999999 -30.949999999999996 L 12.29999999999999 -30.949999999999996 Z " stroke="#191919" stroke-width="0.35 px" style="stroke-width:0.35;stroke-miterlimit:4;stroke-dasharray:none;stroke-linecap:square;fill:#cccccc;fill-opacity:1.0;fill-rule: evenodd"/>
<path id="MultiTransform002_f0041"  d="M 12.29999999999999 -27.249999999999996 A 3 3 0 0 0 12.3 -21.25L 12.29999999999999 -21.249999999999996 A 3 3 0 0 1 12.3 -27.25L 12.29999999999999 -27.249999999999996 Z " stroke="#191919" stroke-width="0.35 px" style="stroke-width:0.35;stroke-miterlimit:4;stroke-dasharray:none;stroke-linecap:square;fill:#cccccc;fill-opacity:1.0;fill-rule: evenodd"/>
<path id="MultiTransform002_f0042"  d="M 13.29999999999999 -27.25 L 12.29999999999999 -27.25 L 12.29999999999999 -27.249999999999996 L 13.29999999999999 -27.249999999999996 L 13.29999999999999 -27.249999999999996 Z " stroke="#191919" stroke-width="0.35 px" style="stroke-width:0.35;stroke-miterlimit:4;stroke-dasharray:none;stroke-linecap:square;fill:#cccccc;fill-opacity:1.0;fill-rule: evenodd"/>
<path id="MultiTransform002_f0043"  d="M 13.29999999999999 -21.249999999999996 A 3 3 0 0 0 13.3 -27.25L 13.29999999999999 -27.249999999999996 A 3 3 0 0 1 13.3 -21.25L 13.29999999999999 -21.249999999999996 Z " stroke="#191919" stroke-width="0.35 px" style="stroke-width:0.35;stroke-miterlimit:4;stroke-dasharray:none;stroke-linecap:square;fill:#cccccc;fill-opacity:1.0;fill-rule: evenodd"/>
<path id="MultiTransform002_f0044"  d="M 12.29999999999999 -21.25 L 13.29999999999999 -21.25 L 13.29999999999999 -21.249999999999996 L 12.29999999999999 -21.249999999999996 L 12.29999999999999 -21.249999999999996 Z " stroke="#191919" stroke-width="0.35 px" style="stroke-width:0.35;stroke-miterlimit:4;stroke-dasharray:none;stroke-linecap:square;fill:#cccccc;fill-opacity:1.0;fill-rule: evenodd"/>
<path id="MultiTransform002_f0045"  d="M 37.89999999999999 -36.949999999999996 A 3 3 0 0 0 37.9 -30.95L 37.89999999999999 -30.949999999999996 A 3 3 0 0 1 37.9 -36.95L 37.89999999999999 -36.949999999999996 Z " stroke="#191919" stroke-width="0.35 px" style="stroke-width:0.35;stroke-miterlimit:4;stroke-dasharray:none;stroke-linecap:square;fill:#cccccc;fill-opacity:1.0;fill-rule: evenodd"/>
<path id="MultiTransform002_f0046"  d="M 38.89999999999999 -36.94999999999999 L 37.89999999999999 -36.94999999999999 L 37.89999999999999 -36.949999999999996 L 38.89999999999999 -36.949999999999996 L 38.89999999999999 -36.949999999999996 Z " stroke="#191919" stroke-width="0.35 px" style="stroke-width:0.35;stroke-miterlimit:4;stroke-dasharray:none;stroke-linecap:square;fill:#cccccc;fill-opacity:1.0;fill-rule: evenodd"/>
<path id="MultiTransform002_f0047"  d="M 38.89999999999999 -30.949999999999996 A 3 3 0 0 0 38.9 -36.95L 38.89999999999999 -36.949999999999996 A 3 3 0 0 1 38.9 -30.95L 38.89999999999999 -30.949999999999996 Z " stroke="#191919" stroke-width="0.35 px" style="stroke-width:0.35;stroke-miterlimit:4;stroke-dasharray:none;stroke-linecap:square;fill:#cccccc;fill-opacity:1.0;fill-rule: evenodd"/>
<path id="MultiTransform002_f0048"  d="M 37.89999999999999 -30.949999999999992 L 38.89999999999999 -30.949999999999992 L 38.89999999999999 -30.949999999999996 L 37.89999999999999 -30.949999999999996 L 37.89999999999999 -30.949999999999996 Z " stroke="#191919" stroke-width="0.35 px" style="stroke-width:0.35;stroke-miterlimit:4;stroke-dasharray:none;stroke-linecap:square;fill:#cccccc;fill-opacity:1.0;fill-rule: evenodd"/>
<path id="MultiTransform002_f0049"  d="M 37.89999999999999 -27.249999999999996 A 3 3 0 0 0 37.9 -21.25L 37.89999999999999 -21.249999999999996 A 3 3 0 0 1 37.9 -27.25L 37.89999999999999 -27.249999999999996 Z " stroke="#191919" stroke-width="0.35 px" style="stroke-width:0.35;stroke-miterlimit:4;stroke-dasharray:none;stroke-linecap:square;fill:#cccccc;fill-opacity:1.0;fill-rule: evenodd"/>
<path id="MultiTransform002_f0050"  d="M 38.89999999999999 -27.25 L 37.89999999999999 -27.25 L 37.89999999999999 -27.249999999999996 L 38.89999999999999 -27.249999999999996 L 38.89999999999999 -27.249999999999996 Z " stroke="#191919" stroke-width="0.35 px" style="stroke-width:0.35;stroke-miterlimit:4;stroke-dasharray:none;stroke-linecap:square;fill:#cccccc;fill-opacity:1.0;fill-rule: evenodd"/>
<path id="MultiTransform002_f0051"  d="M 38.89999999999999 -21.249999999999996 A 3 3 0 0 0 38.9 -27.25L 38.89999999999999 -27.249999999999996 A 3 3 0 0 1 38.9 -21.25L 38.89999999999999 -21.249999999999996 Z " stroke="#191919" stroke-width="0.35 px" style="stroke-width:0.35;stroke-miterlimit:4;stroke-dasharray:none;stroke-linecap:square;fill:#cccccc;fill-opacity:1.0;fill-rule: evenodd"/>
<path id="MultiTransform002_f0052"  d="M 37.89999999999999 -21.25 L 38.89999999999999 -21.25 L 38.89999999999999 -21.249999999999996 L 37.89999999999999 -21.249999999999996 L 37.89999999999999 -21.249999999999996 Z " stroke="#191919" stroke-width="0.35 px" style="stroke-width:0.35;stroke-miterlimit:4;stroke-dasharray:none;stroke-linecap:square;fill:#cccccc;fill-opacity:1.0;fill-rule: evenodd"/>
<path id="MultiTransform002_f0053"  d="M 12.29999999999999 -17.549999999999997 A 3 3 0 0 0 12.3 -11.55L 12.29999999999999 -11.549999999999997 A 3 3 0 0 1 12.3 -17.55L 12.29999999999999 -17.549999999999997 Z " stroke="#191919" stroke-width="0.35 px" style="stroke-width:0.35;stroke-miterlimit:4;stroke-dasharray:none;stroke-linecap:square;fill:#cccccc;fill-opacity:1.0;fill-rule: evenodd"/>
<path id="MultiTransform002_f0054"  d="M 13.29999999999999 -17.549999999999997 L 12.29999999999999 -17.549999999999997 L 12.29999999999999 -17.549999999999997 L 13.29999999999999 -17.549999999999997 L 13.29999999999999 -17.549999999999997 Z " stroke="#191919" stroke-width="0.35 px" style="stroke-width:0.35;stroke-miterlimit:4;stroke-dasharray:none;stroke-linecap:square;fill:#cccccc;fill-opacity:1.0;fill-rule: evenodd"/>
<path id="MultiTransform002_f0055"  d="M 13.29999999999999 -11.549999999999997 A 3 3 0 0 0 13.3 -17.55L 13.29999999999999 -17.549999999999997 A 3 3 0 0 1 13.3 -11.55L 13.29999999999999 -11.549999999999997 Z " stroke="#191919" stroke-width="0.35 px" style="stroke-width:0.35;stroke-miterlimit:4;stroke-dasharray:none;stroke-linecap:square;fill:#cccccc;fill-opacity:1.0;fill-rule: evenodd"/>
<path id="MultiTransform002_f0056"  d="M 12.29999999999999 -11.549999999999997 L 13.29999999999999 -11.549999999999997 L 13.29999999999999 -11.549999999999997 L 12.29999999999999 -11.549999999999997 L 12.29999999999999 -11.549999999999997 Z " stroke="#191919" stroke-width="0.35 px" style="stroke-width:0.35;stroke-miterlimit:4;stroke-dasharray:none;stroke-linecap:square;fill:#cccccc;fill-opacity:1.0;fill-rule: evenodd"/>
<path id="MultiTransform002_f0057"  d="M 12.29999999999999 -7.849999999999998 A 3 3 0 0 0 12.3 -1.85L 12.29999999999999 -1.8499999999999979 A 3 3 0 0 1 12.3 -7.85L 12.29999999999999 -7.849999999999998 Z " stroke="#191919" stroke-width="0.35 px" style="stroke-width:0.35;stroke-miterlimit:4;stroke-dasharray:none;stroke-linecap:square;fill:#cccccc;fill-opacity:1.0;fill-rule: evenodd"/>
<path id="MultiTransform002_f0058"  d="M 13.29999999999999 -7.849999999999996 L 12.29999999999999 -7.849999999999996 L 12.29999999999999 -7.849999999999998 L 13.29999999999999 -7.849999999999998 L 13.29999999999999 -7.849999999999998 Z " stroke="#191919" stroke-width="0.35 px" style="stroke-width:0.35;stroke-miterlimit:4;stroke-dasharray:none;stroke-linecap:square;fill:#cccccc;fill-opacity:1.0;fill-rule: evenodd"/>
<path id="MultiTransform002_f0059"  d="M 13.29999999999999 -1.8499999999999965 A 3 3 0 0 0 13.3 -7.85L 13.29999999999999 -7.849999999999998 A 3 3 0 0 1 13.3 -1.85L 13.29999999999999 -1.8499999999999965 Z " stroke="#191919" stroke-width="0.35 px" style="stroke-width:0.35;stroke-miterlimit:4;stroke-dasharray:none;stroke-linecap:square;fill:#cccccc;fill-opacity:1.0;fill-rule: evenodd"/>
<path id="MultiTransform002_f0060"  d="M 12.29999999999999 -1.8499999999999954 L 13.29999999999999 -1.8499999999999954 L 13.29999999999999 -1.8499999999999979 L 12.29999999999999 -1.8499999999999979 L 12.29999999999999 -1.8499999999999965 Z " stroke="#191919" stroke-width="0.35 px" style="stroke-width:0.35;stroke-miterlimit:4;stroke-dasharray:none;stroke-linecap:square;fill:#cccccc;fill-opacity:1.0;fill-rule: evenodd"/>
<path id="MultiTransform002_f0061"  d="M 37.89999999999999 -17.549999999999997 A 3 3 0 0 0 37.9 -11.55L 37.89999999999999 -11.549999999999997 A 3 3 0 0 1 37.9 -17.55L 37.89999999999999 -17.549999999999997 Z " stroke="#191919" stroke-width="0.35 px" style="stroke-width:0.35;stroke-miterlimit:4;stroke-dasharray:none;stroke-linecap:square;fill:#cccccc;fill-opacity:1.0;fill-rule: evenodd"/>
<path id="MultiTransform002_f0062"  d="M 38.89999999999999 -17.549999999999997 L 37.89999999999999 -17.549999999999997 L 37.89999999999999 -17.549999999999997 L 38.89999999999999 -17.549999999999997 L 38.89999999999999 -17.549999999999997 Z " stroke="#191919" stroke-width="0.35 px" style="stroke-width:0.35;stroke-miterlimit:4;stroke-dasharray:none;stroke-linecap:square;fill:#cccccc;fill-opacity:1.0;fill-rule: evenodd"/>
<path id="MultiTransform002_f0063"  d="M 38.89999999999999 -11.549999999999997 A 3 3 0 0 0 38.9 -17.55L 38.89999999999999 -17.549999999999997 A 3 3 0 0 1 38.9 -11.55L 38.89999999999999 -11.549999999999997 Z " stroke="#191919" stroke-width="0.35 px" style="stroke-width:0.35;stroke-miterlimit:4;stroke-dasharray:none;stroke-linecap:square;fill:#cccccc;fill-opacity:1.0;fill-rule: evenodd"/>
<path id="MultiTransform002_f0064"  d="M 37.89999999999999 -11.549999999999997 L 38.89999999999999 -11.549999999999997 L 38.89999999999999 -11.549999999999997 L 37.89999999999999 -11.549999999999997 L 37.89999999999999 -11.549999999999997 Z " stroke="#191919" stroke-width="0.35 px" style="stroke-width:0.35;stroke-miterlimit:4;stroke-dasharray:none;stroke-linecap:square;fill:#cccccc;fill-opacity:1.0;fill-rule: evenodd"/>
<path id="MultiTransform002_f0065"  d="M 37.89999999999999 -7.849999999999998 A 3 3 0 0 0 37.9 -1.85L 37.89999999999999 -1.8499999999999979 A 3 3 0 0 1 37.9 -7.85L 37.89999999999999 -7.849999999999998 Z " stroke="#191919" stroke-width="0.35 px" style="stroke-width:0.35;stroke-miterlimit:4;stroke-dasharray:none;stroke-linecap:square;fill:#cccccc;fill-opacity:1.0;fill-rule: evenodd"/>
<path id="MultiTransform002_f0066"  d="M 38.89999999999999 -7.849999999999996 L 37.89999999999999 -7.849999999999996 L 37.89999999999999 -7.849999999999998 L 38.89999999999999 -7.849999999999998 L 38.89999999999999 -7.849999999999998 Z " stroke="#191919" stroke-width="0.35 px" style="stroke-width:0.35;stroke-miterlimit:4;stroke-dasharray:none;stroke-linecap:square;fill:#cccccc;fill-opacity:1.0;fill-rule: evenodd"/>
<path id="MultiTransform002_f0067"  d="M 38.89999999999999 -1.8499999999999965 A 3 3 0 0 0 38.9 -7.85L 38.89999999999999 -7.849999999999998 A 3 3 0 0 1 38.9 -1.85L 38.89999999999999 -1.8499999999999965 Z " stroke="#191919" stroke-width="0.35 px" style="stroke-width:0.35;stroke-miterlimit:4;stroke-dasharray:none;stroke-linecap:square;fill:#cccccc;fill-opacity:1.0;fill-rule: evenodd"/>
<path id="MultiTransform002_f0068"  d="M 37.89999999999999 -1.8499999999999954 L 38.89999999999999 -1.8499999999999954 L 38.89999999999999 -1.8499999999999979 L 37.89999999999999 -1.8499999999999979 L 37.89999999999999 -1.8499999999999965 Z " stroke="#191919" stroke-width="0.35 px" style="stroke-width:0.35;stroke-miterlimit:4;stroke-dasharray:none;stroke-linecap:square;fill:#cccccc;fill-opacity:1.0;fill-rule: evenodd"/>
<path id="MultiTransform002_f0069"  d="M -38.900000000000006 1.8500000000000025 A 3 3 0 0 0 -38.9 7.85L -38.900000000000006 7.850000000000001 A 3 3 0 0 1 -38.9 1.85L -38.900000000000006 1.8500000000000025 Z " stroke="#191919" stroke-width="0.35 px" style="stroke-width:0.35;stroke-miterlimit:4;stroke-dasharray:none;stroke-linecap:square;fill:#cccccc;fill-opacity:1.0;fill-rule: evenodd"/>
<path id="MultiTransform002_f0070"  d="M -37.900000000000006 1.850000000000002 L -38.900000000000006 1.850000000000002 L -38.900000000000006 1.8500000000000014 L -37.900000000000006 1.8500000000000014 L -37.900000000000006 1.8500000000000025 Z " stroke="#191919" stroke-width="0.35 px" style="stroke-width:0.35;stroke-miterlimit:4;stroke-dasharray:none;stroke-linecap:square;fill:#cccccc;fill-opacity:1.0;fill-rule: evenodd"/>
<path id="MultiTransform002_f0071"  d="M -37.900000000000006 7.850000000000001 A 3 3 0 0 0 -37.9 1.85L -37.900000000000006 1.8500000000000014 A 3 3 0 0 1 -37.9 7.85L -37.900000000000006 7.850000000000001 Z " stroke="#191919" stroke-width="0.35 px" style="stroke-width:0.35;stroke-miterlimit:4;stroke-dasharray:none;stroke-linecap:square;fill:#cccccc;fill-opacity:1.0;fill-rule: evenodd"/>
<path id="MultiTransform002_f0072"  d="M -38.900000000000006 7.850000000000001 L -37.900000000000006 7.850000000000001 L -37.900000000000006 7.850000000000001 L -38.900000000000006 7.850000000000001 L -38.900000000000006 7.850000000000001 Z " stroke="#191919" stroke-width="0.35 px" style="stroke-width:0.35;stroke-miterlimit:4;stroke-dasharray:none;stroke-linecap:square;fill:#cccccc;fill-opacity:1.0;fill-rule: evenodd"/>
<path id="MultiTransform002_f0073"  d="M -38.900000000000006 11.550000000000004 A 3 3 0 0 0 -38.9 17.55L -38.900000000000006 17.550000000000004 A 3 3 0 0 1 -38.9 11.55L -38.900000000000006 11.550000000000004 Z " stroke="#191919" stroke-width="0.35 px" style="stroke-width:0.35;stroke-miterlimit:4;stroke-dasharray:none;stroke-linecap:square;fill:#cccccc;fill-opacity:1.0;fill-rule: evenodd"/>
<path id="MultiTransform002_f0074"  d="M -37.900000000000006 11.550000000000004 L -38.900000000000006 11.550000000000004 L -38.900000000000006 11.550000000000004 L -37.900000000000006 11.550000000000004 L -37.900000000000006 11.550000000000004 Z " stroke="#191919" stroke-width="0.35 px" style="stroke-width:0.35;stroke-miterlimit:4;stroke-dasharray:none;stroke-linecap:square;fill:#cccccc;fill-opacity:1.0;fill-rule: evenodd"/>
<path id="MultiTransform002_f0075"  d="M -37.900000000000006 17.550000000000004 A 3 3 0 0 0 -37.9 11.55L -37.900000000000006 11.550000000000004 A 3 3 0 0 1 -37.9 17.55L -37.900000000000006 17.550000000000004 Z " stroke="#191919" stroke-width="0.35 px" style="stroke-width:0.35;stroke-miterlimit:4;stroke-dasharray:none;stroke-linecap:square;fill:#cccccc;fill-opacity:1.0;fill-rule: evenodd"/>
<path id="MultiTransform002_f0076"  d="M -38.900000000000006 17.550000000000004 L -37.900000000000006 17.550000000000004 L -37.900000000000006 17.550000000000004 L -38.900000000000006 17.550000000000004 L -38.900000000000006 17.550000000000004 Z " stroke="#191919" stroke-width="0.35 px" style="stroke-width:0.35;stroke-miterlimit:4;stroke-dasharray:none;stroke-linecap:square;fill:#cccccc;fill-opacity:1.0;fill-rule: evenodd"/>
<path id="MultiTransform002_f0077"  d="M -13.300000000000008 1.8500000000000025 A 3 3 0 0 0 -13.3 7.85L -13.300000000000008 7.850000000000001 A 3 3 0 0 1 -13.3 1.85L -13.300000000000008 1.8500000000000025 Z " stroke="#191919" stroke-width="0.35 px" style="stroke-width:0.35;stroke-miterlimit:4;stroke-dasharray:none;stroke-linecap:square;fill:#cccccc;fill-opacity:1.0;fill-rule: evenodd"/>
<path id="MultiTransform002_f0078"  d="M -12.300000000000011 1.850000000000002 L -13.300000000000011 1.850000000000002 L -13.300000000000008 1.8500000000000014 L -12.300000000000008 1.8500000000000014 L -12.300000000000008 1.8500000000000025 Z " stroke="#191919" stroke-width="0.35 px" style="stroke-width:0.35;stroke-miterlimit:4;stroke-dasharray:none;stroke-linecap:square;fill:#cccccc;fill-opacity:1.0;fill-rule: evenodd"/>
<path id="MultiTransform002_f0079"  d="M -12.300000000000008 7.850000000000001 A 3 3 0 0 0 -12.3 1.85L -12.300000000000008 1.8500000000000014 A 3 3 0 0 1 -12.3 7.85L -12.300000000000008 7.850000000000001 Z " stroke="#191919" stroke-width="0.35 px" style="stroke-width:0.35;stroke-miterlimit:4;stroke-dasharray:none;stroke-linecap:square;fill:#cccccc;fill-opacity:1.0;fill-rule: evenodd"/>
<path id="MultiTransform002_f0080"  d="M -13.300000000000011 7.850000000000001 L -12.300000000000008 7.850000000000001 L -12.300000000000008 7.850000000000001 L -13.300000000000008 7.850000000000001 L -13.300000000000008 7.850000000000001 Z " stroke="#191919" stroke-width="0.35 px" style="stroke-width:0.35;stroke-miterlimit:4;stroke-dasharray:none;stroke-linecap:square;fill:#cccccc;fill-opacity:1.0;fill-rule: evenodd"/>
<path id="MultiTransform002_f0081"  d="M -13.300000000000008 11.550000000000004 A 3 3 0 0 0 -13.3 17.55L -13.300000000000008 17.550000000000004 A 3 3 0 0 1 -13.3 11.55L -13.300000000000008 11.550000000000004 Z " stroke="#191919" stroke-width="0.35 px" style="stroke-width:0.35;stroke-miterlimit:4;stroke-dasharray:none;stroke-linecap:square;fill:#cccccc;fill-opacity:1.0;fill-rule: evenodd"/>
<path id="MultiTransform002_f0082"  d="M -12.300000000000011 11.550000000000004 L -13.300000000000011 11.550000000000004 L -13.300000000000008 11.550000000000004 L -12.300000000000008 11.550000000000004 L -12.300000000000008 11.550000000000004 Z " stroke="#191919" stroke-width="0.35 px" style="stroke-width:0.35;stroke-miterlimit:4;stroke-dasharray:none;stroke-linecap:square;fill:#cccccc;fill-opacity:1.0;fill-rule: evenodd"/>
<path id="MultiTransform002_f0083"  d="M -12.300000000000008 17.550000000000004 A 3 3 0 0 0 -12.3 11.55L -12.300000000000008 11.550000000000004 A 3 3 0 0 1 -12.3 17.55L -12.300000000000008 17.550000000000004 Z " stroke="#191919" stroke-width="0.35 px" style="stroke-width:0.35;stroke-miterlimit:4;stroke-dasharray:none;stroke-linecap:square;fill:#cccccc;fill-opacity:1.0;fill-rule: evenodd"/>
<path id="MultiTransform002_f0084"  d="M -13.300000000000011 17.550000000000004 L -12.300000000000008 17.550000000000004 L -12.300000000000008 17.550000000000004 L -13.300000000000008 17.550000000000004 L -13.300000000000008 17.550000000000004 Z " stroke="#191919" stroke-width="0.35 px" style="stroke-width:0.35;stroke-miterlimit:4;stroke-dasharray:none;stroke-linecap:square;fill:#cccccc;fill-opacity:1.0;fill-rule: evenodd"/>
<path id="MultiTransform002_f0085"  d="M -38.900000000000006 21.25 A 3 3 0 0 0 -38.9 27.25L -38.900000000000006 27.25 A 3 3 0 0 1 -38.9 21.25L -38.900000000000006 21.25 Z " stroke="#191919" stroke-width="0.35 px" style="stroke-width:0.35;stroke-miterlimit:4;stroke-dasharray:none;stroke-linecap:square;fill:#cccccc;fill-opacity:1.0;fill-rule: evenodd"/>
<path id="MultiTransform002_f0086"  d="M -37.900000000000006 21.25 L -38.900000000000006 21.25 L -38.900000000000006 21.25 L -37.900000000000006 21.25 L -37.900000000000006 21.25 Z " stroke="#191919" stroke-width="0.35 px" style="stroke-width:0.35;stroke-miterlimit:4;stroke-dasharray:none;stroke-linecap:square;fill:#cccccc;fill-opacity:1.0;fill-rule: evenodd"/>
<path id="MultiTransform002_f0087"  d="M -37.900000000000006 27.25 A 3 3 0 0 0 -37.9 21.25L -37.900000000000006 21.25 A 3 3 0 0 1 -37.9 27.25L -37.900000000000006 27.25 Z " stroke="#191919" stroke-width="0.35 px" style="stroke-width:0.35;stroke-miterlimit:4;stroke-dasharray:none;stroke-linecap:square;fill:#cccccc;fill-opacity:1.0;fill-rule: evenodd"/>
<path id="MultiTransform002_f0088"  d="M -38.900000000000006 27.25 L -37.900000000000006 27.25 L -37.900000000000006 27.25 L -38.900000000000006 27.25 L -38.900000000000006 27.25 Z " stroke="#191919" stroke-width="0.35 px" style="stroke-width:0.35;stroke-miterlimit:4;stroke-dasharray:none;stroke-linecap:square;fill:#cccccc;fill-opacity:1.0;fill-rule: evenodd"/>
<path id="MultiTransform002_f0089"  d="M -38.900000000000006 30.949999999999996 A 3 3 0 0 0 -38.9 36.95L -38.900000000000006 36.949999999999996 A 3 3 0 0 1 -38.9 30.95L -38.900000000000006 30.949999999999996 Z " stroke="#191919" stroke-width="0.35 px" style="stroke-width:0.35;stroke-miterlimit:4;stroke-dasharray:none;stroke-linecap:square;fill:#cccccc;fill-opacity:1.0;fill-rule: evenodd"/>
<path id="MultiTransform002_f0090"  d="M -37.900000000000006 30.949999999999996 L -38.900000000000006 30.949999999999996 L -38.900000000000006 30.949999999999996 L -37.900000000000006 30.949999999999996 L -37.900000000000006 30.949999999999996 Z " stroke="#191919" stroke-width="0.35 px" style="stroke-width:0.35;stroke-miterlimit:4;stroke-dasharray:none;stroke-linecap:square;fill:#cccccc;fill-opacity:1.0;fill-rule: evenodd"/>
<path id="MultiTransform002_f0091"  d="M -37.900000000000006 36.949999999999996 A 3 3 0 0 0 -37.9 30.95L -37.900000000000006 30.949999999999996 A 3 3 0 0 1 -37.9 36.95L -37.900000000000006 36.949999999999996 Z " stroke="#191919" stroke-width="0.35 px" style="stroke-width:0.35;stroke-miterlimit:4;stroke-dasharray:none;stroke-linecap:square;fill:#cccccc;fill-opacity:1.0;fill-rule: evenodd"/>
<path id="MultiTransform002_f0092"  d="M -38.900000000000006 36.949999999999996 L -37.900000000000006 36.949999999999996 L -37.900000000000006 36.949999999999996 L -38.900000000000006 36.949999999999996 L -38.900000000000006 36.949999999999996 Z " stroke="#191919" stroke-width="0.35 px" style="stroke-width:0.35;stroke-miterlimit:4;stroke-dasharray:none;stroke-linecap:square;fill:#cccccc;fill-opacity:1.0;fill-rule: evenodd"/>
<path id="MultiTransform002_f0093"  d="M -13.300000000000008 21.25 A 3 3 0 0 0 -13.3 27.25L -13.300000000000008 27.25 A 3 3 0 0 1 -13.3 21.25L -13.300000000000008 21.25 Z " stroke="#191919" stroke-width="0.35 px" style="stroke-width:0.35;stroke-miterlimit:4;stroke-dasharray:none;stroke-linecap:square;fill:#cccccc;fill-opacity:1.0;fill-rule: evenodd"/>
<path id="MultiTransform002_f0094"  d="M -12.300000000000011 21.25 L -13.300000000000011 21.25 L -13.300000000000008 21.25 L -12.300000000000008 21.25 L -12.300000000000008 21.25 Z " stroke="#191919" stroke-width="0.35 px" style="stroke-width:0.35;stroke-miterlimit:4;stroke-dasharray:none;stroke-linecap:square;fill:#cccccc;fill-opacity:1.0;fill-rule: evenodd"/>
<path id="MultiTransform002_f0095"  d="M -12.300000000000008 27.25 A 3 3 0 0 0 -12.3 21.25L -12.300000000000008 21.25 A 3 3 0 0 1 -12.3 27.25L -12.300000000000008 27.25 Z " stroke="#191919" stroke-width="0.35 px" style="stroke-width:0.35;stroke-miterlimit:4;stroke-dasharray:none;stroke-linecap:square;fill:#cccccc;fill-opacity:1.0;fill-rule: evenodd"/>
<path id="MultiTransform002_f0096"  d="M -13.300000000000011 27.25 L -12.300000000000008 27.25 L -12.300000000000008 27.25 L -13.300000000000008 27.25 L -13.300000000000008 27.25 Z " stroke="#191919" stroke-width="0.35 px" style="stroke-width:0.35;stroke-miterlimit:4;stroke-dasharray:none;stroke-linecap:square;fill:#cccccc;fill-opacity:1.0;fill-rule: evenodd"/>
<path id="MultiTransform002_f0097"  d="M -13.300000000000008 30.949999999999996 A 3 3 0 0 0 -13.3 36.95L -13.300000000000008 36.949999999999996 A 3 3 0 0 1 -13.3 30.95L -13.300000000000008 30.949999999999996 Z " stroke="#191919" stroke-width="0.35 px" style="stroke-width:0.35;stroke-miterlimit:4;stroke-dasharray:none;stroke-linecap:square;fill:#cccccc;fill-opacity:1.0;fill-rule: evenodd"/>
<path id="MultiTransform002_f0098"  d="M -12.300000000000011 30.949999999999996 L -13.300000000000011 30.949999999999996 L -13.300000000000008 30.949999999999996 L -12.300000000000008 30.949999999999996 L -12.300000000000008 30.949999999999996 Z " stroke="#191919" stroke-width="0.35 px" style="stroke-width:0.35;stroke-miterlimit:4;stroke-dasharray:none;stroke-linecap:square;fill:#cccccc;fill-opacity:1.0;fill-rule: evenodd"/>
<path id="MultiTransform002_f0099"  d="M -12.300000000000008 36.949999999999996 A 3 3 0 0 0 -12.3 30.95L -12.300000000000008 30.949999999999996 A 3 3 0 0 1 -12.3 36.95L -12.300000000000008 36.949999999999996 Z " stroke="#191919" stroke-width="0.35 px" style="stroke-width:0.35;stroke-miterlimit:4;stroke-dasharray:none;stroke-linecap:square;fill:#cccccc;fill-opacity:1.0;fill-rule: evenodd"/>
<path id="MultiTransform002_f0100"  d="M -13.300000000000011 36.949999999999996 L -12.300000000000008 36.949999999999996 L -12.300000000000008 36.949999999999996 L -13.300000000000008 36.949999999999996 L -13.300000000000008 36.949999999999996 Z " stroke="#191919" stroke-width="0.35 px" style="stroke-width:0.35;stroke-miterlimit:4;stroke-dasharray:none;stroke-linecap:square;fill:#cccccc;fill-opacity:1.0;fill-rule: evenodd"/>
<path id="MultiTransform002_f0101"  d="M 12.29999999999999 1.8500000000000025 A 3 3 0 0 0 12.3 7.85L 12.29999999999999 7.850000000000001 A 3 3 0 0 1 12.3 1.85L 12.29999999999999 1.8500000000000025 Z " stroke="#191919" stroke-width="0.35 px" style="stroke-width:0.35;stroke-miterlimit:4;stroke-dasharray:none;stroke-linecap:square;fill:#cccccc;fill-opacity:1.0;fill-rule: evenodd"/>
<path id="MultiTransform002_f0102"  d="M 13.29999999999999 1.850000000000002 L 12.29999999999999 1.850000000000002 L 12.29999999999999 1.8500000000000014 L 13.29999999999999 1.8500000000000014 L 13.29999999999999 1.8500000000000025 Z " stroke="#191919" stroke-width="0.35 px" style="stroke-width:0.35;stroke-miterlimit:4;stroke-dasharray:none;stroke-linecap:square;fill:#cccccc;fill-opacity:1.0;fill-rule: evenodd"/>
<path id="MultiTransform002_f0103"  d="M 13.29999999999999 7.850000000000001 A 3 3 0 0 0 13.3 1.85L 13.29999999999999 1.8500000000000014 A 3 3 0 0 1 13.3 7.85L 13.29999999999999 7.850000000000001 Z " stroke="#191919" stroke-width="0.35 px" style="stroke-width:0.35;stroke-miterlimit:4;stroke-dasharray:none;stroke-linecap:square;fill:#cccccc;fill-opacity:1.0;fill-rule: evenodd"/>
<path id="MultiTransform002_f0104"  d="M 12.29999999999999 7.850000000000001 L 13.29999999999999 7.850000000000001 L 13.29999999999999 7.850000000000001 L 12.29999999999999 7.850000000000001 L 12.29999999999999 7.850000000000001 Z " stroke="#191919" stroke-width="0.35 px" style="stroke-width:0.35;stroke-miterlimit:4;stroke-dasharray:none;stroke-linecap:square;fill:#cccccc;fill-opacity:1.0;fill-rule: evenodd"/>
<path id="MultiTransform002_f0105"  d="M 12.29999999999999 11.550000000000004 A 3 3 0 0 0 12.3 17.55L 12.29999999999999 17.550000000000004 A 3 3 0 0 1 12.3 11.55L 12.29999999999999 11.550000000000004 Z " stroke="#191919" stroke-width="0.35 px" style="stroke-width:0.35;stroke-miterlimit:4;stroke-dasharray:none;stroke-linecap:square;fill:#cccccc;fill-opacity:1.0;fill-rule: evenodd"/>
<path id="MultiTransform002_f0106"  d="M 13.29999999999999 11.550000000000004 L 12.29999999999999 11.550000000000004 L 12.29999999999999 11.550000000000004 L 13.29999999999999 11.550000000000004 L 13.29999999999999 11.550000000000004 Z " stroke="#191919" stroke-width="0.35 px" style="stroke-width:0.35;stroke-miterlimit:4;stroke-dasharray:none;stroke-linecap:square;fill:#cccccc;fill-opacity:1.0;fill-rule: evenodd"/>
<path id="MultiTransform002_f0107"  d="M 13.29999999999999 17.550000000000004 A 3 3 0 0 0 13.3 11.55L 13.29999999999999 11.550000000000004 A 3 3 0 0 1 13.3 17.55L 13.29999999999999 17.550000000000004 Z " stroke="#191919" stroke-width="0.35 px" style="stroke-width:0.35;stroke-miterlimit:4;stroke-dasharray:none;stroke-linecap:square;fill:#cccccc;fill-opacity:1.0;fill-rule: evenodd"/>
<path id="MultiTransform002_f0108"  d="M 12.29999999999999 17.550000000000004 L 13.29999999999999 17.550000000000004 L 13.29999999999999 17.550000000000004 L 12.29999999999999 17.550000000000004 L 12.29999999999999 17.550000000000004 Z " stroke="#191919" stroke-width="0.35 px" style="stroke-width:0.35;stroke-miterlimit:4;stroke-dasharray:none;stroke-linecap:square;fill:#cccccc;fill-opacity:1.0;fill-rule: evenodd"/>
<path id="MultiTransform002_f0109"  d="M 37.89999999999999 1.8500000000000025 A 3 3 0 0 0 37.9 7.85L 37.89999999999999 7.850000000000001 A 3 3 0 0 1 37.9 1.85L 37.89999999999999 1.8500000000000025 Z " stroke="#191919" stroke-width="0.35 px" style="stroke-width:0.35;stroke-miterlimit:4;stroke-dasharray:none;stroke-linecap:square;fill:#cccccc;fill-opacity:1.0;fill-rule: evenodd"/>
<path id="MultiTransform002_f0110"  d="M 38.89999999999999 1.850000000000002 L 37.89999999999999 1.850000000000002 L 37.89999999999999 1.8500000000000014 L 38.89999999999999 1.8500000000000014 L 38.89999999999999 1.8500000000000025 Z " stroke="#191919" stroke-width="0.35 px" style="stroke-width:0.35;stroke-miterlimit:4;stroke-dasharray:none;stroke-linecap:square;fill:#cccccc;fill-opacity:1.0;fill-rule: evenodd"/>
<path id="MultiTransform002_f0111"  d="M 38.89999999999999 7.850000000000001 A 3 3 0 0 0 38.9 1.85L 38.89999999999999 1.8500000000000014 A 3 3 0 0 1 38.9 7.85L 38.89999999999999 7.850000000000001 Z " stroke="#191919" stroke-width="0.35 px" style="stroke-width:0.35;stroke-miterlimit:4;stroke-dasharray:none;stroke-linecap:square;fill:#cccccc;fill-opacity:1.0;fill-rule: evenodd"/>
<path id="MultiTransform002_f0112"  d="M 37.89999999999999 7.850000000000001 L 38.89999999999999 7.850000000000001 L 38.89999999999999 7.850000000000001 L 37.89999999999999 7.850000000000001 L 37.89999999999999 7.850000000000001 Z " stroke="#191919" stroke-width="0.35 px" style="stroke-width:0.35;stroke-miterlimit:4;stroke-dasharray:none;stroke-linecap:square;fill:#cccccc;fill-opacity:1.0;fill-rule: evenodd"/>
<path id="MultiTransform002_f0113"  d="M 37.89999999999999 11.550000000000004 A 3 3 0 0 0 37.9 17.55L 37.89999999999999 17.550000000000004 A 3 3 0 0 1 37.9 11.55L 37.89999999999999 11.550000000000004 Z " stroke="#191919" stroke-width="0.35 px" style="stroke-width:0.35;stroke-miterlimit:4;stroke-dasharray:none;stroke-linecap:square;fill:#cccccc;fill-opacity:1.0;fill-rule: evenodd"/>
<path id="MultiTransform002_f0114"  d="M 38.89999999999999 11.550000000000004 L 37.89999999999999 11.550000000000004 L 37.89999999999999 11.550000000000004 L 38.89999999999999 11.550000000000004 L 38.89999999999999 11.550000000000004 Z " stroke="#191919" stroke-width="0.35 px" style="stroke-width:0.35;stroke-miterlimit:4;stroke-dasharray:none;stroke-linecap:square;fill:#cccccc;fill-opacity:1.0;fill-rule: evenodd"/>
<path id="MultiTransform002_f0115"  d="M 38.89999999999999 17.550000000000004 A 3 3 0 0 0 38.9 11.55L 38.89999999999999 11.550000000000004 A 3 3 0 0 1 38.9 17.55L 38.89999999999999 17.550000000000004 Z " stroke="#191919" stroke-width="0.35 px" style="stroke-width:0.35;stroke-miterlimit:4;stroke-dasharray:none;stroke-linecap:square;fill:#cccccc;fill-opacity:1.0;fill-rule: evenodd"/>
<path id="MultiTransform002_f0116"  d="M 37.89999999999999 17.550000000000004 L 38.89999999999999 17.550000000000004 L 38.89999999999999 17.550000000000004 L 37.89999999999999 17.550000000000004 L 37.89999999999999 17.550000000000004 Z " stroke="#191919" stroke-width="0.35 px" style="stroke-width:0.35;stroke-miterlimit:4;stroke-dasharray:none;stroke-linecap:square;fill:#cccccc;fill-opacity:1.0;fill-rule: evenodd"/>
<path id="MultiTransform002_f0117"  d="M 12.29999999999999 21.25 A 3 3 0 0 0 12.3 27.25L 12.29999999999999 27.25 A 3 3 0 0 1 12.3 21.25L 12.29999999999999 21.25 Z " stroke="#191919" stroke-width="0.35 px" style="stroke-width:0.35;stroke-miterlimit:4;stroke-dasharray:none;stroke-linecap:square;fill:#cccccc;fill-opacity:1.0;fill-rule: evenodd"/>
<path id="MultiTransform002_f0118"  d="M 13.29999999999999 21.25 L 12.29999999999999 21.25 L 12.29999999999999 21.25 L 13.29999999999999 21.25 L 13.29999999999999 21.25 Z " stroke="#191919" stroke-width="0.35 px" style="stroke-width:0.35;stroke-miterlimit:4;stroke-dasharray:none;stroke-linecap:square;fill:#cccccc;fill-opacity:1.0;fill-rule: evenodd"/>
<path id="MultiTransform002_f0119"  d="M 13.29999999999999 27.25 A 3 3 0 0 0 13.3 21.25L 13.29999999999999 21.25 A 3 3 0 0 1 13.3 27.25L 13.29999999999999 27.25 Z " stroke="#191919" stroke-width="0.35 px" style="stroke-width:0.35;stroke-miterlimit:4;stroke-dasharray:none;stroke-linecap:square;fill:#cccccc;fill-opacity:1.0;fill-rule: evenodd"/>
<path id="MultiTransform002_f0120"  d="M 12.29999999999999 27.25 L 13.29999999999999 27.25 L 13.29999999999999 27.25 L 12.29999999999999 27.25 L 12.29999999999999 27.25 Z " stroke="#191919" stroke-width="0.35 px" style="stroke-width:0.35;stroke-miterlimit:4;stroke-dasharray:none;stroke-linecap:square;fill:#cccccc;fill-opacity:1.0;fill-rule: evenodd"/>
<path id="MultiTransform002_f0121"  d="M 12.29999999999999 30.949999999999996 A 3 3 0 0 0 12.3 36.95L 12.29999999999999 36.949999999999996 A 3 3 0 0 1 12.3 30.95L 12.29999999999999 30.949999999999996 Z " stroke="#191919" stroke-width="0.35 px" style="stroke-width:0.35;stroke-miterlimit:4;stroke-dasharray:none;stroke-linecap:square;fill:#cccccc;fill-opacity:1.0;fill-rule: evenodd"/>
<path id="MultiTransform002_f0122"  d="M 13.29999999999999 30.949999999999996 L 12.29999999999999 30.949999999999996 L 12.29999999999999 30.949999999999996 L 13.29999999999999 30.949999999999996 L 13.29999999999999 30.949999999999996 Z " stroke="#191919" stroke-width="0.35 px" style="stroke-width:0.35;stroke-miterlimit:4;stroke-dasharray:none;stroke-linecap:square;fill:#cccccc;fill-opacity:1.0;fill-rule: evenodd"/>
<path id="MultiTransform002_f0123"  d="M 13.29999999999999 36.949999999999996 A 3 3 0 0 0 13.3 30.95L 13.29999999999999 30.949999999999996 A 3 3 0 0 1 13.3 36.95L 13.29999999999999 36.949999999999996 Z " stroke="#191919" stroke-width="0.35 px" style="stroke-width:0.35;stroke-miterlimit:4;stroke-dasharray:none;stroke-linecap:square;fill:#cccccc;fill-opacity:1.0;fill-rule: evenodd"/>
<path id="MultiTransform002_f0124"  d="M 12.29999999999999 36.949999999999996 L 13.29999999999999 36.949999999999996 L 13.29999999999999 36.949999999999996 L 12.29999999999999 36.949999999999996 L 12.29999999999999 36.949999999999996 Z " stroke="#191919" stroke-width="0.35 px" style="stroke-width:0.35;stroke-miterlimit:4;stroke-dasharray:none;stroke-linecap:square;fill:#cccccc;fill-opacity:1.0;fill-rule: evenodd"/>
<path id="MultiTransform002_f0125"  d="M 37.89999999999999 21.25 A 3 3 0 0 0 37.9 27.25L 37.89999999999999 27.25 A 3 3 0 0 1 37.9 21.25L 37.89999999999999 21.25 Z " stroke="#191919" stroke-width="0.35 px" style="stroke-width:0.35;stroke-miterlimit:4;stroke-dasharray:none;stroke-linecap:square;fill:#cccccc;fill-opacity:1.0;fill-rule: evenodd"/>
<path id="MultiTransform002_f0126"  d="M 38.89999999999999 21.25 L 37.89999999999999 21.25 L 37.89999999999999 21.25 L 38.89999999999999 21.25 L 38.89999999999999 21.25 Z " stroke="#191919" stroke-width="0.35 px" style="stroke-width:0.35;stroke-miterlimit:4;stroke-dasharray:none;stroke-linecap:square;fill:#cccccc;fill-opacity:1.0;fill-rule: evenodd"/>
<path id="MultiTransform002_f0127"  d="M 38.89999999999999 27.25 A 3 3 0 0 0 38.9 21.25L 38.89999999999999 21.25 A 3 3 0 0 1 38.9 27.25L 38.89999999999999 27.25 Z " stroke="#191919" stroke-width="0.35 px" style="stroke-width:0.35;stroke-miterlimit:4;stroke-dasharray:none;stroke-linecap:square;fill:#cccccc;fill-opacity:1.0;fill-rule: evenodd"/>
<path id="MultiTransform002_f0128"  d="M 37.89999999999999 27.25 L 38.89999999999999 27.25 L 38.89999999999999 27.25 L 37.89999999999999 27.25 L 37.89999999999999 27.25 Z " stroke="#191919" stroke-width="0.35 px" style="stroke-width:0.35;stroke-miterlimit:4;stroke-dasharray:none;stroke-linecap:square;fill:#cccccc;fill-opacity:1.0;fill-rule: evenodd"/>
<path id="MultiTransform002_f0129"  d="M 37.89999999999999 30.949999999999996 A 3 3 0 0 0 37.9 36.95L 37.89999999999999 36.949999999999996 A 3 3 0 0 1 37.9 30.95L 37.89999999999999 30.949999999999996 Z " stroke="#191919" stroke-width="0.35 px" style="stroke-width:0.35;stroke-miterlimit:4;stroke-dasharray:none;stroke-linecap:square;fill:#cccccc;fill-opacity:1.0;fill-rule: evenodd"/>
<path id="MultiTransform002_f0130"  d="M 38.89999999999999 30.949999999999996 L 37.89999999999999 30.949999999999996 L 37.89999999999999 30.949999999999996 L 38.89999999999999 30.949999999999996 L 38.89999999999999 30.949999999999996 Z " stroke="#191919" stroke-width="0.35 px" style="stroke-width:0.35;stroke-miterlimit:4;stroke-dasharray:none;stroke-linecap:square;fill:#cccccc;fill-opacity:1.0;fill-rule: evenodd"/>
<path id="MultiTransform002_f0131"  d="M 38.89999999999999 36.949999999999996 A 3 3 0 0 0 38.9 30.95L 38.89999999999999 30.949999999999996 A 3 3 0 0 1 38.9 36.95L 38.89999999999999 36.949999999999996 Z " stroke="#191919" stroke-width="0.35 px" style="stroke-width:0.35;stroke-miterlimit:4;stroke-dasharray:none;stroke-linecap:square;fill:#cccccc;fill-opacity:1.0;fill-rule: evenodd"/>
<path id="MultiTransform002_f0132"  d="M 37.89999999999999 36.949999999999996 L 38.89999999999999 36.949999999999996 L 38.89999999999999 36.949999999999996 L 37.89999999999999 36.949999999999996 L 37.89999999999999 36.949999999999996 Z " stroke="#191919" stroke-width="0.35 px" style="stroke-width:0.35;stroke-miterlimit:4;stroke-dasharray:none;stroke-linecap:square;fill:#cccccc;fill-opacity:1.0;fill-rule: evenodd"/>
<path id="MultiTransform002_f0133"  d="M 43.329667938864475 28.45000000000003 L 43.329667938864475 18.45000000000003 L 50.829667938864475 18.45000000000003 L 50.829667938864475 -18.45000000000003 L 43.329667938864475 -18.45000000000003 L 43.329667938864475 -28.45000000000003 L 50.829667938864475 -28.45000000000003 L 50.829667938864475 -40.25 L -50.829667938864475 -40.25 L -50.829667938864475 -28.45000000000003 L -43.329667938864475 -28.45000000000003 L -43.329667938864475 -18.45000000000003 L -50.829667938864475 -18.45000000000003 L -50.829667938864475 18.45000000000003 L -43.329667938864475 18.45000000000003 L -43.329667938864475 28.45000000000003 L -50.829667938864475 28.45000000000003 L -50.829667938864475 38.45000000000003 L 50.829667938864475 38.45000000000001 L 50.829667938864475 28.45000000000003 L 43.329667938864475 28.45000000000003 Z M 38.89999999999999 -36.949999999999996 L 37.89999999999999 -36.949999999999996 A 3 3 0 0 0 37.9 -30.95L 38.89999999999999 -30.949999999999996 A 3 3 0 0 0 38.9 -36.95Z M 38.89999999999999 -27.249999999999996 L 37.89999999999999 -27.249999999999996 A 3 3 0 0 0 37.9 -21.25L 38.89999999999999 -21.249999999999996 A 3 3 0 0 0 38.9 -27.25Z M 13.29999999999999 -36.949999999999996 L 12.29999999999999 -36.949999999999996 A 3 3 0 0 0 12.3 -30.95L 13.29999999999999 -30.949999999999996 A 3 3 0 0 0 13.3 -36.95Z M 13.29999999999999 -27.249999999999996 L 12.29999999999999 -27.249999999999996 A 3 3 0 0 0 12.3 -21.25L 13.29999999999999 -21.249999999999996 A 3 3 0 0 0 13.3 -27.25Z M 38.89999999999999 -17.549999999999997 L 37.89999999999999 -17.549999999999997 A 3 3 0 0 0 37.9 -11.55L 38.89999999999999 -11.549999999999997 A 3 3 0 0 0 38.9 -17.55Z M 38.89999999999999 -7.849999999999998 L 37.89999999999999 -7.849999999999998 A 3 3 0 0 0 37.9 -1.85L 38.89999999999999 -1.849999999999997 A 3 3 0 0 0 38.9 -7.85Z M 13.29999999999999 -17.549999999999997 L 12.29999999999999 -17.549999999999997 A 3 3 0 0 0 12.3 -11.55L 13.29999999999999 -11.549999999999997 A 3 3 0 0 0 13.3 -17.55Z M 13.29999999999999 -7.849999999999998 L 12.29999999999999 -7.849999999999998 A 3 3 0 0 0 12.3 -1.85L 13.29999999999999 -1.849999999999997 A 3 3 0 0 0 13.3 -7.85Z M -12.300000000000008 -36.949999999999996 L -13.300000000000008 -36.949999999999996 A 3 3 0 0 0 -13.3 -30.95L -12.300000000000008 -30.949999999999996 A 3 3 0 0 0 -12.3 -36.95Z M -12.300000000000008 -27.249999999999996 L -13.300000000000008 -27.249999999999996 A 3 3 0 0 0 -13.3 -21.25L -12.300000000000008 -21.249999999999996 A 3 3 0 0 0 -12.3 -27.25Z M -37.900000000000006 -36.949999999999996 L -38.900000000000006 -36.949999999999996 A 3 3 0 0 0 -38.9 -30.95L -37.900000000000006 -30.949999999999996 A 3 3 0 0 0 -37.9 -36.95Z M -37.900000000000006 -27.249999999999996 L -38.900000000000006 -27.249999999999996 A 3 3 0 0 0 -38.9 -21.25L -37.900000000000006 -21.249999999999996 A 3 3 0 0 0 -37.9 -27.25Z M -12.300000000000008 -17.549999999999997 L -13.300000000000008 -17.549999999999997 A 3 3 0 0 0 -13.3 -11.55L -12.300000000000008 -11.549999999999997 A 3 3 0 0 0 -12.3 -17.55Z M -12.300000000000008 -7.849999999999998 L -13.300000000000008 -7.849999999999998 A 3 3 0 0 0 -13.3 -1.85L -12.300000000000008 -1.849999999999997 A 3 3 0 0 0 -12.3 -7.85Z M -37.900000000000006 -17.549999999999997 L -38.900000000000006 -17.549999999999997 A 3 3 0 0 0 -38.9 -11.55L -37.900000000000006 -11.549999999999997 A 3 3 0 0 0 -37.9 -17.55Z M -37.900000000000006 -7.849999999999998 L -38.900000000000006 -7.849999999999998 A 3 3 0 0 0 -38.9 -1.85L -37.900000000000006 -1.849999999999997 A 3 3 0 0 0 -37.9 -7.85Z M 38.89999999999999 1.8500000000000019 L 37.89999999999999 1.8500000000000019 A 3 3 0 0 0 37.9 7.85L 38.89999999999999 7.850000000000001 A 3 3 0 0 0 38.9 1.85Z M 38.89999999999999 11.550000000000004 L 37.89999999999999 11.550000000000004 A 3 3 0 0 0 37.9 17.55L 38.89999999999999 17.550000000000004 A 3 3 0 0 0 38.9 11.55Z M 13.29999999999999 1.8500000000000019 L 12.29999999999999 1.8500000000000019 A 3 3 0 0 0 12.3 7.85L 13.29999999999999 7.850000000000001 A 3 3 0 0 0 13.3 1.85Z M 13.29999999999999 11.550000000000004 L 12.29999999999999 11.550000000000004 A 3 3 0 0 0 12.3 17.55L 13.29999999999999 17.550000000000004 A 3 3 0 0 0 13.3 11.55Z M 38.89999999999999 21.25 L 37.89999999999999 21.25 A 3 3 0 0 0 37.9 27.25L 38.89999999999999 27.25 A 3 3 0 0 0 38.9 21.25Z M 38.89999999999999 30.949999999999996 L 37.89999999999999 30.949999999999996 A 3 3 0 0 0 37.9 36.95L 38.89999999999999 36.949999999999996 A 3 3 0 0 0 38.9 30.95Z M 13.29999999999999 21.25 L 12.29999999999999 21.25 A 3 3 0 0 0 12.3 27.25L 13.29999999999999 27.25 A 3 3 0 0 0 13.3 21.25Z M 13.29999999999999 30.949999999999996 L 12.29999999999999 30.949999999999996 A 3 3 0 0 0 12.3 36.95L 13.29999999999999 36.949999999999996 A 3 3 0 0 0 13.3 30.95Z M -12.300000000000008 1.8500000000000019 L -13.300000000000008 1.8500000000000019 A 3 3 0 0 0 -13.3 7.85L -12.300000000000008 7.850000000000001 A 3 3 0 0 0 -12.3 1.85Z M -12.300000000000008 11.550000000000004 L -13.300000000000008 11.550000000000004 A 3 3 0 0 0 -13.3 17.55L -12.300000000000008 17.550000000000004 A 3 3 0 0 0 -12.3 11.55Z M -37.900000000000006 1.8500000000000019 L -38.900000000000006 1.8500000000000019 A 3 3 0 0 0 -38.9 7.85L -37.900000000000006 7.850000000000001 A 3 3 0 0 0 -37.9 1.85Z M -37.900000000000006 11.550000000000004 L -38.900000000000006 11.550000000000004 A 3 3 0 0 0 -38.9 17.55L -37.900000000000006 17.550000000000004 A 3 3 0 0 0 -37.9 11.55Z M -12.300000000000008 21.25 L -13.300000000000008 21.25 A 3 3 0 0 0 -13.3 27.25L -12.300000000000008 27.25 A 3 3 0 0 0 -12.3 21.25Z M -12.300000000000008 30.949999999999996 L -13.300000000000008 30.949999999999996 A 3 3 0 0 0 -13.3 36.95L -12.300000000000008 36.949999999999996 A 3 3 0 0 0 -12.3 30.95Z M -37.900000000000006 21.25 L -38.900000000000006 21.25 A 3 3 0 0 0 -38.9 27.25L -37.900000000000006 27.25 A 3 3 0 0 0 -37.9 21.25Z M -37.900000000000006 30.949999999999996 L -38.900000000000006 30.949999999999996 A 3 3 0 0 0 -38.9 36.95L -37.900000000000006 36.949999999999996 A 3 3 0 0 0 -37.9 30.95Z " stroke="#191919" stroke-width="0.35 px" style="stroke-width:0.35;stroke-miterlimit:4;stroke-dasharray:none;stroke-linecap:square;fill:#cccccc;fill-opacity:1.0;fill-rule: evenodd"/>
<path id="MultiTransform002_f0134"  d="M 50.829667938864475 28.45000000000003 L 50.829667938864475 18.45000000000003 L 50.829667938864475 18.45000000000003 L 50.829667938864475 28.45000000000003 L 50.829667938864475 28.45000000000003 Z " stroke="#191919" stroke-width="0.35 px" style="stroke-width:0.35;stroke-miterlimit:4;stroke-dasharray:none;stroke-linecap:square;fill:#cccccc;fill-opacity:1.0;fill-rule: evenodd"/>
<path id="MultiTransform002_f0135"  d="M 50.829667938864475 -18.45000000000003 L 50.829667938864475 -18.45000000000003 L 50.829667938864475 -28.45000000000003 L 50.829667938864475 -28.45000000000003 L 50.829667938864475 -18.45000000000003 Z " stroke="#191919" stroke-width="0.35 px" style="stroke-width:0.35;stroke-miterlimit:4;stroke-dasharray:none;stroke-linecap:square;fill:#cccccc;fill-opacity:1.0;fill-rule: evenodd"/>
<path id="MultiTransform002_f0136"  d="M -50.829667938864475 18.45000000000003 L -50.829667938864475 18.450000000000035 L -50.829667938864475 28.450000000000035 L -50.829667938864475 28.45000000000003 L -50.829667938864475 18.45000000000003 Z " stroke="#191919" stroke-width="0.35 px" style="stroke-width:0.35;stroke-miterlimit:4;stroke-dasharray:none;stroke-linecap:square;fill:#cccccc;fill-opacity:1.0;fill-rule: evenodd"/>
<path id="MultiTransform002_f0137"  d="M -50.829667938864475 -28.45000000000003 L -50.829667938864475 -18.45000000000003 L -50.829667938864475 -18.450000000000028 L -50.829667938864475 -28.450000000000028 L -50.829667938864475 -28.45000000000003 Z " stroke="#191919" stroke-width="0.35 px" style="stroke-width:0.35;stroke-miterlimit:4;stroke-dasharray:none;stroke-linecap:square;fill:#cccccc;fill-opacity:1.0;fill-rule: evenodd"/>
<path id="MultiTransform002_f0138"  d="M -50.829667938864475 28.45000000000003 L -50.829667938864475 28.450000000000035 L -43.329667938864475 28.450000000000035 L -43.329667938864475 28.45000000000003 L -50.829667938864475 28.45000000000003 Z " stroke="#191919" stroke-width="0.35 px" style="stroke-width:0.35;stroke-miterlimit:4;stroke-dasharray:none;stroke-linecap:square;fill:#cccccc;fill-opacity:1.0;fill-rule: evenodd"/>
<path id="MultiTransform002_f0139"  d="M -43.329667938864475 28.45000000000003 L -43.329667938864475 28.450000000000035 L -43.329667938864475 18.450000000000035 L -43.329667938864475 18.45000000000003 L -43.329667938864475 28.45000000000003 Z " stroke="#191919" stroke-width="0.35 px" style="stroke-width:0.35;stroke-miterlimit:4;stroke-dasharray:none;stroke-linecap:square;fill:#cccccc;fill-opacity:1.0;fill-rule: evenodd"/>
<path id="MultiTransform002_f0140"  d="M -43.329667938864475 18.45000000000003 L -43.329667938864475 18.450000000000035 L -50.829667938864475 18.450000000000035 L -50.829667938864475 18.45000000000003 L -43.329667938864475 18.45000000000003 Z " stroke="#191919" stroke-width="0.35 px" style="stroke-width:0.35;stroke-miterlimit:4;stroke-dasharray:none;stroke-linecap:square;fill:#cccccc;fill-opacity:1.0;fill-rule: evenodd"/>
<path id="MultiTransform002_f0141"  d="M -50.829667938864475 -18.45000000000003 L -43.329667938864475 -18.45000000000003 L -43.329667938864475 -18.450000000000028 L -50.829667938864475 -18.450000000000028 L -50.829667938864475 -18.45000000000003 Z " stroke="#191919" stroke-width="0.35 px" style="stroke-width:0.35;stroke-miterlimit:4;stroke-dasharray:none;stroke-linecap:square;fill:#cccccc;fill-opacity:1.0;fill-rule: evenodd"/>
<path id="MultiTransform002_f0142"  d="M -43.329667938864475 -18.45000000000003 L -43.329667938864475 -28.45000000000003 L -43.329667938864475 -28.450000000000028 L -43.329667938864475 -18.450000000000028 L -43.329667938864475 -18.45000000000003 Z " stroke="#191919" stroke-width="0.35 px" style="stroke-width:0.35;stroke-miterlimit:4;stroke-dasharray:none;stroke-linecap:square;fill:#cccccc;fill-opacity:1.0;fill-rule: evenodd"/>
<path id="MultiTransform002_f0143"  d="M -43.329667938864475 -28.45000000000003 L -50.829667938864475 -28.45000000000003 L -50.829667938864475 -28.450000000000028 L -43.329667938864475 -28.450000000000028 L -43.329667938864475 -28.45000000000003 Z " stroke="#191919" stroke-width="0.35 px" style="stroke-width:0.35;stroke-miterlimit:4;stroke-dasharray:none;stroke-linecap:square;fill:#cccccc;fill-opacity:1.0;fill-rule: evenodd"/>
<path id="MultiTransform002_f0144"  d="M 50.829667938864475 -28.45000000000003 L 50.829667938864475 -28.45000000000003 L 43.329667938864475 -28.45000000000003 L 43.329667938864475 -28.45000000000003 L 50.829667938864475 -28.45000000000003 Z " stroke="#191919" stroke-width="0.35 px" style="stroke-width:0.35;stroke-miterlimit:4;stroke-dasharray:none;stroke-linecap:square;fill:#cccccc;fill-opacity:1.0;fill-rule: evenodd"/>
<path id="MultiTransform002_f0145"  d="M 43.329667938864475 -28.45000000000003 L 43.329667938864475 -28.45000000000003 L 43.329667938864475 -18.45000000000003 L 43.329667938864475 -18.45000000000003 L 43.329667938864475 -28.45000000000003 Z " stroke="#191919" stroke-width="0.35 px" style="stroke-width:0.35;stroke-miterlimit:4;stroke-dasharray:none;stroke-linecap:square;fill:#cccccc;fill-opacity:1.0;fill-rule: evenodd"/>
<path id="MultiTransform002_f0146"  d="M 43.329667938864475 -18.45000000000003 L 43.329667938864475 -18.45000000000003 L 50.829667938864475 -18.45000000000003 L 50.829667938864475 -18.45000000000003 L 43.329667938864475 -18.45000000000003 Z " stroke="#191919" stroke-width="0.35 px" style="stroke-width:0.35;stroke-miterlimit:4;stroke-dasharray:none;stroke-linecap:square;fill:#cccccc;fill-opacity:1.0;fill-rule: evenodd"/>
<path id="MultiTransform002_f0147"  d="M 50.829667938864475 18.45000000000003 L 43.329667938864475 18.45000000000003 L 43.329667938864475 18.45000000000003 L 50.829667938864475 18.45000000000003 L 50.829667938864475 18.45000000000003 Z " stroke="#191919" stroke-width="0.35 px" style="stroke-width:0.35;stroke-miterlimit:4;stroke-dasharray:none;stroke-linecap:square;fill:#cccccc;fill-opacity:1.0;fill-rule: evenodd"/>
<path id="MultiTransform002_f0148"  d="M 43.329667938864475 18.45000000000003 L 43.329667938864475 28.45000000000003 L 43.329667938864475 28.45000000000003 L 43.329667938864475 18.45000000000003 L 43.329667938864475 18.45000000000003 Z " stroke="#191919" stroke-width="0.35 px" style="stroke-width:0.35;stroke-miterlimit:4;stroke-dasharray:none;stroke-linecap:square;fill:#cccccc;fill-opacity:1.0;fill-rule: evenodd"/>
<path id="MultiTransform002_f0149"  d="M 43.329667938864475 28.45000000000003 L 50.829667938864475 28.45000000000003 L 50.829667938864475 28.45000000000003 L 43.329667938864475 28.45000000000003 L 43.329667938864475 28.45000000000003 Z " stroke="#191919" stroke-width="0.35 px" style="stroke-width:0.35;stroke-miterlimit:4;stroke-dasharray:none;stroke-linecap:square;fill:#cccccc;fill-opacity:1.0;fill-rule: evenodd"/>
<circle cx="47.079667938864475" cy="23.450000000000035" r="2.15" stroke="#191919" stroke-width="0.35 px" style="stroke-width:0.35;stroke-miterlimit:4;stroke-dasharray:none;stroke-linecap:square;fill:#cccccc"/>
<circle cx="47.079667938864475" cy="-23.45000000000003" r="2.15" stroke="#191919" stroke-width="0.35 px" style="stroke-width:0.35;stroke-miterlimit:4;stroke-dasharray:none;stroke-linecap:square;fill:#cccccc"/>
<circle cx="-47.079667938864475" cy="23.450000000000035" r="2.15" stroke="#191919" stroke-width="0.35 px" style="stroke-width:0.35;stroke-miterlimit:4;stroke-dasharray:none;stroke-linecap:square;fill:#cccccc"/>
<circle cx="-47.079667938864475" cy="-23.450000000000028" r="2.15" stroke="#191919" stroke-width="0.35 px" style="stroke-width:0.35;stroke-miterlimit:4;stroke-dasharray:none;stroke-linecap:square;fill:#cccccc"/>
<circle cx="47.079667938864475" cy="23.45000000000003" r="2.15" stroke="#191919" stroke-width="0.35 px" style="stroke-width:0.35;stroke-miterlimit:4;stroke-dasharray:none;stroke-linecap:square;fill:#cccccc"/>
<circle cx="47.079667938864475" cy="-23.45000000000003" r="2.15" stroke="#191919" stroke-width="0.35 px" style="stroke-width:0.35;stroke-miterlimit:4;stroke-dasharray:none;stroke-linecap:square;fill:#cccccc"/>
<circle cx="-47.079667938864475" cy="23.45000000000003" r="2.15" stroke="#191919" stroke-width="0.35 px" style="stroke-width:0.35;stroke-miterlimit:4;stroke-dasharray:none;stroke-linecap:square;fill:#cccccc"/>
<circle cx="-47.079667938864475" cy="-23.45000000000003" r="2.15" stroke="#191919" stroke-width="0.35 px" style="stroke-width:0.35;stroke-miterlimit:4;stroke-dasharray:none;stroke-linecap:square;fill:#cccccc"/>
<circle cx="47.079667938864475" cy="23.45000000000003" r="2.15" stroke="#191919" stroke-width="0.35 px" style="stroke-width:0.35;stroke-miterlimit:4;stroke-dasharray:none;stroke-linecap:square;fill:#cccccc"/>
<circle cx="47.079667938864475" cy="-23.45000000000003" r="2.15" stroke="#191919" stroke-width="0.35 px" style="stroke-width:0.35;stroke-miterlimit:4;stroke-dasharray:none;stroke-linecap:square;fill:#cccccc"/>
<circle cx="-47.079667938864475" cy="23.45000000000003" r="2.15" stroke="#191919" stroke-width="0.35 px" style="stroke-width:0.35;stroke-miterlimit:4;stroke-dasharray:none;stroke-linecap:square;fill:#cccccc"/>
<circle cx="-47.079667938864475" cy="-23.45000000000003" r="2.15" stroke="#191919" stroke-width="0.35 px" style="stroke-width:0.35;stroke-miterlimit:4;stroke-dasharray:none;stroke-linecap:square;fill:#cccccc"/>
<title>b'MultiTransform002'</title>
</g>
</svg>