<?xml version="1.0"?>
<!DOCTYPE svg PUBLIC "-//W3C//DTD SVG 1.1//EN" "http://www.w3.org/Graphics/SVG/1.1/DTD/svg11.dtd">
<svg width="118.01400000000002mm" height="105.73853289342073mm" viewBox="0 0 118.01400000000002 105.73853289342073" xmlns="http://www.w3.org/2000/svg" version="1.1">
<g id="Pad001" transform="translate(59.007000,52.869266) scale(1,-1)">
<path id="Pad001_f0000"  d="M -26.786130541603605 48.94999999999993 L -26.786130541603605 48.94999999999993 A 2.48571 2.48571 0 0 1 -24.6588 47.75L -24.658757916579756 47.75 A 2.48571 2.48571 0 0 0 -26.7861 48.95Z " stroke="#191919" stroke-width="0.35 px" style="stroke-width:0.35;stroke-miterlimit:4;stroke-dasharray:none;stroke-linecap:square;fill:#cccccc;fill-opacity:1.0;fill-rule: evenodd"/>
<path id="Pad001_f0001"  d="M -36.71386945839643 48.94999999999986 A 5.8 5.8 0 0 0 -26.7861 48.95L -26.786130541603605 48.94999999999993 A 5.8 5.8 0 0 1 -36.7139 48.95L -36.71386945839643 48.94999999999986 Z " stroke="#191919" stroke-width="0.35 px" style="stroke-width:0.35;stroke-miterlimit:4;stroke-dasharray:none;stroke-linecap:square;fill:#cccccc;fill-opacity:1.0;fill-rule: evenodd"/>
<path id="Pad001_f0002"  d="M -24.658757916579756 47.75 L -24.658757916579756 47.75 L 0.0 47.75 L 0.0 47.75 L -24.658757916579756 47.75 Z " stroke="#191919" stroke-width="0.35 px" style="stroke-width:0.35;stroke-miterlimit:4;stroke-dasharray:none;stroke-linecap:square;fill:#cccccc;fill-opacity:1.0;fill-rule: evenodd"/>
<circle cx="-31.749999999999996" cy="45.95" r="2.4" stroke="#191919" stroke-width="0.35 px" style="stroke-width:0.35;stroke-miterlimit:4;stroke-dasharray:none;stroke-linecap:square;fill:#cccccc"/>
<circle cx="-31.749999999999996" cy="45.95" r="2.4" stroke="#191919" stroke-width="0.35 px" style="stroke-width:0.35;stroke-miterlimit:4;stroke-dasharray:none;stroke-linecap:square;fill:#cccccc"/>
<path id="Pad001_f0005"  d="M -38.84124208341954 47.75 L -38.84124208341954 47.75 A 2.48571 2.48571 0 0 1 -36.7139 48.95L -36.71386945839643 48.94999999999986 A 2.48571 2.48571 0 0 0 -38.8412 47.75Z " stroke="#191919" stroke-width="0.35 px" style="stroke-width:0.35;stroke-miterlimit:4;stroke-dasharray:none;stroke-linecap:square;fill:#cccccc;fill-opacity:1.0;fill-rule: evenodd"/>
<path id="Pad001_f0006"  d="M 0.0 47.75 L 24.658757916579756 47.75 L 24.658757916579756 47.75 L 0.0 47.75 L 0.0 47.75 Z " stroke="#191919" stroke-width="0.35 px" style="stroke-width:0.35;stroke-miterlimit:4;stroke-dasharray:none;stroke-linecap:square;fill:#cccccc;fill-opacity:1.0;fill-rule: evenodd"/>
<circle cx="31.749999999999996" cy="45.95" r="2.4" stroke="#191919" stroke-width="0.35 px" style="stroke-width:0.35;stroke-miterlimit:4;stroke-dasharray:none;stroke-linecap:square;fill:#cccccc"/>
<path id="Pad001_f0008"  d="M -53.65 41.25 L 0.0 41.25 L 0.0 39.25 L -51.65 39.25 L -51.65 0.0 L -53.65 0.0 L -53.65 41.25 Z " stroke="#191919" stroke-width="0.35 px" style="stroke-width:0.35;stroke-miterlimit:4;stroke-dasharray:none;stroke-linecap:square;fill:#cccccc;fill-opacity:1.0;fill-rule: evenodd"/>
<circle cx="-31.749999999999996" cy="-45.95" r="2.4" stroke="#191919" stroke-width="0.35 px" style="stroke-width:0.35;stroke-miterlimit:4;stroke-dasharray:none;stroke-linecap:square;fill:#cccccc"/>
<path id="Pad001_f0010"  d="M -57.85000000000001 0.0 L -57.85000000000001 0.0 L -57.84999999999917 41.75 L -57.84999999999917 41.75 L -57.85000000000001 0.0 Z " stroke="#191919" stroke-width="0.35 px" style="stroke-width:0.35;stroke-miterlimit:4;stroke-dasharray:none;stroke-linecap:square;fill:#cccccc;fill-opacity:1.0;fill-rule: evenodd"/>
<path id="Pad001_f0011"  d="M -57.85 41.75 A 6 6 0 0 0 -51.85 47.75L -51.85 47.75 A 6 6 0 0 1 -57.85 41.75L -57.84999999999917 41.75 Z " stroke="#191919" stroke-width="0.35 px" style="stroke-width:0.35;stroke-miterlimit:4;stroke-dasharray:none;stroke-linecap:square;fill:#cccccc;fill-opacity:1.0;fill-rule: evenodd"/>
<path id="Pad001_f0012"  d="M -51.85 47.75 L -51.85 47.75 L -38.84124208341954 47.75 L -38.84124208341954 47.75 L -51.85 47.75 Z " stroke="#191919" stroke-width="0.35 px" style="stroke-width:0.35;stroke-miterlimit:4;stroke-dasharray:none;stroke-linecap:square;fill:#cccccc;fill-opacity:1.0;fill-rule: evenodd"/>
<circle cx="-31.749999999999996" cy="45.95" r="2.4" stroke="#191919" stroke-width="0.35 px" style="stroke-width:0.35;stroke-miterlimit:4;stroke-dasharray:none;stroke-linecap:square;fill:#cccccc"/>
<circle cx="31.749999999999996" cy="45.95" r="2.4" stroke="#191919" stroke-width="0.35 px" style="stroke-width:0.35;stroke-miterlimit:4;stroke-dasharray:none;stroke-linecap:square;fill:#cccccc"/>
<path id="Pad001_f0015"  d="M 0.0 41.25 L -53.65 41.25 L -53.65 41.25 L 53.65 41.25 L 53.65 41.25 L -3.552713678800501e-15 41.25 Z " stroke="#191919" stroke-width="0.35 px" style="stroke-width:0.35;stroke-miterlimit:4;stroke-dasharray:none;stroke-linecap:square;fill:#cccccc;fill-opacity:1.0;fill-rule: evenodd"/>
<path id="Pad001_f0016"  d="M -53.65 41.25 L -53.65 41.25 L -53.65 -41.25 L -53.65 -41.25 L -53.65 0.0 L -53.65 41.25 Z " stroke="#191919" stroke-width="0.35 px" style="stroke-width:0.35;stroke-miterlimit:4;stroke-dasharray:none;stroke-linecap:square;fill:#cccccc;fill-opacity:1.0;fill-rule: evenodd"/>
<circle cx="-31.749999999999996" cy="-45.95" r="2.4" stroke="#191919" stroke-width="0.35 px" style="stroke-width:0.35;stroke-miterlimit:4;stroke-dasharray:none;stroke-linecap:square;fill:#cccccc"/>
<path id="Pad001_f0018"  d="M 24.658757916579756 47.75 A 2.48571 2.48571 0 0 1 26.7861 48.95L 26.786130541603605 48.94999999999993 A 2.48571 2.48571 0 0 0 24.6588 47.75L 24.658757916579756 47.75 Z " stroke="#191919" stroke-width="0.35 px" style="stroke-width:0.35;stroke-miterlimit:4;stroke-dasharray:none;stroke-linecap:square;fill:#cccccc;fill-opacity:1.0;fill-rule: evenodd"/>
<path id="Pad001_f0019"  d="M 51.65 39.25 L 51.65 0.0 L 53.65 0.0 L 53.65 41.25 L 0.0 41.25 L 0.0 39.25 L 51.65 39.25 Z " stroke="#191919" stroke-width="0.35 px" style="stroke-width:0.35;stroke-miterlimit:4;stroke-dasharray:none;stroke-linecap:square;fill:#cccccc;fill-opacity:1.0;fill-rule: evenodd"/>
<circle cx="31.749999999999996" cy="-45.95" r="2.4" stroke="#191919" stroke-width="0.35 px" style="stroke-width:0.35;stroke-miterlimit:4;stroke-dasharray:none;stroke-linecap:square;fill:#cccccc"/>
<path id="Pad001_f0021"  d="M 57.84999999999833 41.75 L 57.85000000000001 0.0 L 57.85000000000001 0.0 L 57.84999999999917 41.75 L 57.84999999999917 41.75 Z " stroke="#191919" stroke-width="0.35 px" style="stroke-width:0.35;stroke-miterlimit:4;stroke-dasharray:none;stroke-linecap:square;fill:#cccccc;fill-opacity:1.0;fill-rule: evenodd"/>
<path id="Pad001_f0022"  d="M 51.85 47.75 L 51.85 47.75 A 6 6 0 0 0 57.85 41.75L 57.84999999999917 41.75 A 6 6 0 0 1 51.85 47.75Z " stroke="#191919" stroke-width="0.35 px" style="stroke-width:0.35;stroke-miterlimit:4;stroke-dasharray:none;stroke-linecap:square;fill:#cccccc;fill-opacity:1.0;fill-rule: evenodd"/>
<path id="Pad001_f0023"  d="M 38.84124208341954 47.75 L 51.85 47.75 L 51.85 47.75 L 38.84124208341954 47.75 L 38.84124208341954 47.75 Z " stroke="#191919" stroke-width="0.35 px" style="stroke-width:0.35;stroke-miterlimit:4;stroke-dasharray:none;stroke-linecap:square;fill:#cccccc;fill-opacity:1.0;fill-rule: evenodd"/>
<path id="Pad001_f0024"  d="M 36.71386945839643 48.94999999999986 A 2.48571 2.48571 0 0 1 38.8412 47.75L 38.84124208341954 47.75 A 2.48571 2.48571 0 0 0 36.7139 48.95L 36.71386945839643 48.94999999999986 Z " stroke="#191919" stroke-width="0.35 px" style="stroke-width:0.35;stroke-miterlimit:4;stroke-dasharray:none;stroke-linecap:square;fill:#cccccc;fill-opacity:1.0;fill-rule: evenodd"/>
<path id="Pad001_f0025"  d="M 26.786130541603605 48.94999999999993 L 26.786130541603605 48.94999999999993 A 5.8 5.8 0 0 0 36.7139 48.95L 36.71386945839643 48.94999999999986 A 5.8 5.8 0 0 1 26.7861 48.95Z " stroke="#191919" stroke-width="0.35 px" style="stroke-width:0.35;stroke-miterlimit:4;stroke-dasharray:none;stroke-linecap:square;fill:#cccccc;fill-opacity:1.0;fill-rule: evenodd"/>
<circle cx="31.749999999999996" cy="45.95" r="2.4" stroke="#191919" stroke-width="0.35 px" style="stroke-width:0.35;stroke-miterlimit:4;stroke-dasharray:none;stroke-linecap:square;fill:#cccccc"/>
<path id="Pad001_f0027"  d="M -51.65 0.0 L -51.65 -39.25 L 0.0 -39.25 L 51.65 -39.25 L 51.65 0.0 L 51.65 39.25 L 0.0 39.25 L -51.65 39.25 L -51.65 0.0 Z M -25.94999999988219 -38.450000000000024 L -25.94999999988219 -29.45000000000002 L -50.85 -29.45000000000002 L -50.85 -38.450000000000024 L -25.94999999988219 -38.450000000000024 Z M -25.949999999933947 -28.75000000000002 L -25.949999999933947 -19.750000000000018 L -50.85 -19.750000000000018 L -50.85 -28.75000000000002 L -25.949999999933947 -28.75000000000002 Z M -0.3499999998158435 -38.450000000026 L -0.349999999815844 -29.45000000000002 L -25.249999999882192 -29.45000000000002 L -25.249999999882192 -38.450000000026 L -0.3499999998158435 -38.450000000026 Z M -0.34999999991939446 -28.750000000025594 L -0.349999999919395 -19.750000000000018 L -25.249999999933944 -19.750000000000018 L -25.249999999933944 -28.750000000025594 L -0.34999999991939446 -28.750000000025594 Z M -25.94999999993115 -19.05000000000002 L -25.94999999993115 -10.050000000000015 L -50.85 -10.050000000000015 L -50.85 -19.05000000000002 L -25.94999999993115 -19.05000000000002 Z M -25.949999999980005 -9.350000000000016 L -25.949999999980005 -0.3500000000000102 L -50.85 -0.35000000000001 L -50.85 -9.350000000000016 L -25.949999999980005 -9.350000000000016 Z M -0.3499999999138838 -19.05000000002506 L -0.349999999913884 -10.050000000000015 L -25.249999999931152 -10.050000000000015 L -25.249999999931152 -19.05000000002506 L -0.3499999999138838 -19.05000000002506 Z M -0.3500000000091705 -9.3500000000205 L -0.35000000000917 -0.3500000000000102 L -25.249999999980005 -0.35000000000001 L -25.249999999980005 -9.3500000000205 L -0.3500000000091705 -9.3500000000205 Z M 25.25000000027648 -38.449999999974054 L 25.25000000027648 -29.45000000000002 L 0.3500000002101301 -29.45000000000002 L 0.35000000021013 -38.449999999974054 L 25.25000000027648 -38.449999999974054 Z M 25.250000000120732 -28.74999999997445 L 25.250000000120732 -19.750000000000018 L 0.35000000010617793 -19.750000000000018 L 0.350000000106178 -28.74999999997445 L 25.250000000120732 -28.74999999997445 Z M 50.85000000029146 -38.450000000000024 L 50.85000000029146 -29.45000000000002 L 25.95000000027648 -29.45000000000002 L 25.95000000027648 -38.450000000000024 L 50.85000000029146 -38.450000000000024 Z M 50.85000000008388 -28.75000000000002 L 50.85000000008388 -19.750000000000018 L 25.95000000012073 -19.750000000000018 L 25.95000000012073 -28.75000000000002 L 50.85000000008388 -28.75000000000002 Z M 25.25000000012843 -19.049999999974975 L 25.25000000012843 -10.050000000000015 L 0.35000000011115884 -10.050000000000015 L 0.350000000111159 -19.049999999974975 L 25.25000000012843 -19.049999999974975 Z M 25.24999999998214 -9.349999999979529 L 25.24999999998214 -0.3500000000000102 L 0.3500000000113169 -0.35000000000001 L 0.350000000011317 -9.349999999979529 L 25.24999999998214 -9.349999999979529 Z M 50.85000000009428 -19.05000000000002 L 50.85000000009428 -10.050000000000015 L 25.95000000012843 -10.050000000000015 L 25.95000000012843 -19.05000000000002 L 50.85000000009428 -19.05000000000002 Z M 50.849999999901925 -9.350000000000016 L 50.849999999901925 -0.3500000000000102 L 25.94999999998214 -0.35000000000001 L 25.94999999998214 -9.350000000000016 L 50.849999999901925 -9.350000000000016 Z M -25.9499999999982 0.349999999999989 L -25.9499999999982 9.349999999999993 L -50.85 9.349999999999993 L -50.85 0.349999999999989 L -25.9499999999982 0.349999999999989 Z M -25.95000000000031 10.049999999999992 L -25.95000000000031 19.049999999999997 L -50.85 19.049999999999997 L -50.85 10.049999999999992 L -25.95000000000031 10.049999999999992 Z M -0.3500000000019905 0.349999999997969 L -0.35000000000199 9.349999999999993 L -25.249999999998202 9.349999999999993 L -25.249999999998202 0.34999999999796916 L -0.3500000000019905 0.349999999997969 Z M -0.35000000000061926 10.049999999999809 L -0.350000000000619 19.049999999999997 L -25.250000000000306 19.049999999999997 L -25.250000000000306 10.049999999999809 L -0.35000000000061926 10.049999999999809 Z M -25.949999999998635 19.749999999999996 L -25.949999999998635 28.75 L -50.85 28.75 L -50.85 19.749999999999996 L -25.949999999998635 19.749999999999996 Z M -25.95 29.45 L -25.95 38.45 L -50.85 38.45 L -50.85 29.45 L -25.95 29.45 Z M -0.3499999999968647 19.74999999999718 L -0.349999999996865 28.75 L -25.249999999998636 28.75 L -25.249999999998636 19.74999999999718 L -0.3499999999968647 19.74999999999718 Z M -0.3499999999981318 29.45000000000049 L -0.349999999998132 38.45 L -25.25 38.45 L -25.25 29.45000000000049 L -0.3499999999981318 29.45000000000049 Z M 25.249999999996323 0.350000000002009 L 25.249999999996323 9.349999999999993 L 0.35000000000002995 9.349999999999993 L 0.35000000000003 0.3500000000020088 L 25.249999999996323 0.350000000002009 Z M 25.249999999999247 10.050000000000175 L 25.249999999999247 19.049999999999997 L 0.3499999999995642 19.049999999999997 L 0.349999999999564 10.050000000000175 L 25.249999999999247 10.050000000000175 Z M 50.8499999999916 0.349999999999989 L 50.8499999999916 9.349999999999993 L 25.949999999996326 9.349999999999993 L 25.949999999996326 0.349999999999989 L 50.8499999999916 0.349999999999989 Z M 50.84999999999901 10.049999999999992 L 50.84999999999901 19.049999999999997 L 25.949999999999246 19.049999999999997 L 25.949999999999246 10.049999999999992 L 50.84999999999901 10.049999999999992 Z M 25.25000000000772 19.750000000002814 L 25.25000000000772 28.75 L 0.3500000000059521 28.75 L 0.350000000005952 19.750000000002814 L 25.25000000000772 19.750000000002814 Z M 25.250000000003187 29.44999999999951 L 25.250000000003187 38.45 L 0.35000000000137615 38.45 L 0.350000000001376 29.44999999999951 L 25.250000000003187 29.44999999999951 Z M 50.85000000000959 19.749999999999996 L 50.85000000000959 28.75 L 25.950000000007723 28.75 L 25.950000000007723 19.749999999999996 L 50.85000000000959 19.749999999999996 Z M 50.850000000005416 29.45 L 50.850000000005416 38.45 L 25.95000000000319 38.45 L 25.95000000000319 29.45 L 50.850000000005416 29.45 Z " stroke="#191919" stroke-width="0.35 px" style="stroke-width:0.35;stroke-miterlimit:4;stroke-dasharray:none;stroke-linecap:square;fill:#cccccc;fill-opacity:1.0;fill-rule: evenodd"/>
<path id="Pad001_f0028"  d="M -51.65 -39.25 L -51.65 0.0 L -53.65 0.0 L -53.65 -41.25 L 0.0 -41.25 L 0.0 -39.25 L -51.65 -39.25 Z " stroke="#191919" stroke-width="0.35 px" style="stroke-width:0.35;stroke-miterlimit:4;stroke-dasharray:none;stroke-linecap:square;fill:#cccccc;fill-opacity:1.0;fill-rule: evenodd"/>
<path id="Pad001_f0029"  d="M -24.658757916579756 -47.75 A 2.48571 2.48571 0 0 1 -26.7861 -48.95L -26.786130541603605 -48.94999999999993 A 2.48571 2.48571 0 0 0 -24.6588 -47.75L -24.658757916579756 -47.75 Z " stroke="#191919" stroke-width="0.35 px" style="stroke-width:0.35;stroke-miterlimit:4;stroke-dasharray:none;stroke-linecap:square;fill:#cccccc;fill-opacity:1.0;fill-rule: evenodd"/>
<path id="Pad001_f0030"  d="M 0.0 -47.75 L -24.658757916579756 -47.75 L -24.658757916579756 -47.75 L 0.0 -47.75 L 0.0 -47.75 Z " stroke="#191919" stroke-width="0.35 px" style="stroke-width:0.35;stroke-miterlimit:4;stroke-dasharray:none;stroke-linecap:square;fill:#cccccc;fill-opacity:1.0;fill-rule: evenodd"/>
<path id="Pad001_f0031"  d="M -57.84999999999833 -41.75 L -57.85000000000001 0.0 L -57.85000000000001 0.0 L -57.84999999999917 -41.75 L -57.84999999999917 -41.75 Z " stroke="#191919" stroke-width="0.35 px" style="stroke-width:0.35;stroke-miterlimit:4;stroke-dasharray:none;stroke-linecap:square;fill:#cccccc;fill-opacity:1.0;fill-rule: evenodd"/>
<path id="Pad001_f0032"  d="M -51.85 -47.75 L -51.85 -47.75 A 6 6 0 0 0 -57.85 -41.75L -57.84999999999917 -41.75 A 6 6 0 0 1 -51.85 -47.75Z " stroke="#191919" stroke-width="0.35 px" style="stroke-width:0.35;stroke-miterlimit:4;stroke-dasharray:none;stroke-linecap:square;fill:#cccccc;fill-opacity:1.0;fill-rule: evenodd"/>
<path id="Pad001_f0033"  d="M -38.84124208341954 -47.75 L -51.85 -47.75 L -51.85 -47.75 L -38.84124208341954 -47.75 L -38.84124208341954 -47.75 Z " stroke="#191919" stroke-width="0.35 px" style="stroke-width:0.35;stroke-miterlimit:4;stroke-dasharray:none;stroke-linecap:square;fill:#cccccc;fill-opacity:1.0;fill-rule: evenodd"/>
<path id="Pad001_f0034"  d="M -36.71386945839643 -48.94999999999986 A 2.48571 2.48571 0 0 1 -38.8412 -47.75L -38.84124208341954 -47.75 A 2.48571 2.48571 0 0 0 -36.7139 -48.95L -36.71386945839643 -48.94999999999986 Z " stroke="#191919" stroke-width="0.35 px" style="stroke-width:0.35;stroke-miterlimit:4;stroke-dasharray:none;stroke-linecap:square;fill:#cccccc;fill-opacity:1.0;fill-rule: evenodd"/>
<path id="Pad001_f0035"  d="M -26.786130541603605 -48.94999999999993 L -26.786130541603605 -48.94999999999993 A 5.8 5.8 0 0 0 -36.7139 -48.95L -36.71386945839643 -48.94999999999986 A 5.8 5.8 0 0 1 -26.7861 -48.95Z " stroke="#191919" stroke-width="0.35 px" style="stroke-width:0.35;stroke-miterlimit:4;stroke-dasharray:none;stroke-linecap:square;fill:#cccccc;fill-opacity:1.0;fill-rule: evenodd"/>
<circle cx="-31.749999999999996" cy="-45.95" r="2.4" stroke="#191919" stroke-width="0.35 px" style="stroke-width:0.35;stroke-miterlimit:4;stroke-dasharray:none;stroke-linecap:square;fill:#cccccc"/>
<path id="Pad001_f0037"  d="M 53.65 -41.25 L 53.65 -41.25 L 53.65 41.25 L 53.65 41.25 L 53.65 0.0 L 53.65 -41.25 Z " stroke="#191919" stroke-width="0.35 px" style="stroke-width:0.35;stroke-miterlimit:4;stroke-dasharray:none;stroke-linecap:square;fill:#cccccc;fill-opacity:1.0;fill-rule: evenodd"/>
<circle cx="31.749999999999996" cy="-45.95" r="2.4" stroke="#191919" stroke-width="0.35 px" style="stroke-width:0.35;stroke-miterlimit:4;stroke-dasharray:none;stroke-linecap:square;fill:#cccccc"/>
<path id="Pad001_f0039"  d="M 53.65 41.25 L 53.65 -41.25 L -53.65 -41.25 L -53.65 41.25 L 53.65 41.25 Z M -50.85 -29.45000000000002 L -50.85 -38.450000000000024 L -25.94999999988219 -38.450000000000024 L -25.94999999988219 -29.45000000000002 L -50.85 -29.45000000000002 Z M -25.249999999882192 -29.45000000000002 L -25.249999999882192 -38.450000000026 L -0.3499999998158435 -38.450000000026 L -0.349999999815844 -29.45000000000002 L -25.249999999882192 -29.45000000000002 Z M -50.85 -10.050000000000015 L -50.85 -19.05000000000002 L -25.94999999993115 -19.05000000000002 L -25.94999999993115 -10.050000000000015 L -50.85 -10.050000000000015 Z M -50.85 -19.750000000000018 L -50.85 -28.75000000000002 L -25.949999999933947 -28.75000000000002 L -25.949999999933947 -19.750000000000018 L -50.85 -19.750000000000018 Z M 0.3500000002101301 -29.45000000000002 L 0.35000000021013 -38.449999999974054 L 25.25000000027648 -38.449999999974054 L 25.25000000027648 -29.45000000000002 L 0.3500000002101301 -29.45000000000002 Z M -25.249999999931152 -10.050000000000015 L -25.249999999931152 -19.05000000002506 L -0.3499999999138838 -19.05000000002506 L -0.349999999913884 -10.050000000000015 L -25.249999999931152 -10.050000000000015 Z M -25.249999999933944 -19.750000000000018 L -25.249999999933944 -28.750000000025594 L -0.34999999991939446 -28.750000000025594 L -0.349999999919395 -19.750000000000018 L -25.249999999933944 -19.750000000000018 Z M -50.85 -0.35000000000001 L -50.85 -9.350000000000016 L -25.949999999980005 -9.350000000000016 L -25.949999999980005 -0.3500000000000102 L -50.85 -0.35000000000001 Z M 25.95000000027648 -29.45000000000002 L 25.95000000027648 -38.450000000000024 L 50.85000000029146 -38.450000000000024 L 50.85000000029146 -29.45000000000002 L 25.95000000027648 -29.45000000000002 Z M 0.35000000011115884 -10.050000000000015 L 0.350000000111159 -19.049999999974975 L 25.25000000012843 -19.049999999974975 L 25.25000000012843 -10.050000000000015 L 0.35000000011115884 -10.050000000000015 Z M 0.35000000010617793 -19.750000000000018 L 0.350000000106178 -28.74999999997445 L 25.250000000120732 -28.74999999997445 L 25.250000000120732 -19.750000000000018 L 0.35000000010617793 -19.750000000000018 Z M -25.249999999998636 28.75 L -25.249999999998636 19.74999999999718 L -0.3499999999968647 19.74999999999718 L -0.349999999996865 28.75 L -25.249999999998636 28.75 Z M 25.95000000000319 38.45 L 25.95000000000319 29.45 L 50.850000000005416 29.45 L 50.850000000005416 38.45 L 25.95000000000319 38.45 Z M 0.35000000000137615 38.45 L 0.350000000001376 29.44999999999951 L 25.250000000003187 29.44999999999951 L 25.250000000003187 38.45 L 0.35000000000137615 38.45 Z M 25.950000000007723 28.75 L 25.950000000007723 19.749999999999996 L 50.85000000000959 19.749999999999996 L 50.85000000000959 28.75 L 25.950000000007723 28.75 Z M -50.85 9.349999999999993 L -50.85 0.349999999999989 L -25.9499999999982 0.349999999999989 L -25.9499999999982 9.349999999999993 L -50.85 9.349999999999993 Z M -25.25 38.45 L -25.25 29.45000000000049 L -0.3499999999981318 29.45000000000049 L -0.349999999998132 38.45 L -25.25 38.45 Z M -50.85 28.75 L -50.85 19.749999999999996 L -25.949999999998635 19.749999999999996 L -25.949999999998635 28.75 L -50.85 28.75 Z M 0.3500000000059521 28.75 L 0.350000000005952 19.750000000002814 L 25.25000000000772 19.750000000002814 L 25.25000000000772 28.75 L 0.3500000000059521 28.75 Z M -50.85 38.45 L -50.85 29.45 L -25.95 29.45 L -25.95 38.45 L -50.85 38.45 Z M 25.949999999999246 19.049999999999997 L 25.949999999999246 10.049999999999992 L 50.84999999999901 10.049999999999992 L 50.84999999999901 19.049999999999997 L 25.949999999999246 19.049999999999997 Z M -25.250000000000306 19.049999999999997 L -25.250000000000306 10.049999999999809 L -0.35000000000061926 10.049999999999809 L -0.350000000000619 19.049999999999997 L -25.250000000000306 19.049999999999997 Z M -50.85 19.049999999999997 L -50.85 10.049999999999992 L -25.95000000000031 10.049999999999992 L -25.95000000000031 19.049999999999997 L -50.85 19.049999999999997 Z M 0.3499999999995642 19.049999999999997 L 0.349999999999564 10.050000000000175 L 25.249999999999247 10.050000000000175 L 25.249999999999247 19.049999999999997 L 0.3499999999995642 19.049999999999997 Z M -25.249999999998202 9.349999999999993 L -25.249999999998202 0.34999999999796916 L -0.3500000000019905 0.349999999997969 L -0.35000000000199 9.349999999999993 L -25.249999999998202 9.349999999999993 Z M 0.35000000000002995 9.349999999999993 L 0.35000000000003 0.3500000000020088 L 25.249999999996323 0.350000000002009 L 25.249999999996323 9.349999999999993 L 0.35000000000002995 9.349999999999993 Z M 25.949999999996326 9.349999999999993 L 25.949999999996326 0.349999999999989 L 50.8499999999916 0.349999999999989 L 50.8499999999916 9.349999999999993 L 25.949999999996326 9.349999999999993 Z M -25.249999999980005 -0.35000000000001 L -25.249999999980005 -9.3500000000205 L -0.3500000000091705 -9.3500000000205 L -0.35000000000917 -0.3500000000000102 L -25.249999999980005 -0.35000000000001 Z M 25.95000000012843 -10.050000000000015 L 25.95000000012843 -19.05000000000002 L 50.85000000009428 -19.05000000000002 L 50.85000000009428 -10.050000000000015 L 25.95000000012843 -10.050000000000015 Z M 0.3500000000113169 -0.35000000000001 L 0.350000000011317 -9.349999999979529 L 25.24999999998214 -9.349999999979529 L 25.24999999998214 -0.3500000000000102 L 0.3500000000113169 -0.35000000000001 Z M 25.95000000012073 -19.750000000000018 L 25.95000000012073 -28.75000000000002 L 50.85000000008388 -28.75000000000002 L 50.85000000008388 -19.750000000000018 L 25.95000000012073 -19.750000000000018 Z M 25.94999999998214 -0.35000000000001 L 25.94999999998214 -9.350000000000016 L 50.849999999901925 -9.350000000000016 L 50.849999999901925 -0.3500000000000102 L 25.94999999998214 -0.35000000000001 Z " stroke="#191919" stroke-width="0.35 px" style="stroke-width:0.35;stroke-miterlimit:4;stroke-dasharray:none;stroke-linecap:square;fill:#cccccc;fill-opacity:1.0;fill-rule: evenodd"/>
<path id="Pad001_f0040"  d="M 0.0 -41.25 L 53.65 -41.25 L 53.65 -41.25 L -53.65 -41.25 L -53.65 -41.25 L 3.552713678800501e-15 -41.25 Z " stroke="#191919" stroke-width="0.35 px" style="stroke-width:0.35;stroke-miterlimit:4;stroke-dasharray:none;stroke-linecap:square;fill:#cccccc;fill-opacity:1.0;fill-rule: evenodd"/>
<path id="Pad001_f0041"  d="M 53.65 -41.25 L 0.0 -41.25 L 0.0 -39.25 L 51.65 -39.25 L 51.65 0.0 L 53.65 0.0 L 53.65 -41.25 Z " stroke="#191919" stroke-width="0.35 px" style="stroke-width:0.35;stroke-miterlimit:4;stroke-dasharray:none;stroke-linecap:square;fill:#cccccc;fill-opacity:1.0;fill-rule: evenodd"/>
<path id="Pad001_f0042"  d="M 26.786130541603605 -48.94999999999993 L 26.786130541603605 -48.94999999999993 A 2.48571 2.48571 0 0 1 24.6588 -47.75L 24.658757916579756 -47.75 A 2.48571 2.48571 0 0 0 26.7861 -48.95Z " stroke="#191919" stroke-width="0.35 px" style="stroke-width:0.35;stroke-miterlimit:4;stroke-dasharray:none;stroke-linecap:square;fill:#cccccc;fill-opacity:1.0;fill-rule: evenodd"/>
<path id="Pad001_f0043"  d="M 24.658757916579756 -47.75 L 24.658757916579756 -47.75 L 0.0 -47.75 L 0.0 -47.75 L 24.658757916579756 -47.75 Z " stroke="#191919" stroke-width="0.35 px" style="stroke-width:0.35;stroke-miterlimit:4;stroke-dasharray:none;stroke-linecap:square;fill:#cccccc;fill-opacity:1.0;fill-rule: evenodd"/>
<path id="Pad001_f0044"  d="M 57.85000000000001 0.0 L 57.85000000000001 0.0 L 57.84999999999917 -41.75 L 57.84999999999917 -41.75 L 57.85000000000001 0.0 Z " stroke="#191919" stroke-width="0.35 px" style="stroke-width:0.35;stroke-miterlimit:4;stroke-dasharray:none;stroke-linecap:square;fill:#cccccc;fill-opacity:1.0;fill-rule: evenodd"/>
<path id="Pad001_f0045"  d="M 57.85 -41.75 A 6 6 0 0 0 51.85 -47.75L 51.85 -47.75 A 6 6 0 0 1 57.85 -41.75L 57.84999999999917 -41.75 Z " stroke="#191919" stroke-width="0.35 px" style="stroke-width:0.35;stroke-miterlimit:4;stroke-dasharray:none;stroke-linecap:square;fill:#cccccc;fill-opacity:1.0;fill-rule: evenodd"/>
<path id="Pad001_f0046"  d="M 51.85 -47.75 L 51.85 -47.75 L 38.84124208341954 -47.75 L 38.84124208341954 -47.75 L 51.85 -47.75 Z " stroke="#191919" stroke-width="0.35 px" style="stroke-width:0.35;stroke-miterlimit:4;stroke-dasharray:none;stroke-linecap:square;fill:#cccccc;fill-opacity:1.0;fill-rule: evenodd"/>
<path id="Pad001_f0047"  d="M 38.84124208341954 -47.75 L 38.84124208341954 -47.75 A 2.48571 2.48571 0 0 1 36.7139 -48.95L 36.71386945839643 -48.94999999999986 A 2.48571 2.48571 0 0 0 38.8412 -47.75Z " stroke="#191919" stroke-width="0.35 px" style="stroke-width:0.35;stroke-miterlimit:4;stroke-dasharray:none;stroke-linecap:square;fill:#cccccc;fill-opacity:1.0;fill-rule: evenodd"/>
<path id="Pad001_f0048"  d="M 36.71386945839643 -48.94999999999986 A 5.8 5.8 0 0 0 26.7861 -48.95L 26.786130541603605 -48.94999999999993 A 5.8 5.8 0 0 1 36.7139 -48.95L 36.71386945839643 -48.94999999999986 Z " stroke="#191919" stroke-width="0.35 px" style="stroke-width:0.35;stroke-miterlimit:4;stroke-dasharray:none;stroke-linecap:square;fill:#cccccc;fill-opacity:1.0;fill-rule: evenodd"/>
<circle cx="31.749999999999996" cy="-45.95" r="2.4" stroke="#191919" stroke-width="0.35 px" style="stroke-width:0.35;stroke-miterlimit:4;stroke-dasharray:none;stroke-linecap:square;fill:#cccccc"/>
<path id="Pad001_f0050"  d="M -25.94999999988219 -29.45000000000002 L -50.85 -29.45000000000002 L -50.85 -29.45000000000002 L -25.94999999988219 -29.45000000000002 L -25.94999999988219 -29.45000000000002 Z " stroke="#191919" stroke-width="0.35 px" style="stroke-width:0.35;stroke-miterlimit:4;stroke-dasharray:none;stroke-linecap:square;fill:#cccccc;fill-opacity:1.0;fill-rule: evenodd"/>
<path id="Pad001_f0051"  d="M -50.85 -29.45000000000002 L -50.85 -38.450000000000024 L -50.85 -38.450000000000024 L -50.85 -29.45000000000002 L -50.85 -29.45000000000002 Z " stroke="#191919" stroke-width="0.35 px" style="stroke-width:0.35;stroke-miterlimit:4;stroke-dasharray:none;stroke-linecap:square;fill:#cccccc;fill-opacity:1.0;fill-rule: evenodd"/>
<path id="Pad001_f0052"  d="M -25.94999999988219 -38.450000000000024 L -25.94999999988219 -29.45000000000002 L -25.94999999988219 -29.45000000000002 L -25.94999999988219 -38.450000000000024 L -25.94999999988219 -38.450000000000024 Z " stroke="#191919" stroke-width="0.35 px" style="stroke-width:0.35;stroke-miterlimit:4;stroke-dasharray:none;stroke-linecap:square;fill:#cccccc;fill-opacity:1.0;fill-rule: evenodd"/>
<path id="Pad001_f0053"  d="M -50.85 -38.450000000000024 L -25.94999999988219 -38.450000000000024 L -25.94999999988219 -38.450000000000024 L -50.85 -38.450000000000024 L -50.85 -38.450000000000024 Z " stroke="#191919" stroke-width="0.35 px" style="stroke-width:0.35;stroke-miterlimit:4;stroke-dasharray:none;stroke-linecap:square;fill:#cccccc;fill-opacity:1.0;fill-rule: evenodd"/>
<path id="Pad001_f0054"  d="M -25.949999999933947 -19.750000000000018 L -50.85 -19.750000000000018 L -50.85 -19.750000000000018 L -25.949999999933947 -19.750000000000018 L -25.949999999933947 -19.750000000000018 Z " stroke="#191919" stroke-width="0.35 px" style="stroke-width:0.35;stroke-miterlimit:4;stroke-dasharray:none;stroke-linecap:square;fill:#cccccc;fill-opacity:1.0;fill-rule: evenodd"/>
<path id="Pad001_f0055"  d="M -50.85 -19.750000000000018 L -50.85 -28.75000000000002 L -50.85 -28.75000000000002 L -50.85 -19.750000000000018 L -50.85 -19.750000000000018 Z " stroke="#191919" stroke-width="0.35 px" style="stroke-width:0.35;stroke-miterlimit:4;stroke-dasharray:none;stroke-linecap:square;fill:#cccccc;fill-opacity:1.0;fill-rule: evenodd"/>
<path id="Pad001_f0056"  d="M -25.949999999933947 -28.75000000000002 L -25.949999999933947 -19.750000000000018 L -25.949999999933947 -19.750000000000018 L -25.949999999933947 -28.75000000000002 L -25.949999999933947 -28.75000000000002 Z " stroke="#191919" stroke-width="0.35 px" style="stroke-width:0.35;stroke-miterlimit:4;stroke-dasharray:none;stroke-linecap:square;fill:#cccccc;fill-opacity:1.0;fill-rule: evenodd"/>
<path id="Pad001_f0057"  d="M -50.85 -28.75000000000002 L -25.949999999933947 -28.75000000000002 L -25.949999999933947 -28.75000000000002 L -50.85 -28.75000000000002 L -50.85 -28.75000000000002 Z " stroke="#191919" stroke-width="0.35 px" style="stroke-width:0.35;stroke-miterlimit:4;stroke-dasharray:none;stroke-linecap:square;fill:#cccccc;fill-opacity:1.0;fill-rule: evenodd"/>
<path id="Pad001_f0058"  d="M -0.34999999981584295 -29.45000000000002 L -25.249999999882192 -29.45000000000002 L -25.249999999882192 -29.45000000000002 L -0.349999999815844 -29.45000000000002 L -0.3499999998158435 -29.45000000000002 Z " stroke="#191919" stroke-width="0.35 px" style="stroke-width:0.35;stroke-miterlimit:4;stroke-dasharray:none;stroke-linecap:square;fill:#cccccc;fill-opacity:1.0;fill-rule: evenodd"/>
<path id="Pad001_f0059"  d="M -25.249999999882192 -29.45000000000002 L -25.249999999882192 -38.450000000026 L -25.249999999882192 -38.450000000026 L -25.249999999882192 -29.45000000000002 L -25.249999999882192 -29.45000000000002 Z " stroke="#191919" stroke-width="0.35 px" style="stroke-width:0.35;stroke-miterlimit:4;stroke-dasharray:none;stroke-linecap:square;fill:#cccccc;fill-opacity:1.0;fill-rule: evenodd"/>
<path id="Pad001_f0060"  d="M -0.349999999815844 -38.450000000026 L -0.349999999815844 -29.45000000000002 L -0.349999999815844 -29.45000000000002 L -0.349999999815844 -38.450000000026 L -0.349999999815844 -38.450000000026 Z " stroke="#191919" stroke-width="0.35 px" style="stroke-width:0.35;stroke-miterlimit:4;stroke-dasharray:none;stroke-linecap:square;fill:#cccccc;fill-opacity:1.0;fill-rule: evenodd"/>
<path id="Pad001_f0061"  d="M -25.249999999882192 -38.450000000026 L -0.349999999815844 -38.450000000026 L -0.349999999815844 -38.450000000026 L -25.249999999882192 -38.450000000026 L -25.249999999882192 -38.450000000026 Z " stroke="#191919" stroke-width="0.35 px" style="stroke-width:0.35;stroke-miterlimit:4;stroke-dasharray:none;stroke-linecap:square;fill:#cccccc;fill-opacity:1.0;fill-rule: evenodd"/>
<path id="Pad001_f0062"  d="M -0.3499999999193939 -19.750000000000018 L -25.249999999933944 -19.750000000000018 L -25.249999999933944 -19.750000000000018 L -0.349999999919395 -19.750000000000018 L -0.34999999991939457 -19.750000000000018 Z " stroke="#191919" stroke-width="0.35 px" style="stroke-width:0.35;stroke-miterlimit:4;stroke-dasharray:none;stroke-linecap:square;fill:#cccccc;fill-opacity:1.0;fill-rule: evenodd"/>
<path id="Pad001_f0063"  d="M -25.249999999933944 -19.750000000000018 L -25.249999999933944 -28.750000000025594 L -25.249999999933944 -28.750000000025594 L -25.249999999933944 -19.750000000000018 L -25.249999999933944 -19.750000000000018 Z " stroke="#191919" stroke-width="0.35 px" style="stroke-width:0.35;stroke-miterlimit:4;stroke-dasharray:none;stroke-linecap:square;fill:#cccccc;fill-opacity:1.0;fill-rule: evenodd"/>
<path id="Pad001_f0064"  d="M -0.3499999999193952 -28.750000000025594 L -0.3499999999193952 -19.750000000000018 L -0.349999999919395 -19.750000000000018 L -0.349999999919395 -28.750000000025594 L -0.3499999999193952 -28.750000000025594 Z " stroke="#191919" stroke-width="0.35 px" style="stroke-width:0.35;stroke-miterlimit:4;stroke-dasharray:none;stroke-linecap:square;fill:#cccccc;fill-opacity:1.0;fill-rule: evenodd"/>
<path id="Pad001_f0065"  d="M -25.249999999933944 -28.750000000025594 L -0.3499999999193952 -28.750000000025594 L -0.349999999919395 -28.750000000025594 L -25.249999999933944 -28.750000000025594 L -25.249999999933944 -28.750000000025594 Z " stroke="#191919" stroke-width="0.35 px" style="stroke-width:0.35;stroke-miterlimit:4;stroke-dasharray:none;stroke-linecap:square;fill:#cccccc;fill-opacity:1.0;fill-rule: evenodd"/>
<path id="Pad001_f0066"  d="M -25.94999999993115 -10.050000000000015 L -50.85 -10.050000000000015 L -50.85 -10.050000000000015 L -25.94999999993115 -10.050000000000015 L -25.94999999993115 -10.050000000000015 Z " stroke="#191919" stroke-width="0.35 px" style="stroke-width:0.35;stroke-miterlimit:4;stroke-dasharray:none;stroke-linecap:square;fill:#cccccc;fill-opacity:1.0;fill-rule: evenodd"/>
<path id="Pad001_f0067"  d="M -50.85 -10.050000000000015 L -50.85 -19.05000000000002 L -50.85 -19.05000000000002 L -50.85 -10.050000000000015 L -50.85 -10.050000000000015 Z " stroke="#191919" stroke-width="0.35 px" style="stroke-width:0.35;stroke-miterlimit:4;stroke-dasharray:none;stroke-linecap:square;fill:#cccccc;fill-opacity:1.0;fill-rule: evenodd"/>
<path id="Pad001_f0068"  d="M -25.94999999993115 -19.05000000000002 L -25.94999999993115 -10.050000000000015 L -25.94999999993115 -10.050000000000015 L -25.94999999993115 -19.05000000000002 L -25.94999999993115 -19.05000000000002 Z " stroke="#191919" stroke-width="0.35 px" style="stroke-width:0.35;stroke-miterlimit:4;stroke-dasharray:none;stroke-linecap:square;fill:#cccccc;fill-opacity:1.0;fill-rule: evenodd"/>
<path id="Pad001_f0069"  d="M -50.85 -19.05000000000002 L -25.94999999993115 -19.05000000000002 L -25.94999999993115 -19.05000000000002 L -50.85 -19.05000000000002 L -50.85 -19.05000000000002 Z " stroke="#191919" stroke-width="0.35 px" style="stroke-width:0.35;stroke-miterlimit:4;stroke-dasharray:none;stroke-linecap:square;fill:#cccccc;fill-opacity:1.0;fill-rule: evenodd"/>
<path id="Pad001_f0070"  d="M -25.949999999980005 -0.3500000000000103 L -50.85 -0.3500000000000103 L -50.85 -0.35000000000001 L -25.949999999980005 -0.35000000000001 L -25.949999999980005 -0.3500000000000103 Z " stroke="#191919" stroke-width="0.35 px" style="stroke-width:0.35;stroke-miterlimit:4;stroke-dasharray:none;stroke-linecap:square;fill:#cccccc;fill-opacity:1.0;fill-rule: evenodd"/>
<path id="Pad001_f0071"  d="M -50.85 -0.3500000000000103 L -50.85 -9.350000000000016 L -50.85 -9.350000000000016 L -50.85 -0.35000000000001 L -50.85 -0.3500000000000103 Z " stroke="#191919" stroke-width="0.35 px" style="stroke-width:0.35;stroke-miterlimit:4;stroke-dasharray:none;stroke-linecap:square;fill:#cccccc;fill-opacity:1.0;fill-rule: evenodd"/>
<path id="Pad001_f0072"  d="M -25.949999999980005 -9.350000000000016 L -25.949999999980005 -0.3500000000000103 L -25.949999999980005 -0.35000000000001 L -25.949999999980005 -9.350000000000016 L -25.949999999980005 -9.350000000000016 Z " stroke="#191919" stroke-width="0.35 px" style="stroke-width:0.35;stroke-miterlimit:4;stroke-dasharray:none;stroke-linecap:square;fill:#cccccc;fill-opacity:1.0;fill-rule: evenodd"/>
<path id="Pad001_f0073"  d="M -50.85 -9.350000000000016 L -25.949999999980005 -9.350000000000016 L -25.949999999980005 -9.350000000000016 L -50.85 -9.350000000000016 L -50.85 -9.350000000000016 Z " stroke="#191919" stroke-width="0.35 px" style="stroke-width:0.35;stroke-miterlimit:4;stroke-dasharray:none;stroke-linecap:square;fill:#cccccc;fill-opacity:1.0;fill-rule: evenodd"/>
<path id="Pad001_f0074"  d="M -0.34999999991388364 -10.050000000000015 L -25.249999999931152 -10.050000000000015 L -25.249999999931152 -10.050000000000015 L -0.349999999913884 -10.050000000000015 L -0.349999999913884 -10.050000000000015 Z " stroke="#191919" stroke-width="0.35 px" style="stroke-width:0.35;stroke-miterlimit:4;stroke-dasharray:none;stroke-linecap:square;fill:#cccccc;fill-opacity:1.0;fill-rule: evenodd"/>
<path id="Pad001_f0075"  d="M -25.249999999931152 -10.050000000000015 L -25.249999999931152 -19.05000000002506 L -25.249999999931152 -19.05000000002506 L -25.249999999931152 -10.050000000000015 L -25.249999999931152 -10.050000000000015 Z " stroke="#191919" stroke-width="0.35 px" style="stroke-width:0.35;stroke-miterlimit:4;stroke-dasharray:none;stroke-linecap:square;fill:#cccccc;fill-opacity:1.0;fill-rule: evenodd"/>
<path id="Pad001_f0076"  d="M -0.3499999999138843 -19.05000000002506 L -0.3499999999138843 -10.050000000000015 L -0.349999999913884 -10.050000000000015 L -0.349999999913884 -19.05000000002506 L -0.3499999999138843 -19.05000000002506 Z " stroke="#191919" stroke-width="0.35 px" style="stroke-width:0.35;stroke-miterlimit:4;stroke-dasharray:none;stroke-linecap:square;fill:#cccccc;fill-opacity:1.0;fill-rule: evenodd"/>
<path id="Pad001_f0077"  d="M -25.249999999931152 -19.05000000002506 L -0.3499999999138843 -19.05000000002506 L -0.349999999913884 -19.05000000002506 L -25.249999999931152 -19.05000000002506 L -25.249999999931152 -19.05000000002506 Z " stroke="#191919" stroke-width="0.35 px" style="stroke-width:0.35;stroke-miterlimit:4;stroke-dasharray:none;stroke-linecap:square;fill:#cccccc;fill-opacity:1.0;fill-rule: evenodd"/>
<path id="Pad001_f0078"  d="M -0.350000000009171 -0.3500000000000103 L -25.249999999980005 -0.3500000000000103 L -25.249999999980005 -0.35000000000001 L -0.35000000000917 -0.35000000000001 L -0.3500000000091704 -0.3500000000000103 Z " stroke="#191919" stroke-width="0.35 px" style="stroke-width:0.35;stroke-miterlimit:4;stroke-dasharray:none;stroke-linecap:square;fill:#cccccc;fill-opacity:1.0;fill-rule: evenodd"/>
<path id="Pad001_f0079"  d="M -25.249999999980005 -0.3500000000000103 L -25.249999999980005 -9.3500000000205 L -25.249999999980005 -9.3500000000205 L -25.249999999980005 -0.35000000000001 L -25.249999999980005 -0.3500000000000103 Z " stroke="#191919" stroke-width="0.35 px" style="stroke-width:0.35;stroke-miterlimit:4;stroke-dasharray:none;stroke-linecap:square;fill:#cccccc;fill-opacity:1.0;fill-rule: evenodd"/>
<path id="Pad001_f0080"  d="M -0.3500000000091698 -9.3500000000205 L -0.3500000000091698 -0.3500000000000103 L -0.35000000000917 -0.35000000000001 L -0.35000000000917 -9.3500000000205 L -0.3500000000091698 -9.3500000000205 Z " stroke="#191919" stroke-width="0.35 px" style="stroke-width:0.35;stroke-miterlimit:4;stroke-dasharray:none;stroke-linecap:square;fill:#cccccc;fill-opacity:1.0;fill-rule: evenodd"/>
<path id="Pad001_f0081"  d="M -25.249999999980005 -9.3500000000205 L -0.3500000000091698 -9.3500000000205 L -0.35000000000917 -9.3500000000205 L -25.249999999980005 -9.3500000000205 L -25.249999999980005 -9.3500000000205 Z " stroke="#191919" stroke-width="0.35 px" style="stroke-width:0.35;stroke-miterlimit:4;stroke-dasharray:none;stroke-linecap:square;fill:#cccccc;fill-opacity:1.0;fill-rule: evenodd"/>
<path id="Pad001_f0082"  d="M 25.25000000027648 -29.45000000000002 L 0.3500000002101303 -29.45000000000002 L 0.35000000021013 -29.45000000000002 L 25.25000000027648 -29.45000000000002 L 25.25000000027648 -29.45000000000002 Z " stroke="#191919" stroke-width="0.35 px" style="stroke-width:0.35;stroke-miterlimit:4;stroke-dasharray:none;stroke-linecap:square;fill:#cccccc;fill-opacity:1.0;fill-rule: evenodd"/>
<path id="Pad001_f0083"  d="M 0.3500000002101303 -29.45000000000002 L 0.3500000002101303 -38.449999999974054 L 0.35000000021013 -38.449999999974054 L 0.35000000021013 -29.45000000000002 L 0.3500000002101303 -29.45000000000002 Z " stroke="#191919" stroke-width="0.35 px" style="stroke-width:0.35;stroke-miterlimit:4;stroke-dasharray:none;stroke-linecap:square;fill:#cccccc;fill-opacity:1.0;fill-rule: evenodd"/>
<path id="Pad001_f0084"  d="M 25.25000000027648 -38.449999999974054 L 25.25000000027648 -29.45000000000002 L 25.25000000027648 -29.45000000000002 L 25.25000000027648 -38.449999999974054 L 25.25000000027648 -38.449999999974054 Z " stroke="#191919" stroke-width="0.35 px" style="stroke-width:0.35;stroke-miterlimit:4;stroke-dasharray:none;stroke-linecap:square;fill:#cccccc;fill-opacity:1.0;fill-rule: evenodd"/>
<path id="Pad001_f0085"  d="M 0.3500000002101302 -38.449999999974054 L 25.25000000027648 -38.449999999974054 L 25.25000000027648 -38.449999999974054 L 0.35000000021013 -38.449999999974054 L 0.3500000002101302 -38.449999999974054 Z " stroke="#191919" stroke-width="0.35 px" style="stroke-width:0.35;stroke-miterlimit:4;stroke-dasharray:none;stroke-linecap:square;fill:#cccccc;fill-opacity:1.0;fill-rule: evenodd"/>
<path id="Pad001_f0086"  d="M 25.250000000120732 -19.750000000000018 L 0.3500000001061779 -19.750000000000018 L 0.350000000106178 -19.750000000000018 L 25.250000000120732 -19.750000000000018 L 25.250000000120732 -19.750000000000018 Z " stroke="#191919" stroke-width="0.35 px" style="stroke-width:0.35;stroke-miterlimit:4;stroke-dasharray:none;stroke-linecap:square;fill:#cccccc;fill-opacity:1.0;fill-rule: evenodd"/>
<path id="Pad001_f0087"  d="M 0.3500000001061779 -19.750000000000018 L 0.3500000001061779 -28.74999999997445 L 0.350000000106178 -28.74999999997445 L 0.350000000106178 -19.750000000000018 L 0.3500000001061779 -19.750000000000018 Z " stroke="#191919" stroke-width="0.35 px" style="stroke-width:0.35;stroke-miterlimit:4;stroke-dasharray:none;stroke-linecap:square;fill:#cccccc;fill-opacity:1.0;fill-rule: evenodd"/>
<path id="Pad001_f0088"  d="M 25.250000000120732 -28.74999999997445 L 25.250000000120732 -19.750000000000018 L 25.250000000120732 -19.750000000000018 L 25.250000000120732 -28.74999999997445 L 25.250000000120732 -28.74999999997445 Z " stroke="#191919" stroke-width="0.35 px" style="stroke-width:0.35;stroke-miterlimit:4;stroke-dasharray:none;stroke-linecap:square;fill:#cccccc;fill-opacity:1.0;fill-rule: evenodd"/>
<path id="Pad001_f0089"  d="M 0.3500000001061778 -28.74999999997445 L 25.250000000120732 -28.74999999997445 L 25.250000000120732 -28.74999999997445 L 0.350000000106178 -28.74999999997445 L 0.3500000001061778 -28.74999999997445 Z " stroke="#191919" stroke-width="0.35 px" style="stroke-width:0.35;stroke-miterlimit:4;stroke-dasharray:none;stroke-linecap:square;fill:#cccccc;fill-opacity:1.0;fill-rule: evenodd"/>
<path id="Pad001_f0090"  d="M 50.85000000029146 -29.45000000000002 L 25.95000000027648 -29.45000000000002 L 25.95000000027648 -29.45000000000002 L 50.85000000029146 -29.45000000000002 L 50.85000000029146 -29.45000000000002 Z " stroke="#191919" stroke-width="0.35 px" style="stroke-width:0.35;stroke-miterlimit:4;stroke-dasharray:none;stroke-linecap:square;fill:#cccccc;fill-opacity:1.0;fill-rule: evenodd"/>
<path id="Pad001_f0091"  d="M 25.95000000027648 -29.45000000000002 L 25.95000000027648 -38.450000000000024 L 25.95000000027648 -38.450000000000024 L 25.95000000027648 -29.45000000000002 L 25.95000000027648 -29.45000000000002 Z " stroke="#191919" stroke-width="0.35 px" style="stroke-width:0.35;stroke-miterlimit:4;stroke-dasharray:none;stroke-linecap:square;fill:#cccccc;fill-opacity:1.0;fill-rule: evenodd"/>
<path id="Pad001_f0092"  d="M 50.85000000029146 -38.450000000000024 L 50.85000000029146 -29.45000000000002 L 50.85000000029146 -29.45000000000002 L 50.85000000029146 -38.450000000000024 L 50.85000000029146 -38.450000000000024 Z " stroke="#191919" stroke-width="0.35 px" style="stroke-width:0.35;stroke-miterlimit:4;stroke-dasharray:none;stroke-linecap:square;fill:#cccccc;fill-opacity:1.0;fill-rule: evenodd"/>
<path id="Pad001_f0093"  d="M 25.95000000027648 -38.450000000000024 L 50.85000000029146 -38.450000000000024 L 50.85000000029146 -38.450000000000024 L 25.95000000027648 -38.450000000000024 L 25.95000000027648 -38.450000000000024 Z " stroke="#191919" stroke-width="0.35 px" style="stroke-width:0.35;stroke-miterlimit:4;stroke-dasharray:none;stroke-linecap:square;fill:#cccccc;fill-opacity:1.0;fill-rule: evenodd"/>
<path id="Pad001_f0094"  d="M 50.85000000008388 -19.750000000000018 L 25.95000000012073 -19.750000000000018 L 25.95000000012073 -19.750000000000018 L 50.85000000008388 -19.750000000000018 L 50.85000000008388 -19.750000000000018 Z " stroke="#191919" stroke-width="0.35 px" style="stroke-width:0.35;stroke-miterlimit:4;stroke-dasharray:none;stroke-linecap:square;fill:#cccccc;fill-opacity:1.0;fill-rule: evenodd"/>
<path id="Pad001_f0095"  d="M 25.95000000012073 -19.750000000000018 L 25.95000000012073 -28.75000000000002 L 25.95000000012073 -28.75000000000002 L 25.95000000012073 -19.750000000000018 L 25.95000000012073 -19.750000000000018 Z " stroke="#191919" stroke-width="0.35 px" style="stroke-width:0.35;stroke-miterlimit:4;stroke-dasharray:none;stroke-linecap:square;fill:#cccccc;fill-opacity:1.0;fill-rule: evenodd"/>
<path id="Pad001_f0096"  d="M 50.85000000008388 -28.75000000000002 L 50.85000000008388 -19.750000000000018 L 50.85000000008388 -19.750000000000018 L 50.85000000008388 -28.75000000000002 L 50.85000000008388 -28.75000000000002 Z " stroke="#191919" stroke-width="0.35 px" style="stroke-width:0.35;stroke-miterlimit:4;stroke-dasharray:none;stroke-linecap:square;fill:#cccccc;fill-opacity:1.0;fill-rule: evenodd"/>
<path id="Pad001_f0097"  d="M 25.95000000012073 -28.75000000000002 L 50.85000000008388 -28.75000000000002 L 50.85000000008388 -28.75000000000002 L 25.95000000012073 -28.75000000000002 L 25.95000000012073 -28.75000000000002 Z " stroke="#191919" stroke-width="0.35 px" style="stroke-width:0.35;stroke-miterlimit:4;stroke-dasharray:none;stroke-linecap:square;fill:#cccccc;fill-opacity:1.0;fill-rule: evenodd"/>
<path id="Pad001_f0098"  d="M 25.25000000012843 -10.050000000000015 L 0.3500000001111587 -10.050000000000015 L 0.350000000111159 -10.050000000000015 L 25.25000000012843 -10.050000000000015 L 25.25000000012843 -10.050000000000015 Z " stroke="#191919" stroke-width="0.35 px" style="stroke-width:0.35;stroke-miterlimit:4;stroke-dasharray:none;stroke-linecap:square;fill:#cccccc;fill-opacity:1.0;fill-rule: evenodd"/>
<path id="Pad001_f0099"  d="M 0.3500000001111587 -10.050000000000015 L 0.3500000001111587 -19.049999999974975 L 0.350000000111159 -19.049999999974975 L 0.350000000111159 -10.050000000000015 L 0.3500000001111587 -10.050000000000015 Z " stroke="#191919" stroke-width="0.35 px" style="stroke-width:0.35;stroke-miterlimit:4;stroke-dasharray:none;stroke-linecap:square;fill:#cccccc;fill-opacity:1.0;fill-rule: evenodd"/>
<path id="Pad001_f0100"  d="M 25.25000000012843 -19.049999999974975 L 25.25000000012843 -10.050000000000015 L 25.25000000012843 -10.050000000000015 L 25.25000000012843 -19.049999999974975 L 25.25000000012843 -19.049999999974975 Z " stroke="#191919" stroke-width="0.35 px" style="stroke-width:0.35;stroke-miterlimit:4;stroke-dasharray:none;stroke-linecap:square;fill:#cccccc;fill-opacity:1.0;fill-rule: evenodd"/>
<path id="Pad001_f0101"  d="M 0.3500000001111587 -19.049999999974975 L 25.25000000012843 -19.049999999974975 L 25.25000000012843 -19.049999999974975 L 0.350000000111159 -19.049999999974975 L 0.3500000001111587 -19.049999999974975 Z " stroke="#191919" stroke-width="0.35 px" style="stroke-width:0.35;stroke-miterlimit:4;stroke-dasharray:none;stroke-linecap:square;fill:#cccccc;fill-opacity:1.0;fill-rule: evenodd"/>
<path id="Pad001_f0102"  d="M 25.24999999998214 -0.3500000000000103 L 0.3500000000113168 -0.3500000000000103 L 0.350000000011317 -0.35000000000001 L 25.24999999998214 -0.35000000000001 L 25.24999999998214 -0.3500000000000103 Z " stroke="#191919" stroke-width="0.35 px" style="stroke-width:0.35;stroke-miterlimit:4;stroke-dasharray:none;stroke-linecap:square;fill:#cccccc;fill-opacity:1.0;fill-rule: evenodd"/>
<path id="Pad001_f0103"  d="M 0.3500000000113168 -0.3500000000000103 L 0.3500000000113168 -9.349999999979529 L 0.350000000011317 -9.349999999979529 L 0.350000000011317 -0.35000000000001 L 0.3500000000113168 -0.3500000000000103 Z " stroke="#191919" stroke-width="0.35 px" style="stroke-width:0.35;stroke-miterlimit:4;stroke-dasharray:none;stroke-linecap:square;fill:#cccccc;fill-opacity:1.0;fill-rule: evenodd"/>
<path id="Pad001_f0104"  d="M 25.24999999998214 -9.349999999979529 L 25.24999999998214 -0.3500000000000103 L 25.24999999998214 -0.35000000000001 L 25.24999999998214 -9.349999999979529 L 25.24999999998214 -9.349999999979529 Z " stroke="#191919" stroke-width="0.35 px" style="stroke-width:0.35;stroke-miterlimit:4;stroke-dasharray:none;stroke-linecap:square;fill:#cccccc;fill-opacity:1.0;fill-rule: evenodd"/>
<path id="Pad001_f0105"  d="M 0.3500000000113168 -9.349999999979529 L 25.24999999998214 -9.349999999979529 L 25.24999999998214 -9.349999999979529 L 0.350000000011317 -9.349999999979529 L 0.3500000000113168 -9.349999999979529 Z " stroke="#191919" stroke-width="0.35 px" style="stroke-width:0.35;stroke-miterlimit:4;stroke-dasharray:none;stroke-linecap:square;fill:#cccccc;fill-opacity:1.0;fill-rule: evenodd"/>
<path id="Pad001_f0106"  d="M 50.85000000009428 -10.050000000000015 L 25.95000000012843 -10.050000000000015 L 25.95000000012843 -10.050000000000015 L 50.85000000009428 -10.050000000000015 L 50.85000000009428 -10.050000000000015 Z " stroke="#191919" stroke-width="0.35 px" style="stroke-width:0.35;stroke-miterlimit:4;stroke-dasharray:none;stroke-linecap:square;fill:#cccccc;fill-opacity:1.0;fill-rule: evenodd"/>
<path id="Pad001_f0107"  d="M 25.95000000012843 -10.050000000000015 L 25.95000000012843 -19.05000000000002 L 25.95000000012843 -19.05000000000002 L 25.95000000012843 -10.050000000000015 L 25.95000000012843 -10.050000000000015 Z " stroke="#191919" stroke-width="0.35 px" style="stroke-width:0.35;stroke-miterlimit:4;stroke-dasharray:none;stroke-linecap:square;fill:#cccccc;fill-opacity:1.0;fill-rule: evenodd"/>
<path id="Pad001_f0108"  d="M 50.85000000009428 -19.05000000000002 L 50.85000000009428 -10.050000000000015 L 50.85000000009428 -10.050000000000015 L 50.85000000009428 -19.05000000000002 L 50.85000000009428 -19.05000000000002 Z " stroke="#191919" stroke-width="0.35 px" style="stroke-width:0.35;stroke-miterlimit:4;stroke-dasharray:none;stroke-linecap:square;fill:#cccccc;fill-opacity:1.0;fill-rule: evenodd"/>
<path id="Pad001_f0109"  d="M 25.95000000012843 -19.05000000000002 L 50.85000000009428 -19.05000000000002 L 50.85000000009428 -19.05000000000002 L 25.95000000012843 -19.05000000000002 L 25.95000000012843 -19.05000000000002 Z " stroke="#191919" stroke-width="0.35 px" style="stroke-width:0.35;stroke-miterlimit:4;stroke-dasharray:none;stroke-linecap:square;fill:#cccccc;fill-opacity:1.0;fill-rule: evenodd"/>
<path id="Pad001_f0110"  d="M 50.849999999901925 -0.3500000000000103 L 25.94999999998214 -0.3500000000000103 L 25.94999999998214 -0.35000000000001 L 50.849999999901925 -0.35000000000001 L 50.849999999901925 -0.3500000000000103 Z " stroke="#191919" stroke-width="0.35 px" style="stroke-width:0.35;stroke-miterlimit:4;stroke-dasharray:none;stroke-linecap:square;fill:#cccccc;fill-opacity:1.0;fill-rule: evenodd"/>
<path id="Pad001_f0111"  d="M 25.94999999998214 -0.3500000000000103 L 25.94999999998214 -9.350000000000016 L 25.94999999998214 -9.350000000000016 L 25.94999999998214 -0.35000000000001 L 25.94999999998214 -0.3500000000000103 Z " stroke="#191919" stroke-width="0.35 px" style="stroke-width:0.35;stroke-miterlimit:4;stroke-dasharray:none;stroke-linecap:square;fill:#cccccc;fill-opacity:1.0;fill-rule: evenodd"/>
<path id="Pad001_f0112"  d="M 50.849999999901925 -9.350000000000016 L 50.849999999901925 -0.3500000000000103 L 50.849999999901925 -0.35000000000001 L 50.849999999901925 -9.350000000000016 L 50.849999999901925 -9.350000000000016 Z " stroke="#191919" stroke-width="0.35 px" style="stroke-width:0.35;stroke-miterlimit:4;stroke-dasharray:none;stroke-linecap:square;fill:#cccccc;fill-opacity:1.0;fill-rule: evenodd"/>
<path id="Pad001_f0113"  d="M 25.94999999998214 -9.350000000000016 L 50.849999999901925 -9.350000000000016 L 50.849999999901925 -9.350000000000016 L 25.94999999998214 -9.350000000000016 L 25.94999999998214 -9.350000000000016 Z " stroke="#191919" stroke-width="0.35 px" style="stroke-width:0.35;stroke-miterlimit:4;stroke-dasharray:none;stroke-linecap:square;fill:#cccccc;fill-opacity:1.0;fill-rule: evenodd"/>
<path id="Pad001_f0114"  d="M -25.9499999999982 9.349999999999993 L -50.85 9.349999999999993 L -50.85 9.349999999999993 L -25.9499999999982 9.349999999999993 L -25.9499999999982 9.349999999999993 Z " stroke="#191919" stroke-width="0.35 px" style="stroke-width:0.35;stroke-miterlimit:4;stroke-dasharray:none;stroke-linecap:square;fill:#cccccc;fill-opacity:1.0;fill-rule: evenodd"/>
<path id="Pad001_f0115"  d="M -50.85 9.349999999999993 L -50.85 0.349999999999989 L -50.85 0.349999999999989 L -50.85 9.349999999999993 L -50.85 9.349999999999993 Z " stroke="#191919" stroke-width="0.35 px" style="stroke-width:0.35;stroke-miterlimit:4;stroke-dasharray:none;stroke-linecap:square;fill:#cccccc;fill-opacity:1.0;fill-rule: evenodd"/>
<path id="Pad001_f0116"  d="M -25.9499999999982 0.349999999999989 L -25.9499999999982 9.349999999999993 L -25.9499999999982 9.349999999999993 L -25.9499999999982 0.349999999999989 L -25.9499999999982 0.349999999999989 Z " stroke="#191919" stroke-width="0.35 px" style="stroke-width:0.35;stroke-miterlimit:4;stroke-dasharray:none;stroke-linecap:square;fill:#cccccc;fill-opacity:1.0;fill-rule: evenodd"/>
<path id="Pad001_f0117"  d="M -50.85 0.349999999999989 L -25.9499999999982 0.349999999999989 L -25.9499999999982 0.349999999999989 L -50.85 0.349999999999989 L -50.85 0.349999999999989 Z " stroke="#191919" stroke-width="0.35 px" style="stroke-width:0.35;stroke-miterlimit:4;stroke-dasharray:none;stroke-linecap:square;fill:#cccccc;fill-opacity:1.0;fill-rule: evenodd"/>
<path id="Pad001_f0118"  d="M -25.95000000000031 19.049999999999997 L -50.85 19.049999999999997 L -50.85 19.049999999999997 L -25.95000000000031 19.049999999999997 L -25.95000000000031 19.049999999999997 Z " stroke="#191919" stroke-width="0.35 px" style="stroke-width:0.35;stroke-miterlimit:4;stroke-dasharray:none;stroke-linecap:square;fill:#cccccc;fill-opacity:1.0;fill-rule: evenodd"/>
<path id="Pad001_f0119"  d="M -50.85 19.049999999999997 L -50.85 10.049999999999992 L -50.85 10.049999999999992 L -50.85 19.049999999999997 L -50.85 19.049999999999997 Z " stroke="#191919" stroke-width="0.35 px" style="stroke-width:0.35;stroke-miterlimit:4;stroke-dasharray:none;stroke-linecap:square;fill:#cccccc;fill-opacity:1.0;fill-rule: evenodd"/>
<path id="Pad001_f0120"  d="M -25.95000000000031 10.049999999999992 L -25.95000000000031 19.049999999999997 L -25.95000000000031 19.049999999999997 L -25.95000000000031 10.049999999999992 L -25.95000000000031 10.049999999999992 Z " stroke="#191919" stroke-width="0.35 px" style="stroke-width:0.35;stroke-miterlimit:4;stroke-dasharray:none;stroke-linecap:square;fill:#cccccc;fill-opacity:1.0;fill-rule: evenodd"/>
<path id="Pad001_f0121"  d="M -50.85 10.049999999999992 L -25.95000000000031 10.049999999999992 L -25.95000000000031 10.049999999999992 L -50.85 10.049999999999992 L -50.85 10.049999999999992 Z " stroke="#191919" stroke-width="0.35 px" style="stroke-width:0.35;stroke-miterlimit:4;stroke-dasharray:none;stroke-linecap:square;fill:#cccccc;fill-opacity:1.0;fill-rule: evenodd"/>
<path id="Pad001_f0122"  d="M -0.35000000000199094 9.349999999999993 L -25.249999999998202 9.349999999999993 L -25.249999999998202 9.349999999999993 L -0.35000000000199 9.349999999999993 L -0.3500000000019903 9.349999999999993 Z " stroke="#191919" stroke-width="0.35 px" style="stroke-width:0.35;stroke-miterlimit:4;stroke-dasharray:none;stroke-linecap:square;fill:#cccccc;fill-opacity:1.0;fill-rule: evenodd"/>
<path id="Pad001_f0123"  d="M -25.249999999998202 9.349999999999993 L -25.249999999998202 0.3499999999979693 L -25.249999999998202 0.349999999997969 L -25.249999999998202 9.349999999999993 L -25.249999999998202 9.349999999999993 Z " stroke="#191919" stroke-width="0.35 px" style="stroke-width:0.35;stroke-miterlimit:4;stroke-dasharray:none;stroke-linecap:square;fill:#cccccc;fill-opacity:1.0;fill-rule: evenodd"/>
<path id="Pad001_f0124"  d="M -0.3500000000019896 0.34999999999796927 L -0.3500000000019896 9.349999999999993 L -0.35000000000199 9.349999999999993 L -0.35000000000199 0.349999999997969 L -0.3500000000019896 0.34999999999796927 Z " stroke="#191919" stroke-width="0.35 px" style="stroke-width:0.35;stroke-miterlimit:4;stroke-dasharray:none;stroke-linecap:square;fill:#cccccc;fill-opacity:1.0;fill-rule: evenodd"/>
<path id="Pad001_f0125"  d="M -25.249999999998202 0.3499999999979693 L -0.3500000000019896 0.3499999999979693 L -0.35000000000199 0.349999999997969 L -25.249999999998202 0.349999999997969 L -25.249999999998202 0.3499999999979693 Z " stroke="#191919" stroke-width="0.35 px" style="stroke-width:0.35;stroke-miterlimit:4;stroke-dasharray:none;stroke-linecap:square;fill:#cccccc;fill-opacity:1.0;fill-rule: evenodd"/>
<path id="Pad001_f0126"  d="M -0.3500000000006196 19.049999999999997 L -25.250000000000306 19.049999999999997 L -25.250000000000306 19.049999999999997 L -0.350000000000619 19.049999999999997 L -0.35000000000061926 19.049999999999997 Z " stroke="#191919" stroke-width="0.35 px" style="stroke-width:0.35;stroke-miterlimit:4;stroke-dasharray:none;stroke-linecap:square;fill:#cccccc;fill-opacity:1.0;fill-rule: evenodd"/>
<path id="Pad001_f0127"  d="M -25.250000000000306 19.049999999999997 L -25.250000000000306 10.049999999999809 L -25.250000000000306 10.049999999999809 L -25.250000000000306 19.049999999999997 L -25.250000000000306 19.049999999999997 Z " stroke="#191919" stroke-width="0.35 px" style="stroke-width:0.35;stroke-miterlimit:4;stroke-dasharray:none;stroke-linecap:square;fill:#cccccc;fill-opacity:1.0;fill-rule: evenodd"/>
<path id="Pad001_f0128"  d="M -0.3500000000006189 10.049999999999809 L -0.3500000000006189 19.049999999999997 L -0.350000000000619 19.049999999999997 L -0.350000000000619 10.049999999999809 L -0.3500000000006189 10.049999999999809 Z " stroke="#191919" stroke-width="0.35 px" style="stroke-width:0.35;stroke-miterlimit:4;stroke-dasharray:none;stroke-linecap:square;fill:#cccccc;fill-opacity:1.0;fill-rule: evenodd"/>
<path id="Pad001_f0129"  d="M -25.250000000000306 10.049999999999809 L -0.3500000000006189 10.049999999999809 L -0.350000000000619 10.049999999999809 L -25.250000000000306 10.049999999999809 L -25.250000000000306 10.049999999999809 Z " stroke="#191919" stroke-width="0.35 px" style="stroke-width:0.35;stroke-miterlimit:4;stroke-dasharray:none;stroke-linecap:square;fill:#cccccc;fill-opacity:1.0;fill-rule: evenodd"/>
<path id="Pad001_f0130"  d="M -25.949999999998635 28.75 L -50.85 28.75 L -50.85 28.75 L -25.949999999998635 28.75 L -25.949999999998635 28.75 Z " stroke="#191919" stroke-width="0.35 px" style="stroke-width:0.35;stroke-miterlimit:4;stroke-dasharray:none;stroke-linecap:square;fill:#cccccc;fill-opacity:1.0;fill-rule: evenodd"/>
<path id="Pad001_f0131"  d="M -50.85 28.75 L -50.85 19.749999999999996 L -50.85 19.749999999999996 L -50.85 28.75 L -50.85 28.75 Z " stroke="#191919" stroke-width="0.35 px" style="stroke-width:0.35;stroke-miterlimit:4;stroke-dasharray:none;stroke-linecap:square;fill:#cccccc;fill-opacity:1.0;fill-rule: evenodd"/>
<path id="Pad001_f0132"  d="M -25.949999999998635 19.749999999999996 L -25.949999999998635 28.75 L -25.949999999998635 28.75 L -25.949999999998635 19.749999999999996 L -25.949999999998635 19.749999999999996 Z " stroke="#191919" stroke-width="0.35 px" style="stroke-width:0.35;stroke-miterlimit:4;stroke-dasharray:none;stroke-linecap:square;fill:#cccccc;fill-opacity:1.0;fill-rule: evenodd"/>
<path id="Pad001_f0133"  d="M -50.85 19.749999999999996 L -25.949999999998635 19.749999999999996 L -25.949999999998635 19.749999999999996 L -50.85 19.749999999999996 L -50.85 19.749999999999996 Z " stroke="#191919" stroke-width="0.35 px" style="stroke-width:0.35;stroke-miterlimit:4;stroke-dasharray:none;stroke-linecap:square;fill:#cccccc;fill-opacity:1.0;fill-rule: evenodd"/>
<path id="Pad001_f0134"  d="M -25.95 38.45 L -50.85 38.45 L -50.85 38.45 L -25.95 38.45 L -25.95 38.45 Z " stroke="#191919" stroke-width="0.35 px" style="stroke-width:0.35;stroke-miterlimit:4;stroke-dasharray:none;stroke-linecap:square;fill:#cccccc;fill-opacity:1.0;fill-rule: evenodd"/>
<path id="Pad001_f0135"  d="M -50.85 38.45 L -50.85 29.45 L -50.85 29.45 L -50.85 38.45 L -50.85 38.45 Z " stroke="#191919" stroke-width="0.35 px" style="stroke-width:0.35;stroke-miterlimit:4;stroke-dasharray:none;stroke-linecap:square;fill:#cccccc;fill-opacity:1.0;fill-rule: evenodd"/>
<path id="Pad001_f0136"  d="M -25.95 29.45 L -25.95 38.45 L -25.95 38.45 L -25.95 29.45 L -25.95 29.45 Z " stroke="#191919" stroke-width="0.35 px" style="stroke-width:0.35;stroke-miterlimit:4;stroke-dasharray:none;stroke-linecap:square;fill:#cccccc;fill-opacity:1.0;fill-rule: evenodd"/>
<path id="Pad001_f0137"  d="M -50.85 29.45 L -25.95 29.45 L -25.95 29.45 L -50.85 29.45 L -50.85 29.45 Z " stroke="#191919" stroke-width="0.35 px" style="stroke-width:0.35;stroke-miterlimit:4;stroke-dasharray:none;stroke-linecap:square;fill:#cccccc;fill-opacity:1.0;fill-rule: evenodd"/>
<path id="Pad001_f0138"  d="M -0.3499999999968644 28.75 L -25.249999999998636 28.75 L -25.249999999998636 28.75 L -0.349999999996865 28.75 L -0.3499999999968646 28.75 Z " stroke="#191919" stroke-width="0.35 px" style="stroke-width:0.35;stroke-miterlimit:4;stroke-dasharray:none;stroke-linecap:square;fill:#cccccc;fill-opacity:1.0;fill-rule: evenodd"/>
<path id="Pad001_f0139"  d="M -25.249999999998636 28.75 L -25.249999999998636 19.74999999999718 L -25.249999999998636 19.74999999999718 L -25.249999999998636 28.75 L -25.249999999998636 28.75 Z " stroke="#191919" stroke-width="0.35 px" style="stroke-width:0.35;stroke-miterlimit:4;stroke-dasharray:none;stroke-linecap:square;fill:#cccccc;fill-opacity:1.0;fill-rule: evenodd"/>
<path id="Pad001_f0140"  d="M -0.3499999999968649 19.74999999999718 L -0.3499999999968649 28.75 L -0.349999999996865 28.75 L -0.349999999996865 19.74999999999718 L -0.3499999999968649 19.74999999999718 Z " stroke="#191919" stroke-width="0.35 px" style="stroke-width:0.35;stroke-miterlimit:4;stroke-dasharray:none;stroke-linecap:square;fill:#cccccc;fill-opacity:1.0;fill-rule: evenodd"/>
<path id="Pad001_f0141"  d="M -25.249999999998636 19.74999999999718 L -0.3499999999968649 19.74999999999718 L -0.349999999996865 19.74999999999718 L -25.249999999998636 19.74999999999718 L -25.249999999998636 19.74999999999718 Z " stroke="#191919" stroke-width="0.35 px" style="stroke-width:0.35;stroke-miterlimit:4;stroke-dasharray:none;stroke-linecap:square;fill:#cccccc;fill-opacity:1.0;fill-rule: evenodd"/>
<path id="Pad001_f0142"  d="M -0.3499999999981327 38.45 L -25.25 38.45 L -25.25 38.45 L -0.349999999998132 38.45 L -0.349999999998132 38.45 Z " stroke="#191919" stroke-width="0.35 px" style="stroke-width:0.35;stroke-miterlimit:4;stroke-dasharray:none;stroke-linecap:square;fill:#cccccc;fill-opacity:1.0;fill-rule: evenodd"/>
<path id="Pad001_f0143"  d="M -25.25 38.45 L -25.25 29.45000000000049 L -25.25 29.45000000000049 L -25.25 38.45 L -25.25 38.45 Z " stroke="#191919" stroke-width="0.35 px" style="stroke-width:0.35;stroke-miterlimit:4;stroke-dasharray:none;stroke-linecap:square;fill:#cccccc;fill-opacity:1.0;fill-rule: evenodd"/>
<path id="Pad001_f0144"  d="M -0.3499999999981313 29.45000000000049 L -0.3499999999981313 38.45 L -0.349999999998132 38.45 L -0.349999999998131 29.45000000000049 L -0.3499999999981313 29.45000000000049 Z " stroke="#191919" stroke-width="0.35 px" style="stroke-width:0.35;stroke-miterlimit:4;stroke-dasharray:none;stroke-linecap:square;fill:#cccccc;fill-opacity:1.0;fill-rule: evenodd"/>
<path id="Pad001_f0145"  d="M -25.25 29.45000000000049 L -0.3499999999981313 29.45000000000049 L -0.349999999998131 29.45000000000049 L -25.25 29.45000000000049 L -25.25 29.45000000000049 Z " stroke="#191919" stroke-width="0.35 px" style="stroke-width:0.35;stroke-miterlimit:4;stroke-dasharray:none;stroke-linecap:square;fill:#cccccc;fill-opacity:1.0;fill-rule: evenodd"/>
<path id="Pad001_f0146"  d="M 25.249999999996323 9.349999999999993 L 0.3500000000000298 9.349999999999993 L 0.35000000000003 9.349999999999993 L 25.249999999996323 9.349999999999993 L 25.249999999996323 9.349999999999993 Z " stroke="#191919" stroke-width="0.35 px" style="stroke-width:0.35;stroke-miterlimit:4;stroke-dasharray:none;stroke-linecap:square;fill:#cccccc;fill-opacity:1.0;fill-rule: evenodd"/>
<path id="Pad001_f0147"  d="M 0.3500000000000298 9.349999999999993 L 0.3500000000000298 0.3500000000020087 L 0.35000000000003 0.350000000002009 L 0.35000000000003 9.349999999999993 L 0.3500000000000298 9.349999999999993 Z " stroke="#191919" stroke-width="0.35 px" style="stroke-width:0.35;stroke-miterlimit:4;stroke-dasharray:none;stroke-linecap:square;fill:#cccccc;fill-opacity:1.0;fill-rule: evenodd"/>
<path id="Pad001_f0148"  d="M 25.249999999996323 0.3500000000020087 L 25.249999999996323 9.349999999999993 L 25.249999999996323 9.349999999999993 L 25.249999999996323 0.350000000002009 L 25.249999999996323 0.3500000000020087 Z " stroke="#191919" stroke-width="0.35 px" style="stroke-width:0.35;stroke-miterlimit:4;stroke-dasharray:none;stroke-linecap:square;fill:#cccccc;fill-opacity:1.0;fill-rule: evenodd"/>
<path id="Pad001_f0149"  d="M 0.35000000000002984 0.3500000000020087 L 25.249999999996323 0.3500000000020087 L 25.249999999996323 0.350000000002009 L 0.35000000000003 0.350000000002009 L 0.35000000000002984 0.3500000000020087 Z " stroke="#191919" stroke-width="0.35 px" style="stroke-width:0.35;stroke-miterlimit:4;stroke-dasharray:none;stroke-linecap:square;fill:#cccccc;fill-opacity:1.0;fill-rule: evenodd"/>
<path id="Pad001_f0150"  d="M 25.249999999999247 19.049999999999997 L 0.34999999999956444 19.049999999999997 L 0.349999999999564 19.049999999999997 L 25.249999999999247 19.049999999999997 L 25.249999999999247 19.049999999999997 Z " stroke="#191919" stroke-width="0.35 px" style="stroke-width:0.35;stroke-miterlimit:4;stroke-dasharray:none;stroke-linecap:square;fill:#cccccc;fill-opacity:1.0;fill-rule: evenodd"/>
<path id="Pad001_f0151"  d="M 0.34999999999956444 19.049999999999997 L 0.34999999999956444 10.050000000000175 L 0.349999999999564 10.050000000000175 L 0.349999999999564 19.049999999999997 L 0.34999999999956444 19.049999999999997 Z " stroke="#191919" stroke-width="0.35 px" style="stroke-width:0.35;stroke-miterlimit:4;stroke-dasharray:none;stroke-linecap:square;fill:#cccccc;fill-opacity:1.0;fill-rule: evenodd"/>
<path id="Pad001_f0152"  d="M 25.249999999999247 10.050000000000175 L 25.249999999999247 19.049999999999997 L 25.249999999999247 19.049999999999997 L 25.249999999999247 10.050000000000175 L 25.249999999999247 10.050000000000175 Z " stroke="#191919" stroke-width="0.35 px" style="stroke-width:0.35;stroke-miterlimit:4;stroke-dasharray:none;stroke-linecap:square;fill:#cccccc;fill-opacity:1.0;fill-rule: evenodd"/>
<path id="Pad001_f0153"  d="M 0.34999999999956444 10.050000000000175 L 25.249999999999247 10.050000000000175 L 25.249999999999247 10.050000000000175 L 0.349999999999564 10.050000000000175 L 0.34999999999956444 10.050000000000175 Z " stroke="#191919" stroke-width="0.35 px" style="stroke-width:0.35;stroke-miterlimit:4;stroke-dasharray:none;stroke-linecap:square;fill:#cccccc;fill-opacity:1.0;fill-rule: evenodd"/>
<path id="Pad001_f0154"  d="M 50.8499999999916 9.349999999999993 L 25.949999999996326 9.349999999999993 L 25.949999999996326 9.349999999999993 L 50.8499999999916 9.349999999999993 L 50.8499999999916 9.349999999999993 Z " stroke="#191919" stroke-width="0.35 px" style="stroke-width:0.35;stroke-miterlimit:4;stroke-dasharray:none;stroke-linecap:square;fill:#cccccc;fill-opacity:1.0;fill-rule: evenodd"/>
<path id="Pad001_f0155"  d="M 25.949999999996326 9.349999999999993 L 25.949999999996326 0.349999999999989 L 25.949999999996326 0.349999999999989 L 25.949999999996326 9.349999999999993 L 25.949999999996326 9.349999999999993 Z " stroke="#191919" stroke-width="0.35 px" style="stroke-width:0.35;stroke-miterlimit:4;stroke-dasharray:none;stroke-linecap:square;fill:#cccccc;fill-opacity:1.0;fill-rule: evenodd"/>
<path id="Pad001_f0156"  d="M 50.8499999999916 0.349999999999989 L 50.8499999999916 9.349999999999993 L 50.8499999999916 9.349999999999993 L 50.8499999999916 0.349999999999989 L 50.8499999999916 0.349999999999989 Z " stroke="#191919" stroke-width="0.35 px" style="stroke-width:0.35;stroke-miterlimit:4;stroke-dasharray:none;stroke-linecap:square;fill:#cccccc;fill-opacity:1.0;fill-rule: evenodd"/>
<path id="Pad001_f0157"  d="M 25.949999999996326 0.349999999999989 L 50.8499999999916 0.349999999999989 L 50.8499999999916 0.349999999999989 L 25.949999999996326 0.349999999999989 L 25.949999999996326 0.349999999999989 Z " stroke="#191919" stroke-width="0.35 px" style="stroke-width:0.35;stroke-miterlimit:4;stroke-dasharray:none;stroke-linecap:square;fill:#cccccc;fill-opacity:1.0;fill-rule: evenodd"/>
<path id="Pad001_f0158"  d="M 50.84999999999901 19.049999999999997 L 25.949999999999246 19.049999999999997 L 25.949999999999246 19.049999999999997 L 50.84999999999901 19.049999999999997 L 50.84999999999901 19.049999999999997 Z " stroke="#191919" stroke-width="0.35 px" style="stroke-width:0.35;stroke-miterlimit:4;stroke-dasharray:none;stroke-linecap:square;fill:#cccccc;fill-opacity:1.0;fill-rule: evenodd"/>
<path id="Pad001_f0159"  d="M 25.949999999999246 19.049999999999997 L 25.949999999999246 10.049999999999992 L 25.949999999999246 10.049999999999992 L 25.949999999999246 19.049999999999997 L 25.949999999999246 19.049999999999997 Z " stroke="#191919" stroke-width="0.35 px" style="stroke-width:0.35;stroke-miterlimit:4;stroke-dasharray:none;stroke-linecap:square;fill:#cccccc;fill-opacity:1.0;fill-rule: evenodd"/>
<path id="Pad001_f0160"  d="M 50.84999999999901 10.049999999999992 L 50.84999999999901 19.049999999999997 L 50.84999999999901 19.049999999999997 L 50.84999999999901 10.049999999999992 L 50.84999999999901 10.049999999999992 Z " stroke="#191919" stroke-width="0.35 px" style="stroke-width:0.35;stroke-miterlimit:4;stroke-dasharray:none;stroke-linecap:square;fill:#cccccc;fill-opacity:1.0;fill-rule: evenodd"/>
<path id="Pad001_f0161"  d="M 25.949999999999246 10.049999999999992 L 50.84999999999901 10.049999999999992 L 50.84999999999901 10.049999999999992 L 25.949999999999246 10.049999999999992 L 25.949999999999246 10.049999999999992 Z " stroke="#191919" stroke-width="0.35 px" style="stroke-width:0.35;stroke-miterlimit:4;stroke-dasharray:none;stroke-linecap:square;fill:#cccccc;fill-opacity:1.0;fill-rule: evenodd"/>
<path id="Pad001_f0162"  d="M 25.25000000000772 28.75 L 0.35000000000595216 28.75 L 0.350000000005952 28.75 L 25.25000000000772 28.75 L 25.25000000000772 28.75 Z " stroke="#191919" stroke-width="0.35 px" style="stroke-width:0.35;stroke-miterlimit:4;stroke-dasharray:none;stroke-linecap:square;fill:#cccccc;fill-opacity:1.0;fill-rule: evenodd"/>
<path id="Pad001_f0163"  d="M 0.35000000000595216 28.75 L 0.35000000000595216 19.750000000002814 L 0.350000000005952 19.750000000002814 L 0.350000000005952 28.75 L 0.35000000000595216 28.75 Z " stroke="#191919" stroke-width="0.35 px" style="stroke-width:0.35;stroke-miterlimit:4;stroke-dasharray:none;stroke-linecap:square;fill:#cccccc;fill-opacity:1.0;fill-rule: evenodd"/>
<path id="Pad001_f0164"  d="M 25.25000000000772 19.750000000002814 L 25.25000000000772 28.75 L 25.25000000000772 28.75 L 25.25000000000772 19.750000000002814 L 25.25000000000772 19.750000000002814 Z " stroke="#191919" stroke-width="0.35 px" style="stroke-width:0.35;stroke-miterlimit:4;stroke-dasharray:none;stroke-linecap:square;fill:#cccccc;fill-opacity:1.0;fill-rule: evenodd"/>
<path id="Pad001_f0165"  d="M 0.3500000000059522 19.750000000002814 L 25.25000000000772 19.750000000002814 L 25.25000000000772 19.750000000002814 L 0.350000000005952 19.750000000002814 L 0.3500000000059522 19.750000000002814 Z " stroke="#191919" stroke-width="0.35 px" style="stroke-width:0.35;stroke-miterlimit:4;stroke-dasharray:none;stroke-linecap:square;fill:#cccccc;fill-opacity:1.0;fill-rule: evenodd"/>
<path id="Pad001_f0166"  d="M 25.250000000003187 38.45 L 0.3500000000013764 38.45 L 0.350000000001376 38.45 L 25.250000000003187 38.45 L 25.250000000003187 38.45 Z " stroke="#191919" stroke-width="0.35 px" style="stroke-width:0.35;stroke-miterlimit:4;stroke-dasharray:none;stroke-linecap:square;fill:#cccccc;fill-opacity:1.0;fill-rule: evenodd"/>
<path id="Pad001_f0167"  d="M 0.3500000000013764 38.45 L 0.3500000000013764 29.44999999999951 L 0.350000000001376 29.44999999999951 L 0.350000000001376 38.45 L 0.3500000000013764 38.45 Z " stroke="#191919" stroke-width="0.35 px" style="stroke-width:0.35;stroke-miterlimit:4;stroke-dasharray:none;stroke-linecap:square;fill:#cccccc;fill-opacity:1.0;fill-rule: evenodd"/>
<path id="Pad001_f0168"  d="M 25.250000000003187 29.44999999999951 L 25.250000000003187 38.45 L 25.250000000003187 38.45 L 25.250000000003187 29.44999999999951 L 25.250000000003187 29.44999999999951 Z " stroke="#191919" stroke-width="0.35 px" style="stroke-width:0.35;stroke-miterlimit:4;stroke-dasharray:none;stroke-linecap:square;fill:#cccccc;fill-opacity:1.0;fill-rule: evenodd"/>
<path id="Pad001_f0169"  d="M 0.3500000000013763 29.44999999999951 L 25.250000000003187 29.44999999999951 L 25.250000000003187 29.44999999999951 L 0.350000000001376 29.44999999999951 L 0.3500000000013763 29.44999999999951 Z " stroke="#191919" stroke-width="0.35 px" style="stroke-width:0.35;stroke-miterlimit:4;stroke-dasharray:none;stroke-linecap:square;fill:#cccccc;fill-opacity:1.0;fill-rule: evenodd"/>
<path id="Pad001_f0170"  d="M 50.85000000000959 28.75 L 25.950000000007723 28.75 L 25.950000000007723 28.75 L 50.85000000000959 28.75 L 50.85000000000959 28.75 Z " stroke="#191919" stroke-width="0.35 px" style="stroke-width:0.35;stroke-miterlimit:4;stroke-dasharray:none;stroke-linecap:square;fill:#cccccc;fill-opacity:1.0;fill-rule: evenodd"/>
<path id="Pad001_f0171"  d="M 25.950000000007723 28.75 L 25.950000000007723 19.749999999999996 L 25.950000000007723 19.749999999999996 L 25.950000000007723 28.75 L 25.950000000007723 28.75 Z " stroke="#191919" stroke-width="0.35 px" style="stroke-width:0.35;stroke-miterlimit:4;stroke-dasharray:none;stroke-linecap:square;fill:#cccccc;fill-opacity:1.0;fill-rule: evenodd"/>
<path id="Pad001_f0172"  d="M 50.85000000000959 19.749999999999996 L 50.85000000000959 28.75 L 50.85000000000959 28.75 L 50.85000000000959 19.749999999999996 L 50.85000000000959 19.749999999999996 Z " stroke="#191919" stroke-width="0.35 px" style="stroke-width:0.35;stroke-miterlimit:4;stroke-dasharray:none;stroke-linecap:square;fill:#cccccc;fill-opacity:1.0;fill-rule: evenodd"/>
<path id="Pad001_f0173"  d="M 25.950000000007723 19.749999999999996 L 50.85000000000959 19.749999999999996 L 50.85000000000959 19.749999999999996 L 25.950000000007723 19.749999999999996 L 25.950000000007723 19.749999999999996 Z " stroke="#191919" stroke-width="0.35 px" style="stroke-width:0.35;stroke-miterlimit:4;stroke-dasharray:none;stroke-linecap:square;fill:#cccccc;fill-opacity:1.0;fill-rule: evenodd"/>
<path id="Pad001_f0174"  d="M 50.850000000005416 38.45 L 25.95000000000319 38.45 L 25.95000000000319 38.45 L 50.850000000005416 38.45 L 50.850000000005416 38.45 Z " stroke="#191919" stroke-width="0.35 px" style="stroke-width:0.35;stroke-miterlimit:4;stroke-dasharray:none;stroke-linecap:square;fill:#cccccc;fill-opacity:1.0;fill-rule: evenodd"/>
<path id="Pad001_f0175"  d="M 25.95000000000319 38.45 L 25.95000000000319 29.45 L 25.95000000000319 29.45 L 25.95000000000319 38.45 L 25.95000000000319 38.45 Z " stroke="#191919" stroke-width="0.35 px" style="stroke-width:0.35;stroke-miterlimit:4;stroke-dasharray:none;stroke-linecap:square;fill:#cccccc;fill-opacity:1.0;fill-rule: evenodd"/>
<path id="Pad001_f0176"  d="M 50.850000000005416 29.45 L 50.850000000005416 38.45 L 50.850000000005416 38.45 L 50.850000000005416 29.45 L 50.850000000005416 29.45 Z " stroke="#191919" stroke-width="0.35 px" style="stroke-width:0.35;stroke-miterlimit:4;stroke-dasharray:none;stroke-linecap:square;fill:#cccccc;fill-opacity:1.0;fill-rule: evenodd"/>
<path id="Pad001_f0177"  d="M 25.95000000000319 29.45 L 50.850000000005416 29.45 L 50.850000000005416 29.45 L 25.95000000000319 29.45 L 25.95000000000319 29.45 Z " stroke="#191919" stroke-width="0.35 px" style="stroke-width:0.35;stroke-miterlimit:4;stroke-dasharray:none;stroke-linecap:square;fill:#cccccc;fill-opacity:1.0;fill-rule: evenodd"/>
<title>b'Grid'</title>
</g>
</svg>