M48
; DRILL file {KiCad 7.0.7-7.0.7~ubuntu20.04.1} date Mon 28 Aug 2023 21:56:26 CEST
; FORMAT={-:-/ absolute / metric / decimal}
; #@! TF.CreationDate,2023-08-28T21:56:26+02:00
; #@! TF.GenerationSoftware,Kicad,Pcbnew,7.0.7-7.0.7~ubuntu20.04.1
; #@! TF.FileFunction,Plated,1,2,PTH
FMAT,2
METRIC
; #@! TA.AperFunction,Plated,PTH,ComponentDrill
T1C0.900
%
G90
G05
T1
X-39.475Y33.65
X-39.475Y24.05
X-39.475Y14.45
X-39.475Y4.85
X-39.475Y-4.75
X-39.475Y-14.35
X-39.475Y-23.95
X-39.475Y-33.55
X-36.935Y33.65
X-36.935Y24.05
X-36.935Y14.45
X-36.935Y4.85
X-36.935Y-4.75
X-36.935Y-14.35
X-36.935Y-23.95
X-36.935Y-33.55
X-13.875Y33.65
X-13.875Y24.05
X-13.875Y14.45
X-13.875Y4.85
X-13.875Y-4.75
X-13.875Y-14.35
X-13.875Y-23.95
X-13.875Y-33.55
X-11.335Y33.65
X-11.335Y24.05
X-11.335Y14.45
X-11.335Y4.85
X-11.335Y-4.75
X-11.335Y-14.35
X-11.335Y-23.95
X-11.335Y-33.55
X11.725Y33.65
X11.725Y24.05
X11.725Y14.45
X11.725Y4.85
X11.725Y-4.75
X11.725Y-14.35
X11.725Y-23.95
X11.725Y-33.55
X14.265Y33.65
X14.265Y24.05
X14.265Y14.45
X14.265Y4.85
X14.265Y-4.75
X14.265Y-14.35
X14.265Y-23.95
X14.265Y-33.55
X37.325Y33.65
X37.325Y24.05
X37.325Y14.45
X37.325Y4.85
X37.325Y-4.75
X37.325Y-14.35
X37.325Y-23.95
X37.325Y-33.55
X39.865Y33.65
X39.865Y24.05
X39.865Y14.45
X39.865Y4.85
X39.865Y-4.75
X39.865Y-14.35
X39.865Y-23.95
X39.865Y-33.55
T0
M30
