%TF.GenerationSoftware,KiCad,Pcbnew,7.0.7-7.0.7~ubuntu20.04.1*%
%TF.CreationDate,2023-08-28T21:56:30+02:00*%
%TF.ProjectId,ledPCB,6c656450-4342-42e6-9b69-6361645f7063,rev?*%
%TF.SameCoordinates,PX8741bb8PY60eb478*%
%TF.FileFunction,Profile,NP*%
%FSLAX46Y46*%
G04 Gerber Fmt 4.6, Leading zero omitted, Abs format (unit mm)*
G04 Created by KiCad (PCBNEW 7.0.7-7.0.7~ubuntu20.04.1) date 2023-08-28 21:56:30*
%MOMM*%
%LPD*%
G01*
G04 APERTURE LIST*
%TA.AperFunction,Profile*%
%ADD10C,0.160000*%
%TD*%
G04 APERTURE END LIST*
D10*
X18711Y37620516D02*
X-50162578Y37620516D01*
X-50162578Y37620516D02*
X-50162578Y29184591D01*
X-50162578Y29184591D02*
X-42602728Y29184591D01*
X-42602728Y29184591D02*
X-42602728Y17315409D01*
X-42602728Y17315409D02*
X-50162578Y17315409D01*
X-50162578Y17315409D02*
X-50162578Y-17715409D01*
X-50162578Y-17715409D02*
X-42602728Y-17715409D01*
X-42602728Y-17715409D02*
X-42602728Y-29584591D01*
X-42602728Y-29584591D02*
X-50162578Y-29584591D01*
X-50162578Y-29584591D02*
X-50162578Y-38020516D01*
X-50162578Y-38020516D02*
X18711Y-38020516D01*
X50200000Y-38020516D02*
X18711Y-38020516D01*
X50200000Y-29584591D02*
X50200000Y-38020516D01*
X42640150Y-29584591D02*
X50200000Y-29584591D01*
X42640150Y-17715409D02*
X42640150Y-29584591D01*
X50200000Y-17715409D02*
X42640150Y-17715409D01*
X50200000Y17315409D02*
X50200000Y-17715409D01*
X42640150Y17315409D02*
X50200000Y17315409D01*
X42640150Y29184591D02*
X42640150Y17315409D01*
X50200000Y29184591D02*
X42640150Y29184591D01*
X50200000Y37620516D02*
X50200000Y29184591D01*
X18711Y37620516D02*
X50200000Y37620516D01*
M02*
