%TF.GenerationSoftware,KiCad,Pcbnew,7.0.7-7.0.7~ubuntu20.04.1*%
%TF.CreationDate,2023-08-28T21:56:30+02:00*%
%TF.ProjectId,ledPCB,6c656450-4342-42e6-9b69-6361645f7063,rev?*%
%TF.SameCoordinates,PX8741bb8PY60eb478*%
%TF.FileFunction,Copper,L2,Bot*%
%TF.FilePolarity,Positive*%
%FSLAX46Y46*%
G04 Gerber Fmt 4.6, Leading zero omitted, Abs format (unit mm)*
G04 Created by KiCad (PCBNEW 7.0.7-7.0.7~ubuntu20.04.1) date 2023-08-28 21:56:30*
%MOMM*%
%LPD*%
G01*
G04 APERTURE LIST*
%TA.AperFunction,ComponentPad*%
%ADD10R,1.800000X1.800000*%
%TD*%
%TA.AperFunction,ComponentPad*%
%ADD11C,1.800000*%
%TD*%
G04 APERTURE END LIST*
D10*
%TO.P,D18,1,K*%
%TO.N,GND*%
X-13875000Y-4750000D03*
D11*
%TO.P,D18,2,A*%
%TO.N,unconnected-(D18-A-Pad2)*%
X-11335000Y-4750000D03*
%TD*%
D10*
%TO.P,D31,1,K*%
%TO.N,GND*%
X11725000Y-33550000D03*
D11*
%TO.P,D31,2,A*%
%TO.N,unconnected-(D31-A-Pad2)*%
X14265000Y-33550000D03*
%TD*%
D10*
%TO.P,D26,1,K*%
%TO.N,GND*%
X-13875000Y-23950000D03*
D11*
%TO.P,D26,2,A*%
%TO.N,unconnected-(D26-A-Pad2)*%
X-11335000Y-23950000D03*
%TD*%
D10*
%TO.P,D28,1,K*%
%TO.N,GND*%
X37325000Y-23950000D03*
D11*
%TO.P,D28,2,A*%
%TO.N,unconnected-(D28-A-Pad2)*%
X39865000Y-23950000D03*
%TD*%
D10*
%TO.P,D1,1,K*%
%TO.N,GND*%
X-39475000Y33650000D03*
D11*
%TO.P,D1,2,A*%
%TO.N,unconnected-(D1-A-Pad2)*%
X-36935000Y33650000D03*
%TD*%
D10*
%TO.P,D21,1,K*%
%TO.N,GND*%
X-39475000Y-14350000D03*
D11*
%TO.P,D21,2,A*%
%TO.N,unconnected-(D21-A-Pad2)*%
X-36935000Y-14350000D03*
%TD*%
D10*
%TO.P,D13,1,K*%
%TO.N,GND*%
X-39475000Y4850000D03*
D11*
%TO.P,D13,2,A*%
%TO.N,unconnected-(D13-A-Pad2)*%
X-36935000Y4850000D03*
%TD*%
D10*
%TO.P,D15,1,K*%
%TO.N,GND*%
X11725000Y4850000D03*
D11*
%TO.P,D15,2,A*%
%TO.N,unconnected-(D15-A-Pad2)*%
X14265000Y4850000D03*
%TD*%
D10*
%TO.P,D9,1,K*%
%TO.N,GND*%
X-39475000Y14450000D03*
D11*
%TO.P,D9,2,A*%
%TO.N,unconnected-(D9-A-Pad2)*%
X-36935000Y14450000D03*
%TD*%
D10*
%TO.P,D10,1,K*%
%TO.N,GND*%
X-13875000Y14450000D03*
D11*
%TO.P,D10,2,A*%
%TO.N,unconnected-(D10-A-Pad2)*%
X-11335000Y14450000D03*
%TD*%
D10*
%TO.P,D24,1,K*%
%TO.N,GND*%
X37325000Y-14350000D03*
D11*
%TO.P,D24,2,A*%
%TO.N,unconnected-(D24-A-Pad2)*%
X39865000Y-14350000D03*
%TD*%
D10*
%TO.P,D6,1,K*%
%TO.N,GND*%
X-13875000Y24050000D03*
D11*
%TO.P,D6,2,A*%
%TO.N,unconnected-(D6-A-Pad2)*%
X-11335000Y24050000D03*
%TD*%
D10*
%TO.P,D4,1,K*%
%TO.N,GND*%
X37325000Y33650000D03*
D11*
%TO.P,D4,2,A*%
%TO.N,unconnected-(D4-A-Pad2)*%
X39865000Y33650000D03*
%TD*%
D10*
%TO.P,D27,1,K*%
%TO.N,GND*%
X11725000Y-23950000D03*
D11*
%TO.P,D27,2,A*%
%TO.N,unconnected-(D27-A-Pad2)*%
X14265000Y-23950000D03*
%TD*%
D10*
%TO.P,D30,1,K*%
%TO.N,GND*%
X-13875000Y-33550000D03*
D11*
%TO.P,D30,2,A*%
%TO.N,unconnected-(D30-A-Pad2)*%
X-11335000Y-33550000D03*
%TD*%
D10*
%TO.P,D19,1,K*%
%TO.N,GND*%
X11725000Y-4750000D03*
D11*
%TO.P,D19,2,A*%
%TO.N,unconnected-(D19-A-Pad2)*%
X14265000Y-4750000D03*
%TD*%
D10*
%TO.P,D20,1,K*%
%TO.N,GND*%
X37325000Y-4750000D03*
D11*
%TO.P,D20,2,A*%
%TO.N,unconnected-(D20-A-Pad2)*%
X39865000Y-4750000D03*
%TD*%
D10*
%TO.P,D22,1,K*%
%TO.N,GND*%
X-13875000Y-14350000D03*
D11*
%TO.P,D22,2,A*%
%TO.N,unconnected-(D22-A-Pad2)*%
X-11335000Y-14350000D03*
%TD*%
D10*
%TO.P,D12,1,K*%
%TO.N,GND*%
X37325000Y14450000D03*
D11*
%TO.P,D12,2,A*%
%TO.N,unconnected-(D12-A-Pad2)*%
X39865000Y14450000D03*
%TD*%
D10*
%TO.P,D11,1,K*%
%TO.N,GND*%
X11725000Y14450000D03*
D11*
%TO.P,D11,2,A*%
%TO.N,unconnected-(D11-A-Pad2)*%
X14265000Y14450000D03*
%TD*%
D10*
%TO.P,D7,1,K*%
%TO.N,GND*%
X11725000Y24050000D03*
D11*
%TO.P,D7,2,A*%
%TO.N,unconnected-(D7-A-Pad2)*%
X14265000Y24050000D03*
%TD*%
D10*
%TO.P,D25,1,K*%
%TO.N,GND*%
X-39475000Y-23950000D03*
D11*
%TO.P,D25,2,A*%
%TO.N,unconnected-(D25-A-Pad2)*%
X-36935000Y-23950000D03*
%TD*%
D10*
%TO.P,D8,1,K*%
%TO.N,GND*%
X37325000Y24050000D03*
D11*
%TO.P,D8,2,A*%
%TO.N,unconnected-(D8-A-Pad2)*%
X39865000Y24050000D03*
%TD*%
D10*
%TO.P,D17,1,K*%
%TO.N,GND*%
X-39475000Y-4750000D03*
D11*
%TO.P,D17,2,A*%
%TO.N,unconnected-(D17-A-Pad2)*%
X-36935000Y-4750000D03*
%TD*%
D10*
%TO.P,D14,1,K*%
%TO.N,GND*%
X-13875000Y4850000D03*
D11*
%TO.P,D14,2,A*%
%TO.N,unconnected-(D14-A-Pad2)*%
X-11335000Y4850000D03*
%TD*%
D10*
%TO.P,D29,1,K*%
%TO.N,GND*%
X-39475000Y-33550000D03*
D11*
%TO.P,D29,2,A*%
%TO.N,unconnected-(D29-A-Pad2)*%
X-36935000Y-33550000D03*
%TD*%
D10*
%TO.P,D16,1,K*%
%TO.N,GND*%
X37325000Y4850000D03*
D11*
%TO.P,D16,2,A*%
%TO.N,unconnected-(D16-A-Pad2)*%
X39865000Y4850000D03*
%TD*%
D10*
%TO.P,D2,1,K*%
%TO.N,GND*%
X-13875000Y33650000D03*
D11*
%TO.P,D2,2,A*%
%TO.N,unconnected-(D2-A-Pad2)*%
X-11335000Y33650000D03*
%TD*%
D10*
%TO.P,D23,1,K*%
%TO.N,GND*%
X11725000Y-14350000D03*
D11*
%TO.P,D23,2,A*%
%TO.N,unconnected-(D23-A-Pad2)*%
X14265000Y-14350000D03*
%TD*%
D10*
%TO.P,D3,1,K*%
%TO.N,GND*%
X11725000Y33650000D03*
D11*
%TO.P,D3,2,A*%
%TO.N,unconnected-(D3-A-Pad2)*%
X14265000Y33650000D03*
%TD*%
D10*
%TO.P,D32,1,K*%
%TO.N,GND*%
X37325000Y-33550000D03*
D11*
%TO.P,D32,2,A*%
%TO.N,unconnected-(D32-A-Pad2)*%
X39865000Y-33550000D03*
%TD*%
D10*
%TO.P,D5,1,K*%
%TO.N,GND*%
X-39475000Y24050000D03*
D11*
%TO.P,D5,2,A*%
%TO.N,unconnected-(D5-A-Pad2)*%
X-36935000Y24050000D03*
%TD*%
%TA.AperFunction,Conductor*%
%TO.N,GND*%
G36*
X42343039Y37280315D02*
G01*
X42388794Y37227511D01*
X42400000Y37176000D01*
X42400000Y-37448638D01*
X42380315Y-37515677D01*
X42363681Y-37536319D01*
X42336319Y-37563681D01*
X42274996Y-37597166D01*
X42248638Y-37600000D01*
X-42376000Y-37600000D01*
X-42443039Y-37580315D01*
X-42488794Y-37527511D01*
X-42500000Y-37476000D01*
X-42500000Y-34497844D01*
X-40875000Y-34497844D01*
X-40868599Y-34557372D01*
X-40868597Y-34557379D01*
X-40818355Y-34692086D01*
X-40818351Y-34692093D01*
X-40732191Y-34807187D01*
X-40732188Y-34807190D01*
X-40617094Y-34893350D01*
X-40617087Y-34893354D01*
X-40482380Y-34943596D01*
X-40482373Y-34943598D01*
X-40422845Y-34949999D01*
X-40422828Y-34950000D01*
X-39725000Y-34950000D01*
X-39725000Y-34111821D01*
X-39705315Y-34044782D01*
X-39652511Y-33999027D01*
X-39583353Y-33989083D01*
X-39564453Y-33993329D01*
X-39542827Y-34000000D01*
X-39441277Y-34000000D01*
X-39441276Y-34000000D01*
X-39367481Y-33988877D01*
X-39298258Y-33998350D01*
X-39245143Y-34043744D01*
X-39225003Y-34110648D01*
X-39225000Y-34111492D01*
X-39225000Y-34950000D01*
X-38527172Y-34950000D01*
X-38527156Y-34949999D01*
X-38467628Y-34943598D01*
X-38467621Y-34943596D01*
X-38332914Y-34893354D01*
X-38332907Y-34893350D01*
X-38217813Y-34807190D01*
X-38217810Y-34807187D01*
X-38131650Y-34692093D01*
X-38131645Y-34692084D01*
X-38102925Y-34615081D01*
X-38061055Y-34559147D01*
X-37995591Y-34534729D01*
X-37927318Y-34549580D01*
X-37895516Y-34574428D01*
X-37886784Y-34583913D01*
X-37886781Y-34583915D01*
X-37886778Y-34583918D01*
X-37703635Y-34726464D01*
X-37703629Y-34726468D01*
X-37703626Y-34726470D01*
X-37499503Y-34836936D01*
X-37385513Y-34876068D01*
X-37279985Y-34912297D01*
X-37279983Y-34912297D01*
X-37279981Y-34912298D01*
X-37051049Y-34950500D01*
X-37051048Y-34950500D01*
X-36818952Y-34950500D01*
X-36818951Y-34950500D01*
X-36590019Y-34912298D01*
X-36370497Y-34836936D01*
X-36166374Y-34726470D01*
X-35983216Y-34583913D01*
X-35903984Y-34497844D01*
X-15275000Y-34497844D01*
X-15268599Y-34557372D01*
X-15268597Y-34557379D01*
X-15218355Y-34692086D01*
X-15218351Y-34692093D01*
X-15132191Y-34807187D01*
X-15132188Y-34807190D01*
X-15017094Y-34893350D01*
X-15017087Y-34893354D01*
X-14882380Y-34943596D01*
X-14882373Y-34943598D01*
X-14822845Y-34949999D01*
X-14822828Y-34950000D01*
X-14125000Y-34950000D01*
X-14125000Y-34111821D01*
X-14105315Y-34044782D01*
X-14052511Y-33999027D01*
X-13983353Y-33989083D01*
X-13964453Y-33993329D01*
X-13942827Y-34000000D01*
X-13841277Y-34000000D01*
X-13841276Y-34000000D01*
X-13767481Y-33988877D01*
X-13698258Y-33998350D01*
X-13645143Y-34043744D01*
X-13625003Y-34110648D01*
X-13625000Y-34111492D01*
X-13625000Y-34950000D01*
X-12927172Y-34950000D01*
X-12927156Y-34949999D01*
X-12867628Y-34943598D01*
X-12867621Y-34943596D01*
X-12732914Y-34893354D01*
X-12732907Y-34893350D01*
X-12617813Y-34807190D01*
X-12617810Y-34807187D01*
X-12531650Y-34692093D01*
X-12531645Y-34692084D01*
X-12502925Y-34615081D01*
X-12461055Y-34559147D01*
X-12395591Y-34534729D01*
X-12327318Y-34549580D01*
X-12295516Y-34574428D01*
X-12286784Y-34583913D01*
X-12286781Y-34583915D01*
X-12286778Y-34583918D01*
X-12103635Y-34726464D01*
X-12103629Y-34726468D01*
X-12103626Y-34726470D01*
X-11899503Y-34836936D01*
X-11785513Y-34876068D01*
X-11679985Y-34912297D01*
X-11679983Y-34912297D01*
X-11679981Y-34912298D01*
X-11451049Y-34950500D01*
X-11451048Y-34950500D01*
X-11218952Y-34950500D01*
X-11218951Y-34950500D01*
X-10990019Y-34912298D01*
X-10770497Y-34836936D01*
X-10566374Y-34726470D01*
X-10383216Y-34583913D01*
X-10303984Y-34497844D01*
X10325000Y-34497844D01*
X10331401Y-34557372D01*
X10331403Y-34557379D01*
X10381645Y-34692086D01*
X10381649Y-34692093D01*
X10467809Y-34807187D01*
X10467812Y-34807190D01*
X10582906Y-34893350D01*
X10582913Y-34893354D01*
X10717620Y-34943596D01*
X10717627Y-34943598D01*
X10777155Y-34949999D01*
X10777172Y-34950000D01*
X11475000Y-34950000D01*
X11475000Y-34111821D01*
X11494685Y-34044782D01*
X11547489Y-33999027D01*
X11616647Y-33989083D01*
X11635547Y-33993329D01*
X11657173Y-34000000D01*
X11758723Y-34000000D01*
X11758724Y-34000000D01*
X11832519Y-33988877D01*
X11901742Y-33998350D01*
X11954857Y-34043744D01*
X11974997Y-34110648D01*
X11975000Y-34111492D01*
X11975000Y-34950000D01*
X12672828Y-34950000D01*
X12672844Y-34949999D01*
X12732372Y-34943598D01*
X12732379Y-34943596D01*
X12867086Y-34893354D01*
X12867093Y-34893350D01*
X12982187Y-34807190D01*
X12982190Y-34807187D01*
X13068350Y-34692093D01*
X13068355Y-34692084D01*
X13097075Y-34615081D01*
X13138945Y-34559147D01*
X13204409Y-34534729D01*
X13272682Y-34549580D01*
X13304484Y-34574428D01*
X13313216Y-34583913D01*
X13313219Y-34583915D01*
X13313222Y-34583918D01*
X13496365Y-34726464D01*
X13496371Y-34726468D01*
X13496374Y-34726470D01*
X13700497Y-34836936D01*
X13814487Y-34876068D01*
X13920015Y-34912297D01*
X13920017Y-34912297D01*
X13920019Y-34912298D01*
X14148951Y-34950500D01*
X14148952Y-34950500D01*
X14381048Y-34950500D01*
X14381049Y-34950500D01*
X14609981Y-34912298D01*
X14829503Y-34836936D01*
X15033626Y-34726470D01*
X15216784Y-34583913D01*
X15296016Y-34497844D01*
X35925000Y-34497844D01*
X35931401Y-34557372D01*
X35931403Y-34557379D01*
X35981645Y-34692086D01*
X35981649Y-34692093D01*
X36067809Y-34807187D01*
X36067812Y-34807190D01*
X36182906Y-34893350D01*
X36182913Y-34893354D01*
X36317620Y-34943596D01*
X36317627Y-34943598D01*
X36377155Y-34949999D01*
X36377172Y-34950000D01*
X37075000Y-34950000D01*
X37075000Y-34111821D01*
X37094685Y-34044782D01*
X37147489Y-33999027D01*
X37216647Y-33989083D01*
X37235547Y-33993329D01*
X37257173Y-34000000D01*
X37358723Y-34000000D01*
X37358724Y-34000000D01*
X37432519Y-33988877D01*
X37501742Y-33998350D01*
X37554857Y-34043744D01*
X37574997Y-34110648D01*
X37575000Y-34111492D01*
X37575000Y-34950000D01*
X38272828Y-34950000D01*
X38272844Y-34949999D01*
X38332372Y-34943598D01*
X38332379Y-34943596D01*
X38467086Y-34893354D01*
X38467093Y-34893350D01*
X38582187Y-34807190D01*
X38582190Y-34807187D01*
X38668350Y-34692093D01*
X38668355Y-34692084D01*
X38697075Y-34615081D01*
X38738945Y-34559147D01*
X38804409Y-34534729D01*
X38872682Y-34549580D01*
X38904484Y-34574428D01*
X38913216Y-34583913D01*
X38913219Y-34583915D01*
X38913222Y-34583918D01*
X39096365Y-34726464D01*
X39096371Y-34726468D01*
X39096374Y-34726470D01*
X39300497Y-34836936D01*
X39414487Y-34876068D01*
X39520015Y-34912297D01*
X39520017Y-34912297D01*
X39520019Y-34912298D01*
X39748951Y-34950500D01*
X39748952Y-34950500D01*
X39981048Y-34950500D01*
X39981049Y-34950500D01*
X40209981Y-34912298D01*
X40429503Y-34836936D01*
X40633626Y-34726470D01*
X40816784Y-34583913D01*
X40973979Y-34413153D01*
X41100924Y-34218849D01*
X41194157Y-34006300D01*
X41251134Y-33781305D01*
X41256524Y-33716260D01*
X41270300Y-33550006D01*
X41270300Y-33549993D01*
X41251135Y-33318702D01*
X41251133Y-33318691D01*
X41194157Y-33093699D01*
X41100924Y-32881151D01*
X40973983Y-32686852D01*
X40973980Y-32686849D01*
X40973979Y-32686847D01*
X40816784Y-32516087D01*
X40816779Y-32516083D01*
X40816777Y-32516081D01*
X40633634Y-32373535D01*
X40633628Y-32373531D01*
X40429504Y-32263064D01*
X40429495Y-32263061D01*
X40209984Y-32187702D01*
X40022404Y-32156401D01*
X39981049Y-32149500D01*
X39748951Y-32149500D01*
X39707596Y-32156401D01*
X39520015Y-32187702D01*
X39300504Y-32263061D01*
X39300495Y-32263064D01*
X39096371Y-32373531D01*
X39096365Y-32373535D01*
X38913222Y-32516081D01*
X38913215Y-32516087D01*
X38904484Y-32525572D01*
X38844595Y-32561561D01*
X38774757Y-32559458D01*
X38717143Y-32519932D01*
X38697075Y-32484918D01*
X38668355Y-32407915D01*
X38668350Y-32407906D01*
X38582190Y-32292812D01*
X38582187Y-32292809D01*
X38467093Y-32206649D01*
X38467086Y-32206645D01*
X38332379Y-32156403D01*
X38332372Y-32156401D01*
X38272844Y-32150000D01*
X37575000Y-32150000D01*
X37575000Y-32988178D01*
X37555315Y-33055217D01*
X37502511Y-33100972D01*
X37433353Y-33110916D01*
X37414454Y-33106670D01*
X37392829Y-33100000D01*
X37392827Y-33100000D01*
X37291276Y-33100000D01*
X37291266Y-33100000D01*
X37217479Y-33111122D01*
X37148255Y-33101649D01*
X37095141Y-33056254D01*
X37075002Y-32989349D01*
X37074999Y-32988507D01*
X37075000Y-32150000D01*
X36377155Y-32150000D01*
X36317627Y-32156401D01*
X36317620Y-32156403D01*
X36182913Y-32206645D01*
X36182906Y-32206649D01*
X36067812Y-32292809D01*
X36067809Y-32292812D01*
X35981649Y-32407906D01*
X35981645Y-32407913D01*
X35931403Y-32542620D01*
X35931401Y-32542627D01*
X35925000Y-32602155D01*
X35925000Y-33300000D01*
X36764997Y-33300000D01*
X36832036Y-33319685D01*
X36877791Y-33372489D01*
X36887735Y-33441647D01*
X36885888Y-33451592D01*
X36871189Y-33515992D01*
X36871189Y-33515993D01*
X36882021Y-33660532D01*
X36879920Y-33660689D01*
X36876405Y-33718139D01*
X36835110Y-33774499D01*
X36769899Y-33799587D01*
X36759784Y-33800000D01*
X35925000Y-33800000D01*
X35925000Y-34497844D01*
X15296016Y-34497844D01*
X15373979Y-34413153D01*
X15500924Y-34218849D01*
X15594157Y-34006300D01*
X15651134Y-33781305D01*
X15656524Y-33716260D01*
X15670300Y-33550006D01*
X15670300Y-33549993D01*
X15651135Y-33318702D01*
X15651133Y-33318691D01*
X15594157Y-33093699D01*
X15500924Y-32881151D01*
X15373983Y-32686852D01*
X15373980Y-32686849D01*
X15373979Y-32686847D01*
X15216784Y-32516087D01*
X15216779Y-32516083D01*
X15216777Y-32516081D01*
X15033634Y-32373535D01*
X15033628Y-32373531D01*
X14829504Y-32263064D01*
X14829495Y-32263061D01*
X14609984Y-32187702D01*
X14422404Y-32156401D01*
X14381049Y-32149500D01*
X14148951Y-32149500D01*
X14107596Y-32156401D01*
X13920015Y-32187702D01*
X13700504Y-32263061D01*
X13700495Y-32263064D01*
X13496371Y-32373531D01*
X13496365Y-32373535D01*
X13313222Y-32516081D01*
X13313215Y-32516087D01*
X13304484Y-32525572D01*
X13244595Y-32561561D01*
X13174757Y-32559458D01*
X13117143Y-32519932D01*
X13097075Y-32484918D01*
X13068355Y-32407915D01*
X13068350Y-32407906D01*
X12982190Y-32292812D01*
X12982187Y-32292809D01*
X12867093Y-32206649D01*
X12867086Y-32206645D01*
X12732379Y-32156403D01*
X12732372Y-32156401D01*
X12672844Y-32150000D01*
X11975000Y-32150000D01*
X11975000Y-32988178D01*
X11955315Y-33055217D01*
X11902511Y-33100972D01*
X11833353Y-33110916D01*
X11814454Y-33106670D01*
X11792829Y-33100000D01*
X11792827Y-33100000D01*
X11691276Y-33100000D01*
X11691268Y-33100000D01*
X11617481Y-33111122D01*
X11548256Y-33101649D01*
X11495143Y-33056254D01*
X11475003Y-32989350D01*
X11475000Y-32988507D01*
X11475000Y-32150000D01*
X10777155Y-32150000D01*
X10717627Y-32156401D01*
X10717620Y-32156403D01*
X10582913Y-32206645D01*
X10582906Y-32206649D01*
X10467812Y-32292809D01*
X10467809Y-32292812D01*
X10381649Y-32407906D01*
X10381645Y-32407913D01*
X10331403Y-32542620D01*
X10331401Y-32542627D01*
X10325000Y-32602155D01*
X10325000Y-33300000D01*
X11164997Y-33300000D01*
X11232036Y-33319685D01*
X11277791Y-33372489D01*
X11287735Y-33441647D01*
X11285888Y-33451592D01*
X11271189Y-33515992D01*
X11271189Y-33515993D01*
X11282021Y-33660532D01*
X11279920Y-33660689D01*
X11276405Y-33718139D01*
X11235110Y-33774499D01*
X11169899Y-33799587D01*
X11159784Y-33800000D01*
X10325000Y-33800000D01*
X10325000Y-34497844D01*
X-10303984Y-34497844D01*
X-10226021Y-34413153D01*
X-10099076Y-34218849D01*
X-10005843Y-34006300D01*
X-9948866Y-33781305D01*
X-9943476Y-33716260D01*
X-9929700Y-33550006D01*
X-9929700Y-33549993D01*
X-9948865Y-33318702D01*
X-9948867Y-33318691D01*
X-10005843Y-33093699D01*
X-10099076Y-32881151D01*
X-10226017Y-32686852D01*
X-10226020Y-32686849D01*
X-10226021Y-32686847D01*
X-10383216Y-32516087D01*
X-10383221Y-32516083D01*
X-10383223Y-32516081D01*
X-10566366Y-32373535D01*
X-10566372Y-32373531D01*
X-10770496Y-32263064D01*
X-10770505Y-32263061D01*
X-10990016Y-32187702D01*
X-11177596Y-32156401D01*
X-11218951Y-32149500D01*
X-11451049Y-32149500D01*
X-11492404Y-32156401D01*
X-11679985Y-32187702D01*
X-11899496Y-32263061D01*
X-11899505Y-32263064D01*
X-12103629Y-32373531D01*
X-12103635Y-32373535D01*
X-12286778Y-32516081D01*
X-12286785Y-32516087D01*
X-12295516Y-32525572D01*
X-12355405Y-32561561D01*
X-12425243Y-32559458D01*
X-12482857Y-32519932D01*
X-12502925Y-32484918D01*
X-12531645Y-32407915D01*
X-12531650Y-32407906D01*
X-12617810Y-32292812D01*
X-12617813Y-32292809D01*
X-12732907Y-32206649D01*
X-12732914Y-32206645D01*
X-12867621Y-32156403D01*
X-12867628Y-32156401D01*
X-12927156Y-32150000D01*
X-13625000Y-32150000D01*
X-13625000Y-32988178D01*
X-13644685Y-33055217D01*
X-13697489Y-33100972D01*
X-13766647Y-33110916D01*
X-13785546Y-33106670D01*
X-13807171Y-33100000D01*
X-13807173Y-33100000D01*
X-13908724Y-33100000D01*
X-13908732Y-33100000D01*
X-13982519Y-33111122D01*
X-14051744Y-33101649D01*
X-14104857Y-33056254D01*
X-14124997Y-32989350D01*
X-14125000Y-32988507D01*
X-14125000Y-32150000D01*
X-14822845Y-32150000D01*
X-14882373Y-32156401D01*
X-14882380Y-32156403D01*
X-15017087Y-32206645D01*
X-15017094Y-32206649D01*
X-15132188Y-32292809D01*
X-15132191Y-32292812D01*
X-15218351Y-32407906D01*
X-15218355Y-32407913D01*
X-15268597Y-32542620D01*
X-15268599Y-32542627D01*
X-15275000Y-32602155D01*
X-15275000Y-33300000D01*
X-14435003Y-33300000D01*
X-14367964Y-33319685D01*
X-14322209Y-33372489D01*
X-14312265Y-33441647D01*
X-14314112Y-33451592D01*
X-14328811Y-33515992D01*
X-14328811Y-33515993D01*
X-14317979Y-33660532D01*
X-14320080Y-33660689D01*
X-14323595Y-33718139D01*
X-14364890Y-33774499D01*
X-14430101Y-33799587D01*
X-14440216Y-33800000D01*
X-15275000Y-33800000D01*
X-15275000Y-34497844D01*
X-35903984Y-34497844D01*
X-35826021Y-34413153D01*
X-35699076Y-34218849D01*
X-35605843Y-34006300D01*
X-35548866Y-33781305D01*
X-35543476Y-33716260D01*
X-35529700Y-33550006D01*
X-35529700Y-33549993D01*
X-35548865Y-33318702D01*
X-35548867Y-33318691D01*
X-35605843Y-33093699D01*
X-35699076Y-32881151D01*
X-35826017Y-32686852D01*
X-35826020Y-32686849D01*
X-35826021Y-32686847D01*
X-35983216Y-32516087D01*
X-35983221Y-32516083D01*
X-35983223Y-32516081D01*
X-36166366Y-32373535D01*
X-36166372Y-32373531D01*
X-36370496Y-32263064D01*
X-36370505Y-32263061D01*
X-36590016Y-32187702D01*
X-36777596Y-32156401D01*
X-36818951Y-32149500D01*
X-37051049Y-32149500D01*
X-37092404Y-32156401D01*
X-37279985Y-32187702D01*
X-37499496Y-32263061D01*
X-37499505Y-32263064D01*
X-37703629Y-32373531D01*
X-37703635Y-32373535D01*
X-37886778Y-32516081D01*
X-37886785Y-32516087D01*
X-37895516Y-32525572D01*
X-37955405Y-32561561D01*
X-38025243Y-32559458D01*
X-38082857Y-32519932D01*
X-38102925Y-32484918D01*
X-38131645Y-32407915D01*
X-38131650Y-32407906D01*
X-38217810Y-32292812D01*
X-38217813Y-32292809D01*
X-38332907Y-32206649D01*
X-38332914Y-32206645D01*
X-38467621Y-32156403D01*
X-38467628Y-32156401D01*
X-38527156Y-32150000D01*
X-39225000Y-32150000D01*
X-39225000Y-32988178D01*
X-39244685Y-33055217D01*
X-39297489Y-33100972D01*
X-39366647Y-33110916D01*
X-39385546Y-33106670D01*
X-39407171Y-33100000D01*
X-39407173Y-33100000D01*
X-39508724Y-33100000D01*
X-39508732Y-33100000D01*
X-39582519Y-33111122D01*
X-39651744Y-33101649D01*
X-39704857Y-33056254D01*
X-39724997Y-32989350D01*
X-39725000Y-32988507D01*
X-39725000Y-32150000D01*
X-40422845Y-32150000D01*
X-40482373Y-32156401D01*
X-40482380Y-32156403D01*
X-40617087Y-32206645D01*
X-40617094Y-32206649D01*
X-40732188Y-32292809D01*
X-40732191Y-32292812D01*
X-40818351Y-32407906D01*
X-40818355Y-32407913D01*
X-40868597Y-32542620D01*
X-40868599Y-32542627D01*
X-40875000Y-32602155D01*
X-40875000Y-33300000D01*
X-40035003Y-33300000D01*
X-39967964Y-33319685D01*
X-39922209Y-33372489D01*
X-39912265Y-33441647D01*
X-39914112Y-33451592D01*
X-39928811Y-33515992D01*
X-39928811Y-33515993D01*
X-39917979Y-33660532D01*
X-39920080Y-33660689D01*
X-39923595Y-33718139D01*
X-39964890Y-33774499D01*
X-40030101Y-33799587D01*
X-40040216Y-33800000D01*
X-40875000Y-33800000D01*
X-40875000Y-34497844D01*
X-42500000Y-34497844D01*
X-42500000Y-24897844D01*
X-40875000Y-24897844D01*
X-40868599Y-24957372D01*
X-40868597Y-24957379D01*
X-40818355Y-25092086D01*
X-40818351Y-25092093D01*
X-40732191Y-25207187D01*
X-40732188Y-25207190D01*
X-40617094Y-25293350D01*
X-40617087Y-25293354D01*
X-40482380Y-25343596D01*
X-40482373Y-25343598D01*
X-40422845Y-25349999D01*
X-40422828Y-25350000D01*
X-39725000Y-25350000D01*
X-39725000Y-24511821D01*
X-39705315Y-24444782D01*
X-39652511Y-24399027D01*
X-39583353Y-24389083D01*
X-39564453Y-24393329D01*
X-39542827Y-24400000D01*
X-39441277Y-24400000D01*
X-39441276Y-24400000D01*
X-39367481Y-24388877D01*
X-39298258Y-24398350D01*
X-39245143Y-24443744D01*
X-39225003Y-24510648D01*
X-39225000Y-24511492D01*
X-39225000Y-25350000D01*
X-38527172Y-25350000D01*
X-38527156Y-25349999D01*
X-38467628Y-25343598D01*
X-38467621Y-25343596D01*
X-38332914Y-25293354D01*
X-38332907Y-25293350D01*
X-38217813Y-25207190D01*
X-38217810Y-25207187D01*
X-38131650Y-25092093D01*
X-38131645Y-25092084D01*
X-38102925Y-25015081D01*
X-38061055Y-24959147D01*
X-37995591Y-24934729D01*
X-37927318Y-24949580D01*
X-37895516Y-24974428D01*
X-37886784Y-24983913D01*
X-37886781Y-24983915D01*
X-37886778Y-24983918D01*
X-37703635Y-25126464D01*
X-37703629Y-25126468D01*
X-37703626Y-25126470D01*
X-37499503Y-25236936D01*
X-37385513Y-25276068D01*
X-37279985Y-25312297D01*
X-37279983Y-25312297D01*
X-37279981Y-25312298D01*
X-37051049Y-25350500D01*
X-37051048Y-25350500D01*
X-36818952Y-25350500D01*
X-36818951Y-25350500D01*
X-36590019Y-25312298D01*
X-36370497Y-25236936D01*
X-36166374Y-25126470D01*
X-35983216Y-24983913D01*
X-35903984Y-24897844D01*
X-15275000Y-24897844D01*
X-15268599Y-24957372D01*
X-15268597Y-24957379D01*
X-15218355Y-25092086D01*
X-15218351Y-25092093D01*
X-15132191Y-25207187D01*
X-15132188Y-25207190D01*
X-15017094Y-25293350D01*
X-15017087Y-25293354D01*
X-14882380Y-25343596D01*
X-14882373Y-25343598D01*
X-14822845Y-25349999D01*
X-14822828Y-25350000D01*
X-14125000Y-25350000D01*
X-14125000Y-24511821D01*
X-14105315Y-24444782D01*
X-14052511Y-24399027D01*
X-13983353Y-24389083D01*
X-13964453Y-24393329D01*
X-13942827Y-24400000D01*
X-13841277Y-24400000D01*
X-13841276Y-24400000D01*
X-13767481Y-24388877D01*
X-13698258Y-24398350D01*
X-13645143Y-24443744D01*
X-13625003Y-24510648D01*
X-13625000Y-24511492D01*
X-13625000Y-25350000D01*
X-12927172Y-25350000D01*
X-12927156Y-25349999D01*
X-12867628Y-25343598D01*
X-12867621Y-25343596D01*
X-12732914Y-25293354D01*
X-12732907Y-25293350D01*
X-12617813Y-25207190D01*
X-12617810Y-25207187D01*
X-12531650Y-25092093D01*
X-12531645Y-25092084D01*
X-12502925Y-25015081D01*
X-12461055Y-24959147D01*
X-12395591Y-24934729D01*
X-12327318Y-24949580D01*
X-12295516Y-24974428D01*
X-12286784Y-24983913D01*
X-12286781Y-24983915D01*
X-12286778Y-24983918D01*
X-12103635Y-25126464D01*
X-12103629Y-25126468D01*
X-12103626Y-25126470D01*
X-11899503Y-25236936D01*
X-11785513Y-25276068D01*
X-11679985Y-25312297D01*
X-11679983Y-25312297D01*
X-11679981Y-25312298D01*
X-11451049Y-25350500D01*
X-11451048Y-25350500D01*
X-11218952Y-25350500D01*
X-11218951Y-25350500D01*
X-10990019Y-25312298D01*
X-10770497Y-25236936D01*
X-10566374Y-25126470D01*
X-10383216Y-24983913D01*
X-10303984Y-24897844D01*
X10325000Y-24897844D01*
X10331401Y-24957372D01*
X10331403Y-24957379D01*
X10381645Y-25092086D01*
X10381649Y-25092093D01*
X10467809Y-25207187D01*
X10467812Y-25207190D01*
X10582906Y-25293350D01*
X10582913Y-25293354D01*
X10717620Y-25343596D01*
X10717627Y-25343598D01*
X10777155Y-25349999D01*
X10777172Y-25350000D01*
X11475000Y-25350000D01*
X11475000Y-24511821D01*
X11494685Y-24444782D01*
X11547489Y-24399027D01*
X11616647Y-24389083D01*
X11635547Y-24393329D01*
X11657173Y-24400000D01*
X11758723Y-24400000D01*
X11758724Y-24400000D01*
X11832519Y-24388877D01*
X11901742Y-24398350D01*
X11954857Y-24443744D01*
X11974997Y-24510648D01*
X11975000Y-24511492D01*
X11975000Y-25350000D01*
X12672828Y-25350000D01*
X12672844Y-25349999D01*
X12732372Y-25343598D01*
X12732379Y-25343596D01*
X12867086Y-25293354D01*
X12867093Y-25293350D01*
X12982187Y-25207190D01*
X12982190Y-25207187D01*
X13068350Y-25092093D01*
X13068355Y-25092084D01*
X13097075Y-25015081D01*
X13138945Y-24959147D01*
X13204409Y-24934729D01*
X13272682Y-24949580D01*
X13304484Y-24974428D01*
X13313216Y-24983913D01*
X13313219Y-24983915D01*
X13313222Y-24983918D01*
X13496365Y-25126464D01*
X13496371Y-25126468D01*
X13496374Y-25126470D01*
X13700497Y-25236936D01*
X13814487Y-25276068D01*
X13920015Y-25312297D01*
X13920017Y-25312297D01*
X13920019Y-25312298D01*
X14148951Y-25350500D01*
X14148952Y-25350500D01*
X14381048Y-25350500D01*
X14381049Y-25350500D01*
X14609981Y-25312298D01*
X14829503Y-25236936D01*
X15033626Y-25126470D01*
X15216784Y-24983913D01*
X15296016Y-24897844D01*
X35925000Y-24897844D01*
X35931401Y-24957372D01*
X35931403Y-24957379D01*
X35981645Y-25092086D01*
X35981649Y-25092093D01*
X36067809Y-25207187D01*
X36067812Y-25207190D01*
X36182906Y-25293350D01*
X36182913Y-25293354D01*
X36317620Y-25343596D01*
X36317627Y-25343598D01*
X36377155Y-25349999D01*
X36377172Y-25350000D01*
X37075000Y-25350000D01*
X37075000Y-24511821D01*
X37094685Y-24444782D01*
X37147489Y-24399027D01*
X37216647Y-24389083D01*
X37235547Y-24393329D01*
X37257173Y-24400000D01*
X37358723Y-24400000D01*
X37358724Y-24400000D01*
X37432519Y-24388877D01*
X37501742Y-24398350D01*
X37554857Y-24443744D01*
X37574997Y-24510648D01*
X37575000Y-24511492D01*
X37575000Y-25350000D01*
X38272828Y-25350000D01*
X38272844Y-25349999D01*
X38332372Y-25343598D01*
X38332379Y-25343596D01*
X38467086Y-25293354D01*
X38467093Y-25293350D01*
X38582187Y-25207190D01*
X38582190Y-25207187D01*
X38668350Y-25092093D01*
X38668355Y-25092084D01*
X38697075Y-25015081D01*
X38738945Y-24959147D01*
X38804409Y-24934729D01*
X38872682Y-24949580D01*
X38904484Y-24974428D01*
X38913216Y-24983913D01*
X38913219Y-24983915D01*
X38913222Y-24983918D01*
X39096365Y-25126464D01*
X39096371Y-25126468D01*
X39096374Y-25126470D01*
X39300497Y-25236936D01*
X39414487Y-25276068D01*
X39520015Y-25312297D01*
X39520017Y-25312297D01*
X39520019Y-25312298D01*
X39748951Y-25350500D01*
X39748952Y-25350500D01*
X39981048Y-25350500D01*
X39981049Y-25350500D01*
X40209981Y-25312298D01*
X40429503Y-25236936D01*
X40633626Y-25126470D01*
X40816784Y-24983913D01*
X40973979Y-24813153D01*
X41100924Y-24618849D01*
X41194157Y-24406300D01*
X41251134Y-24181305D01*
X41256524Y-24116260D01*
X41270300Y-23950006D01*
X41270300Y-23949993D01*
X41251135Y-23718702D01*
X41251133Y-23718691D01*
X41194157Y-23493699D01*
X41100924Y-23281151D01*
X40973983Y-23086852D01*
X40973980Y-23086849D01*
X40973979Y-23086847D01*
X40816784Y-22916087D01*
X40816779Y-22916083D01*
X40816777Y-22916081D01*
X40633634Y-22773535D01*
X40633628Y-22773531D01*
X40429504Y-22663064D01*
X40429495Y-22663061D01*
X40209984Y-22587702D01*
X40022404Y-22556401D01*
X39981049Y-22549500D01*
X39748951Y-22549500D01*
X39707596Y-22556401D01*
X39520015Y-22587702D01*
X39300504Y-22663061D01*
X39300495Y-22663064D01*
X39096371Y-22773531D01*
X39096365Y-22773535D01*
X38913222Y-22916081D01*
X38913215Y-22916087D01*
X38904484Y-22925572D01*
X38844595Y-22961561D01*
X38774757Y-22959458D01*
X38717143Y-22919932D01*
X38697075Y-22884918D01*
X38668355Y-22807915D01*
X38668350Y-22807906D01*
X38582190Y-22692812D01*
X38582187Y-22692809D01*
X38467093Y-22606649D01*
X38467086Y-22606645D01*
X38332379Y-22556403D01*
X38332372Y-22556401D01*
X38272844Y-22550000D01*
X37575000Y-22550000D01*
X37575000Y-23388178D01*
X37555315Y-23455217D01*
X37502511Y-23500972D01*
X37433353Y-23510916D01*
X37414454Y-23506670D01*
X37392829Y-23500000D01*
X37392827Y-23500000D01*
X37291276Y-23500000D01*
X37291266Y-23500000D01*
X37217479Y-23511122D01*
X37148255Y-23501649D01*
X37095141Y-23456254D01*
X37075002Y-23389349D01*
X37074999Y-23388507D01*
X37075000Y-22550000D01*
X36377155Y-22550000D01*
X36317627Y-22556401D01*
X36317620Y-22556403D01*
X36182913Y-22606645D01*
X36182906Y-22606649D01*
X36067812Y-22692809D01*
X36067809Y-22692812D01*
X35981649Y-22807906D01*
X35981645Y-22807913D01*
X35931403Y-22942620D01*
X35931401Y-22942627D01*
X35925000Y-23002155D01*
X35925000Y-23700000D01*
X36764997Y-23700000D01*
X36832036Y-23719685D01*
X36877791Y-23772489D01*
X36887735Y-23841647D01*
X36885888Y-23851592D01*
X36871189Y-23915992D01*
X36871189Y-23915993D01*
X36882021Y-24060532D01*
X36879920Y-24060689D01*
X36876405Y-24118139D01*
X36835110Y-24174499D01*
X36769899Y-24199587D01*
X36759784Y-24200000D01*
X35925000Y-24200000D01*
X35925000Y-24897844D01*
X15296016Y-24897844D01*
X15373979Y-24813153D01*
X15500924Y-24618849D01*
X15594157Y-24406300D01*
X15651134Y-24181305D01*
X15656524Y-24116260D01*
X15670300Y-23950006D01*
X15670300Y-23949993D01*
X15651135Y-23718702D01*
X15651133Y-23718691D01*
X15594157Y-23493699D01*
X15500924Y-23281151D01*
X15373983Y-23086852D01*
X15373980Y-23086849D01*
X15373979Y-23086847D01*
X15216784Y-22916087D01*
X15216779Y-22916083D01*
X15216777Y-22916081D01*
X15033634Y-22773535D01*
X15033628Y-22773531D01*
X14829504Y-22663064D01*
X14829495Y-22663061D01*
X14609984Y-22587702D01*
X14422404Y-22556401D01*
X14381049Y-22549500D01*
X14148951Y-22549500D01*
X14107596Y-22556401D01*
X13920015Y-22587702D01*
X13700504Y-22663061D01*
X13700495Y-22663064D01*
X13496371Y-22773531D01*
X13496365Y-22773535D01*
X13313222Y-22916081D01*
X13313215Y-22916087D01*
X13304484Y-22925572D01*
X13244595Y-22961561D01*
X13174757Y-22959458D01*
X13117143Y-22919932D01*
X13097075Y-22884918D01*
X13068355Y-22807915D01*
X13068350Y-22807906D01*
X12982190Y-22692812D01*
X12982187Y-22692809D01*
X12867093Y-22606649D01*
X12867086Y-22606645D01*
X12732379Y-22556403D01*
X12732372Y-22556401D01*
X12672844Y-22550000D01*
X11975000Y-22550000D01*
X11975000Y-23388178D01*
X11955315Y-23455217D01*
X11902511Y-23500972D01*
X11833353Y-23510916D01*
X11814454Y-23506670D01*
X11792829Y-23500000D01*
X11792827Y-23500000D01*
X11691276Y-23500000D01*
X11691268Y-23500000D01*
X11617481Y-23511122D01*
X11548256Y-23501649D01*
X11495143Y-23456254D01*
X11475003Y-23389350D01*
X11475000Y-23388507D01*
X11475000Y-22550000D01*
X10777155Y-22550000D01*
X10717627Y-22556401D01*
X10717620Y-22556403D01*
X10582913Y-22606645D01*
X10582906Y-22606649D01*
X10467812Y-22692809D01*
X10467809Y-22692812D01*
X10381649Y-22807906D01*
X10381645Y-22807913D01*
X10331403Y-22942620D01*
X10331401Y-22942627D01*
X10325000Y-23002155D01*
X10325000Y-23700000D01*
X11164997Y-23700000D01*
X11232036Y-23719685D01*
X11277791Y-23772489D01*
X11287735Y-23841647D01*
X11285888Y-23851592D01*
X11271189Y-23915992D01*
X11271189Y-23915993D01*
X11282021Y-24060532D01*
X11279920Y-24060689D01*
X11276405Y-24118139D01*
X11235110Y-24174499D01*
X11169899Y-24199587D01*
X11159784Y-24200000D01*
X10325000Y-24200000D01*
X10325000Y-24897844D01*
X-10303984Y-24897844D01*
X-10226021Y-24813153D01*
X-10099076Y-24618849D01*
X-10005843Y-24406300D01*
X-9948866Y-24181305D01*
X-9943476Y-24116260D01*
X-9929700Y-23950006D01*
X-9929700Y-23949993D01*
X-9948865Y-23718702D01*
X-9948867Y-23718691D01*
X-10005843Y-23493699D01*
X-10099076Y-23281151D01*
X-10226017Y-23086852D01*
X-10226020Y-23086849D01*
X-10226021Y-23086847D01*
X-10383216Y-22916087D01*
X-10383221Y-22916083D01*
X-10383223Y-22916081D01*
X-10566366Y-22773535D01*
X-10566372Y-22773531D01*
X-10770496Y-22663064D01*
X-10770505Y-22663061D01*
X-10990016Y-22587702D01*
X-11177596Y-22556401D01*
X-11218951Y-22549500D01*
X-11451049Y-22549500D01*
X-11492404Y-22556401D01*
X-11679985Y-22587702D01*
X-11899496Y-22663061D01*
X-11899505Y-22663064D01*
X-12103629Y-22773531D01*
X-12103635Y-22773535D01*
X-12286778Y-22916081D01*
X-12286785Y-22916087D01*
X-12295516Y-22925572D01*
X-12355405Y-22961561D01*
X-12425243Y-22959458D01*
X-12482857Y-22919932D01*
X-12502925Y-22884918D01*
X-12531645Y-22807915D01*
X-12531650Y-22807906D01*
X-12617810Y-22692812D01*
X-12617813Y-22692809D01*
X-12732907Y-22606649D01*
X-12732914Y-22606645D01*
X-12867621Y-22556403D01*
X-12867628Y-22556401D01*
X-12927156Y-22550000D01*
X-13625000Y-22550000D01*
X-13625000Y-23388178D01*
X-13644685Y-23455217D01*
X-13697489Y-23500972D01*
X-13766647Y-23510916D01*
X-13785546Y-23506670D01*
X-13807171Y-23500000D01*
X-13807173Y-23500000D01*
X-13908724Y-23500000D01*
X-13908732Y-23500000D01*
X-13982519Y-23511122D01*
X-14051744Y-23501649D01*
X-14104857Y-23456254D01*
X-14124997Y-23389350D01*
X-14125000Y-23388507D01*
X-14125000Y-22550000D01*
X-14822845Y-22550000D01*
X-14882373Y-22556401D01*
X-14882380Y-22556403D01*
X-15017087Y-22606645D01*
X-15017094Y-22606649D01*
X-15132188Y-22692809D01*
X-15132191Y-22692812D01*
X-15218351Y-22807906D01*
X-15218355Y-22807913D01*
X-15268597Y-22942620D01*
X-15268599Y-22942627D01*
X-15275000Y-23002155D01*
X-15275000Y-23700000D01*
X-14435003Y-23700000D01*
X-14367964Y-23719685D01*
X-14322209Y-23772489D01*
X-14312265Y-23841647D01*
X-14314112Y-23851592D01*
X-14328811Y-23915992D01*
X-14328811Y-23915993D01*
X-14317979Y-24060532D01*
X-14320080Y-24060689D01*
X-14323595Y-24118139D01*
X-14364890Y-24174499D01*
X-14430101Y-24199587D01*
X-14440216Y-24200000D01*
X-15275000Y-24200000D01*
X-15275000Y-24897844D01*
X-35903984Y-24897844D01*
X-35826021Y-24813153D01*
X-35699076Y-24618849D01*
X-35605843Y-24406300D01*
X-35548866Y-24181305D01*
X-35543476Y-24116260D01*
X-35529700Y-23950006D01*
X-35529700Y-23949993D01*
X-35548865Y-23718702D01*
X-35548867Y-23718691D01*
X-35605843Y-23493699D01*
X-35699076Y-23281151D01*
X-35826017Y-23086852D01*
X-35826020Y-23086849D01*
X-35826021Y-23086847D01*
X-35983216Y-22916087D01*
X-35983221Y-22916083D01*
X-35983223Y-22916081D01*
X-36166366Y-22773535D01*
X-36166372Y-22773531D01*
X-36370496Y-22663064D01*
X-36370505Y-22663061D01*
X-36590016Y-22587702D01*
X-36777596Y-22556401D01*
X-36818951Y-22549500D01*
X-37051049Y-22549500D01*
X-37092404Y-22556401D01*
X-37279985Y-22587702D01*
X-37499496Y-22663061D01*
X-37499505Y-22663064D01*
X-37703629Y-22773531D01*
X-37703635Y-22773535D01*
X-37886778Y-22916081D01*
X-37886785Y-22916087D01*
X-37895516Y-22925572D01*
X-37955405Y-22961561D01*
X-38025243Y-22959458D01*
X-38082857Y-22919932D01*
X-38102925Y-22884918D01*
X-38131645Y-22807915D01*
X-38131650Y-22807906D01*
X-38217810Y-22692812D01*
X-38217813Y-22692809D01*
X-38332907Y-22606649D01*
X-38332914Y-22606645D01*
X-38467621Y-22556403D01*
X-38467628Y-22556401D01*
X-38527156Y-22550000D01*
X-39225000Y-22550000D01*
X-39225000Y-23388178D01*
X-39244685Y-23455217D01*
X-39297489Y-23500972D01*
X-39366647Y-23510916D01*
X-39385546Y-23506670D01*
X-39407171Y-23500000D01*
X-39407173Y-23500000D01*
X-39508724Y-23500000D01*
X-39508732Y-23500000D01*
X-39582519Y-23511122D01*
X-39651744Y-23501649D01*
X-39704857Y-23456254D01*
X-39724997Y-23389350D01*
X-39725000Y-23388507D01*
X-39725000Y-22550000D01*
X-40422845Y-22550000D01*
X-40482373Y-22556401D01*
X-40482380Y-22556403D01*
X-40617087Y-22606645D01*
X-40617094Y-22606649D01*
X-40732188Y-22692809D01*
X-40732191Y-22692812D01*
X-40818351Y-22807906D01*
X-40818355Y-22807913D01*
X-40868597Y-22942620D01*
X-40868599Y-22942627D01*
X-40875000Y-23002155D01*
X-40875000Y-23700000D01*
X-40035003Y-23700000D01*
X-39967964Y-23719685D01*
X-39922209Y-23772489D01*
X-39912265Y-23841647D01*
X-39914112Y-23851592D01*
X-39928811Y-23915992D01*
X-39928811Y-23915993D01*
X-39917979Y-24060532D01*
X-39920080Y-24060689D01*
X-39923595Y-24118139D01*
X-39964890Y-24174499D01*
X-40030101Y-24199587D01*
X-40040216Y-24200000D01*
X-40875000Y-24200000D01*
X-40875000Y-24897844D01*
X-42500000Y-24897844D01*
X-42500000Y-15297844D01*
X-40875000Y-15297844D01*
X-40868599Y-15357372D01*
X-40868597Y-15357379D01*
X-40818355Y-15492086D01*
X-40818351Y-15492093D01*
X-40732191Y-15607187D01*
X-40732188Y-15607190D01*
X-40617094Y-15693350D01*
X-40617087Y-15693354D01*
X-40482380Y-15743596D01*
X-40482373Y-15743598D01*
X-40422845Y-15749999D01*
X-40422828Y-15750000D01*
X-39725000Y-15750000D01*
X-39725000Y-14911821D01*
X-39705315Y-14844782D01*
X-39652511Y-14799027D01*
X-39583353Y-14789083D01*
X-39564453Y-14793329D01*
X-39542827Y-14800000D01*
X-39441277Y-14800000D01*
X-39441276Y-14800000D01*
X-39367481Y-14788877D01*
X-39298258Y-14798350D01*
X-39245143Y-14843744D01*
X-39225003Y-14910648D01*
X-39225000Y-14911492D01*
X-39225000Y-15750000D01*
X-38527172Y-15750000D01*
X-38527156Y-15749999D01*
X-38467628Y-15743598D01*
X-38467621Y-15743596D01*
X-38332914Y-15693354D01*
X-38332907Y-15693350D01*
X-38217813Y-15607190D01*
X-38217810Y-15607187D01*
X-38131650Y-15492093D01*
X-38131645Y-15492084D01*
X-38102925Y-15415081D01*
X-38061055Y-15359147D01*
X-37995591Y-15334729D01*
X-37927318Y-15349580D01*
X-37895516Y-15374428D01*
X-37886784Y-15383913D01*
X-37886781Y-15383915D01*
X-37886778Y-15383918D01*
X-37703635Y-15526464D01*
X-37703629Y-15526468D01*
X-37703626Y-15526470D01*
X-37499503Y-15636936D01*
X-37385513Y-15676068D01*
X-37279985Y-15712297D01*
X-37279983Y-15712297D01*
X-37279981Y-15712298D01*
X-37051049Y-15750500D01*
X-37051048Y-15750500D01*
X-36818952Y-15750500D01*
X-36818951Y-15750500D01*
X-36590019Y-15712298D01*
X-36370497Y-15636936D01*
X-36166374Y-15526470D01*
X-35983216Y-15383913D01*
X-35903984Y-15297844D01*
X-15275000Y-15297844D01*
X-15268599Y-15357372D01*
X-15268597Y-15357379D01*
X-15218355Y-15492086D01*
X-15218351Y-15492093D01*
X-15132191Y-15607187D01*
X-15132188Y-15607190D01*
X-15017094Y-15693350D01*
X-15017087Y-15693354D01*
X-14882380Y-15743596D01*
X-14882373Y-15743598D01*
X-14822845Y-15749999D01*
X-14822828Y-15750000D01*
X-14125000Y-15750000D01*
X-14125000Y-14911821D01*
X-14105315Y-14844782D01*
X-14052511Y-14799027D01*
X-13983353Y-14789083D01*
X-13964453Y-14793329D01*
X-13942827Y-14800000D01*
X-13841277Y-14800000D01*
X-13841276Y-14800000D01*
X-13767481Y-14788877D01*
X-13698258Y-14798350D01*
X-13645143Y-14843744D01*
X-13625003Y-14910648D01*
X-13625000Y-14911492D01*
X-13625000Y-15750000D01*
X-12927172Y-15750000D01*
X-12927156Y-15749999D01*
X-12867628Y-15743598D01*
X-12867621Y-15743596D01*
X-12732914Y-15693354D01*
X-12732907Y-15693350D01*
X-12617813Y-15607190D01*
X-12617810Y-15607187D01*
X-12531650Y-15492093D01*
X-12531645Y-15492084D01*
X-12502925Y-15415081D01*
X-12461055Y-15359147D01*
X-12395591Y-15334729D01*
X-12327318Y-15349580D01*
X-12295516Y-15374428D01*
X-12286784Y-15383913D01*
X-12286781Y-15383915D01*
X-12286778Y-15383918D01*
X-12103635Y-15526464D01*
X-12103629Y-15526468D01*
X-12103626Y-15526470D01*
X-11899503Y-15636936D01*
X-11785513Y-15676068D01*
X-11679985Y-15712297D01*
X-11679983Y-15712297D01*
X-11679981Y-15712298D01*
X-11451049Y-15750500D01*
X-11451048Y-15750500D01*
X-11218952Y-15750500D01*
X-11218951Y-15750500D01*
X-10990019Y-15712298D01*
X-10770497Y-15636936D01*
X-10566374Y-15526470D01*
X-10383216Y-15383913D01*
X-10303984Y-15297844D01*
X10325000Y-15297844D01*
X10331401Y-15357372D01*
X10331403Y-15357379D01*
X10381645Y-15492086D01*
X10381649Y-15492093D01*
X10467809Y-15607187D01*
X10467812Y-15607190D01*
X10582906Y-15693350D01*
X10582913Y-15693354D01*
X10717620Y-15743596D01*
X10717627Y-15743598D01*
X10777155Y-15749999D01*
X10777172Y-15750000D01*
X11475000Y-15750000D01*
X11475000Y-14911821D01*
X11494685Y-14844782D01*
X11547489Y-14799027D01*
X11616647Y-14789083D01*
X11635547Y-14793329D01*
X11657173Y-14800000D01*
X11758723Y-14800000D01*
X11758724Y-14800000D01*
X11832519Y-14788877D01*
X11901742Y-14798350D01*
X11954857Y-14843744D01*
X11974997Y-14910648D01*
X11975000Y-14911492D01*
X11975000Y-15750000D01*
X12672828Y-15750000D01*
X12672844Y-15749999D01*
X12732372Y-15743598D01*
X12732379Y-15743596D01*
X12867086Y-15693354D01*
X12867093Y-15693350D01*
X12982187Y-15607190D01*
X12982190Y-15607187D01*
X13068350Y-15492093D01*
X13068355Y-15492084D01*
X13097075Y-15415081D01*
X13138945Y-15359147D01*
X13204409Y-15334729D01*
X13272682Y-15349580D01*
X13304484Y-15374428D01*
X13313216Y-15383913D01*
X13313219Y-15383915D01*
X13313222Y-15383918D01*
X13496365Y-15526464D01*
X13496371Y-15526468D01*
X13496374Y-15526470D01*
X13700497Y-15636936D01*
X13814487Y-15676068D01*
X13920015Y-15712297D01*
X13920017Y-15712297D01*
X13920019Y-15712298D01*
X14148951Y-15750500D01*
X14148952Y-15750500D01*
X14381048Y-15750500D01*
X14381049Y-15750500D01*
X14609981Y-15712298D01*
X14829503Y-15636936D01*
X15033626Y-15526470D01*
X15216784Y-15383913D01*
X15296016Y-15297844D01*
X35925000Y-15297844D01*
X35931401Y-15357372D01*
X35931403Y-15357379D01*
X35981645Y-15492086D01*
X35981649Y-15492093D01*
X36067809Y-15607187D01*
X36067812Y-15607190D01*
X36182906Y-15693350D01*
X36182913Y-15693354D01*
X36317620Y-15743596D01*
X36317627Y-15743598D01*
X36377155Y-15749999D01*
X36377172Y-15750000D01*
X37075000Y-15750000D01*
X37075000Y-14911821D01*
X37094685Y-14844782D01*
X37147489Y-14799027D01*
X37216647Y-14789083D01*
X37235547Y-14793329D01*
X37257173Y-14800000D01*
X37358723Y-14800000D01*
X37358724Y-14800000D01*
X37432519Y-14788877D01*
X37501742Y-14798350D01*
X37554857Y-14843744D01*
X37574997Y-14910648D01*
X37575000Y-14911492D01*
X37575000Y-15750000D01*
X38272828Y-15750000D01*
X38272844Y-15749999D01*
X38332372Y-15743598D01*
X38332379Y-15743596D01*
X38467086Y-15693354D01*
X38467093Y-15693350D01*
X38582187Y-15607190D01*
X38582190Y-15607187D01*
X38668350Y-15492093D01*
X38668355Y-15492084D01*
X38697075Y-15415081D01*
X38738945Y-15359147D01*
X38804409Y-15334729D01*
X38872682Y-15349580D01*
X38904484Y-15374428D01*
X38913216Y-15383913D01*
X38913219Y-15383915D01*
X38913222Y-15383918D01*
X39096365Y-15526464D01*
X39096371Y-15526468D01*
X39096374Y-15526470D01*
X39300497Y-15636936D01*
X39414487Y-15676068D01*
X39520015Y-15712297D01*
X39520017Y-15712297D01*
X39520019Y-15712298D01*
X39748951Y-15750500D01*
X39748952Y-15750500D01*
X39981048Y-15750500D01*
X39981049Y-15750500D01*
X40209981Y-15712298D01*
X40429503Y-15636936D01*
X40633626Y-15526470D01*
X40816784Y-15383913D01*
X40973979Y-15213153D01*
X41100924Y-15018849D01*
X41194157Y-14806300D01*
X41251134Y-14581305D01*
X41256524Y-14516260D01*
X41270300Y-14350006D01*
X41270300Y-14349993D01*
X41251135Y-14118702D01*
X41251133Y-14118691D01*
X41194157Y-13893699D01*
X41100924Y-13681151D01*
X40973983Y-13486852D01*
X40973980Y-13486849D01*
X40973979Y-13486847D01*
X40816784Y-13316087D01*
X40816779Y-13316083D01*
X40816777Y-13316081D01*
X40633634Y-13173535D01*
X40633628Y-13173531D01*
X40429504Y-13063064D01*
X40429495Y-13063061D01*
X40209984Y-12987702D01*
X40022404Y-12956401D01*
X39981049Y-12949500D01*
X39748951Y-12949500D01*
X39707596Y-12956401D01*
X39520015Y-12987702D01*
X39300504Y-13063061D01*
X39300495Y-13063064D01*
X39096371Y-13173531D01*
X39096365Y-13173535D01*
X38913222Y-13316081D01*
X38913215Y-13316087D01*
X38904484Y-13325572D01*
X38844595Y-13361561D01*
X38774757Y-13359458D01*
X38717143Y-13319932D01*
X38697075Y-13284918D01*
X38668355Y-13207915D01*
X38668350Y-13207906D01*
X38582190Y-13092812D01*
X38582187Y-13092809D01*
X38467093Y-13006649D01*
X38467086Y-13006645D01*
X38332379Y-12956403D01*
X38332372Y-12956401D01*
X38272844Y-12950000D01*
X37575000Y-12950000D01*
X37575000Y-13788178D01*
X37555315Y-13855217D01*
X37502511Y-13900972D01*
X37433353Y-13910916D01*
X37414454Y-13906670D01*
X37392829Y-13900000D01*
X37392827Y-13900000D01*
X37291276Y-13900000D01*
X37291266Y-13900000D01*
X37217479Y-13911122D01*
X37148255Y-13901649D01*
X37095141Y-13856254D01*
X37075002Y-13789349D01*
X37074999Y-13788507D01*
X37075000Y-12950000D01*
X36377155Y-12950000D01*
X36317627Y-12956401D01*
X36317620Y-12956403D01*
X36182913Y-13006645D01*
X36182906Y-13006649D01*
X36067812Y-13092809D01*
X36067809Y-13092812D01*
X35981649Y-13207906D01*
X35981645Y-13207913D01*
X35931403Y-13342620D01*
X35931401Y-13342627D01*
X35925000Y-13402155D01*
X35925000Y-14100000D01*
X36764997Y-14100000D01*
X36832036Y-14119685D01*
X36877791Y-14172489D01*
X36887735Y-14241647D01*
X36885888Y-14251592D01*
X36871189Y-14315992D01*
X36871189Y-14315993D01*
X36882021Y-14460532D01*
X36879920Y-14460689D01*
X36876405Y-14518139D01*
X36835110Y-14574499D01*
X36769899Y-14599587D01*
X36759784Y-14600000D01*
X35925000Y-14600000D01*
X35925000Y-15297844D01*
X15296016Y-15297844D01*
X15373979Y-15213153D01*
X15500924Y-15018849D01*
X15594157Y-14806300D01*
X15651134Y-14581305D01*
X15656524Y-14516260D01*
X15670300Y-14350006D01*
X15670300Y-14349993D01*
X15651135Y-14118702D01*
X15651133Y-14118691D01*
X15594157Y-13893699D01*
X15500924Y-13681151D01*
X15373983Y-13486852D01*
X15373980Y-13486849D01*
X15373979Y-13486847D01*
X15216784Y-13316087D01*
X15216779Y-13316083D01*
X15216777Y-13316081D01*
X15033634Y-13173535D01*
X15033628Y-13173531D01*
X14829504Y-13063064D01*
X14829495Y-13063061D01*
X14609984Y-12987702D01*
X14422404Y-12956401D01*
X14381049Y-12949500D01*
X14148951Y-12949500D01*
X14107596Y-12956401D01*
X13920015Y-12987702D01*
X13700504Y-13063061D01*
X13700495Y-13063064D01*
X13496371Y-13173531D01*
X13496365Y-13173535D01*
X13313222Y-13316081D01*
X13313215Y-13316087D01*
X13304484Y-13325572D01*
X13244595Y-13361561D01*
X13174757Y-13359458D01*
X13117143Y-13319932D01*
X13097075Y-13284918D01*
X13068355Y-13207915D01*
X13068350Y-13207906D01*
X12982190Y-13092812D01*
X12982187Y-13092809D01*
X12867093Y-13006649D01*
X12867086Y-13006645D01*
X12732379Y-12956403D01*
X12732372Y-12956401D01*
X12672844Y-12950000D01*
X11975000Y-12950000D01*
X11975000Y-13788178D01*
X11955315Y-13855217D01*
X11902511Y-13900972D01*
X11833353Y-13910916D01*
X11814454Y-13906670D01*
X11792829Y-13900000D01*
X11792827Y-13900000D01*
X11691276Y-13900000D01*
X11691268Y-13900000D01*
X11617481Y-13911122D01*
X11548256Y-13901649D01*
X11495143Y-13856254D01*
X11475003Y-13789350D01*
X11475000Y-13788507D01*
X11475000Y-12950000D01*
X10777155Y-12950000D01*
X10717627Y-12956401D01*
X10717620Y-12956403D01*
X10582913Y-13006645D01*
X10582906Y-13006649D01*
X10467812Y-13092809D01*
X10467809Y-13092812D01*
X10381649Y-13207906D01*
X10381645Y-13207913D01*
X10331403Y-13342620D01*
X10331401Y-13342627D01*
X10325000Y-13402155D01*
X10325000Y-14100000D01*
X11164997Y-14100000D01*
X11232036Y-14119685D01*
X11277791Y-14172489D01*
X11287735Y-14241647D01*
X11285888Y-14251592D01*
X11271189Y-14315992D01*
X11271189Y-14315993D01*
X11282021Y-14460532D01*
X11279920Y-14460689D01*
X11276405Y-14518139D01*
X11235110Y-14574499D01*
X11169899Y-14599587D01*
X11159784Y-14600000D01*
X10325000Y-14600000D01*
X10325000Y-15297844D01*
X-10303984Y-15297844D01*
X-10226021Y-15213153D01*
X-10099076Y-15018849D01*
X-10005843Y-14806300D01*
X-9948866Y-14581305D01*
X-9943476Y-14516260D01*
X-9929700Y-14350006D01*
X-9929700Y-14349993D01*
X-9948865Y-14118702D01*
X-9948867Y-14118691D01*
X-10005843Y-13893699D01*
X-10099076Y-13681151D01*
X-10226017Y-13486852D01*
X-10226020Y-13486849D01*
X-10226021Y-13486847D01*
X-10383216Y-13316087D01*
X-10383221Y-13316083D01*
X-10383223Y-13316081D01*
X-10566366Y-13173535D01*
X-10566372Y-13173531D01*
X-10770496Y-13063064D01*
X-10770505Y-13063061D01*
X-10990016Y-12987702D01*
X-11177596Y-12956401D01*
X-11218951Y-12949500D01*
X-11451049Y-12949500D01*
X-11492404Y-12956401D01*
X-11679985Y-12987702D01*
X-11899496Y-13063061D01*
X-11899505Y-13063064D01*
X-12103629Y-13173531D01*
X-12103635Y-13173535D01*
X-12286778Y-13316081D01*
X-12286785Y-13316087D01*
X-12295516Y-13325572D01*
X-12355405Y-13361561D01*
X-12425243Y-13359458D01*
X-12482857Y-13319932D01*
X-12502925Y-13284918D01*
X-12531645Y-13207915D01*
X-12531650Y-13207906D01*
X-12617810Y-13092812D01*
X-12617813Y-13092809D01*
X-12732907Y-13006649D01*
X-12732914Y-13006645D01*
X-12867621Y-12956403D01*
X-12867628Y-12956401D01*
X-12927156Y-12950000D01*
X-13625000Y-12950000D01*
X-13625000Y-13788178D01*
X-13644685Y-13855217D01*
X-13697489Y-13900972D01*
X-13766647Y-13910916D01*
X-13785546Y-13906670D01*
X-13807171Y-13900000D01*
X-13807173Y-13900000D01*
X-13908724Y-13900000D01*
X-13908732Y-13900000D01*
X-13982519Y-13911122D01*
X-14051744Y-13901649D01*
X-14104857Y-13856254D01*
X-14124997Y-13789350D01*
X-14125000Y-13788507D01*
X-14125000Y-12950000D01*
X-14822845Y-12950000D01*
X-14882373Y-12956401D01*
X-14882380Y-12956403D01*
X-15017087Y-13006645D01*
X-15017094Y-13006649D01*
X-15132188Y-13092809D01*
X-15132191Y-13092812D01*
X-15218351Y-13207906D01*
X-15218355Y-13207913D01*
X-15268597Y-13342620D01*
X-15268599Y-13342627D01*
X-15275000Y-13402155D01*
X-15275000Y-14100000D01*
X-14435003Y-14100000D01*
X-14367964Y-14119685D01*
X-14322209Y-14172489D01*
X-14312265Y-14241647D01*
X-14314112Y-14251592D01*
X-14328811Y-14315992D01*
X-14328811Y-14315993D01*
X-14317979Y-14460532D01*
X-14320080Y-14460689D01*
X-14323595Y-14518139D01*
X-14364890Y-14574499D01*
X-14430101Y-14599587D01*
X-14440216Y-14600000D01*
X-15275000Y-14600000D01*
X-15275000Y-15297844D01*
X-35903984Y-15297844D01*
X-35826021Y-15213153D01*
X-35699076Y-15018849D01*
X-35605843Y-14806300D01*
X-35548866Y-14581305D01*
X-35543476Y-14516260D01*
X-35529700Y-14350006D01*
X-35529700Y-14349993D01*
X-35548865Y-14118702D01*
X-35548867Y-14118691D01*
X-35605843Y-13893699D01*
X-35699076Y-13681151D01*
X-35826017Y-13486852D01*
X-35826020Y-13486849D01*
X-35826021Y-13486847D01*
X-35983216Y-13316087D01*
X-35983221Y-13316083D01*
X-35983223Y-13316081D01*
X-36166366Y-13173535D01*
X-36166372Y-13173531D01*
X-36370496Y-13063064D01*
X-36370505Y-13063061D01*
X-36590016Y-12987702D01*
X-36777596Y-12956401D01*
X-36818951Y-12949500D01*
X-37051049Y-12949500D01*
X-37092404Y-12956401D01*
X-37279985Y-12987702D01*
X-37499496Y-13063061D01*
X-37499505Y-13063064D01*
X-37703629Y-13173531D01*
X-37703635Y-13173535D01*
X-37886778Y-13316081D01*
X-37886785Y-13316087D01*
X-37895516Y-13325572D01*
X-37955405Y-13361561D01*
X-38025243Y-13359458D01*
X-38082857Y-13319932D01*
X-38102925Y-13284918D01*
X-38131645Y-13207915D01*
X-38131650Y-13207906D01*
X-38217810Y-13092812D01*
X-38217813Y-13092809D01*
X-38332907Y-13006649D01*
X-38332914Y-13006645D01*
X-38467621Y-12956403D01*
X-38467628Y-12956401D01*
X-38527156Y-12950000D01*
X-39225000Y-12950000D01*
X-39225000Y-13788178D01*
X-39244685Y-13855217D01*
X-39297489Y-13900972D01*
X-39366647Y-13910916D01*
X-39385546Y-13906670D01*
X-39407171Y-13900000D01*
X-39407173Y-13900000D01*
X-39508724Y-13900000D01*
X-39508732Y-13900000D01*
X-39582519Y-13911122D01*
X-39651744Y-13901649D01*
X-39704857Y-13856254D01*
X-39724997Y-13789350D01*
X-39725000Y-13788507D01*
X-39725000Y-12950000D01*
X-40422845Y-12950000D01*
X-40482373Y-12956401D01*
X-40482380Y-12956403D01*
X-40617087Y-13006645D01*
X-40617094Y-13006649D01*
X-40732188Y-13092809D01*
X-40732191Y-13092812D01*
X-40818351Y-13207906D01*
X-40818355Y-13207913D01*
X-40868597Y-13342620D01*
X-40868599Y-13342627D01*
X-40875000Y-13402155D01*
X-40875000Y-14100000D01*
X-40035003Y-14100000D01*
X-39967964Y-14119685D01*
X-39922209Y-14172489D01*
X-39912265Y-14241647D01*
X-39914112Y-14251592D01*
X-39928811Y-14315992D01*
X-39928811Y-14315993D01*
X-39917979Y-14460532D01*
X-39920080Y-14460689D01*
X-39923595Y-14518139D01*
X-39964890Y-14574499D01*
X-40030101Y-14599587D01*
X-40040216Y-14600000D01*
X-40875000Y-14600000D01*
X-40875000Y-15297844D01*
X-42500000Y-15297844D01*
X-42500000Y-5697844D01*
X-40875000Y-5697844D01*
X-40868599Y-5757372D01*
X-40868597Y-5757379D01*
X-40818355Y-5892086D01*
X-40818351Y-5892093D01*
X-40732191Y-6007187D01*
X-40732188Y-6007190D01*
X-40617094Y-6093350D01*
X-40617087Y-6093354D01*
X-40482380Y-6143596D01*
X-40482373Y-6143598D01*
X-40422845Y-6149999D01*
X-40422828Y-6150000D01*
X-39725000Y-6150000D01*
X-39725000Y-5311821D01*
X-39705315Y-5244782D01*
X-39652511Y-5199027D01*
X-39583353Y-5189083D01*
X-39564453Y-5193329D01*
X-39542827Y-5200000D01*
X-39441277Y-5200000D01*
X-39441276Y-5200000D01*
X-39367481Y-5188877D01*
X-39298258Y-5198350D01*
X-39245143Y-5243744D01*
X-39225003Y-5310648D01*
X-39225000Y-5311492D01*
X-39225000Y-6150000D01*
X-38527172Y-6150000D01*
X-38527156Y-6149999D01*
X-38467628Y-6143598D01*
X-38467621Y-6143596D01*
X-38332914Y-6093354D01*
X-38332907Y-6093350D01*
X-38217813Y-6007190D01*
X-38217810Y-6007187D01*
X-38131650Y-5892093D01*
X-38131645Y-5892084D01*
X-38102925Y-5815081D01*
X-38061055Y-5759147D01*
X-37995591Y-5734729D01*
X-37927318Y-5749580D01*
X-37895516Y-5774428D01*
X-37886784Y-5783913D01*
X-37886781Y-5783915D01*
X-37886778Y-5783918D01*
X-37703635Y-5926464D01*
X-37703629Y-5926468D01*
X-37703626Y-5926470D01*
X-37499503Y-6036936D01*
X-37385513Y-6076068D01*
X-37279985Y-6112297D01*
X-37279983Y-6112297D01*
X-37279981Y-6112298D01*
X-37051049Y-6150500D01*
X-37051048Y-6150500D01*
X-36818952Y-6150500D01*
X-36818951Y-6150500D01*
X-36590019Y-6112298D01*
X-36370497Y-6036936D01*
X-36166374Y-5926470D01*
X-35983216Y-5783913D01*
X-35903984Y-5697844D01*
X-15275000Y-5697844D01*
X-15268599Y-5757372D01*
X-15268597Y-5757379D01*
X-15218355Y-5892086D01*
X-15218351Y-5892093D01*
X-15132191Y-6007187D01*
X-15132188Y-6007190D01*
X-15017094Y-6093350D01*
X-15017087Y-6093354D01*
X-14882380Y-6143596D01*
X-14882373Y-6143598D01*
X-14822845Y-6149999D01*
X-14822828Y-6150000D01*
X-14125000Y-6150000D01*
X-14125000Y-5311821D01*
X-14105315Y-5244782D01*
X-14052511Y-5199027D01*
X-13983353Y-5189083D01*
X-13964453Y-5193329D01*
X-13942827Y-5200000D01*
X-13841277Y-5200000D01*
X-13841276Y-5200000D01*
X-13767481Y-5188877D01*
X-13698258Y-5198350D01*
X-13645143Y-5243744D01*
X-13625003Y-5310648D01*
X-13625000Y-5311492D01*
X-13625000Y-6150000D01*
X-12927172Y-6150000D01*
X-12927156Y-6149999D01*
X-12867628Y-6143598D01*
X-12867621Y-6143596D01*
X-12732914Y-6093354D01*
X-12732907Y-6093350D01*
X-12617813Y-6007190D01*
X-12617810Y-6007187D01*
X-12531650Y-5892093D01*
X-12531645Y-5892084D01*
X-12502925Y-5815081D01*
X-12461055Y-5759147D01*
X-12395591Y-5734729D01*
X-12327318Y-5749580D01*
X-12295516Y-5774428D01*
X-12286784Y-5783913D01*
X-12286781Y-5783915D01*
X-12286778Y-5783918D01*
X-12103635Y-5926464D01*
X-12103629Y-5926468D01*
X-12103626Y-5926470D01*
X-11899503Y-6036936D01*
X-11785513Y-6076068D01*
X-11679985Y-6112297D01*
X-11679983Y-6112297D01*
X-11679981Y-6112298D01*
X-11451049Y-6150500D01*
X-11451048Y-6150500D01*
X-11218952Y-6150500D01*
X-11218951Y-6150500D01*
X-10990019Y-6112298D01*
X-10770497Y-6036936D01*
X-10566374Y-5926470D01*
X-10383216Y-5783913D01*
X-10303984Y-5697844D01*
X10325000Y-5697844D01*
X10331401Y-5757372D01*
X10331403Y-5757379D01*
X10381645Y-5892086D01*
X10381649Y-5892093D01*
X10467809Y-6007187D01*
X10467812Y-6007190D01*
X10582906Y-6093350D01*
X10582913Y-6093354D01*
X10717620Y-6143596D01*
X10717627Y-6143598D01*
X10777155Y-6149999D01*
X10777172Y-6150000D01*
X11475000Y-6150000D01*
X11475000Y-5311821D01*
X11494685Y-5244782D01*
X11547489Y-5199027D01*
X11616647Y-5189083D01*
X11635547Y-5193329D01*
X11657173Y-5200000D01*
X11758723Y-5200000D01*
X11758724Y-5200000D01*
X11832519Y-5188877D01*
X11901742Y-5198350D01*
X11954857Y-5243744D01*
X11974997Y-5310648D01*
X11975000Y-5311492D01*
X11975000Y-6150000D01*
X12672828Y-6150000D01*
X12672844Y-6149999D01*
X12732372Y-6143598D01*
X12732379Y-6143596D01*
X12867086Y-6093354D01*
X12867093Y-6093350D01*
X12982187Y-6007190D01*
X12982190Y-6007187D01*
X13068350Y-5892093D01*
X13068355Y-5892084D01*
X13097075Y-5815081D01*
X13138945Y-5759147D01*
X13204409Y-5734729D01*
X13272682Y-5749580D01*
X13304484Y-5774428D01*
X13313216Y-5783913D01*
X13313219Y-5783915D01*
X13313222Y-5783918D01*
X13496365Y-5926464D01*
X13496371Y-5926468D01*
X13496374Y-5926470D01*
X13700497Y-6036936D01*
X13814487Y-6076068D01*
X13920015Y-6112297D01*
X13920017Y-6112297D01*
X13920019Y-6112298D01*
X14148951Y-6150500D01*
X14148952Y-6150500D01*
X14381048Y-6150500D01*
X14381049Y-6150500D01*
X14609981Y-6112298D01*
X14829503Y-6036936D01*
X15033626Y-5926470D01*
X15216784Y-5783913D01*
X15296016Y-5697844D01*
X35925000Y-5697844D01*
X35931401Y-5757372D01*
X35931403Y-5757379D01*
X35981645Y-5892086D01*
X35981649Y-5892093D01*
X36067809Y-6007187D01*
X36067812Y-6007190D01*
X36182906Y-6093350D01*
X36182913Y-6093354D01*
X36317620Y-6143596D01*
X36317627Y-6143598D01*
X36377155Y-6149999D01*
X36377172Y-6150000D01*
X37075000Y-6150000D01*
X37075000Y-5311821D01*
X37094685Y-5244782D01*
X37147489Y-5199027D01*
X37216647Y-5189083D01*
X37235547Y-5193329D01*
X37257173Y-5200000D01*
X37358723Y-5200000D01*
X37358724Y-5200000D01*
X37432519Y-5188877D01*
X37501742Y-5198350D01*
X37554857Y-5243744D01*
X37574997Y-5310648D01*
X37575000Y-5311492D01*
X37575000Y-6150000D01*
X38272828Y-6150000D01*
X38272844Y-6149999D01*
X38332372Y-6143598D01*
X38332379Y-6143596D01*
X38467086Y-6093354D01*
X38467093Y-6093350D01*
X38582187Y-6007190D01*
X38582190Y-6007187D01*
X38668350Y-5892093D01*
X38668355Y-5892084D01*
X38697075Y-5815081D01*
X38738945Y-5759147D01*
X38804409Y-5734729D01*
X38872682Y-5749580D01*
X38904484Y-5774428D01*
X38913216Y-5783913D01*
X38913219Y-5783915D01*
X38913222Y-5783918D01*
X39096365Y-5926464D01*
X39096371Y-5926468D01*
X39096374Y-5926470D01*
X39300497Y-6036936D01*
X39414487Y-6076068D01*
X39520015Y-6112297D01*
X39520017Y-6112297D01*
X39520019Y-6112298D01*
X39748951Y-6150500D01*
X39748952Y-6150500D01*
X39981048Y-6150500D01*
X39981049Y-6150500D01*
X40209981Y-6112298D01*
X40429503Y-6036936D01*
X40633626Y-5926470D01*
X40816784Y-5783913D01*
X40973979Y-5613153D01*
X41100924Y-5418849D01*
X41194157Y-5206300D01*
X41251134Y-4981305D01*
X41256524Y-4916260D01*
X41270300Y-4750006D01*
X41270300Y-4749993D01*
X41251135Y-4518702D01*
X41251133Y-4518691D01*
X41194157Y-4293699D01*
X41100924Y-4081151D01*
X40973983Y-3886852D01*
X40973980Y-3886849D01*
X40973979Y-3886847D01*
X40816784Y-3716087D01*
X40816779Y-3716083D01*
X40816777Y-3716081D01*
X40633634Y-3573535D01*
X40633628Y-3573531D01*
X40429504Y-3463064D01*
X40429495Y-3463061D01*
X40209984Y-3387702D01*
X40022404Y-3356401D01*
X39981049Y-3349500D01*
X39748951Y-3349500D01*
X39707596Y-3356401D01*
X39520015Y-3387702D01*
X39300504Y-3463061D01*
X39300495Y-3463064D01*
X39096371Y-3573531D01*
X39096365Y-3573535D01*
X38913222Y-3716081D01*
X38913215Y-3716087D01*
X38904484Y-3725572D01*
X38844595Y-3761561D01*
X38774757Y-3759458D01*
X38717143Y-3719932D01*
X38697075Y-3684918D01*
X38668355Y-3607915D01*
X38668350Y-3607906D01*
X38582190Y-3492812D01*
X38582187Y-3492809D01*
X38467093Y-3406649D01*
X38467086Y-3406645D01*
X38332379Y-3356403D01*
X38332372Y-3356401D01*
X38272844Y-3350000D01*
X37575000Y-3350000D01*
X37575000Y-4188178D01*
X37555315Y-4255217D01*
X37502511Y-4300972D01*
X37433353Y-4310916D01*
X37414454Y-4306670D01*
X37392829Y-4300000D01*
X37392827Y-4300000D01*
X37291276Y-4300000D01*
X37291266Y-4300000D01*
X37217479Y-4311122D01*
X37148255Y-4301649D01*
X37095141Y-4256254D01*
X37075002Y-4189349D01*
X37074999Y-4188507D01*
X37075000Y-3350000D01*
X36377155Y-3350000D01*
X36317627Y-3356401D01*
X36317620Y-3356403D01*
X36182913Y-3406645D01*
X36182906Y-3406649D01*
X36067812Y-3492809D01*
X36067809Y-3492812D01*
X35981649Y-3607906D01*
X35981645Y-3607913D01*
X35931403Y-3742620D01*
X35931401Y-3742627D01*
X35925000Y-3802155D01*
X35925000Y-4500000D01*
X36764997Y-4500000D01*
X36832036Y-4519685D01*
X36877791Y-4572489D01*
X36887735Y-4641647D01*
X36885888Y-4651592D01*
X36871189Y-4715992D01*
X36871189Y-4715993D01*
X36882021Y-4860532D01*
X36879920Y-4860689D01*
X36876405Y-4918139D01*
X36835110Y-4974499D01*
X36769899Y-4999587D01*
X36759784Y-5000000D01*
X35925000Y-5000000D01*
X35925000Y-5697844D01*
X15296016Y-5697844D01*
X15373979Y-5613153D01*
X15500924Y-5418849D01*
X15594157Y-5206300D01*
X15651134Y-4981305D01*
X15656524Y-4916260D01*
X15670300Y-4750006D01*
X15670300Y-4749993D01*
X15651135Y-4518702D01*
X15651133Y-4518691D01*
X15594157Y-4293699D01*
X15500924Y-4081151D01*
X15373983Y-3886852D01*
X15373980Y-3886849D01*
X15373979Y-3886847D01*
X15216784Y-3716087D01*
X15216779Y-3716083D01*
X15216777Y-3716081D01*
X15033634Y-3573535D01*
X15033628Y-3573531D01*
X14829504Y-3463064D01*
X14829495Y-3463061D01*
X14609984Y-3387702D01*
X14422404Y-3356401D01*
X14381049Y-3349500D01*
X14148951Y-3349500D01*
X14107596Y-3356401D01*
X13920015Y-3387702D01*
X13700504Y-3463061D01*
X13700495Y-3463064D01*
X13496371Y-3573531D01*
X13496365Y-3573535D01*
X13313222Y-3716081D01*
X13313215Y-3716087D01*
X13304484Y-3725572D01*
X13244595Y-3761561D01*
X13174757Y-3759458D01*
X13117143Y-3719932D01*
X13097075Y-3684918D01*
X13068355Y-3607915D01*
X13068350Y-3607906D01*
X12982190Y-3492812D01*
X12982187Y-3492809D01*
X12867093Y-3406649D01*
X12867086Y-3406645D01*
X12732379Y-3356403D01*
X12732372Y-3356401D01*
X12672844Y-3350000D01*
X11975000Y-3350000D01*
X11975000Y-4188178D01*
X11955315Y-4255217D01*
X11902511Y-4300972D01*
X11833353Y-4310916D01*
X11814454Y-4306670D01*
X11792829Y-4300000D01*
X11792827Y-4300000D01*
X11691276Y-4300000D01*
X11691268Y-4300000D01*
X11617481Y-4311122D01*
X11548256Y-4301649D01*
X11495143Y-4256254D01*
X11475003Y-4189350D01*
X11475000Y-4188507D01*
X11475000Y-3350000D01*
X10777155Y-3350000D01*
X10717627Y-3356401D01*
X10717620Y-3356403D01*
X10582913Y-3406645D01*
X10582906Y-3406649D01*
X10467812Y-3492809D01*
X10467809Y-3492812D01*
X10381649Y-3607906D01*
X10381645Y-3607913D01*
X10331403Y-3742620D01*
X10331401Y-3742627D01*
X10325000Y-3802155D01*
X10325000Y-4500000D01*
X11164997Y-4500000D01*
X11232036Y-4519685D01*
X11277791Y-4572489D01*
X11287735Y-4641647D01*
X11285888Y-4651592D01*
X11271189Y-4715992D01*
X11271189Y-4715993D01*
X11282021Y-4860532D01*
X11279920Y-4860689D01*
X11276405Y-4918139D01*
X11235110Y-4974499D01*
X11169899Y-4999587D01*
X11159784Y-5000000D01*
X10325000Y-5000000D01*
X10325000Y-5697844D01*
X-10303984Y-5697844D01*
X-10226021Y-5613153D01*
X-10099076Y-5418849D01*
X-10005843Y-5206300D01*
X-9948866Y-4981305D01*
X-9943476Y-4916260D01*
X-9929700Y-4750006D01*
X-9929700Y-4749993D01*
X-9948865Y-4518702D01*
X-9948867Y-4518691D01*
X-10005843Y-4293699D01*
X-10099076Y-4081151D01*
X-10226017Y-3886852D01*
X-10226020Y-3886849D01*
X-10226021Y-3886847D01*
X-10383216Y-3716087D01*
X-10383221Y-3716083D01*
X-10383223Y-3716081D01*
X-10566366Y-3573535D01*
X-10566372Y-3573531D01*
X-10770496Y-3463064D01*
X-10770505Y-3463061D01*
X-10990016Y-3387702D01*
X-11177596Y-3356401D01*
X-11218951Y-3349500D01*
X-11451049Y-3349500D01*
X-11492404Y-3356401D01*
X-11679985Y-3387702D01*
X-11899496Y-3463061D01*
X-11899505Y-3463064D01*
X-12103629Y-3573531D01*
X-12103635Y-3573535D01*
X-12286778Y-3716081D01*
X-12286785Y-3716087D01*
X-12295516Y-3725572D01*
X-12355405Y-3761561D01*
X-12425243Y-3759458D01*
X-12482857Y-3719932D01*
X-12502925Y-3684918D01*
X-12531645Y-3607915D01*
X-12531650Y-3607906D01*
X-12617810Y-3492812D01*
X-12617813Y-3492809D01*
X-12732907Y-3406649D01*
X-12732914Y-3406645D01*
X-12867621Y-3356403D01*
X-12867628Y-3356401D01*
X-12927156Y-3350000D01*
X-13625000Y-3350000D01*
X-13625000Y-4188178D01*
X-13644685Y-4255217D01*
X-13697489Y-4300972D01*
X-13766647Y-4310916D01*
X-13785546Y-4306670D01*
X-13807171Y-4300000D01*
X-13807173Y-4300000D01*
X-13908724Y-4300000D01*
X-13908732Y-4300000D01*
X-13982519Y-4311122D01*
X-14051744Y-4301649D01*
X-14104857Y-4256254D01*
X-14124997Y-4189350D01*
X-14125000Y-4188507D01*
X-14125000Y-3350000D01*
X-14822845Y-3350000D01*
X-14882373Y-3356401D01*
X-14882380Y-3356403D01*
X-15017087Y-3406645D01*
X-15017094Y-3406649D01*
X-15132188Y-3492809D01*
X-15132191Y-3492812D01*
X-15218351Y-3607906D01*
X-15218355Y-3607913D01*
X-15268597Y-3742620D01*
X-15268599Y-3742627D01*
X-15275000Y-3802155D01*
X-15275000Y-4500000D01*
X-14435003Y-4500000D01*
X-14367964Y-4519685D01*
X-14322209Y-4572489D01*
X-14312265Y-4641647D01*
X-14314112Y-4651592D01*
X-14328811Y-4715992D01*
X-14328811Y-4715993D01*
X-14317979Y-4860532D01*
X-14320080Y-4860689D01*
X-14323595Y-4918139D01*
X-14364890Y-4974499D01*
X-14430101Y-4999587D01*
X-14440216Y-5000000D01*
X-15275000Y-5000000D01*
X-15275000Y-5697844D01*
X-35903984Y-5697844D01*
X-35826021Y-5613153D01*
X-35699076Y-5418849D01*
X-35605843Y-5206300D01*
X-35548866Y-4981305D01*
X-35543476Y-4916260D01*
X-35529700Y-4750006D01*
X-35529700Y-4749993D01*
X-35548865Y-4518702D01*
X-35548867Y-4518691D01*
X-35605843Y-4293699D01*
X-35699076Y-4081151D01*
X-35826017Y-3886852D01*
X-35826020Y-3886849D01*
X-35826021Y-3886847D01*
X-35983216Y-3716087D01*
X-35983221Y-3716083D01*
X-35983223Y-3716081D01*
X-36166366Y-3573535D01*
X-36166372Y-3573531D01*
X-36370496Y-3463064D01*
X-36370505Y-3463061D01*
X-36590016Y-3387702D01*
X-36777596Y-3356401D01*
X-36818951Y-3349500D01*
X-37051049Y-3349500D01*
X-37092404Y-3356401D01*
X-37279985Y-3387702D01*
X-37499496Y-3463061D01*
X-37499505Y-3463064D01*
X-37703629Y-3573531D01*
X-37703635Y-3573535D01*
X-37886778Y-3716081D01*
X-37886785Y-3716087D01*
X-37895516Y-3725572D01*
X-37955405Y-3761561D01*
X-38025243Y-3759458D01*
X-38082857Y-3719932D01*
X-38102925Y-3684918D01*
X-38131645Y-3607915D01*
X-38131650Y-3607906D01*
X-38217810Y-3492812D01*
X-38217813Y-3492809D01*
X-38332907Y-3406649D01*
X-38332914Y-3406645D01*
X-38467621Y-3356403D01*
X-38467628Y-3356401D01*
X-38527156Y-3350000D01*
X-39225000Y-3350000D01*
X-39225000Y-4188178D01*
X-39244685Y-4255217D01*
X-39297489Y-4300972D01*
X-39366647Y-4310916D01*
X-39385546Y-4306670D01*
X-39407171Y-4300000D01*
X-39407173Y-4300000D01*
X-39508724Y-4300000D01*
X-39508732Y-4300000D01*
X-39582519Y-4311122D01*
X-39651744Y-4301649D01*
X-39704857Y-4256254D01*
X-39724997Y-4189350D01*
X-39725000Y-4188507D01*
X-39725000Y-3350000D01*
X-40422845Y-3350000D01*
X-40482373Y-3356401D01*
X-40482380Y-3356403D01*
X-40617087Y-3406645D01*
X-40617094Y-3406649D01*
X-40732188Y-3492809D01*
X-40732191Y-3492812D01*
X-40818351Y-3607906D01*
X-40818355Y-3607913D01*
X-40868597Y-3742620D01*
X-40868599Y-3742627D01*
X-40875000Y-3802155D01*
X-40875000Y-4500000D01*
X-40035003Y-4500000D01*
X-39967964Y-4519685D01*
X-39922209Y-4572489D01*
X-39912265Y-4641647D01*
X-39914112Y-4651592D01*
X-39928811Y-4715992D01*
X-39928811Y-4715993D01*
X-39917979Y-4860532D01*
X-39920080Y-4860689D01*
X-39923595Y-4918139D01*
X-39964890Y-4974499D01*
X-40030101Y-4999587D01*
X-40040216Y-5000000D01*
X-40875000Y-5000000D01*
X-40875000Y-5697844D01*
X-42500000Y-5697844D01*
X-42500000Y3902156D01*
X-40875000Y3902156D01*
X-40868599Y3842628D01*
X-40868597Y3842621D01*
X-40818355Y3707914D01*
X-40818351Y3707907D01*
X-40732191Y3592813D01*
X-40732188Y3592810D01*
X-40617094Y3506650D01*
X-40617087Y3506646D01*
X-40482380Y3456404D01*
X-40482373Y3456402D01*
X-40422845Y3450001D01*
X-40422828Y3450000D01*
X-39725000Y3450000D01*
X-39725000Y4288179D01*
X-39705315Y4355218D01*
X-39652511Y4400973D01*
X-39583353Y4410917D01*
X-39564453Y4406671D01*
X-39542827Y4400000D01*
X-39441277Y4400000D01*
X-39441276Y4400000D01*
X-39367481Y4411123D01*
X-39298258Y4401650D01*
X-39245143Y4356256D01*
X-39225003Y4289352D01*
X-39225000Y4288508D01*
X-39225000Y3450000D01*
X-38527172Y3450000D01*
X-38527156Y3450001D01*
X-38467628Y3456402D01*
X-38467621Y3456404D01*
X-38332914Y3506646D01*
X-38332907Y3506650D01*
X-38217813Y3592810D01*
X-38217810Y3592813D01*
X-38131650Y3707907D01*
X-38131645Y3707916D01*
X-38102925Y3784919D01*
X-38061055Y3840853D01*
X-37995591Y3865271D01*
X-37927318Y3850420D01*
X-37895516Y3825572D01*
X-37886784Y3816087D01*
X-37886781Y3816085D01*
X-37886778Y3816082D01*
X-37703635Y3673536D01*
X-37703629Y3673532D01*
X-37703626Y3673530D01*
X-37499503Y3563064D01*
X-37385513Y3523932D01*
X-37279985Y3487703D01*
X-37279983Y3487703D01*
X-37279981Y3487702D01*
X-37051049Y3449500D01*
X-37051048Y3449500D01*
X-36818952Y3449500D01*
X-36818951Y3449500D01*
X-36590019Y3487702D01*
X-36370497Y3563064D01*
X-36166374Y3673530D01*
X-35983216Y3816087D01*
X-35903984Y3902156D01*
X-15275000Y3902156D01*
X-15268599Y3842628D01*
X-15268597Y3842621D01*
X-15218355Y3707914D01*
X-15218351Y3707907D01*
X-15132191Y3592813D01*
X-15132188Y3592810D01*
X-15017094Y3506650D01*
X-15017087Y3506646D01*
X-14882380Y3456404D01*
X-14882373Y3456402D01*
X-14822845Y3450001D01*
X-14822828Y3450000D01*
X-14125000Y3450000D01*
X-14125000Y4288179D01*
X-14105315Y4355218D01*
X-14052511Y4400973D01*
X-13983353Y4410917D01*
X-13964453Y4406671D01*
X-13942827Y4400000D01*
X-13841277Y4400000D01*
X-13841276Y4400000D01*
X-13767481Y4411123D01*
X-13698258Y4401650D01*
X-13645143Y4356256D01*
X-13625003Y4289352D01*
X-13625000Y4288508D01*
X-13625000Y3450000D01*
X-12927172Y3450000D01*
X-12927156Y3450001D01*
X-12867628Y3456402D01*
X-12867621Y3456404D01*
X-12732914Y3506646D01*
X-12732907Y3506650D01*
X-12617813Y3592810D01*
X-12617810Y3592813D01*
X-12531650Y3707907D01*
X-12531645Y3707916D01*
X-12502925Y3784919D01*
X-12461055Y3840853D01*
X-12395591Y3865271D01*
X-12327318Y3850420D01*
X-12295516Y3825572D01*
X-12286784Y3816087D01*
X-12286781Y3816085D01*
X-12286778Y3816082D01*
X-12103635Y3673536D01*
X-12103629Y3673532D01*
X-12103626Y3673530D01*
X-11899503Y3563064D01*
X-11785513Y3523932D01*
X-11679985Y3487703D01*
X-11679983Y3487703D01*
X-11679981Y3487702D01*
X-11451049Y3449500D01*
X-11451048Y3449500D01*
X-11218952Y3449500D01*
X-11218951Y3449500D01*
X-10990019Y3487702D01*
X-10770497Y3563064D01*
X-10566374Y3673530D01*
X-10383216Y3816087D01*
X-10303984Y3902156D01*
X10325000Y3902156D01*
X10331401Y3842628D01*
X10331403Y3842621D01*
X10381645Y3707914D01*
X10381649Y3707907D01*
X10467809Y3592813D01*
X10467812Y3592810D01*
X10582906Y3506650D01*
X10582913Y3506646D01*
X10717620Y3456404D01*
X10717627Y3456402D01*
X10777155Y3450001D01*
X10777172Y3450000D01*
X11475000Y3450000D01*
X11475000Y4288179D01*
X11494685Y4355218D01*
X11547489Y4400973D01*
X11616647Y4410917D01*
X11635547Y4406671D01*
X11657173Y4400000D01*
X11758723Y4400000D01*
X11758724Y4400000D01*
X11832519Y4411123D01*
X11901742Y4401650D01*
X11954857Y4356256D01*
X11974997Y4289352D01*
X11975000Y4288508D01*
X11975000Y3450000D01*
X12672828Y3450000D01*
X12672844Y3450001D01*
X12732372Y3456402D01*
X12732379Y3456404D01*
X12867086Y3506646D01*
X12867093Y3506650D01*
X12982187Y3592810D01*
X12982190Y3592813D01*
X13068350Y3707907D01*
X13068355Y3707916D01*
X13097075Y3784919D01*
X13138945Y3840853D01*
X13204409Y3865271D01*
X13272682Y3850420D01*
X13304484Y3825572D01*
X13313216Y3816087D01*
X13313219Y3816085D01*
X13313222Y3816082D01*
X13496365Y3673536D01*
X13496371Y3673532D01*
X13496374Y3673530D01*
X13700497Y3563064D01*
X13814487Y3523932D01*
X13920015Y3487703D01*
X13920017Y3487703D01*
X13920019Y3487702D01*
X14148951Y3449500D01*
X14148952Y3449500D01*
X14381048Y3449500D01*
X14381049Y3449500D01*
X14609981Y3487702D01*
X14829503Y3563064D01*
X15033626Y3673530D01*
X15216784Y3816087D01*
X15296016Y3902156D01*
X35925000Y3902156D01*
X35931401Y3842628D01*
X35931403Y3842621D01*
X35981645Y3707914D01*
X35981649Y3707907D01*
X36067809Y3592813D01*
X36067812Y3592810D01*
X36182906Y3506650D01*
X36182913Y3506646D01*
X36317620Y3456404D01*
X36317627Y3456402D01*
X36377155Y3450001D01*
X36377172Y3450000D01*
X37075000Y3450000D01*
X37075000Y4288179D01*
X37094685Y4355218D01*
X37147489Y4400973D01*
X37216647Y4410917D01*
X37235547Y4406671D01*
X37257173Y4400000D01*
X37358723Y4400000D01*
X37358724Y4400000D01*
X37432519Y4411123D01*
X37501742Y4401650D01*
X37554857Y4356256D01*
X37574997Y4289352D01*
X37575000Y4288508D01*
X37575000Y3450000D01*
X38272828Y3450000D01*
X38272844Y3450001D01*
X38332372Y3456402D01*
X38332379Y3456404D01*
X38467086Y3506646D01*
X38467093Y3506650D01*
X38582187Y3592810D01*
X38582190Y3592813D01*
X38668350Y3707907D01*
X38668355Y3707916D01*
X38697075Y3784919D01*
X38738945Y3840853D01*
X38804409Y3865271D01*
X38872682Y3850420D01*
X38904484Y3825572D01*
X38913216Y3816087D01*
X38913219Y3816085D01*
X38913222Y3816082D01*
X39096365Y3673536D01*
X39096371Y3673532D01*
X39096374Y3673530D01*
X39300497Y3563064D01*
X39414487Y3523932D01*
X39520015Y3487703D01*
X39520017Y3487703D01*
X39520019Y3487702D01*
X39748951Y3449500D01*
X39748952Y3449500D01*
X39981048Y3449500D01*
X39981049Y3449500D01*
X40209981Y3487702D01*
X40429503Y3563064D01*
X40633626Y3673530D01*
X40816784Y3816087D01*
X40973979Y3986847D01*
X41100924Y4181151D01*
X41194157Y4393700D01*
X41251134Y4618695D01*
X41256524Y4683740D01*
X41270300Y4849994D01*
X41270300Y4850007D01*
X41251135Y5081298D01*
X41251133Y5081309D01*
X41194157Y5306301D01*
X41100924Y5518849D01*
X40973983Y5713148D01*
X40973980Y5713151D01*
X40973979Y5713153D01*
X40816784Y5883913D01*
X40816779Y5883917D01*
X40816777Y5883919D01*
X40633634Y6026465D01*
X40633628Y6026469D01*
X40429504Y6136936D01*
X40429495Y6136939D01*
X40209984Y6212298D01*
X40022404Y6243599D01*
X39981049Y6250500D01*
X39748951Y6250500D01*
X39707596Y6243599D01*
X39520015Y6212298D01*
X39300504Y6136939D01*
X39300495Y6136936D01*
X39096371Y6026469D01*
X39096365Y6026465D01*
X38913222Y5883919D01*
X38913215Y5883913D01*
X38904484Y5874428D01*
X38844595Y5838439D01*
X38774757Y5840542D01*
X38717143Y5880068D01*
X38697075Y5915082D01*
X38668355Y5992085D01*
X38668350Y5992094D01*
X38582190Y6107188D01*
X38582187Y6107191D01*
X38467093Y6193351D01*
X38467086Y6193355D01*
X38332379Y6243597D01*
X38332372Y6243599D01*
X38272844Y6250000D01*
X37575000Y6250000D01*
X37575000Y5411822D01*
X37555315Y5344783D01*
X37502511Y5299028D01*
X37433353Y5289084D01*
X37414454Y5293330D01*
X37392829Y5300000D01*
X37392827Y5300000D01*
X37291276Y5300000D01*
X37291266Y5300000D01*
X37217479Y5288878D01*
X37148255Y5298351D01*
X37095141Y5343746D01*
X37075002Y5410651D01*
X37074999Y5411493D01*
X37075000Y6250000D01*
X36377155Y6250000D01*
X36317627Y6243599D01*
X36317620Y6243597D01*
X36182913Y6193355D01*
X36182906Y6193351D01*
X36067812Y6107191D01*
X36067809Y6107188D01*
X35981649Y5992094D01*
X35981645Y5992087D01*
X35931403Y5857380D01*
X35931401Y5857373D01*
X35925000Y5797845D01*
X35925000Y5100000D01*
X36764997Y5100000D01*
X36832036Y5080315D01*
X36877791Y5027511D01*
X36887735Y4958353D01*
X36885888Y4948408D01*
X36871189Y4884008D01*
X36871189Y4884007D01*
X36882021Y4739468D01*
X36879920Y4739311D01*
X36876405Y4681861D01*
X36835110Y4625501D01*
X36769899Y4600413D01*
X36759784Y4600000D01*
X35925000Y4600000D01*
X35925000Y3902156D01*
X15296016Y3902156D01*
X15373979Y3986847D01*
X15500924Y4181151D01*
X15594157Y4393700D01*
X15651134Y4618695D01*
X15656524Y4683740D01*
X15670300Y4849994D01*
X15670300Y4850007D01*
X15651135Y5081298D01*
X15651133Y5081309D01*
X15594157Y5306301D01*
X15500924Y5518849D01*
X15373983Y5713148D01*
X15373980Y5713151D01*
X15373979Y5713153D01*
X15216784Y5883913D01*
X15216779Y5883917D01*
X15216777Y5883919D01*
X15033634Y6026465D01*
X15033628Y6026469D01*
X14829504Y6136936D01*
X14829495Y6136939D01*
X14609984Y6212298D01*
X14422404Y6243599D01*
X14381049Y6250500D01*
X14148951Y6250500D01*
X14107596Y6243599D01*
X13920015Y6212298D01*
X13700504Y6136939D01*
X13700495Y6136936D01*
X13496371Y6026469D01*
X13496365Y6026465D01*
X13313222Y5883919D01*
X13313215Y5883913D01*
X13304484Y5874428D01*
X13244595Y5838439D01*
X13174757Y5840542D01*
X13117143Y5880068D01*
X13097075Y5915082D01*
X13068355Y5992085D01*
X13068350Y5992094D01*
X12982190Y6107188D01*
X12982187Y6107191D01*
X12867093Y6193351D01*
X12867086Y6193355D01*
X12732379Y6243597D01*
X12732372Y6243599D01*
X12672844Y6250000D01*
X11975000Y6250000D01*
X11975000Y5411822D01*
X11955315Y5344783D01*
X11902511Y5299028D01*
X11833353Y5289084D01*
X11814454Y5293330D01*
X11792829Y5300000D01*
X11792827Y5300000D01*
X11691276Y5300000D01*
X11691268Y5300000D01*
X11617481Y5288878D01*
X11548256Y5298351D01*
X11495143Y5343746D01*
X11475003Y5410650D01*
X11475000Y5411493D01*
X11475000Y6250000D01*
X10777155Y6250000D01*
X10717627Y6243599D01*
X10717620Y6243597D01*
X10582913Y6193355D01*
X10582906Y6193351D01*
X10467812Y6107191D01*
X10467809Y6107188D01*
X10381649Y5992094D01*
X10381645Y5992087D01*
X10331403Y5857380D01*
X10331401Y5857373D01*
X10325000Y5797845D01*
X10325000Y5100000D01*
X11164997Y5100000D01*
X11232036Y5080315D01*
X11277791Y5027511D01*
X11287735Y4958353D01*
X11285888Y4948408D01*
X11271189Y4884008D01*
X11271189Y4884007D01*
X11282021Y4739468D01*
X11279920Y4739311D01*
X11276405Y4681861D01*
X11235110Y4625501D01*
X11169899Y4600413D01*
X11159784Y4600000D01*
X10325000Y4600000D01*
X10325000Y3902156D01*
X-10303984Y3902156D01*
X-10226021Y3986847D01*
X-10099076Y4181151D01*
X-10005843Y4393700D01*
X-9948866Y4618695D01*
X-9943476Y4683740D01*
X-9929700Y4849994D01*
X-9929700Y4850007D01*
X-9948865Y5081298D01*
X-9948867Y5081309D01*
X-10005843Y5306301D01*
X-10099076Y5518849D01*
X-10226017Y5713148D01*
X-10226020Y5713151D01*
X-10226021Y5713153D01*
X-10383216Y5883913D01*
X-10383221Y5883917D01*
X-10383223Y5883919D01*
X-10566366Y6026465D01*
X-10566372Y6026469D01*
X-10770496Y6136936D01*
X-10770505Y6136939D01*
X-10990016Y6212298D01*
X-11177596Y6243599D01*
X-11218951Y6250500D01*
X-11451049Y6250500D01*
X-11492404Y6243599D01*
X-11679985Y6212298D01*
X-11899496Y6136939D01*
X-11899505Y6136936D01*
X-12103629Y6026469D01*
X-12103635Y6026465D01*
X-12286778Y5883919D01*
X-12286785Y5883913D01*
X-12295516Y5874428D01*
X-12355405Y5838439D01*
X-12425243Y5840542D01*
X-12482857Y5880068D01*
X-12502925Y5915082D01*
X-12531645Y5992085D01*
X-12531650Y5992094D01*
X-12617810Y6107188D01*
X-12617813Y6107191D01*
X-12732907Y6193351D01*
X-12732914Y6193355D01*
X-12867621Y6243597D01*
X-12867628Y6243599D01*
X-12927156Y6250000D01*
X-13625000Y6250000D01*
X-13625000Y5411822D01*
X-13644685Y5344783D01*
X-13697489Y5299028D01*
X-13766647Y5289084D01*
X-13785546Y5293330D01*
X-13807171Y5300000D01*
X-13807173Y5300000D01*
X-13908724Y5300000D01*
X-13908732Y5300000D01*
X-13982519Y5288878D01*
X-14051744Y5298351D01*
X-14104857Y5343746D01*
X-14124997Y5410650D01*
X-14125000Y5411493D01*
X-14125000Y6250000D01*
X-14822845Y6250000D01*
X-14882373Y6243599D01*
X-14882380Y6243597D01*
X-15017087Y6193355D01*
X-15017094Y6193351D01*
X-15132188Y6107191D01*
X-15132191Y6107188D01*
X-15218351Y5992094D01*
X-15218355Y5992087D01*
X-15268597Y5857380D01*
X-15268599Y5857373D01*
X-15275000Y5797845D01*
X-15275000Y5100000D01*
X-14435003Y5100000D01*
X-14367964Y5080315D01*
X-14322209Y5027511D01*
X-14312265Y4958353D01*
X-14314112Y4948408D01*
X-14328811Y4884008D01*
X-14328811Y4884007D01*
X-14317979Y4739468D01*
X-14320080Y4739311D01*
X-14323595Y4681861D01*
X-14364890Y4625501D01*
X-14430101Y4600413D01*
X-14440216Y4600000D01*
X-15275000Y4600000D01*
X-15275000Y3902156D01*
X-35903984Y3902156D01*
X-35826021Y3986847D01*
X-35699076Y4181151D01*
X-35605843Y4393700D01*
X-35548866Y4618695D01*
X-35543476Y4683740D01*
X-35529700Y4849994D01*
X-35529700Y4850007D01*
X-35548865Y5081298D01*
X-35548867Y5081309D01*
X-35605843Y5306301D01*
X-35699076Y5518849D01*
X-35826017Y5713148D01*
X-35826020Y5713151D01*
X-35826021Y5713153D01*
X-35983216Y5883913D01*
X-35983221Y5883917D01*
X-35983223Y5883919D01*
X-36166366Y6026465D01*
X-36166372Y6026469D01*
X-36370496Y6136936D01*
X-36370505Y6136939D01*
X-36590016Y6212298D01*
X-36777596Y6243599D01*
X-36818951Y6250500D01*
X-37051049Y6250500D01*
X-37092404Y6243599D01*
X-37279985Y6212298D01*
X-37499496Y6136939D01*
X-37499505Y6136936D01*
X-37703629Y6026469D01*
X-37703635Y6026465D01*
X-37886778Y5883919D01*
X-37886785Y5883913D01*
X-37895516Y5874428D01*
X-37955405Y5838439D01*
X-38025243Y5840542D01*
X-38082857Y5880068D01*
X-38102925Y5915082D01*
X-38131645Y5992085D01*
X-38131650Y5992094D01*
X-38217810Y6107188D01*
X-38217813Y6107191D01*
X-38332907Y6193351D01*
X-38332914Y6193355D01*
X-38467621Y6243597D01*
X-38467628Y6243599D01*
X-38527156Y6250000D01*
X-39225000Y6250000D01*
X-39225000Y5411822D01*
X-39244685Y5344783D01*
X-39297489Y5299028D01*
X-39366647Y5289084D01*
X-39385546Y5293330D01*
X-39407171Y5300000D01*
X-39407173Y5300000D01*
X-39508724Y5300000D01*
X-39508732Y5300000D01*
X-39582519Y5288878D01*
X-39651744Y5298351D01*
X-39704857Y5343746D01*
X-39724997Y5410650D01*
X-39725000Y5411493D01*
X-39725000Y6250000D01*
X-40422845Y6250000D01*
X-40482373Y6243599D01*
X-40482380Y6243597D01*
X-40617087Y6193355D01*
X-40617094Y6193351D01*
X-40732188Y6107191D01*
X-40732191Y6107188D01*
X-40818351Y5992094D01*
X-40818355Y5992087D01*
X-40868597Y5857380D01*
X-40868599Y5857373D01*
X-40875000Y5797845D01*
X-40875000Y5100000D01*
X-40035003Y5100000D01*
X-39967964Y5080315D01*
X-39922209Y5027511D01*
X-39912265Y4958353D01*
X-39914112Y4948408D01*
X-39928811Y4884008D01*
X-39928811Y4884007D01*
X-39917979Y4739468D01*
X-39920080Y4739311D01*
X-39923595Y4681861D01*
X-39964890Y4625501D01*
X-40030101Y4600413D01*
X-40040216Y4600000D01*
X-40875000Y4600000D01*
X-40875000Y3902156D01*
X-42500000Y3902156D01*
X-42500000Y13502156D01*
X-40875000Y13502156D01*
X-40868599Y13442628D01*
X-40868597Y13442621D01*
X-40818355Y13307914D01*
X-40818351Y13307907D01*
X-40732191Y13192813D01*
X-40732188Y13192810D01*
X-40617094Y13106650D01*
X-40617087Y13106646D01*
X-40482380Y13056404D01*
X-40482373Y13056402D01*
X-40422845Y13050001D01*
X-40422828Y13050000D01*
X-39725000Y13050000D01*
X-39725000Y13888179D01*
X-39705315Y13955218D01*
X-39652511Y14000973D01*
X-39583353Y14010917D01*
X-39564453Y14006671D01*
X-39542827Y14000000D01*
X-39441277Y14000000D01*
X-39441276Y14000000D01*
X-39367481Y14011123D01*
X-39298258Y14001650D01*
X-39245143Y13956256D01*
X-39225003Y13889352D01*
X-39225000Y13888508D01*
X-39225000Y13050000D01*
X-38527172Y13050000D01*
X-38527156Y13050001D01*
X-38467628Y13056402D01*
X-38467621Y13056404D01*
X-38332914Y13106646D01*
X-38332907Y13106650D01*
X-38217813Y13192810D01*
X-38217810Y13192813D01*
X-38131650Y13307907D01*
X-38131645Y13307916D01*
X-38102925Y13384919D01*
X-38061055Y13440853D01*
X-37995591Y13465271D01*
X-37927318Y13450420D01*
X-37895516Y13425572D01*
X-37886784Y13416087D01*
X-37886781Y13416085D01*
X-37886778Y13416082D01*
X-37703635Y13273536D01*
X-37703629Y13273532D01*
X-37703626Y13273530D01*
X-37499503Y13163064D01*
X-37385513Y13123932D01*
X-37279985Y13087703D01*
X-37279983Y13087703D01*
X-37279981Y13087702D01*
X-37051049Y13049500D01*
X-37051048Y13049500D01*
X-36818952Y13049500D01*
X-36818951Y13049500D01*
X-36590019Y13087702D01*
X-36370497Y13163064D01*
X-36166374Y13273530D01*
X-35983216Y13416087D01*
X-35903984Y13502156D01*
X-15275000Y13502156D01*
X-15268599Y13442628D01*
X-15268597Y13442621D01*
X-15218355Y13307914D01*
X-15218351Y13307907D01*
X-15132191Y13192813D01*
X-15132188Y13192810D01*
X-15017094Y13106650D01*
X-15017087Y13106646D01*
X-14882380Y13056404D01*
X-14882373Y13056402D01*
X-14822845Y13050001D01*
X-14822828Y13050000D01*
X-14125000Y13050000D01*
X-14125000Y13888179D01*
X-14105315Y13955218D01*
X-14052511Y14000973D01*
X-13983353Y14010917D01*
X-13964453Y14006671D01*
X-13942827Y14000000D01*
X-13841277Y14000000D01*
X-13841276Y14000000D01*
X-13767481Y14011123D01*
X-13698258Y14001650D01*
X-13645143Y13956256D01*
X-13625003Y13889352D01*
X-13625000Y13888508D01*
X-13625000Y13050000D01*
X-12927172Y13050000D01*
X-12927156Y13050001D01*
X-12867628Y13056402D01*
X-12867621Y13056404D01*
X-12732914Y13106646D01*
X-12732907Y13106650D01*
X-12617813Y13192810D01*
X-12617810Y13192813D01*
X-12531650Y13307907D01*
X-12531645Y13307916D01*
X-12502925Y13384919D01*
X-12461055Y13440853D01*
X-12395591Y13465271D01*
X-12327318Y13450420D01*
X-12295516Y13425572D01*
X-12286784Y13416087D01*
X-12286781Y13416085D01*
X-12286778Y13416082D01*
X-12103635Y13273536D01*
X-12103629Y13273532D01*
X-12103626Y13273530D01*
X-11899503Y13163064D01*
X-11785513Y13123932D01*
X-11679985Y13087703D01*
X-11679983Y13087703D01*
X-11679981Y13087702D01*
X-11451049Y13049500D01*
X-11451048Y13049500D01*
X-11218952Y13049500D01*
X-11218951Y13049500D01*
X-10990019Y13087702D01*
X-10770497Y13163064D01*
X-10566374Y13273530D01*
X-10383216Y13416087D01*
X-10303984Y13502156D01*
X10325000Y13502156D01*
X10331401Y13442628D01*
X10331403Y13442621D01*
X10381645Y13307914D01*
X10381649Y13307907D01*
X10467809Y13192813D01*
X10467812Y13192810D01*
X10582906Y13106650D01*
X10582913Y13106646D01*
X10717620Y13056404D01*
X10717627Y13056402D01*
X10777155Y13050001D01*
X10777172Y13050000D01*
X11475000Y13050000D01*
X11475000Y13888179D01*
X11494685Y13955218D01*
X11547489Y14000973D01*
X11616647Y14010917D01*
X11635547Y14006671D01*
X11657173Y14000000D01*
X11758723Y14000000D01*
X11758724Y14000000D01*
X11832519Y14011123D01*
X11901742Y14001650D01*
X11954857Y13956256D01*
X11974997Y13889352D01*
X11975000Y13888508D01*
X11975000Y13050000D01*
X12672828Y13050000D01*
X12672844Y13050001D01*
X12732372Y13056402D01*
X12732379Y13056404D01*
X12867086Y13106646D01*
X12867093Y13106650D01*
X12982187Y13192810D01*
X12982190Y13192813D01*
X13068350Y13307907D01*
X13068355Y13307916D01*
X13097075Y13384919D01*
X13138945Y13440853D01*
X13204409Y13465271D01*
X13272682Y13450420D01*
X13304484Y13425572D01*
X13313216Y13416087D01*
X13313219Y13416085D01*
X13313222Y13416082D01*
X13496365Y13273536D01*
X13496371Y13273532D01*
X13496374Y13273530D01*
X13700497Y13163064D01*
X13814487Y13123932D01*
X13920015Y13087703D01*
X13920017Y13087703D01*
X13920019Y13087702D01*
X14148951Y13049500D01*
X14148952Y13049500D01*
X14381048Y13049500D01*
X14381049Y13049500D01*
X14609981Y13087702D01*
X14829503Y13163064D01*
X15033626Y13273530D01*
X15216784Y13416087D01*
X15296016Y13502156D01*
X35925000Y13502156D01*
X35931401Y13442628D01*
X35931403Y13442621D01*
X35981645Y13307914D01*
X35981649Y13307907D01*
X36067809Y13192813D01*
X36067812Y13192810D01*
X36182906Y13106650D01*
X36182913Y13106646D01*
X36317620Y13056404D01*
X36317627Y13056402D01*
X36377155Y13050001D01*
X36377172Y13050000D01*
X37075000Y13050000D01*
X37075000Y13888179D01*
X37094685Y13955218D01*
X37147489Y14000973D01*
X37216647Y14010917D01*
X37235547Y14006671D01*
X37257173Y14000000D01*
X37358723Y14000000D01*
X37358724Y14000000D01*
X37432519Y14011123D01*
X37501742Y14001650D01*
X37554857Y13956256D01*
X37574997Y13889352D01*
X37575000Y13888508D01*
X37575000Y13050000D01*
X38272828Y13050000D01*
X38272844Y13050001D01*
X38332372Y13056402D01*
X38332379Y13056404D01*
X38467086Y13106646D01*
X38467093Y13106650D01*
X38582187Y13192810D01*
X38582190Y13192813D01*
X38668350Y13307907D01*
X38668355Y13307916D01*
X38697075Y13384919D01*
X38738945Y13440853D01*
X38804409Y13465271D01*
X38872682Y13450420D01*
X38904484Y13425572D01*
X38913216Y13416087D01*
X38913219Y13416085D01*
X38913222Y13416082D01*
X39096365Y13273536D01*
X39096371Y13273532D01*
X39096374Y13273530D01*
X39300497Y13163064D01*
X39414487Y13123932D01*
X39520015Y13087703D01*
X39520017Y13087703D01*
X39520019Y13087702D01*
X39748951Y13049500D01*
X39748952Y13049500D01*
X39981048Y13049500D01*
X39981049Y13049500D01*
X40209981Y13087702D01*
X40429503Y13163064D01*
X40633626Y13273530D01*
X40816784Y13416087D01*
X40973979Y13586847D01*
X41100924Y13781151D01*
X41194157Y13993700D01*
X41251134Y14218695D01*
X41256524Y14283740D01*
X41270300Y14449994D01*
X41270300Y14450007D01*
X41251135Y14681298D01*
X41251133Y14681309D01*
X41194157Y14906301D01*
X41100924Y15118849D01*
X40973983Y15313148D01*
X40973980Y15313151D01*
X40973979Y15313153D01*
X40816784Y15483913D01*
X40816779Y15483917D01*
X40816777Y15483919D01*
X40633634Y15626465D01*
X40633628Y15626469D01*
X40429504Y15736936D01*
X40429495Y15736939D01*
X40209984Y15812298D01*
X40022404Y15843599D01*
X39981049Y15850500D01*
X39748951Y15850500D01*
X39707596Y15843599D01*
X39520015Y15812298D01*
X39300504Y15736939D01*
X39300495Y15736936D01*
X39096371Y15626469D01*
X39096365Y15626465D01*
X38913222Y15483919D01*
X38913215Y15483913D01*
X38904484Y15474428D01*
X38844595Y15438439D01*
X38774757Y15440542D01*
X38717143Y15480068D01*
X38697075Y15515082D01*
X38668355Y15592085D01*
X38668350Y15592094D01*
X38582190Y15707188D01*
X38582187Y15707191D01*
X38467093Y15793351D01*
X38467086Y15793355D01*
X38332379Y15843597D01*
X38332372Y15843599D01*
X38272844Y15850000D01*
X37575000Y15850000D01*
X37575000Y15011822D01*
X37555315Y14944783D01*
X37502511Y14899028D01*
X37433353Y14889084D01*
X37414454Y14893330D01*
X37392829Y14900000D01*
X37392827Y14900000D01*
X37291276Y14900000D01*
X37291266Y14900000D01*
X37217479Y14888878D01*
X37148255Y14898351D01*
X37095141Y14943746D01*
X37075002Y15010651D01*
X37074999Y15011493D01*
X37075000Y15850000D01*
X36377155Y15850000D01*
X36317627Y15843599D01*
X36317620Y15843597D01*
X36182913Y15793355D01*
X36182906Y15793351D01*
X36067812Y15707191D01*
X36067809Y15707188D01*
X35981649Y15592094D01*
X35981645Y15592087D01*
X35931403Y15457380D01*
X35931401Y15457373D01*
X35925000Y15397845D01*
X35925000Y14700000D01*
X36764997Y14700000D01*
X36832036Y14680315D01*
X36877791Y14627511D01*
X36887735Y14558353D01*
X36885888Y14548408D01*
X36871189Y14484008D01*
X36871189Y14484007D01*
X36882021Y14339468D01*
X36879920Y14339311D01*
X36876405Y14281861D01*
X36835110Y14225501D01*
X36769899Y14200413D01*
X36759784Y14200000D01*
X35925000Y14200000D01*
X35925000Y13502156D01*
X15296016Y13502156D01*
X15373979Y13586847D01*
X15500924Y13781151D01*
X15594157Y13993700D01*
X15651134Y14218695D01*
X15656524Y14283740D01*
X15670300Y14449994D01*
X15670300Y14450007D01*
X15651135Y14681298D01*
X15651133Y14681309D01*
X15594157Y14906301D01*
X15500924Y15118849D01*
X15373983Y15313148D01*
X15373980Y15313151D01*
X15373979Y15313153D01*
X15216784Y15483913D01*
X15216779Y15483917D01*
X15216777Y15483919D01*
X15033634Y15626465D01*
X15033628Y15626469D01*
X14829504Y15736936D01*
X14829495Y15736939D01*
X14609984Y15812298D01*
X14422404Y15843599D01*
X14381049Y15850500D01*
X14148951Y15850500D01*
X14107596Y15843599D01*
X13920015Y15812298D01*
X13700504Y15736939D01*
X13700495Y15736936D01*
X13496371Y15626469D01*
X13496365Y15626465D01*
X13313222Y15483919D01*
X13313215Y15483913D01*
X13304484Y15474428D01*
X13244595Y15438439D01*
X13174757Y15440542D01*
X13117143Y15480068D01*
X13097075Y15515082D01*
X13068355Y15592085D01*
X13068350Y15592094D01*
X12982190Y15707188D01*
X12982187Y15707191D01*
X12867093Y15793351D01*
X12867086Y15793355D01*
X12732379Y15843597D01*
X12732372Y15843599D01*
X12672844Y15850000D01*
X11975000Y15850000D01*
X11975000Y15011822D01*
X11955315Y14944783D01*
X11902511Y14899028D01*
X11833353Y14889084D01*
X11814454Y14893330D01*
X11792829Y14900000D01*
X11792827Y14900000D01*
X11691276Y14900000D01*
X11691268Y14900000D01*
X11617481Y14888878D01*
X11548256Y14898351D01*
X11495143Y14943746D01*
X11475003Y15010650D01*
X11475000Y15011493D01*
X11475000Y15850000D01*
X10777155Y15850000D01*
X10717627Y15843599D01*
X10717620Y15843597D01*
X10582913Y15793355D01*
X10582906Y15793351D01*
X10467812Y15707191D01*
X10467809Y15707188D01*
X10381649Y15592094D01*
X10381645Y15592087D01*
X10331403Y15457380D01*
X10331401Y15457373D01*
X10325000Y15397845D01*
X10325000Y14700000D01*
X11164997Y14700000D01*
X11232036Y14680315D01*
X11277791Y14627511D01*
X11287735Y14558353D01*
X11285888Y14548408D01*
X11271189Y14484008D01*
X11271189Y14484007D01*
X11282021Y14339468D01*
X11279920Y14339311D01*
X11276405Y14281861D01*
X11235110Y14225501D01*
X11169899Y14200413D01*
X11159784Y14200000D01*
X10325000Y14200000D01*
X10325000Y13502156D01*
X-10303984Y13502156D01*
X-10226021Y13586847D01*
X-10099076Y13781151D01*
X-10005843Y13993700D01*
X-9948866Y14218695D01*
X-9943476Y14283740D01*
X-9929700Y14449994D01*
X-9929700Y14450007D01*
X-9948865Y14681298D01*
X-9948867Y14681309D01*
X-10005843Y14906301D01*
X-10099076Y15118849D01*
X-10226017Y15313148D01*
X-10226020Y15313151D01*
X-10226021Y15313153D01*
X-10383216Y15483913D01*
X-10383221Y15483917D01*
X-10383223Y15483919D01*
X-10566366Y15626465D01*
X-10566372Y15626469D01*
X-10770496Y15736936D01*
X-10770505Y15736939D01*
X-10990016Y15812298D01*
X-11177596Y15843599D01*
X-11218951Y15850500D01*
X-11451049Y15850500D01*
X-11492404Y15843599D01*
X-11679985Y15812298D01*
X-11899496Y15736939D01*
X-11899505Y15736936D01*
X-12103629Y15626469D01*
X-12103635Y15626465D01*
X-12286778Y15483919D01*
X-12286785Y15483913D01*
X-12295516Y15474428D01*
X-12355405Y15438439D01*
X-12425243Y15440542D01*
X-12482857Y15480068D01*
X-12502925Y15515082D01*
X-12531645Y15592085D01*
X-12531650Y15592094D01*
X-12617810Y15707188D01*
X-12617813Y15707191D01*
X-12732907Y15793351D01*
X-12732914Y15793355D01*
X-12867621Y15843597D01*
X-12867628Y15843599D01*
X-12927156Y15850000D01*
X-13625000Y15850000D01*
X-13625000Y15011822D01*
X-13644685Y14944783D01*
X-13697489Y14899028D01*
X-13766647Y14889084D01*
X-13785546Y14893330D01*
X-13807171Y14900000D01*
X-13807173Y14900000D01*
X-13908724Y14900000D01*
X-13908732Y14900000D01*
X-13982519Y14888878D01*
X-14051744Y14898351D01*
X-14104857Y14943746D01*
X-14124997Y15010650D01*
X-14125000Y15011493D01*
X-14125000Y15850000D01*
X-14822845Y15850000D01*
X-14882373Y15843599D01*
X-14882380Y15843597D01*
X-15017087Y15793355D01*
X-15017094Y15793351D01*
X-15132188Y15707191D01*
X-15132191Y15707188D01*
X-15218351Y15592094D01*
X-15218355Y15592087D01*
X-15268597Y15457380D01*
X-15268599Y15457373D01*
X-15275000Y15397845D01*
X-15275000Y14700000D01*
X-14435003Y14700000D01*
X-14367964Y14680315D01*
X-14322209Y14627511D01*
X-14312265Y14558353D01*
X-14314112Y14548408D01*
X-14328811Y14484008D01*
X-14328811Y14484007D01*
X-14317979Y14339468D01*
X-14320080Y14339311D01*
X-14323595Y14281861D01*
X-14364890Y14225501D01*
X-14430101Y14200413D01*
X-14440216Y14200000D01*
X-15275000Y14200000D01*
X-15275000Y13502156D01*
X-35903984Y13502156D01*
X-35826021Y13586847D01*
X-35699076Y13781151D01*
X-35605843Y13993700D01*
X-35548866Y14218695D01*
X-35543476Y14283740D01*
X-35529700Y14449994D01*
X-35529700Y14450007D01*
X-35548865Y14681298D01*
X-35548867Y14681309D01*
X-35605843Y14906301D01*
X-35699076Y15118849D01*
X-35826017Y15313148D01*
X-35826020Y15313151D01*
X-35826021Y15313153D01*
X-35983216Y15483913D01*
X-35983221Y15483917D01*
X-35983223Y15483919D01*
X-36166366Y15626465D01*
X-36166372Y15626469D01*
X-36370496Y15736936D01*
X-36370505Y15736939D01*
X-36590016Y15812298D01*
X-36777596Y15843599D01*
X-36818951Y15850500D01*
X-37051049Y15850500D01*
X-37092404Y15843599D01*
X-37279985Y15812298D01*
X-37499496Y15736939D01*
X-37499505Y15736936D01*
X-37703629Y15626469D01*
X-37703635Y15626465D01*
X-37886778Y15483919D01*
X-37886785Y15483913D01*
X-37895516Y15474428D01*
X-37955405Y15438439D01*
X-38025243Y15440542D01*
X-38082857Y15480068D01*
X-38102925Y15515082D01*
X-38131645Y15592085D01*
X-38131650Y15592094D01*
X-38217810Y15707188D01*
X-38217813Y15707191D01*
X-38332907Y15793351D01*
X-38332914Y15793355D01*
X-38467621Y15843597D01*
X-38467628Y15843599D01*
X-38527156Y15850000D01*
X-39225000Y15850000D01*
X-39225000Y15011822D01*
X-39244685Y14944783D01*
X-39297489Y14899028D01*
X-39366647Y14889084D01*
X-39385546Y14893330D01*
X-39407171Y14900000D01*
X-39407173Y14900000D01*
X-39508724Y14900000D01*
X-39508732Y14900000D01*
X-39582519Y14888878D01*
X-39651744Y14898351D01*
X-39704857Y14943746D01*
X-39724997Y15010650D01*
X-39725000Y15011493D01*
X-39725000Y15850000D01*
X-40422845Y15850000D01*
X-40482373Y15843599D01*
X-40482380Y15843597D01*
X-40617087Y15793355D01*
X-40617094Y15793351D01*
X-40732188Y15707191D01*
X-40732191Y15707188D01*
X-40818351Y15592094D01*
X-40818355Y15592087D01*
X-40868597Y15457380D01*
X-40868599Y15457373D01*
X-40875000Y15397845D01*
X-40875000Y14700000D01*
X-40035003Y14700000D01*
X-39967964Y14680315D01*
X-39922209Y14627511D01*
X-39912265Y14558353D01*
X-39914112Y14548408D01*
X-39928811Y14484008D01*
X-39928811Y14484007D01*
X-39917979Y14339468D01*
X-39920080Y14339311D01*
X-39923595Y14281861D01*
X-39964890Y14225501D01*
X-40030101Y14200413D01*
X-40040216Y14200000D01*
X-40875000Y14200000D01*
X-40875000Y13502156D01*
X-42500000Y13502156D01*
X-42500000Y23102156D01*
X-40875000Y23102156D01*
X-40868599Y23042628D01*
X-40868597Y23042621D01*
X-40818355Y22907914D01*
X-40818351Y22907907D01*
X-40732191Y22792813D01*
X-40732188Y22792810D01*
X-40617094Y22706650D01*
X-40617087Y22706646D01*
X-40482380Y22656404D01*
X-40482373Y22656402D01*
X-40422845Y22650001D01*
X-40422828Y22650000D01*
X-39725000Y22650000D01*
X-39725000Y23488179D01*
X-39705315Y23555218D01*
X-39652511Y23600973D01*
X-39583353Y23610917D01*
X-39564453Y23606671D01*
X-39542827Y23600000D01*
X-39441277Y23600000D01*
X-39441276Y23600000D01*
X-39367481Y23611123D01*
X-39298258Y23601650D01*
X-39245143Y23556256D01*
X-39225003Y23489352D01*
X-39225000Y23488508D01*
X-39225000Y22650000D01*
X-38527172Y22650000D01*
X-38527156Y22650001D01*
X-38467628Y22656402D01*
X-38467621Y22656404D01*
X-38332914Y22706646D01*
X-38332907Y22706650D01*
X-38217813Y22792810D01*
X-38217810Y22792813D01*
X-38131650Y22907907D01*
X-38131645Y22907916D01*
X-38102925Y22984919D01*
X-38061055Y23040853D01*
X-37995591Y23065271D01*
X-37927318Y23050420D01*
X-37895516Y23025572D01*
X-37886784Y23016087D01*
X-37886781Y23016085D01*
X-37886778Y23016082D01*
X-37703635Y22873536D01*
X-37703629Y22873532D01*
X-37703626Y22873530D01*
X-37499503Y22763064D01*
X-37385513Y22723932D01*
X-37279985Y22687703D01*
X-37279983Y22687703D01*
X-37279981Y22687702D01*
X-37051049Y22649500D01*
X-37051048Y22649500D01*
X-36818952Y22649500D01*
X-36818951Y22649500D01*
X-36590019Y22687702D01*
X-36370497Y22763064D01*
X-36166374Y22873530D01*
X-35983216Y23016087D01*
X-35903984Y23102156D01*
X-15275000Y23102156D01*
X-15268599Y23042628D01*
X-15268597Y23042621D01*
X-15218355Y22907914D01*
X-15218351Y22907907D01*
X-15132191Y22792813D01*
X-15132188Y22792810D01*
X-15017094Y22706650D01*
X-15017087Y22706646D01*
X-14882380Y22656404D01*
X-14882373Y22656402D01*
X-14822845Y22650001D01*
X-14822828Y22650000D01*
X-14125000Y22650000D01*
X-14125000Y23488179D01*
X-14105315Y23555218D01*
X-14052511Y23600973D01*
X-13983353Y23610917D01*
X-13964453Y23606671D01*
X-13942827Y23600000D01*
X-13841277Y23600000D01*
X-13841276Y23600000D01*
X-13767481Y23611123D01*
X-13698258Y23601650D01*
X-13645143Y23556256D01*
X-13625003Y23489352D01*
X-13625000Y23488508D01*
X-13625000Y22650000D01*
X-12927172Y22650000D01*
X-12927156Y22650001D01*
X-12867628Y22656402D01*
X-12867621Y22656404D01*
X-12732914Y22706646D01*
X-12732907Y22706650D01*
X-12617813Y22792810D01*
X-12617810Y22792813D01*
X-12531650Y22907907D01*
X-12531645Y22907916D01*
X-12502925Y22984919D01*
X-12461055Y23040853D01*
X-12395591Y23065271D01*
X-12327318Y23050420D01*
X-12295516Y23025572D01*
X-12286784Y23016087D01*
X-12286781Y23016085D01*
X-12286778Y23016082D01*
X-12103635Y22873536D01*
X-12103629Y22873532D01*
X-12103626Y22873530D01*
X-11899503Y22763064D01*
X-11785513Y22723932D01*
X-11679985Y22687703D01*
X-11679983Y22687703D01*
X-11679981Y22687702D01*
X-11451049Y22649500D01*
X-11451048Y22649500D01*
X-11218952Y22649500D01*
X-11218951Y22649500D01*
X-10990019Y22687702D01*
X-10770497Y22763064D01*
X-10566374Y22873530D01*
X-10383216Y23016087D01*
X-10303984Y23102156D01*
X10325000Y23102156D01*
X10331401Y23042628D01*
X10331403Y23042621D01*
X10381645Y22907914D01*
X10381649Y22907907D01*
X10467809Y22792813D01*
X10467812Y22792810D01*
X10582906Y22706650D01*
X10582913Y22706646D01*
X10717620Y22656404D01*
X10717627Y22656402D01*
X10777155Y22650001D01*
X10777172Y22650000D01*
X11475000Y22650000D01*
X11475000Y23488179D01*
X11494685Y23555218D01*
X11547489Y23600973D01*
X11616647Y23610917D01*
X11635547Y23606671D01*
X11657173Y23600000D01*
X11758723Y23600000D01*
X11758724Y23600000D01*
X11832519Y23611123D01*
X11901742Y23601650D01*
X11954857Y23556256D01*
X11974997Y23489352D01*
X11975000Y23488508D01*
X11975000Y22650000D01*
X12672828Y22650000D01*
X12672844Y22650001D01*
X12732372Y22656402D01*
X12732379Y22656404D01*
X12867086Y22706646D01*
X12867093Y22706650D01*
X12982187Y22792810D01*
X12982190Y22792813D01*
X13068350Y22907907D01*
X13068355Y22907916D01*
X13097075Y22984919D01*
X13138945Y23040853D01*
X13204409Y23065271D01*
X13272682Y23050420D01*
X13304484Y23025572D01*
X13313216Y23016087D01*
X13313219Y23016085D01*
X13313222Y23016082D01*
X13496365Y22873536D01*
X13496371Y22873532D01*
X13496374Y22873530D01*
X13700497Y22763064D01*
X13814487Y22723932D01*
X13920015Y22687703D01*
X13920017Y22687703D01*
X13920019Y22687702D01*
X14148951Y22649500D01*
X14148952Y22649500D01*
X14381048Y22649500D01*
X14381049Y22649500D01*
X14609981Y22687702D01*
X14829503Y22763064D01*
X15033626Y22873530D01*
X15216784Y23016087D01*
X15296016Y23102156D01*
X35925000Y23102156D01*
X35931401Y23042628D01*
X35931403Y23042621D01*
X35981645Y22907914D01*
X35981649Y22907907D01*
X36067809Y22792813D01*
X36067812Y22792810D01*
X36182906Y22706650D01*
X36182913Y22706646D01*
X36317620Y22656404D01*
X36317627Y22656402D01*
X36377155Y22650001D01*
X36377172Y22650000D01*
X37075000Y22650000D01*
X37075000Y23488179D01*
X37094685Y23555218D01*
X37147489Y23600973D01*
X37216647Y23610917D01*
X37235547Y23606671D01*
X37257173Y23600000D01*
X37358723Y23600000D01*
X37358724Y23600000D01*
X37432519Y23611123D01*
X37501742Y23601650D01*
X37554857Y23556256D01*
X37574997Y23489352D01*
X37575000Y23488508D01*
X37575000Y22650000D01*
X38272828Y22650000D01*
X38272844Y22650001D01*
X38332372Y22656402D01*
X38332379Y22656404D01*
X38467086Y22706646D01*
X38467093Y22706650D01*
X38582187Y22792810D01*
X38582190Y22792813D01*
X38668350Y22907907D01*
X38668355Y22907916D01*
X38697075Y22984919D01*
X38738945Y23040853D01*
X38804409Y23065271D01*
X38872682Y23050420D01*
X38904484Y23025572D01*
X38913216Y23016087D01*
X38913219Y23016085D01*
X38913222Y23016082D01*
X39096365Y22873536D01*
X39096371Y22873532D01*
X39096374Y22873530D01*
X39300497Y22763064D01*
X39414487Y22723932D01*
X39520015Y22687703D01*
X39520017Y22687703D01*
X39520019Y22687702D01*
X39748951Y22649500D01*
X39748952Y22649500D01*
X39981048Y22649500D01*
X39981049Y22649500D01*
X40209981Y22687702D01*
X40429503Y22763064D01*
X40633626Y22873530D01*
X40816784Y23016087D01*
X40973979Y23186847D01*
X41100924Y23381151D01*
X41194157Y23593700D01*
X41251134Y23818695D01*
X41256524Y23883740D01*
X41270300Y24049994D01*
X41270300Y24050007D01*
X41251135Y24281298D01*
X41251133Y24281309D01*
X41194157Y24506301D01*
X41100924Y24718849D01*
X40973983Y24913148D01*
X40973980Y24913151D01*
X40973979Y24913153D01*
X40816784Y25083913D01*
X40816779Y25083917D01*
X40816777Y25083919D01*
X40633634Y25226465D01*
X40633628Y25226469D01*
X40429504Y25336936D01*
X40429495Y25336939D01*
X40209984Y25412298D01*
X40022404Y25443599D01*
X39981049Y25450500D01*
X39748951Y25450500D01*
X39707596Y25443599D01*
X39520015Y25412298D01*
X39300504Y25336939D01*
X39300495Y25336936D01*
X39096371Y25226469D01*
X39096365Y25226465D01*
X38913222Y25083919D01*
X38913215Y25083913D01*
X38904484Y25074428D01*
X38844595Y25038439D01*
X38774757Y25040542D01*
X38717143Y25080068D01*
X38697075Y25115082D01*
X38668355Y25192085D01*
X38668350Y25192094D01*
X38582190Y25307188D01*
X38582187Y25307191D01*
X38467093Y25393351D01*
X38467086Y25393355D01*
X38332379Y25443597D01*
X38332372Y25443599D01*
X38272844Y25450000D01*
X37575000Y25450000D01*
X37575000Y24611822D01*
X37555315Y24544783D01*
X37502511Y24499028D01*
X37433353Y24489084D01*
X37414454Y24493330D01*
X37392829Y24500000D01*
X37392827Y24500000D01*
X37291276Y24500000D01*
X37291266Y24500000D01*
X37217479Y24488878D01*
X37148255Y24498351D01*
X37095141Y24543746D01*
X37075002Y24610651D01*
X37074999Y24611493D01*
X37075000Y25450000D01*
X36377155Y25450000D01*
X36317627Y25443599D01*
X36317620Y25443597D01*
X36182913Y25393355D01*
X36182906Y25393351D01*
X36067812Y25307191D01*
X36067809Y25307188D01*
X35981649Y25192094D01*
X35981645Y25192087D01*
X35931403Y25057380D01*
X35931401Y25057373D01*
X35925000Y24997845D01*
X35925000Y24300000D01*
X36764997Y24300000D01*
X36832036Y24280315D01*
X36877791Y24227511D01*
X36887735Y24158353D01*
X36885888Y24148408D01*
X36871189Y24084008D01*
X36871189Y24084007D01*
X36882021Y23939468D01*
X36879920Y23939311D01*
X36876405Y23881861D01*
X36835110Y23825501D01*
X36769899Y23800413D01*
X36759784Y23800000D01*
X35925000Y23800000D01*
X35925000Y23102156D01*
X15296016Y23102156D01*
X15373979Y23186847D01*
X15500924Y23381151D01*
X15594157Y23593700D01*
X15651134Y23818695D01*
X15656524Y23883740D01*
X15670300Y24049994D01*
X15670300Y24050007D01*
X15651135Y24281298D01*
X15651133Y24281309D01*
X15594157Y24506301D01*
X15500924Y24718849D01*
X15373983Y24913148D01*
X15373980Y24913151D01*
X15373979Y24913153D01*
X15216784Y25083913D01*
X15216779Y25083917D01*
X15216777Y25083919D01*
X15033634Y25226465D01*
X15033628Y25226469D01*
X14829504Y25336936D01*
X14829495Y25336939D01*
X14609984Y25412298D01*
X14422404Y25443599D01*
X14381049Y25450500D01*
X14148951Y25450500D01*
X14107596Y25443599D01*
X13920015Y25412298D01*
X13700504Y25336939D01*
X13700495Y25336936D01*
X13496371Y25226469D01*
X13496365Y25226465D01*
X13313222Y25083919D01*
X13313215Y25083913D01*
X13304484Y25074428D01*
X13244595Y25038439D01*
X13174757Y25040542D01*
X13117143Y25080068D01*
X13097075Y25115082D01*
X13068355Y25192085D01*
X13068350Y25192094D01*
X12982190Y25307188D01*
X12982187Y25307191D01*
X12867093Y25393351D01*
X12867086Y25393355D01*
X12732379Y25443597D01*
X12732372Y25443599D01*
X12672844Y25450000D01*
X11975000Y25450000D01*
X11975000Y24611822D01*
X11955315Y24544783D01*
X11902511Y24499028D01*
X11833353Y24489084D01*
X11814454Y24493330D01*
X11792829Y24500000D01*
X11792827Y24500000D01*
X11691276Y24500000D01*
X11691268Y24500000D01*
X11617481Y24488878D01*
X11548256Y24498351D01*
X11495143Y24543746D01*
X11475003Y24610650D01*
X11475000Y24611493D01*
X11475000Y25450000D01*
X10777155Y25450000D01*
X10717627Y25443599D01*
X10717620Y25443597D01*
X10582913Y25393355D01*
X10582906Y25393351D01*
X10467812Y25307191D01*
X10467809Y25307188D01*
X10381649Y25192094D01*
X10381645Y25192087D01*
X10331403Y25057380D01*
X10331401Y25057373D01*
X10325000Y24997845D01*
X10325000Y24300000D01*
X11164997Y24300000D01*
X11232036Y24280315D01*
X11277791Y24227511D01*
X11287735Y24158353D01*
X11285888Y24148408D01*
X11271189Y24084008D01*
X11271189Y24084007D01*
X11282021Y23939468D01*
X11279920Y23939311D01*
X11276405Y23881861D01*
X11235110Y23825501D01*
X11169899Y23800413D01*
X11159784Y23800000D01*
X10325000Y23800000D01*
X10325000Y23102156D01*
X-10303984Y23102156D01*
X-10226021Y23186847D01*
X-10099076Y23381151D01*
X-10005843Y23593700D01*
X-9948866Y23818695D01*
X-9943476Y23883740D01*
X-9929700Y24049994D01*
X-9929700Y24050007D01*
X-9948865Y24281298D01*
X-9948867Y24281309D01*
X-10005843Y24506301D01*
X-10099076Y24718849D01*
X-10226017Y24913148D01*
X-10226020Y24913151D01*
X-10226021Y24913153D01*
X-10383216Y25083913D01*
X-10383221Y25083917D01*
X-10383223Y25083919D01*
X-10566366Y25226465D01*
X-10566372Y25226469D01*
X-10770496Y25336936D01*
X-10770505Y25336939D01*
X-10990016Y25412298D01*
X-11177596Y25443599D01*
X-11218951Y25450500D01*
X-11451049Y25450500D01*
X-11492404Y25443599D01*
X-11679985Y25412298D01*
X-11899496Y25336939D01*
X-11899505Y25336936D01*
X-12103629Y25226469D01*
X-12103635Y25226465D01*
X-12286778Y25083919D01*
X-12286785Y25083913D01*
X-12295516Y25074428D01*
X-12355405Y25038439D01*
X-12425243Y25040542D01*
X-12482857Y25080068D01*
X-12502925Y25115082D01*
X-12531645Y25192085D01*
X-12531650Y25192094D01*
X-12617810Y25307188D01*
X-12617813Y25307191D01*
X-12732907Y25393351D01*
X-12732914Y25393355D01*
X-12867621Y25443597D01*
X-12867628Y25443599D01*
X-12927156Y25450000D01*
X-13625000Y25450000D01*
X-13625000Y24611822D01*
X-13644685Y24544783D01*
X-13697489Y24499028D01*
X-13766647Y24489084D01*
X-13785546Y24493330D01*
X-13807171Y24500000D01*
X-13807173Y24500000D01*
X-13908724Y24500000D01*
X-13908732Y24500000D01*
X-13982519Y24488878D01*
X-14051744Y24498351D01*
X-14104857Y24543746D01*
X-14124997Y24610650D01*
X-14125000Y24611493D01*
X-14125000Y25450000D01*
X-14822845Y25450000D01*
X-14882373Y25443599D01*
X-14882380Y25443597D01*
X-15017087Y25393355D01*
X-15017094Y25393351D01*
X-15132188Y25307191D01*
X-15132191Y25307188D01*
X-15218351Y25192094D01*
X-15218355Y25192087D01*
X-15268597Y25057380D01*
X-15268599Y25057373D01*
X-15275000Y24997845D01*
X-15275000Y24300000D01*
X-14435003Y24300000D01*
X-14367964Y24280315D01*
X-14322209Y24227511D01*
X-14312265Y24158353D01*
X-14314112Y24148408D01*
X-14328811Y24084008D01*
X-14328811Y24084007D01*
X-14317979Y23939468D01*
X-14320080Y23939311D01*
X-14323595Y23881861D01*
X-14364890Y23825501D01*
X-14430101Y23800413D01*
X-14440216Y23800000D01*
X-15275000Y23800000D01*
X-15275000Y23102156D01*
X-35903984Y23102156D01*
X-35826021Y23186847D01*
X-35699076Y23381151D01*
X-35605843Y23593700D01*
X-35548866Y23818695D01*
X-35543476Y23883740D01*
X-35529700Y24049994D01*
X-35529700Y24050007D01*
X-35548865Y24281298D01*
X-35548867Y24281309D01*
X-35605843Y24506301D01*
X-35699076Y24718849D01*
X-35826017Y24913148D01*
X-35826020Y24913151D01*
X-35826021Y24913153D01*
X-35983216Y25083913D01*
X-35983221Y25083917D01*
X-35983223Y25083919D01*
X-36166366Y25226465D01*
X-36166372Y25226469D01*
X-36370496Y25336936D01*
X-36370505Y25336939D01*
X-36590016Y25412298D01*
X-36777596Y25443599D01*
X-36818951Y25450500D01*
X-37051049Y25450500D01*
X-37092404Y25443599D01*
X-37279985Y25412298D01*
X-37499496Y25336939D01*
X-37499505Y25336936D01*
X-37703629Y25226469D01*
X-37703635Y25226465D01*
X-37886778Y25083919D01*
X-37886785Y25083913D01*
X-37895516Y25074428D01*
X-37955405Y25038439D01*
X-38025243Y25040542D01*
X-38082857Y25080068D01*
X-38102925Y25115082D01*
X-38131645Y25192085D01*
X-38131650Y25192094D01*
X-38217810Y25307188D01*
X-38217813Y25307191D01*
X-38332907Y25393351D01*
X-38332914Y25393355D01*
X-38467621Y25443597D01*
X-38467628Y25443599D01*
X-38527156Y25450000D01*
X-39225000Y25450000D01*
X-39225000Y24611822D01*
X-39244685Y24544783D01*
X-39297489Y24499028D01*
X-39366647Y24489084D01*
X-39385546Y24493330D01*
X-39407171Y24500000D01*
X-39407173Y24500000D01*
X-39508724Y24500000D01*
X-39508732Y24500000D01*
X-39582519Y24488878D01*
X-39651744Y24498351D01*
X-39704857Y24543746D01*
X-39724997Y24610650D01*
X-39725000Y24611493D01*
X-39725000Y25450000D01*
X-40422845Y25450000D01*
X-40482373Y25443599D01*
X-40482380Y25443597D01*
X-40617087Y25393355D01*
X-40617094Y25393351D01*
X-40732188Y25307191D01*
X-40732191Y25307188D01*
X-40818351Y25192094D01*
X-40818355Y25192087D01*
X-40868597Y25057380D01*
X-40868599Y25057373D01*
X-40875000Y24997845D01*
X-40875000Y24300000D01*
X-40035003Y24300000D01*
X-39967964Y24280315D01*
X-39922209Y24227511D01*
X-39912265Y24158353D01*
X-39914112Y24148408D01*
X-39928811Y24084008D01*
X-39928811Y24084007D01*
X-39917979Y23939468D01*
X-39920080Y23939311D01*
X-39923595Y23881861D01*
X-39964890Y23825501D01*
X-40030101Y23800413D01*
X-40040216Y23800000D01*
X-40875000Y23800000D01*
X-40875000Y23102156D01*
X-42500000Y23102156D01*
X-42500000Y32702156D01*
X-40875000Y32702156D01*
X-40868599Y32642628D01*
X-40868597Y32642621D01*
X-40818355Y32507914D01*
X-40818351Y32507907D01*
X-40732191Y32392813D01*
X-40732188Y32392810D01*
X-40617094Y32306650D01*
X-40617087Y32306646D01*
X-40482380Y32256404D01*
X-40482373Y32256402D01*
X-40422845Y32250001D01*
X-40422828Y32250000D01*
X-39725000Y32250000D01*
X-39725000Y33088179D01*
X-39705315Y33155218D01*
X-39652511Y33200973D01*
X-39583353Y33210917D01*
X-39564453Y33206671D01*
X-39542827Y33200000D01*
X-39441277Y33200000D01*
X-39441276Y33200000D01*
X-39367481Y33211123D01*
X-39298258Y33201650D01*
X-39245143Y33156256D01*
X-39225003Y33089352D01*
X-39225000Y33088508D01*
X-39225000Y32250000D01*
X-38527172Y32250000D01*
X-38527156Y32250001D01*
X-38467628Y32256402D01*
X-38467621Y32256404D01*
X-38332914Y32306646D01*
X-38332907Y32306650D01*
X-38217813Y32392810D01*
X-38217810Y32392813D01*
X-38131650Y32507907D01*
X-38131645Y32507916D01*
X-38102925Y32584919D01*
X-38061055Y32640853D01*
X-37995591Y32665271D01*
X-37927318Y32650420D01*
X-37895516Y32625572D01*
X-37886784Y32616087D01*
X-37886781Y32616085D01*
X-37886778Y32616082D01*
X-37703635Y32473536D01*
X-37703629Y32473532D01*
X-37703626Y32473530D01*
X-37499503Y32363064D01*
X-37385513Y32323932D01*
X-37279985Y32287703D01*
X-37279983Y32287703D01*
X-37279981Y32287702D01*
X-37051049Y32249500D01*
X-37051048Y32249500D01*
X-36818952Y32249500D01*
X-36818951Y32249500D01*
X-36590019Y32287702D01*
X-36370497Y32363064D01*
X-36166374Y32473530D01*
X-35983216Y32616087D01*
X-35903984Y32702156D01*
X-15275000Y32702156D01*
X-15268599Y32642628D01*
X-15268597Y32642621D01*
X-15218355Y32507914D01*
X-15218351Y32507907D01*
X-15132191Y32392813D01*
X-15132188Y32392810D01*
X-15017094Y32306650D01*
X-15017087Y32306646D01*
X-14882380Y32256404D01*
X-14882373Y32256402D01*
X-14822845Y32250001D01*
X-14822828Y32250000D01*
X-14125000Y32250000D01*
X-14125000Y33088179D01*
X-14105315Y33155218D01*
X-14052511Y33200973D01*
X-13983353Y33210917D01*
X-13964453Y33206671D01*
X-13942827Y33200000D01*
X-13841277Y33200000D01*
X-13841276Y33200000D01*
X-13767481Y33211123D01*
X-13698258Y33201650D01*
X-13645143Y33156256D01*
X-13625003Y33089352D01*
X-13625000Y33088508D01*
X-13625000Y32250000D01*
X-12927172Y32250000D01*
X-12927156Y32250001D01*
X-12867628Y32256402D01*
X-12867621Y32256404D01*
X-12732914Y32306646D01*
X-12732907Y32306650D01*
X-12617813Y32392810D01*
X-12617810Y32392813D01*
X-12531650Y32507907D01*
X-12531645Y32507916D01*
X-12502925Y32584919D01*
X-12461055Y32640853D01*
X-12395591Y32665271D01*
X-12327318Y32650420D01*
X-12295516Y32625572D01*
X-12286784Y32616087D01*
X-12286781Y32616085D01*
X-12286778Y32616082D01*
X-12103635Y32473536D01*
X-12103629Y32473532D01*
X-12103626Y32473530D01*
X-11899503Y32363064D01*
X-11785513Y32323932D01*
X-11679985Y32287703D01*
X-11679983Y32287703D01*
X-11679981Y32287702D01*
X-11451049Y32249500D01*
X-11451048Y32249500D01*
X-11218952Y32249500D01*
X-11218951Y32249500D01*
X-10990019Y32287702D01*
X-10770497Y32363064D01*
X-10566374Y32473530D01*
X-10383216Y32616087D01*
X-10303984Y32702156D01*
X10325000Y32702156D01*
X10331401Y32642628D01*
X10331403Y32642621D01*
X10381645Y32507914D01*
X10381649Y32507907D01*
X10467809Y32392813D01*
X10467812Y32392810D01*
X10582906Y32306650D01*
X10582913Y32306646D01*
X10717620Y32256404D01*
X10717627Y32256402D01*
X10777155Y32250001D01*
X10777172Y32250000D01*
X11475000Y32250000D01*
X11475000Y33088179D01*
X11494685Y33155218D01*
X11547489Y33200973D01*
X11616647Y33210917D01*
X11635547Y33206671D01*
X11657173Y33200000D01*
X11758723Y33200000D01*
X11758724Y33200000D01*
X11832519Y33211123D01*
X11901742Y33201650D01*
X11954857Y33156256D01*
X11974997Y33089352D01*
X11975000Y33088508D01*
X11975000Y32250000D01*
X12672828Y32250000D01*
X12672844Y32250001D01*
X12732372Y32256402D01*
X12732379Y32256404D01*
X12867086Y32306646D01*
X12867093Y32306650D01*
X12982187Y32392810D01*
X12982190Y32392813D01*
X13068350Y32507907D01*
X13068355Y32507916D01*
X13097075Y32584919D01*
X13138945Y32640853D01*
X13204409Y32665271D01*
X13272682Y32650420D01*
X13304484Y32625572D01*
X13313216Y32616087D01*
X13313219Y32616085D01*
X13313222Y32616082D01*
X13496365Y32473536D01*
X13496371Y32473532D01*
X13496374Y32473530D01*
X13700497Y32363064D01*
X13814487Y32323932D01*
X13920015Y32287703D01*
X13920017Y32287703D01*
X13920019Y32287702D01*
X14148951Y32249500D01*
X14148952Y32249500D01*
X14381048Y32249500D01*
X14381049Y32249500D01*
X14609981Y32287702D01*
X14829503Y32363064D01*
X15033626Y32473530D01*
X15216784Y32616087D01*
X15296016Y32702156D01*
X35925000Y32702156D01*
X35931401Y32642628D01*
X35931403Y32642621D01*
X35981645Y32507914D01*
X35981649Y32507907D01*
X36067809Y32392813D01*
X36067812Y32392810D01*
X36182906Y32306650D01*
X36182913Y32306646D01*
X36317620Y32256404D01*
X36317627Y32256402D01*
X36377155Y32250001D01*
X36377172Y32250000D01*
X37075000Y32250000D01*
X37075000Y33088179D01*
X37094685Y33155218D01*
X37147489Y33200973D01*
X37216647Y33210917D01*
X37235547Y33206671D01*
X37257173Y33200000D01*
X37358723Y33200000D01*
X37358724Y33200000D01*
X37432519Y33211123D01*
X37501742Y33201650D01*
X37554857Y33156256D01*
X37574997Y33089352D01*
X37575000Y33088508D01*
X37575000Y32250000D01*
X38272828Y32250000D01*
X38272844Y32250001D01*
X38332372Y32256402D01*
X38332379Y32256404D01*
X38467086Y32306646D01*
X38467093Y32306650D01*
X38582187Y32392810D01*
X38582190Y32392813D01*
X38668350Y32507907D01*
X38668355Y32507916D01*
X38697075Y32584919D01*
X38738945Y32640853D01*
X38804409Y32665271D01*
X38872682Y32650420D01*
X38904484Y32625572D01*
X38913216Y32616087D01*
X38913219Y32616085D01*
X38913222Y32616082D01*
X39096365Y32473536D01*
X39096371Y32473532D01*
X39096374Y32473530D01*
X39300497Y32363064D01*
X39414487Y32323932D01*
X39520015Y32287703D01*
X39520017Y32287703D01*
X39520019Y32287702D01*
X39748951Y32249500D01*
X39748952Y32249500D01*
X39981048Y32249500D01*
X39981049Y32249500D01*
X40209981Y32287702D01*
X40429503Y32363064D01*
X40633626Y32473530D01*
X40816784Y32616087D01*
X40973979Y32786847D01*
X41100924Y32981151D01*
X41194157Y33193700D01*
X41251134Y33418695D01*
X41256524Y33483740D01*
X41270300Y33649994D01*
X41270300Y33650007D01*
X41251135Y33881298D01*
X41251133Y33881309D01*
X41194157Y34106301D01*
X41100924Y34318849D01*
X40973983Y34513148D01*
X40973980Y34513151D01*
X40973979Y34513153D01*
X40816784Y34683913D01*
X40816779Y34683917D01*
X40816777Y34683919D01*
X40633634Y34826465D01*
X40633628Y34826469D01*
X40429504Y34936936D01*
X40429495Y34936939D01*
X40209984Y35012298D01*
X40022404Y35043599D01*
X39981049Y35050500D01*
X39748951Y35050500D01*
X39707596Y35043599D01*
X39520015Y35012298D01*
X39300504Y34936939D01*
X39300495Y34936936D01*
X39096371Y34826469D01*
X39096365Y34826465D01*
X38913222Y34683919D01*
X38913215Y34683913D01*
X38904484Y34674428D01*
X38844595Y34638439D01*
X38774757Y34640542D01*
X38717143Y34680068D01*
X38697075Y34715082D01*
X38668355Y34792085D01*
X38668350Y34792094D01*
X38582190Y34907188D01*
X38582187Y34907191D01*
X38467093Y34993351D01*
X38467086Y34993355D01*
X38332379Y35043597D01*
X38332372Y35043599D01*
X38272844Y35050000D01*
X37575000Y35050000D01*
X37575000Y34211822D01*
X37555315Y34144783D01*
X37502511Y34099028D01*
X37433353Y34089084D01*
X37414454Y34093330D01*
X37392829Y34100000D01*
X37392827Y34100000D01*
X37291276Y34100000D01*
X37291266Y34100000D01*
X37217479Y34088878D01*
X37148255Y34098351D01*
X37095141Y34143746D01*
X37075002Y34210651D01*
X37074999Y34211493D01*
X37075000Y35050000D01*
X36377155Y35050000D01*
X36317627Y35043599D01*
X36317620Y35043597D01*
X36182913Y34993355D01*
X36182906Y34993351D01*
X36067812Y34907191D01*
X36067809Y34907188D01*
X35981649Y34792094D01*
X35981645Y34792087D01*
X35931403Y34657380D01*
X35931401Y34657373D01*
X35925000Y34597845D01*
X35925000Y33900000D01*
X36764997Y33900000D01*
X36832036Y33880315D01*
X36877791Y33827511D01*
X36887735Y33758353D01*
X36885888Y33748408D01*
X36871189Y33684008D01*
X36871189Y33684007D01*
X36882021Y33539468D01*
X36879920Y33539311D01*
X36876405Y33481861D01*
X36835110Y33425501D01*
X36769899Y33400413D01*
X36759784Y33400000D01*
X35925000Y33400000D01*
X35925000Y32702156D01*
X15296016Y32702156D01*
X15373979Y32786847D01*
X15500924Y32981151D01*
X15594157Y33193700D01*
X15651134Y33418695D01*
X15656524Y33483740D01*
X15670300Y33649994D01*
X15670300Y33650007D01*
X15651135Y33881298D01*
X15651133Y33881309D01*
X15594157Y34106301D01*
X15500924Y34318849D01*
X15373983Y34513148D01*
X15373980Y34513151D01*
X15373979Y34513153D01*
X15216784Y34683913D01*
X15216779Y34683917D01*
X15216777Y34683919D01*
X15033634Y34826465D01*
X15033628Y34826469D01*
X14829504Y34936936D01*
X14829495Y34936939D01*
X14609984Y35012298D01*
X14422404Y35043599D01*
X14381049Y35050500D01*
X14148951Y35050500D01*
X14107596Y35043599D01*
X13920015Y35012298D01*
X13700504Y34936939D01*
X13700495Y34936936D01*
X13496371Y34826469D01*
X13496365Y34826465D01*
X13313222Y34683919D01*
X13313215Y34683913D01*
X13304484Y34674428D01*
X13244595Y34638439D01*
X13174757Y34640542D01*
X13117143Y34680068D01*
X13097075Y34715082D01*
X13068355Y34792085D01*
X13068350Y34792094D01*
X12982190Y34907188D01*
X12982187Y34907191D01*
X12867093Y34993351D01*
X12867086Y34993355D01*
X12732379Y35043597D01*
X12732372Y35043599D01*
X12672844Y35050000D01*
X11975000Y35050000D01*
X11975000Y34211822D01*
X11955315Y34144783D01*
X11902511Y34099028D01*
X11833353Y34089084D01*
X11814454Y34093330D01*
X11792829Y34100000D01*
X11792827Y34100000D01*
X11691276Y34100000D01*
X11691268Y34100000D01*
X11617481Y34088878D01*
X11548256Y34098351D01*
X11495143Y34143746D01*
X11475003Y34210650D01*
X11475000Y34211493D01*
X11475000Y35050000D01*
X10777155Y35050000D01*
X10717627Y35043599D01*
X10717620Y35043597D01*
X10582913Y34993355D01*
X10582906Y34993351D01*
X10467812Y34907191D01*
X10467809Y34907188D01*
X10381649Y34792094D01*
X10381645Y34792087D01*
X10331403Y34657380D01*
X10331401Y34657373D01*
X10325000Y34597845D01*
X10325000Y33900000D01*
X11164997Y33900000D01*
X11232036Y33880315D01*
X11277791Y33827511D01*
X11287735Y33758353D01*
X11285888Y33748408D01*
X11271189Y33684008D01*
X11271189Y33684007D01*
X11282021Y33539468D01*
X11279920Y33539311D01*
X11276405Y33481861D01*
X11235110Y33425501D01*
X11169899Y33400413D01*
X11159784Y33400000D01*
X10325000Y33400000D01*
X10325000Y32702156D01*
X-10303984Y32702156D01*
X-10226021Y32786847D01*
X-10099076Y32981151D01*
X-10005843Y33193700D01*
X-9948866Y33418695D01*
X-9943476Y33483740D01*
X-9929700Y33649994D01*
X-9929700Y33650007D01*
X-9948865Y33881298D01*
X-9948867Y33881309D01*
X-10005843Y34106301D01*
X-10099076Y34318849D01*
X-10226017Y34513148D01*
X-10226020Y34513151D01*
X-10226021Y34513153D01*
X-10383216Y34683913D01*
X-10383221Y34683917D01*
X-10383223Y34683919D01*
X-10566366Y34826465D01*
X-10566372Y34826469D01*
X-10770496Y34936936D01*
X-10770505Y34936939D01*
X-10990016Y35012298D01*
X-11177596Y35043599D01*
X-11218951Y35050500D01*
X-11451049Y35050500D01*
X-11492404Y35043599D01*
X-11679985Y35012298D01*
X-11899496Y34936939D01*
X-11899505Y34936936D01*
X-12103629Y34826469D01*
X-12103635Y34826465D01*
X-12286778Y34683919D01*
X-12286785Y34683913D01*
X-12295516Y34674428D01*
X-12355405Y34638439D01*
X-12425243Y34640542D01*
X-12482857Y34680068D01*
X-12502925Y34715082D01*
X-12531645Y34792085D01*
X-12531650Y34792094D01*
X-12617810Y34907188D01*
X-12617813Y34907191D01*
X-12732907Y34993351D01*
X-12732914Y34993355D01*
X-12867621Y35043597D01*
X-12867628Y35043599D01*
X-12927156Y35050000D01*
X-13625000Y35050000D01*
X-13625000Y34211822D01*
X-13644685Y34144783D01*
X-13697489Y34099028D01*
X-13766647Y34089084D01*
X-13785546Y34093330D01*
X-13807171Y34100000D01*
X-13807173Y34100000D01*
X-13908724Y34100000D01*
X-13908732Y34100000D01*
X-13982519Y34088878D01*
X-14051744Y34098351D01*
X-14104857Y34143746D01*
X-14124997Y34210650D01*
X-14125000Y34211493D01*
X-14125000Y35050000D01*
X-14822845Y35050000D01*
X-14882373Y35043599D01*
X-14882380Y35043597D01*
X-15017087Y34993355D01*
X-15017094Y34993351D01*
X-15132188Y34907191D01*
X-15132191Y34907188D01*
X-15218351Y34792094D01*
X-15218355Y34792087D01*
X-15268597Y34657380D01*
X-15268599Y34657373D01*
X-15275000Y34597845D01*
X-15275000Y33900000D01*
X-14435003Y33900000D01*
X-14367964Y33880315D01*
X-14322209Y33827511D01*
X-14312265Y33758353D01*
X-14314112Y33748408D01*
X-14328811Y33684008D01*
X-14328811Y33684007D01*
X-14317979Y33539468D01*
X-14320080Y33539311D01*
X-14323595Y33481861D01*
X-14364890Y33425501D01*
X-14430101Y33400413D01*
X-14440216Y33400000D01*
X-15275000Y33400000D01*
X-15275000Y32702156D01*
X-35903984Y32702156D01*
X-35826021Y32786847D01*
X-35699076Y32981151D01*
X-35605843Y33193700D01*
X-35548866Y33418695D01*
X-35543476Y33483740D01*
X-35529700Y33649994D01*
X-35529700Y33650007D01*
X-35548865Y33881298D01*
X-35548867Y33881309D01*
X-35605843Y34106301D01*
X-35699076Y34318849D01*
X-35826017Y34513148D01*
X-35826020Y34513151D01*
X-35826021Y34513153D01*
X-35983216Y34683913D01*
X-35983221Y34683917D01*
X-35983223Y34683919D01*
X-36166366Y34826465D01*
X-36166372Y34826469D01*
X-36370496Y34936936D01*
X-36370505Y34936939D01*
X-36590016Y35012298D01*
X-36777596Y35043599D01*
X-36818951Y35050500D01*
X-37051049Y35050500D01*
X-37092404Y35043599D01*
X-37279985Y35012298D01*
X-37499496Y34936939D01*
X-37499505Y34936936D01*
X-37703629Y34826469D01*
X-37703635Y34826465D01*
X-37886778Y34683919D01*
X-37886785Y34683913D01*
X-37895516Y34674428D01*
X-37955405Y34638439D01*
X-38025243Y34640542D01*
X-38082857Y34680068D01*
X-38102925Y34715082D01*
X-38131645Y34792085D01*
X-38131650Y34792094D01*
X-38217810Y34907188D01*
X-38217813Y34907191D01*
X-38332907Y34993351D01*
X-38332914Y34993355D01*
X-38467621Y35043597D01*
X-38467628Y35043599D01*
X-38527156Y35050000D01*
X-39225000Y35050000D01*
X-39225000Y34211822D01*
X-39244685Y34144783D01*
X-39297489Y34099028D01*
X-39366647Y34089084D01*
X-39385546Y34093330D01*
X-39407171Y34100000D01*
X-39407173Y34100000D01*
X-39508724Y34100000D01*
X-39508732Y34100000D01*
X-39582519Y34088878D01*
X-39651744Y34098351D01*
X-39704857Y34143746D01*
X-39724997Y34210650D01*
X-39725000Y34211493D01*
X-39725000Y35050000D01*
X-40422845Y35050000D01*
X-40482373Y35043599D01*
X-40482380Y35043597D01*
X-40617087Y34993355D01*
X-40617094Y34993351D01*
X-40732188Y34907191D01*
X-40732191Y34907188D01*
X-40818351Y34792094D01*
X-40818355Y34792087D01*
X-40868597Y34657380D01*
X-40868599Y34657373D01*
X-40875000Y34597845D01*
X-40875000Y33900000D01*
X-40035003Y33900000D01*
X-39967964Y33880315D01*
X-39922209Y33827511D01*
X-39912265Y33758353D01*
X-39914112Y33748408D01*
X-39928811Y33684008D01*
X-39928811Y33684007D01*
X-39917979Y33539468D01*
X-39920080Y33539311D01*
X-39923595Y33481861D01*
X-39964890Y33425501D01*
X-40030101Y33400413D01*
X-40040216Y33400000D01*
X-40875000Y33400000D01*
X-40875000Y32702156D01*
X-42500000Y32702156D01*
X-42500000Y37176000D01*
X-42480315Y37243039D01*
X-42427511Y37288794D01*
X-42376000Y37300000D01*
X42276000Y37300000D01*
X42343039Y37280315D01*
G37*
%TD.AperFunction*%
%TD*%
M02*
