%TF.GenerationSoftware,KiCad,Pcbnew,7.0.7-7.0.7~ubuntu20.04.1*%
%TF.CreationDate,2023-08-28T21:56:30+02:00*%
%TF.ProjectId,ledPCB,6c656450-4342-42e6-9b69-6361645f7063,rev?*%
%TF.SameCoordinates,PX8741bb8PY60eb478*%
%TF.FileFunction,Legend,Top*%
%TF.FilePolarity,Positive*%
%FSLAX46Y46*%
G04 Gerber Fmt 4.6, Leading zero omitted, Abs format (unit mm)*
G04 Created by KiCad (PCBNEW 7.0.7-7.0.7~ubuntu20.04.1) date 2023-08-28 21:56:30*
%MOMM*%
%LPD*%
G01*
G04 APERTURE LIST*
%ADD10C,0.150000*%
%ADD11C,0.120000*%
G04 APERTURE END LIST*
D10*
X-13819286Y-1244819D02*
X-13819286Y-244819D01*
X-13819286Y-244819D02*
X-13581191Y-244819D01*
X-13581191Y-244819D02*
X-13438334Y-292438D01*
X-13438334Y-292438D02*
X-13343096Y-387676D01*
X-13343096Y-387676D02*
X-13295477Y-482914D01*
X-13295477Y-482914D02*
X-13247858Y-673390D01*
X-13247858Y-673390D02*
X-13247858Y-816247D01*
X-13247858Y-816247D02*
X-13295477Y-1006723D01*
X-13295477Y-1006723D02*
X-13343096Y-1101961D01*
X-13343096Y-1101961D02*
X-13438334Y-1197200D01*
X-13438334Y-1197200D02*
X-13581191Y-1244819D01*
X-13581191Y-1244819D02*
X-13819286Y-1244819D01*
X-12295477Y-1244819D02*
X-12866905Y-1244819D01*
X-12581191Y-1244819D02*
X-12581191Y-244819D01*
X-12581191Y-244819D02*
X-12676429Y-387676D01*
X-12676429Y-387676D02*
X-12771667Y-482914D01*
X-12771667Y-482914D02*
X-12866905Y-530533D01*
X-11724048Y-673390D02*
X-11819286Y-625771D01*
X-11819286Y-625771D02*
X-11866905Y-578152D01*
X-11866905Y-578152D02*
X-11914524Y-482914D01*
X-11914524Y-482914D02*
X-11914524Y-435295D01*
X-11914524Y-435295D02*
X-11866905Y-340057D01*
X-11866905Y-340057D02*
X-11819286Y-292438D01*
X-11819286Y-292438D02*
X-11724048Y-244819D01*
X-11724048Y-244819D02*
X-11533572Y-244819D01*
X-11533572Y-244819D02*
X-11438334Y-292438D01*
X-11438334Y-292438D02*
X-11390715Y-340057D01*
X-11390715Y-340057D02*
X-11343096Y-435295D01*
X-11343096Y-435295D02*
X-11343096Y-482914D01*
X-11343096Y-482914D02*
X-11390715Y-578152D01*
X-11390715Y-578152D02*
X-11438334Y-625771D01*
X-11438334Y-625771D02*
X-11533572Y-673390D01*
X-11533572Y-673390D02*
X-11724048Y-673390D01*
X-11724048Y-673390D02*
X-11819286Y-721009D01*
X-11819286Y-721009D02*
X-11866905Y-768628D01*
X-11866905Y-768628D02*
X-11914524Y-863866D01*
X-11914524Y-863866D02*
X-11914524Y-1054342D01*
X-11914524Y-1054342D02*
X-11866905Y-1149580D01*
X-11866905Y-1149580D02*
X-11819286Y-1197200D01*
X-11819286Y-1197200D02*
X-11724048Y-1244819D01*
X-11724048Y-1244819D02*
X-11533572Y-1244819D01*
X-11533572Y-1244819D02*
X-11438334Y-1197200D01*
X-11438334Y-1197200D02*
X-11390715Y-1149580D01*
X-11390715Y-1149580D02*
X-11343096Y-1054342D01*
X-11343096Y-1054342D02*
X-11343096Y-863866D01*
X-11343096Y-863866D02*
X-11390715Y-768628D01*
X-11390715Y-768628D02*
X-11438334Y-721009D01*
X-11438334Y-721009D02*
X-11533572Y-673390D01*
X11780714Y-30044819D02*
X11780714Y-29044819D01*
X11780714Y-29044819D02*
X12018809Y-29044819D01*
X12018809Y-29044819D02*
X12161666Y-29092438D01*
X12161666Y-29092438D02*
X12256904Y-29187676D01*
X12256904Y-29187676D02*
X12304523Y-29282914D01*
X12304523Y-29282914D02*
X12352142Y-29473390D01*
X12352142Y-29473390D02*
X12352142Y-29616247D01*
X12352142Y-29616247D02*
X12304523Y-29806723D01*
X12304523Y-29806723D02*
X12256904Y-29901961D01*
X12256904Y-29901961D02*
X12161666Y-29997200D01*
X12161666Y-29997200D02*
X12018809Y-30044819D01*
X12018809Y-30044819D02*
X11780714Y-30044819D01*
X12685476Y-29044819D02*
X13304523Y-29044819D01*
X13304523Y-29044819D02*
X12971190Y-29425771D01*
X12971190Y-29425771D02*
X13114047Y-29425771D01*
X13114047Y-29425771D02*
X13209285Y-29473390D01*
X13209285Y-29473390D02*
X13256904Y-29521009D01*
X13256904Y-29521009D02*
X13304523Y-29616247D01*
X13304523Y-29616247D02*
X13304523Y-29854342D01*
X13304523Y-29854342D02*
X13256904Y-29949580D01*
X13256904Y-29949580D02*
X13209285Y-29997200D01*
X13209285Y-29997200D02*
X13114047Y-30044819D01*
X13114047Y-30044819D02*
X12828333Y-30044819D01*
X12828333Y-30044819D02*
X12733095Y-29997200D01*
X12733095Y-29997200D02*
X12685476Y-29949580D01*
X14256904Y-30044819D02*
X13685476Y-30044819D01*
X13971190Y-30044819D02*
X13971190Y-29044819D01*
X13971190Y-29044819D02*
X13875952Y-29187676D01*
X13875952Y-29187676D02*
X13780714Y-29282914D01*
X13780714Y-29282914D02*
X13685476Y-29330533D01*
X-13819286Y-20444819D02*
X-13819286Y-19444819D01*
X-13819286Y-19444819D02*
X-13581191Y-19444819D01*
X-13581191Y-19444819D02*
X-13438334Y-19492438D01*
X-13438334Y-19492438D02*
X-13343096Y-19587676D01*
X-13343096Y-19587676D02*
X-13295477Y-19682914D01*
X-13295477Y-19682914D02*
X-13247858Y-19873390D01*
X-13247858Y-19873390D02*
X-13247858Y-20016247D01*
X-13247858Y-20016247D02*
X-13295477Y-20206723D01*
X-13295477Y-20206723D02*
X-13343096Y-20301961D01*
X-13343096Y-20301961D02*
X-13438334Y-20397200D01*
X-13438334Y-20397200D02*
X-13581191Y-20444819D01*
X-13581191Y-20444819D02*
X-13819286Y-20444819D01*
X-12866905Y-19540057D02*
X-12819286Y-19492438D01*
X-12819286Y-19492438D02*
X-12724048Y-19444819D01*
X-12724048Y-19444819D02*
X-12485953Y-19444819D01*
X-12485953Y-19444819D02*
X-12390715Y-19492438D01*
X-12390715Y-19492438D02*
X-12343096Y-19540057D01*
X-12343096Y-19540057D02*
X-12295477Y-19635295D01*
X-12295477Y-19635295D02*
X-12295477Y-19730533D01*
X-12295477Y-19730533D02*
X-12343096Y-19873390D01*
X-12343096Y-19873390D02*
X-12914524Y-20444819D01*
X-12914524Y-20444819D02*
X-12295477Y-20444819D01*
X-11438334Y-19444819D02*
X-11628810Y-19444819D01*
X-11628810Y-19444819D02*
X-11724048Y-19492438D01*
X-11724048Y-19492438D02*
X-11771667Y-19540057D01*
X-11771667Y-19540057D02*
X-11866905Y-19682914D01*
X-11866905Y-19682914D02*
X-11914524Y-19873390D01*
X-11914524Y-19873390D02*
X-11914524Y-20254342D01*
X-11914524Y-20254342D02*
X-11866905Y-20349580D01*
X-11866905Y-20349580D02*
X-11819286Y-20397200D01*
X-11819286Y-20397200D02*
X-11724048Y-20444819D01*
X-11724048Y-20444819D02*
X-11533572Y-20444819D01*
X-11533572Y-20444819D02*
X-11438334Y-20397200D01*
X-11438334Y-20397200D02*
X-11390715Y-20349580D01*
X-11390715Y-20349580D02*
X-11343096Y-20254342D01*
X-11343096Y-20254342D02*
X-11343096Y-20016247D01*
X-11343096Y-20016247D02*
X-11390715Y-19921009D01*
X-11390715Y-19921009D02*
X-11438334Y-19873390D01*
X-11438334Y-19873390D02*
X-11533572Y-19825771D01*
X-11533572Y-19825771D02*
X-11724048Y-19825771D01*
X-11724048Y-19825771D02*
X-11819286Y-19873390D01*
X-11819286Y-19873390D02*
X-11866905Y-19921009D01*
X-11866905Y-19921009D02*
X-11914524Y-20016247D01*
X37380714Y-20444819D02*
X37380714Y-19444819D01*
X37380714Y-19444819D02*
X37618809Y-19444819D01*
X37618809Y-19444819D02*
X37761666Y-19492438D01*
X37761666Y-19492438D02*
X37856904Y-19587676D01*
X37856904Y-19587676D02*
X37904523Y-19682914D01*
X37904523Y-19682914D02*
X37952142Y-19873390D01*
X37952142Y-19873390D02*
X37952142Y-20016247D01*
X37952142Y-20016247D02*
X37904523Y-20206723D01*
X37904523Y-20206723D02*
X37856904Y-20301961D01*
X37856904Y-20301961D02*
X37761666Y-20397200D01*
X37761666Y-20397200D02*
X37618809Y-20444819D01*
X37618809Y-20444819D02*
X37380714Y-20444819D01*
X38333095Y-19540057D02*
X38380714Y-19492438D01*
X38380714Y-19492438D02*
X38475952Y-19444819D01*
X38475952Y-19444819D02*
X38714047Y-19444819D01*
X38714047Y-19444819D02*
X38809285Y-19492438D01*
X38809285Y-19492438D02*
X38856904Y-19540057D01*
X38856904Y-19540057D02*
X38904523Y-19635295D01*
X38904523Y-19635295D02*
X38904523Y-19730533D01*
X38904523Y-19730533D02*
X38856904Y-19873390D01*
X38856904Y-19873390D02*
X38285476Y-20444819D01*
X38285476Y-20444819D02*
X38904523Y-20444819D01*
X39475952Y-19873390D02*
X39380714Y-19825771D01*
X39380714Y-19825771D02*
X39333095Y-19778152D01*
X39333095Y-19778152D02*
X39285476Y-19682914D01*
X39285476Y-19682914D02*
X39285476Y-19635295D01*
X39285476Y-19635295D02*
X39333095Y-19540057D01*
X39333095Y-19540057D02*
X39380714Y-19492438D01*
X39380714Y-19492438D02*
X39475952Y-19444819D01*
X39475952Y-19444819D02*
X39666428Y-19444819D01*
X39666428Y-19444819D02*
X39761666Y-19492438D01*
X39761666Y-19492438D02*
X39809285Y-19540057D01*
X39809285Y-19540057D02*
X39856904Y-19635295D01*
X39856904Y-19635295D02*
X39856904Y-19682914D01*
X39856904Y-19682914D02*
X39809285Y-19778152D01*
X39809285Y-19778152D02*
X39761666Y-19825771D01*
X39761666Y-19825771D02*
X39666428Y-19873390D01*
X39666428Y-19873390D02*
X39475952Y-19873390D01*
X39475952Y-19873390D02*
X39380714Y-19921009D01*
X39380714Y-19921009D02*
X39333095Y-19968628D01*
X39333095Y-19968628D02*
X39285476Y-20063866D01*
X39285476Y-20063866D02*
X39285476Y-20254342D01*
X39285476Y-20254342D02*
X39333095Y-20349580D01*
X39333095Y-20349580D02*
X39380714Y-20397200D01*
X39380714Y-20397200D02*
X39475952Y-20444819D01*
X39475952Y-20444819D02*
X39666428Y-20444819D01*
X39666428Y-20444819D02*
X39761666Y-20397200D01*
X39761666Y-20397200D02*
X39809285Y-20349580D01*
X39809285Y-20349580D02*
X39856904Y-20254342D01*
X39856904Y-20254342D02*
X39856904Y-20063866D01*
X39856904Y-20063866D02*
X39809285Y-19968628D01*
X39809285Y-19968628D02*
X39761666Y-19921009D01*
X39761666Y-19921009D02*
X39666428Y-19873390D01*
X-34438095Y35045181D02*
X-34438095Y36045181D01*
X-34438095Y36045181D02*
X-34200000Y36045181D01*
X-34200000Y36045181D02*
X-34057143Y35997562D01*
X-34057143Y35997562D02*
X-33961905Y35902324D01*
X-33961905Y35902324D02*
X-33914286Y35807086D01*
X-33914286Y35807086D02*
X-33866667Y35616610D01*
X-33866667Y35616610D02*
X-33866667Y35473753D01*
X-33866667Y35473753D02*
X-33914286Y35283277D01*
X-33914286Y35283277D02*
X-33961905Y35188039D01*
X-33961905Y35188039D02*
X-34057143Y35092800D01*
X-34057143Y35092800D02*
X-34200000Y35045181D01*
X-34200000Y35045181D02*
X-34438095Y35045181D01*
X-32914286Y35045181D02*
X-33485714Y35045181D01*
X-33200000Y35045181D02*
X-33200000Y36045181D01*
X-33200000Y36045181D02*
X-33295238Y35902324D01*
X-33295238Y35902324D02*
X-33390476Y35807086D01*
X-33390476Y35807086D02*
X-33485714Y35759467D01*
X-39419286Y-10844819D02*
X-39419286Y-9844819D01*
X-39419286Y-9844819D02*
X-39181191Y-9844819D01*
X-39181191Y-9844819D02*
X-39038334Y-9892438D01*
X-39038334Y-9892438D02*
X-38943096Y-9987676D01*
X-38943096Y-9987676D02*
X-38895477Y-10082914D01*
X-38895477Y-10082914D02*
X-38847858Y-10273390D01*
X-38847858Y-10273390D02*
X-38847858Y-10416247D01*
X-38847858Y-10416247D02*
X-38895477Y-10606723D01*
X-38895477Y-10606723D02*
X-38943096Y-10701961D01*
X-38943096Y-10701961D02*
X-39038334Y-10797200D01*
X-39038334Y-10797200D02*
X-39181191Y-10844819D01*
X-39181191Y-10844819D02*
X-39419286Y-10844819D01*
X-38466905Y-9940057D02*
X-38419286Y-9892438D01*
X-38419286Y-9892438D02*
X-38324048Y-9844819D01*
X-38324048Y-9844819D02*
X-38085953Y-9844819D01*
X-38085953Y-9844819D02*
X-37990715Y-9892438D01*
X-37990715Y-9892438D02*
X-37943096Y-9940057D01*
X-37943096Y-9940057D02*
X-37895477Y-10035295D01*
X-37895477Y-10035295D02*
X-37895477Y-10130533D01*
X-37895477Y-10130533D02*
X-37943096Y-10273390D01*
X-37943096Y-10273390D02*
X-38514524Y-10844819D01*
X-38514524Y-10844819D02*
X-37895477Y-10844819D01*
X-36943096Y-10844819D02*
X-37514524Y-10844819D01*
X-37228810Y-10844819D02*
X-37228810Y-9844819D01*
X-37228810Y-9844819D02*
X-37324048Y-9987676D01*
X-37324048Y-9987676D02*
X-37419286Y-10082914D01*
X-37419286Y-10082914D02*
X-37514524Y-10130533D01*
X-39419286Y8355181D02*
X-39419286Y9355181D01*
X-39419286Y9355181D02*
X-39181191Y9355181D01*
X-39181191Y9355181D02*
X-39038334Y9307562D01*
X-39038334Y9307562D02*
X-38943096Y9212324D01*
X-38943096Y9212324D02*
X-38895477Y9117086D01*
X-38895477Y9117086D02*
X-38847858Y8926610D01*
X-38847858Y8926610D02*
X-38847858Y8783753D01*
X-38847858Y8783753D02*
X-38895477Y8593277D01*
X-38895477Y8593277D02*
X-38943096Y8498039D01*
X-38943096Y8498039D02*
X-39038334Y8402800D01*
X-39038334Y8402800D02*
X-39181191Y8355181D01*
X-39181191Y8355181D02*
X-39419286Y8355181D01*
X-37895477Y8355181D02*
X-38466905Y8355181D01*
X-38181191Y8355181D02*
X-38181191Y9355181D01*
X-38181191Y9355181D02*
X-38276429Y9212324D01*
X-38276429Y9212324D02*
X-38371667Y9117086D01*
X-38371667Y9117086D02*
X-38466905Y9069467D01*
X-37562143Y9355181D02*
X-36943096Y9355181D01*
X-36943096Y9355181D02*
X-37276429Y8974229D01*
X-37276429Y8974229D02*
X-37133572Y8974229D01*
X-37133572Y8974229D02*
X-37038334Y8926610D01*
X-37038334Y8926610D02*
X-36990715Y8878991D01*
X-36990715Y8878991D02*
X-36943096Y8783753D01*
X-36943096Y8783753D02*
X-36943096Y8545658D01*
X-36943096Y8545658D02*
X-36990715Y8450420D01*
X-36990715Y8450420D02*
X-37038334Y8402800D01*
X-37038334Y8402800D02*
X-37133572Y8355181D01*
X-37133572Y8355181D02*
X-37419286Y8355181D01*
X-37419286Y8355181D02*
X-37514524Y8402800D01*
X-37514524Y8402800D02*
X-37562143Y8450420D01*
X11780714Y8355181D02*
X11780714Y9355181D01*
X11780714Y9355181D02*
X12018809Y9355181D01*
X12018809Y9355181D02*
X12161666Y9307562D01*
X12161666Y9307562D02*
X12256904Y9212324D01*
X12256904Y9212324D02*
X12304523Y9117086D01*
X12304523Y9117086D02*
X12352142Y8926610D01*
X12352142Y8926610D02*
X12352142Y8783753D01*
X12352142Y8783753D02*
X12304523Y8593277D01*
X12304523Y8593277D02*
X12256904Y8498039D01*
X12256904Y8498039D02*
X12161666Y8402800D01*
X12161666Y8402800D02*
X12018809Y8355181D01*
X12018809Y8355181D02*
X11780714Y8355181D01*
X13304523Y8355181D02*
X12733095Y8355181D01*
X13018809Y8355181D02*
X13018809Y9355181D01*
X13018809Y9355181D02*
X12923571Y9212324D01*
X12923571Y9212324D02*
X12828333Y9117086D01*
X12828333Y9117086D02*
X12733095Y9069467D01*
X14209285Y9355181D02*
X13733095Y9355181D01*
X13733095Y9355181D02*
X13685476Y8878991D01*
X13685476Y8878991D02*
X13733095Y8926610D01*
X13733095Y8926610D02*
X13828333Y8974229D01*
X13828333Y8974229D02*
X14066428Y8974229D01*
X14066428Y8974229D02*
X14161666Y8926610D01*
X14161666Y8926610D02*
X14209285Y8878991D01*
X14209285Y8878991D02*
X14256904Y8783753D01*
X14256904Y8783753D02*
X14256904Y8545658D01*
X14256904Y8545658D02*
X14209285Y8450420D01*
X14209285Y8450420D02*
X14161666Y8402800D01*
X14161666Y8402800D02*
X14066428Y8355181D01*
X14066428Y8355181D02*
X13828333Y8355181D01*
X13828333Y8355181D02*
X13733095Y8402800D01*
X13733095Y8402800D02*
X13685476Y8450420D01*
X-38943095Y17955181D02*
X-38943095Y18955181D01*
X-38943095Y18955181D02*
X-38705000Y18955181D01*
X-38705000Y18955181D02*
X-38562143Y18907562D01*
X-38562143Y18907562D02*
X-38466905Y18812324D01*
X-38466905Y18812324D02*
X-38419286Y18717086D01*
X-38419286Y18717086D02*
X-38371667Y18526610D01*
X-38371667Y18526610D02*
X-38371667Y18383753D01*
X-38371667Y18383753D02*
X-38419286Y18193277D01*
X-38419286Y18193277D02*
X-38466905Y18098039D01*
X-38466905Y18098039D02*
X-38562143Y18002800D01*
X-38562143Y18002800D02*
X-38705000Y17955181D01*
X-38705000Y17955181D02*
X-38943095Y17955181D01*
X-37895476Y17955181D02*
X-37705000Y17955181D01*
X-37705000Y17955181D02*
X-37609762Y18002800D01*
X-37609762Y18002800D02*
X-37562143Y18050420D01*
X-37562143Y18050420D02*
X-37466905Y18193277D01*
X-37466905Y18193277D02*
X-37419286Y18383753D01*
X-37419286Y18383753D02*
X-37419286Y18764705D01*
X-37419286Y18764705D02*
X-37466905Y18859943D01*
X-37466905Y18859943D02*
X-37514524Y18907562D01*
X-37514524Y18907562D02*
X-37609762Y18955181D01*
X-37609762Y18955181D02*
X-37800238Y18955181D01*
X-37800238Y18955181D02*
X-37895476Y18907562D01*
X-37895476Y18907562D02*
X-37943095Y18859943D01*
X-37943095Y18859943D02*
X-37990714Y18764705D01*
X-37990714Y18764705D02*
X-37990714Y18526610D01*
X-37990714Y18526610D02*
X-37943095Y18431372D01*
X-37943095Y18431372D02*
X-37895476Y18383753D01*
X-37895476Y18383753D02*
X-37800238Y18336134D01*
X-37800238Y18336134D02*
X-37609762Y18336134D01*
X-37609762Y18336134D02*
X-37514524Y18383753D01*
X-37514524Y18383753D02*
X-37466905Y18431372D01*
X-37466905Y18431372D02*
X-37419286Y18526610D01*
X-13819286Y17955181D02*
X-13819286Y18955181D01*
X-13819286Y18955181D02*
X-13581191Y18955181D01*
X-13581191Y18955181D02*
X-13438334Y18907562D01*
X-13438334Y18907562D02*
X-13343096Y18812324D01*
X-13343096Y18812324D02*
X-13295477Y18717086D01*
X-13295477Y18717086D02*
X-13247858Y18526610D01*
X-13247858Y18526610D02*
X-13247858Y18383753D01*
X-13247858Y18383753D02*
X-13295477Y18193277D01*
X-13295477Y18193277D02*
X-13343096Y18098039D01*
X-13343096Y18098039D02*
X-13438334Y18002800D01*
X-13438334Y18002800D02*
X-13581191Y17955181D01*
X-13581191Y17955181D02*
X-13819286Y17955181D01*
X-12295477Y17955181D02*
X-12866905Y17955181D01*
X-12581191Y17955181D02*
X-12581191Y18955181D01*
X-12581191Y18955181D02*
X-12676429Y18812324D01*
X-12676429Y18812324D02*
X-12771667Y18717086D01*
X-12771667Y18717086D02*
X-12866905Y18669467D01*
X-11676429Y18955181D02*
X-11581191Y18955181D01*
X-11581191Y18955181D02*
X-11485953Y18907562D01*
X-11485953Y18907562D02*
X-11438334Y18859943D01*
X-11438334Y18859943D02*
X-11390715Y18764705D01*
X-11390715Y18764705D02*
X-11343096Y18574229D01*
X-11343096Y18574229D02*
X-11343096Y18336134D01*
X-11343096Y18336134D02*
X-11390715Y18145658D01*
X-11390715Y18145658D02*
X-11438334Y18050420D01*
X-11438334Y18050420D02*
X-11485953Y18002800D01*
X-11485953Y18002800D02*
X-11581191Y17955181D01*
X-11581191Y17955181D02*
X-11676429Y17955181D01*
X-11676429Y17955181D02*
X-11771667Y18002800D01*
X-11771667Y18002800D02*
X-11819286Y18050420D01*
X-11819286Y18050420D02*
X-11866905Y18145658D01*
X-11866905Y18145658D02*
X-11914524Y18336134D01*
X-11914524Y18336134D02*
X-11914524Y18574229D01*
X-11914524Y18574229D02*
X-11866905Y18764705D01*
X-11866905Y18764705D02*
X-11819286Y18859943D01*
X-11819286Y18859943D02*
X-11771667Y18907562D01*
X-11771667Y18907562D02*
X-11676429Y18955181D01*
X37380714Y-10844819D02*
X37380714Y-9844819D01*
X37380714Y-9844819D02*
X37618809Y-9844819D01*
X37618809Y-9844819D02*
X37761666Y-9892438D01*
X37761666Y-9892438D02*
X37856904Y-9987676D01*
X37856904Y-9987676D02*
X37904523Y-10082914D01*
X37904523Y-10082914D02*
X37952142Y-10273390D01*
X37952142Y-10273390D02*
X37952142Y-10416247D01*
X37952142Y-10416247D02*
X37904523Y-10606723D01*
X37904523Y-10606723D02*
X37856904Y-10701961D01*
X37856904Y-10701961D02*
X37761666Y-10797200D01*
X37761666Y-10797200D02*
X37618809Y-10844819D01*
X37618809Y-10844819D02*
X37380714Y-10844819D01*
X38333095Y-9940057D02*
X38380714Y-9892438D01*
X38380714Y-9892438D02*
X38475952Y-9844819D01*
X38475952Y-9844819D02*
X38714047Y-9844819D01*
X38714047Y-9844819D02*
X38809285Y-9892438D01*
X38809285Y-9892438D02*
X38856904Y-9940057D01*
X38856904Y-9940057D02*
X38904523Y-10035295D01*
X38904523Y-10035295D02*
X38904523Y-10130533D01*
X38904523Y-10130533D02*
X38856904Y-10273390D01*
X38856904Y-10273390D02*
X38285476Y-10844819D01*
X38285476Y-10844819D02*
X38904523Y-10844819D01*
X39761666Y-10178152D02*
X39761666Y-10844819D01*
X39523571Y-9797200D02*
X39285476Y-10511485D01*
X39285476Y-10511485D02*
X39904523Y-10511485D01*
X-13343095Y27555181D02*
X-13343095Y28555181D01*
X-13343095Y28555181D02*
X-13105000Y28555181D01*
X-13105000Y28555181D02*
X-12962143Y28507562D01*
X-12962143Y28507562D02*
X-12866905Y28412324D01*
X-12866905Y28412324D02*
X-12819286Y28317086D01*
X-12819286Y28317086D02*
X-12771667Y28126610D01*
X-12771667Y28126610D02*
X-12771667Y27983753D01*
X-12771667Y27983753D02*
X-12819286Y27793277D01*
X-12819286Y27793277D02*
X-12866905Y27698039D01*
X-12866905Y27698039D02*
X-12962143Y27602800D01*
X-12962143Y27602800D02*
X-13105000Y27555181D01*
X-13105000Y27555181D02*
X-13343095Y27555181D01*
X-11914524Y28555181D02*
X-12105000Y28555181D01*
X-12105000Y28555181D02*
X-12200238Y28507562D01*
X-12200238Y28507562D02*
X-12247857Y28459943D01*
X-12247857Y28459943D02*
X-12343095Y28317086D01*
X-12343095Y28317086D02*
X-12390714Y28126610D01*
X-12390714Y28126610D02*
X-12390714Y27745658D01*
X-12390714Y27745658D02*
X-12343095Y27650420D01*
X-12343095Y27650420D02*
X-12295476Y27602800D01*
X-12295476Y27602800D02*
X-12200238Y27555181D01*
X-12200238Y27555181D02*
X-12009762Y27555181D01*
X-12009762Y27555181D02*
X-11914524Y27602800D01*
X-11914524Y27602800D02*
X-11866905Y27650420D01*
X-11866905Y27650420D02*
X-11819286Y27745658D01*
X-11819286Y27745658D02*
X-11819286Y27983753D01*
X-11819286Y27983753D02*
X-11866905Y28078991D01*
X-11866905Y28078991D02*
X-11914524Y28126610D01*
X-11914524Y28126610D02*
X-12009762Y28174229D01*
X-12009762Y28174229D02*
X-12200238Y28174229D01*
X-12200238Y28174229D02*
X-12295476Y28126610D01*
X-12295476Y28126610D02*
X-12343095Y28078991D01*
X-12343095Y28078991D02*
X-12390714Y27983753D01*
X33761905Y35745181D02*
X33761905Y36745181D01*
X33761905Y36745181D02*
X34000000Y36745181D01*
X34000000Y36745181D02*
X34142857Y36697562D01*
X34142857Y36697562D02*
X34238095Y36602324D01*
X34238095Y36602324D02*
X34285714Y36507086D01*
X34285714Y36507086D02*
X34333333Y36316610D01*
X34333333Y36316610D02*
X34333333Y36173753D01*
X34333333Y36173753D02*
X34285714Y35983277D01*
X34285714Y35983277D02*
X34238095Y35888039D01*
X34238095Y35888039D02*
X34142857Y35792800D01*
X34142857Y35792800D02*
X34000000Y35745181D01*
X34000000Y35745181D02*
X33761905Y35745181D01*
X35190476Y36411848D02*
X35190476Y35745181D01*
X34952381Y36792800D02*
X34714286Y36078515D01*
X34714286Y36078515D02*
X35333333Y36078515D01*
X11780714Y-20444819D02*
X11780714Y-19444819D01*
X11780714Y-19444819D02*
X12018809Y-19444819D01*
X12018809Y-19444819D02*
X12161666Y-19492438D01*
X12161666Y-19492438D02*
X12256904Y-19587676D01*
X12256904Y-19587676D02*
X12304523Y-19682914D01*
X12304523Y-19682914D02*
X12352142Y-19873390D01*
X12352142Y-19873390D02*
X12352142Y-20016247D01*
X12352142Y-20016247D02*
X12304523Y-20206723D01*
X12304523Y-20206723D02*
X12256904Y-20301961D01*
X12256904Y-20301961D02*
X12161666Y-20397200D01*
X12161666Y-20397200D02*
X12018809Y-20444819D01*
X12018809Y-20444819D02*
X11780714Y-20444819D01*
X12733095Y-19540057D02*
X12780714Y-19492438D01*
X12780714Y-19492438D02*
X12875952Y-19444819D01*
X12875952Y-19444819D02*
X13114047Y-19444819D01*
X13114047Y-19444819D02*
X13209285Y-19492438D01*
X13209285Y-19492438D02*
X13256904Y-19540057D01*
X13256904Y-19540057D02*
X13304523Y-19635295D01*
X13304523Y-19635295D02*
X13304523Y-19730533D01*
X13304523Y-19730533D02*
X13256904Y-19873390D01*
X13256904Y-19873390D02*
X12685476Y-20444819D01*
X12685476Y-20444819D02*
X13304523Y-20444819D01*
X13637857Y-19444819D02*
X14304523Y-19444819D01*
X14304523Y-19444819D02*
X13875952Y-20444819D01*
X-13819286Y-30044819D02*
X-13819286Y-29044819D01*
X-13819286Y-29044819D02*
X-13581191Y-29044819D01*
X-13581191Y-29044819D02*
X-13438334Y-29092438D01*
X-13438334Y-29092438D02*
X-13343096Y-29187676D01*
X-13343096Y-29187676D02*
X-13295477Y-29282914D01*
X-13295477Y-29282914D02*
X-13247858Y-29473390D01*
X-13247858Y-29473390D02*
X-13247858Y-29616247D01*
X-13247858Y-29616247D02*
X-13295477Y-29806723D01*
X-13295477Y-29806723D02*
X-13343096Y-29901961D01*
X-13343096Y-29901961D02*
X-13438334Y-29997200D01*
X-13438334Y-29997200D02*
X-13581191Y-30044819D01*
X-13581191Y-30044819D02*
X-13819286Y-30044819D01*
X-12914524Y-29044819D02*
X-12295477Y-29044819D01*
X-12295477Y-29044819D02*
X-12628810Y-29425771D01*
X-12628810Y-29425771D02*
X-12485953Y-29425771D01*
X-12485953Y-29425771D02*
X-12390715Y-29473390D01*
X-12390715Y-29473390D02*
X-12343096Y-29521009D01*
X-12343096Y-29521009D02*
X-12295477Y-29616247D01*
X-12295477Y-29616247D02*
X-12295477Y-29854342D01*
X-12295477Y-29854342D02*
X-12343096Y-29949580D01*
X-12343096Y-29949580D02*
X-12390715Y-29997200D01*
X-12390715Y-29997200D02*
X-12485953Y-30044819D01*
X-12485953Y-30044819D02*
X-12771667Y-30044819D01*
X-12771667Y-30044819D02*
X-12866905Y-29997200D01*
X-12866905Y-29997200D02*
X-12914524Y-29949580D01*
X-11676429Y-29044819D02*
X-11581191Y-29044819D01*
X-11581191Y-29044819D02*
X-11485953Y-29092438D01*
X-11485953Y-29092438D02*
X-11438334Y-29140057D01*
X-11438334Y-29140057D02*
X-11390715Y-29235295D01*
X-11390715Y-29235295D02*
X-11343096Y-29425771D01*
X-11343096Y-29425771D02*
X-11343096Y-29663866D01*
X-11343096Y-29663866D02*
X-11390715Y-29854342D01*
X-11390715Y-29854342D02*
X-11438334Y-29949580D01*
X-11438334Y-29949580D02*
X-11485953Y-29997200D01*
X-11485953Y-29997200D02*
X-11581191Y-30044819D01*
X-11581191Y-30044819D02*
X-11676429Y-30044819D01*
X-11676429Y-30044819D02*
X-11771667Y-29997200D01*
X-11771667Y-29997200D02*
X-11819286Y-29949580D01*
X-11819286Y-29949580D02*
X-11866905Y-29854342D01*
X-11866905Y-29854342D02*
X-11914524Y-29663866D01*
X-11914524Y-29663866D02*
X-11914524Y-29425771D01*
X-11914524Y-29425771D02*
X-11866905Y-29235295D01*
X-11866905Y-29235295D02*
X-11819286Y-29140057D01*
X-11819286Y-29140057D02*
X-11771667Y-29092438D01*
X-11771667Y-29092438D02*
X-11676429Y-29044819D01*
X11780714Y-1244819D02*
X11780714Y-244819D01*
X11780714Y-244819D02*
X12018809Y-244819D01*
X12018809Y-244819D02*
X12161666Y-292438D01*
X12161666Y-292438D02*
X12256904Y-387676D01*
X12256904Y-387676D02*
X12304523Y-482914D01*
X12304523Y-482914D02*
X12352142Y-673390D01*
X12352142Y-673390D02*
X12352142Y-816247D01*
X12352142Y-816247D02*
X12304523Y-1006723D01*
X12304523Y-1006723D02*
X12256904Y-1101961D01*
X12256904Y-1101961D02*
X12161666Y-1197200D01*
X12161666Y-1197200D02*
X12018809Y-1244819D01*
X12018809Y-1244819D02*
X11780714Y-1244819D01*
X13304523Y-1244819D02*
X12733095Y-1244819D01*
X13018809Y-1244819D02*
X13018809Y-244819D01*
X13018809Y-244819D02*
X12923571Y-387676D01*
X12923571Y-387676D02*
X12828333Y-482914D01*
X12828333Y-482914D02*
X12733095Y-530533D01*
X13780714Y-1244819D02*
X13971190Y-1244819D01*
X13971190Y-1244819D02*
X14066428Y-1197200D01*
X14066428Y-1197200D02*
X14114047Y-1149580D01*
X14114047Y-1149580D02*
X14209285Y-1006723D01*
X14209285Y-1006723D02*
X14256904Y-816247D01*
X14256904Y-816247D02*
X14256904Y-435295D01*
X14256904Y-435295D02*
X14209285Y-340057D01*
X14209285Y-340057D02*
X14161666Y-292438D01*
X14161666Y-292438D02*
X14066428Y-244819D01*
X14066428Y-244819D02*
X13875952Y-244819D01*
X13875952Y-244819D02*
X13780714Y-292438D01*
X13780714Y-292438D02*
X13733095Y-340057D01*
X13733095Y-340057D02*
X13685476Y-435295D01*
X13685476Y-435295D02*
X13685476Y-673390D01*
X13685476Y-673390D02*
X13733095Y-768628D01*
X13733095Y-768628D02*
X13780714Y-816247D01*
X13780714Y-816247D02*
X13875952Y-863866D01*
X13875952Y-863866D02*
X14066428Y-863866D01*
X14066428Y-863866D02*
X14161666Y-816247D01*
X14161666Y-816247D02*
X14209285Y-768628D01*
X14209285Y-768628D02*
X14256904Y-673390D01*
X37380714Y-1244819D02*
X37380714Y-244819D01*
X37380714Y-244819D02*
X37618809Y-244819D01*
X37618809Y-244819D02*
X37761666Y-292438D01*
X37761666Y-292438D02*
X37856904Y-387676D01*
X37856904Y-387676D02*
X37904523Y-482914D01*
X37904523Y-482914D02*
X37952142Y-673390D01*
X37952142Y-673390D02*
X37952142Y-816247D01*
X37952142Y-816247D02*
X37904523Y-1006723D01*
X37904523Y-1006723D02*
X37856904Y-1101961D01*
X37856904Y-1101961D02*
X37761666Y-1197200D01*
X37761666Y-1197200D02*
X37618809Y-1244819D01*
X37618809Y-1244819D02*
X37380714Y-1244819D01*
X38333095Y-340057D02*
X38380714Y-292438D01*
X38380714Y-292438D02*
X38475952Y-244819D01*
X38475952Y-244819D02*
X38714047Y-244819D01*
X38714047Y-244819D02*
X38809285Y-292438D01*
X38809285Y-292438D02*
X38856904Y-340057D01*
X38856904Y-340057D02*
X38904523Y-435295D01*
X38904523Y-435295D02*
X38904523Y-530533D01*
X38904523Y-530533D02*
X38856904Y-673390D01*
X38856904Y-673390D02*
X38285476Y-1244819D01*
X38285476Y-1244819D02*
X38904523Y-1244819D01*
X39523571Y-244819D02*
X39618809Y-244819D01*
X39618809Y-244819D02*
X39714047Y-292438D01*
X39714047Y-292438D02*
X39761666Y-340057D01*
X39761666Y-340057D02*
X39809285Y-435295D01*
X39809285Y-435295D02*
X39856904Y-625771D01*
X39856904Y-625771D02*
X39856904Y-863866D01*
X39856904Y-863866D02*
X39809285Y-1054342D01*
X39809285Y-1054342D02*
X39761666Y-1149580D01*
X39761666Y-1149580D02*
X39714047Y-1197200D01*
X39714047Y-1197200D02*
X39618809Y-1244819D01*
X39618809Y-1244819D02*
X39523571Y-1244819D01*
X39523571Y-1244819D02*
X39428333Y-1197200D01*
X39428333Y-1197200D02*
X39380714Y-1149580D01*
X39380714Y-1149580D02*
X39333095Y-1054342D01*
X39333095Y-1054342D02*
X39285476Y-863866D01*
X39285476Y-863866D02*
X39285476Y-625771D01*
X39285476Y-625771D02*
X39333095Y-435295D01*
X39333095Y-435295D02*
X39380714Y-340057D01*
X39380714Y-340057D02*
X39428333Y-292438D01*
X39428333Y-292438D02*
X39523571Y-244819D01*
X-13819286Y-10844819D02*
X-13819286Y-9844819D01*
X-13819286Y-9844819D02*
X-13581191Y-9844819D01*
X-13581191Y-9844819D02*
X-13438334Y-9892438D01*
X-13438334Y-9892438D02*
X-13343096Y-9987676D01*
X-13343096Y-9987676D02*
X-13295477Y-10082914D01*
X-13295477Y-10082914D02*
X-13247858Y-10273390D01*
X-13247858Y-10273390D02*
X-13247858Y-10416247D01*
X-13247858Y-10416247D02*
X-13295477Y-10606723D01*
X-13295477Y-10606723D02*
X-13343096Y-10701961D01*
X-13343096Y-10701961D02*
X-13438334Y-10797200D01*
X-13438334Y-10797200D02*
X-13581191Y-10844819D01*
X-13581191Y-10844819D02*
X-13819286Y-10844819D01*
X-12866905Y-9940057D02*
X-12819286Y-9892438D01*
X-12819286Y-9892438D02*
X-12724048Y-9844819D01*
X-12724048Y-9844819D02*
X-12485953Y-9844819D01*
X-12485953Y-9844819D02*
X-12390715Y-9892438D01*
X-12390715Y-9892438D02*
X-12343096Y-9940057D01*
X-12343096Y-9940057D02*
X-12295477Y-10035295D01*
X-12295477Y-10035295D02*
X-12295477Y-10130533D01*
X-12295477Y-10130533D02*
X-12343096Y-10273390D01*
X-12343096Y-10273390D02*
X-12914524Y-10844819D01*
X-12914524Y-10844819D02*
X-12295477Y-10844819D01*
X-11914524Y-9940057D02*
X-11866905Y-9892438D01*
X-11866905Y-9892438D02*
X-11771667Y-9844819D01*
X-11771667Y-9844819D02*
X-11533572Y-9844819D01*
X-11533572Y-9844819D02*
X-11438334Y-9892438D01*
X-11438334Y-9892438D02*
X-11390715Y-9940057D01*
X-11390715Y-9940057D02*
X-11343096Y-10035295D01*
X-11343096Y-10035295D02*
X-11343096Y-10130533D01*
X-11343096Y-10130533D02*
X-11390715Y-10273390D01*
X-11390715Y-10273390D02*
X-11962143Y-10844819D01*
X-11962143Y-10844819D02*
X-11343096Y-10844819D01*
X37380714Y17955181D02*
X37380714Y18955181D01*
X37380714Y18955181D02*
X37618809Y18955181D01*
X37618809Y18955181D02*
X37761666Y18907562D01*
X37761666Y18907562D02*
X37856904Y18812324D01*
X37856904Y18812324D02*
X37904523Y18717086D01*
X37904523Y18717086D02*
X37952142Y18526610D01*
X37952142Y18526610D02*
X37952142Y18383753D01*
X37952142Y18383753D02*
X37904523Y18193277D01*
X37904523Y18193277D02*
X37856904Y18098039D01*
X37856904Y18098039D02*
X37761666Y18002800D01*
X37761666Y18002800D02*
X37618809Y17955181D01*
X37618809Y17955181D02*
X37380714Y17955181D01*
X38904523Y17955181D02*
X38333095Y17955181D01*
X38618809Y17955181D02*
X38618809Y18955181D01*
X38618809Y18955181D02*
X38523571Y18812324D01*
X38523571Y18812324D02*
X38428333Y18717086D01*
X38428333Y18717086D02*
X38333095Y18669467D01*
X39285476Y18859943D02*
X39333095Y18907562D01*
X39333095Y18907562D02*
X39428333Y18955181D01*
X39428333Y18955181D02*
X39666428Y18955181D01*
X39666428Y18955181D02*
X39761666Y18907562D01*
X39761666Y18907562D02*
X39809285Y18859943D01*
X39809285Y18859943D02*
X39856904Y18764705D01*
X39856904Y18764705D02*
X39856904Y18669467D01*
X39856904Y18669467D02*
X39809285Y18526610D01*
X39809285Y18526610D02*
X39237857Y17955181D01*
X39237857Y17955181D02*
X39856904Y17955181D01*
X11780714Y17955181D02*
X11780714Y18955181D01*
X11780714Y18955181D02*
X12018809Y18955181D01*
X12018809Y18955181D02*
X12161666Y18907562D01*
X12161666Y18907562D02*
X12256904Y18812324D01*
X12256904Y18812324D02*
X12304523Y18717086D01*
X12304523Y18717086D02*
X12352142Y18526610D01*
X12352142Y18526610D02*
X12352142Y18383753D01*
X12352142Y18383753D02*
X12304523Y18193277D01*
X12304523Y18193277D02*
X12256904Y18098039D01*
X12256904Y18098039D02*
X12161666Y18002800D01*
X12161666Y18002800D02*
X12018809Y17955181D01*
X12018809Y17955181D02*
X11780714Y17955181D01*
X13304523Y17955181D02*
X12733095Y17955181D01*
X13018809Y17955181D02*
X13018809Y18955181D01*
X13018809Y18955181D02*
X12923571Y18812324D01*
X12923571Y18812324D02*
X12828333Y18717086D01*
X12828333Y18717086D02*
X12733095Y18669467D01*
X14256904Y17955181D02*
X13685476Y17955181D01*
X13971190Y17955181D02*
X13971190Y18955181D01*
X13971190Y18955181D02*
X13875952Y18812324D01*
X13875952Y18812324D02*
X13780714Y18717086D01*
X13780714Y18717086D02*
X13685476Y18669467D01*
X12256905Y27555181D02*
X12256905Y28555181D01*
X12256905Y28555181D02*
X12495000Y28555181D01*
X12495000Y28555181D02*
X12637857Y28507562D01*
X12637857Y28507562D02*
X12733095Y28412324D01*
X12733095Y28412324D02*
X12780714Y28317086D01*
X12780714Y28317086D02*
X12828333Y28126610D01*
X12828333Y28126610D02*
X12828333Y27983753D01*
X12828333Y27983753D02*
X12780714Y27793277D01*
X12780714Y27793277D02*
X12733095Y27698039D01*
X12733095Y27698039D02*
X12637857Y27602800D01*
X12637857Y27602800D02*
X12495000Y27555181D01*
X12495000Y27555181D02*
X12256905Y27555181D01*
X13161667Y28555181D02*
X13828333Y28555181D01*
X13828333Y28555181D02*
X13399762Y27555181D01*
X-39419286Y-20444819D02*
X-39419286Y-19444819D01*
X-39419286Y-19444819D02*
X-39181191Y-19444819D01*
X-39181191Y-19444819D02*
X-39038334Y-19492438D01*
X-39038334Y-19492438D02*
X-38943096Y-19587676D01*
X-38943096Y-19587676D02*
X-38895477Y-19682914D01*
X-38895477Y-19682914D02*
X-38847858Y-19873390D01*
X-38847858Y-19873390D02*
X-38847858Y-20016247D01*
X-38847858Y-20016247D02*
X-38895477Y-20206723D01*
X-38895477Y-20206723D02*
X-38943096Y-20301961D01*
X-38943096Y-20301961D02*
X-39038334Y-20397200D01*
X-39038334Y-20397200D02*
X-39181191Y-20444819D01*
X-39181191Y-20444819D02*
X-39419286Y-20444819D01*
X-38466905Y-19540057D02*
X-38419286Y-19492438D01*
X-38419286Y-19492438D02*
X-38324048Y-19444819D01*
X-38324048Y-19444819D02*
X-38085953Y-19444819D01*
X-38085953Y-19444819D02*
X-37990715Y-19492438D01*
X-37990715Y-19492438D02*
X-37943096Y-19540057D01*
X-37943096Y-19540057D02*
X-37895477Y-19635295D01*
X-37895477Y-19635295D02*
X-37895477Y-19730533D01*
X-37895477Y-19730533D02*
X-37943096Y-19873390D01*
X-37943096Y-19873390D02*
X-38514524Y-20444819D01*
X-38514524Y-20444819D02*
X-37895477Y-20444819D01*
X-36990715Y-19444819D02*
X-37466905Y-19444819D01*
X-37466905Y-19444819D02*
X-37514524Y-19921009D01*
X-37514524Y-19921009D02*
X-37466905Y-19873390D01*
X-37466905Y-19873390D02*
X-37371667Y-19825771D01*
X-37371667Y-19825771D02*
X-37133572Y-19825771D01*
X-37133572Y-19825771D02*
X-37038334Y-19873390D01*
X-37038334Y-19873390D02*
X-36990715Y-19921009D01*
X-36990715Y-19921009D02*
X-36943096Y-20016247D01*
X-36943096Y-20016247D02*
X-36943096Y-20254342D01*
X-36943096Y-20254342D02*
X-36990715Y-20349580D01*
X-36990715Y-20349580D02*
X-37038334Y-20397200D01*
X-37038334Y-20397200D02*
X-37133572Y-20444819D01*
X-37133572Y-20444819D02*
X-37371667Y-20444819D01*
X-37371667Y-20444819D02*
X-37466905Y-20397200D01*
X-37466905Y-20397200D02*
X-37514524Y-20349580D01*
X37856905Y27555181D02*
X37856905Y28555181D01*
X37856905Y28555181D02*
X38095000Y28555181D01*
X38095000Y28555181D02*
X38237857Y28507562D01*
X38237857Y28507562D02*
X38333095Y28412324D01*
X38333095Y28412324D02*
X38380714Y28317086D01*
X38380714Y28317086D02*
X38428333Y28126610D01*
X38428333Y28126610D02*
X38428333Y27983753D01*
X38428333Y27983753D02*
X38380714Y27793277D01*
X38380714Y27793277D02*
X38333095Y27698039D01*
X38333095Y27698039D02*
X38237857Y27602800D01*
X38237857Y27602800D02*
X38095000Y27555181D01*
X38095000Y27555181D02*
X37856905Y27555181D01*
X38999762Y28126610D02*
X38904524Y28174229D01*
X38904524Y28174229D02*
X38856905Y28221848D01*
X38856905Y28221848D02*
X38809286Y28317086D01*
X38809286Y28317086D02*
X38809286Y28364705D01*
X38809286Y28364705D02*
X38856905Y28459943D01*
X38856905Y28459943D02*
X38904524Y28507562D01*
X38904524Y28507562D02*
X38999762Y28555181D01*
X38999762Y28555181D02*
X39190238Y28555181D01*
X39190238Y28555181D02*
X39285476Y28507562D01*
X39285476Y28507562D02*
X39333095Y28459943D01*
X39333095Y28459943D02*
X39380714Y28364705D01*
X39380714Y28364705D02*
X39380714Y28317086D01*
X39380714Y28317086D02*
X39333095Y28221848D01*
X39333095Y28221848D02*
X39285476Y28174229D01*
X39285476Y28174229D02*
X39190238Y28126610D01*
X39190238Y28126610D02*
X38999762Y28126610D01*
X38999762Y28126610D02*
X38904524Y28078991D01*
X38904524Y28078991D02*
X38856905Y28031372D01*
X38856905Y28031372D02*
X38809286Y27936134D01*
X38809286Y27936134D02*
X38809286Y27745658D01*
X38809286Y27745658D02*
X38856905Y27650420D01*
X38856905Y27650420D02*
X38904524Y27602800D01*
X38904524Y27602800D02*
X38999762Y27555181D01*
X38999762Y27555181D02*
X39190238Y27555181D01*
X39190238Y27555181D02*
X39285476Y27602800D01*
X39285476Y27602800D02*
X39333095Y27650420D01*
X39333095Y27650420D02*
X39380714Y27745658D01*
X39380714Y27745658D02*
X39380714Y27936134D01*
X39380714Y27936134D02*
X39333095Y28031372D01*
X39333095Y28031372D02*
X39285476Y28078991D01*
X39285476Y28078991D02*
X39190238Y28126610D01*
X-39419286Y-1244819D02*
X-39419286Y-244819D01*
X-39419286Y-244819D02*
X-39181191Y-244819D01*
X-39181191Y-244819D02*
X-39038334Y-292438D01*
X-39038334Y-292438D02*
X-38943096Y-387676D01*
X-38943096Y-387676D02*
X-38895477Y-482914D01*
X-38895477Y-482914D02*
X-38847858Y-673390D01*
X-38847858Y-673390D02*
X-38847858Y-816247D01*
X-38847858Y-816247D02*
X-38895477Y-1006723D01*
X-38895477Y-1006723D02*
X-38943096Y-1101961D01*
X-38943096Y-1101961D02*
X-39038334Y-1197200D01*
X-39038334Y-1197200D02*
X-39181191Y-1244819D01*
X-39181191Y-1244819D02*
X-39419286Y-1244819D01*
X-37895477Y-1244819D02*
X-38466905Y-1244819D01*
X-38181191Y-1244819D02*
X-38181191Y-244819D01*
X-38181191Y-244819D02*
X-38276429Y-387676D01*
X-38276429Y-387676D02*
X-38371667Y-482914D01*
X-38371667Y-482914D02*
X-38466905Y-530533D01*
X-37562143Y-244819D02*
X-36895477Y-244819D01*
X-36895477Y-244819D02*
X-37324048Y-1244819D01*
X-13819286Y8355181D02*
X-13819286Y9355181D01*
X-13819286Y9355181D02*
X-13581191Y9355181D01*
X-13581191Y9355181D02*
X-13438334Y9307562D01*
X-13438334Y9307562D02*
X-13343096Y9212324D01*
X-13343096Y9212324D02*
X-13295477Y9117086D01*
X-13295477Y9117086D02*
X-13247858Y8926610D01*
X-13247858Y8926610D02*
X-13247858Y8783753D01*
X-13247858Y8783753D02*
X-13295477Y8593277D01*
X-13295477Y8593277D02*
X-13343096Y8498039D01*
X-13343096Y8498039D02*
X-13438334Y8402800D01*
X-13438334Y8402800D02*
X-13581191Y8355181D01*
X-13581191Y8355181D02*
X-13819286Y8355181D01*
X-12295477Y8355181D02*
X-12866905Y8355181D01*
X-12581191Y8355181D02*
X-12581191Y9355181D01*
X-12581191Y9355181D02*
X-12676429Y9212324D01*
X-12676429Y9212324D02*
X-12771667Y9117086D01*
X-12771667Y9117086D02*
X-12866905Y9069467D01*
X-11438334Y9021848D02*
X-11438334Y8355181D01*
X-11676429Y9402800D02*
X-11914524Y8688515D01*
X-11914524Y8688515D02*
X-11295477Y8688515D01*
X-39419286Y-30044819D02*
X-39419286Y-29044819D01*
X-39419286Y-29044819D02*
X-39181191Y-29044819D01*
X-39181191Y-29044819D02*
X-39038334Y-29092438D01*
X-39038334Y-29092438D02*
X-38943096Y-29187676D01*
X-38943096Y-29187676D02*
X-38895477Y-29282914D01*
X-38895477Y-29282914D02*
X-38847858Y-29473390D01*
X-38847858Y-29473390D02*
X-38847858Y-29616247D01*
X-38847858Y-29616247D02*
X-38895477Y-29806723D01*
X-38895477Y-29806723D02*
X-38943096Y-29901961D01*
X-38943096Y-29901961D02*
X-39038334Y-29997200D01*
X-39038334Y-29997200D02*
X-39181191Y-30044819D01*
X-39181191Y-30044819D02*
X-39419286Y-30044819D01*
X-38466905Y-29140057D02*
X-38419286Y-29092438D01*
X-38419286Y-29092438D02*
X-38324048Y-29044819D01*
X-38324048Y-29044819D02*
X-38085953Y-29044819D01*
X-38085953Y-29044819D02*
X-37990715Y-29092438D01*
X-37990715Y-29092438D02*
X-37943096Y-29140057D01*
X-37943096Y-29140057D02*
X-37895477Y-29235295D01*
X-37895477Y-29235295D02*
X-37895477Y-29330533D01*
X-37895477Y-29330533D02*
X-37943096Y-29473390D01*
X-37943096Y-29473390D02*
X-38514524Y-30044819D01*
X-38514524Y-30044819D02*
X-37895477Y-30044819D01*
X-37419286Y-30044819D02*
X-37228810Y-30044819D01*
X-37228810Y-30044819D02*
X-37133572Y-29997200D01*
X-37133572Y-29997200D02*
X-37085953Y-29949580D01*
X-37085953Y-29949580D02*
X-36990715Y-29806723D01*
X-36990715Y-29806723D02*
X-36943096Y-29616247D01*
X-36943096Y-29616247D02*
X-36943096Y-29235295D01*
X-36943096Y-29235295D02*
X-36990715Y-29140057D01*
X-36990715Y-29140057D02*
X-37038334Y-29092438D01*
X-37038334Y-29092438D02*
X-37133572Y-29044819D01*
X-37133572Y-29044819D02*
X-37324048Y-29044819D01*
X-37324048Y-29044819D02*
X-37419286Y-29092438D01*
X-37419286Y-29092438D02*
X-37466905Y-29140057D01*
X-37466905Y-29140057D02*
X-37514524Y-29235295D01*
X-37514524Y-29235295D02*
X-37514524Y-29473390D01*
X-37514524Y-29473390D02*
X-37466905Y-29568628D01*
X-37466905Y-29568628D02*
X-37419286Y-29616247D01*
X-37419286Y-29616247D02*
X-37324048Y-29663866D01*
X-37324048Y-29663866D02*
X-37133572Y-29663866D01*
X-37133572Y-29663866D02*
X-37038334Y-29616247D01*
X-37038334Y-29616247D02*
X-36990715Y-29568628D01*
X-36990715Y-29568628D02*
X-36943096Y-29473390D01*
X37380714Y8355181D02*
X37380714Y9355181D01*
X37380714Y9355181D02*
X37618809Y9355181D01*
X37618809Y9355181D02*
X37761666Y9307562D01*
X37761666Y9307562D02*
X37856904Y9212324D01*
X37856904Y9212324D02*
X37904523Y9117086D01*
X37904523Y9117086D02*
X37952142Y8926610D01*
X37952142Y8926610D02*
X37952142Y8783753D01*
X37952142Y8783753D02*
X37904523Y8593277D01*
X37904523Y8593277D02*
X37856904Y8498039D01*
X37856904Y8498039D02*
X37761666Y8402800D01*
X37761666Y8402800D02*
X37618809Y8355181D01*
X37618809Y8355181D02*
X37380714Y8355181D01*
X38904523Y8355181D02*
X38333095Y8355181D01*
X38618809Y8355181D02*
X38618809Y9355181D01*
X38618809Y9355181D02*
X38523571Y9212324D01*
X38523571Y9212324D02*
X38428333Y9117086D01*
X38428333Y9117086D02*
X38333095Y9069467D01*
X39761666Y9355181D02*
X39571190Y9355181D01*
X39571190Y9355181D02*
X39475952Y9307562D01*
X39475952Y9307562D02*
X39428333Y9259943D01*
X39428333Y9259943D02*
X39333095Y9117086D01*
X39333095Y9117086D02*
X39285476Y8926610D01*
X39285476Y8926610D02*
X39285476Y8545658D01*
X39285476Y8545658D02*
X39333095Y8450420D01*
X39333095Y8450420D02*
X39380714Y8402800D01*
X39380714Y8402800D02*
X39475952Y8355181D01*
X39475952Y8355181D02*
X39666428Y8355181D01*
X39666428Y8355181D02*
X39761666Y8402800D01*
X39761666Y8402800D02*
X39809285Y8450420D01*
X39809285Y8450420D02*
X39856904Y8545658D01*
X39856904Y8545658D02*
X39856904Y8783753D01*
X39856904Y8783753D02*
X39809285Y8878991D01*
X39809285Y8878991D02*
X39761666Y8926610D01*
X39761666Y8926610D02*
X39666428Y8974229D01*
X39666428Y8974229D02*
X39475952Y8974229D01*
X39475952Y8974229D02*
X39380714Y8926610D01*
X39380714Y8926610D02*
X39333095Y8878991D01*
X39333095Y8878991D02*
X39285476Y8783753D01*
X-17338095Y35545181D02*
X-17338095Y36545181D01*
X-17338095Y36545181D02*
X-17100000Y36545181D01*
X-17100000Y36545181D02*
X-16957143Y36497562D01*
X-16957143Y36497562D02*
X-16861905Y36402324D01*
X-16861905Y36402324D02*
X-16814286Y36307086D01*
X-16814286Y36307086D02*
X-16766667Y36116610D01*
X-16766667Y36116610D02*
X-16766667Y35973753D01*
X-16766667Y35973753D02*
X-16814286Y35783277D01*
X-16814286Y35783277D02*
X-16861905Y35688039D01*
X-16861905Y35688039D02*
X-16957143Y35592800D01*
X-16957143Y35592800D02*
X-17100000Y35545181D01*
X-17100000Y35545181D02*
X-17338095Y35545181D01*
X-16385714Y36449943D02*
X-16338095Y36497562D01*
X-16338095Y36497562D02*
X-16242857Y36545181D01*
X-16242857Y36545181D02*
X-16004762Y36545181D01*
X-16004762Y36545181D02*
X-15909524Y36497562D01*
X-15909524Y36497562D02*
X-15861905Y36449943D01*
X-15861905Y36449943D02*
X-15814286Y36354705D01*
X-15814286Y36354705D02*
X-15814286Y36259467D01*
X-15814286Y36259467D02*
X-15861905Y36116610D01*
X-15861905Y36116610D02*
X-16433333Y35545181D01*
X-16433333Y35545181D02*
X-15814286Y35545181D01*
X11780714Y-10844819D02*
X11780714Y-9844819D01*
X11780714Y-9844819D02*
X12018809Y-9844819D01*
X12018809Y-9844819D02*
X12161666Y-9892438D01*
X12161666Y-9892438D02*
X12256904Y-9987676D01*
X12256904Y-9987676D02*
X12304523Y-10082914D01*
X12304523Y-10082914D02*
X12352142Y-10273390D01*
X12352142Y-10273390D02*
X12352142Y-10416247D01*
X12352142Y-10416247D02*
X12304523Y-10606723D01*
X12304523Y-10606723D02*
X12256904Y-10701961D01*
X12256904Y-10701961D02*
X12161666Y-10797200D01*
X12161666Y-10797200D02*
X12018809Y-10844819D01*
X12018809Y-10844819D02*
X11780714Y-10844819D01*
X12733095Y-9940057D02*
X12780714Y-9892438D01*
X12780714Y-9892438D02*
X12875952Y-9844819D01*
X12875952Y-9844819D02*
X13114047Y-9844819D01*
X13114047Y-9844819D02*
X13209285Y-9892438D01*
X13209285Y-9892438D02*
X13256904Y-9940057D01*
X13256904Y-9940057D02*
X13304523Y-10035295D01*
X13304523Y-10035295D02*
X13304523Y-10130533D01*
X13304523Y-10130533D02*
X13256904Y-10273390D01*
X13256904Y-10273390D02*
X12685476Y-10844819D01*
X12685476Y-10844819D02*
X13304523Y-10844819D01*
X13637857Y-9844819D02*
X14256904Y-9844819D01*
X14256904Y-9844819D02*
X13923571Y-10225771D01*
X13923571Y-10225771D02*
X14066428Y-10225771D01*
X14066428Y-10225771D02*
X14161666Y-10273390D01*
X14161666Y-10273390D02*
X14209285Y-10321009D01*
X14209285Y-10321009D02*
X14256904Y-10416247D01*
X14256904Y-10416247D02*
X14256904Y-10654342D01*
X14256904Y-10654342D02*
X14209285Y-10749580D01*
X14209285Y-10749580D02*
X14161666Y-10797200D01*
X14161666Y-10797200D02*
X14066428Y-10844819D01*
X14066428Y-10844819D02*
X13780714Y-10844819D01*
X13780714Y-10844819D02*
X13685476Y-10797200D01*
X13685476Y-10797200D02*
X13637857Y-10749580D01*
X8261905Y35545181D02*
X8261905Y36545181D01*
X8261905Y36545181D02*
X8500000Y36545181D01*
X8500000Y36545181D02*
X8642857Y36497562D01*
X8642857Y36497562D02*
X8738095Y36402324D01*
X8738095Y36402324D02*
X8785714Y36307086D01*
X8785714Y36307086D02*
X8833333Y36116610D01*
X8833333Y36116610D02*
X8833333Y35973753D01*
X8833333Y35973753D02*
X8785714Y35783277D01*
X8785714Y35783277D02*
X8738095Y35688039D01*
X8738095Y35688039D02*
X8642857Y35592800D01*
X8642857Y35592800D02*
X8500000Y35545181D01*
X8500000Y35545181D02*
X8261905Y35545181D01*
X9166667Y36545181D02*
X9785714Y36545181D01*
X9785714Y36545181D02*
X9452381Y36164229D01*
X9452381Y36164229D02*
X9595238Y36164229D01*
X9595238Y36164229D02*
X9690476Y36116610D01*
X9690476Y36116610D02*
X9738095Y36068991D01*
X9738095Y36068991D02*
X9785714Y35973753D01*
X9785714Y35973753D02*
X9785714Y35735658D01*
X9785714Y35735658D02*
X9738095Y35640420D01*
X9738095Y35640420D02*
X9690476Y35592800D01*
X9690476Y35592800D02*
X9595238Y35545181D01*
X9595238Y35545181D02*
X9309524Y35545181D01*
X9309524Y35545181D02*
X9214286Y35592800D01*
X9214286Y35592800D02*
X9166667Y35640420D01*
X37380714Y-30044819D02*
X37380714Y-29044819D01*
X37380714Y-29044819D02*
X37618809Y-29044819D01*
X37618809Y-29044819D02*
X37761666Y-29092438D01*
X37761666Y-29092438D02*
X37856904Y-29187676D01*
X37856904Y-29187676D02*
X37904523Y-29282914D01*
X37904523Y-29282914D02*
X37952142Y-29473390D01*
X37952142Y-29473390D02*
X37952142Y-29616247D01*
X37952142Y-29616247D02*
X37904523Y-29806723D01*
X37904523Y-29806723D02*
X37856904Y-29901961D01*
X37856904Y-29901961D02*
X37761666Y-29997200D01*
X37761666Y-29997200D02*
X37618809Y-30044819D01*
X37618809Y-30044819D02*
X37380714Y-30044819D01*
X38285476Y-29044819D02*
X38904523Y-29044819D01*
X38904523Y-29044819D02*
X38571190Y-29425771D01*
X38571190Y-29425771D02*
X38714047Y-29425771D01*
X38714047Y-29425771D02*
X38809285Y-29473390D01*
X38809285Y-29473390D02*
X38856904Y-29521009D01*
X38856904Y-29521009D02*
X38904523Y-29616247D01*
X38904523Y-29616247D02*
X38904523Y-29854342D01*
X38904523Y-29854342D02*
X38856904Y-29949580D01*
X38856904Y-29949580D02*
X38809285Y-29997200D01*
X38809285Y-29997200D02*
X38714047Y-30044819D01*
X38714047Y-30044819D02*
X38428333Y-30044819D01*
X38428333Y-30044819D02*
X38333095Y-29997200D01*
X38333095Y-29997200D02*
X38285476Y-29949580D01*
X39285476Y-29140057D02*
X39333095Y-29092438D01*
X39333095Y-29092438D02*
X39428333Y-29044819D01*
X39428333Y-29044819D02*
X39666428Y-29044819D01*
X39666428Y-29044819D02*
X39761666Y-29092438D01*
X39761666Y-29092438D02*
X39809285Y-29140057D01*
X39809285Y-29140057D02*
X39856904Y-29235295D01*
X39856904Y-29235295D02*
X39856904Y-29330533D01*
X39856904Y-29330533D02*
X39809285Y-29473390D01*
X39809285Y-29473390D02*
X39237857Y-30044819D01*
X39237857Y-30044819D02*
X39856904Y-30044819D01*
X-38943095Y27555181D02*
X-38943095Y28555181D01*
X-38943095Y28555181D02*
X-38705000Y28555181D01*
X-38705000Y28555181D02*
X-38562143Y28507562D01*
X-38562143Y28507562D02*
X-38466905Y28412324D01*
X-38466905Y28412324D02*
X-38419286Y28317086D01*
X-38419286Y28317086D02*
X-38371667Y28126610D01*
X-38371667Y28126610D02*
X-38371667Y27983753D01*
X-38371667Y27983753D02*
X-38419286Y27793277D01*
X-38419286Y27793277D02*
X-38466905Y27698039D01*
X-38466905Y27698039D02*
X-38562143Y27602800D01*
X-38562143Y27602800D02*
X-38705000Y27555181D01*
X-38705000Y27555181D02*
X-38943095Y27555181D01*
X-37466905Y28555181D02*
X-37943095Y28555181D01*
X-37943095Y28555181D02*
X-37990714Y28078991D01*
X-37990714Y28078991D02*
X-37943095Y28126610D01*
X-37943095Y28126610D02*
X-37847857Y28174229D01*
X-37847857Y28174229D02*
X-37609762Y28174229D01*
X-37609762Y28174229D02*
X-37514524Y28126610D01*
X-37514524Y28126610D02*
X-37466905Y28078991D01*
X-37466905Y28078991D02*
X-37419286Y27983753D01*
X-37419286Y27983753D02*
X-37419286Y27745658D01*
X-37419286Y27745658D02*
X-37466905Y27650420D01*
X-37466905Y27650420D02*
X-37514524Y27602800D01*
X-37514524Y27602800D02*
X-37609762Y27555181D01*
X-37609762Y27555181D02*
X-37847857Y27555181D01*
X-37847857Y27555181D02*
X-37943095Y27602800D01*
X-37943095Y27602800D02*
X-37990714Y27650420D01*
D11*
%TO.C,D18*%
X-15165000Y-3205000D02*
X-15165000Y-6295000D01*
X-9615001Y-4750462D02*
G75*
G03*
X-15164999Y-3205170I-2989999J462D01*
G01*
X-15165000Y-6294830D02*
G75*
G03*
X-9615000Y-4749538I2560000J1544830D01*
G01*
X-10105000Y-4750000D02*
G75*
G03*
X-10105000Y-4750000I-2500000J0D01*
G01*
%TO.C,D31*%
X10435000Y-32005000D02*
X10435000Y-35095000D01*
X15984999Y-33550462D02*
G75*
G03*
X10435001Y-32005170I-2989999J462D01*
G01*
X10435000Y-35094830D02*
G75*
G03*
X15985000Y-33549538I2560000J1544830D01*
G01*
X15495000Y-33550000D02*
G75*
G03*
X15495000Y-33550000I-2500000J0D01*
G01*
%TO.C,D26*%
X-15165000Y-22405000D02*
X-15165000Y-25495000D01*
X-9615001Y-23950462D02*
G75*
G03*
X-15164999Y-22405170I-2989999J462D01*
G01*
X-15165000Y-25494830D02*
G75*
G03*
X-9615000Y-23949538I2560000J1544830D01*
G01*
X-10105000Y-23950000D02*
G75*
G03*
X-10105000Y-23950000I-2500000J0D01*
G01*
%TO.C,D28*%
X36035000Y-22405000D02*
X36035000Y-25495000D01*
X41584999Y-23950462D02*
G75*
G03*
X36035001Y-22405170I-2989999J462D01*
G01*
X36035000Y-25494830D02*
G75*
G03*
X41585000Y-23949538I2560000J1544830D01*
G01*
X41095000Y-23950000D02*
G75*
G03*
X41095000Y-23950000I-2500000J0D01*
G01*
%TO.C,D1*%
X-40765000Y35195000D02*
X-40765000Y32105000D01*
X-35215001Y33649538D02*
G75*
G03*
X-40764999Y35194830I-2989999J462D01*
G01*
X-40765000Y32105170D02*
G75*
G03*
X-35215000Y33650462I2560000J1544830D01*
G01*
X-35705000Y33650000D02*
G75*
G03*
X-35705000Y33650000I-2500000J0D01*
G01*
%TO.C,D21*%
X-40765000Y-12805000D02*
X-40765000Y-15895000D01*
X-35215001Y-14350462D02*
G75*
G03*
X-40764999Y-12805170I-2989999J462D01*
G01*
X-40765000Y-15894830D02*
G75*
G03*
X-35215000Y-14349538I2560000J1544830D01*
G01*
X-35705000Y-14350000D02*
G75*
G03*
X-35705000Y-14350000I-2500000J0D01*
G01*
%TO.C,D13*%
X-40765000Y6395000D02*
X-40765000Y3305000D01*
X-35215001Y4849538D02*
G75*
G03*
X-40764999Y6394830I-2989999J462D01*
G01*
X-40765000Y3305170D02*
G75*
G03*
X-35215000Y4850462I2560000J1544830D01*
G01*
X-35705000Y4850000D02*
G75*
G03*
X-35705000Y4850000I-2500000J0D01*
G01*
%TO.C,D15*%
X10435000Y6395000D02*
X10435000Y3305000D01*
X15984999Y4849538D02*
G75*
G03*
X10435001Y6394830I-2989999J462D01*
G01*
X10435000Y3305170D02*
G75*
G03*
X15985000Y4850462I2560000J1544830D01*
G01*
X15495000Y4850000D02*
G75*
G03*
X15495000Y4850000I-2500000J0D01*
G01*
%TO.C,D9*%
X-40765000Y15995000D02*
X-40765000Y12905000D01*
X-35215001Y14449538D02*
G75*
G03*
X-40764999Y15994830I-2989999J462D01*
G01*
X-40765000Y12905170D02*
G75*
G03*
X-35215000Y14450462I2560000J1544830D01*
G01*
X-35705000Y14450000D02*
G75*
G03*
X-35705000Y14450000I-2500000J0D01*
G01*
%TO.C,D10*%
X-15165000Y15995000D02*
X-15165000Y12905000D01*
X-9615001Y14449538D02*
G75*
G03*
X-15164999Y15994830I-2989999J462D01*
G01*
X-15165000Y12905170D02*
G75*
G03*
X-9615000Y14450462I2560000J1544830D01*
G01*
X-10105000Y14450000D02*
G75*
G03*
X-10105000Y14450000I-2500000J0D01*
G01*
%TO.C,D24*%
X36035000Y-12805000D02*
X36035000Y-15895000D01*
X41584999Y-14350462D02*
G75*
G03*
X36035001Y-12805170I-2989999J462D01*
G01*
X36035000Y-15894830D02*
G75*
G03*
X41585000Y-14349538I2560000J1544830D01*
G01*
X41095000Y-14350000D02*
G75*
G03*
X41095000Y-14350000I-2500000J0D01*
G01*
%TO.C,D6*%
X-15165000Y25595000D02*
X-15165000Y22505000D01*
X-9615001Y24049538D02*
G75*
G03*
X-15164999Y25594830I-2989999J462D01*
G01*
X-15165000Y22505170D02*
G75*
G03*
X-9615000Y24050462I2560000J1544830D01*
G01*
X-10105000Y24050000D02*
G75*
G03*
X-10105000Y24050000I-2500000J0D01*
G01*
%TO.C,D4*%
X36035000Y35195000D02*
X36035000Y32105000D01*
X41584999Y33649538D02*
G75*
G03*
X36035001Y35194830I-2989999J462D01*
G01*
X36035000Y32105170D02*
G75*
G03*
X41585000Y33650462I2560000J1544830D01*
G01*
X41095000Y33650000D02*
G75*
G03*
X41095000Y33650000I-2500000J0D01*
G01*
%TO.C,D27*%
X10435000Y-22405000D02*
X10435000Y-25495000D01*
X15984999Y-23950462D02*
G75*
G03*
X10435001Y-22405170I-2989999J462D01*
G01*
X10435000Y-25494830D02*
G75*
G03*
X15985000Y-23949538I2560000J1544830D01*
G01*
X15495000Y-23950000D02*
G75*
G03*
X15495000Y-23950000I-2500000J0D01*
G01*
%TO.C,D30*%
X-15165000Y-32005000D02*
X-15165000Y-35095000D01*
X-9615001Y-33550462D02*
G75*
G03*
X-15164999Y-32005170I-2989999J462D01*
G01*
X-15165000Y-35094830D02*
G75*
G03*
X-9615000Y-33549538I2560000J1544830D01*
G01*
X-10105000Y-33550000D02*
G75*
G03*
X-10105000Y-33550000I-2500000J0D01*
G01*
%TO.C,D19*%
X10435000Y-3205000D02*
X10435000Y-6295000D01*
X15984999Y-4750462D02*
G75*
G03*
X10435001Y-3205170I-2989999J462D01*
G01*
X10435000Y-6294830D02*
G75*
G03*
X15985000Y-4749538I2560000J1544830D01*
G01*
X15495000Y-4750000D02*
G75*
G03*
X15495000Y-4750000I-2500000J0D01*
G01*
%TO.C,D20*%
X36035000Y-3205000D02*
X36035000Y-6295000D01*
X41584999Y-4750462D02*
G75*
G03*
X36035001Y-3205170I-2989999J462D01*
G01*
X36035000Y-6294830D02*
G75*
G03*
X41585000Y-4749538I2560000J1544830D01*
G01*
X41095000Y-4750000D02*
G75*
G03*
X41095000Y-4750000I-2500000J0D01*
G01*
%TO.C,D22*%
X-15165000Y-12805000D02*
X-15165000Y-15895000D01*
X-9615001Y-14350462D02*
G75*
G03*
X-15164999Y-12805170I-2989999J462D01*
G01*
X-15165000Y-15894830D02*
G75*
G03*
X-9615000Y-14349538I2560000J1544830D01*
G01*
X-10105000Y-14350000D02*
G75*
G03*
X-10105000Y-14350000I-2500000J0D01*
G01*
%TO.C,D12*%
X36035000Y15995000D02*
X36035000Y12905000D01*
X41584999Y14449538D02*
G75*
G03*
X36035001Y15994830I-2989999J462D01*
G01*
X36035000Y12905170D02*
G75*
G03*
X41585000Y14450462I2560000J1544830D01*
G01*
X41095000Y14450000D02*
G75*
G03*
X41095000Y14450000I-2500000J0D01*
G01*
%TO.C,D11*%
X10435000Y15995000D02*
X10435000Y12905000D01*
X15984999Y14449538D02*
G75*
G03*
X10435001Y15994830I-2989999J462D01*
G01*
X10435000Y12905170D02*
G75*
G03*
X15985000Y14450462I2560000J1544830D01*
G01*
X15495000Y14450000D02*
G75*
G03*
X15495000Y14450000I-2500000J0D01*
G01*
%TO.C,D7*%
X10435000Y25595000D02*
X10435000Y22505000D01*
X15984999Y24049538D02*
G75*
G03*
X10435001Y25594830I-2989999J462D01*
G01*
X10435000Y22505170D02*
G75*
G03*
X15985000Y24050462I2560000J1544830D01*
G01*
X15495000Y24050000D02*
G75*
G03*
X15495000Y24050000I-2500000J0D01*
G01*
%TO.C,D25*%
X-40765000Y-22405000D02*
X-40765000Y-25495000D01*
X-35215001Y-23950462D02*
G75*
G03*
X-40764999Y-22405170I-2989999J462D01*
G01*
X-40765000Y-25494830D02*
G75*
G03*
X-35215000Y-23949538I2560000J1544830D01*
G01*
X-35705000Y-23950000D02*
G75*
G03*
X-35705000Y-23950000I-2500000J0D01*
G01*
%TO.C,D8*%
X36035000Y25595000D02*
X36035000Y22505000D01*
X41584999Y24049538D02*
G75*
G03*
X36035001Y25594830I-2989999J462D01*
G01*
X36035000Y22505170D02*
G75*
G03*
X41585000Y24050462I2560000J1544830D01*
G01*
X41095000Y24050000D02*
G75*
G03*
X41095000Y24050000I-2500000J0D01*
G01*
%TO.C,D17*%
X-40765000Y-3205000D02*
X-40765000Y-6295000D01*
X-35215001Y-4750462D02*
G75*
G03*
X-40764999Y-3205170I-2989999J462D01*
G01*
X-40765000Y-6294830D02*
G75*
G03*
X-35215000Y-4749538I2560000J1544830D01*
G01*
X-35705000Y-4750000D02*
G75*
G03*
X-35705000Y-4750000I-2500000J0D01*
G01*
%TO.C,D14*%
X-15165000Y6395000D02*
X-15165000Y3305000D01*
X-9615001Y4849538D02*
G75*
G03*
X-15164999Y6394830I-2989999J462D01*
G01*
X-15165000Y3305170D02*
G75*
G03*
X-9615000Y4850462I2560000J1544830D01*
G01*
X-10105000Y4850000D02*
G75*
G03*
X-10105000Y4850000I-2500000J0D01*
G01*
%TO.C,D29*%
X-40765000Y-32005000D02*
X-40765000Y-35095000D01*
X-35215001Y-33550462D02*
G75*
G03*
X-40764999Y-32005170I-2989999J462D01*
G01*
X-40765000Y-35094830D02*
G75*
G03*
X-35215000Y-33549538I2560000J1544830D01*
G01*
X-35705000Y-33550000D02*
G75*
G03*
X-35705000Y-33550000I-2500000J0D01*
G01*
%TO.C,D16*%
X36035000Y6395000D02*
X36035000Y3305000D01*
X41584999Y4849538D02*
G75*
G03*
X36035001Y6394830I-2989999J462D01*
G01*
X36035000Y3305170D02*
G75*
G03*
X41585000Y4850462I2560000J1544830D01*
G01*
X41095000Y4850000D02*
G75*
G03*
X41095000Y4850000I-2500000J0D01*
G01*
%TO.C,D2*%
X-15165000Y35195000D02*
X-15165000Y32105000D01*
X-9615001Y33649538D02*
G75*
G03*
X-15164999Y35194830I-2989999J462D01*
G01*
X-15165000Y32105170D02*
G75*
G03*
X-9615000Y33650462I2560000J1544830D01*
G01*
X-10105000Y33650000D02*
G75*
G03*
X-10105000Y33650000I-2500000J0D01*
G01*
%TO.C,D23*%
X10435000Y-12805000D02*
X10435000Y-15895000D01*
X15984999Y-14350462D02*
G75*
G03*
X10435001Y-12805170I-2989999J462D01*
G01*
X10435000Y-15894830D02*
G75*
G03*
X15985000Y-14349538I2560000J1544830D01*
G01*
X15495000Y-14350000D02*
G75*
G03*
X15495000Y-14350000I-2500000J0D01*
G01*
%TO.C,D3*%
X10435000Y35195000D02*
X10435000Y32105000D01*
X15984999Y33649538D02*
G75*
G03*
X10435001Y35194830I-2989999J462D01*
G01*
X10435000Y32105170D02*
G75*
G03*
X15985000Y33650462I2560000J1544830D01*
G01*
X15495000Y33650000D02*
G75*
G03*
X15495000Y33650000I-2500000J0D01*
G01*
%TO.C,D32*%
X36035000Y-32005000D02*
X36035000Y-35095000D01*
X41584999Y-33550462D02*
G75*
G03*
X36035001Y-32005170I-2989999J462D01*
G01*
X36035000Y-35094830D02*
G75*
G03*
X41585000Y-33549538I2560000J1544830D01*
G01*
X41095000Y-33550000D02*
G75*
G03*
X41095000Y-33550000I-2500000J0D01*
G01*
%TO.C,D5*%
X-40765000Y25595000D02*
X-40765000Y22505000D01*
X-35215001Y24049538D02*
G75*
G03*
X-40764999Y25594830I-2989999J462D01*
G01*
X-40765000Y22505170D02*
G75*
G03*
X-35215000Y24050462I2560000J1544830D01*
G01*
X-35705000Y24050000D02*
G75*
G03*
X-35705000Y24050000I-2500000J0D01*
G01*
%TD*%
M02*
