M48
; DRILL file {KiCad 7.0.5-7.0.5~ubuntu20.04.1} date Wed 21 Jun 2023 11:21:33 PM CEST
; FORMAT={-:-/ absolute / metric / decimal}
; #@! TF.CreationDate,2023-06-21T23:21:33+02:00
; #@! TF.GenerationSoftware,Kicad,Pcbnew,7.0.5-7.0.5~ubuntu20.04.1
; #@! TF.FileFunction,MixedPlating,1,2
FMAT,2
METRIC
; #@! TA.AperFunction,Plated,PTH,ComponentDrill
T1C0.800
; #@! TA.AperFunction,Plated,PTH,ComponentDrill
T2C1.000
%
G90
G05
T1
X117.57Y-66.04
X117.57Y-68.58
X117.57Y-71.12
X117.57Y-73.66
X117.57Y-76.2
X117.57Y-78.74
X117.57Y-81.28
X117.57Y-83.82
X117.57Y-86.36
X117.57Y-88.9
X117.57Y-91.44
X117.57Y-93.98
X127.73Y-66.04
X127.73Y-68.58
X127.73Y-71.12
X127.73Y-73.66
X127.73Y-76.2
X127.73Y-78.74
X127.73Y-81.28
X127.73Y-83.82
X127.73Y-86.36
X127.73Y-88.9
X127.73Y-91.44
X127.73Y-93.98
T2
X113.03Y-69.85
X113.03Y-72.39
X113.03Y-74.93
X113.03Y-77.47
X113.03Y-80.01
X113.03Y-82.55
X113.03Y-85.09
X113.03Y-87.63
X113.03Y-91.44
X113.03Y-93.98
X113.03Y-96.52
X119.395Y-97.58
X121.935Y-97.58
X124.475Y-97.58
X132.08Y-73.66
X132.08Y-76.2
X132.08Y-78.74
X132.08Y-81.28
X132.08Y-83.82
X132.08Y-86.36
X132.08Y-88.9
T0
M30
