%TF.GenerationSoftware,KiCad,Pcbnew,7.0.5-7.0.5~ubuntu20.04.1*%
%TF.CreationDate,2023-06-21T23:21:51+02:00*%
%TF.ProjectId,MAX7219Board,4d415837-3231-4394-926f-6172642e6b69,rev?*%
%TF.SameCoordinates,Original*%
%TF.FileFunction,Copper,L1,Top*%
%TF.FilePolarity,Positive*%
%FSLAX46Y46*%
G04 Gerber Fmt 4.6, Leading zero omitted, Abs format (unit mm)*
G04 Created by KiCad (PCBNEW 7.0.5-7.0.5~ubuntu20.04.1) date 2023-06-21 23:21:51*
%MOMM*%
%LPD*%
G01*
G04 APERTURE LIST*
%TA.AperFunction,ComponentPad*%
%ADD10R,1.600000X1.600000*%
%TD*%
%TA.AperFunction,ComponentPad*%
%ADD11O,1.600000X1.600000*%
%TD*%
%TA.AperFunction,ComponentPad*%
%ADD12O,1.700000X1.700000*%
%TD*%
%TA.AperFunction,ComponentPad*%
%ADD13R,1.700000X1.700000*%
%TD*%
G04 APERTURE END LIST*
D10*
%TO.P,U1,1,DIN*%
%TO.N,Net-(J2-Pin_3)*%
X117570000Y-66040000D03*
D11*
%TO.P,U1,2,DIG_0*%
%TO.N,Net-(J4-Pin_1)*%
X117570000Y-68580000D03*
%TO.P,U1,3,DIG_4*%
%TO.N,Net-(J4-Pin_2)*%
X117570000Y-71120000D03*
%TO.P,U1,4,GND*%
%TO.N,GND*%
X117570000Y-73660000D03*
%TO.P,U1,5,DIG_6*%
%TO.N,Net-(J4-Pin_3)*%
X117570000Y-76200000D03*
%TO.P,U1,6,DIG_2*%
%TO.N,Net-(J4-Pin_4)*%
X117570000Y-78740000D03*
%TO.P,U1,7,DIG_3*%
%TO.N,Net-(J4-Pin_5)*%
X117570000Y-81280000D03*
%TO.P,U1,8,DIG_7*%
%TO.N,Net-(J4-Pin_6)*%
X117570000Y-83820000D03*
%TO.P,U1,9,GND*%
%TO.N,GND*%
X117570000Y-86360000D03*
%TO.P,U1,10,DIG_5*%
%TO.N,Net-(J4-Pin_7)*%
X117570000Y-88900000D03*
%TO.P,U1,11,DIG_1*%
%TO.N,Net-(J4-Pin_8)*%
X117570000Y-91440000D03*
%TO.P,U1,12,LOAD*%
%TO.N,Net-(J2-Pin_1)*%
X117570000Y-93980000D03*
%TO.P,U1,13,CLK*%
%TO.N,Net-(J2-Pin_2)*%
X127730000Y-93980000D03*
%TO.P,U1,14,SEG_A*%
%TO.N,Net-(J3-Pin_1)*%
X127730000Y-91440000D03*
%TO.P,U1,15,SEG_F*%
%TO.N,Net-(J3-Pin_2)*%
X127730000Y-88900000D03*
%TO.P,U1,16,SEG_B*%
%TO.N,Net-(J3-Pin_3)*%
X127730000Y-86360000D03*
%TO.P,U1,17,SEG_G*%
%TO.N,Net-(J3-Pin_4)*%
X127730000Y-83820000D03*
%TO.P,U1,18,ISET*%
%TO.N,Net-(J5-Pin_2)*%
X127730000Y-81280000D03*
%TO.P,U1,19,V+*%
%TO.N,+5V*%
X127730000Y-78740000D03*
%TO.P,U1,20,SEG_C*%
%TO.N,Net-(J3-Pin_5)*%
X127730000Y-76200000D03*
%TO.P,U1,21,SEG_E*%
%TO.N,Net-(J3-Pin_6)*%
X127730000Y-73660000D03*
%TO.P,U1,22,SEG_DP*%
%TO.N,unconnected-(U1-SEG_DP-Pad22)*%
X127730000Y-71120000D03*
%TO.P,U1,23,SEG_D*%
%TO.N,Net-(J3-Pin_7)*%
X127730000Y-68580000D03*
%TO.P,U1,24,DOUT*%
%TO.N,unconnected-(U1-DOUT-Pad24)*%
X127730000Y-66040000D03*
%TD*%
D12*
%TO.P,J5,3,Pin_3*%
%TO.N,GND*%
X124475000Y-97580000D03*
%TO.P,J5,2,Pin_2*%
%TO.N,Net-(J5-Pin_2)*%
X121935000Y-97580000D03*
D13*
%TO.P,J5,1,Pin_1*%
%TO.N,+5V*%
X119395000Y-97580000D03*
%TD*%
%TO.P,J4,1,Pin_1*%
%TO.N,Net-(J4-Pin_1)*%
X113030000Y-69850000D03*
D12*
%TO.P,J4,2,Pin_2*%
%TO.N,Net-(J4-Pin_2)*%
X113030000Y-72390000D03*
%TO.P,J4,3,Pin_3*%
%TO.N,Net-(J4-Pin_3)*%
X113030000Y-74930000D03*
%TO.P,J4,4,Pin_4*%
%TO.N,Net-(J4-Pin_4)*%
X113030000Y-77470000D03*
%TO.P,J4,5,Pin_5*%
%TO.N,Net-(J4-Pin_5)*%
X113030000Y-80010000D03*
%TO.P,J4,6,Pin_6*%
%TO.N,Net-(J4-Pin_6)*%
X113030000Y-82550000D03*
%TO.P,J4,7,Pin_7*%
%TO.N,Net-(J4-Pin_7)*%
X113030000Y-85090000D03*
%TO.P,J4,8,Pin_8*%
%TO.N,Net-(J4-Pin_8)*%
X113030000Y-87630000D03*
%TD*%
D13*
%TO.P,J3,1,Pin_1*%
%TO.N,Net-(J3-Pin_1)*%
X132080000Y-88900000D03*
D12*
%TO.P,J3,2,Pin_2*%
%TO.N,Net-(J3-Pin_2)*%
X132080000Y-86360000D03*
%TO.P,J3,3,Pin_3*%
%TO.N,Net-(J3-Pin_3)*%
X132080000Y-83820000D03*
%TO.P,J3,4,Pin_4*%
%TO.N,Net-(J3-Pin_4)*%
X132080000Y-81280000D03*
%TO.P,J3,5,Pin_5*%
%TO.N,Net-(J3-Pin_5)*%
X132080000Y-78740000D03*
%TO.P,J3,6,Pin_6*%
%TO.N,Net-(J3-Pin_6)*%
X132080000Y-76200000D03*
%TO.P,J3,7,Pin_7*%
%TO.N,Net-(J3-Pin_7)*%
X132080000Y-73660000D03*
%TD*%
D13*
%TO.P,J2,1,Pin_1*%
%TO.N,Net-(J2-Pin_1)*%
X113030000Y-96520000D03*
D12*
%TO.P,J2,2,Pin_2*%
%TO.N,Net-(J2-Pin_2)*%
X113030000Y-93980000D03*
%TO.P,J2,3,Pin_3*%
%TO.N,Net-(J2-Pin_3)*%
X113030000Y-91440000D03*
%TD*%
M02*
