<?xml version="1.0"?>
<!DOCTYPE svg PUBLIC "-//W3C//DTD SVG 1.1//EN" "http://www.w3.org/Graphics/SVG/1.1/DTD/svg11.dtd">
<svg width="30.6mm" height="60.6mm" viewBox="0 0 30.6 60.6" xmlns="http://www.w3.org/2000/svg" version="1.1">
<g id="Body004" transform="translate(15.300000,30.300000) scale(1,-1)">
<path id="Body004_f0000"  d="M -15.0 30.0 L -15.0 30.0 L -3.499999999999998 30.0 L -3.4999999999999982 30.0 L -15.0 30.0 Z " stroke="#191919" stroke-width="0.35 px" style="stroke-width:0.35;stroke-miterlimit:4;stroke-dasharray:none;stroke-linecap:square;fill:#393939;fill-opacity:1.0;fill-rule: evenodd"/>
<path id="Body004_f0001"  d="M -3.499999999999998 30.0 L -3.499999999999998 30.0 L -3.5 27.900000000000002 L -3.5 27.900000000000002 L -3.4999999999999982 30.0 Z " stroke="#191919" stroke-width="0.35 px" style="stroke-width:0.35;stroke-miterlimit:4;stroke-dasharray:none;stroke-linecap:square;fill:#393939;fill-opacity:1.0;fill-rule: evenodd"/>
<path id="Body004_f0002"  d="M -3.5 27.900000000000002 L -3.5 27.900000000000002 L 3.5 27.900000000000002 L 3.5 27.900000000000002 L -3.5 27.900000000000002 Z " stroke="#191919" stroke-width="0.35 px" style="stroke-width:0.35;stroke-miterlimit:4;stroke-dasharray:none;stroke-linecap:square;fill:#393939;fill-opacity:1.0;fill-rule: evenodd"/>
<path id="Body004_f0003"  d="M 3.5 27.900000000000002 L 3.5 27.900000000000002 L 3.500000000000001 30.0 L 3.500000000000001 30.0 L 3.5 27.900000000000002 Z " stroke="#191919" stroke-width="0.35 px" style="stroke-width:0.35;stroke-miterlimit:4;stroke-dasharray:none;stroke-linecap:square;fill:#393939;fill-opacity:1.0;fill-rule: evenodd"/>
<path id="Body004_f0004"  d="M 3.500000000000001 30.0 L 3.500000000000001 30.0 L 15.0 30.0 L 15.0 30.0 L 3.500000000000001 30.0 Z " stroke="#191919" stroke-width="0.35 px" style="stroke-width:0.35;stroke-miterlimit:4;stroke-dasharray:none;stroke-linecap:square;fill:#393939;fill-opacity:1.0;fill-rule: evenodd"/>
<path id="Body004_f0005"  d="M 15.0 30.0 L 15.0 30.0 L 15.0 -30.0 L 15.0 -30.0 L 15.0 30.0 Z " stroke="#191919" stroke-width="0.35 px" style="stroke-width:0.35;stroke-miterlimit:4;stroke-dasharray:none;stroke-linecap:square;fill:#393939;fill-opacity:1.0;fill-rule: evenodd"/>
<path id="Body004_f0006"  d="M 15.0 -30.0 L 15.0 -30.0 L 3.5 -30.0 L 3.5 -30.0 L 15.0 -30.0 Z " stroke="#191919" stroke-width="0.35 px" style="stroke-width:0.35;stroke-miterlimit:4;stroke-dasharray:none;stroke-linecap:square;fill:#393939;fill-opacity:1.0;fill-rule: evenodd"/>
<path id="Body004_f0007"  d="M 3.5 -30.0 L 3.5 -30.0 L 3.5 -27.900000000000002 L 3.5 -27.900000000000002 L 3.5 -30.0 Z " stroke="#191919" stroke-width="0.35 px" style="stroke-width:0.35;stroke-miterlimit:4;stroke-dasharray:none;stroke-linecap:square;fill:#393939;fill-opacity:1.0;fill-rule: evenodd"/>
<path id="Body004_f0008"  d="M 3.5 -27.900000000000002 L 3.5 -27.900000000000002 L -3.5 -27.900000000000002 L -3.5 -27.900000000000002 L 3.5 -27.900000000000002 Z " stroke="#191919" stroke-width="0.35 px" style="stroke-width:0.35;stroke-miterlimit:4;stroke-dasharray:none;stroke-linecap:square;fill:#393939;fill-opacity:1.0;fill-rule: evenodd"/>
<path id="Body004_f0009"  d="M -3.5 -27.900000000000002 L -3.5 -27.900000000000002 L -3.499999999999997 -30.0 L -3.4999999999999973 -30.0 L -3.5 -27.900000000000002 Z " stroke="#191919" stroke-width="0.35 px" style="stroke-width:0.35;stroke-miterlimit:4;stroke-dasharray:none;stroke-linecap:square;fill:#393939;fill-opacity:1.0;fill-rule: evenodd"/>
<path id="Body004_f0010"  d="M -3.499999999999997 -30.0 L -3.499999999999997 -30.0 L -15.0 -30.0 L -15.0 -30.0 L -3.4999999999999973 -30.0 Z " stroke="#191919" stroke-width="0.35 px" style="stroke-width:0.35;stroke-miterlimit:4;stroke-dasharray:none;stroke-linecap:square;fill:#393939;fill-opacity:1.0;fill-rule: evenodd"/>
<path id="Body004_f0011"  d="M -15.0 -30.0 L -15.0 -30.0 L -15.0 30.0 L -15.0 30.0 L -15.0 -30.0 Z " stroke="#191919" stroke-width="0.35 px" style="stroke-width:0.35;stroke-miterlimit:4;stroke-dasharray:none;stroke-linecap:square;fill:#393939;fill-opacity:1.0;fill-rule: evenodd"/>
<path id="Body004_f0012"  d="M 7.5 -4.5 L -1.5 -4.5 L -1.5 -4.5 L 7.5 -4.5 L 7.5 -4.5 Z " stroke="#191919" stroke-width="0.35 px" style="stroke-width:0.35;stroke-miterlimit:4;stroke-dasharray:none;stroke-linecap:square;fill:#393939;fill-opacity:1.0;fill-rule: evenodd"/>
<path id="Body004_f0013"  d="M 7.5 -9.5 L 7.5 -4.5 L 7.5 -4.5 L 7.5 -9.5 L 7.5 -9.5 Z " stroke="#191919" stroke-width="0.35 px" style="stroke-width:0.35;stroke-miterlimit:4;stroke-dasharray:none;stroke-linecap:square;fill:#393939;fill-opacity:1.0;fill-rule: evenodd"/>
<path id="Body004_f0014"  d="M -1.5 -9.5 L 7.5 -9.5 L 7.5 -9.5 L -1.5 -9.5 L -1.5 -9.5 Z " stroke="#191919" stroke-width="0.35 px" style="stroke-width:0.35;stroke-miterlimit:4;stroke-dasharray:none;stroke-linecap:square;fill:#393939;fill-opacity:1.0;fill-rule: evenodd"/>
<path id="Body004_f0015"  d="M -1.5 -4.5 L -1.5 -9.5 L -1.5 -9.5 L -1.5 -4.5 L -1.5 -4.5 Z " stroke="#191919" stroke-width="0.35 px" style="stroke-width:0.35;stroke-miterlimit:4;stroke-dasharray:none;stroke-linecap:square;fill:#393939;fill-opacity:1.0;fill-rule: evenodd"/>
<circle cx="9.0" cy="0.0" r="1.25" stroke="#191919" stroke-width="0.35 px" style="stroke-width:0.35;stroke-miterlimit:4;stroke-dasharray:none;stroke-linecap:square;fill:#393939"/>
<circle cx="9.0" cy="0.0" r="1.25" stroke="#191919" stroke-width="0.35 px" style="stroke-width:0.35;stroke-miterlimit:4;stroke-dasharray:none;stroke-linecap:square;fill:#393939"/>
<circle cx="9.0" cy="0.0" r="1.25" stroke="#191919" stroke-width="0.35 px" style="stroke-width:0.35;stroke-miterlimit:4;stroke-dasharray:none;stroke-linecap:square;fill:#393939"/>
<title>b'VVIFaceplate'</title>
</g>
</svg>