ISO-10303-21;
HEADER;
FILE_DESCRIPTION(('FreeCAD Model'),'2;1');
FILE_NAME('Open CASCADE Shape Model','2026-05-11T20:20:29',(''),(''),
  'Open CASCADE STEP processor 7.7','FreeCAD','Unknown');
FILE_SCHEMA(('AUTOMOTIVE_DESIGN { 1 0 10303 214 1 1 1 1 }'));
ENDSEC;
DATA;
#1 = APPLICATION_PROTOCOL_DEFINITION('international standard',
  'automotive_design',2000,#2);
#2 = APPLICATION_CONTEXT(
  'core data for automotive mechanical design processes');
#3 = SHAPE_DEFINITION_REPRESENTATION(#4,#10);
#4 = PRODUCT_DEFINITION_SHAPE('','',#5);
#5 = PRODUCT_DEFINITION('design','',#6,#9);
#6 = PRODUCT_DEFINITION_FORMATION('','',#7);
#7 = PRODUCT('DSUB9Holder','DSUB9Holder','',(#8));
#8 = PRODUCT_CONTEXT('',#2,'mechanical');
#9 = PRODUCT_DEFINITION_CONTEXT('part definition',#2,'design');
#10 = ADVANCED_BREP_SHAPE_REPRESENTATION('',(#11,#15),#870);
#11 = AXIS2_PLACEMENT_3D('',#12,#13,#14);
#12 = CARTESIAN_POINT('',(0.,0.,0.));
#13 = DIRECTION('',(0.,0.,1.));
#14 = DIRECTION('',(1.,0.,-0.));
#15 = MANIFOLD_SOLID_BREP('',#16);
#16 = CLOSED_SHELL('',(#17,#57,#96,#143,#259,#275,#299,#346,#385,#409,
    #426,#549,#571,#593,#610,#627,#644,#661,#678,#695,#707,#724,#741,
    #759,#803,#820,#837,#848,#859));
#17 = ADVANCED_FACE('',(#18),#52,.F.);
#18 = FACE_BOUND('',#19,.F.);
#19 = EDGE_LOOP('',(#20,#30,#38,#46));
#20 = ORIENTED_EDGE('',*,*,#21,.T.);
#21 = EDGE_CURVE('',#22,#24,#26,.T.);
#22 = VERTEX_POINT('',#23);
#23 = CARTESIAN_POINT('',(26.75,0.,0.));
#24 = VERTEX_POINT('',#25);
#25 = CARTESIAN_POINT('',(26.75,0.,3.));
#26 = LINE('',#27,#28);
#27 = CARTESIAN_POINT('',(26.75,0.,0.));
#28 = VECTOR('',#29,1.);
#29 = DIRECTION('',(0.,0.,1.));
#30 = ORIENTED_EDGE('',*,*,#31,.T.);
#31 = EDGE_CURVE('',#24,#32,#34,.T.);
#32 = VERTEX_POINT('',#33);
#33 = CARTESIAN_POINT('',(26.75,17.,3.));
#34 = LINE('',#35,#36);
#35 = CARTESIAN_POINT('',(26.75,0.,3.));
#36 = VECTOR('',#37,1.);
#37 = DIRECTION('',(0.,1.,0.));
#38 = ORIENTED_EDGE('',*,*,#39,.F.);
#39 = EDGE_CURVE('',#40,#32,#42,.T.);
#40 = VERTEX_POINT('',#41);
#41 = CARTESIAN_POINT('',(26.75,17.,0.));
#42 = LINE('',#43,#44);
#43 = CARTESIAN_POINT('',(26.75,17.,0.));
#44 = VECTOR('',#45,1.);
#45 = DIRECTION('',(0.,0.,1.));
#46 = ORIENTED_EDGE('',*,*,#47,.F.);
#47 = EDGE_CURVE('',#22,#40,#48,.T.);
#48 = LINE('',#49,#50);
#49 = CARTESIAN_POINT('',(26.75,0.,0.));
#50 = VECTOR('',#51,1.);
#51 = DIRECTION('',(0.,1.,0.));
#52 = PLANE('',#53);
#53 = AXIS2_PLACEMENT_3D('',#54,#55,#56);
#54 = CARTESIAN_POINT('',(26.75,0.,0.));
#55 = DIRECTION('',(-1.,0.,0.));
#56 = DIRECTION('',(0.,1.,0.));
#57 = ADVANCED_FACE('',(#58),#91,.F.);
#58 = FACE_BOUND('',#59,.F.);
#59 = EDGE_LOOP('',(#60,#68,#76,#84,#90));
#60 = ORIENTED_EDGE('',*,*,#61,.T.);
#61 = EDGE_CURVE('',#22,#62,#64,.T.);
#62 = VERTEX_POINT('',#63);
#63 = CARTESIAN_POINT('',(26.75,-2.,4.440892098501E-16));
#64 = LINE('',#65,#66);
#65 = CARTESIAN_POINT('',(26.75,0.,0.));
#66 = VECTOR('',#67,1.);
#67 = DIRECTION('',(0.,-1.,2.22044604925E-16));
#68 = ORIENTED_EDGE('',*,*,#69,.T.);
#69 = EDGE_CURVE('',#62,#70,#72,.T.);
#70 = VERTEX_POINT('',#71);
#71 = CARTESIAN_POINT('',(26.75,-2.,16.));
#72 = LINE('',#73,#74);
#73 = CARTESIAN_POINT('',(26.75,-2.,4.440892098501E-16));
#74 = VECTOR('',#75,1.);
#75 = DIRECTION('',(0.,2.22044604925E-16,1.));
#76 = ORIENTED_EDGE('',*,*,#77,.F.);
#77 = EDGE_CURVE('',#78,#70,#80,.T.);
#78 = VERTEX_POINT('',#79);
#79 = CARTESIAN_POINT('',(26.75,1.7763568394E-15,16.));
#80 = LINE('',#81,#82);
#81 = CARTESIAN_POINT('',(26.75,3.552713678801E-15,16.));
#82 = VECTOR('',#83,1.);
#83 = DIRECTION('',(0.,-1.,2.22044604925E-16));
#84 = ORIENTED_EDGE('',*,*,#85,.F.);
#85 = EDGE_CURVE('',#24,#78,#86,.T.);
#86 = LINE('',#87,#88);
#87 = CARTESIAN_POINT('',(26.75,0.,0.));
#88 = VECTOR('',#89,1.);
#89 = DIRECTION('',(0.,2.22044604925E-16,1.));
#90 = ORIENTED_EDGE('',*,*,#21,.F.);
#91 = PLANE('',#92);
#92 = AXIS2_PLACEMENT_3D('',#93,#94,#95);
#93 = CARTESIAN_POINT('',(26.75,0.,0.));
#94 = DIRECTION('',(-1.,0.,0.));
#95 = DIRECTION('',(0.,2.22044604925E-16,1.));
#96 = ADVANCED_FACE('',(#97),#138,.F.);
#97 = FACE_BOUND('',#98,.F.);
#98 = EDGE_LOOP('',(#99,#100,#108,#116,#124,#132));
#99 = ORIENTED_EDGE('',*,*,#39,.T.);
#100 = ORIENTED_EDGE('',*,*,#101,.T.);
#101 = EDGE_CURVE('',#32,#102,#104,.T.);
#102 = VERTEX_POINT('',#103);
#103 = CARTESIAN_POINT('',(24.75,17.,3.));
#104 = LINE('',#105,#106);
#105 = CARTESIAN_POINT('',(26.75,17.,3.));
#106 = VECTOR('',#107,1.);
#107 = DIRECTION('',(-1.,0.,0.));
#108 = ORIENTED_EDGE('',*,*,#109,.T.);
#109 = EDGE_CURVE('',#102,#110,#112,.T.);
#110 = VERTEX_POINT('',#111);
#111 = CARTESIAN_POINT('',(-24.75,17.,3.));
#112 = LINE('',#113,#114);
#113 = CARTESIAN_POINT('',(26.75,17.,3.));
#114 = VECTOR('',#115,1.);
#115 = DIRECTION('',(-1.,0.,0.));
#116 = ORIENTED_EDGE('',*,*,#117,.T.);
#117 = EDGE_CURVE('',#110,#118,#120,.T.);
#118 = VERTEX_POINT('',#119);
#119 = CARTESIAN_POINT('',(-26.75,17.,3.));
#120 = LINE('',#121,#122);
#121 = CARTESIAN_POINT('',(26.75,17.,3.));
#122 = VECTOR('',#123,1.);
#123 = DIRECTION('',(-1.,0.,0.));
#124 = ORIENTED_EDGE('',*,*,#125,.F.);
#125 = EDGE_CURVE('',#126,#118,#128,.T.);
#126 = VERTEX_POINT('',#127);
#127 = CARTESIAN_POINT('',(-26.75,17.,0.));
#128 = LINE('',#129,#130);
#129 = CARTESIAN_POINT('',(-26.75,17.,0.));
#130 = VECTOR('',#131,1.);
#131 = DIRECTION('',(0.,0.,1.));
#132 = ORIENTED_EDGE('',*,*,#133,.F.);
#133 = EDGE_CURVE('',#40,#126,#134,.T.);
#134 = LINE('',#135,#136);
#135 = CARTESIAN_POINT('',(26.75,17.,0.));
#136 = VECTOR('',#137,1.);
#137 = DIRECTION('',(-1.,0.,0.));
#138 = PLANE('',#139);
#139 = AXIS2_PLACEMENT_3D('',#140,#141,#142);
#140 = CARTESIAN_POINT('',(26.75,17.,0.));
#141 = DIRECTION('',(0.,-1.,0.));
#142 = DIRECTION('',(-1.,0.,0.));
#143 = ADVANCED_FACE('',(#144,#162,#232,#243),#254,.F.);
#144 = FACE_BOUND('',#145,.F.);
#145 = EDGE_LOOP('',(#146,#154,#155,#156));
#146 = ORIENTED_EDGE('',*,*,#147,.T.);
#147 = EDGE_CURVE('',#148,#22,#150,.T.);
#148 = VERTEX_POINT('',#149);
#149 = CARTESIAN_POINT('',(-26.75,0.,0.));
#150 = LINE('',#151,#152);
#151 = CARTESIAN_POINT('',(-26.75,0.,0.));
#152 = VECTOR('',#153,1.);
#153 = DIRECTION('',(1.,0.,0.));
#154 = ORIENTED_EDGE('',*,*,#47,.T.);
#155 = ORIENTED_EDGE('',*,*,#133,.T.);
#156 = ORIENTED_EDGE('',*,*,#157,.T.);
#157 = EDGE_CURVE('',#126,#148,#158,.T.);
#158 = LINE('',#159,#160);
#159 = CARTESIAN_POINT('',(-26.75,17.,0.));
#160 = VECTOR('',#161,1.);
#161 = DIRECTION('',(0.,-1.,0.));
#162 = FACE_BOUND('',#163,.T.);
#163 = EDGE_LOOP('',(#164,#174,#183,#191,#200,#208,#217,#225));
#164 = ORIENTED_EDGE('',*,*,#165,.T.);
#165 = EDGE_CURVE('',#166,#168,#170,.T.);
#166 = VERTEX_POINT('',#167);
#167 = CARTESIAN_POINT('',(7.74,14.,0.));
#168 = VERTEX_POINT('',#169);
#169 = CARTESIAN_POINT('',(-7.74,14.,0.));
#170 = LINE('',#171,#172);
#171 = CARTESIAN_POINT('',(7.74,14.,0.));
#172 = VECTOR('',#173,1.);
#173 = DIRECTION('',(-1.,0.,0.));
#174 = ORIENTED_EDGE('',*,*,#175,.T.);
#175 = EDGE_CURVE('',#168,#176,#178,.T.);
#176 = VERTEX_POINT('',#177);
#177 = CARTESIAN_POINT('',(-10.21186746006,11.054143074056,0.));
#178 = CIRCLE('',#179,2.51);
#179 = AXIS2_PLACEMENT_3D('',#180,#181,#182);
#180 = CARTESIAN_POINT('',(-7.74,11.49,0.));
#181 = DIRECTION('',(0.,0.,1.));
#182 = DIRECTION('',(1.,0.,0.));
#183 = ORIENTED_EDGE('',*,*,#184,.T.);
#184 = EDGE_CURVE('',#176,#185,#187,.T.);
#185 = VERTEX_POINT('',#186);
#186 = CARTESIAN_POINT('',(-9.210330209637,5.374143074056,0.));
#187 = LINE('',#188,#189);
#188 = CARTESIAN_POINT('',(-10.21186746006,11.054143074056,0.));
#189 = VECTOR('',#190,1.);
#190 = DIRECTION('',(0.173648177667,-0.984807753012,0.));
#191 = ORIENTED_EDGE('',*,*,#192,.T.);
#192 = EDGE_CURVE('',#185,#193,#195,.T.);
#193 = VERTEX_POINT('',#194);
#194 = CARTESIAN_POINT('',(-6.738462749576,3.3,0.));
#195 = CIRCLE('',#196,2.51);
#196 = AXIS2_PLACEMENT_3D('',#197,#198,#199);
#197 = CARTESIAN_POINT('',(-6.738462749576,5.81,0.));
#198 = DIRECTION('',(0.,0.,1.));
#199 = DIRECTION('',(1.,0.,0.));
#200 = ORIENTED_EDGE('',*,*,#201,.T.);
#201 = EDGE_CURVE('',#193,#202,#204,.T.);
#202 = VERTEX_POINT('',#203);
#203 = CARTESIAN_POINT('',(6.738462749576,3.3,0.));
#204 = LINE('',#205,#206);
#205 = CARTESIAN_POINT('',(-6.738462749576,3.3,0.));
#206 = VECTOR('',#207,1.);
#207 = DIRECTION('',(1.,0.,0.));
#208 = ORIENTED_EDGE('',*,*,#209,.T.);
#209 = EDGE_CURVE('',#202,#210,#212,.T.);
#210 = VERTEX_POINT('',#211);
#211 = CARTESIAN_POINT('',(9.210330209637,5.374143074056,0.));
#212 = CIRCLE('',#213,2.51);
#213 = AXIS2_PLACEMENT_3D('',#214,#215,#216);
#214 = CARTESIAN_POINT('',(6.738462749576,5.81,0.));
#215 = DIRECTION('',(0.,0.,1.));
#216 = DIRECTION('',(1.,0.,0.));
#217 = ORIENTED_EDGE('',*,*,#218,.T.);
#218 = EDGE_CURVE('',#210,#219,#221,.T.);
#219 = VERTEX_POINT('',#220);
#220 = CARTESIAN_POINT('',(10.211867460061,11.054143074056,0.));
#221 = LINE('',#222,#223);
#222 = CARTESIAN_POINT('',(9.210330209637,5.374143074056,0.));
#223 = VECTOR('',#224,1.);
#224 = DIRECTION('',(0.173648177667,0.984807753012,0.));
#225 = ORIENTED_EDGE('',*,*,#226,.T.);
#226 = EDGE_CURVE('',#219,#166,#227,.T.);
#227 = CIRCLE('',#228,2.51);
#228 = AXIS2_PLACEMENT_3D('',#229,#230,#231);
#229 = CARTESIAN_POINT('',(7.74,11.49,0.));
#230 = DIRECTION('',(0.,0.,1.));
#231 = DIRECTION('',(1.,0.,0.));
#232 = FACE_BOUND('',#233,.T.);
#233 = EDGE_LOOP('',(#234));
#234 = ORIENTED_EDGE('',*,*,#235,.T.);
#235 = EDGE_CURVE('',#236,#236,#238,.T.);
#236 = VERTEX_POINT('',#237);
#237 = CARTESIAN_POINT('',(14.25,8.65,0.));
#238 = CIRCLE('',#239,1.75);
#239 = AXIS2_PLACEMENT_3D('',#240,#241,#242);
#240 = CARTESIAN_POINT('',(12.5,8.65,0.));
#241 = DIRECTION('',(0.,0.,1.));
#242 = DIRECTION('',(1.,0.,0.));
#243 = FACE_BOUND('',#244,.T.);
#244 = EDGE_LOOP('',(#245));
#245 = ORIENTED_EDGE('',*,*,#246,.T.);
#246 = EDGE_CURVE('',#247,#247,#249,.T.);
#247 = VERTEX_POINT('',#248);
#248 = CARTESIAN_POINT('',(-10.75,8.65,0.));
#249 = CIRCLE('',#250,1.75);
#250 = AXIS2_PLACEMENT_3D('',#251,#252,#253);
#251 = CARTESIAN_POINT('',(-12.5,8.65,0.));
#252 = DIRECTION('',(0.,0.,1.));
#253 = DIRECTION('',(1.,0.,0.));
#254 = PLANE('',#255);
#255 = AXIS2_PLACEMENT_3D('',#256,#257,#258);
#256 = CARTESIAN_POINT('',(0.,8.599634835044,0.));
#257 = DIRECTION('',(0.,0.,1.));
#258 = DIRECTION('',(1.,0.,0.));
#259 = ADVANCED_FACE('',(#260),#270,.T.);
#260 = FACE_BOUND('',#261,.F.);
#261 = EDGE_LOOP('',(#262,#263,#264));
#262 = ORIENTED_EDGE('',*,*,#31,.F.);
#263 = ORIENTED_EDGE('',*,*,#85,.T.);
#264 = ORIENTED_EDGE('',*,*,#265,.T.);
#265 = EDGE_CURVE('',#78,#32,#266,.T.);
#266 = LINE('',#267,#268);
#267 = CARTESIAN_POINT('',(26.75,0.,16.));
#268 = VECTOR('',#269,1.);
#269 = DIRECTION('',(0.,0.794357832977,-0.607450107571));
#270 = PLANE('',#271);
#271 = AXIS2_PLACEMENT_3D('',#272,#273,#274);
#272 = CARTESIAN_POINT('',(26.75,6.350233639758,7.350233639758));
#273 = DIRECTION('',(1.,0.,0.));
#274 = DIRECTION('',(0.,0.,1.));
#275 = ADVANCED_FACE('',(#276),#294,.F.);
#276 = FACE_BOUND('',#277,.F.);
#277 = EDGE_LOOP('',(#278,#286,#292,#293));
#278 = ORIENTED_EDGE('',*,*,#279,.T.);
#279 = EDGE_CURVE('',#148,#280,#282,.T.);
#280 = VERTEX_POINT('',#281);
#281 = CARTESIAN_POINT('',(-26.75,-2.,4.440892098501E-16));
#282 = LINE('',#283,#284);
#283 = CARTESIAN_POINT('',(-26.75,0.,0.));
#284 = VECTOR('',#285,1.);
#285 = DIRECTION('',(0.,-1.,2.22044604925E-16));
#286 = ORIENTED_EDGE('',*,*,#287,.T.);
#287 = EDGE_CURVE('',#280,#62,#288,.T.);
#288 = LINE('',#289,#290);
#289 = CARTESIAN_POINT('',(-26.75,-2.,4.440892098501E-16));
#290 = VECTOR('',#291,1.);
#291 = DIRECTION('',(1.,0.,0.));
#292 = ORIENTED_EDGE('',*,*,#61,.F.);
#293 = ORIENTED_EDGE('',*,*,#147,.F.);
#294 = PLANE('',#295);
#295 = AXIS2_PLACEMENT_3D('',#296,#297,#298);
#296 = CARTESIAN_POINT('',(-26.75,0.,0.));
#297 = DIRECTION('',(0.,2.22044604925E-16,1.));
#298 = DIRECTION('',(1.,0.,0.));
#299 = ADVANCED_FACE('',(#300),#341,.F.);
#300 = FACE_BOUND('',#301,.F.);
#301 = EDGE_LOOP('',(#302,#303,#311,#319,#327,#335));
#302 = ORIENTED_EDGE('',*,*,#77,.T.);
#303 = ORIENTED_EDGE('',*,*,#304,.T.);
#304 = EDGE_CURVE('',#70,#305,#307,.T.);
#305 = VERTEX_POINT('',#306);
#306 = CARTESIAN_POINT('',(-26.75,-2.,16.));
#307 = LINE('',#308,#309);
#308 = CARTESIAN_POINT('',(26.75,-2.,16.));
#309 = VECTOR('',#310,1.);
#310 = DIRECTION('',(-1.,0.,0.));
#311 = ORIENTED_EDGE('',*,*,#312,.F.);
#312 = EDGE_CURVE('',#313,#305,#315,.T.);
#313 = VERTEX_POINT('',#314);
#314 = CARTESIAN_POINT('',(-26.75,4.746203430273E-15,16.));
#315 = LINE('',#316,#317);
#316 = CARTESIAN_POINT('',(-26.75,3.552713678801E-15,16.));
#317 = VECTOR('',#318,1.);
#318 = DIRECTION('',(0.,-1.,2.22044604925E-16));
#319 = ORIENTED_EDGE('',*,*,#320,.F.);
#320 = EDGE_CURVE('',#321,#313,#323,.T.);
#321 = VERTEX_POINT('',#322);
#322 = CARTESIAN_POINT('',(-24.75,5.495603971895E-15,16.));
#323 = LINE('',#324,#325);
#324 = CARTESIAN_POINT('',(26.75,3.552713678801E-15,16.));
#325 = VECTOR('',#326,1.);
#326 = DIRECTION('',(-1.,0.,0.));
#327 = ORIENTED_EDGE('',*,*,#328,.F.);
#328 = EDGE_CURVE('',#329,#321,#331,.T.);
#329 = VERTEX_POINT('',#330);
#330 = CARTESIAN_POINT('',(24.75,0.,16.));
#331 = LINE('',#332,#333);
#332 = CARTESIAN_POINT('',(26.75,3.552713678801E-15,16.));
#333 = VECTOR('',#334,1.);
#334 = DIRECTION('',(-1.,0.,0.));
#335 = ORIENTED_EDGE('',*,*,#336,.F.);
#336 = EDGE_CURVE('',#78,#329,#337,.T.);
#337 = LINE('',#338,#339);
#338 = CARTESIAN_POINT('',(26.75,3.552713678801E-15,16.));
#339 = VECTOR('',#340,1.);
#340 = DIRECTION('',(-1.,0.,0.));
#341 = PLANE('',#342);
#342 = AXIS2_PLACEMENT_3D('',#343,#344,#345);
#343 = CARTESIAN_POINT('',(26.75,3.552713678801E-15,16.));
#344 = DIRECTION('',(-0.,-2.22044604925E-16,-1.));
#345 = DIRECTION('',(-1.,0.,0.));
#346 = ADVANCED_FACE('',(#347,#358,#369),#380,.F.);
#347 = FACE_BOUND('',#348,.T.);
#348 = EDGE_LOOP('',(#349,#350,#351,#352));
#349 = ORIENTED_EDGE('',*,*,#287,.T.);
#350 = ORIENTED_EDGE('',*,*,#69,.T.);
#351 = ORIENTED_EDGE('',*,*,#304,.T.);
#352 = ORIENTED_EDGE('',*,*,#353,.T.);
#353 = EDGE_CURVE('',#305,#280,#354,.T.);
#354 = LINE('',#355,#356);
#355 = CARTESIAN_POINT('',(-26.75,-2.,16.));
#356 = VECTOR('',#357,1.);
#357 = DIRECTION('',(0.,-2.22044604925E-16,-1.));
#358 = FACE_BOUND('',#359,.F.);
#359 = EDGE_LOOP('',(#360));
#360 = ORIENTED_EDGE('',*,*,#361,.T.);
#361 = EDGE_CURVE('',#362,#362,#364,.T.);
#362 = VERTEX_POINT('',#363);
#363 = CARTESIAN_POINT('',(22.25,-2.,11.));
#364 = CIRCLE('',#365,1.5);
#365 = AXIS2_PLACEMENT_3D('',#366,#367,#368);
#366 = CARTESIAN_POINT('',(20.75,-2.,11.));
#367 = DIRECTION('',(0.,-1.,2.22044604925E-16));
#368 = DIRECTION('',(1.,0.,0.));
#369 = FACE_BOUND('',#370,.F.);
#370 = EDGE_LOOP('',(#371));
#371 = ORIENTED_EDGE('',*,*,#372,.T.);
#372 = EDGE_CURVE('',#373,#373,#375,.T.);
#373 = VERTEX_POINT('',#374);
#374 = CARTESIAN_POINT('',(-19.25,-2.,11.));
#375 = CIRCLE('',#376,1.5);
#376 = AXIS2_PLACEMENT_3D('',#377,#378,#379);
#377 = CARTESIAN_POINT('',(-20.75,-2.,11.));
#378 = DIRECTION('',(0.,-1.,2.22044604925E-16));
#379 = DIRECTION('',(1.,0.,0.));
#380 = PLANE('',#381);
#381 = AXIS2_PLACEMENT_3D('',#382,#383,#384);
#382 = CARTESIAN_POINT('',(-4.59635051877E-17,-2.,8.302515288857));
#383 = DIRECTION('',(0.,1.,0.));
#384 = DIRECTION('',(0.,0.,1.));
#385 = ADVANCED_FACE('',(#386),#404,.F.);
#386 = FACE_BOUND('',#387,.F.);
#387 = EDGE_LOOP('',(#388,#389,#397,#403));
#388 = ORIENTED_EDGE('',*,*,#125,.T.);
#389 = ORIENTED_EDGE('',*,*,#390,.T.);
#390 = EDGE_CURVE('',#118,#391,#393,.T.);
#391 = VERTEX_POINT('',#392);
#392 = CARTESIAN_POINT('',(-26.75,2.749517886945E-15,3.));
#393 = LINE('',#394,#395);
#394 = CARTESIAN_POINT('',(-26.75,17.,3.));
#395 = VECTOR('',#396,1.);
#396 = DIRECTION('',(0.,-1.,0.));
#397 = ORIENTED_EDGE('',*,*,#398,.F.);
#398 = EDGE_CURVE('',#148,#391,#399,.T.);
#399 = LINE('',#400,#401);
#400 = CARTESIAN_POINT('',(-26.75,0.,0.));
#401 = VECTOR('',#402,1.);
#402 = DIRECTION('',(0.,0.,1.));
#403 = ORIENTED_EDGE('',*,*,#157,.F.);
#404 = PLANE('',#405);
#405 = AXIS2_PLACEMENT_3D('',#406,#407,#408);
#406 = CARTESIAN_POINT('',(-26.75,17.,0.));
#407 = DIRECTION('',(1.,0.,0.));
#408 = DIRECTION('',(0.,-1.,0.));
#409 = ADVANCED_FACE('',(#410),#421,.F.);
#410 = FACE_BOUND('',#411,.F.);
#411 = EDGE_LOOP('',(#412,#413,#419,#420));
#412 = ORIENTED_EDGE('',*,*,#336,.T.);
#413 = ORIENTED_EDGE('',*,*,#414,.T.);
#414 = EDGE_CURVE('',#329,#102,#415,.T.);
#415 = LINE('',#416,#417);
#416 = CARTESIAN_POINT('',(24.75,0.,16.));
#417 = VECTOR('',#418,1.);
#418 = DIRECTION('',(0.,0.794357832977,-0.607450107571));
#419 = ORIENTED_EDGE('',*,*,#101,.F.);
#420 = ORIENTED_EDGE('',*,*,#265,.F.);
#421 = PLANE('',#422);
#422 = AXIS2_PLACEMENT_3D('',#423,#424,#425);
#423 = CARTESIAN_POINT('',(26.75,0.,16.));
#424 = DIRECTION('',(0.,-0.607450107571,-0.794357832977));
#425 = DIRECTION('',(0.,0.794357832977,-0.607450107571));
#426 = ADVANCED_FACE('',(#427,#452,#463,#533),#544,.T.);
#427 = FACE_BOUND('',#428,.T.);
#428 = EDGE_LOOP('',(#429,#430,#438,#446));
#429 = ORIENTED_EDGE('',*,*,#109,.T.);
#430 = ORIENTED_EDGE('',*,*,#431,.T.);
#431 = EDGE_CURVE('',#110,#432,#434,.T.);
#432 = VERTEX_POINT('',#433);
#433 = CARTESIAN_POINT('',(-24.75,5.495603971895E-15,3.));
#434 = LINE('',#435,#436);
#435 = CARTESIAN_POINT('',(-24.75,17.,3.));
#436 = VECTOR('',#437,1.);
#437 = DIRECTION('',(-2.22044604925E-16,-1.,-2.465190328816E-32));
#438 = ORIENTED_EDGE('',*,*,#439,.T.);
#439 = EDGE_CURVE('',#432,#440,#442,.T.);
#440 = VERTEX_POINT('',#441);
#441 = CARTESIAN_POINT('',(24.75,0.,3.));
#442 = LINE('',#443,#444);
#443 = CARTESIAN_POINT('',(-26.75,0.,3.));
#444 = VECTOR('',#445,1.);
#445 = DIRECTION('',(1.,0.,0.));
#446 = ORIENTED_EDGE('',*,*,#447,.F.);
#447 = EDGE_CURVE('',#102,#440,#448,.T.);
#448 = LINE('',#449,#450);
#449 = CARTESIAN_POINT('',(24.75,17.,3.));
#450 = VECTOR('',#451,1.);
#451 = DIRECTION('',(0.,-1.,0.));
#452 = FACE_BOUND('',#453,.T.);
#453 = EDGE_LOOP('',(#454));
#454 = ORIENTED_EDGE('',*,*,#455,.F.);
#455 = EDGE_CURVE('',#456,#456,#458,.T.);
#456 = VERTEX_POINT('',#457);
#457 = CARTESIAN_POINT('',(-10.75,8.65,3.));
#458 = CIRCLE('',#459,1.75);
#459 = AXIS2_PLACEMENT_3D('',#460,#461,#462);
#460 = CARTESIAN_POINT('',(-12.5,8.65,3.));
#461 = DIRECTION('',(0.,0.,1.));
#462 = DIRECTION('',(1.,0.,0.));
#463 = FACE_BOUND('',#464,.T.);
#464 = EDGE_LOOP('',(#465,#475,#484,#492,#501,#509,#518,#526));
#465 = ORIENTED_EDGE('',*,*,#466,.F.);
#466 = EDGE_CURVE('',#467,#469,#471,.T.);
#467 = VERTEX_POINT('',#468);
#468 = CARTESIAN_POINT('',(7.74,14.,3.));
#469 = VERTEX_POINT('',#470);
#470 = CARTESIAN_POINT('',(-7.74,14.,3.));
#471 = LINE('',#472,#473);
#472 = CARTESIAN_POINT('',(7.74,14.,3.));
#473 = VECTOR('',#474,1.);
#474 = DIRECTION('',(-1.,0.,0.));
#475 = ORIENTED_EDGE('',*,*,#476,.F.);
#476 = EDGE_CURVE('',#477,#467,#479,.T.);
#477 = VERTEX_POINT('',#478);
#478 = CARTESIAN_POINT('',(10.211867460061,11.054143074056,3.));
#479 = CIRCLE('',#480,2.51);
#480 = AXIS2_PLACEMENT_3D('',#481,#482,#483);
#481 = CARTESIAN_POINT('',(7.74,11.49,3.));
#482 = DIRECTION('',(0.,0.,1.));
#483 = DIRECTION('',(1.,0.,0.));
#484 = ORIENTED_EDGE('',*,*,#485,.F.);
#485 = EDGE_CURVE('',#486,#477,#488,.T.);
#486 = VERTEX_POINT('',#487);
#487 = CARTESIAN_POINT('',(9.210330209637,5.374143074056,3.));
#488 = LINE('',#489,#490);
#489 = CARTESIAN_POINT('',(9.210330209637,5.374143074056,3.));
#490 = VECTOR('',#491,1.);
#491 = DIRECTION('',(0.173648177667,0.984807753012,0.));
#492 = ORIENTED_EDGE('',*,*,#493,.F.);
#493 = EDGE_CURVE('',#494,#486,#496,.T.);
#494 = VERTEX_POINT('',#495);
#495 = CARTESIAN_POINT('',(6.738462749576,3.3,3.));
#496 = CIRCLE('',#497,2.51);
#497 = AXIS2_PLACEMENT_3D('',#498,#499,#500);
#498 = CARTESIAN_POINT('',(6.738462749576,5.81,3.));
#499 = DIRECTION('',(0.,0.,1.));
#500 = DIRECTION('',(1.,0.,0.));
#501 = ORIENTED_EDGE('',*,*,#502,.F.);
#502 = EDGE_CURVE('',#503,#494,#505,.T.);
#503 = VERTEX_POINT('',#504);
#504 = CARTESIAN_POINT('',(-6.738462749576,3.3,3.));
#505 = LINE('',#506,#507);
#506 = CARTESIAN_POINT('',(-6.738462749576,3.3,3.));
#507 = VECTOR('',#508,1.);
#508 = DIRECTION('',(1.,0.,0.));
#509 = ORIENTED_EDGE('',*,*,#510,.F.);
#510 = EDGE_CURVE('',#511,#503,#513,.T.);
#511 = VERTEX_POINT('',#512);
#512 = CARTESIAN_POINT('',(-9.210330209637,5.374143074056,3.));
#513 = CIRCLE('',#514,2.51);
#514 = AXIS2_PLACEMENT_3D('',#515,#516,#517);
#515 = CARTESIAN_POINT('',(-6.738462749576,5.81,3.));
#516 = DIRECTION('',(0.,0.,1.));
#517 = DIRECTION('',(1.,0.,0.));
#518 = ORIENTED_EDGE('',*,*,#519,.F.);
#519 = EDGE_CURVE('',#520,#511,#522,.T.);
#520 = VERTEX_POINT('',#521);
#521 = CARTESIAN_POINT('',(-10.21186746006,11.054143074056,3.));
#522 = LINE('',#523,#524);
#523 = CARTESIAN_POINT('',(-10.21186746006,11.054143074056,3.));
#524 = VECTOR('',#525,1.);
#525 = DIRECTION('',(0.173648177667,-0.984807753012,0.));
#526 = ORIENTED_EDGE('',*,*,#527,.F.);
#527 = EDGE_CURVE('',#469,#520,#528,.T.);
#528 = CIRCLE('',#529,2.51);
#529 = AXIS2_PLACEMENT_3D('',#530,#531,#532);
#530 = CARTESIAN_POINT('',(-7.74,11.49,3.));
#531 = DIRECTION('',(0.,0.,1.));
#532 = DIRECTION('',(1.,0.,0.));
#533 = FACE_BOUND('',#534,.T.);
#534 = EDGE_LOOP('',(#535));
#535 = ORIENTED_EDGE('',*,*,#536,.F.);
#536 = EDGE_CURVE('',#537,#537,#539,.T.);
#537 = VERTEX_POINT('',#538);
#538 = CARTESIAN_POINT('',(14.25,8.65,3.));
#539 = CIRCLE('',#540,1.75);
#540 = AXIS2_PLACEMENT_3D('',#541,#542,#543);
#541 = CARTESIAN_POINT('',(12.5,8.65,3.));
#542 = DIRECTION('',(0.,0.,1.));
#543 = DIRECTION('',(1.,0.,0.));
#544 = PLANE('',#545);
#545 = AXIS2_PLACEMENT_3D('',#546,#547,#548);
#546 = CARTESIAN_POINT('',(0.,8.599634835044,3.));
#547 = DIRECTION('',(0.,0.,1.));
#548 = DIRECTION('',(1.,0.,0.));
#549 = ADVANCED_FACE('',(#550),#566,.F.);
#550 = FACE_BOUND('',#551,.T.);
#551 = EDGE_LOOP('',(#552,#553,#559,#560));
#552 = ORIENTED_EDGE('',*,*,#320,.F.);
#553 = ORIENTED_EDGE('',*,*,#554,.T.);
#554 = EDGE_CURVE('',#321,#110,#555,.T.);
#555 = LINE('',#556,#557);
#556 = CARTESIAN_POINT('',(-24.75,5.495603971895E-15,16.));
#557 = VECTOR('',#558,1.);
#558 = DIRECTION('',(3.112638903398E-16,0.794357832977,-0.607450107571)
  );
#559 = ORIENTED_EDGE('',*,*,#117,.T.);
#560 = ORIENTED_EDGE('',*,*,#561,.F.);
#561 = EDGE_CURVE('',#313,#118,#562,.T.);
#562 = LINE('',#563,#564);
#563 = CARTESIAN_POINT('',(-26.75,5.939693181745E-15,16.));
#564 = VECTOR('',#565,1.);
#565 = DIRECTION('',(3.112638903398E-16,0.794357832977,-0.607450107571)
  );
#566 = PLANE('',#567);
#567 = AXIS2_PLACEMENT_3D('',#568,#569,#570);
#568 = CARTESIAN_POINT('',(-26.75,5.939693181745E-15,16.));
#569 = DIRECTION('',(4.15018520453E-17,-0.607450107571,-0.794357832977)
  );
#570 = DIRECTION('',(-3.112638903398E-16,-0.794357832977,0.607450107571)
  );
#571 = ADVANCED_FACE('',(#572),#588,.T.);
#572 = FACE_BOUND('',#573,.T.);
#573 = EDGE_LOOP('',(#574,#580,#581,#587));
#574 = ORIENTED_EDGE('',*,*,#575,.T.);
#575 = EDGE_CURVE('',#166,#467,#576,.T.);
#576 = LINE('',#577,#578);
#577 = CARTESIAN_POINT('',(7.74,14.,0.));
#578 = VECTOR('',#579,1.);
#579 = DIRECTION('',(0.,0.,1.));
#580 = ORIENTED_EDGE('',*,*,#466,.T.);
#581 = ORIENTED_EDGE('',*,*,#582,.F.);
#582 = EDGE_CURVE('',#168,#469,#583,.T.);
#583 = LINE('',#584,#585);
#584 = CARTESIAN_POINT('',(-7.74,14.,0.));
#585 = VECTOR('',#586,1.);
#586 = DIRECTION('',(0.,0.,1.));
#587 = ORIENTED_EDGE('',*,*,#165,.F.);
#588 = PLANE('',#589);
#589 = AXIS2_PLACEMENT_3D('',#590,#591,#592);
#590 = CARTESIAN_POINT('',(7.74,14.,0.));
#591 = DIRECTION('',(0.,-1.,0.));
#592 = DIRECTION('',(-1.,0.,0.));
#593 = ADVANCED_FACE('',(#594),#605,.F.);
#594 = FACE_BOUND('',#595,.T.);
#595 = EDGE_LOOP('',(#596,#597,#598,#604));
#596 = ORIENTED_EDGE('',*,*,#582,.T.);
#597 = ORIENTED_EDGE('',*,*,#527,.T.);
#598 = ORIENTED_EDGE('',*,*,#599,.F.);
#599 = EDGE_CURVE('',#176,#520,#600,.T.);
#600 = LINE('',#601,#602);
#601 = CARTESIAN_POINT('',(-10.21186746006,11.054143074056,0.));
#602 = VECTOR('',#603,1.);
#603 = DIRECTION('',(0.,0.,1.));
#604 = ORIENTED_EDGE('',*,*,#175,.F.);
#605 = CYLINDRICAL_SURFACE('',#606,2.51);
#606 = AXIS2_PLACEMENT_3D('',#607,#608,#609);
#607 = CARTESIAN_POINT('',(-7.74,11.49,0.));
#608 = DIRECTION('',(-0.,-0.,-1.));
#609 = DIRECTION('',(1.,0.,0.));
#610 = ADVANCED_FACE('',(#611),#622,.T.);
#611 = FACE_BOUND('',#612,.T.);
#612 = EDGE_LOOP('',(#613,#614,#615,#621));
#613 = ORIENTED_EDGE('',*,*,#599,.T.);
#614 = ORIENTED_EDGE('',*,*,#519,.T.);
#615 = ORIENTED_EDGE('',*,*,#616,.F.);
#616 = EDGE_CURVE('',#185,#511,#617,.T.);
#617 = LINE('',#618,#619);
#618 = CARTESIAN_POINT('',(-9.210330209637,5.374143074056,0.));
#619 = VECTOR('',#620,1.);
#620 = DIRECTION('',(0.,0.,1.));
#621 = ORIENTED_EDGE('',*,*,#184,.F.);
#622 = PLANE('',#623);
#623 = AXIS2_PLACEMENT_3D('',#624,#625,#626);
#624 = CARTESIAN_POINT('',(-10.21186746006,11.054143074056,0.));
#625 = DIRECTION('',(0.984807753012,0.173648177667,0.));
#626 = DIRECTION('',(0.173648177667,-0.984807753012,0.));
#627 = ADVANCED_FACE('',(#628),#639,.F.);
#628 = FACE_BOUND('',#629,.T.);
#629 = EDGE_LOOP('',(#630,#631,#632,#638));
#630 = ORIENTED_EDGE('',*,*,#616,.T.);
#631 = ORIENTED_EDGE('',*,*,#510,.T.);
#632 = ORIENTED_EDGE('',*,*,#633,.F.);
#633 = EDGE_CURVE('',#193,#503,#634,.T.);
#634 = LINE('',#635,#636);
#635 = CARTESIAN_POINT('',(-6.738462749576,3.3,0.));
#636 = VECTOR('',#637,1.);
#637 = DIRECTION('',(0.,0.,1.));
#638 = ORIENTED_EDGE('',*,*,#192,.F.);
#639 = CYLINDRICAL_SURFACE('',#640,2.51);
#640 = AXIS2_PLACEMENT_3D('',#641,#642,#643);
#641 = CARTESIAN_POINT('',(-6.738462749576,5.81,0.));
#642 = DIRECTION('',(-0.,-0.,-1.));
#643 = DIRECTION('',(1.,0.,0.));
#644 = ADVANCED_FACE('',(#645),#656,.T.);
#645 = FACE_BOUND('',#646,.T.);
#646 = EDGE_LOOP('',(#647,#648,#649,#655));
#647 = ORIENTED_EDGE('',*,*,#633,.T.);
#648 = ORIENTED_EDGE('',*,*,#502,.T.);
#649 = ORIENTED_EDGE('',*,*,#650,.F.);
#650 = EDGE_CURVE('',#202,#494,#651,.T.);
#651 = LINE('',#652,#653);
#652 = CARTESIAN_POINT('',(6.738462749576,3.3,0.));
#653 = VECTOR('',#654,1.);
#654 = DIRECTION('',(0.,0.,1.));
#655 = ORIENTED_EDGE('',*,*,#201,.F.);
#656 = PLANE('',#657);
#657 = AXIS2_PLACEMENT_3D('',#658,#659,#660);
#658 = CARTESIAN_POINT('',(-6.738462749576,3.3,0.));
#659 = DIRECTION('',(0.,1.,0.));
#660 = DIRECTION('',(1.,0.,0.));
#661 = ADVANCED_FACE('',(#662),#673,.F.);
#662 = FACE_BOUND('',#663,.T.);
#663 = EDGE_LOOP('',(#664,#665,#666,#672));
#664 = ORIENTED_EDGE('',*,*,#650,.T.);
#665 = ORIENTED_EDGE('',*,*,#493,.T.);
#666 = ORIENTED_EDGE('',*,*,#667,.F.);
#667 = EDGE_CURVE('',#210,#486,#668,.T.);
#668 = LINE('',#669,#670);
#669 = CARTESIAN_POINT('',(9.210330209637,5.374143074056,0.));
#670 = VECTOR('',#671,1.);
#671 = DIRECTION('',(0.,0.,1.));
#672 = ORIENTED_EDGE('',*,*,#209,.F.);
#673 = CYLINDRICAL_SURFACE('',#674,2.51);
#674 = AXIS2_PLACEMENT_3D('',#675,#676,#677);
#675 = CARTESIAN_POINT('',(6.738462749576,5.81,0.));
#676 = DIRECTION('',(-0.,-0.,-1.));
#677 = DIRECTION('',(1.,0.,0.));
#678 = ADVANCED_FACE('',(#679),#690,.T.);
#679 = FACE_BOUND('',#680,.T.);
#680 = EDGE_LOOP('',(#681,#682,#683,#689));
#681 = ORIENTED_EDGE('',*,*,#667,.T.);
#682 = ORIENTED_EDGE('',*,*,#485,.T.);
#683 = ORIENTED_EDGE('',*,*,#684,.F.);
#684 = EDGE_CURVE('',#219,#477,#685,.T.);
#685 = LINE('',#686,#687);
#686 = CARTESIAN_POINT('',(10.211867460061,11.054143074056,0.));
#687 = VECTOR('',#688,1.);
#688 = DIRECTION('',(0.,0.,1.));
#689 = ORIENTED_EDGE('',*,*,#218,.F.);
#690 = PLANE('',#691);
#691 = AXIS2_PLACEMENT_3D('',#692,#693,#694);
#692 = CARTESIAN_POINT('',(9.210330209637,5.374143074056,0.));
#693 = DIRECTION('',(-0.984807753012,0.173648177667,0.));
#694 = DIRECTION('',(0.173648177667,0.984807753012,0.));
#695 = ADVANCED_FACE('',(#696),#702,.F.);
#696 = FACE_BOUND('',#697,.T.);
#697 = EDGE_LOOP('',(#698,#699,#700,#701));
#698 = ORIENTED_EDGE('',*,*,#684,.T.);
#699 = ORIENTED_EDGE('',*,*,#476,.T.);
#700 = ORIENTED_EDGE('',*,*,#575,.F.);
#701 = ORIENTED_EDGE('',*,*,#226,.F.);
#702 = CYLINDRICAL_SURFACE('',#703,2.51);
#703 = AXIS2_PLACEMENT_3D('',#704,#705,#706);
#704 = CARTESIAN_POINT('',(7.74,11.49,0.));
#705 = DIRECTION('',(-0.,-0.,-1.));
#706 = DIRECTION('',(1.,0.,0.));
#707 = ADVANCED_FACE('',(#708),#719,.F.);
#708 = FACE_BOUND('',#709,.T.);
#709 = EDGE_LOOP('',(#710,#716,#717,#718));
#710 = ORIENTED_EDGE('',*,*,#711,.T.);
#711 = EDGE_CURVE('',#236,#537,#712,.T.);
#712 = LINE('',#713,#714);
#713 = CARTESIAN_POINT('',(14.25,8.65,0.));
#714 = VECTOR('',#715,1.);
#715 = DIRECTION('',(0.,0.,1.));
#716 = ORIENTED_EDGE('',*,*,#536,.T.);
#717 = ORIENTED_EDGE('',*,*,#711,.F.);
#718 = ORIENTED_EDGE('',*,*,#235,.F.);
#719 = CYLINDRICAL_SURFACE('',#720,1.75);
#720 = AXIS2_PLACEMENT_3D('',#721,#722,#723);
#721 = CARTESIAN_POINT('',(12.5,8.65,0.));
#722 = DIRECTION('',(-0.,-0.,-1.));
#723 = DIRECTION('',(1.,0.,0.));
#724 = ADVANCED_FACE('',(#725),#736,.F.);
#725 = FACE_BOUND('',#726,.T.);
#726 = EDGE_LOOP('',(#727,#733,#734,#735));
#727 = ORIENTED_EDGE('',*,*,#728,.T.);
#728 = EDGE_CURVE('',#247,#456,#729,.T.);
#729 = LINE('',#730,#731);
#730 = CARTESIAN_POINT('',(-10.75,8.65,0.));
#731 = VECTOR('',#732,1.);
#732 = DIRECTION('',(0.,0.,1.));
#733 = ORIENTED_EDGE('',*,*,#455,.T.);
#734 = ORIENTED_EDGE('',*,*,#728,.F.);
#735 = ORIENTED_EDGE('',*,*,#246,.F.);
#736 = CYLINDRICAL_SURFACE('',#737,1.75);
#737 = AXIS2_PLACEMENT_3D('',#738,#739,#740);
#738 = CARTESIAN_POINT('',(-12.5,8.65,0.));
#739 = DIRECTION('',(-0.,-0.,-1.));
#740 = DIRECTION('',(1.,0.,0.));
#741 = ADVANCED_FACE('',(#742),#754,.F.);
#742 = FACE_BOUND('',#743,.F.);
#743 = EDGE_LOOP('',(#744,#745,#746,#747,#748));
#744 = ORIENTED_EDGE('',*,*,#312,.T.);
#745 = ORIENTED_EDGE('',*,*,#353,.T.);
#746 = ORIENTED_EDGE('',*,*,#279,.F.);
#747 = ORIENTED_EDGE('',*,*,#398,.T.);
#748 = ORIENTED_EDGE('',*,*,#749,.F.);
#749 = EDGE_CURVE('',#313,#391,#750,.T.);
#750 = LINE('',#751,#752);
#751 = CARTESIAN_POINT('',(-26.75,3.552713678801E-15,16.));
#752 = VECTOR('',#753,1.);
#753 = DIRECTION('',(0.,-2.22044604925E-16,-1.));
#754 = PLANE('',#755);
#755 = AXIS2_PLACEMENT_3D('',#756,#757,#758);
#756 = CARTESIAN_POINT('',(-26.75,3.552713678801E-15,16.));
#757 = DIRECTION('',(1.,0.,0.));
#758 = DIRECTION('',(0.,-2.22044604925E-16,-1.));
#759 = ADVANCED_FACE('',(#760,#776,#787),#798,.T.);
#760 = FACE_BOUND('',#761,.T.);
#761 = EDGE_LOOP('',(#762,#763,#769,#770));
#762 = ORIENTED_EDGE('',*,*,#439,.F.);
#763 = ORIENTED_EDGE('',*,*,#764,.T.);
#764 = EDGE_CURVE('',#432,#321,#765,.T.);
#765 = LINE('',#766,#767);
#766 = CARTESIAN_POINT('',(-24.75,5.495603971895E-15,3.));
#767 = VECTOR('',#768,1.);
#768 = DIRECTION('',(-2.22044604925E-16,2.465190328816E-32,1.));
#769 = ORIENTED_EDGE('',*,*,#328,.F.);
#770 = ORIENTED_EDGE('',*,*,#771,.F.);
#771 = EDGE_CURVE('',#440,#329,#772,.T.);
#772 = LINE('',#773,#774);
#773 = CARTESIAN_POINT('',(24.75,0.,3.));
#774 = VECTOR('',#775,1.);
#775 = DIRECTION('',(0.,0.,1.));
#776 = FACE_BOUND('',#777,.T.);
#777 = EDGE_LOOP('',(#778));
#778 = ORIENTED_EDGE('',*,*,#779,.T.);
#779 = EDGE_CURVE('',#780,#780,#782,.T.);
#780 = VERTEX_POINT('',#781);
#781 = CARTESIAN_POINT('',(-19.25,2.442490654175E-15,11.));
#782 = CIRCLE('',#783,1.5);
#783 = AXIS2_PLACEMENT_3D('',#784,#785,#786);
#784 = CARTESIAN_POINT('',(-20.75,2.442490654175E-15,11.));
#785 = DIRECTION('',(0.,-1.,2.22044604925E-16));
#786 = DIRECTION('',(1.,0.,0.));
#787 = FACE_BOUND('',#788,.T.);
#788 = EDGE_LOOP('',(#789));
#789 = ORIENTED_EDGE('',*,*,#790,.T.);
#790 = EDGE_CURVE('',#791,#791,#793,.T.);
#791 = VERTEX_POINT('',#792);
#792 = CARTESIAN_POINT('',(22.25,2.442490654175E-15,11.));
#793 = CIRCLE('',#794,1.5);
#794 = AXIS2_PLACEMENT_3D('',#795,#796,#797);
#795 = CARTESIAN_POINT('',(20.75,2.442490654175E-15,11.));
#796 = DIRECTION('',(0.,-1.,2.22044604925E-16));
#797 = DIRECTION('',(1.,0.,0.));
#798 = PLANE('',#799);
#799 = AXIS2_PLACEMENT_3D('',#800,#801,#802);
#800 = CARTESIAN_POINT('',(-4.59635051877E-17,1.843528727198E-15,
    8.302515288857));
#801 = DIRECTION('',(0.,1.,0.));
#802 = DIRECTION('',(0.,0.,1.));
#803 = ADVANCED_FACE('',(#804),#815,.F.);
#804 = FACE_BOUND('',#805,.T.);
#805 = EDGE_LOOP('',(#806,#812,#813,#814));
#806 = ORIENTED_EDGE('',*,*,#807,.T.);
#807 = EDGE_CURVE('',#791,#362,#808,.T.);
#808 = LINE('',#809,#810);
#809 = CARTESIAN_POINT('',(22.25,2.442490654175E-15,11.));
#810 = VECTOR('',#811,1.);
#811 = DIRECTION('',(0.,-1.,2.22044604925E-16));
#812 = ORIENTED_EDGE('',*,*,#361,.T.);
#813 = ORIENTED_EDGE('',*,*,#807,.F.);
#814 = ORIENTED_EDGE('',*,*,#790,.F.);
#815 = CYLINDRICAL_SURFACE('',#816,1.5);
#816 = AXIS2_PLACEMENT_3D('',#817,#818,#819);
#817 = CARTESIAN_POINT('',(20.75,2.442490654175E-15,11.));
#818 = DIRECTION('',(0.,1.,-2.22044604925E-16));
#819 = DIRECTION('',(1.,0.,0.));
#820 = ADVANCED_FACE('',(#821),#832,.F.);
#821 = FACE_BOUND('',#822,.T.);
#822 = EDGE_LOOP('',(#823,#829,#830,#831));
#823 = ORIENTED_EDGE('',*,*,#824,.T.);
#824 = EDGE_CURVE('',#780,#373,#825,.T.);
#825 = LINE('',#826,#827);
#826 = CARTESIAN_POINT('',(-19.25,2.442490654175E-15,11.));
#827 = VECTOR('',#828,1.);
#828 = DIRECTION('',(0.,-1.,2.22044604925E-16));
#829 = ORIENTED_EDGE('',*,*,#372,.T.);
#830 = ORIENTED_EDGE('',*,*,#824,.F.);
#831 = ORIENTED_EDGE('',*,*,#779,.F.);
#832 = CYLINDRICAL_SURFACE('',#833,1.5);
#833 = AXIS2_PLACEMENT_3D('',#834,#835,#836);
#834 = CARTESIAN_POINT('',(-20.75,2.442490654175E-15,11.));
#835 = DIRECTION('',(0.,1.,-2.22044604925E-16));
#836 = DIRECTION('',(1.,0.,0.));
#837 = ADVANCED_FACE('',(#838),#843,.T.);
#838 = FACE_BOUND('',#839,.T.);
#839 = EDGE_LOOP('',(#840,#841,#842));
#840 = ORIENTED_EDGE('',*,*,#390,.T.);
#841 = ORIENTED_EDGE('',*,*,#749,.F.);
#842 = ORIENTED_EDGE('',*,*,#561,.T.);
#843 = PLANE('',#844);
#844 = AXIS2_PLACEMENT_3D('',#845,#846,#847);
#845 = CARTESIAN_POINT('',(-26.75,6.350233639758,7.350233639758));
#846 = DIRECTION('',(-1.,2.22044604925E-16,-2.22044604925E-16));
#847 = DIRECTION('',(2.22044604925E-16,-2.465190328816E-32,-1.));
#848 = ADVANCED_FACE('',(#849),#854,.F.);
#849 = FACE_BOUND('',#850,.T.);
#850 = EDGE_LOOP('',(#851,#852,#853));
#851 = ORIENTED_EDGE('',*,*,#447,.T.);
#852 = ORIENTED_EDGE('',*,*,#771,.T.);
#853 = ORIENTED_EDGE('',*,*,#414,.T.);
#854 = PLANE('',#855);
#855 = AXIS2_PLACEMENT_3D('',#856,#857,#858);
#856 = CARTESIAN_POINT('',(24.75,6.350233639758,7.350233639758));
#857 = DIRECTION('',(1.,0.,0.));
#858 = DIRECTION('',(0.,0.,1.));
#859 = ADVANCED_FACE('',(#860),#865,.F.);
#860 = FACE_BOUND('',#861,.F.);
#861 = EDGE_LOOP('',(#862,#863,#864));
#862 = ORIENTED_EDGE('',*,*,#431,.T.);
#863 = ORIENTED_EDGE('',*,*,#764,.T.);
#864 = ORIENTED_EDGE('',*,*,#554,.T.);
#865 = PLANE('',#866);
#866 = AXIS2_PLACEMENT_3D('',#867,#868,#869);
#867 = CARTESIAN_POINT('',(-24.75,6.350233639758,7.350233639758));
#868 = DIRECTION('',(-1.,2.22044604925E-16,-2.22044604925E-16));
#869 = DIRECTION('',(2.22044604925E-16,-2.465190328816E-32,-1.));
#870 = ( GEOMETRIC_REPRESENTATION_CONTEXT(3) 
GLOBAL_UNCERTAINTY_ASSIGNED_CONTEXT((#874)) GLOBAL_UNIT_ASSIGNED_CONTEXT
((#871,#872,#873)) REPRESENTATION_CONTEXT('Context #1',
  '3D Context with UNIT and UNCERTAINTY') );
#871 = ( LENGTH_UNIT() NAMED_UNIT(*) SI_UNIT(.MILLI.,.METRE.) );
#872 = ( NAMED_UNIT(*) PLANE_ANGLE_UNIT() SI_UNIT($,.RADIAN.) );
#873 = ( NAMED_UNIT(*) SI_UNIT($,.STERADIAN.) SOLID_ANGLE_UNIT() );
#874 = UNCERTAINTY_MEASURE_WITH_UNIT(LENGTH_MEASURE(1.E-07),#871,
  'distance_accuracy_value','confusion accuracy');
#875 = PRODUCT_RELATED_PRODUCT_CATEGORY('part',$,(#7));
#876 = MECHANICAL_DESIGN_GEOMETRIC_PRESENTATION_REPRESENTATION('',(#877)
  ,#870);
#877 = STYLED_ITEM('color',(#878),#15);
#878 = PRESENTATION_STYLE_ASSIGNMENT((#879,#885));
#879 = SURFACE_STYLE_USAGE(.BOTH.,#880);
#880 = SURFACE_SIDE_STYLE('',(#881));
#881 = SURFACE_STYLE_FILL_AREA(#882);
#882 = FILL_AREA_STYLE('',(#883));
#883 = FILL_AREA_STYLE_COLOUR('',#884);
#884 = COLOUR_RGB('',0.800000010877,0.800000010877,0.800000010877);
#885 = CURVE_STYLE('',#886,POSITIVE_LENGTH_MEASURE(0.1),#887);
#886 = DRAUGHTING_PRE_DEFINED_CURVE_FONT('continuous');
#887 = COLOUR_RGB('',9.803921802644E-02,9.803921802644E-02,
  9.803921802644E-02);
ENDSEC;
END-ISO-10303-21;
