ISO-10303-21;
HEADER;
FILE_DESCRIPTION(('FreeCAD Model'),'2;1');
FILE_NAME('Open CASCADE Shape Model','2026-05-12T07:32:21',(''),(''),
  'Open CASCADE STEP processor 7.7','FreeCAD','Unknown');
FILE_SCHEMA(('AUTOMOTIVE_DESIGN { 1 0 10303 214 1 1 1 1 }'));
ENDSEC;
DATA;
#1 = APPLICATION_PROTOCOL_DEFINITION('international standard',
  'automotive_design',2000,#2);
#2 = APPLICATION_CONTEXT(
  'core data for automotive mechanical design processes');
#3 = SHAPE_DEFINITION_REPRESENTATION(#4,#10);
#4 = PRODUCT_DEFINITION_SHAPE('','',#5);
#5 = PRODUCT_DEFINITION('design','',#6,#9);
#6 = PRODUCT_DEFINITION_FORMATION('','',#7);
#7 = PRODUCT('FrontBack','FrontBack','',(#8));
#8 = PRODUCT_CONTEXT('',#2,'mechanical');
#9 = PRODUCT_DEFINITION_CONTEXT('part definition',#2,'design');
#10 = ADVANCED_BREP_SHAPE_REPRESENTATION('',(#11,#15),#1674);
#11 = AXIS2_PLACEMENT_3D('',#12,#13,#14);
#12 = CARTESIAN_POINT('',(0.,0.,0.));
#13 = DIRECTION('',(0.,0.,1.));
#14 = DIRECTION('',(1.,0.,-0.));
#15 = MANIFOLD_SOLID_BREP('',#16);
#16 = CLOSED_SHELL('',(#17,#409,#441,#465,#489,#513,#538,#563,#587,#611,
    #635,#660,#684,#708,#732,#757,#781,#805,#829,#853,#877,#901,#925,
    #943,#968,#999,#1023,#1047,#1064,#1089,#1114,#1139,#1170,#1194,#1218
    ,#1235,#1266,#1290,#1314,#1331,#1356,#1387,#1411,#1435,#1452,#1477,
    #1589,#1606,#1623,#1640,#1657));
#17 = ADVANCED_FACE('',(#18,#202,#213,#247,#258,#269,#280,#314,#348,#359
    ,#393),#404,.F.);
#18 = FACE_BOUND('',#19,.F.);
#19 = EDGE_LOOP('',(#20,#31,#40,#48,#56,#64,#72,#80,#88,#96,#105,#113,
    #121,#129,#138,#146,#154,#162,#171,#180,#188,#196));
#20 = ORIENTED_EDGE('',*,*,#21,.F.);
#21 = EDGE_CURVE('',#22,#24,#26,.T.);
#22 = VERTEX_POINT('',#23);
#23 = CARTESIAN_POINT('',(-35.95,-38.1,0.));
#24 = VERTEX_POINT('',#25);
#25 = CARTESIAN_POINT('',(-39.62027957955,-36.57972042044,0.));
#26 = CIRCLE('',#27,2.15);
#27 = AXIS2_PLACEMENT_3D('',#28,#29,#30);
#28 = CARTESIAN_POINT('',(-38.1,-38.1,0.));
#29 = DIRECTION('',(0.,0.,1.));
#30 = DIRECTION('',(1.,0.,0.));
#31 = ORIENTED_EDGE('',*,*,#32,.F.);
#32 = EDGE_CURVE('',#33,#22,#35,.T.);
#33 = VERTEX_POINT('',#34);
#34 = CARTESIAN_POINT('',(-36.57972042044,-39.62027957955,0.));
#35 = CIRCLE('',#36,2.15);
#36 = AXIS2_PLACEMENT_3D('',#37,#38,#39);
#37 = CARTESIAN_POINT('',(-38.1,-38.1,0.));
#38 = DIRECTION('',(0.,0.,1.));
#39 = DIRECTION('',(1.,0.,0.));
#40 = ORIENTED_EDGE('',*,*,#41,.T.);
#41 = EDGE_CURVE('',#33,#42,#44,.T.);
#42 = VERTEX_POINT('',#43);
#43 = CARTESIAN_POINT('',(-36.,-40.2,0.));
#44 = LINE('',#45,#46);
#45 = CARTESIAN_POINT('',(-40.2,-36.,0.));
#46 = VECTOR('',#47,1.);
#47 = DIRECTION('',(0.707106781187,-0.707106781187,0.));
#48 = ORIENTED_EDGE('',*,*,#49,.F.);
#49 = EDGE_CURVE('',#50,#42,#52,.T.);
#50 = VERTEX_POINT('',#51);
#51 = CARTESIAN_POINT('',(-20.5,-40.2,0.));
#52 = LINE('',#53,#54);
#53 = CARTESIAN_POINT('',(36.,-40.2,0.));
#54 = VECTOR('',#55,1.);
#55 = DIRECTION('',(-1.,0.,0.));
#56 = ORIENTED_EDGE('',*,*,#57,.F.);
#57 = EDGE_CURVE('',#58,#50,#60,.T.);
#58 = VERTEX_POINT('',#59);
#59 = CARTESIAN_POINT('',(-20.5,-30.5,0.));
#60 = LINE('',#61,#62);
#61 = CARTESIAN_POINT('',(-20.5,-30.5,0.));
#62 = VECTOR('',#63,1.);
#63 = DIRECTION('',(0.,-1.,0.));
#64 = ORIENTED_EDGE('',*,*,#65,.F.);
#65 = EDGE_CURVE('',#66,#58,#68,.T.);
#66 = VERTEX_POINT('',#67);
#67 = CARTESIAN_POINT('',(20.5,-30.5,0.));
#68 = LINE('',#69,#70);
#69 = CARTESIAN_POINT('',(20.5,-30.5,0.));
#70 = VECTOR('',#71,1.);
#71 = DIRECTION('',(-1.,0.,0.));
#72 = ORIENTED_EDGE('',*,*,#73,.F.);
#73 = EDGE_CURVE('',#74,#66,#76,.T.);
#74 = VERTEX_POINT('',#75);
#75 = CARTESIAN_POINT('',(20.5,-40.2,0.));
#76 = LINE('',#77,#78);
#77 = CARTESIAN_POINT('',(20.5,-40.5,0.));
#78 = VECTOR('',#79,1.);
#79 = DIRECTION('',(0.,1.,0.));
#80 = ORIENTED_EDGE('',*,*,#81,.F.);
#81 = EDGE_CURVE('',#82,#74,#84,.T.);
#82 = VERTEX_POINT('',#83);
#83 = CARTESIAN_POINT('',(36.,-40.2,0.));
#84 = LINE('',#85,#86);
#85 = CARTESIAN_POINT('',(36.,-40.2,0.));
#86 = VECTOR('',#87,1.);
#87 = DIRECTION('',(-1.,0.,0.));
#88 = ORIENTED_EDGE('',*,*,#89,.T.);
#89 = EDGE_CURVE('',#82,#90,#92,.T.);
#90 = VERTEX_POINT('',#91);
#91 = CARTESIAN_POINT('',(36.579720420449,-39.62027957955,0.));
#92 = LINE('',#93,#94);
#93 = CARTESIAN_POINT('',(36.,-40.2,0.));
#94 = VECTOR('',#95,1.);
#95 = DIRECTION('',(0.707106781187,0.707106781187,0.));
#96 = ORIENTED_EDGE('',*,*,#97,.F.);
#97 = EDGE_CURVE('',#98,#90,#100,.T.);
#98 = VERTEX_POINT('',#99);
#99 = CARTESIAN_POINT('',(39.620279579551,-36.57972042044,0.));
#100 = CIRCLE('',#101,2.15);
#101 = AXIS2_PLACEMENT_3D('',#102,#103,#104);
#102 = CARTESIAN_POINT('',(38.1,-38.1,0.));
#103 = DIRECTION('',(0.,0.,1.));
#104 = DIRECTION('',(1.,0.,0.));
#105 = ORIENTED_EDGE('',*,*,#106,.T.);
#106 = EDGE_CURVE('',#98,#107,#109,.T.);
#107 = VERTEX_POINT('',#108);
#108 = CARTESIAN_POINT('',(40.2,-36.,0.));
#109 = LINE('',#110,#111);
#110 = CARTESIAN_POINT('',(36.,-40.2,0.));
#111 = VECTOR('',#112,1.);
#112 = DIRECTION('',(0.707106781187,0.707106781187,0.));
#113 = ORIENTED_EDGE('',*,*,#114,.F.);
#114 = EDGE_CURVE('',#115,#107,#117,.T.);
#115 = VERTEX_POINT('',#116);
#116 = CARTESIAN_POINT('',(40.2,36.,0.));
#117 = LINE('',#118,#119);
#118 = CARTESIAN_POINT('',(40.2,36.,0.));
#119 = VECTOR('',#120,1.);
#120 = DIRECTION('',(0.,-1.,0.));
#121 = ORIENTED_EDGE('',*,*,#122,.F.);
#122 = EDGE_CURVE('',#123,#115,#125,.T.);
#123 = VERTEX_POINT('',#124);
#124 = CARTESIAN_POINT('',(39.620279579551,36.579720420449,0.));
#125 = LINE('',#126,#127);
#126 = CARTESIAN_POINT('',(36.,40.2,0.));
#127 = VECTOR('',#128,1.);
#128 = DIRECTION('',(0.707106781187,-0.707106781187,0.));
#129 = ORIENTED_EDGE('',*,*,#130,.F.);
#130 = EDGE_CURVE('',#131,#123,#133,.T.);
#131 = VERTEX_POINT('',#132);
#132 = CARTESIAN_POINT('',(36.579720420449,39.620279579551,0.));
#133 = CIRCLE('',#134,2.15);
#134 = AXIS2_PLACEMENT_3D('',#135,#136,#137);
#135 = CARTESIAN_POINT('',(38.1,38.1,0.));
#136 = DIRECTION('',(0.,0.,1.));
#137 = DIRECTION('',(1.,0.,0.));
#138 = ORIENTED_EDGE('',*,*,#139,.F.);
#139 = EDGE_CURVE('',#140,#131,#142,.T.);
#140 = VERTEX_POINT('',#141);
#141 = CARTESIAN_POINT('',(36.,40.2,0.));
#142 = LINE('',#143,#144);
#143 = CARTESIAN_POINT('',(36.,40.2,0.));
#144 = VECTOR('',#145,1.);
#145 = DIRECTION('',(0.707106781187,-0.707106781187,0.));
#146 = ORIENTED_EDGE('',*,*,#147,.F.);
#147 = EDGE_CURVE('',#148,#140,#150,.T.);
#148 = VERTEX_POINT('',#149);
#149 = CARTESIAN_POINT('',(-36.,40.2,0.));
#150 = LINE('',#151,#152);
#151 = CARTESIAN_POINT('',(-36.,40.2,0.));
#152 = VECTOR('',#153,1.);
#153 = DIRECTION('',(1.,0.,0.));
#154 = ORIENTED_EDGE('',*,*,#155,.F.);
#155 = EDGE_CURVE('',#156,#148,#158,.T.);
#156 = VERTEX_POINT('',#157);
#157 = CARTESIAN_POINT('',(-36.57972042044,39.620279579551,0.));
#158 = LINE('',#159,#160);
#159 = CARTESIAN_POINT('',(-40.2,36.,0.));
#160 = VECTOR('',#161,1.);
#161 = DIRECTION('',(0.707106781187,0.707106781187,0.));
#162 = ORIENTED_EDGE('',*,*,#163,.F.);
#163 = EDGE_CURVE('',#164,#156,#166,.T.);
#164 = VERTEX_POINT('',#165);
#165 = CARTESIAN_POINT('',(-35.95,38.1,0.));
#166 = CIRCLE('',#167,2.15);
#167 = AXIS2_PLACEMENT_3D('',#168,#169,#170);
#168 = CARTESIAN_POINT('',(-38.1,38.1,0.));
#169 = DIRECTION('',(0.,0.,1.));
#170 = DIRECTION('',(1.,0.,0.));
#171 = ORIENTED_EDGE('',*,*,#172,.F.);
#172 = EDGE_CURVE('',#173,#164,#175,.T.);
#173 = VERTEX_POINT('',#174);
#174 = CARTESIAN_POINT('',(-39.62027957955,36.579720420449,0.));
#175 = CIRCLE('',#176,2.15);
#176 = AXIS2_PLACEMENT_3D('',#177,#178,#179);
#177 = CARTESIAN_POINT('',(-38.1,38.1,0.));
#178 = DIRECTION('',(0.,0.,1.));
#179 = DIRECTION('',(1.,0.,0.));
#180 = ORIENTED_EDGE('',*,*,#181,.F.);
#181 = EDGE_CURVE('',#182,#173,#184,.T.);
#182 = VERTEX_POINT('',#183);
#183 = CARTESIAN_POINT('',(-40.2,36.,0.));
#184 = LINE('',#185,#186);
#185 = CARTESIAN_POINT('',(-40.2,36.,0.));
#186 = VECTOR('',#187,1.);
#187 = DIRECTION('',(0.707106781187,0.707106781187,0.));
#188 = ORIENTED_EDGE('',*,*,#189,.F.);
#189 = EDGE_CURVE('',#190,#182,#192,.T.);
#190 = VERTEX_POINT('',#191);
#191 = CARTESIAN_POINT('',(-40.2,-36.,0.));
#192 = LINE('',#193,#194);
#193 = CARTESIAN_POINT('',(-40.2,-36.,0.));
#194 = VECTOR('',#195,1.);
#195 = DIRECTION('',(0.,1.,0.));
#196 = ORIENTED_EDGE('',*,*,#197,.T.);
#197 = EDGE_CURVE('',#190,#24,#198,.T.);
#198 = LINE('',#199,#200);
#199 = CARTESIAN_POINT('',(-40.2,-36.,0.));
#200 = VECTOR('',#201,1.);
#201 = DIRECTION('',(0.707106781187,-0.707106781187,0.));
#202 = FACE_BOUND('',#203,.F.);
#203 = EDGE_LOOP('',(#204));
#204 = ORIENTED_EDGE('',*,*,#205,.T.);
#205 = EDGE_CURVE('',#206,#206,#208,.T.);
#206 = VERTEX_POINT('',#207);
#207 = CARTESIAN_POINT('',(-33.80914498161,-30.75914498161,0.));
#208 = CIRCLE('',#209,3.05);
#209 = AXIS2_PLACEMENT_3D('',#210,#211,#212);
#210 = CARTESIAN_POINT('',(-30.75914498161,-30.75914498161,0.));
#211 = DIRECTION('',(0.,0.,-1.));
#212 = DIRECTION('',(-1.,0.,0.));
#213 = FACE_BOUND('',#214,.F.);
#214 = EDGE_LOOP('',(#215,#225,#233,#241));
#215 = ORIENTED_EDGE('',*,*,#216,.F.);
#216 = EDGE_CURVE('',#217,#219,#221,.T.);
#217 = VERTEX_POINT('',#218);
#218 = CARTESIAN_POINT('',(-30.,21.499999999998,0.));
#219 = VERTEX_POINT('',#220);
#220 = CARTESIAN_POINT('',(-30.,-23.5,0.));
#221 = LINE('',#222,#223);
#222 = CARTESIAN_POINT('',(-30.,21.499999999998,0.));
#223 = VECTOR('',#224,1.);
#224 = DIRECTION('',(0.,-1.,0.));
#225 = ORIENTED_EDGE('',*,*,#226,.F.);
#226 = EDGE_CURVE('',#227,#217,#229,.T.);
#227 = VERTEX_POINT('',#228);
#228 = CARTESIAN_POINT('',(-22.,21.499999999998,0.));
#229 = LINE('',#230,#231);
#230 = CARTESIAN_POINT('',(-22.,21.499999999998,0.));
#231 = VECTOR('',#232,1.);
#232 = DIRECTION('',(-1.,0.,0.));
#233 = ORIENTED_EDGE('',*,*,#234,.F.);
#234 = EDGE_CURVE('',#235,#227,#237,.T.);
#235 = VERTEX_POINT('',#236);
#236 = CARTESIAN_POINT('',(-22.,-23.5,0.));
#237 = LINE('',#238,#239);
#238 = CARTESIAN_POINT('',(-22.,-23.5,0.));
#239 = VECTOR('',#240,1.);
#240 = DIRECTION('',(0.,1.,0.));
#241 = ORIENTED_EDGE('',*,*,#242,.F.);
#242 = EDGE_CURVE('',#219,#235,#243,.T.);
#243 = LINE('',#244,#245);
#244 = CARTESIAN_POINT('',(-30.,-23.5,0.));
#245 = VECTOR('',#246,1.);
#246 = DIRECTION('',(1.,0.,0.));
#247 = FACE_BOUND('',#248,.F.);
#248 = EDGE_LOOP('',(#249));
#249 = ORIENTED_EDGE('',*,*,#250,.T.);
#250 = EDGE_CURVE('',#251,#251,#253,.T.);
#251 = VERTEX_POINT('',#252);
#252 = CARTESIAN_POINT('',(-15.25,-10.5,0.));
#253 = CIRCLE('',#254,1.75);
#254 = AXIS2_PLACEMENT_3D('',#255,#256,#257);
#255 = CARTESIAN_POINT('',(-17.,-10.5,0.));
#256 = DIRECTION('',(0.,0.,-1.));
#257 = DIRECTION('',(1.,0.,0.));
#258 = FACE_BOUND('',#259,.F.);
#259 = EDGE_LOOP('',(#260));
#260 = ORIENTED_EDGE('',*,*,#261,.T.);
#261 = EDGE_CURVE('',#262,#262,#264,.T.);
#262 = VERTEX_POINT('',#263);
#263 = CARTESIAN_POINT('',(27.709144981616,-30.75914498161,0.));
#264 = CIRCLE('',#265,3.05);
#265 = AXIS2_PLACEMENT_3D('',#266,#267,#268);
#266 = CARTESIAN_POINT('',(30.759144981616,-30.75914498161,0.));
#267 = DIRECTION('',(0.,0.,-1.));
#268 = DIRECTION('',(-1.,0.,0.));
#269 = FACE_BOUND('',#270,.F.);
#270 = EDGE_LOOP('',(#271));
#271 = ORIENTED_EDGE('',*,*,#272,.T.);
#272 = EDGE_CURVE('',#273,#273,#275,.T.);
#273 = VERTEX_POINT('',#274);
#274 = CARTESIAN_POINT('',(18.75,-10.5,0.));
#275 = CIRCLE('',#276,1.75);
#276 = AXIS2_PLACEMENT_3D('',#277,#278,#279);
#277 = CARTESIAN_POINT('',(17.,-10.5,0.));
#278 = DIRECTION('',(0.,0.,-1.));
#279 = DIRECTION('',(1.,0.,0.));
#280 = FACE_BOUND('',#281,.F.);
#281 = EDGE_LOOP('',(#282,#292,#300,#308));
#282 = ORIENTED_EDGE('',*,*,#283,.F.);
#283 = EDGE_CURVE('',#284,#286,#288,.T.);
#284 = VERTEX_POINT('',#285);
#285 = CARTESIAN_POINT('',(22.,21.5,0.));
#286 = VERTEX_POINT('',#287);
#287 = CARTESIAN_POINT('',(22.,-23.5,0.));
#288 = LINE('',#289,#290);
#289 = CARTESIAN_POINT('',(22.,21.5,0.));
#290 = VECTOR('',#291,1.);
#291 = DIRECTION('',(0.,-1.,0.));
#292 = ORIENTED_EDGE('',*,*,#293,.F.);
#293 = EDGE_CURVE('',#294,#284,#296,.T.);
#294 = VERTEX_POINT('',#295);
#295 = CARTESIAN_POINT('',(30.,21.5,0.));
#296 = LINE('',#297,#298);
#297 = CARTESIAN_POINT('',(30.,21.5,0.));
#298 = VECTOR('',#299,1.);
#299 = DIRECTION('',(-1.,0.,0.));
#300 = ORIENTED_EDGE('',*,*,#301,.F.);
#301 = EDGE_CURVE('',#302,#294,#304,.T.);
#302 = VERTEX_POINT('',#303);
#303 = CARTESIAN_POINT('',(30.,-23.5,0.));
#304 = LINE('',#305,#306);
#305 = CARTESIAN_POINT('',(30.,-23.5,0.));
#306 = VECTOR('',#307,1.);
#307 = DIRECTION('',(0.,1.,0.));
#308 = ORIENTED_EDGE('',*,*,#309,.F.);
#309 = EDGE_CURVE('',#286,#302,#310,.T.);
#310 = LINE('',#311,#312);
#311 = CARTESIAN_POINT('',(22.,-23.5,0.));
#312 = VECTOR('',#313,1.);
#313 = DIRECTION('',(1.,0.,0.));
#314 = FACE_BOUND('',#315,.F.);
#315 = EDGE_LOOP('',(#316,#326,#334,#342));
#316 = ORIENTED_EDGE('',*,*,#317,.F.);
#317 = EDGE_CURVE('',#318,#320,#322,.T.);
#318 = VERTEX_POINT('',#319);
#319 = CARTESIAN_POINT('',(-12.,36.499999999999,0.));
#320 = VERTEX_POINT('',#321);
#321 = CARTESIAN_POINT('',(-12.,-23.5,0.));
#322 = LINE('',#323,#324);
#323 = CARTESIAN_POINT('',(-12.,36.499999999999,0.));
#324 = VECTOR('',#325,1.);
#325 = DIRECTION('',(0.,-1.,0.));
#326 = ORIENTED_EDGE('',*,*,#327,.F.);
#327 = EDGE_CURVE('',#328,#318,#330,.T.);
#328 = VERTEX_POINT('',#329);
#329 = CARTESIAN_POINT('',(-4.,36.499999999999,0.));
#330 = LINE('',#331,#332);
#331 = CARTESIAN_POINT('',(-4.,36.499999999999,0.));
#332 = VECTOR('',#333,1.);
#333 = DIRECTION('',(-1.,0.,0.));
#334 = ORIENTED_EDGE('',*,*,#335,.F.);
#335 = EDGE_CURVE('',#336,#328,#338,.T.);
#336 = VERTEX_POINT('',#337);
#337 = CARTESIAN_POINT('',(-4.,-23.5,0.));
#338 = LINE('',#339,#340);
#339 = CARTESIAN_POINT('',(-4.,-23.5,0.));
#340 = VECTOR('',#341,1.);
#341 = DIRECTION('',(0.,1.,0.));
#342 = ORIENTED_EDGE('',*,*,#343,.F.);
#343 = EDGE_CURVE('',#320,#336,#344,.T.);
#344 = LINE('',#345,#346);
#345 = CARTESIAN_POINT('',(-12.,-23.5,0.));
#346 = VECTOR('',#347,1.);
#347 = DIRECTION('',(1.,0.,0.));
#348 = FACE_BOUND('',#349,.F.);
#349 = EDGE_LOOP('',(#350));
#350 = ORIENTED_EDGE('',*,*,#351,.F.);
#351 = EDGE_CURVE('',#352,#352,#354,.T.);
#352 = VERTEX_POINT('',#353);
#353 = CARTESIAN_POINT('',(-27.00914498161,30.759144981616,0.));
#354 = CIRCLE('',#355,3.75);
#355 = AXIS2_PLACEMENT_3D('',#356,#357,#358);
#356 = CARTESIAN_POINT('',(-30.75914498161,30.759144981616,0.));
#357 = DIRECTION('',(0.,0.,1.));
#358 = DIRECTION('',(1.,0.,0.));
#359 = FACE_BOUND('',#360,.F.);
#360 = EDGE_LOOP('',(#361,#371,#379,#387));
#361 = ORIENTED_EDGE('',*,*,#362,.F.);
#362 = EDGE_CURVE('',#363,#365,#367,.T.);
#363 = VERTEX_POINT('',#364);
#364 = CARTESIAN_POINT('',(4.,36.5,0.));
#365 = VERTEX_POINT('',#366);
#366 = CARTESIAN_POINT('',(4.,-23.5,0.));
#367 = LINE('',#368,#369);
#368 = CARTESIAN_POINT('',(4.,36.5,0.));
#369 = VECTOR('',#370,1.);
#370 = DIRECTION('',(0.,-1.,0.));
#371 = ORIENTED_EDGE('',*,*,#372,.F.);
#372 = EDGE_CURVE('',#373,#363,#375,.T.);
#373 = VERTEX_POINT('',#374);
#374 = CARTESIAN_POINT('',(12.,36.5,0.));
#375 = LINE('',#376,#377);
#376 = CARTESIAN_POINT('',(12.,36.5,0.));
#377 = VECTOR('',#378,1.);
#378 = DIRECTION('',(-1.,0.,0.));
#379 = ORIENTED_EDGE('',*,*,#380,.F.);
#380 = EDGE_CURVE('',#381,#373,#383,.T.);
#381 = VERTEX_POINT('',#382);
#382 = CARTESIAN_POINT('',(12.,-23.5,0.));
#383 = LINE('',#384,#385);
#384 = CARTESIAN_POINT('',(12.,-23.5,0.));
#385 = VECTOR('',#386,1.);
#386 = DIRECTION('',(0.,1.,0.));
#387 = ORIENTED_EDGE('',*,*,#388,.F.);
#388 = EDGE_CURVE('',#365,#381,#389,.T.);
#389 = LINE('',#390,#391);
#390 = CARTESIAN_POINT('',(4.,-23.5,0.));
#391 = VECTOR('',#392,1.);
#392 = DIRECTION('',(1.,0.,0.));
#393 = FACE_BOUND('',#394,.F.);
#394 = EDGE_LOOP('',(#395));
#395 = ORIENTED_EDGE('',*,*,#396,.T.);
#396 = EDGE_CURVE('',#397,#397,#399,.T.);
#397 = VERTEX_POINT('',#398);
#398 = CARTESIAN_POINT('',(27.709144981616,30.759144981616,0.));
#399 = CIRCLE('',#400,3.05);
#400 = AXIS2_PLACEMENT_3D('',#401,#402,#403);
#401 = CARTESIAN_POINT('',(30.759144981616,30.759144981616,0.));
#402 = DIRECTION('',(0.,0.,-1.));
#403 = DIRECTION('',(-1.,0.,0.));
#404 = PLANE('',#405);
#405 = AXIS2_PLACEMENT_3D('',#406,#407,#408);
#406 = CARTESIAN_POINT('',(-0.610238560095,-1.492243475353,0.));
#407 = DIRECTION('',(0.,0.,1.));
#408 = DIRECTION('',(1.,0.,0.));
#409 = ADVANCED_FACE('',(#410),#436,.F.);
#410 = FACE_BOUND('',#411,.T.);
#411 = EDGE_LOOP('',(#412,#413,#421,#430));
#412 = ORIENTED_EDGE('',*,*,#21,.F.);
#413 = ORIENTED_EDGE('',*,*,#414,.T.);
#414 = EDGE_CURVE('',#22,#415,#417,.T.);
#415 = VERTEX_POINT('',#416);
#416 = CARTESIAN_POINT('',(-35.95,-38.1,3.));
#417 = LINE('',#418,#419);
#418 = CARTESIAN_POINT('',(-35.95,-38.1,0.));
#419 = VECTOR('',#420,1.);
#420 = DIRECTION('',(0.,0.,1.));
#421 = ORIENTED_EDGE('',*,*,#422,.T.);
#422 = EDGE_CURVE('',#415,#423,#425,.T.);
#423 = VERTEX_POINT('',#424);
#424 = CARTESIAN_POINT('',(-39.62027957955,-36.57972042044,3.));
#425 = CIRCLE('',#426,2.15);
#426 = AXIS2_PLACEMENT_3D('',#427,#428,#429);
#427 = CARTESIAN_POINT('',(-38.1,-38.1,3.));
#428 = DIRECTION('',(0.,0.,1.));
#429 = DIRECTION('',(1.,0.,0.));
#430 = ORIENTED_EDGE('',*,*,#431,.T.);
#431 = EDGE_CURVE('',#423,#24,#432,.T.);
#432 = LINE('',#433,#434);
#433 = CARTESIAN_POINT('',(-39.62027957955,-36.57972042044,0.));
#434 = VECTOR('',#435,1.);
#435 = DIRECTION('',(-0.,-0.,-1.));
#436 = CYLINDRICAL_SURFACE('',#437,2.15);
#437 = AXIS2_PLACEMENT_3D('',#438,#439,#440);
#438 = CARTESIAN_POINT('',(-38.1,-38.1,0.));
#439 = DIRECTION('',(-0.,-0.,-1.));
#440 = DIRECTION('',(1.,0.,0.));
#441 = ADVANCED_FACE('',(#442),#460,.F.);
#442 = FACE_BOUND('',#443,.F.);
#443 = EDGE_LOOP('',(#444,#445,#453,#459));
#444 = ORIENTED_EDGE('',*,*,#197,.F.);
#445 = ORIENTED_EDGE('',*,*,#446,.T.);
#446 = EDGE_CURVE('',#190,#447,#449,.T.);
#447 = VERTEX_POINT('',#448);
#448 = CARTESIAN_POINT('',(-40.2,-36.,3.));
#449 = LINE('',#450,#451);
#450 = CARTESIAN_POINT('',(-40.2,-36.,0.));
#451 = VECTOR('',#452,1.);
#452 = DIRECTION('',(0.,0.,1.));
#453 = ORIENTED_EDGE('',*,*,#454,.F.);
#454 = EDGE_CURVE('',#423,#447,#455,.T.);
#455 = LINE('',#456,#457);
#456 = CARTESIAN_POINT('',(-38.92949877118,-37.27050122881,3.));
#457 = VECTOR('',#458,1.);
#458 = DIRECTION('',(-0.707106781187,0.707106781187,0.));
#459 = ORIENTED_EDGE('',*,*,#431,.T.);
#460 = PLANE('',#461);
#461 = AXIS2_PLACEMENT_3D('',#462,#463,#464);
#462 = CARTESIAN_POINT('',(-40.2,-36.,0.));
#463 = DIRECTION('',(0.707106781187,0.707106781187,0.));
#464 = DIRECTION('',(0.707106781187,-0.707106781187,0.));
#465 = ADVANCED_FACE('',(#466),#484,.T.);
#466 = FACE_BOUND('',#467,.T.);
#467 = EDGE_LOOP('',(#468,#469,#470,#478));
#468 = ORIENTED_EDGE('',*,*,#189,.F.);
#469 = ORIENTED_EDGE('',*,*,#446,.T.);
#470 = ORIENTED_EDGE('',*,*,#471,.F.);
#471 = EDGE_CURVE('',#472,#447,#474,.T.);
#472 = VERTEX_POINT('',#473);
#473 = CARTESIAN_POINT('',(-40.2,36.,3.));
#474 = LINE('',#475,#476);
#475 = CARTESIAN_POINT('',(-40.2,-18.74612173767,3.));
#476 = VECTOR('',#477,1.);
#477 = DIRECTION('',(0.,-1.,0.));
#478 = ORIENTED_EDGE('',*,*,#479,.F.);
#479 = EDGE_CURVE('',#182,#472,#480,.T.);
#480 = LINE('',#481,#482);
#481 = CARTESIAN_POINT('',(-40.2,36.,0.));
#482 = VECTOR('',#483,1.);
#483 = DIRECTION('',(0.,0.,1.));
#484 = PLANE('',#485);
#485 = AXIS2_PLACEMENT_3D('',#486,#487,#488);
#486 = CARTESIAN_POINT('',(-40.2,-36.,0.));
#487 = DIRECTION('',(-1.,0.,0.));
#488 = DIRECTION('',(0.,1.,0.));
#489 = ADVANCED_FACE('',(#490),#508,.T.);
#490 = FACE_BOUND('',#491,.T.);
#491 = EDGE_LOOP('',(#492,#493,#494,#502));
#492 = ORIENTED_EDGE('',*,*,#181,.F.);
#493 = ORIENTED_EDGE('',*,*,#479,.T.);
#494 = ORIENTED_EDGE('',*,*,#495,.F.);
#495 = EDGE_CURVE('',#496,#472,#498,.T.);
#496 = VERTEX_POINT('',#497);
#497 = CARTESIAN_POINT('',(-39.62027957955,36.579720420449,3.));
#498 = LINE('',#499,#500);
#499 = CARTESIAN_POINT('',(-39.67562050886,36.524379491138,3.));
#500 = VECTOR('',#501,1.);
#501 = DIRECTION('',(-0.707106781187,-0.707106781187,0.));
#502 = ORIENTED_EDGE('',*,*,#503,.T.);
#503 = EDGE_CURVE('',#496,#173,#504,.T.);
#504 = LINE('',#505,#506);
#505 = CARTESIAN_POINT('',(-39.62027957955,36.579720420449,0.));
#506 = VECTOR('',#507,1.);
#507 = DIRECTION('',(-0.,-0.,-1.));
#508 = PLANE('',#509);
#509 = AXIS2_PLACEMENT_3D('',#510,#511,#512);
#510 = CARTESIAN_POINT('',(-40.2,36.,0.));
#511 = DIRECTION('',(-0.707106781187,0.707106781187,0.));
#512 = DIRECTION('',(0.707106781187,0.707106781187,0.));
#513 = ADVANCED_FACE('',(#514),#533,.F.);
#514 = FACE_BOUND('',#515,.T.);
#515 = EDGE_LOOP('',(#516,#524,#525,#526));
#516 = ORIENTED_EDGE('',*,*,#517,.F.);
#517 = EDGE_CURVE('',#164,#518,#520,.T.);
#518 = VERTEX_POINT('',#519);
#519 = CARTESIAN_POINT('',(-35.95,38.1,3.));
#520 = LINE('',#521,#522);
#521 = CARTESIAN_POINT('',(-35.95,38.1,0.));
#522 = VECTOR('',#523,1.);
#523 = DIRECTION('',(0.,0.,1.));
#524 = ORIENTED_EDGE('',*,*,#172,.F.);
#525 = ORIENTED_EDGE('',*,*,#503,.F.);
#526 = ORIENTED_EDGE('',*,*,#527,.T.);
#527 = EDGE_CURVE('',#496,#518,#528,.T.);
#528 = CIRCLE('',#529,2.15);
#529 = AXIS2_PLACEMENT_3D('',#530,#531,#532);
#530 = CARTESIAN_POINT('',(-38.1,38.1,3.));
#531 = DIRECTION('',(0.,0.,1.));
#532 = DIRECTION('',(1.,0.,0.));
#533 = CYLINDRICAL_SURFACE('',#534,2.15);
#534 = AXIS2_PLACEMENT_3D('',#535,#536,#537);
#535 = CARTESIAN_POINT('',(-38.1,38.1,0.));
#536 = DIRECTION('',(-0.,-0.,-1.));
#537 = DIRECTION('',(1.,0.,0.));
#538 = ADVANCED_FACE('',(#539),#558,.F.);
#539 = FACE_BOUND('',#540,.T.);
#540 = EDGE_LOOP('',(#541,#542,#543,#552));
#541 = ORIENTED_EDGE('',*,*,#163,.F.);
#542 = ORIENTED_EDGE('',*,*,#517,.T.);
#543 = ORIENTED_EDGE('',*,*,#544,.T.);
#544 = EDGE_CURVE('',#518,#545,#547,.T.);
#545 = VERTEX_POINT('',#546);
#546 = CARTESIAN_POINT('',(-36.57972042044,39.620279579551,3.));
#547 = CIRCLE('',#548,2.15);
#548 = AXIS2_PLACEMENT_3D('',#549,#550,#551);
#549 = CARTESIAN_POINT('',(-38.1,38.1,3.));
#550 = DIRECTION('',(0.,0.,1.));
#551 = DIRECTION('',(1.,0.,0.));
#552 = ORIENTED_EDGE('',*,*,#553,.T.);
#553 = EDGE_CURVE('',#545,#156,#554,.T.);
#554 = LINE('',#555,#556);
#555 = CARTESIAN_POINT('',(-36.57972042044,39.620279579551,0.));
#556 = VECTOR('',#557,1.);
#557 = DIRECTION('',(-0.,-0.,-1.));
#558 = CYLINDRICAL_SURFACE('',#559,2.15);
#559 = AXIS2_PLACEMENT_3D('',#560,#561,#562);
#560 = CARTESIAN_POINT('',(-38.1,38.1,0.));
#561 = DIRECTION('',(-0.,-0.,-1.));
#562 = DIRECTION('',(1.,0.,0.));
#563 = ADVANCED_FACE('',(#564),#582,.T.);
#564 = FACE_BOUND('',#565,.T.);
#565 = EDGE_LOOP('',(#566,#567,#568,#576));
#566 = ORIENTED_EDGE('',*,*,#155,.F.);
#567 = ORIENTED_EDGE('',*,*,#553,.F.);
#568 = ORIENTED_EDGE('',*,*,#569,.F.);
#569 = EDGE_CURVE('',#570,#545,#572,.T.);
#570 = VERTEX_POINT('',#571);
#571 = CARTESIAN_POINT('',(-36.,40.2,3.));
#572 = LINE('',#573,#574);
#573 = CARTESIAN_POINT('',(-39.67562050886,36.524379491138,3.));
#574 = VECTOR('',#575,1.);
#575 = DIRECTION('',(-0.707106781187,-0.707106781187,0.));
#576 = ORIENTED_EDGE('',*,*,#577,.F.);
#577 = EDGE_CURVE('',#148,#570,#578,.T.);
#578 = LINE('',#579,#580);
#579 = CARTESIAN_POINT('',(-36.,40.2,0.));
#580 = VECTOR('',#581,1.);
#581 = DIRECTION('',(0.,0.,1.));
#582 = PLANE('',#583);
#583 = AXIS2_PLACEMENT_3D('',#584,#585,#586);
#584 = CARTESIAN_POINT('',(-40.2,36.,0.));
#585 = DIRECTION('',(-0.707106781187,0.707106781187,0.));
#586 = DIRECTION('',(0.707106781187,0.707106781187,0.));
#587 = ADVANCED_FACE('',(#588),#606,.T.);
#588 = FACE_BOUND('',#589,.T.);
#589 = EDGE_LOOP('',(#590,#591,#592,#600));
#590 = ORIENTED_EDGE('',*,*,#147,.F.);
#591 = ORIENTED_EDGE('',*,*,#577,.T.);
#592 = ORIENTED_EDGE('',*,*,#593,.F.);
#593 = EDGE_CURVE('',#594,#570,#596,.T.);
#594 = VERTEX_POINT('',#595);
#595 = CARTESIAN_POINT('',(36.,40.2,3.));
#596 = LINE('',#597,#598);
#597 = CARTESIAN_POINT('',(-18.30511928004,40.2,3.));
#598 = VECTOR('',#599,1.);
#599 = DIRECTION('',(-1.,0.,0.));
#600 = ORIENTED_EDGE('',*,*,#601,.F.);
#601 = EDGE_CURVE('',#140,#594,#602,.T.);
#602 = LINE('',#603,#604);
#603 = CARTESIAN_POINT('',(36.,40.2,0.));
#604 = VECTOR('',#605,1.);
#605 = DIRECTION('',(0.,0.,1.));
#606 = PLANE('',#607);
#607 = AXIS2_PLACEMENT_3D('',#608,#609,#610);
#608 = CARTESIAN_POINT('',(-36.,40.2,0.));
#609 = DIRECTION('',(0.,1.,0.));
#610 = DIRECTION('',(1.,0.,0.));
#611 = ADVANCED_FACE('',(#612),#630,.T.);
#612 = FACE_BOUND('',#613,.T.);
#613 = EDGE_LOOP('',(#614,#615,#616,#624));
#614 = ORIENTED_EDGE('',*,*,#139,.F.);
#615 = ORIENTED_EDGE('',*,*,#601,.T.);
#616 = ORIENTED_EDGE('',*,*,#617,.F.);
#617 = EDGE_CURVE('',#618,#594,#620,.T.);
#618 = VERTEX_POINT('',#619);
#619 = CARTESIAN_POINT('',(36.579720420449,39.620279579551,3.));
#620 = LINE('',#621,#622);
#621 = CARTESIAN_POINT('',(37.270501228814,38.929498771186,3.));
#622 = VECTOR('',#623,1.);
#623 = DIRECTION('',(-0.707106781187,0.707106781187,0.));
#624 = ORIENTED_EDGE('',*,*,#625,.T.);
#625 = EDGE_CURVE('',#618,#131,#626,.T.);
#626 = LINE('',#627,#628);
#627 = CARTESIAN_POINT('',(36.579720420449,39.620279579551,0.));
#628 = VECTOR('',#629,1.);
#629 = DIRECTION('',(-0.,-0.,-1.));
#630 = PLANE('',#631);
#631 = AXIS2_PLACEMENT_3D('',#632,#633,#634);
#632 = CARTESIAN_POINT('',(36.,40.2,0.));
#633 = DIRECTION('',(0.707106781187,0.707106781187,0.));
#634 = DIRECTION('',(0.707106781187,-0.707106781187,0.));
#635 = ADVANCED_FACE('',(#636),#655,.F.);
#636 = FACE_BOUND('',#637,.T.);
#637 = EDGE_LOOP('',(#638,#639,#640,#649));
#638 = ORIENTED_EDGE('',*,*,#130,.F.);
#639 = ORIENTED_EDGE('',*,*,#625,.F.);
#640 = ORIENTED_EDGE('',*,*,#641,.T.);
#641 = EDGE_CURVE('',#618,#642,#644,.T.);
#642 = VERTEX_POINT('',#643);
#643 = CARTESIAN_POINT('',(39.620279579551,36.579720420449,3.));
#644 = CIRCLE('',#645,2.15);
#645 = AXIS2_PLACEMENT_3D('',#646,#647,#648);
#646 = CARTESIAN_POINT('',(38.1,38.1,3.));
#647 = DIRECTION('',(0.,0.,1.));
#648 = DIRECTION('',(1.,0.,0.));
#649 = ORIENTED_EDGE('',*,*,#650,.T.);
#650 = EDGE_CURVE('',#642,#123,#651,.T.);
#651 = LINE('',#652,#653);
#652 = CARTESIAN_POINT('',(39.620279579551,36.579720420449,0.));
#653 = VECTOR('',#654,1.);
#654 = DIRECTION('',(-0.,-0.,-1.));
#655 = CYLINDRICAL_SURFACE('',#656,2.15);
#656 = AXIS2_PLACEMENT_3D('',#657,#658,#659);
#657 = CARTESIAN_POINT('',(38.1,38.1,0.));
#658 = DIRECTION('',(-0.,-0.,-1.));
#659 = DIRECTION('',(1.,0.,0.));
#660 = ADVANCED_FACE('',(#661),#679,.T.);
#661 = FACE_BOUND('',#662,.T.);
#662 = EDGE_LOOP('',(#663,#664,#665,#673));
#663 = ORIENTED_EDGE('',*,*,#122,.F.);
#664 = ORIENTED_EDGE('',*,*,#650,.F.);
#665 = ORIENTED_EDGE('',*,*,#666,.F.);
#666 = EDGE_CURVE('',#667,#642,#669,.T.);
#667 = VERTEX_POINT('',#668);
#668 = CARTESIAN_POINT('',(40.2,36.,3.));
#669 = LINE('',#670,#671);
#670 = CARTESIAN_POINT('',(37.270501228814,38.929498771186,3.));
#671 = VECTOR('',#672,1.);
#672 = DIRECTION('',(-0.707106781187,0.707106781187,0.));
#673 = ORIENTED_EDGE('',*,*,#674,.F.);
#674 = EDGE_CURVE('',#115,#667,#675,.T.);
#675 = LINE('',#676,#677);
#676 = CARTESIAN_POINT('',(40.2,36.,0.));
#677 = VECTOR('',#678,1.);
#678 = DIRECTION('',(0.,0.,1.));
#679 = PLANE('',#680);
#680 = AXIS2_PLACEMENT_3D('',#681,#682,#683);
#681 = CARTESIAN_POINT('',(36.,40.2,0.));
#682 = DIRECTION('',(0.707106781187,0.707106781187,0.));
#683 = DIRECTION('',(0.707106781187,-0.707106781187,0.));
#684 = ADVANCED_FACE('',(#685),#703,.T.);
#685 = FACE_BOUND('',#686,.T.);
#686 = EDGE_LOOP('',(#687,#688,#689,#697));
#687 = ORIENTED_EDGE('',*,*,#114,.F.);
#688 = ORIENTED_EDGE('',*,*,#674,.T.);
#689 = ORIENTED_EDGE('',*,*,#690,.F.);
#690 = EDGE_CURVE('',#691,#667,#693,.T.);
#691 = VERTEX_POINT('',#692);
#692 = CARTESIAN_POINT('',(40.2,-36.,3.));
#693 = LINE('',#694,#695);
#694 = CARTESIAN_POINT('',(40.2,17.253878262324,3.));
#695 = VECTOR('',#696,1.);
#696 = DIRECTION('',(0.,1.,0.));
#697 = ORIENTED_EDGE('',*,*,#698,.F.);
#698 = EDGE_CURVE('',#107,#691,#699,.T.);
#699 = LINE('',#700,#701);
#700 = CARTESIAN_POINT('',(40.2,-36.,0.));
#701 = VECTOR('',#702,1.);
#702 = DIRECTION('',(0.,0.,1.));
#703 = PLANE('',#704);
#704 = AXIS2_PLACEMENT_3D('',#705,#706,#707);
#705 = CARTESIAN_POINT('',(40.2,36.,0.));
#706 = DIRECTION('',(1.,0.,0.));
#707 = DIRECTION('',(0.,-1.,0.));
#708 = ADVANCED_FACE('',(#709),#727,.F.);
#709 = FACE_BOUND('',#710,.F.);
#710 = EDGE_LOOP('',(#711,#712,#720,#726));
#711 = ORIENTED_EDGE('',*,*,#106,.F.);
#712 = ORIENTED_EDGE('',*,*,#713,.F.);
#713 = EDGE_CURVE('',#714,#98,#716,.T.);
#714 = VERTEX_POINT('',#715);
#715 = CARTESIAN_POINT('',(39.620279579551,-36.57972042044,3.));
#716 = LINE('',#717,#718);
#717 = CARTESIAN_POINT('',(39.620279579551,-36.57972042044,0.));
#718 = VECTOR('',#719,1.);
#719 = DIRECTION('',(-0.,-0.,-1.));
#720 = ORIENTED_EDGE('',*,*,#721,.F.);
#721 = EDGE_CURVE('',#691,#714,#722,.T.);
#722 = LINE('',#723,#724);
#723 = CARTESIAN_POINT('',(36.524379491138,-39.67562050886,3.));
#724 = VECTOR('',#725,1.);
#725 = DIRECTION('',(-0.707106781187,-0.707106781187,0.));
#726 = ORIENTED_EDGE('',*,*,#698,.F.);
#727 = PLANE('',#728);
#728 = AXIS2_PLACEMENT_3D('',#729,#730,#731);
#729 = CARTESIAN_POINT('',(36.,-40.2,0.));
#730 = DIRECTION('',(-0.707106781187,0.707106781187,0.));
#731 = DIRECTION('',(0.707106781187,0.707106781187,0.));
#732 = ADVANCED_FACE('',(#733),#752,.F.);
#733 = FACE_BOUND('',#734,.T.);
#734 = EDGE_LOOP('',(#735,#736,#737,#746));
#735 = ORIENTED_EDGE('',*,*,#97,.F.);
#736 = ORIENTED_EDGE('',*,*,#713,.F.);
#737 = ORIENTED_EDGE('',*,*,#738,.T.);
#738 = EDGE_CURVE('',#714,#739,#741,.T.);
#739 = VERTEX_POINT('',#740);
#740 = CARTESIAN_POINT('',(36.579720420449,-39.62027957955,3.));
#741 = CIRCLE('',#742,2.15);
#742 = AXIS2_PLACEMENT_3D('',#743,#744,#745);
#743 = CARTESIAN_POINT('',(38.1,-38.1,3.));
#744 = DIRECTION('',(0.,0.,1.));
#745 = DIRECTION('',(1.,0.,0.));
#746 = ORIENTED_EDGE('',*,*,#747,.T.);
#747 = EDGE_CURVE('',#739,#90,#748,.T.);
#748 = LINE('',#749,#750);
#749 = CARTESIAN_POINT('',(36.579720420449,-39.62027957955,0.));
#750 = VECTOR('',#751,1.);
#751 = DIRECTION('',(-0.,-0.,-1.));
#752 = CYLINDRICAL_SURFACE('',#753,2.15);
#753 = AXIS2_PLACEMENT_3D('',#754,#755,#756);
#754 = CARTESIAN_POINT('',(38.1,-38.1,0.));
#755 = DIRECTION('',(-0.,-0.,-1.));
#756 = DIRECTION('',(1.,0.,0.));
#757 = ADVANCED_FACE('',(#758),#776,.F.);
#758 = FACE_BOUND('',#759,.F.);
#759 = EDGE_LOOP('',(#760,#761,#769,#775));
#760 = ORIENTED_EDGE('',*,*,#89,.F.);
#761 = ORIENTED_EDGE('',*,*,#762,.T.);
#762 = EDGE_CURVE('',#82,#763,#765,.T.);
#763 = VERTEX_POINT('',#764);
#764 = CARTESIAN_POINT('',(36.,-40.2,3.));
#765 = LINE('',#766,#767);
#766 = CARTESIAN_POINT('',(36.,-40.2,0.));
#767 = VECTOR('',#768,1.);
#768 = DIRECTION('',(0.,0.,1.));
#769 = ORIENTED_EDGE('',*,*,#770,.F.);
#770 = EDGE_CURVE('',#739,#763,#771,.T.);
#771 = LINE('',#772,#773);
#772 = CARTESIAN_POINT('',(36.524379491138,-39.67562050886,3.));
#773 = VECTOR('',#774,1.);
#774 = DIRECTION('',(-0.707106781187,-0.707106781187,0.));
#775 = ORIENTED_EDGE('',*,*,#747,.T.);
#776 = PLANE('',#777);
#777 = AXIS2_PLACEMENT_3D('',#778,#779,#780);
#778 = CARTESIAN_POINT('',(36.,-40.2,0.));
#779 = DIRECTION('',(-0.707106781187,0.707106781187,0.));
#780 = DIRECTION('',(0.707106781187,0.707106781187,0.));
#781 = ADVANCED_FACE('',(#782),#800,.T.);
#782 = FACE_BOUND('',#783,.T.);
#783 = EDGE_LOOP('',(#784,#785,#786,#794));
#784 = ORIENTED_EDGE('',*,*,#81,.F.);
#785 = ORIENTED_EDGE('',*,*,#762,.T.);
#786 = ORIENTED_EDGE('',*,*,#787,.F.);
#787 = EDGE_CURVE('',#788,#763,#790,.T.);
#788 = VERTEX_POINT('',#789);
#789 = CARTESIAN_POINT('',(20.5,-40.2,3.));
#790 = LINE('',#791,#792);
#791 = CARTESIAN_POINT('',(17.694880719952,-40.2,3.));
#792 = VECTOR('',#793,1.);
#793 = DIRECTION('',(1.,0.,0.));
#794 = ORIENTED_EDGE('',*,*,#795,.F.);
#795 = EDGE_CURVE('',#74,#788,#796,.T.);
#796 = LINE('',#797,#798);
#797 = CARTESIAN_POINT('',(20.5,-40.2,0.));
#798 = VECTOR('',#799,1.);
#799 = DIRECTION('',(0.,0.,1.));
#800 = PLANE('',#801);
#801 = AXIS2_PLACEMENT_3D('',#802,#803,#804);
#802 = CARTESIAN_POINT('',(36.,-40.2,0.));
#803 = DIRECTION('',(0.,-1.,0.));
#804 = DIRECTION('',(-1.,0.,0.));
#805 = ADVANCED_FACE('',(#806),#824,.T.);
#806 = FACE_BOUND('',#807,.T.);
#807 = EDGE_LOOP('',(#808,#809,#810,#818));
#808 = ORIENTED_EDGE('',*,*,#73,.F.);
#809 = ORIENTED_EDGE('',*,*,#795,.T.);
#810 = ORIENTED_EDGE('',*,*,#811,.T.);
#811 = EDGE_CURVE('',#788,#812,#814,.T.);
#812 = VERTEX_POINT('',#813);
#813 = CARTESIAN_POINT('',(20.5,-30.5,3.));
#814 = LINE('',#815,#816);
#815 = CARTESIAN_POINT('',(20.5,-40.5,3.));
#816 = VECTOR('',#817,1.);
#817 = DIRECTION('',(0.,1.,0.));
#818 = ORIENTED_EDGE('',*,*,#819,.F.);
#819 = EDGE_CURVE('',#66,#812,#820,.T.);
#820 = LINE('',#821,#822);
#821 = CARTESIAN_POINT('',(20.5,-30.5,0.));
#822 = VECTOR('',#823,1.);
#823 = DIRECTION('',(0.,0.,1.));
#824 = PLANE('',#825);
#825 = AXIS2_PLACEMENT_3D('',#826,#827,#828);
#826 = CARTESIAN_POINT('',(20.5,-40.5,0.));
#827 = DIRECTION('',(-1.,0.,0.));
#828 = DIRECTION('',(0.,1.,0.));
#829 = ADVANCED_FACE('',(#830),#848,.T.);
#830 = FACE_BOUND('',#831,.T.);
#831 = EDGE_LOOP('',(#832,#833,#841,#847));
#832 = ORIENTED_EDGE('',*,*,#819,.T.);
#833 = ORIENTED_EDGE('',*,*,#834,.T.);
#834 = EDGE_CURVE('',#812,#835,#837,.T.);
#835 = VERTEX_POINT('',#836);
#836 = CARTESIAN_POINT('',(-20.5,-30.5,3.));
#837 = LINE('',#838,#839);
#838 = CARTESIAN_POINT('',(20.5,-30.5,3.));
#839 = VECTOR('',#840,1.);
#840 = DIRECTION('',(-1.,0.,0.));
#841 = ORIENTED_EDGE('',*,*,#842,.F.);
#842 = EDGE_CURVE('',#58,#835,#843,.T.);
#843 = LINE('',#844,#845);
#844 = CARTESIAN_POINT('',(-20.5,-30.5,0.));
#845 = VECTOR('',#846,1.);
#846 = DIRECTION('',(0.,0.,1.));
#847 = ORIENTED_EDGE('',*,*,#65,.F.);
#848 = PLANE('',#849);
#849 = AXIS2_PLACEMENT_3D('',#850,#851,#852);
#850 = CARTESIAN_POINT('',(20.5,-30.5,0.));
#851 = DIRECTION('',(0.,-1.,0.));
#852 = DIRECTION('',(-1.,0.,0.));
#853 = ADVANCED_FACE('',(#854),#872,.T.);
#854 = FACE_BOUND('',#855,.T.);
#855 = EDGE_LOOP('',(#856,#857,#858,#866));
#856 = ORIENTED_EDGE('',*,*,#57,.F.);
#857 = ORIENTED_EDGE('',*,*,#842,.T.);
#858 = ORIENTED_EDGE('',*,*,#859,.T.);
#859 = EDGE_CURVE('',#835,#860,#862,.T.);
#860 = VERTEX_POINT('',#861);
#861 = CARTESIAN_POINT('',(-20.5,-40.2,3.));
#862 = LINE('',#863,#864);
#863 = CARTESIAN_POINT('',(-20.5,-30.5,3.));
#864 = VECTOR('',#865,1.);
#865 = DIRECTION('',(0.,-1.,0.));
#866 = ORIENTED_EDGE('',*,*,#867,.T.);
#867 = EDGE_CURVE('',#860,#50,#868,.T.);
#868 = LINE('',#869,#870);
#869 = CARTESIAN_POINT('',(-20.5,-40.2,0.));
#870 = VECTOR('',#871,1.);
#871 = DIRECTION('',(0.,0.,-1.));
#872 = PLANE('',#873);
#873 = AXIS2_PLACEMENT_3D('',#874,#875,#876);
#874 = CARTESIAN_POINT('',(-20.5,-30.5,0.));
#875 = DIRECTION('',(1.,0.,0.));
#876 = DIRECTION('',(0.,-1.,0.));
#877 = ADVANCED_FACE('',(#878),#896,.T.);
#878 = FACE_BOUND('',#879,.T.);
#879 = EDGE_LOOP('',(#880,#881,#882,#890));
#880 = ORIENTED_EDGE('',*,*,#49,.F.);
#881 = ORIENTED_EDGE('',*,*,#867,.F.);
#882 = ORIENTED_EDGE('',*,*,#883,.F.);
#883 = EDGE_CURVE('',#884,#860,#886,.T.);
#884 = VERTEX_POINT('',#885);
#885 = CARTESIAN_POINT('',(-36.,-40.2,3.));
#886 = LINE('',#887,#888);
#887 = CARTESIAN_POINT('',(17.694880719952,-40.2,3.));
#888 = VECTOR('',#889,1.);
#889 = DIRECTION('',(1.,0.,0.));
#890 = ORIENTED_EDGE('',*,*,#891,.F.);
#891 = EDGE_CURVE('',#42,#884,#892,.T.);
#892 = LINE('',#893,#894);
#893 = CARTESIAN_POINT('',(-36.,-40.2,0.));
#894 = VECTOR('',#895,1.);
#895 = DIRECTION('',(0.,0.,1.));
#896 = PLANE('',#897);
#897 = AXIS2_PLACEMENT_3D('',#898,#899,#900);
#898 = CARTESIAN_POINT('',(36.,-40.2,0.));
#899 = DIRECTION('',(0.,-1.,0.));
#900 = DIRECTION('',(-1.,0.,0.));
#901 = ADVANCED_FACE('',(#902),#920,.F.);
#902 = FACE_BOUND('',#903,.F.);
#903 = EDGE_LOOP('',(#904,#905,#913,#919));
#904 = ORIENTED_EDGE('',*,*,#41,.F.);
#905 = ORIENTED_EDGE('',*,*,#906,.F.);
#906 = EDGE_CURVE('',#907,#33,#909,.T.);
#907 = VERTEX_POINT('',#908);
#908 = CARTESIAN_POINT('',(-36.57972042044,-39.62027957955,3.));
#909 = LINE('',#910,#911);
#910 = CARTESIAN_POINT('',(-36.57972042044,-39.62027957955,0.));
#911 = VECTOR('',#912,1.);
#912 = DIRECTION('',(-0.,-0.,-1.));
#913 = ORIENTED_EDGE('',*,*,#914,.F.);
#914 = EDGE_CURVE('',#884,#907,#915,.T.);
#915 = LINE('',#916,#917);
#916 = CARTESIAN_POINT('',(-38.92949877118,-37.27050122881,3.));
#917 = VECTOR('',#918,1.);
#918 = DIRECTION('',(-0.707106781187,0.707106781187,0.));
#919 = ORIENTED_EDGE('',*,*,#891,.F.);
#920 = PLANE('',#921);
#921 = AXIS2_PLACEMENT_3D('',#922,#923,#924);
#922 = CARTESIAN_POINT('',(-40.2,-36.,0.));
#923 = DIRECTION('',(0.707106781187,0.707106781187,0.));
#924 = DIRECTION('',(0.707106781187,-0.707106781187,0.));
#925 = ADVANCED_FACE('',(#926),#938,.F.);
#926 = FACE_BOUND('',#927,.T.);
#927 = EDGE_LOOP('',(#928,#929,#930,#931));
#928 = ORIENTED_EDGE('',*,*,#414,.F.);
#929 = ORIENTED_EDGE('',*,*,#32,.F.);
#930 = ORIENTED_EDGE('',*,*,#906,.F.);
#931 = ORIENTED_EDGE('',*,*,#932,.T.);
#932 = EDGE_CURVE('',#907,#415,#933,.T.);
#933 = CIRCLE('',#934,2.15);
#934 = AXIS2_PLACEMENT_3D('',#935,#936,#937);
#935 = CARTESIAN_POINT('',(-38.1,-38.1,3.));
#936 = DIRECTION('',(0.,0.,1.));
#937 = DIRECTION('',(1.,0.,0.));
#938 = CYLINDRICAL_SURFACE('',#939,2.15);
#939 = AXIS2_PLACEMENT_3D('',#940,#941,#942);
#940 = CARTESIAN_POINT('',(-38.1,-38.1,0.));
#941 = DIRECTION('',(-0.,-0.,-1.));
#942 = DIRECTION('',(1.,0.,0.));
#943 = ADVANCED_FACE('',(#944),#963,.F.);
#944 = FACE_BOUND('',#945,.T.);
#945 = EDGE_LOOP('',(#946,#954,#955,#956));
#946 = ORIENTED_EDGE('',*,*,#947,.F.);
#947 = EDGE_CURVE('',#206,#948,#950,.T.);
#948 = VERTEX_POINT('',#949);
#949 = CARTESIAN_POINT('',(-32.25914498161,-30.75914498161,1.55));
#950 = LINE('',#951,#952);
#951 = CARTESIAN_POINT('',(-33.80914498161,-30.75914498161,0.));
#952 = VECTOR('',#953,1.);
#953 = DIRECTION('',(0.707106781187,0.,0.707106781187));
#954 = ORIENTED_EDGE('',*,*,#205,.T.);
#955 = ORIENTED_EDGE('',*,*,#947,.T.);
#956 = ORIENTED_EDGE('',*,*,#957,.F.);
#957 = EDGE_CURVE('',#948,#948,#958,.T.);
#958 = CIRCLE('',#959,1.5);
#959 = AXIS2_PLACEMENT_3D('',#960,#961,#962);
#960 = CARTESIAN_POINT('',(-30.75914498161,-30.75914498161,1.55));
#961 = DIRECTION('',(0.,0.,-1.));
#962 = DIRECTION('',(-1.,0.,0.));
#963 = CONICAL_SURFACE('',#964,3.05,0.785398163397);
#964 = AXIS2_PLACEMENT_3D('',#965,#966,#967);
#965 = CARTESIAN_POINT('',(-30.75914498161,-30.75914498161,0.));
#966 = DIRECTION('',(-0.,-0.,-1.));
#967 = DIRECTION('',(-1.,0.,0.));
#968 = ADVANCED_FACE('',(#969),#994,.T.);
#969 = FACE_BOUND('',#970,.T.);
#970 = EDGE_LOOP('',(#971,#979,#987,#993));
#971 = ORIENTED_EDGE('',*,*,#972,.T.);
#972 = EDGE_CURVE('',#217,#973,#975,.T.);
#973 = VERTEX_POINT('',#974);
#974 = CARTESIAN_POINT('',(-30.,21.499999999998,3.));
#975 = LINE('',#976,#977);
#976 = CARTESIAN_POINT('',(-30.,21.499999999998,0.));
#977 = VECTOR('',#978,1.);
#978 = DIRECTION('',(0.,0.,1.));
#979 = ORIENTED_EDGE('',*,*,#980,.T.);
#980 = EDGE_CURVE('',#973,#981,#983,.T.);
#981 = VERTEX_POINT('',#982);
#982 = CARTESIAN_POINT('',(-30.,-23.5,3.));
#983 = LINE('',#984,#985);
#984 = CARTESIAN_POINT('',(-30.,21.499999999998,3.));
#985 = VECTOR('',#986,1.);
#986 = DIRECTION('',(0.,-1.,0.));
#987 = ORIENTED_EDGE('',*,*,#988,.F.);
#988 = EDGE_CURVE('',#219,#981,#989,.T.);
#989 = LINE('',#990,#991);
#990 = CARTESIAN_POINT('',(-30.,-23.5,0.));
#991 = VECTOR('',#992,1.);
#992 = DIRECTION('',(0.,0.,1.));
#993 = ORIENTED_EDGE('',*,*,#216,.F.);
#994 = PLANE('',#995);
#995 = AXIS2_PLACEMENT_3D('',#996,#997,#998);
#996 = CARTESIAN_POINT('',(-30.,21.499999999998,0.));
#997 = DIRECTION('',(1.,0.,0.));
#998 = DIRECTION('',(0.,-1.,0.));
#999 = ADVANCED_FACE('',(#1000),#1018,.T.);
#1000 = FACE_BOUND('',#1001,.T.);
#1001 = EDGE_LOOP('',(#1002,#1010,#1016,#1017));
#1002 = ORIENTED_EDGE('',*,*,#1003,.T.);
#1003 = EDGE_CURVE('',#227,#1004,#1006,.T.);
#1004 = VERTEX_POINT('',#1005);
#1005 = CARTESIAN_POINT('',(-22.,21.499999999998,3.));
#1006 = LINE('',#1007,#1008);
#1007 = CARTESIAN_POINT('',(-22.,21.499999999998,0.));
#1008 = VECTOR('',#1009,1.);
#1009 = DIRECTION('',(0.,0.,1.));
#1010 = ORIENTED_EDGE('',*,*,#1011,.T.);
#1011 = EDGE_CURVE('',#1004,#973,#1012,.T.);
#1012 = LINE('',#1013,#1014);
#1013 = CARTESIAN_POINT('',(-22.,21.499999999998,3.));
#1014 = VECTOR('',#1015,1.);
#1015 = DIRECTION('',(-1.,0.,0.));
#1016 = ORIENTED_EDGE('',*,*,#972,.F.);
#1017 = ORIENTED_EDGE('',*,*,#226,.F.);
#1018 = PLANE('',#1019);
#1019 = AXIS2_PLACEMENT_3D('',#1020,#1021,#1022);
#1020 = CARTESIAN_POINT('',(-22.,21.499999999998,0.));
#1021 = DIRECTION('',(0.,-1.,0.));
#1022 = DIRECTION('',(-1.,0.,0.));
#1023 = ADVANCED_FACE('',(#1024),#1042,.T.);
#1024 = FACE_BOUND('',#1025,.T.);
#1025 = EDGE_LOOP('',(#1026,#1027,#1035,#1041));
#1026 = ORIENTED_EDGE('',*,*,#988,.T.);
#1027 = ORIENTED_EDGE('',*,*,#1028,.T.);
#1028 = EDGE_CURVE('',#981,#1029,#1031,.T.);
#1029 = VERTEX_POINT('',#1030);
#1030 = CARTESIAN_POINT('',(-22.,-23.5,3.));
#1031 = LINE('',#1032,#1033);
#1032 = CARTESIAN_POINT('',(-30.,-23.5,3.));
#1033 = VECTOR('',#1034,1.);
#1034 = DIRECTION('',(1.,0.,0.));
#1035 = ORIENTED_EDGE('',*,*,#1036,.F.);
#1036 = EDGE_CURVE('',#235,#1029,#1037,.T.);
#1037 = LINE('',#1038,#1039);
#1038 = CARTESIAN_POINT('',(-22.,-23.5,0.));
#1039 = VECTOR('',#1040,1.);
#1040 = DIRECTION('',(0.,0.,1.));
#1041 = ORIENTED_EDGE('',*,*,#242,.F.);
#1042 = PLANE('',#1043);
#1043 = AXIS2_PLACEMENT_3D('',#1044,#1045,#1046);
#1044 = CARTESIAN_POINT('',(-30.,-23.5,0.));
#1045 = DIRECTION('',(0.,1.,0.));
#1046 = DIRECTION('',(1.,0.,0.));
#1047 = ADVANCED_FACE('',(#1048),#1059,.T.);
#1048 = FACE_BOUND('',#1049,.T.);
#1049 = EDGE_LOOP('',(#1050,#1051,#1057,#1058));
#1050 = ORIENTED_EDGE('',*,*,#1036,.T.);
#1051 = ORIENTED_EDGE('',*,*,#1052,.T.);
#1052 = EDGE_CURVE('',#1029,#1004,#1053,.T.);
#1053 = LINE('',#1054,#1055);
#1054 = CARTESIAN_POINT('',(-22.,-23.5,3.));
#1055 = VECTOR('',#1056,1.);
#1056 = DIRECTION('',(0.,1.,0.));
#1057 = ORIENTED_EDGE('',*,*,#1003,.F.);
#1058 = ORIENTED_EDGE('',*,*,#234,.F.);
#1059 = PLANE('',#1060);
#1060 = AXIS2_PLACEMENT_3D('',#1061,#1062,#1063);
#1061 = CARTESIAN_POINT('',(-22.,-23.5,0.));
#1062 = DIRECTION('',(-1.,0.,0.));
#1063 = DIRECTION('',(0.,1.,0.));
#1064 = ADVANCED_FACE('',(#1065),#1084,.F.);
#1065 = FACE_BOUND('',#1066,.T.);
#1066 = EDGE_LOOP('',(#1067,#1075,#1082,#1083));
#1067 = ORIENTED_EDGE('',*,*,#1068,.F.);
#1068 = EDGE_CURVE('',#1069,#251,#1071,.T.);
#1069 = VERTEX_POINT('',#1070);
#1070 = CARTESIAN_POINT('',(-15.25,-10.5,1.));
#1071 = LINE('',#1072,#1073);
#1072 = CARTESIAN_POINT('',(-15.25,-10.5,1.));
#1073 = VECTOR('',#1074,1.);
#1074 = DIRECTION('',(-7.E-17,0.,-1.));
#1075 = ORIENTED_EDGE('',*,*,#1076,.T.);
#1076 = EDGE_CURVE('',#1069,#1069,#1077,.T.);
#1077 = CIRCLE('',#1078,1.75);
#1078 = AXIS2_PLACEMENT_3D('',#1079,#1080,#1081);
#1079 = CARTESIAN_POINT('',(-17.,-10.5,1.));
#1080 = DIRECTION('',(0.,0.,1.));
#1081 = DIRECTION('',(1.,0.,0.));
#1082 = ORIENTED_EDGE('',*,*,#1068,.T.);
#1083 = ORIENTED_EDGE('',*,*,#250,.T.);
#1084 = CYLINDRICAL_SURFACE('',#1085,1.75);
#1085 = AXIS2_PLACEMENT_3D('',#1086,#1087,#1088);
#1086 = CARTESIAN_POINT('',(-17.,-10.5,1.));
#1087 = DIRECTION('',(-0.,-0.,-1.));
#1088 = DIRECTION('',(1.,0.,0.));
#1089 = ADVANCED_FACE('',(#1090),#1109,.F.);
#1090 = FACE_BOUND('',#1091,.T.);
#1091 = EDGE_LOOP('',(#1092,#1100,#1101,#1102));
#1092 = ORIENTED_EDGE('',*,*,#1093,.F.);
#1093 = EDGE_CURVE('',#262,#1094,#1096,.T.);
#1094 = VERTEX_POINT('',#1095);
#1095 = CARTESIAN_POINT('',(29.259144981616,-30.75914498161,1.55));
#1096 = LINE('',#1097,#1098);
#1097 = CARTESIAN_POINT('',(27.709144981616,-30.75914498161,0.));
#1098 = VECTOR('',#1099,1.);
#1099 = DIRECTION('',(0.707106781187,0.,0.707106781187));
#1100 = ORIENTED_EDGE('',*,*,#261,.T.);
#1101 = ORIENTED_EDGE('',*,*,#1093,.T.);
#1102 = ORIENTED_EDGE('',*,*,#1103,.F.);
#1103 = EDGE_CURVE('',#1094,#1094,#1104,.T.);
#1104 = CIRCLE('',#1105,1.5);
#1105 = AXIS2_PLACEMENT_3D('',#1106,#1107,#1108);
#1106 = CARTESIAN_POINT('',(30.759144981616,-30.75914498161,1.55));
#1107 = DIRECTION('',(0.,0.,-1.));
#1108 = DIRECTION('',(-1.,0.,0.));
#1109 = CONICAL_SURFACE('',#1110,3.05,0.785398163397);
#1110 = AXIS2_PLACEMENT_3D('',#1111,#1112,#1113);
#1111 = CARTESIAN_POINT('',(30.759144981616,-30.75914498161,0.));
#1112 = DIRECTION('',(-0.,-0.,-1.));
#1113 = DIRECTION('',(-1.,0.,0.));
#1114 = ADVANCED_FACE('',(#1115),#1134,.F.);
#1115 = FACE_BOUND('',#1116,.T.);
#1116 = EDGE_LOOP('',(#1117,#1125,#1132,#1133));
#1117 = ORIENTED_EDGE('',*,*,#1118,.F.);
#1118 = EDGE_CURVE('',#1119,#273,#1121,.T.);
#1119 = VERTEX_POINT('',#1120);
#1120 = CARTESIAN_POINT('',(18.75,-10.5,1.));
#1121 = LINE('',#1122,#1123);
#1122 = CARTESIAN_POINT('',(18.75,-10.5,1.));
#1123 = VECTOR('',#1124,1.);
#1124 = DIRECTION('',(-7.E-17,0.,-1.));
#1125 = ORIENTED_EDGE('',*,*,#1126,.T.);
#1126 = EDGE_CURVE('',#1119,#1119,#1127,.T.);
#1127 = CIRCLE('',#1128,1.75);
#1128 = AXIS2_PLACEMENT_3D('',#1129,#1130,#1131);
#1129 = CARTESIAN_POINT('',(17.,-10.5,1.));
#1130 = DIRECTION('',(0.,0.,1.));
#1131 = DIRECTION('',(1.,0.,0.));
#1132 = ORIENTED_EDGE('',*,*,#1118,.T.);
#1133 = ORIENTED_EDGE('',*,*,#272,.T.);
#1134 = CYLINDRICAL_SURFACE('',#1135,1.75);
#1135 = AXIS2_PLACEMENT_3D('',#1136,#1137,#1138);
#1136 = CARTESIAN_POINT('',(17.,-10.5,1.));
#1137 = DIRECTION('',(-0.,-0.,-1.));
#1138 = DIRECTION('',(1.,0.,0.));
#1139 = ADVANCED_FACE('',(#1140),#1165,.T.);
#1140 = FACE_BOUND('',#1141,.T.);
#1141 = EDGE_LOOP('',(#1142,#1150,#1158,#1164));
#1142 = ORIENTED_EDGE('',*,*,#1143,.T.);
#1143 = EDGE_CURVE('',#284,#1144,#1146,.T.);
#1144 = VERTEX_POINT('',#1145);
#1145 = CARTESIAN_POINT('',(22.,21.5,3.));
#1146 = LINE('',#1147,#1148);
#1147 = CARTESIAN_POINT('',(22.,21.5,0.));
#1148 = VECTOR('',#1149,1.);
#1149 = DIRECTION('',(0.,0.,1.));
#1150 = ORIENTED_EDGE('',*,*,#1151,.T.);
#1151 = EDGE_CURVE('',#1144,#1152,#1154,.T.);
#1152 = VERTEX_POINT('',#1153);
#1153 = CARTESIAN_POINT('',(22.,-23.5,3.));
#1154 = LINE('',#1155,#1156);
#1155 = CARTESIAN_POINT('',(22.,21.5,3.));
#1156 = VECTOR('',#1157,1.);
#1157 = DIRECTION('',(0.,-1.,0.));
#1158 = ORIENTED_EDGE('',*,*,#1159,.F.);
#1159 = EDGE_CURVE('',#286,#1152,#1160,.T.);
#1160 = LINE('',#1161,#1162);
#1161 = CARTESIAN_POINT('',(22.,-23.5,0.));
#1162 = VECTOR('',#1163,1.);
#1163 = DIRECTION('',(0.,0.,1.));
#1164 = ORIENTED_EDGE('',*,*,#283,.F.);
#1165 = PLANE('',#1166);
#1166 = AXIS2_PLACEMENT_3D('',#1167,#1168,#1169);
#1167 = CARTESIAN_POINT('',(22.,21.5,0.));
#1168 = DIRECTION('',(1.,0.,0.));
#1169 = DIRECTION('',(0.,-1.,0.));
#1170 = ADVANCED_FACE('',(#1171),#1189,.T.);
#1171 = FACE_BOUND('',#1172,.T.);
#1172 = EDGE_LOOP('',(#1173,#1181,#1187,#1188));
#1173 = ORIENTED_EDGE('',*,*,#1174,.T.);
#1174 = EDGE_CURVE('',#294,#1175,#1177,.T.);
#1175 = VERTEX_POINT('',#1176);
#1176 = CARTESIAN_POINT('',(30.,21.5,3.));
#1177 = LINE('',#1178,#1179);
#1178 = CARTESIAN_POINT('',(30.,21.5,0.));
#1179 = VECTOR('',#1180,1.);
#1180 = DIRECTION('',(0.,0.,1.));
#1181 = ORIENTED_EDGE('',*,*,#1182,.T.);
#1182 = EDGE_CURVE('',#1175,#1144,#1183,.T.);
#1183 = LINE('',#1184,#1185);
#1184 = CARTESIAN_POINT('',(30.,21.5,3.));
#1185 = VECTOR('',#1186,1.);
#1186 = DIRECTION('',(-1.,0.,0.));
#1187 = ORIENTED_EDGE('',*,*,#1143,.F.);
#1188 = ORIENTED_EDGE('',*,*,#293,.F.);
#1189 = PLANE('',#1190);
#1190 = AXIS2_PLACEMENT_3D('',#1191,#1192,#1193);
#1191 = CARTESIAN_POINT('',(30.,21.5,0.));
#1192 = DIRECTION('',(0.,-1.,0.));
#1193 = DIRECTION('',(-1.,0.,0.));
#1194 = ADVANCED_FACE('',(#1195),#1213,.T.);
#1195 = FACE_BOUND('',#1196,.T.);
#1196 = EDGE_LOOP('',(#1197,#1198,#1206,#1212));
#1197 = ORIENTED_EDGE('',*,*,#1159,.T.);
#1198 = ORIENTED_EDGE('',*,*,#1199,.T.);
#1199 = EDGE_CURVE('',#1152,#1200,#1202,.T.);
#1200 = VERTEX_POINT('',#1201);
#1201 = CARTESIAN_POINT('',(30.,-23.5,3.));
#1202 = LINE('',#1203,#1204);
#1203 = CARTESIAN_POINT('',(22.,-23.5,3.));
#1204 = VECTOR('',#1205,1.);
#1205 = DIRECTION('',(1.,0.,0.));
#1206 = ORIENTED_EDGE('',*,*,#1207,.F.);
#1207 = EDGE_CURVE('',#302,#1200,#1208,.T.);
#1208 = LINE('',#1209,#1210);
#1209 = CARTESIAN_POINT('',(30.,-23.5,0.));
#1210 = VECTOR('',#1211,1.);
#1211 = DIRECTION('',(0.,0.,1.));
#1212 = ORIENTED_EDGE('',*,*,#309,.F.);
#1213 = PLANE('',#1214);
#1214 = AXIS2_PLACEMENT_3D('',#1215,#1216,#1217);
#1215 = CARTESIAN_POINT('',(22.,-23.5,0.));
#1216 = DIRECTION('',(0.,1.,0.));
#1217 = DIRECTION('',(1.,0.,0.));
#1218 = ADVANCED_FACE('',(#1219),#1230,.T.);
#1219 = FACE_BOUND('',#1220,.T.);
#1220 = EDGE_LOOP('',(#1221,#1222,#1228,#1229));
#1221 = ORIENTED_EDGE('',*,*,#1207,.T.);
#1222 = ORIENTED_EDGE('',*,*,#1223,.T.);
#1223 = EDGE_CURVE('',#1200,#1175,#1224,.T.);
#1224 = LINE('',#1225,#1226);
#1225 = CARTESIAN_POINT('',(30.,-23.5,3.));
#1226 = VECTOR('',#1227,1.);
#1227 = DIRECTION('',(0.,1.,0.));
#1228 = ORIENTED_EDGE('',*,*,#1174,.F.);
#1229 = ORIENTED_EDGE('',*,*,#301,.F.);
#1230 = PLANE('',#1231);
#1231 = AXIS2_PLACEMENT_3D('',#1232,#1233,#1234);
#1232 = CARTESIAN_POINT('',(30.,-23.5,0.));
#1233 = DIRECTION('',(-1.,0.,0.));
#1234 = DIRECTION('',(0.,1.,0.));
#1235 = ADVANCED_FACE('',(#1236),#1261,.T.);
#1236 = FACE_BOUND('',#1237,.T.);
#1237 = EDGE_LOOP('',(#1238,#1246,#1254,#1260));
#1238 = ORIENTED_EDGE('',*,*,#1239,.T.);
#1239 = EDGE_CURVE('',#318,#1240,#1242,.T.);
#1240 = VERTEX_POINT('',#1241);
#1241 = CARTESIAN_POINT('',(-12.,36.499999999999,3.));
#1242 = LINE('',#1243,#1244);
#1243 = CARTESIAN_POINT('',(-12.,36.499999999999,0.));
#1244 = VECTOR('',#1245,1.);
#1245 = DIRECTION('',(0.,0.,1.));
#1246 = ORIENTED_EDGE('',*,*,#1247,.T.);
#1247 = EDGE_CURVE('',#1240,#1248,#1250,.T.);
#1248 = VERTEX_POINT('',#1249);
#1249 = CARTESIAN_POINT('',(-12.,-23.5,3.));
#1250 = LINE('',#1251,#1252);
#1251 = CARTESIAN_POINT('',(-12.,36.499999999999,3.));
#1252 = VECTOR('',#1253,1.);
#1253 = DIRECTION('',(0.,-1.,0.));
#1254 = ORIENTED_EDGE('',*,*,#1255,.F.);
#1255 = EDGE_CURVE('',#320,#1248,#1256,.T.);
#1256 = LINE('',#1257,#1258);
#1257 = CARTESIAN_POINT('',(-12.,-23.5,0.));
#1258 = VECTOR('',#1259,1.);
#1259 = DIRECTION('',(0.,0.,1.));
#1260 = ORIENTED_EDGE('',*,*,#317,.F.);
#1261 = PLANE('',#1262);
#1262 = AXIS2_PLACEMENT_3D('',#1263,#1264,#1265);
#1263 = CARTESIAN_POINT('',(-12.,36.499999999999,0.));
#1264 = DIRECTION('',(1.,0.,0.));
#1265 = DIRECTION('',(0.,-1.,0.));
#1266 = ADVANCED_FACE('',(#1267),#1285,.T.);
#1267 = FACE_BOUND('',#1268,.T.);
#1268 = EDGE_LOOP('',(#1269,#1277,#1283,#1284));
#1269 = ORIENTED_EDGE('',*,*,#1270,.T.);
#1270 = EDGE_CURVE('',#328,#1271,#1273,.T.);
#1271 = VERTEX_POINT('',#1272);
#1272 = CARTESIAN_POINT('',(-4.,36.499999999999,3.));
#1273 = LINE('',#1274,#1275);
#1274 = CARTESIAN_POINT('',(-4.,36.499999999999,0.));
#1275 = VECTOR('',#1276,1.);
#1276 = DIRECTION('',(0.,0.,1.));
#1277 = ORIENTED_EDGE('',*,*,#1278,.T.);
#1278 = EDGE_CURVE('',#1271,#1240,#1279,.T.);
#1279 = LINE('',#1280,#1281);
#1280 = CARTESIAN_POINT('',(-4.,36.499999999999,3.));
#1281 = VECTOR('',#1282,1.);
#1282 = DIRECTION('',(-1.,0.,0.));
#1283 = ORIENTED_EDGE('',*,*,#1239,.F.);
#1284 = ORIENTED_EDGE('',*,*,#327,.F.);
#1285 = PLANE('',#1286);
#1286 = AXIS2_PLACEMENT_3D('',#1287,#1288,#1289);
#1287 = CARTESIAN_POINT('',(-4.,36.499999999999,0.));
#1288 = DIRECTION('',(0.,-1.,0.));
#1289 = DIRECTION('',(-1.,0.,0.));
#1290 = ADVANCED_FACE('',(#1291),#1309,.T.);
#1291 = FACE_BOUND('',#1292,.T.);
#1292 = EDGE_LOOP('',(#1293,#1294,#1302,#1308));
#1293 = ORIENTED_EDGE('',*,*,#1255,.T.);
#1294 = ORIENTED_EDGE('',*,*,#1295,.T.);
#1295 = EDGE_CURVE('',#1248,#1296,#1298,.T.);
#1296 = VERTEX_POINT('',#1297);
#1297 = CARTESIAN_POINT('',(-4.,-23.5,3.));
#1298 = LINE('',#1299,#1300);
#1299 = CARTESIAN_POINT('',(-12.,-23.5,3.));
#1300 = VECTOR('',#1301,1.);
#1301 = DIRECTION('',(1.,0.,0.));
#1302 = ORIENTED_EDGE('',*,*,#1303,.F.);
#1303 = EDGE_CURVE('',#336,#1296,#1304,.T.);
#1304 = LINE('',#1305,#1306);
#1305 = CARTESIAN_POINT('',(-4.,-23.5,0.));
#1306 = VECTOR('',#1307,1.);
#1307 = DIRECTION('',(0.,0.,1.));
#1308 = ORIENTED_EDGE('',*,*,#343,.F.);
#1309 = PLANE('',#1310);
#1310 = AXIS2_PLACEMENT_3D('',#1311,#1312,#1313);
#1311 = CARTESIAN_POINT('',(-12.,-23.5,0.));
#1312 = DIRECTION('',(0.,1.,0.));
#1313 = DIRECTION('',(1.,0.,0.));
#1314 = ADVANCED_FACE('',(#1315),#1326,.T.);
#1315 = FACE_BOUND('',#1316,.T.);
#1316 = EDGE_LOOP('',(#1317,#1318,#1324,#1325));
#1317 = ORIENTED_EDGE('',*,*,#1303,.T.);
#1318 = ORIENTED_EDGE('',*,*,#1319,.T.);
#1319 = EDGE_CURVE('',#1296,#1271,#1320,.T.);
#1320 = LINE('',#1321,#1322);
#1321 = CARTESIAN_POINT('',(-4.,-23.5,3.));
#1322 = VECTOR('',#1323,1.);
#1323 = DIRECTION('',(0.,1.,0.));
#1324 = ORIENTED_EDGE('',*,*,#1270,.F.);
#1325 = ORIENTED_EDGE('',*,*,#335,.F.);
#1326 = PLANE('',#1327);
#1327 = AXIS2_PLACEMENT_3D('',#1328,#1329,#1330);
#1328 = CARTESIAN_POINT('',(-4.,-23.5,0.));
#1329 = DIRECTION('',(-1.,0.,0.));
#1330 = DIRECTION('',(0.,1.,0.));
#1331 = ADVANCED_FACE('',(#1332),#1351,.F.);
#1332 = FACE_BOUND('',#1333,.T.);
#1333 = EDGE_LOOP('',(#1334,#1342,#1349,#1350));
#1334 = ORIENTED_EDGE('',*,*,#1335,.T.);
#1335 = EDGE_CURVE('',#352,#1336,#1338,.T.);
#1336 = VERTEX_POINT('',#1337);
#1337 = CARTESIAN_POINT('',(-27.00914498161,30.759144981616,3.));
#1338 = LINE('',#1339,#1340);
#1339 = CARTESIAN_POINT('',(-27.00914498161,30.759144981616,0.));
#1340 = VECTOR('',#1341,1.);
#1341 = DIRECTION('',(0.,0.,1.));
#1342 = ORIENTED_EDGE('',*,*,#1343,.T.);
#1343 = EDGE_CURVE('',#1336,#1336,#1344,.T.);
#1344 = CIRCLE('',#1345,3.75);
#1345 = AXIS2_PLACEMENT_3D('',#1346,#1347,#1348);
#1346 = CARTESIAN_POINT('',(-30.75914498161,30.759144981616,3.));
#1347 = DIRECTION('',(0.,0.,1.));
#1348 = DIRECTION('',(1.,0.,0.));
#1349 = ORIENTED_EDGE('',*,*,#1335,.F.);
#1350 = ORIENTED_EDGE('',*,*,#351,.F.);
#1351 = CYLINDRICAL_SURFACE('',#1352,3.75);
#1352 = AXIS2_PLACEMENT_3D('',#1353,#1354,#1355);
#1353 = CARTESIAN_POINT('',(-30.75914498161,30.759144981616,0.));
#1354 = DIRECTION('',(-0.,-0.,-1.));
#1355 = DIRECTION('',(1.,0.,0.));
#1356 = ADVANCED_FACE('',(#1357),#1382,.T.);
#1357 = FACE_BOUND('',#1358,.T.);
#1358 = EDGE_LOOP('',(#1359,#1367,#1375,#1381));
#1359 = ORIENTED_EDGE('',*,*,#1360,.T.);
#1360 = EDGE_CURVE('',#363,#1361,#1363,.T.);
#1361 = VERTEX_POINT('',#1362);
#1362 = CARTESIAN_POINT('',(4.,36.5,3.));
#1363 = LINE('',#1364,#1365);
#1364 = CARTESIAN_POINT('',(4.,36.5,0.));
#1365 = VECTOR('',#1366,1.);
#1366 = DIRECTION('',(0.,0.,1.));
#1367 = ORIENTED_EDGE('',*,*,#1368,.T.);
#1368 = EDGE_CURVE('',#1361,#1369,#1371,.T.);
#1369 = VERTEX_POINT('',#1370);
#1370 = CARTESIAN_POINT('',(4.,-23.5,3.));
#1371 = LINE('',#1372,#1373);
#1372 = CARTESIAN_POINT('',(4.,36.5,3.));
#1373 = VECTOR('',#1374,1.);
#1374 = DIRECTION('',(0.,-1.,0.));
#1375 = ORIENTED_EDGE('',*,*,#1376,.F.);
#1376 = EDGE_CURVE('',#365,#1369,#1377,.T.);
#1377 = LINE('',#1378,#1379);
#1378 = CARTESIAN_POINT('',(4.,-23.5,0.));
#1379 = VECTOR('',#1380,1.);
#1380 = DIRECTION('',(0.,0.,1.));
#1381 = ORIENTED_EDGE('',*,*,#362,.F.);
#1382 = PLANE('',#1383);
#1383 = AXIS2_PLACEMENT_3D('',#1384,#1385,#1386);
#1384 = CARTESIAN_POINT('',(4.,36.5,0.));
#1385 = DIRECTION('',(1.,0.,0.));
#1386 = DIRECTION('',(0.,-1.,0.));
#1387 = ADVANCED_FACE('',(#1388),#1406,.T.);
#1388 = FACE_BOUND('',#1389,.T.);
#1389 = EDGE_LOOP('',(#1390,#1398,#1404,#1405));
#1390 = ORIENTED_EDGE('',*,*,#1391,.T.);
#1391 = EDGE_CURVE('',#373,#1392,#1394,.T.);
#1392 = VERTEX_POINT('',#1393);
#1393 = CARTESIAN_POINT('',(12.,36.5,3.));
#1394 = LINE('',#1395,#1396);
#1395 = CARTESIAN_POINT('',(12.,36.5,0.));
#1396 = VECTOR('',#1397,1.);
#1397 = DIRECTION('',(0.,0.,1.));
#1398 = ORIENTED_EDGE('',*,*,#1399,.T.);
#1399 = EDGE_CURVE('',#1392,#1361,#1400,.T.);
#1400 = LINE('',#1401,#1402);
#1401 = CARTESIAN_POINT('',(12.,36.5,3.));
#1402 = VECTOR('',#1403,1.);
#1403 = DIRECTION('',(-1.,0.,0.));
#1404 = ORIENTED_EDGE('',*,*,#1360,.F.);
#1405 = ORIENTED_EDGE('',*,*,#372,.F.);
#1406 = PLANE('',#1407);
#1407 = AXIS2_PLACEMENT_3D('',#1408,#1409,#1410);
#1408 = CARTESIAN_POINT('',(12.,36.5,0.));
#1409 = DIRECTION('',(0.,-1.,0.));
#1410 = DIRECTION('',(-1.,0.,0.));
#1411 = ADVANCED_FACE('',(#1412),#1430,.T.);
#1412 = FACE_BOUND('',#1413,.T.);
#1413 = EDGE_LOOP('',(#1414,#1415,#1423,#1429));
#1414 = ORIENTED_EDGE('',*,*,#1376,.T.);
#1415 = ORIENTED_EDGE('',*,*,#1416,.T.);
#1416 = EDGE_CURVE('',#1369,#1417,#1419,.T.);
#1417 = VERTEX_POINT('',#1418);
#1418 = CARTESIAN_POINT('',(12.,-23.5,3.));
#1419 = LINE('',#1420,#1421);
#1420 = CARTESIAN_POINT('',(4.,-23.5,3.));
#1421 = VECTOR('',#1422,1.);
#1422 = DIRECTION('',(1.,0.,0.));
#1423 = ORIENTED_EDGE('',*,*,#1424,.F.);
#1424 = EDGE_CURVE('',#381,#1417,#1425,.T.);
#1425 = LINE('',#1426,#1427);
#1426 = CARTESIAN_POINT('',(12.,-23.5,0.));
#1427 = VECTOR('',#1428,1.);
#1428 = DIRECTION('',(0.,0.,1.));
#1429 = ORIENTED_EDGE('',*,*,#388,.F.);
#1430 = PLANE('',#1431);
#1431 = AXIS2_PLACEMENT_3D('',#1432,#1433,#1434);
#1432 = CARTESIAN_POINT('',(4.,-23.5,0.));
#1433 = DIRECTION('',(0.,1.,0.));
#1434 = DIRECTION('',(1.,0.,0.));
#1435 = ADVANCED_FACE('',(#1436),#1447,.T.);
#1436 = FACE_BOUND('',#1437,.T.);
#1437 = EDGE_LOOP('',(#1438,#1439,#1445,#1446));
#1438 = ORIENTED_EDGE('',*,*,#1424,.T.);
#1439 = ORIENTED_EDGE('',*,*,#1440,.T.);
#1440 = EDGE_CURVE('',#1417,#1392,#1441,.T.);
#1441 = LINE('',#1442,#1443);
#1442 = CARTESIAN_POINT('',(12.,-23.5,3.));
#1443 = VECTOR('',#1444,1.);
#1444 = DIRECTION('',(0.,1.,0.));
#1445 = ORIENTED_EDGE('',*,*,#1391,.F.);
#1446 = ORIENTED_EDGE('',*,*,#380,.F.);
#1447 = PLANE('',#1448);
#1448 = AXIS2_PLACEMENT_3D('',#1449,#1450,#1451);
#1449 = CARTESIAN_POINT('',(12.,-23.5,0.));
#1450 = DIRECTION('',(-1.,0.,0.));
#1451 = DIRECTION('',(0.,1.,0.));
#1452 = ADVANCED_FACE('',(#1453),#1472,.F.);
#1453 = FACE_BOUND('',#1454,.T.);
#1454 = EDGE_LOOP('',(#1455,#1463,#1464,#1465));
#1455 = ORIENTED_EDGE('',*,*,#1456,.F.);
#1456 = EDGE_CURVE('',#397,#1457,#1459,.T.);
#1457 = VERTEX_POINT('',#1458);
#1458 = CARTESIAN_POINT('',(29.259144981616,30.759144981616,1.55));
#1459 = LINE('',#1460,#1461);
#1460 = CARTESIAN_POINT('',(27.709144981616,30.759144981616,0.));
#1461 = VECTOR('',#1462,1.);
#1462 = DIRECTION('',(0.707106781187,0.,0.707106781187));
#1463 = ORIENTED_EDGE('',*,*,#396,.T.);
#1464 = ORIENTED_EDGE('',*,*,#1456,.T.);
#1465 = ORIENTED_EDGE('',*,*,#1466,.F.);
#1466 = EDGE_CURVE('',#1457,#1457,#1467,.T.);
#1467 = CIRCLE('',#1468,1.5);
#1468 = AXIS2_PLACEMENT_3D('',#1469,#1470,#1471);
#1469 = CARTESIAN_POINT('',(30.759144981616,30.759144981616,1.55));
#1470 = DIRECTION('',(0.,0.,-1.));
#1471 = DIRECTION('',(-1.,0.,0.));
#1472 = CONICAL_SURFACE('',#1473,3.05,0.785398163397);
#1473 = AXIS2_PLACEMENT_3D('',#1474,#1475,#1476);
#1474 = CARTESIAN_POINT('',(30.759144981616,30.759144981616,0.));
#1475 = DIRECTION('',(-0.,-0.,-1.));
#1476 = DIRECTION('',(-1.,0.,0.));
#1477 = ADVANCED_FACE('',(#1478,#1502,#1513,#1519,#1530,#1541,#1552,
    #1558,#1564,#1567,#1573),#1584,.T.);
#1478 = FACE_BOUND('',#1479,.T.);
#1479 = EDGE_LOOP('',(#1480,#1481,#1482,#1483,#1484,#1485,#1486,#1487,
    #1488,#1489,#1490,#1491,#1492,#1493,#1494,#1495,#1496,#1497,#1498,
    #1499,#1500,#1501));
#1480 = ORIENTED_EDGE('',*,*,#422,.F.);
#1481 = ORIENTED_EDGE('',*,*,#932,.F.);
#1482 = ORIENTED_EDGE('',*,*,#914,.F.);
#1483 = ORIENTED_EDGE('',*,*,#883,.T.);
#1484 = ORIENTED_EDGE('',*,*,#859,.F.);
#1485 = ORIENTED_EDGE('',*,*,#834,.F.);
#1486 = ORIENTED_EDGE('',*,*,#811,.F.);
#1487 = ORIENTED_EDGE('',*,*,#787,.T.);
#1488 = ORIENTED_EDGE('',*,*,#770,.F.);
#1489 = ORIENTED_EDGE('',*,*,#738,.F.);
#1490 = ORIENTED_EDGE('',*,*,#721,.F.);
#1491 = ORIENTED_EDGE('',*,*,#690,.T.);
#1492 = ORIENTED_EDGE('',*,*,#666,.T.);
#1493 = ORIENTED_EDGE('',*,*,#641,.F.);
#1494 = ORIENTED_EDGE('',*,*,#617,.T.);
#1495 = ORIENTED_EDGE('',*,*,#593,.T.);
#1496 = ORIENTED_EDGE('',*,*,#569,.T.);
#1497 = ORIENTED_EDGE('',*,*,#544,.F.);
#1498 = ORIENTED_EDGE('',*,*,#527,.F.);
#1499 = ORIENTED_EDGE('',*,*,#495,.T.);
#1500 = ORIENTED_EDGE('',*,*,#471,.T.);
#1501 = ORIENTED_EDGE('',*,*,#454,.F.);
#1502 = FACE_BOUND('',#1503,.T.);
#1503 = EDGE_LOOP('',(#1504));
#1504 = ORIENTED_EDGE('',*,*,#1505,.F.);
#1505 = EDGE_CURVE('',#1506,#1506,#1508,.T.);
#1506 = VERTEX_POINT('',#1507);
#1507 = CARTESIAN_POINT('',(-32.25914498161,-30.75914498161,3.));
#1508 = CIRCLE('',#1509,1.5);
#1509 = AXIS2_PLACEMENT_3D('',#1510,#1511,#1512);
#1510 = CARTESIAN_POINT('',(-30.75914498161,-30.75914498161,3.));
#1511 = DIRECTION('',(0.,0.,1.));
#1512 = DIRECTION('',(-1.,0.,0.));
#1513 = FACE_BOUND('',#1514,.T.);
#1514 = EDGE_LOOP('',(#1515,#1516,#1517,#1518));
#1515 = ORIENTED_EDGE('',*,*,#980,.F.);
#1516 = ORIENTED_EDGE('',*,*,#1011,.F.);
#1517 = ORIENTED_EDGE('',*,*,#1052,.F.);
#1518 = ORIENTED_EDGE('',*,*,#1028,.F.);
#1519 = FACE_BOUND('',#1520,.T.);
#1520 = EDGE_LOOP('',(#1521));
#1521 = ORIENTED_EDGE('',*,*,#1522,.F.);
#1522 = EDGE_CURVE('',#1523,#1523,#1525,.T.);
#1523 = VERTEX_POINT('',#1524);
#1524 = CARTESIAN_POINT('',(-13.25,-10.5,3.));
#1525 = CIRCLE('',#1526,3.75);
#1526 = AXIS2_PLACEMENT_3D('',#1527,#1528,#1529);
#1527 = CARTESIAN_POINT('',(-17.,-10.5,3.));
#1528 = DIRECTION('',(0.,0.,1.));
#1529 = DIRECTION('',(1.,0.,0.));
#1530 = FACE_BOUND('',#1531,.T.);
#1531 = EDGE_LOOP('',(#1532));
#1532 = ORIENTED_EDGE('',*,*,#1533,.F.);
#1533 = EDGE_CURVE('',#1534,#1534,#1536,.T.);
#1534 = VERTEX_POINT('',#1535);
#1535 = CARTESIAN_POINT('',(29.259144981616,-30.75914498161,3.));
#1536 = CIRCLE('',#1537,1.5);
#1537 = AXIS2_PLACEMENT_3D('',#1538,#1539,#1540);
#1538 = CARTESIAN_POINT('',(30.759144981616,-30.75914498161,3.));
#1539 = DIRECTION('',(0.,0.,1.));
#1540 = DIRECTION('',(-1.,0.,0.));
#1541 = FACE_BOUND('',#1542,.T.);
#1542 = EDGE_LOOP('',(#1543));
#1543 = ORIENTED_EDGE('',*,*,#1544,.F.);
#1544 = EDGE_CURVE('',#1545,#1545,#1547,.T.);
#1545 = VERTEX_POINT('',#1546);
#1546 = CARTESIAN_POINT('',(20.75,-10.5,3.));
#1547 = CIRCLE('',#1548,3.75);
#1548 = AXIS2_PLACEMENT_3D('',#1549,#1550,#1551);
#1549 = CARTESIAN_POINT('',(17.,-10.5,3.));
#1550 = DIRECTION('',(0.,0.,1.));
#1551 = DIRECTION('',(1.,0.,0.));
#1552 = FACE_BOUND('',#1553,.T.);
#1553 = EDGE_LOOP('',(#1554,#1555,#1556,#1557));
#1554 = ORIENTED_EDGE('',*,*,#1151,.F.);
#1555 = ORIENTED_EDGE('',*,*,#1182,.F.);
#1556 = ORIENTED_EDGE('',*,*,#1223,.F.);
#1557 = ORIENTED_EDGE('',*,*,#1199,.F.);
#1558 = FACE_BOUND('',#1559,.T.);
#1559 = EDGE_LOOP('',(#1560,#1561,#1562,#1563));
#1560 = ORIENTED_EDGE('',*,*,#1247,.F.);
#1561 = ORIENTED_EDGE('',*,*,#1278,.F.);
#1562 = ORIENTED_EDGE('',*,*,#1319,.F.);
#1563 = ORIENTED_EDGE('',*,*,#1295,.F.);
#1564 = FACE_BOUND('',#1565,.T.);
#1565 = EDGE_LOOP('',(#1566));
#1566 = ORIENTED_EDGE('',*,*,#1343,.F.);
#1567 = FACE_BOUND('',#1568,.T.);
#1568 = EDGE_LOOP('',(#1569,#1570,#1571,#1572));
#1569 = ORIENTED_EDGE('',*,*,#1368,.F.);
#1570 = ORIENTED_EDGE('',*,*,#1399,.F.);
#1571 = ORIENTED_EDGE('',*,*,#1440,.F.);
#1572 = ORIENTED_EDGE('',*,*,#1416,.F.);
#1573 = FACE_BOUND('',#1574,.T.);
#1574 = EDGE_LOOP('',(#1575));
#1575 = ORIENTED_EDGE('',*,*,#1576,.F.);
#1576 = EDGE_CURVE('',#1577,#1577,#1579,.T.);
#1577 = VERTEX_POINT('',#1578);
#1578 = CARTESIAN_POINT('',(29.259144981616,30.759144981616,3.));
#1579 = CIRCLE('',#1580,1.5);
#1580 = AXIS2_PLACEMENT_3D('',#1581,#1582,#1583);
#1581 = CARTESIAN_POINT('',(30.759144981616,30.759144981616,3.));
#1582 = DIRECTION('',(0.,0.,1.));
#1583 = DIRECTION('',(-1.,0.,0.));
#1584 = PLANE('',#1585);
#1585 = AXIS2_PLACEMENT_3D('',#1586,#1587,#1588);
#1586 = CARTESIAN_POINT('',(-0.610238560095,-1.492243475353,3.));
#1587 = DIRECTION('',(0.,0.,1.));
#1588 = DIRECTION('',(1.,0.,0.));
#1589 = ADVANCED_FACE('',(#1590),#1601,.F.);
#1590 = FACE_BOUND('',#1591,.T.);
#1591 = EDGE_LOOP('',(#1592,#1598,#1599,#1600));
#1592 = ORIENTED_EDGE('',*,*,#1593,.F.);
#1593 = EDGE_CURVE('',#948,#1506,#1594,.T.);
#1594 = LINE('',#1595,#1596);
#1595 = CARTESIAN_POINT('',(-32.25914498161,-30.75914498161,1.55));
#1596 = VECTOR('',#1597,1.);
#1597 = DIRECTION('',(6.E-17,0.,1.));
#1598 = ORIENTED_EDGE('',*,*,#957,.T.);
#1599 = ORIENTED_EDGE('',*,*,#1593,.T.);
#1600 = ORIENTED_EDGE('',*,*,#1505,.T.);
#1601 = CYLINDRICAL_SURFACE('',#1602,1.5);
#1602 = AXIS2_PLACEMENT_3D('',#1603,#1604,#1605);
#1603 = CARTESIAN_POINT('',(-30.75914498161,-30.75914498161,1.55));
#1604 = DIRECTION('',(0.,0.,1.));
#1605 = DIRECTION('',(-1.,0.,0.));
#1606 = ADVANCED_FACE('',(#1607),#1618,.F.);
#1607 = FACE_BOUND('',#1608,.T.);
#1608 = EDGE_LOOP('',(#1609,#1615,#1616,#1617));
#1609 = ORIENTED_EDGE('',*,*,#1610,.F.);
#1610 = EDGE_CURVE('',#1523,#1069,#1611,.T.);
#1611 = LINE('',#1612,#1613);
#1612 = CARTESIAN_POINT('',(-13.25,-10.5,3.));
#1613 = VECTOR('',#1614,1.);
#1614 = DIRECTION('',(-0.707106781187,0.,-0.707106781187));
#1615 = ORIENTED_EDGE('',*,*,#1522,.T.);
#1616 = ORIENTED_EDGE('',*,*,#1610,.T.);
#1617 = ORIENTED_EDGE('',*,*,#1076,.F.);
#1618 = CONICAL_SURFACE('',#1619,3.75,0.785398163397);
#1619 = AXIS2_PLACEMENT_3D('',#1620,#1621,#1622);
#1620 = CARTESIAN_POINT('',(-17.,-10.5,3.));
#1621 = DIRECTION('',(0.,0.,1.));
#1622 = DIRECTION('',(1.,0.,0.));
#1623 = ADVANCED_FACE('',(#1624),#1635,.F.);
#1624 = FACE_BOUND('',#1625,.T.);
#1625 = EDGE_LOOP('',(#1626,#1632,#1633,#1634));
#1626 = ORIENTED_EDGE('',*,*,#1627,.F.);
#1627 = EDGE_CURVE('',#1094,#1534,#1628,.T.);
#1628 = LINE('',#1629,#1630);
#1629 = CARTESIAN_POINT('',(29.259144981616,-30.75914498161,1.55));
#1630 = VECTOR('',#1631,1.);
#1631 = DIRECTION('',(6.E-17,0.,1.));
#1632 = ORIENTED_EDGE('',*,*,#1103,.T.);
#1633 = ORIENTED_EDGE('',*,*,#1627,.T.);
#1634 = ORIENTED_EDGE('',*,*,#1533,.T.);
#1635 = CYLINDRICAL_SURFACE('',#1636,1.5);
#1636 = AXIS2_PLACEMENT_3D('',#1637,#1638,#1639);
#1637 = CARTESIAN_POINT('',(30.759144981616,-30.75914498161,1.55));
#1638 = DIRECTION('',(0.,0.,1.));
#1639 = DIRECTION('',(-1.,0.,0.));
#1640 = ADVANCED_FACE('',(#1641),#1652,.F.);
#1641 = FACE_BOUND('',#1642,.T.);
#1642 = EDGE_LOOP('',(#1643,#1649,#1650,#1651));
#1643 = ORIENTED_EDGE('',*,*,#1644,.F.);
#1644 = EDGE_CURVE('',#1545,#1119,#1645,.T.);
#1645 = LINE('',#1646,#1647);
#1646 = CARTESIAN_POINT('',(20.75,-10.5,3.));
#1647 = VECTOR('',#1648,1.);
#1648 = DIRECTION('',(-0.707106781187,0.,-0.707106781187));
#1649 = ORIENTED_EDGE('',*,*,#1544,.T.);
#1650 = ORIENTED_EDGE('',*,*,#1644,.T.);
#1651 = ORIENTED_EDGE('',*,*,#1126,.F.);
#1652 = CONICAL_SURFACE('',#1653,3.75,0.785398163397);
#1653 = AXIS2_PLACEMENT_3D('',#1654,#1655,#1656);
#1654 = CARTESIAN_POINT('',(17.,-10.5,3.));
#1655 = DIRECTION('',(0.,0.,1.));
#1656 = DIRECTION('',(1.,0.,0.));
#1657 = ADVANCED_FACE('',(#1658),#1669,.F.);
#1658 = FACE_BOUND('',#1659,.T.);
#1659 = EDGE_LOOP('',(#1660,#1666,#1667,#1668));
#1660 = ORIENTED_EDGE('',*,*,#1661,.F.);
#1661 = EDGE_CURVE('',#1457,#1577,#1662,.T.);
#1662 = LINE('',#1663,#1664);
#1663 = CARTESIAN_POINT('',(29.259144981616,30.759144981616,1.55));
#1664 = VECTOR('',#1665,1.);
#1665 = DIRECTION('',(6.E-17,0.,1.));
#1666 = ORIENTED_EDGE('',*,*,#1466,.T.);
#1667 = ORIENTED_EDGE('',*,*,#1661,.T.);
#1668 = ORIENTED_EDGE('',*,*,#1576,.T.);
#1669 = CYLINDRICAL_SURFACE('',#1670,1.5);
#1670 = AXIS2_PLACEMENT_3D('',#1671,#1672,#1673);
#1671 = CARTESIAN_POINT('',(30.759144981616,30.759144981616,1.55));
#1672 = DIRECTION('',(0.,0.,1.));
#1673 = DIRECTION('',(-1.,0.,0.));
#1674 = ( GEOMETRIC_REPRESENTATION_CONTEXT(3) 
GLOBAL_UNCERTAINTY_ASSIGNED_CONTEXT((#1678)) 
GLOBAL_UNIT_ASSIGNED_CONTEXT((#1675,#1676,#1677)) REPRESENTATION_CONTEXT
('Context #1','3D Context with UNIT and UNCERTAINTY') );
#1675 = ( LENGTH_UNIT() NAMED_UNIT(*) SI_UNIT(.MILLI.,.METRE.) );
#1676 = ( NAMED_UNIT(*) PLANE_ANGLE_UNIT() SI_UNIT($,.RADIAN.) );
#1677 = ( NAMED_UNIT(*) SI_UNIT($,.STERADIAN.) SOLID_ANGLE_UNIT() );
#1678 = UNCERTAINTY_MEASURE_WITH_UNIT(LENGTH_MEASURE(1.E-05),#1675,
  'distance_accuracy_value','confusion accuracy');
#1679 = PRODUCT_RELATED_PRODUCT_CATEGORY('part',$,(#7));
#1680 = MECHANICAL_DESIGN_GEOMETRIC_PRESENTATION_REPRESENTATION('',(
    #1681),#1674);
#1681 = STYLED_ITEM('color',(#1682),#15);
#1682 = PRESENTATION_STYLE_ASSIGNMENT((#1683,#1689));
#1683 = SURFACE_STYLE_USAGE(.BOTH.,#1684);
#1684 = SURFACE_SIDE_STYLE('',(#1685));
#1685 = SURFACE_STYLE_FILL_AREA(#1686);
#1686 = FILL_AREA_STYLE('',(#1687));
#1687 = FILL_AREA_STYLE_COLOUR('',#1688);
#1688 = COLOUR_RGB('',0.745098043297,0.843137261657,0.125490201081);
#1689 = CURVE_STYLE('',#1690,POSITIVE_LENGTH_MEASURE(0.1),#1691);
#1690 = DRAUGHTING_PRE_DEFINED_CURVE_FONT('continuous');
#1691 = COLOUR_RGB('',9.803921802644E-02,9.803921802644E-02,
  9.803921802644E-02);
ENDSEC;
END-ISO-10303-21;
