ISO-10303-21;
HEADER;
FILE_DESCRIPTION(('FreeCAD Model'),'2;1');
FILE_NAME('Open CASCADE Shape Model','2026-05-11T17:37:55',(''),(''),
  'Open CASCADE STEP processor 7.7','FreeCAD','Unknown');
FILE_SCHEMA(('AUTOMOTIVE_DESIGN { 1 0 10303 214 1 1 1 1 }'));
ENDSEC;
DATA;
#1 = APPLICATION_PROTOCOL_DEFINITION('international standard',
  'automotive_design',2000,#2);
#2 = APPLICATION_CONTEXT(
  'core data for automotive mechanical design processes');
#3 = SHAPE_DEFINITION_REPRESENTATION(#4,#10);
#4 = PRODUCT_DEFINITION_SHAPE('','',#5);
#5 = PRODUCT_DEFINITION('design','',#6,#9);
#6 = PRODUCT_DEFINITION_FORMATION('','',#7);
#7 = PRODUCT('boardHolder','boardHolder','',(#8));
#8 = PRODUCT_CONTEXT('',#2,'mechanical');
#9 = PRODUCT_DEFINITION_CONTEXT('part definition',#2,'design');
#10 = ADVANCED_BREP_SHAPE_REPRESENTATION('',(#11,#15),#1302);
#11 = AXIS2_PLACEMENT_3D('',#12,#13,#14);
#12 = CARTESIAN_POINT('',(0.,0.,0.));
#13 = DIRECTION('',(0.,0.,1.));
#14 = DIRECTION('',(1.,0.,-0.));
#15 = MANIFOLD_SOLID_BREP('',#16);
#16 = CLOSED_SHELL('',(#17,#105,#144,#168,#203,#235,#267,#302,#326,#350,
    #382,#421,#438,#652,#669,#681,#698,#730,#762,#779,#812,#836,#860,
    #877,#894,#919,#944,#975,#999,#1023,#1040,#1071,#1095,#1119,#1136,
    #1167,#1191,#1215,#1232,#1257));
#17 = ADVANCED_FACE('',(#18),#100,.T.);
#18 = FACE_BOUND('',#19,.T.);
#19 = EDGE_LOOP('',(#20,#30,#38,#46,#54,#62,#70,#78,#86,#94));
#20 = ORIENTED_EDGE('',*,*,#21,.T.);
#21 = EDGE_CURVE('',#22,#24,#26,.T.);
#22 = VERTEX_POINT('',#23);
#23 = CARTESIAN_POINT('',(-5.75,15.,-28.5));
#24 = VERTEX_POINT('',#25);
#25 = CARTESIAN_POINT('',(-5.75,15.,-28.75));
#26 = LINE('',#27,#28);
#27 = CARTESIAN_POINT('',(-5.75,15.,-17.5));
#28 = VECTOR('',#29,1.);
#29 = DIRECTION('',(0.,2.22044604925E-16,-1.));
#30 = ORIENTED_EDGE('',*,*,#31,.T.);
#31 = EDGE_CURVE('',#24,#32,#34,.T.);
#32 = VERTEX_POINT('',#33);
#33 = CARTESIAN_POINT('',(22.25,15.,-28.75));
#34 = LINE('',#35,#36);
#35 = CARTESIAN_POINT('',(-5.75,15.,-28.75));
#36 = VECTOR('',#37,1.);
#37 = DIRECTION('',(1.,0.,0.));
#38 = ORIENTED_EDGE('',*,*,#39,.T.);
#39 = EDGE_CURVE('',#32,#40,#42,.T.);
#40 = VERTEX_POINT('',#41);
#41 = CARTESIAN_POINT('',(22.25,15.,-22.75));
#42 = LINE('',#43,#44);
#43 = CARTESIAN_POINT('',(22.25,15.,-28.75));
#44 = VECTOR('',#45,1.);
#45 = DIRECTION('',(0.,-2.22044604925E-16,1.));
#46 = ORIENTED_EDGE('',*,*,#47,.T.);
#47 = EDGE_CURVE('',#40,#48,#50,.T.);
#48 = VERTEX_POINT('',#49);
#49 = CARTESIAN_POINT('',(26.75,15.,-22.75));
#50 = LINE('',#51,#52);
#51 = CARTESIAN_POINT('',(22.25,15.,-22.75));
#52 = VECTOR('',#53,1.);
#53 = DIRECTION('',(1.,0.,0.));
#54 = ORIENTED_EDGE('',*,*,#55,.T.);
#55 = EDGE_CURVE('',#48,#56,#58,.T.);
#56 = VERTEX_POINT('',#57);
#57 = CARTESIAN_POINT('',(26.75,15.,-32.25));
#58 = LINE('',#59,#60);
#59 = CARTESIAN_POINT('',(26.75,15.,-8.75));
#60 = VECTOR('',#61,1.);
#61 = DIRECTION('',(0.,2.22044604925E-16,-1.));
#62 = ORIENTED_EDGE('',*,*,#63,.T.);
#63 = EDGE_CURVE('',#56,#64,#66,.T.);
#64 = VERTEX_POINT('',#65);
#65 = CARTESIAN_POINT('',(-26.75,15.,-32.25));
#66 = LINE('',#67,#68);
#67 = CARTESIAN_POINT('',(26.75,15.,-32.25));
#68 = VECTOR('',#69,1.);
#69 = DIRECTION('',(-1.,0.,-0.));
#70 = ORIENTED_EDGE('',*,*,#71,.T.);
#71 = EDGE_CURVE('',#64,#72,#74,.T.);
#72 = VERTEX_POINT('',#73);
#73 = CARTESIAN_POINT('',(-26.75,15.,-28.75));
#74 = LINE('',#75,#76);
#75 = CARTESIAN_POINT('',(-26.75,15.,-32.25));
#76 = VECTOR('',#77,1.);
#77 = DIRECTION('',(0.,-2.22044604925E-16,1.));
#78 = ORIENTED_EDGE('',*,*,#79,.T.);
#79 = EDGE_CURVE('',#72,#80,#82,.T.);
#80 = VERTEX_POINT('',#81);
#81 = CARTESIAN_POINT('',(-10.25,15.,-28.75));
#82 = LINE('',#83,#84);
#83 = CARTESIAN_POINT('',(-26.75,15.,-28.75));
#84 = VECTOR('',#85,1.);
#85 = DIRECTION('',(1.,0.,0.));
#86 = ORIENTED_EDGE('',*,*,#87,.T.);
#87 = EDGE_CURVE('',#80,#88,#90,.T.);
#88 = VERTEX_POINT('',#89);
#89 = CARTESIAN_POINT('',(-10.25,15.,-28.5));
#90 = LINE('',#91,#92);
#91 = CARTESIAN_POINT('',(-10.25,15.,-28.75));
#92 = VECTOR('',#93,1.);
#93 = DIRECTION('',(0.,-2.22044604925E-16,1.));
#94 = ORIENTED_EDGE('',*,*,#95,.T.);
#95 = EDGE_CURVE('',#88,#22,#96,.T.);
#96 = LINE('',#97,#98);
#97 = CARTESIAN_POINT('',(-10.25,15.,-28.5));
#98 = VECTOR('',#99,1.);
#99 = DIRECTION('',(1.,0.,0.));
#100 = PLANE('',#101);
#101 = AXIS2_PLACEMENT_3D('',#102,#103,#104);
#102 = CARTESIAN_POINT('',(4.532577903683,15.,-26.10021246458));
#103 = DIRECTION('',(0.,1.,2.22044604925E-16));
#104 = DIRECTION('',(0.,-2.22044604925E-16,1.));
#105 = ADVANCED_FACE('',(#106),#139,.F.);
#106 = FACE_BOUND('',#107,.F.);
#107 = EDGE_LOOP('',(#108,#118,#124,#125,#133));
#108 = ORIENTED_EDGE('',*,*,#109,.T.);
#109 = EDGE_CURVE('',#110,#112,#114,.T.);
#110 = VERTEX_POINT('',#111);
#111 = CARTESIAN_POINT('',(-5.75,3.885780586188E-15,-17.5));
#112 = VERTEX_POINT('',#113);
#113 = CARTESIAN_POINT('',(-5.75,4.,-17.5));
#114 = LINE('',#115,#116);
#115 = CARTESIAN_POINT('',(-5.75,3.885780586188E-15,-17.5));
#116 = VECTOR('',#117,1.);
#117 = DIRECTION('',(0.,1.,2.22044604925E-16));
#118 = ORIENTED_EDGE('',*,*,#119,.F.);
#119 = EDGE_CURVE('',#22,#112,#120,.T.);
#120 = LINE('',#121,#122);
#121 = CARTESIAN_POINT('',(-5.75,5.75,-19.25));
#122 = VECTOR('',#123,1.);
#123 = DIRECTION('',(0.,-0.707106781187,0.707106781187));
#124 = ORIENTED_EDGE('',*,*,#21,.T.);
#125 = ORIENTED_EDGE('',*,*,#126,.F.);
#126 = EDGE_CURVE('',#127,#24,#129,.T.);
#127 = VERTEX_POINT('',#128);
#128 = CARTESIAN_POINT('',(-5.75,6.383782391595E-15,-28.75));
#129 = LINE('',#130,#131);
#130 = CARTESIAN_POINT('',(-5.75,6.383782391595E-15,-28.75));
#131 = VECTOR('',#132,1.);
#132 = DIRECTION('',(0.,1.,2.22044604925E-16));
#133 = ORIENTED_EDGE('',*,*,#134,.F.);
#134 = EDGE_CURVE('',#110,#127,#135,.T.);
#135 = LINE('',#136,#137);
#136 = CARTESIAN_POINT('',(-5.75,3.885780586188E-15,-17.5));
#137 = VECTOR('',#138,1.);
#138 = DIRECTION('',(0.,2.22044604925E-16,-1.));
#139 = PLANE('',#140);
#140 = AXIS2_PLACEMENT_3D('',#141,#142,#143);
#141 = CARTESIAN_POINT('',(-5.75,3.885780586188E-15,-17.5));
#142 = DIRECTION('',(-1.,0.,0.));
#143 = DIRECTION('',(0.,2.22044604925E-16,-1.));
#144 = ADVANCED_FACE('',(#145),#163,.F.);
#145 = FACE_BOUND('',#146,.F.);
#146 = EDGE_LOOP('',(#147,#155,#156,#157));
#147 = ORIENTED_EDGE('',*,*,#148,.F.);
#148 = EDGE_CURVE('',#88,#149,#151,.T.);
#149 = VERTEX_POINT('',#150);
#150 = CARTESIAN_POINT('',(-10.25,4.,-17.5));
#151 = LINE('',#152,#153);
#152 = CARTESIAN_POINT('',(-10.25,8.5625,-22.0625));
#153 = VECTOR('',#154,1.);
#154 = DIRECTION('',(0.,-0.707106781187,0.707106781187));
#155 = ORIENTED_EDGE('',*,*,#95,.T.);
#156 = ORIENTED_EDGE('',*,*,#119,.T.);
#157 = ORIENTED_EDGE('',*,*,#158,.F.);
#158 = EDGE_CURVE('',#149,#112,#159,.T.);
#159 = LINE('',#160,#161);
#160 = CARTESIAN_POINT('',(-10.25,4.,-17.5));
#161 = VECTOR('',#162,1.);
#162 = DIRECTION('',(1.,0.,0.));
#163 = PLANE('',#164);
#164 = AXIS2_PLACEMENT_3D('',#165,#166,#167);
#165 = CARTESIAN_POINT('',(-10.25,9.5,-23.));
#166 = DIRECTION('',(0.,-0.707106781187,-0.707106781187));
#167 = DIRECTION('',(1.,0.,0.));
#168 = ADVANCED_FACE('',(#169,#187),#198,.F.);
#169 = FACE_BOUND('',#170,.F.);
#170 = EDGE_LOOP('',(#171,#172,#173,#181));
#171 = ORIENTED_EDGE('',*,*,#126,.T.);
#172 = ORIENTED_EDGE('',*,*,#31,.T.);
#173 = ORIENTED_EDGE('',*,*,#174,.F.);
#174 = EDGE_CURVE('',#175,#32,#177,.T.);
#175 = VERTEX_POINT('',#176);
#176 = CARTESIAN_POINT('',(22.25,6.383782391595E-15,-28.75));
#177 = LINE('',#178,#179);
#178 = CARTESIAN_POINT('',(22.25,6.383782391595E-15,-28.75));
#179 = VECTOR('',#180,1.);
#180 = DIRECTION('',(0.,1.,2.22044604925E-16));
#181 = ORIENTED_EDGE('',*,*,#182,.F.);
#182 = EDGE_CURVE('',#127,#175,#183,.T.);
#183 = LINE('',#184,#185);
#184 = CARTESIAN_POINT('',(-5.75,6.383782391595E-15,-28.75));
#185 = VECTOR('',#186,1.);
#186 = DIRECTION('',(1.,0.,0.));
#187 = FACE_BOUND('',#188,.F.);
#188 = EDGE_LOOP('',(#189));
#189 = ORIENTED_EDGE('',*,*,#190,.T.);
#190 = EDGE_CURVE('',#191,#191,#193,.T.);
#191 = VERTEX_POINT('',#192);
#192 = CARTESIAN_POINT('',(18.75,7.559246,-28.75));
#193 = CIRCLE('',#194,1.75);
#194 = AXIS2_PLACEMENT_3D('',#195,#196,#197);
#195 = CARTESIAN_POINT('',(17.,7.559246,-28.75));
#196 = DIRECTION('',(-0.,4.930380657631E-32,1.));
#197 = DIRECTION('',(1.,0.,0.));
#198 = PLANE('',#199);
#199 = AXIS2_PLACEMENT_3D('',#200,#201,#202);
#200 = CARTESIAN_POINT('',(-5.75,6.383782391595E-15,-28.75));
#201 = DIRECTION('',(0.,2.22044604925E-16,-1.));
#202 = DIRECTION('',(1.,0.,0.));
#203 = ADVANCED_FACE('',(#204),#230,.F.);
#204 = FACE_BOUND('',#205,.F.);
#205 = EDGE_LOOP('',(#206,#214,#222,#228,#229));
#206 = ORIENTED_EDGE('',*,*,#207,.F.);
#207 = EDGE_CURVE('',#208,#149,#210,.T.);
#208 = VERTEX_POINT('',#209);
#209 = CARTESIAN_POINT('',(-10.25,3.885780586188E-15,-17.5));
#210 = LINE('',#211,#212);
#211 = CARTESIAN_POINT('',(-10.25,3.885780586188E-15,-17.5));
#212 = VECTOR('',#213,1.);
#213 = DIRECTION('',(0.,1.,2.22044604925E-16));
#214 = ORIENTED_EDGE('',*,*,#215,.F.);
#215 = EDGE_CURVE('',#216,#208,#218,.T.);
#216 = VERTEX_POINT('',#217);
#217 = CARTESIAN_POINT('',(-10.25,6.383782391595E-15,-28.75));
#218 = LINE('',#219,#220);
#219 = CARTESIAN_POINT('',(-10.25,6.383782391595E-15,-28.75));
#220 = VECTOR('',#221,1.);
#221 = DIRECTION('',(0.,-2.22044604925E-16,1.));
#222 = ORIENTED_EDGE('',*,*,#223,.T.);
#223 = EDGE_CURVE('',#216,#80,#224,.T.);
#224 = LINE('',#225,#226);
#225 = CARTESIAN_POINT('',(-10.25,6.383782391595E-15,-28.75));
#226 = VECTOR('',#227,1.);
#227 = DIRECTION('',(0.,1.,2.22044604925E-16));
#228 = ORIENTED_EDGE('',*,*,#87,.T.);
#229 = ORIENTED_EDGE('',*,*,#148,.T.);
#230 = PLANE('',#231);
#231 = AXIS2_PLACEMENT_3D('',#232,#233,#234);
#232 = CARTESIAN_POINT('',(-10.25,6.383782391595E-15,-28.75));
#233 = DIRECTION('',(1.,0.,0.));
#234 = DIRECTION('',(0.,-2.22044604925E-16,1.));
#235 = ADVANCED_FACE('',(#236),#262,.F.);
#236 = FACE_BOUND('',#237,.F.);
#237 = EDGE_LOOP('',(#238,#248,#254,#255,#256));
#238 = ORIENTED_EDGE('',*,*,#239,.F.);
#239 = EDGE_CURVE('',#240,#242,#244,.T.);
#240 = VERTEX_POINT('',#241);
#241 = CARTESIAN_POINT('',(22.25,1.942890293094E-15,-8.75));
#242 = VERTEX_POINT('',#243);
#243 = CARTESIAN_POINT('',(22.25,1.,-8.75));
#244 = LINE('',#245,#246);
#245 = CARTESIAN_POINT('',(22.25,1.942890293094E-15,-8.75));
#246 = VECTOR('',#247,1.);
#247 = DIRECTION('',(0.,1.,2.22044604925E-16));
#248 = ORIENTED_EDGE('',*,*,#249,.F.);
#249 = EDGE_CURVE('',#175,#240,#250,.T.);
#250 = LINE('',#251,#252);
#251 = CARTESIAN_POINT('',(22.25,6.383782391595E-15,-28.75));
#252 = VECTOR('',#253,1.);
#253 = DIRECTION('',(0.,-2.22044604925E-16,1.));
#254 = ORIENTED_EDGE('',*,*,#174,.T.);
#255 = ORIENTED_EDGE('',*,*,#39,.T.);
#256 = ORIENTED_EDGE('',*,*,#257,.T.);
#257 = EDGE_CURVE('',#40,#242,#258,.T.);
#258 = LINE('',#259,#260);
#259 = CARTESIAN_POINT('',(22.25,9.25,-17.));
#260 = VECTOR('',#261,1.);
#261 = DIRECTION('',(0.,-0.707106781187,0.707106781187));
#262 = PLANE('',#263);
#263 = AXIS2_PLACEMENT_3D('',#264,#265,#266);
#264 = CARTESIAN_POINT('',(22.25,6.383782391595E-15,-28.75));
#265 = DIRECTION('',(1.,0.,0.));
#266 = DIRECTION('',(0.,-2.22044604925E-16,1.));
#267 = ADVANCED_FACE('',(#268,#286),#297,.F.);
#268 = FACE_BOUND('',#269,.F.);
#269 = EDGE_LOOP('',(#270,#278,#279,#280));
#270 = ORIENTED_EDGE('',*,*,#271,.T.);
#271 = EDGE_CURVE('',#272,#72,#274,.T.);
#272 = VERTEX_POINT('',#273);
#273 = CARTESIAN_POINT('',(-26.75,6.383782391595E-15,-28.75));
#274 = LINE('',#275,#276);
#275 = CARTESIAN_POINT('',(-26.75,6.383782391595E-15,-28.75));
#276 = VECTOR('',#277,1.);
#277 = DIRECTION('',(0.,1.,2.22044604925E-16));
#278 = ORIENTED_EDGE('',*,*,#79,.T.);
#279 = ORIENTED_EDGE('',*,*,#223,.F.);
#280 = ORIENTED_EDGE('',*,*,#281,.F.);
#281 = EDGE_CURVE('',#272,#216,#282,.T.);
#282 = LINE('',#283,#284);
#283 = CARTESIAN_POINT('',(-26.75,6.383782391595E-15,-28.75));
#284 = VECTOR('',#285,1.);
#285 = DIRECTION('',(1.,0.,0.));
#286 = FACE_BOUND('',#287,.F.);
#287 = EDGE_LOOP('',(#288));
#288 = ORIENTED_EDGE('',*,*,#289,.T.);
#289 = EDGE_CURVE('',#290,#290,#292,.T.);
#290 = VERTEX_POINT('',#291);
#291 = CARTESIAN_POINT('',(-15.25,7.559246,-28.75));
#292 = CIRCLE('',#293,1.75);
#293 = AXIS2_PLACEMENT_3D('',#294,#295,#296);
#294 = CARTESIAN_POINT('',(-17.,7.559246,-28.75));
#295 = DIRECTION('',(-0.,4.930380657631E-32,1.));
#296 = DIRECTION('',(1.,0.,0.));
#297 = PLANE('',#298);
#298 = AXIS2_PLACEMENT_3D('',#299,#300,#301);
#299 = CARTESIAN_POINT('',(-26.75,6.383782391595E-15,-28.75));
#300 = DIRECTION('',(0.,2.22044604925E-16,-1.));
#301 = DIRECTION('',(1.,0.,0.));
#302 = ADVANCED_FACE('',(#303),#321,.F.);
#303 = FACE_BOUND('',#304,.F.);
#304 = EDGE_LOOP('',(#305,#306,#307,#315));
#305 = ORIENTED_EDGE('',*,*,#257,.F.);
#306 = ORIENTED_EDGE('',*,*,#47,.T.);
#307 = ORIENTED_EDGE('',*,*,#308,.T.);
#308 = EDGE_CURVE('',#48,#309,#311,.T.);
#309 = VERTEX_POINT('',#310);
#310 = CARTESIAN_POINT('',(26.75,1.,-8.75));
#311 = LINE('',#312,#313);
#312 = CARTESIAN_POINT('',(26.75,4.25,-12.));
#313 = VECTOR('',#314,1.);
#314 = DIRECTION('',(0.,-0.707106781187,0.707106781187));
#315 = ORIENTED_EDGE('',*,*,#316,.F.);
#316 = EDGE_CURVE('',#242,#309,#317,.T.);
#317 = LINE('',#318,#319);
#318 = CARTESIAN_POINT('',(22.25,1.,-8.75));
#319 = VECTOR('',#320,1.);
#320 = DIRECTION('',(1.,0.,0.));
#321 = PLANE('',#322);
#322 = AXIS2_PLACEMENT_3D('',#323,#324,#325);
#323 = CARTESIAN_POINT('',(22.25,8.,-15.75));
#324 = DIRECTION('',(0.,-0.707106781187,-0.707106781187));
#325 = DIRECTION('',(1.,0.,0.));
#326 = ADVANCED_FACE('',(#327),#345,.F.);
#327 = FACE_BOUND('',#328,.F.);
#328 = EDGE_LOOP('',(#329,#337,#338,#339));
#329 = ORIENTED_EDGE('',*,*,#330,.T.);
#330 = EDGE_CURVE('',#331,#64,#333,.T.);
#331 = VERTEX_POINT('',#332);
#332 = CARTESIAN_POINT('',(-26.75,-3.155443620884E-30,-32.25));
#333 = LINE('',#334,#335);
#334 = CARTESIAN_POINT('',(-26.75,7.160938508832E-15,-32.25));
#335 = VECTOR('',#336,1.);
#336 = DIRECTION('',(0.,1.,2.22044604925E-16));
#337 = ORIENTED_EDGE('',*,*,#71,.T.);
#338 = ORIENTED_EDGE('',*,*,#271,.F.);
#339 = ORIENTED_EDGE('',*,*,#340,.T.);
#340 = EDGE_CURVE('',#272,#331,#341,.T.);
#341 = LINE('',#342,#343);
#342 = CARTESIAN_POINT('',(-26.75,1.482147737875E-14,66.75));
#343 = VECTOR('',#344,1.);
#344 = DIRECTION('',(0.,-2.22044604925E-16,-1.));
#345 = PLANE('',#346);
#346 = AXIS2_PLACEMENT_3D('',#347,#348,#349);
#347 = CARTESIAN_POINT('',(-26.75,7.160938508832E-15,-32.25));
#348 = DIRECTION('',(1.,0.,0.));
#349 = DIRECTION('',(0.,-2.22044604925E-16,1.));
#350 = ADVANCED_FACE('',(#351),#377,.F.);
#351 = FACE_BOUND('',#352,.F.);
#352 = EDGE_LOOP('',(#353,#361,#362,#363,#371));
#353 = ORIENTED_EDGE('',*,*,#354,.T.);
#354 = EDGE_CURVE('',#355,#309,#357,.T.);
#355 = VERTEX_POINT('',#356);
#356 = CARTESIAN_POINT('',(26.75,1.942890293094E-15,-8.75));
#357 = LINE('',#358,#359);
#358 = CARTESIAN_POINT('',(26.75,1.942890293094E-15,-8.75));
#359 = VECTOR('',#360,1.);
#360 = DIRECTION('',(0.,1.,2.22044604925E-16));
#361 = ORIENTED_EDGE('',*,*,#308,.F.);
#362 = ORIENTED_EDGE('',*,*,#55,.T.);
#363 = ORIENTED_EDGE('',*,*,#364,.F.);
#364 = EDGE_CURVE('',#365,#56,#367,.T.);
#365 = VERTEX_POINT('',#366);
#366 = CARTESIAN_POINT('',(26.75,-3.155443620884E-30,-32.25));
#367 = LINE('',#368,#369);
#368 = CARTESIAN_POINT('',(26.75,7.160938508832E-15,-32.25));
#369 = VECTOR('',#370,1.);
#370 = DIRECTION('',(0.,1.,2.22044604925E-16));
#371 = ORIENTED_EDGE('',*,*,#372,.T.);
#372 = EDGE_CURVE('',#365,#355,#373,.T.);
#373 = LINE('',#374,#375);
#374 = CARTESIAN_POINT('',(26.75,-7.160938508832E-15,-32.25));
#375 = VECTOR('',#376,1.);
#376 = DIRECTION('',(0.,2.22044604925E-16,1.));
#377 = PLANE('',#378);
#378 = AXIS2_PLACEMENT_3D('',#379,#380,#381);
#379 = CARTESIAN_POINT('',(26.75,1.942890293094E-15,-8.75));
#380 = DIRECTION('',(-1.,0.,0.));
#381 = DIRECTION('',(0.,2.22044604925E-16,-1.));
#382 = ADVANCED_FACE('',(#383,#394,#405),#416,.F.);
#383 = FACE_BOUND('',#384,.F.);
#384 = EDGE_LOOP('',(#385,#386,#387,#388));
#385 = ORIENTED_EDGE('',*,*,#364,.T.);
#386 = ORIENTED_EDGE('',*,*,#63,.T.);
#387 = ORIENTED_EDGE('',*,*,#330,.F.);
#388 = ORIENTED_EDGE('',*,*,#389,.T.);
#389 = EDGE_CURVE('',#331,#365,#390,.T.);
#390 = LINE('',#391,#392);
#391 = CARTESIAN_POINT('',(-26.75,-7.160938508832E-15,-32.25));
#392 = VECTOR('',#393,1.);
#393 = DIRECTION('',(1.,0.,0.));
#394 = FACE_BOUND('',#395,.F.);
#395 = EDGE_LOOP('',(#396));
#396 = ORIENTED_EDGE('',*,*,#397,.F.);
#397 = EDGE_CURVE('',#398,#398,#400,.T.);
#398 = VERTEX_POINT('',#399);
#399 = CARTESIAN_POINT('',(18.75,7.559246,-32.25));
#400 = CIRCLE('',#401,1.75);
#401 = AXIS2_PLACEMENT_3D('',#402,#403,#404);
#402 = CARTESIAN_POINT('',(17.,7.559246,-32.25));
#403 = DIRECTION('',(-0.,4.930380657631E-32,1.));
#404 = DIRECTION('',(1.,0.,0.));
#405 = FACE_BOUND('',#406,.F.);
#406 = EDGE_LOOP('',(#407));
#407 = ORIENTED_EDGE('',*,*,#408,.F.);
#408 = EDGE_CURVE('',#409,#409,#411,.T.);
#409 = VERTEX_POINT('',#410);
#410 = CARTESIAN_POINT('',(-15.25,7.559246,-32.25));
#411 = CIRCLE('',#412,1.75);
#412 = AXIS2_PLACEMENT_3D('',#413,#414,#415);
#413 = CARTESIAN_POINT('',(-17.,7.559246,-32.25));
#414 = DIRECTION('',(-0.,4.930380657631E-32,1.));
#415 = DIRECTION('',(1.,0.,0.));
#416 = PLANE('',#417);
#417 = AXIS2_PLACEMENT_3D('',#418,#419,#420);
#418 = CARTESIAN_POINT('',(26.75,7.160938508832E-15,-32.25));
#419 = DIRECTION('',(0.,-2.22044604925E-16,1.));
#420 = DIRECTION('',(-1.,0.,0.));
#421 = ADVANCED_FACE('',(#422),#433,.F.);
#422 = FACE_BOUND('',#423,.F.);
#423 = EDGE_LOOP('',(#424,#425,#426,#427));
#424 = ORIENTED_EDGE('',*,*,#207,.T.);
#425 = ORIENTED_EDGE('',*,*,#158,.T.);
#426 = ORIENTED_EDGE('',*,*,#109,.F.);
#427 = ORIENTED_EDGE('',*,*,#428,.F.);
#428 = EDGE_CURVE('',#208,#110,#429,.T.);
#429 = LINE('',#430,#431);
#430 = CARTESIAN_POINT('',(-15.,-3.885780586188E-15,-17.5));
#431 = VECTOR('',#432,1.);
#432 = DIRECTION('',(1.,0.,0.));
#433 = PLANE('',#434);
#434 = AXIS2_PLACEMENT_3D('',#435,#436,#437);
#435 = CARTESIAN_POINT('',(-10.25,3.885780586188E-15,-17.5));
#436 = DIRECTION('',(0.,2.22044604925E-16,-1.));
#437 = DIRECTION('',(1.,0.,0.));
#438 = ADVANCED_FACE('',(#439,#512,#523,#534,#568,#602,#636),#647,.T.);
#439 = FACE_BOUND('',#440,.T.);
#440 = EDGE_LOOP('',(#441,#442,#450,#458,#464,#470,#471,#472,#473,#481,
    #489,#497,#505,#511));
#441 = ORIENTED_EDGE('',*,*,#281,.F.);
#442 = ORIENTED_EDGE('',*,*,#443,.F.);
#443 = EDGE_CURVE('',#444,#272,#446,.T.);
#444 = VERTEX_POINT('',#445);
#445 = CARTESIAN_POINT('',(-26.75,1.482147737875E-14,66.75));
#446 = LINE('',#447,#448);
#447 = CARTESIAN_POINT('',(-26.75,1.482147737875E-14,66.75));
#448 = VECTOR('',#449,1.);
#449 = DIRECTION('',(0.,-2.22044604925E-16,-1.));
#450 = ORIENTED_EDGE('',*,*,#451,.F.);
#451 = EDGE_CURVE('',#452,#444,#454,.T.);
#452 = VERTEX_POINT('',#453);
#453 = CARTESIAN_POINT('',(26.75,1.482147737875E-14,66.75));
#454 = LINE('',#455,#456);
#455 = CARTESIAN_POINT('',(26.75,1.482147737875E-14,66.75));
#456 = VECTOR('',#457,1.);
#457 = DIRECTION('',(-1.,0.,0.));
#458 = ORIENTED_EDGE('',*,*,#459,.F.);
#459 = EDGE_CURVE('',#355,#452,#460,.T.);
#460 = LINE('',#461,#462);
#461 = CARTESIAN_POINT('',(26.75,-7.160938508832E-15,-32.25));
#462 = VECTOR('',#463,1.);
#463 = DIRECTION('',(0.,2.22044604925E-16,1.));
#464 = ORIENTED_EDGE('',*,*,#465,.F.);
#465 = EDGE_CURVE('',#240,#355,#466,.T.);
#466 = LINE('',#467,#468);
#467 = CARTESIAN_POINT('',(22.25,1.942890293094E-15,-8.75));
#468 = VECTOR('',#469,1.);
#469 = DIRECTION('',(1.,0.,0.));
#470 = ORIENTED_EDGE('',*,*,#249,.F.);
#471 = ORIENTED_EDGE('',*,*,#182,.F.);
#472 = ORIENTED_EDGE('',*,*,#134,.F.);
#473 = ORIENTED_EDGE('',*,*,#474,.T.);
#474 = EDGE_CURVE('',#110,#475,#477,.T.);
#475 = VERTEX_POINT('',#476);
#476 = CARTESIAN_POINT('',(15.,-3.885780586188E-15,-17.5));
#477 = LINE('',#478,#479);
#478 = CARTESIAN_POINT('',(-15.,-3.885780586188E-15,-17.5));
#479 = VECTOR('',#480,1.);
#480 = DIRECTION('',(1.,0.,0.));
#481 = ORIENTED_EDGE('',*,*,#482,.T.);
#482 = EDGE_CURVE('',#475,#483,#485,.T.);
#483 = VERTEX_POINT('',#484);
#484 = CARTESIAN_POINT('',(15.,3.885780586188E-15,17.5));
#485 = LINE('',#486,#487);
#486 = CARTESIAN_POINT('',(15.,-3.885780586188E-15,-17.5));
#487 = VECTOR('',#488,1.);
#488 = DIRECTION('',(0.,2.22044604925E-16,1.));
#489 = ORIENTED_EDGE('',*,*,#490,.T.);
#490 = EDGE_CURVE('',#483,#491,#493,.T.);
#491 = VERTEX_POINT('',#492);
#492 = CARTESIAN_POINT('',(-15.,3.885780586188E-15,17.5));
#493 = LINE('',#494,#495);
#494 = CARTESIAN_POINT('',(15.,3.885780586188E-15,17.5));
#495 = VECTOR('',#496,1.);
#496 = DIRECTION('',(-1.,0.,0.));
#497 = ORIENTED_EDGE('',*,*,#498,.T.);
#498 = EDGE_CURVE('',#491,#499,#501,.T.);
#499 = VERTEX_POINT('',#500);
#500 = CARTESIAN_POINT('',(-15.,-3.885780586188E-15,-17.5));
#501 = LINE('',#502,#503);
#502 = CARTESIAN_POINT('',(-15.,3.885780586188E-15,17.5));
#503 = VECTOR('',#504,1.);
#504 = DIRECTION('',(0.,-2.22044604925E-16,-1.));
#505 = ORIENTED_EDGE('',*,*,#506,.T.);
#506 = EDGE_CURVE('',#499,#208,#507,.T.);
#507 = LINE('',#508,#509);
#508 = CARTESIAN_POINT('',(-15.,-3.885780586188E-15,-17.5));
#509 = VECTOR('',#510,1.);
#510 = DIRECTION('',(1.,0.,0.));
#511 = ORIENTED_EDGE('',*,*,#215,.F.);
#512 = FACE_BOUND('',#513,.T.);
#513 = EDGE_LOOP('',(#514));
#514 = ORIENTED_EDGE('',*,*,#515,.T.);
#515 = EDGE_CURVE('',#516,#516,#518,.T.);
#516 = VERTEX_POINT('',#517);
#517 = CARTESIAN_POINT('',(-19.25,-4.940492459582E-15,-22.25));
#518 = CIRCLE('',#519,1.5);
#519 = AXIS2_PLACEMENT_3D('',#520,#521,#522);
#520 = CARTESIAN_POINT('',(-20.75,-4.940492459582E-15,-22.25));
#521 = DIRECTION('',(0.,-1.,2.22044604925E-16));
#522 = DIRECTION('',(1.,0.,0.));
#523 = FACE_BOUND('',#524,.T.);
#524 = EDGE_LOOP('',(#525));
#525 = ORIENTED_EDGE('',*,*,#526,.T.);
#526 = EDGE_CURVE('',#527,#527,#529,.T.);
#527 = VERTEX_POINT('',#528);
#528 = CARTESIAN_POINT('',(-19.25,4.940492459582E-15,22.25));
#529 = CIRCLE('',#530,1.5);
#530 = AXIS2_PLACEMENT_3D('',#531,#532,#533);
#531 = CARTESIAN_POINT('',(-20.75,4.940492459582E-15,22.25));
#532 = DIRECTION('',(0.,-1.,2.22044604925E-16));
#533 = DIRECTION('',(1.,0.,0.));
#534 = FACE_BOUND('',#535,.T.);
#535 = EDGE_LOOP('',(#536,#546,#554,#562));
#536 = ORIENTED_EDGE('',*,*,#537,.T.);
#537 = EDGE_CURVE('',#538,#540,#542,.T.);
#538 = VERTEX_POINT('',#539);
#539 = CARTESIAN_POINT('',(-17.75,1.43773881689E-14,64.75));
#540 = VERTEX_POINT('',#541);
#541 = CARTESIAN_POINT('',(-17.75,1.26010313295E-14,56.75));
#542 = LINE('',#543,#544);
#543 = CARTESIAN_POINT('',(-17.75,1.43773881689E-14,64.75));
#544 = VECTOR('',#545,1.);
#545 = DIRECTION('',(0.,-2.22044604925E-16,-1.));
#546 = ORIENTED_EDGE('',*,*,#547,.T.);
#547 = EDGE_CURVE('',#540,#548,#550,.T.);
#548 = VERTEX_POINT('',#549);
#549 = CARTESIAN_POINT('',(-14.75,1.26010313295E-14,56.75));
#550 = LINE('',#551,#552);
#551 = CARTESIAN_POINT('',(-17.75,1.26010313295E-14,56.75));
#552 = VECTOR('',#553,1.);
#553 = DIRECTION('',(1.,0.,0.));
#554 = ORIENTED_EDGE('',*,*,#555,.T.);
#555 = EDGE_CURVE('',#548,#556,#558,.T.);
#556 = VERTEX_POINT('',#557);
#557 = CARTESIAN_POINT('',(-14.75,1.43773881689E-14,64.75));
#558 = LINE('',#559,#560);
#559 = CARTESIAN_POINT('',(-14.75,1.26010313295E-14,56.75));
#560 = VECTOR('',#561,1.);
#561 = DIRECTION('',(0.,2.22044604925E-16,1.));
#562 = ORIENTED_EDGE('',*,*,#563,.T.);
#563 = EDGE_CURVE('',#556,#538,#564,.T.);
#564 = LINE('',#565,#566);
#565 = CARTESIAN_POINT('',(-14.75,1.43773881689E-14,64.75));
#566 = VECTOR('',#567,1.);
#567 = DIRECTION('',(-1.,0.,0.));
#568 = FACE_BOUND('',#569,.T.);
#569 = EDGE_LOOP('',(#570,#580,#588,#596));
#570 = ORIENTED_EDGE('',*,*,#571,.T.);
#571 = EDGE_CURVE('',#572,#574,#576,.T.);
#572 = VERTEX_POINT('',#573);
#573 = CARTESIAN_POINT('',(-9.75,1.43773881689E-14,64.75));
#574 = VERTEX_POINT('',#575);
#575 = CARTESIAN_POINT('',(-9.75,1.26010313295E-14,56.75));
#576 = LINE('',#577,#578);
#577 = CARTESIAN_POINT('',(-9.75,1.43773881689E-14,64.75));
#578 = VECTOR('',#579,1.);
#579 = DIRECTION('',(0.,-2.22044604925E-16,-1.));
#580 = ORIENTED_EDGE('',*,*,#581,.T.);
#581 = EDGE_CURVE('',#574,#582,#584,.T.);
#582 = VERTEX_POINT('',#583);
#583 = CARTESIAN_POINT('',(-6.75,1.26010313295E-14,56.75));
#584 = LINE('',#585,#586);
#585 = CARTESIAN_POINT('',(-9.75,1.26010313295E-14,56.75));
#586 = VECTOR('',#587,1.);
#587 = DIRECTION('',(1.,0.,0.));
#588 = ORIENTED_EDGE('',*,*,#589,.T.);
#589 = EDGE_CURVE('',#582,#590,#592,.T.);
#590 = VERTEX_POINT('',#591);
#591 = CARTESIAN_POINT('',(-6.75,1.43773881689E-14,64.75));
#592 = LINE('',#593,#594);
#593 = CARTESIAN_POINT('',(-6.75,1.26010313295E-14,56.75));
#594 = VECTOR('',#595,1.);
#595 = DIRECTION('',(0.,2.22044604925E-16,1.));
#596 = ORIENTED_EDGE('',*,*,#597,.T.);
#597 = EDGE_CURVE('',#590,#572,#598,.T.);
#598 = LINE('',#599,#600);
#599 = CARTESIAN_POINT('',(-6.75,1.43773881689E-14,64.75));
#600 = VECTOR('',#601,1.);
#601 = DIRECTION('',(-1.,0.,0.));
#602 = FACE_BOUND('',#603,.T.);
#603 = EDGE_LOOP('',(#604,#614,#622,#630));
#604 = ORIENTED_EDGE('',*,*,#605,.T.);
#605 = EDGE_CURVE('',#606,#608,#610,.T.);
#606 = VERTEX_POINT('',#607);
#607 = CARTESIAN_POINT('',(-20.75,1.149080830487E-14,51.75));
#608 = VERTEX_POINT('',#609);
#609 = CARTESIAN_POINT('',(-20.75,7.716050021145E-15,34.75));
#610 = LINE('',#611,#612);
#611 = CARTESIAN_POINT('',(-20.75,1.149080830487E-14,51.75));
#612 = VECTOR('',#613,1.);
#613 = DIRECTION('',(0.,-2.22044604925E-16,-1.));
#614 = ORIENTED_EDGE('',*,*,#615,.T.);
#615 = EDGE_CURVE('',#608,#616,#618,.T.);
#616 = VERTEX_POINT('',#617);
#617 = CARTESIAN_POINT('',(20.75,7.716050021145E-15,34.75));
#618 = LINE('',#619,#620);
#619 = CARTESIAN_POINT('',(-20.75,7.716050021145E-15,34.75));
#620 = VECTOR('',#621,1.);
#621 = DIRECTION('',(1.,0.,0.));
#622 = ORIENTED_EDGE('',*,*,#623,.T.);
#623 = EDGE_CURVE('',#616,#624,#626,.T.);
#624 = VERTEX_POINT('',#625);
#625 = CARTESIAN_POINT('',(20.75,1.149080830487E-14,51.75));
#626 = LINE('',#627,#628);
#627 = CARTESIAN_POINT('',(20.75,7.716050021145E-15,34.75));
#628 = VECTOR('',#629,1.);
#629 = DIRECTION('',(0.,2.22044604925E-16,1.));
#630 = ORIENTED_EDGE('',*,*,#631,.T.);
#631 = EDGE_CURVE('',#624,#606,#632,.T.);
#632 = LINE('',#633,#634);
#633 = CARTESIAN_POINT('',(20.75,1.149080830487E-14,51.75));
#634 = VECTOR('',#635,1.);
#635 = DIRECTION('',(-1.,0.,0.));
#636 = FACE_BOUND('',#637,.T.);
#637 = EDGE_LOOP('',(#638));
#638 = ORIENTED_EDGE('',*,*,#639,.T.);
#639 = EDGE_CURVE('',#640,#640,#642,.T.);
#640 = VERTEX_POINT('',#641);
#641 = CARTESIAN_POINT('',(22.25,4.940492459582E-15,22.25));
#642 = CIRCLE('',#643,1.5);
#643 = AXIS2_PLACEMENT_3D('',#644,#645,#646);
#644 = CARTESIAN_POINT('',(20.75,4.940492459582E-15,22.25));
#645 = DIRECTION('',(0.,-1.,2.22044604925E-16));
#646 = DIRECTION('',(1.,0.,0.));
#647 = PLANE('',#648);
#648 = AXIS2_PLACEMENT_3D('',#649,#650,#651);
#649 = CARTESIAN_POINT('',(-1.131336506664,4.720612979735E-15,
    21.259750856496));
#650 = DIRECTION('',(0.,1.,-2.22044604925E-16));
#651 = DIRECTION('',(0.,2.22044604925E-16,1.));
#652 = ADVANCED_FACE('',(#653),#664,.F.);
#653 = FACE_BOUND('',#654,.F.);
#654 = EDGE_LOOP('',(#655,#656,#662,#663));
#655 = ORIENTED_EDGE('',*,*,#190,.F.);
#656 = ORIENTED_EDGE('',*,*,#657,.T.);
#657 = EDGE_CURVE('',#191,#398,#658,.T.);
#658 = LINE('',#659,#660);
#659 = CARTESIAN_POINT('',(18.75,7.559246,-3.944304526105E-31));
#660 = VECTOR('',#661,1.);
#661 = DIRECTION('',(0.,-4.930380657631E-32,-1.));
#662 = ORIENTED_EDGE('',*,*,#397,.T.);
#663 = ORIENTED_EDGE('',*,*,#657,.F.);
#664 = CYLINDRICAL_SURFACE('',#665,1.75);
#665 = AXIS2_PLACEMENT_3D('',#666,#667,#668);
#666 = CARTESIAN_POINT('',(17.,7.559246,-3.944304526105E-31));
#667 = DIRECTION('',(0.,4.930380657631E-32,1.));
#668 = DIRECTION('',(1.,0.,0.));
#669 = ADVANCED_FACE('',(#670),#676,.F.);
#670 = FACE_BOUND('',#671,.F.);
#671 = EDGE_LOOP('',(#672,#673,#674,#675));
#672 = ORIENTED_EDGE('',*,*,#239,.T.);
#673 = ORIENTED_EDGE('',*,*,#316,.T.);
#674 = ORIENTED_EDGE('',*,*,#354,.F.);
#675 = ORIENTED_EDGE('',*,*,#465,.F.);
#676 = PLANE('',#677);
#677 = AXIS2_PLACEMENT_3D('',#678,#679,#680);
#678 = CARTESIAN_POINT('',(22.25,1.942890293094E-15,-8.75));
#679 = DIRECTION('',(0.,2.22044604925E-16,-1.));
#680 = DIRECTION('',(1.,0.,0.));
#681 = ADVANCED_FACE('',(#682),#693,.F.);
#682 = FACE_BOUND('',#683,.F.);
#683 = EDGE_LOOP('',(#684,#685,#691,#692));
#684 = ORIENTED_EDGE('',*,*,#289,.F.);
#685 = ORIENTED_EDGE('',*,*,#686,.T.);
#686 = EDGE_CURVE('',#290,#409,#687,.T.);
#687 = LINE('',#688,#689);
#688 = CARTESIAN_POINT('',(-15.25,7.559246,-3.944304526105E-31));
#689 = VECTOR('',#690,1.);
#690 = DIRECTION('',(0.,-4.930380657631E-32,-1.));
#691 = ORIENTED_EDGE('',*,*,#408,.T.);
#692 = ORIENTED_EDGE('',*,*,#686,.F.);
#693 = CYLINDRICAL_SURFACE('',#694,1.75);
#694 = AXIS2_PLACEMENT_3D('',#695,#696,#697);
#695 = CARTESIAN_POINT('',(-17.,7.559246,-3.944304526105E-31));
#696 = DIRECTION('',(0.,4.930380657631E-32,1.));
#697 = DIRECTION('',(1.,0.,0.));
#698 = ADVANCED_FACE('',(#699),#725,.F.);
#699 = FACE_BOUND('',#700,.F.);
#700 = EDGE_LOOP('',(#701,#709,#717,#723,#724));
#701 = ORIENTED_EDGE('',*,*,#702,.T.);
#702 = EDGE_CURVE('',#444,#703,#705,.T.);
#703 = VERTEX_POINT('',#704);
#704 = CARTESIAN_POINT('',(-26.75,-4.,66.75));
#705 = LINE('',#706,#707);
#706 = CARTESIAN_POINT('',(-26.75,1.482147737875E-14,66.75));
#707 = VECTOR('',#708,1.);
#708 = DIRECTION('',(0.,-1.,2.22044604925E-16));
#709 = ORIENTED_EDGE('',*,*,#710,.T.);
#710 = EDGE_CURVE('',#703,#711,#713,.T.);
#711 = VERTEX_POINT('',#712);
#712 = CARTESIAN_POINT('',(-26.75,-4.,-32.25));
#713 = LINE('',#714,#715);
#714 = CARTESIAN_POINT('',(-26.75,-4.,66.75));
#715 = VECTOR('',#716,1.);
#716 = DIRECTION('',(0.,-2.22044604925E-16,-1.));
#717 = ORIENTED_EDGE('',*,*,#718,.F.);
#718 = EDGE_CURVE('',#331,#711,#719,.T.);
#719 = LINE('',#720,#721);
#720 = CARTESIAN_POINT('',(-26.75,-7.160938508832E-15,-32.25));
#721 = VECTOR('',#722,1.);
#722 = DIRECTION('',(0.,-1.,2.22044604925E-16));
#723 = ORIENTED_EDGE('',*,*,#340,.F.);
#724 = ORIENTED_EDGE('',*,*,#443,.F.);
#725 = PLANE('',#726);
#726 = AXIS2_PLACEMENT_3D('',#727,#728,#729);
#727 = CARTESIAN_POINT('',(-26.75,1.482147737875E-14,66.75));
#728 = DIRECTION('',(1.,0.,0.));
#729 = DIRECTION('',(0.,-2.22044604925E-16,-1.));
#730 = ADVANCED_FACE('',(#731),#757,.F.);
#731 = FACE_BOUND('',#732,.F.);
#732 = EDGE_LOOP('',(#733,#741,#749,#755,#756));
#733 = ORIENTED_EDGE('',*,*,#734,.T.);
#734 = EDGE_CURVE('',#365,#735,#737,.T.);
#735 = VERTEX_POINT('',#736);
#736 = CARTESIAN_POINT('',(26.75,-4.,-32.25));
#737 = LINE('',#738,#739);
#738 = CARTESIAN_POINT('',(26.75,-7.160938508832E-15,-32.25));
#739 = VECTOR('',#740,1.);
#740 = DIRECTION('',(0.,-1.,2.22044604925E-16));
#741 = ORIENTED_EDGE('',*,*,#742,.T.);
#742 = EDGE_CURVE('',#735,#743,#745,.T.);
#743 = VERTEX_POINT('',#744);
#744 = CARTESIAN_POINT('',(26.75,-4.,66.75));
#745 = LINE('',#746,#747);
#746 = CARTESIAN_POINT('',(26.75,-4.,-32.25));
#747 = VECTOR('',#748,1.);
#748 = DIRECTION('',(0.,2.22044604925E-16,1.));
#749 = ORIENTED_EDGE('',*,*,#750,.F.);
#750 = EDGE_CURVE('',#452,#743,#751,.T.);
#751 = LINE('',#752,#753);
#752 = CARTESIAN_POINT('',(26.75,1.482147737875E-14,66.75));
#753 = VECTOR('',#754,1.);
#754 = DIRECTION('',(0.,-1.,2.22044604925E-16));
#755 = ORIENTED_EDGE('',*,*,#459,.F.);
#756 = ORIENTED_EDGE('',*,*,#372,.F.);
#757 = PLANE('',#758);
#758 = AXIS2_PLACEMENT_3D('',#759,#760,#761);
#759 = CARTESIAN_POINT('',(26.75,-7.160938508832E-15,-32.25));
#760 = DIRECTION('',(-1.,0.,0.));
#761 = DIRECTION('',(0.,2.22044604925E-16,1.));
#762 = ADVANCED_FACE('',(#763),#774,.F.);
#763 = FACE_BOUND('',#764,.F.);
#764 = EDGE_LOOP('',(#765,#766,#772,#773));
#765 = ORIENTED_EDGE('',*,*,#718,.T.);
#766 = ORIENTED_EDGE('',*,*,#767,.T.);
#767 = EDGE_CURVE('',#711,#735,#768,.T.);
#768 = LINE('',#769,#770);
#769 = CARTESIAN_POINT('',(-26.75,-4.,-32.25));
#770 = VECTOR('',#771,1.);
#771 = DIRECTION('',(1.,0.,0.));
#772 = ORIENTED_EDGE('',*,*,#734,.F.);
#773 = ORIENTED_EDGE('',*,*,#389,.F.);
#774 = PLANE('',#775);
#775 = AXIS2_PLACEMENT_3D('',#776,#777,#778);
#776 = CARTESIAN_POINT('',(-26.75,-7.160938508832E-15,-32.25));
#777 = DIRECTION('',(0.,2.22044604925E-16,1.));
#778 = DIRECTION('',(1.,0.,0.));
#779 = ADVANCED_FACE('',(#780),#807,.T.);
#780 = FACE_BOUND('',#781,.T.);
#781 = EDGE_LOOP('',(#782,#790,#798,#804,#805,#806));
#782 = ORIENTED_EDGE('',*,*,#783,.T.);
#783 = EDGE_CURVE('',#499,#784,#786,.T.);
#784 = VERTEX_POINT('',#785);
#785 = CARTESIAN_POINT('',(-15.,-4.,-17.5));
#786 = LINE('',#787,#788);
#787 = CARTESIAN_POINT('',(-15.,-3.885780586188E-15,-17.5));
#788 = VECTOR('',#789,1.);
#789 = DIRECTION('',(0.,-1.,2.22044604925E-16));
#790 = ORIENTED_EDGE('',*,*,#791,.T.);
#791 = EDGE_CURVE('',#784,#792,#794,.T.);
#792 = VERTEX_POINT('',#793);
#793 = CARTESIAN_POINT('',(15.,-4.,-17.5));
#794 = LINE('',#795,#796);
#795 = CARTESIAN_POINT('',(-15.,-4.,-17.5));
#796 = VECTOR('',#797,1.);
#797 = DIRECTION('',(1.,0.,0.));
#798 = ORIENTED_EDGE('',*,*,#799,.F.);
#799 = EDGE_CURVE('',#475,#792,#800,.T.);
#800 = LINE('',#801,#802);
#801 = CARTESIAN_POINT('',(15.,-3.885780586188E-15,-17.5));
#802 = VECTOR('',#803,1.);
#803 = DIRECTION('',(0.,-1.,2.22044604925E-16));
#804 = ORIENTED_EDGE('',*,*,#474,.F.);
#805 = ORIENTED_EDGE('',*,*,#428,.F.);
#806 = ORIENTED_EDGE('',*,*,#506,.F.);
#807 = PLANE('',#808);
#808 = AXIS2_PLACEMENT_3D('',#809,#810,#811);
#809 = CARTESIAN_POINT('',(-15.,-3.885780586188E-15,-17.5));
#810 = DIRECTION('',(0.,2.22044604925E-16,1.));
#811 = DIRECTION('',(1.,0.,0.));
#812 = ADVANCED_FACE('',(#813),#831,.T.);
#813 = FACE_BOUND('',#814,.T.);
#814 = EDGE_LOOP('',(#815,#823,#829,#830));
#815 = ORIENTED_EDGE('',*,*,#816,.T.);
#816 = EDGE_CURVE('',#491,#817,#819,.T.);
#817 = VERTEX_POINT('',#818);
#818 = CARTESIAN_POINT('',(-15.,-4.,17.5));
#819 = LINE('',#820,#821);
#820 = CARTESIAN_POINT('',(-15.,3.885780586188E-15,17.5));
#821 = VECTOR('',#822,1.);
#822 = DIRECTION('',(0.,-1.,2.22044604925E-16));
#823 = ORIENTED_EDGE('',*,*,#824,.T.);
#824 = EDGE_CURVE('',#817,#784,#825,.T.);
#825 = LINE('',#826,#827);
#826 = CARTESIAN_POINT('',(-15.,-4.,17.5));
#827 = VECTOR('',#828,1.);
#828 = DIRECTION('',(0.,-2.22044604925E-16,-1.));
#829 = ORIENTED_EDGE('',*,*,#783,.F.);
#830 = ORIENTED_EDGE('',*,*,#498,.F.);
#831 = PLANE('',#832);
#832 = AXIS2_PLACEMENT_3D('',#833,#834,#835);
#833 = CARTESIAN_POINT('',(-15.,3.885780586188E-15,17.5));
#834 = DIRECTION('',(1.,0.,0.));
#835 = DIRECTION('',(0.,-2.22044604925E-16,-1.));
#836 = ADVANCED_FACE('',(#837),#855,.T.);
#837 = FACE_BOUND('',#838,.T.);
#838 = EDGE_LOOP('',(#839,#847,#853,#854));
#839 = ORIENTED_EDGE('',*,*,#840,.T.);
#840 = EDGE_CURVE('',#483,#841,#843,.T.);
#841 = VERTEX_POINT('',#842);
#842 = CARTESIAN_POINT('',(15.,-4.,17.5));
#843 = LINE('',#844,#845);
#844 = CARTESIAN_POINT('',(15.,3.885780586188E-15,17.5));
#845 = VECTOR('',#846,1.);
#846 = DIRECTION('',(0.,-1.,2.22044604925E-16));
#847 = ORIENTED_EDGE('',*,*,#848,.T.);
#848 = EDGE_CURVE('',#841,#817,#849,.T.);
#849 = LINE('',#850,#851);
#850 = CARTESIAN_POINT('',(15.,-4.,17.5));
#851 = VECTOR('',#852,1.);
#852 = DIRECTION('',(-1.,0.,0.));
#853 = ORIENTED_EDGE('',*,*,#816,.F.);
#854 = ORIENTED_EDGE('',*,*,#490,.F.);
#855 = PLANE('',#856);
#856 = AXIS2_PLACEMENT_3D('',#857,#858,#859);
#857 = CARTESIAN_POINT('',(15.,3.885780586188E-15,17.5));
#858 = DIRECTION('',(0.,-2.22044604925E-16,-1.));
#859 = DIRECTION('',(-1.,0.,0.));
#860 = ADVANCED_FACE('',(#861),#872,.T.);
#861 = FACE_BOUND('',#862,.T.);
#862 = EDGE_LOOP('',(#863,#864,#870,#871));
#863 = ORIENTED_EDGE('',*,*,#799,.T.);
#864 = ORIENTED_EDGE('',*,*,#865,.T.);
#865 = EDGE_CURVE('',#792,#841,#866,.T.);
#866 = LINE('',#867,#868);
#867 = CARTESIAN_POINT('',(15.,-4.,-17.5));
#868 = VECTOR('',#869,1.);
#869 = DIRECTION('',(0.,2.22044604925E-16,1.));
#870 = ORIENTED_EDGE('',*,*,#840,.F.);
#871 = ORIENTED_EDGE('',*,*,#482,.F.);
#872 = PLANE('',#873);
#873 = AXIS2_PLACEMENT_3D('',#874,#875,#876);
#874 = CARTESIAN_POINT('',(15.,-3.885780586188E-15,-17.5));
#875 = DIRECTION('',(-1.,0.,0.));
#876 = DIRECTION('',(0.,2.22044604925E-16,1.));
#877 = ADVANCED_FACE('',(#878),#889,.F.);
#878 = FACE_BOUND('',#879,.F.);
#879 = EDGE_LOOP('',(#880,#881,#887,#888));
#880 = ORIENTED_EDGE('',*,*,#750,.T.);
#881 = ORIENTED_EDGE('',*,*,#882,.T.);
#882 = EDGE_CURVE('',#743,#703,#883,.T.);
#883 = LINE('',#884,#885);
#884 = CARTESIAN_POINT('',(26.75,-4.,66.75));
#885 = VECTOR('',#886,1.);
#886 = DIRECTION('',(-1.,0.,0.));
#887 = ORIENTED_EDGE('',*,*,#702,.F.);
#888 = ORIENTED_EDGE('',*,*,#451,.F.);
#889 = PLANE('',#890);
#890 = AXIS2_PLACEMENT_3D('',#891,#892,#893);
#891 = CARTESIAN_POINT('',(26.75,1.482147737875E-14,66.75));
#892 = DIRECTION('',(0.,-2.22044604925E-16,-1.));
#893 = DIRECTION('',(-1.,0.,0.));
#894 = ADVANCED_FACE('',(#895),#914,.F.);
#895 = FACE_BOUND('',#896,.T.);
#896 = EDGE_LOOP('',(#897,#905,#912,#913));
#897 = ORIENTED_EDGE('',*,*,#898,.T.);
#898 = EDGE_CURVE('',#516,#899,#901,.T.);
#899 = VERTEX_POINT('',#900);
#900 = CARTESIAN_POINT('',(-19.25,-4.,-22.25));
#901 = LINE('',#902,#903);
#902 = CARTESIAN_POINT('',(-19.25,-4.940492459582E-15,-22.25));
#903 = VECTOR('',#904,1.);
#904 = DIRECTION('',(0.,-1.,2.22044604925E-16));
#905 = ORIENTED_EDGE('',*,*,#906,.T.);
#906 = EDGE_CURVE('',#899,#899,#907,.T.);
#907 = CIRCLE('',#908,1.5);
#908 = AXIS2_PLACEMENT_3D('',#909,#910,#911);
#909 = CARTESIAN_POINT('',(-20.75,-4.,-22.25));
#910 = DIRECTION('',(0.,-1.,2.22044604925E-16));
#911 = DIRECTION('',(1.,0.,0.));
#912 = ORIENTED_EDGE('',*,*,#898,.F.);
#913 = ORIENTED_EDGE('',*,*,#515,.F.);
#914 = CYLINDRICAL_SURFACE('',#915,1.5);
#915 = AXIS2_PLACEMENT_3D('',#916,#917,#918);
#916 = CARTESIAN_POINT('',(-20.75,-4.940492459582E-15,-22.25));
#917 = DIRECTION('',(0.,1.,-2.22044604925E-16));
#918 = DIRECTION('',(1.,0.,0.));
#919 = ADVANCED_FACE('',(#920),#939,.F.);
#920 = FACE_BOUND('',#921,.T.);
#921 = EDGE_LOOP('',(#922,#930,#937,#938));
#922 = ORIENTED_EDGE('',*,*,#923,.T.);
#923 = EDGE_CURVE('',#527,#924,#926,.T.);
#924 = VERTEX_POINT('',#925);
#925 = CARTESIAN_POINT('',(-19.25,-4.,22.25));
#926 = LINE('',#927,#928);
#927 = CARTESIAN_POINT('',(-19.25,4.940492459582E-15,22.25));
#928 = VECTOR('',#929,1.);
#929 = DIRECTION('',(0.,-1.,2.22044604925E-16));
#930 = ORIENTED_EDGE('',*,*,#931,.T.);
#931 = EDGE_CURVE('',#924,#924,#932,.T.);
#932 = CIRCLE('',#933,1.5);
#933 = AXIS2_PLACEMENT_3D('',#934,#935,#936);
#934 = CARTESIAN_POINT('',(-20.75,-4.,22.25));
#935 = DIRECTION('',(0.,-1.,2.22044604925E-16));
#936 = DIRECTION('',(1.,0.,0.));
#937 = ORIENTED_EDGE('',*,*,#923,.F.);
#938 = ORIENTED_EDGE('',*,*,#526,.F.);
#939 = CYLINDRICAL_SURFACE('',#940,1.5);
#940 = AXIS2_PLACEMENT_3D('',#941,#942,#943);
#941 = CARTESIAN_POINT('',(-20.75,4.940492459582E-15,22.25));
#942 = DIRECTION('',(0.,1.,-2.22044604925E-16));
#943 = DIRECTION('',(1.,0.,0.));
#944 = ADVANCED_FACE('',(#945),#970,.T.);
#945 = FACE_BOUND('',#946,.T.);
#946 = EDGE_LOOP('',(#947,#955,#963,#969));
#947 = ORIENTED_EDGE('',*,*,#948,.T.);
#948 = EDGE_CURVE('',#538,#949,#951,.T.);
#949 = VERTEX_POINT('',#950);
#950 = CARTESIAN_POINT('',(-17.75,-4.,64.75));
#951 = LINE('',#952,#953);
#952 = CARTESIAN_POINT('',(-17.75,1.43773881689E-14,64.75));
#953 = VECTOR('',#954,1.);
#954 = DIRECTION('',(0.,-1.,2.22044604925E-16));
#955 = ORIENTED_EDGE('',*,*,#956,.T.);
#956 = EDGE_CURVE('',#949,#957,#959,.T.);
#957 = VERTEX_POINT('',#958);
#958 = CARTESIAN_POINT('',(-17.75,-4.,56.75));
#959 = LINE('',#960,#961);
#960 = CARTESIAN_POINT('',(-17.75,-4.,64.75));
#961 = VECTOR('',#962,1.);
#962 = DIRECTION('',(0.,-2.22044604925E-16,-1.));
#963 = ORIENTED_EDGE('',*,*,#964,.F.);
#964 = EDGE_CURVE('',#540,#957,#965,.T.);
#965 = LINE('',#966,#967);
#966 = CARTESIAN_POINT('',(-17.75,1.26010313295E-14,56.75));
#967 = VECTOR('',#968,1.);
#968 = DIRECTION('',(0.,-1.,2.22044604925E-16));
#969 = ORIENTED_EDGE('',*,*,#537,.F.);
#970 = PLANE('',#971);
#971 = AXIS2_PLACEMENT_3D('',#972,#973,#974);
#972 = CARTESIAN_POINT('',(-17.75,1.43773881689E-14,64.75));
#973 = DIRECTION('',(1.,0.,0.));
#974 = DIRECTION('',(0.,-2.22044604925E-16,-1.));
#975 = ADVANCED_FACE('',(#976),#994,.T.);
#976 = FACE_BOUND('',#977,.T.);
#977 = EDGE_LOOP('',(#978,#986,#992,#993));
#978 = ORIENTED_EDGE('',*,*,#979,.T.);
#979 = EDGE_CURVE('',#556,#980,#982,.T.);
#980 = VERTEX_POINT('',#981);
#981 = CARTESIAN_POINT('',(-14.75,-4.,64.75));
#982 = LINE('',#983,#984);
#983 = CARTESIAN_POINT('',(-14.75,1.43773881689E-14,64.75));
#984 = VECTOR('',#985,1.);
#985 = DIRECTION('',(0.,-1.,2.22044604925E-16));
#986 = ORIENTED_EDGE('',*,*,#987,.T.);
#987 = EDGE_CURVE('',#980,#949,#988,.T.);
#988 = LINE('',#989,#990);
#989 = CARTESIAN_POINT('',(-14.75,-4.,64.75));
#990 = VECTOR('',#991,1.);
#991 = DIRECTION('',(-1.,0.,0.));
#992 = ORIENTED_EDGE('',*,*,#948,.F.);
#993 = ORIENTED_EDGE('',*,*,#563,.F.);
#994 = PLANE('',#995);
#995 = AXIS2_PLACEMENT_3D('',#996,#997,#998);
#996 = CARTESIAN_POINT('',(-14.75,1.43773881689E-14,64.75));
#997 = DIRECTION('',(0.,-2.22044604925E-16,-1.));
#998 = DIRECTION('',(-1.,0.,0.));
#999 = ADVANCED_FACE('',(#1000),#1018,.T.);
#1000 = FACE_BOUND('',#1001,.T.);
#1001 = EDGE_LOOP('',(#1002,#1003,#1011,#1017));
#1002 = ORIENTED_EDGE('',*,*,#964,.T.);
#1003 = ORIENTED_EDGE('',*,*,#1004,.T.);
#1004 = EDGE_CURVE('',#957,#1005,#1007,.T.);
#1005 = VERTEX_POINT('',#1006);
#1006 = CARTESIAN_POINT('',(-14.75,-4.,56.75));
#1007 = LINE('',#1008,#1009);
#1008 = CARTESIAN_POINT('',(-17.75,-4.,56.75));
#1009 = VECTOR('',#1010,1.);
#1010 = DIRECTION('',(1.,0.,0.));
#1011 = ORIENTED_EDGE('',*,*,#1012,.F.);
#1012 = EDGE_CURVE('',#548,#1005,#1013,.T.);
#1013 = LINE('',#1014,#1015);
#1014 = CARTESIAN_POINT('',(-14.75,1.26010313295E-14,56.75));
#1015 = VECTOR('',#1016,1.);
#1016 = DIRECTION('',(0.,-1.,2.22044604925E-16));
#1017 = ORIENTED_EDGE('',*,*,#547,.F.);
#1018 = PLANE('',#1019);
#1019 = AXIS2_PLACEMENT_3D('',#1020,#1021,#1022);
#1020 = CARTESIAN_POINT('',(-17.75,1.26010313295E-14,56.75));
#1021 = DIRECTION('',(0.,2.22044604925E-16,1.));
#1022 = DIRECTION('',(1.,0.,0.));
#1023 = ADVANCED_FACE('',(#1024),#1035,.T.);
#1024 = FACE_BOUND('',#1025,.T.);
#1025 = EDGE_LOOP('',(#1026,#1027,#1033,#1034));
#1026 = ORIENTED_EDGE('',*,*,#1012,.T.);
#1027 = ORIENTED_EDGE('',*,*,#1028,.T.);
#1028 = EDGE_CURVE('',#1005,#980,#1029,.T.);
#1029 = LINE('',#1030,#1031);
#1030 = CARTESIAN_POINT('',(-14.75,-4.,56.75));
#1031 = VECTOR('',#1032,1.);
#1032 = DIRECTION('',(0.,2.22044604925E-16,1.));
#1033 = ORIENTED_EDGE('',*,*,#979,.F.);
#1034 = ORIENTED_EDGE('',*,*,#555,.F.);
#1035 = PLANE('',#1036);
#1036 = AXIS2_PLACEMENT_3D('',#1037,#1038,#1039);
#1037 = CARTESIAN_POINT('',(-14.75,1.26010313295E-14,56.75));
#1038 = DIRECTION('',(-1.,0.,0.));
#1039 = DIRECTION('',(0.,2.22044604925E-16,1.));
#1040 = ADVANCED_FACE('',(#1041),#1066,.T.);
#1041 = FACE_BOUND('',#1042,.T.);
#1042 = EDGE_LOOP('',(#1043,#1051,#1059,#1065));
#1043 = ORIENTED_EDGE('',*,*,#1044,.T.);
#1044 = EDGE_CURVE('',#572,#1045,#1047,.T.);
#1045 = VERTEX_POINT('',#1046);
#1046 = CARTESIAN_POINT('',(-9.75,-4.,64.75));
#1047 = LINE('',#1048,#1049);
#1048 = CARTESIAN_POINT('',(-9.75,1.43773881689E-14,64.75));
#1049 = VECTOR('',#1050,1.);
#1050 = DIRECTION('',(0.,-1.,2.22044604925E-16));
#1051 = ORIENTED_EDGE('',*,*,#1052,.T.);
#1052 = EDGE_CURVE('',#1045,#1053,#1055,.T.);
#1053 = VERTEX_POINT('',#1054);
#1054 = CARTESIAN_POINT('',(-9.75,-4.,56.75));
#1055 = LINE('',#1056,#1057);
#1056 = CARTESIAN_POINT('',(-9.75,-4.,64.75));
#1057 = VECTOR('',#1058,1.);
#1058 = DIRECTION('',(0.,-2.22044604925E-16,-1.));
#1059 = ORIENTED_EDGE('',*,*,#1060,.F.);
#1060 = EDGE_CURVE('',#574,#1053,#1061,.T.);
#1061 = LINE('',#1062,#1063);
#1062 = CARTESIAN_POINT('',(-9.75,1.26010313295E-14,56.75));
#1063 = VECTOR('',#1064,1.);
#1064 = DIRECTION('',(0.,-1.,2.22044604925E-16));
#1065 = ORIENTED_EDGE('',*,*,#571,.F.);
#1066 = PLANE('',#1067);
#1067 = AXIS2_PLACEMENT_3D('',#1068,#1069,#1070);
#1068 = CARTESIAN_POINT('',(-9.75,1.43773881689E-14,64.75));
#1069 = DIRECTION('',(1.,0.,0.));
#1070 = DIRECTION('',(0.,-2.22044604925E-16,-1.));
#1071 = ADVANCED_FACE('',(#1072),#1090,.T.);
#1072 = FACE_BOUND('',#1073,.T.);
#1073 = EDGE_LOOP('',(#1074,#1082,#1088,#1089));
#1074 = ORIENTED_EDGE('',*,*,#1075,.T.);
#1075 = EDGE_CURVE('',#590,#1076,#1078,.T.);
#1076 = VERTEX_POINT('',#1077);
#1077 = CARTESIAN_POINT('',(-6.75,-4.,64.75));
#1078 = LINE('',#1079,#1080);
#1079 = CARTESIAN_POINT('',(-6.75,1.43773881689E-14,64.75));
#1080 = VECTOR('',#1081,1.);
#1081 = DIRECTION('',(0.,-1.,2.22044604925E-16));
#1082 = ORIENTED_EDGE('',*,*,#1083,.T.);
#1083 = EDGE_CURVE('',#1076,#1045,#1084,.T.);
#1084 = LINE('',#1085,#1086);
#1085 = CARTESIAN_POINT('',(-6.75,-4.,64.75));
#1086 = VECTOR('',#1087,1.);
#1087 = DIRECTION('',(-1.,0.,0.));
#1088 = ORIENTED_EDGE('',*,*,#1044,.F.);
#1089 = ORIENTED_EDGE('',*,*,#597,.F.);
#1090 = PLANE('',#1091);
#1091 = AXIS2_PLACEMENT_3D('',#1092,#1093,#1094);
#1092 = CARTESIAN_POINT('',(-6.75,1.43773881689E-14,64.75));
#1093 = DIRECTION('',(0.,-2.22044604925E-16,-1.));
#1094 = DIRECTION('',(-1.,0.,0.));
#1095 = ADVANCED_FACE('',(#1096),#1114,.T.);
#1096 = FACE_BOUND('',#1097,.T.);
#1097 = EDGE_LOOP('',(#1098,#1099,#1107,#1113));
#1098 = ORIENTED_EDGE('',*,*,#1060,.T.);
#1099 = ORIENTED_EDGE('',*,*,#1100,.T.);
#1100 = EDGE_CURVE('',#1053,#1101,#1103,.T.);
#1101 = VERTEX_POINT('',#1102);
#1102 = CARTESIAN_POINT('',(-6.75,-4.,56.75));
#1103 = LINE('',#1104,#1105);
#1104 = CARTESIAN_POINT('',(-9.75,-4.,56.75));
#1105 = VECTOR('',#1106,1.);
#1106 = DIRECTION('',(1.,0.,0.));
#1107 = ORIENTED_EDGE('',*,*,#1108,.F.);
#1108 = EDGE_CURVE('',#582,#1101,#1109,.T.);
#1109 = LINE('',#1110,#1111);
#1110 = CARTESIAN_POINT('',(-6.75,1.26010313295E-14,56.75));
#1111 = VECTOR('',#1112,1.);
#1112 = DIRECTION('',(0.,-1.,2.22044604925E-16));
#1113 = ORIENTED_EDGE('',*,*,#581,.F.);
#1114 = PLANE('',#1115);
#1115 = AXIS2_PLACEMENT_3D('',#1116,#1117,#1118);
#1116 = CARTESIAN_POINT('',(-9.75,1.26010313295E-14,56.75));
#1117 = DIRECTION('',(0.,2.22044604925E-16,1.));
#1118 = DIRECTION('',(1.,0.,0.));
#1119 = ADVANCED_FACE('',(#1120),#1131,.T.);
#1120 = FACE_BOUND('',#1121,.T.);
#1121 = EDGE_LOOP('',(#1122,#1123,#1129,#1130));
#1122 = ORIENTED_EDGE('',*,*,#1108,.T.);
#1123 = ORIENTED_EDGE('',*,*,#1124,.T.);
#1124 = EDGE_CURVE('',#1101,#1076,#1125,.T.);
#1125 = LINE('',#1126,#1127);
#1126 = CARTESIAN_POINT('',(-6.75,-4.,56.75));
#1127 = VECTOR('',#1128,1.);
#1128 = DIRECTION('',(0.,2.22044604925E-16,1.));
#1129 = ORIENTED_EDGE('',*,*,#1075,.F.);
#1130 = ORIENTED_EDGE('',*,*,#589,.F.);
#1131 = PLANE('',#1132);
#1132 = AXIS2_PLACEMENT_3D('',#1133,#1134,#1135);
#1133 = CARTESIAN_POINT('',(-6.75,1.26010313295E-14,56.75));
#1134 = DIRECTION('',(-1.,0.,0.));
#1135 = DIRECTION('',(0.,2.22044604925E-16,1.));
#1136 = ADVANCED_FACE('',(#1137),#1162,.T.);
#1137 = FACE_BOUND('',#1138,.T.);
#1138 = EDGE_LOOP('',(#1139,#1147,#1155,#1161));
#1139 = ORIENTED_EDGE('',*,*,#1140,.T.);
#1140 = EDGE_CURVE('',#606,#1141,#1143,.T.);
#1141 = VERTEX_POINT('',#1142);
#1142 = CARTESIAN_POINT('',(-20.75,-4.,51.75));
#1143 = LINE('',#1144,#1145);
#1144 = CARTESIAN_POINT('',(-20.75,1.149080830487E-14,51.75));
#1145 = VECTOR('',#1146,1.);
#1146 = DIRECTION('',(0.,-1.,2.22044604925E-16));
#1147 = ORIENTED_EDGE('',*,*,#1148,.T.);
#1148 = EDGE_CURVE('',#1141,#1149,#1151,.T.);
#1149 = VERTEX_POINT('',#1150);
#1150 = CARTESIAN_POINT('',(-20.75,-4.,34.75));
#1151 = LINE('',#1152,#1153);
#1152 = CARTESIAN_POINT('',(-20.75,-4.,51.75));
#1153 = VECTOR('',#1154,1.);
#1154 = DIRECTION('',(0.,-2.22044604925E-16,-1.));
#1155 = ORIENTED_EDGE('',*,*,#1156,.F.);
#1156 = EDGE_CURVE('',#608,#1149,#1157,.T.);
#1157 = LINE('',#1158,#1159);
#1158 = CARTESIAN_POINT('',(-20.75,7.716050021145E-15,34.75));
#1159 = VECTOR('',#1160,1.);
#1160 = DIRECTION('',(0.,-1.,2.22044604925E-16));
#1161 = ORIENTED_EDGE('',*,*,#605,.F.);
#1162 = PLANE('',#1163);
#1163 = AXIS2_PLACEMENT_3D('',#1164,#1165,#1166);
#1164 = CARTESIAN_POINT('',(-20.75,1.149080830487E-14,51.75));
#1165 = DIRECTION('',(1.,0.,0.));
#1166 = DIRECTION('',(0.,-2.22044604925E-16,-1.));
#1167 = ADVANCED_FACE('',(#1168),#1186,.T.);
#1168 = FACE_BOUND('',#1169,.T.);
#1169 = EDGE_LOOP('',(#1170,#1178,#1184,#1185));
#1170 = ORIENTED_EDGE('',*,*,#1171,.T.);
#1171 = EDGE_CURVE('',#624,#1172,#1174,.T.);
#1172 = VERTEX_POINT('',#1173);
#1173 = CARTESIAN_POINT('',(20.75,-4.,51.75));
#1174 = LINE('',#1175,#1176);
#1175 = CARTESIAN_POINT('',(20.75,1.149080830487E-14,51.75));
#1176 = VECTOR('',#1177,1.);
#1177 = DIRECTION('',(0.,-1.,2.22044604925E-16));
#1178 = ORIENTED_EDGE('',*,*,#1179,.T.);
#1179 = EDGE_CURVE('',#1172,#1141,#1180,.T.);
#1180 = LINE('',#1181,#1182);
#1181 = CARTESIAN_POINT('',(20.75,-4.,51.75));
#1182 = VECTOR('',#1183,1.);
#1183 = DIRECTION('',(-1.,0.,0.));
#1184 = ORIENTED_EDGE('',*,*,#1140,.F.);
#1185 = ORIENTED_EDGE('',*,*,#631,.F.);
#1186 = PLANE('',#1187);
#1187 = AXIS2_PLACEMENT_3D('',#1188,#1189,#1190);
#1188 = CARTESIAN_POINT('',(20.75,1.149080830487E-14,51.75));
#1189 = DIRECTION('',(0.,-2.22044604925E-16,-1.));
#1190 = DIRECTION('',(-1.,0.,0.));
#1191 = ADVANCED_FACE('',(#1192),#1210,.T.);
#1192 = FACE_BOUND('',#1193,.T.);
#1193 = EDGE_LOOP('',(#1194,#1195,#1203,#1209));
#1194 = ORIENTED_EDGE('',*,*,#1156,.T.);
#1195 = ORIENTED_EDGE('',*,*,#1196,.T.);
#1196 = EDGE_CURVE('',#1149,#1197,#1199,.T.);
#1197 = VERTEX_POINT('',#1198);
#1198 = CARTESIAN_POINT('',(20.75,-4.,34.75));
#1199 = LINE('',#1200,#1201);
#1200 = CARTESIAN_POINT('',(-20.75,-4.,34.75));
#1201 = VECTOR('',#1202,1.);
#1202 = DIRECTION('',(1.,0.,0.));
#1203 = ORIENTED_EDGE('',*,*,#1204,.F.);
#1204 = EDGE_CURVE('',#616,#1197,#1205,.T.);
#1205 = LINE('',#1206,#1207);
#1206 = CARTESIAN_POINT('',(20.75,7.716050021145E-15,34.75));
#1207 = VECTOR('',#1208,1.);
#1208 = DIRECTION('',(0.,-1.,2.22044604925E-16));
#1209 = ORIENTED_EDGE('',*,*,#615,.F.);
#1210 = PLANE('',#1211);
#1211 = AXIS2_PLACEMENT_3D('',#1212,#1213,#1214);
#1212 = CARTESIAN_POINT('',(-20.75,7.716050021145E-15,34.75));
#1213 = DIRECTION('',(0.,2.22044604925E-16,1.));
#1214 = DIRECTION('',(1.,0.,0.));
#1215 = ADVANCED_FACE('',(#1216),#1227,.T.);
#1216 = FACE_BOUND('',#1217,.T.);
#1217 = EDGE_LOOP('',(#1218,#1219,#1225,#1226));
#1218 = ORIENTED_EDGE('',*,*,#1204,.T.);
#1219 = ORIENTED_EDGE('',*,*,#1220,.T.);
#1220 = EDGE_CURVE('',#1197,#1172,#1221,.T.);
#1221 = LINE('',#1222,#1223);
#1222 = CARTESIAN_POINT('',(20.75,-4.,34.75));
#1223 = VECTOR('',#1224,1.);
#1224 = DIRECTION('',(0.,2.22044604925E-16,1.));
#1225 = ORIENTED_EDGE('',*,*,#1171,.F.);
#1226 = ORIENTED_EDGE('',*,*,#623,.F.);
#1227 = PLANE('',#1228);
#1228 = AXIS2_PLACEMENT_3D('',#1229,#1230,#1231);
#1229 = CARTESIAN_POINT('',(20.75,7.716050021145E-15,34.75));
#1230 = DIRECTION('',(-1.,0.,0.));
#1231 = DIRECTION('',(0.,2.22044604925E-16,1.));
#1232 = ADVANCED_FACE('',(#1233),#1252,.F.);
#1233 = FACE_BOUND('',#1234,.T.);
#1234 = EDGE_LOOP('',(#1235,#1243,#1250,#1251));
#1235 = ORIENTED_EDGE('',*,*,#1236,.T.);
#1236 = EDGE_CURVE('',#640,#1237,#1239,.T.);
#1237 = VERTEX_POINT('',#1238);
#1238 = CARTESIAN_POINT('',(22.25,-4.,22.25));
#1239 = LINE('',#1240,#1241);
#1240 = CARTESIAN_POINT('',(22.25,4.940492459582E-15,22.25));
#1241 = VECTOR('',#1242,1.);
#1242 = DIRECTION('',(0.,-1.,2.22044604925E-16));
#1243 = ORIENTED_EDGE('',*,*,#1244,.T.);
#1244 = EDGE_CURVE('',#1237,#1237,#1245,.T.);
#1245 = CIRCLE('',#1246,1.5);
#1246 = AXIS2_PLACEMENT_3D('',#1247,#1248,#1249);
#1247 = CARTESIAN_POINT('',(20.75,-4.,22.25));
#1248 = DIRECTION('',(0.,-1.,2.22044604925E-16));
#1249 = DIRECTION('',(1.,0.,0.));
#1250 = ORIENTED_EDGE('',*,*,#1236,.F.);
#1251 = ORIENTED_EDGE('',*,*,#639,.F.);
#1252 = CYLINDRICAL_SURFACE('',#1253,1.5);
#1253 = AXIS2_PLACEMENT_3D('',#1254,#1255,#1256);
#1254 = CARTESIAN_POINT('',(20.75,4.940492459582E-15,22.25));
#1255 = DIRECTION('',(0.,1.,-2.22044604925E-16));
#1256 = DIRECTION('',(1.,0.,0.));
#1257 = ADVANCED_FACE('',(#1258,#1264,#1270,#1276,#1282,#1288,#1291,
    #1294),#1297,.F.);
#1258 = FACE_BOUND('',#1259,.T.);
#1259 = EDGE_LOOP('',(#1260,#1261,#1262,#1263));
#1260 = ORIENTED_EDGE('',*,*,#767,.T.);
#1261 = ORIENTED_EDGE('',*,*,#742,.T.);
#1262 = ORIENTED_EDGE('',*,*,#882,.T.);
#1263 = ORIENTED_EDGE('',*,*,#710,.T.);
#1264 = FACE_BOUND('',#1265,.F.);
#1265 = EDGE_LOOP('',(#1266,#1267,#1268,#1269));
#1266 = ORIENTED_EDGE('',*,*,#824,.T.);
#1267 = ORIENTED_EDGE('',*,*,#791,.T.);
#1268 = ORIENTED_EDGE('',*,*,#865,.T.);
#1269 = ORIENTED_EDGE('',*,*,#848,.T.);
#1270 = FACE_BOUND('',#1271,.F.);
#1271 = EDGE_LOOP('',(#1272,#1273,#1274,#1275));
#1272 = ORIENTED_EDGE('',*,*,#1148,.T.);
#1273 = ORIENTED_EDGE('',*,*,#1196,.T.);
#1274 = ORIENTED_EDGE('',*,*,#1220,.T.);
#1275 = ORIENTED_EDGE('',*,*,#1179,.T.);
#1276 = FACE_BOUND('',#1277,.F.);
#1277 = EDGE_LOOP('',(#1278,#1279,#1280,#1281));
#1278 = ORIENTED_EDGE('',*,*,#956,.T.);
#1279 = ORIENTED_EDGE('',*,*,#1004,.T.);
#1280 = ORIENTED_EDGE('',*,*,#1028,.T.);
#1281 = ORIENTED_EDGE('',*,*,#987,.T.);
#1282 = FACE_BOUND('',#1283,.F.);
#1283 = EDGE_LOOP('',(#1284,#1285,#1286,#1287));
#1284 = ORIENTED_EDGE('',*,*,#1052,.T.);
#1285 = ORIENTED_EDGE('',*,*,#1100,.T.);
#1286 = ORIENTED_EDGE('',*,*,#1124,.T.);
#1287 = ORIENTED_EDGE('',*,*,#1083,.T.);
#1288 = FACE_BOUND('',#1289,.F.);
#1289 = EDGE_LOOP('',(#1290));
#1290 = ORIENTED_EDGE('',*,*,#906,.T.);
#1291 = FACE_BOUND('',#1292,.F.);
#1292 = EDGE_LOOP('',(#1293));
#1293 = ORIENTED_EDGE('',*,*,#1244,.T.);
#1294 = FACE_BOUND('',#1295,.F.);
#1295 = EDGE_LOOP('',(#1296));
#1296 = ORIENTED_EDGE('',*,*,#931,.T.);
#1297 = PLANE('',#1298);
#1298 = AXIS2_PLACEMENT_3D('',#1299,#1300,#1301);
#1299 = CARTESIAN_POINT('',(-1.131336506664,-4.,21.259750856496));
#1300 = DIRECTION('',(0.,1.,-2.22044604925E-16));
#1301 = DIRECTION('',(0.,2.22044604925E-16,1.));
#1302 = ( GEOMETRIC_REPRESENTATION_CONTEXT(3) 
GLOBAL_UNCERTAINTY_ASSIGNED_CONTEXT((#1306)) 
GLOBAL_UNIT_ASSIGNED_CONTEXT((#1303,#1304,#1305)) REPRESENTATION_CONTEXT
('Context #1','3D Context with UNIT and UNCERTAINTY') );
#1303 = ( LENGTH_UNIT() NAMED_UNIT(*) SI_UNIT(.MILLI.,.METRE.) );
#1304 = ( NAMED_UNIT(*) PLANE_ANGLE_UNIT() SI_UNIT($,.RADIAN.) );
#1305 = ( NAMED_UNIT(*) SI_UNIT($,.STERADIAN.) SOLID_ANGLE_UNIT() );
#1306 = UNCERTAINTY_MEASURE_WITH_UNIT(LENGTH_MEASURE(1.E-07),#1303,
  'distance_accuracy_value','confusion accuracy');
#1307 = PRODUCT_RELATED_PRODUCT_CATEGORY('part',$,(#7));
#1308 = MECHANICAL_DESIGN_GEOMETRIC_PRESENTATION_REPRESENTATION('',(
    #1309),#1302);
#1309 = STYLED_ITEM('color',(#1310),#15);
#1310 = PRESENTATION_STYLE_ASSIGNMENT((#1311,#1317));
#1311 = SURFACE_STYLE_USAGE(.BOTH.,#1312);
#1312 = SURFACE_SIDE_STYLE('',(#1313));
#1313 = SURFACE_STYLE_FILL_AREA(#1314);
#1314 = FILL_AREA_STYLE('',(#1315));
#1315 = FILL_AREA_STYLE_COLOUR('',#1316);
#1316 = COLOUR_RGB('',0.800000010877,0.800000010877,0.800000010877);
#1317 = CURVE_STYLE('',#1318,POSITIVE_LENGTH_MEASURE(0.1),#1319);
#1318 = DRAUGHTING_PRE_DEFINED_CURVE_FONT('continuous');
#1319 = COLOUR_RGB('',9.803921802644E-02,9.803921802644E-02,
  9.803921802644E-02);
ENDSEC;
END-ISO-10303-21;
