ISO-10303-21;
HEADER;
FILE_DESCRIPTION(('FreeCAD Model'),'2;1');
FILE_NAME('Open CASCADE Shape Model','2026-05-11T17:37:27',(''),(''),
  'Open CASCADE STEP processor 7.7','FreeCAD','Unknown');
FILE_SCHEMA(('AUTOMOTIVE_DESIGN { 1 0 10303 214 1 1 1 1 }'));
ENDSEC;
DATA;
#1 = APPLICATION_PROTOCOL_DEFINITION('international standard',
  'automotive_design',2000,#2);
#2 = APPLICATION_CONTEXT(
  'core data for automotive mechanical design processes');
#3 = SHAPE_DEFINITION_REPRESENTATION(#4,#10);
#4 = PRODUCT_DEFINITION_SHAPE('','',#5);
#5 = PRODUCT_DEFINITION('design','',#6,#9);
#6 = PRODUCT_DEFINITION_FORMATION('','',#7);
#7 = PRODUCT('boardHolderSpacer','boardHolderSpacer','',(#8));
#8 = PRODUCT_CONTEXT('',#2,'mechanical');
#9 = PRODUCT_DEFINITION_CONTEXT('part definition',#2,'design');
#10 = ADVANCED_BREP_SHAPE_REPRESENTATION('',(#11,#15),#418);
#11 = AXIS2_PLACEMENT_3D('',#12,#13,#14);
#12 = CARTESIAN_POINT('',(0.,0.,0.));
#13 = DIRECTION('',(0.,0.,1.));
#14 = DIRECTION('',(1.,0.,-0.));
#15 = MANIFOLD_SOLID_BREP('',#16);
#16 = CLOSED_SHELL('',(#17,#57,#88,#119,#141,#181,#212,#243,#265,#298,
    #331,#364,#391));
#17 = ADVANCED_FACE('',(#18),#52,.F.);
#18 = FACE_BOUND('',#19,.F.);
#19 = EDGE_LOOP('',(#20,#30,#38,#46));
#20 = ORIENTED_EDGE('',*,*,#21,.T.);
#21 = EDGE_CURVE('',#22,#24,#26,.T.);
#22 = VERTEX_POINT('',#23);
#23 = CARTESIAN_POINT('',(-23.75,5.551115123126E-15,25.));
#24 = VERTEX_POINT('',#25);
#25 = CARTESIAN_POINT('',(-23.75,-3.,25.));
#26 = LINE('',#27,#28);
#27 = CARTESIAN_POINT('',(-23.75,5.551115123126E-15,25.));
#28 = VECTOR('',#29,1.);
#29 = DIRECTION('',(0.,-1.,2.22044604925E-16));
#30 = ORIENTED_EDGE('',*,*,#31,.T.);
#31 = EDGE_CURVE('',#24,#32,#34,.T.);
#32 = VERTEX_POINT('',#33);
#33 = CARTESIAN_POINT('',(-23.75,-3.,-25.));
#34 = LINE('',#35,#36);
#35 = CARTESIAN_POINT('',(-23.75,-3.,25.));
#36 = VECTOR('',#37,1.);
#37 = DIRECTION('',(0.,-2.22044604925E-16,-1.));
#38 = ORIENTED_EDGE('',*,*,#39,.F.);
#39 = EDGE_CURVE('',#40,#32,#42,.T.);
#40 = VERTEX_POINT('',#41);
#41 = CARTESIAN_POINT('',(-23.75,-5.551115123126E-15,-25.));
#42 = LINE('',#43,#44);
#43 = CARTESIAN_POINT('',(-23.75,-5.551115123126E-15,-25.));
#44 = VECTOR('',#45,1.);
#45 = DIRECTION('',(0.,-1.,2.22044604925E-16));
#46 = ORIENTED_EDGE('',*,*,#47,.F.);
#47 = EDGE_CURVE('',#22,#40,#48,.T.);
#48 = LINE('',#49,#50);
#49 = CARTESIAN_POINT('',(-23.75,5.551115123126E-15,25.));
#50 = VECTOR('',#51,1.);
#51 = DIRECTION('',(0.,-2.22044604925E-16,-1.));
#52 = PLANE('',#53);
#53 = AXIS2_PLACEMENT_3D('',#54,#55,#56);
#54 = CARTESIAN_POINT('',(-23.75,5.551115123126E-15,25.));
#55 = DIRECTION('',(1.,0.,0.));
#56 = DIRECTION('',(0.,-2.22044604925E-16,-1.));
#57 = ADVANCED_FACE('',(#58),#83,.F.);
#58 = FACE_BOUND('',#59,.F.);
#59 = EDGE_LOOP('',(#60,#61,#69,#77));
#60 = ORIENTED_EDGE('',*,*,#39,.T.);
#61 = ORIENTED_EDGE('',*,*,#62,.T.);
#62 = EDGE_CURVE('',#32,#63,#65,.T.);
#63 = VERTEX_POINT('',#64);
#64 = CARTESIAN_POINT('',(23.75,-3.,-25.));
#65 = LINE('',#66,#67);
#66 = CARTESIAN_POINT('',(-23.75,-3.,-25.));
#67 = VECTOR('',#68,1.);
#68 = DIRECTION('',(1.,0.,0.));
#69 = ORIENTED_EDGE('',*,*,#70,.F.);
#70 = EDGE_CURVE('',#71,#63,#73,.T.);
#71 = VERTEX_POINT('',#72);
#72 = CARTESIAN_POINT('',(23.75,-5.551115123126E-15,-25.));
#73 = LINE('',#74,#75);
#74 = CARTESIAN_POINT('',(23.75,-5.551115123126E-15,-25.));
#75 = VECTOR('',#76,1.);
#76 = DIRECTION('',(0.,-1.,2.22044604925E-16));
#77 = ORIENTED_EDGE('',*,*,#78,.F.);
#78 = EDGE_CURVE('',#40,#71,#79,.T.);
#79 = LINE('',#80,#81);
#80 = CARTESIAN_POINT('',(-23.75,-5.551115123126E-15,-25.));
#81 = VECTOR('',#82,1.);
#82 = DIRECTION('',(1.,0.,0.));
#83 = PLANE('',#84);
#84 = AXIS2_PLACEMENT_3D('',#85,#86,#87);
#85 = CARTESIAN_POINT('',(-23.75,-5.551115123126E-15,-25.));
#86 = DIRECTION('',(0.,2.22044604925E-16,1.));
#87 = DIRECTION('',(1.,0.,0.));
#88 = ADVANCED_FACE('',(#89),#114,.F.);
#89 = FACE_BOUND('',#90,.F.);
#90 = EDGE_LOOP('',(#91,#92,#100,#108));
#91 = ORIENTED_EDGE('',*,*,#70,.T.);
#92 = ORIENTED_EDGE('',*,*,#93,.T.);
#93 = EDGE_CURVE('',#63,#94,#96,.T.);
#94 = VERTEX_POINT('',#95);
#95 = CARTESIAN_POINT('',(23.75,-3.,25.));
#96 = LINE('',#97,#98);
#97 = CARTESIAN_POINT('',(23.75,-3.,-25.));
#98 = VECTOR('',#99,1.);
#99 = DIRECTION('',(0.,2.22044604925E-16,1.));
#100 = ORIENTED_EDGE('',*,*,#101,.F.);
#101 = EDGE_CURVE('',#102,#94,#104,.T.);
#102 = VERTEX_POINT('',#103);
#103 = CARTESIAN_POINT('',(23.75,5.551115123126E-15,25.));
#104 = LINE('',#105,#106);
#105 = CARTESIAN_POINT('',(23.75,5.551115123126E-15,25.));
#106 = VECTOR('',#107,1.);
#107 = DIRECTION('',(0.,-1.,2.22044604925E-16));
#108 = ORIENTED_EDGE('',*,*,#109,.F.);
#109 = EDGE_CURVE('',#71,#102,#110,.T.);
#110 = LINE('',#111,#112);
#111 = CARTESIAN_POINT('',(23.75,-5.551115123126E-15,-25.));
#112 = VECTOR('',#113,1.);
#113 = DIRECTION('',(0.,2.22044604925E-16,1.));
#114 = PLANE('',#115);
#115 = AXIS2_PLACEMENT_3D('',#116,#117,#118);
#116 = CARTESIAN_POINT('',(23.75,-5.551115123126E-15,-25.));
#117 = DIRECTION('',(-1.,-0.,0.));
#118 = DIRECTION('',(0.,2.22044604925E-16,1.));
#119 = ADVANCED_FACE('',(#120),#136,.F.);
#120 = FACE_BOUND('',#121,.F.);
#121 = EDGE_LOOP('',(#122,#123,#129,#130));
#122 = ORIENTED_EDGE('',*,*,#101,.T.);
#123 = ORIENTED_EDGE('',*,*,#124,.T.);
#124 = EDGE_CURVE('',#94,#24,#125,.T.);
#125 = LINE('',#126,#127);
#126 = CARTESIAN_POINT('',(23.75,-3.,25.));
#127 = VECTOR('',#128,1.);
#128 = DIRECTION('',(-1.,0.,0.));
#129 = ORIENTED_EDGE('',*,*,#21,.F.);
#130 = ORIENTED_EDGE('',*,*,#131,.F.);
#131 = EDGE_CURVE('',#102,#22,#132,.T.);
#132 = LINE('',#133,#134);
#133 = CARTESIAN_POINT('',(23.75,5.551115123126E-15,25.));
#134 = VECTOR('',#135,1.);
#135 = DIRECTION('',(-1.,0.,0.));
#136 = PLANE('',#137);
#137 = AXIS2_PLACEMENT_3D('',#138,#139,#140);
#138 = CARTESIAN_POINT('',(23.75,5.551115123126E-15,25.));
#139 = DIRECTION('',(0.,-2.22044604925E-16,-1.));
#140 = DIRECTION('',(-1.,-0.,0.));
#141 = ADVANCED_FACE('',(#142),#176,.T.);
#142 = FACE_BOUND('',#143,.T.);
#143 = EDGE_LOOP('',(#144,#154,#162,#170));
#144 = ORIENTED_EDGE('',*,*,#145,.T.);
#145 = EDGE_CURVE('',#146,#148,#150,.T.);
#146 = VERTEX_POINT('',#147);
#147 = CARTESIAN_POINT('',(18.,-4.440892098501E-15,-20.));
#148 = VERTEX_POINT('',#149);
#149 = CARTESIAN_POINT('',(18.,-3.,-20.));
#150 = LINE('',#151,#152);
#151 = CARTESIAN_POINT('',(18.,-4.440892098501E-15,-20.));
#152 = VECTOR('',#153,1.);
#153 = DIRECTION('',(0.,-1.,2.22044604925E-16));
#154 = ORIENTED_EDGE('',*,*,#155,.T.);
#155 = EDGE_CURVE('',#148,#156,#158,.T.);
#156 = VERTEX_POINT('',#157);
#157 = CARTESIAN_POINT('',(18.,-3.,20.));
#158 = LINE('',#159,#160);
#159 = CARTESIAN_POINT('',(18.,-3.,-20.));
#160 = VECTOR('',#161,1.);
#161 = DIRECTION('',(0.,2.22044604925E-16,1.));
#162 = ORIENTED_EDGE('',*,*,#163,.F.);
#163 = EDGE_CURVE('',#164,#156,#166,.T.);
#164 = VERTEX_POINT('',#165);
#165 = CARTESIAN_POINT('',(18.,4.440892098501E-15,20.));
#166 = LINE('',#167,#168);
#167 = CARTESIAN_POINT('',(18.,4.440892098501E-15,20.));
#168 = VECTOR('',#169,1.);
#169 = DIRECTION('',(0.,-1.,2.22044604925E-16));
#170 = ORIENTED_EDGE('',*,*,#171,.F.);
#171 = EDGE_CURVE('',#146,#164,#172,.T.);
#172 = LINE('',#173,#174);
#173 = CARTESIAN_POINT('',(18.,-4.440892098501E-15,-20.));
#174 = VECTOR('',#175,1.);
#175 = DIRECTION('',(0.,2.22044604925E-16,1.));
#176 = PLANE('',#177);
#177 = AXIS2_PLACEMENT_3D('',#178,#179,#180);
#178 = CARTESIAN_POINT('',(18.,-4.440892098501E-15,-20.));
#179 = DIRECTION('',(-1.,-0.,0.));
#180 = DIRECTION('',(0.,2.22044604925E-16,1.));
#181 = ADVANCED_FACE('',(#182),#207,.T.);
#182 = FACE_BOUND('',#183,.T.);
#183 = EDGE_LOOP('',(#184,#185,#193,#201));
#184 = ORIENTED_EDGE('',*,*,#163,.T.);
#185 = ORIENTED_EDGE('',*,*,#186,.T.);
#186 = EDGE_CURVE('',#156,#187,#189,.T.);
#187 = VERTEX_POINT('',#188);
#188 = CARTESIAN_POINT('',(-18.,-3.,20.));
#189 = LINE('',#190,#191);
#190 = CARTESIAN_POINT('',(18.,-3.,20.));
#191 = VECTOR('',#192,1.);
#192 = DIRECTION('',(-1.,0.,0.));
#193 = ORIENTED_EDGE('',*,*,#194,.F.);
#194 = EDGE_CURVE('',#195,#187,#197,.T.);
#195 = VERTEX_POINT('',#196);
#196 = CARTESIAN_POINT('',(-18.,4.440892098501E-15,20.));
#197 = LINE('',#198,#199);
#198 = CARTESIAN_POINT('',(-18.,4.440892098501E-15,20.));
#199 = VECTOR('',#200,1.);
#200 = DIRECTION('',(0.,-1.,2.22044604925E-16));
#201 = ORIENTED_EDGE('',*,*,#202,.F.);
#202 = EDGE_CURVE('',#164,#195,#203,.T.);
#203 = LINE('',#204,#205);
#204 = CARTESIAN_POINT('',(18.,4.440892098501E-15,20.));
#205 = VECTOR('',#206,1.);
#206 = DIRECTION('',(-1.,0.,0.));
#207 = PLANE('',#208);
#208 = AXIS2_PLACEMENT_3D('',#209,#210,#211);
#209 = CARTESIAN_POINT('',(18.,4.440892098501E-15,20.));
#210 = DIRECTION('',(0.,-2.22044604925E-16,-1.));
#211 = DIRECTION('',(-1.,-0.,0.));
#212 = ADVANCED_FACE('',(#213),#238,.T.);
#213 = FACE_BOUND('',#214,.T.);
#214 = EDGE_LOOP('',(#215,#216,#224,#232));
#215 = ORIENTED_EDGE('',*,*,#194,.T.);
#216 = ORIENTED_EDGE('',*,*,#217,.T.);
#217 = EDGE_CURVE('',#187,#218,#220,.T.);
#218 = VERTEX_POINT('',#219);
#219 = CARTESIAN_POINT('',(-18.,-3.,-20.));
#220 = LINE('',#221,#222);
#221 = CARTESIAN_POINT('',(-18.,-3.,20.));
#222 = VECTOR('',#223,1.);
#223 = DIRECTION('',(0.,-2.22044604925E-16,-1.));
#224 = ORIENTED_EDGE('',*,*,#225,.F.);
#225 = EDGE_CURVE('',#226,#218,#228,.T.);
#226 = VERTEX_POINT('',#227);
#227 = CARTESIAN_POINT('',(-18.,-4.440892098501E-15,-20.));
#228 = LINE('',#229,#230);
#229 = CARTESIAN_POINT('',(-18.,-4.440892098501E-15,-20.));
#230 = VECTOR('',#231,1.);
#231 = DIRECTION('',(0.,-1.,2.22044604925E-16));
#232 = ORIENTED_EDGE('',*,*,#233,.F.);
#233 = EDGE_CURVE('',#195,#226,#234,.T.);
#234 = LINE('',#235,#236);
#235 = CARTESIAN_POINT('',(-18.,4.440892098501E-15,20.));
#236 = VECTOR('',#237,1.);
#237 = DIRECTION('',(0.,-2.22044604925E-16,-1.));
#238 = PLANE('',#239);
#239 = AXIS2_PLACEMENT_3D('',#240,#241,#242);
#240 = CARTESIAN_POINT('',(-18.,4.440892098501E-15,20.));
#241 = DIRECTION('',(1.,0.,0.));
#242 = DIRECTION('',(0.,-2.22044604925E-16,-1.));
#243 = ADVANCED_FACE('',(#244),#260,.T.);
#244 = FACE_BOUND('',#245,.T.);
#245 = EDGE_LOOP('',(#246,#247,#253,#254));
#246 = ORIENTED_EDGE('',*,*,#225,.T.);
#247 = ORIENTED_EDGE('',*,*,#248,.T.);
#248 = EDGE_CURVE('',#218,#148,#249,.T.);
#249 = LINE('',#250,#251);
#250 = CARTESIAN_POINT('',(-18.,-3.,-20.));
#251 = VECTOR('',#252,1.);
#252 = DIRECTION('',(1.,0.,0.));
#253 = ORIENTED_EDGE('',*,*,#145,.F.);
#254 = ORIENTED_EDGE('',*,*,#255,.F.);
#255 = EDGE_CURVE('',#226,#146,#256,.T.);
#256 = LINE('',#257,#258);
#257 = CARTESIAN_POINT('',(-18.,-4.440892098501E-15,-20.));
#258 = VECTOR('',#259,1.);
#259 = DIRECTION('',(1.,0.,0.));
#260 = PLANE('',#261);
#261 = AXIS2_PLACEMENT_3D('',#262,#263,#264);
#262 = CARTESIAN_POINT('',(-18.,-4.440892098501E-15,-20.));
#263 = DIRECTION('',(0.,2.22044604925E-16,1.));
#264 = DIRECTION('',(1.,0.,0.));
#265 = ADVANCED_FACE('',(#266),#293,.F.);
#266 = FACE_BOUND('',#267,.T.);
#267 = EDGE_LOOP('',(#268,#278,#285,#286));
#268 = ORIENTED_EDGE('',*,*,#269,.T.);
#269 = EDGE_CURVE('',#270,#272,#274,.T.);
#270 = VERTEX_POINT('',#271);
#271 = CARTESIAN_POINT('',(-19.5,-4.940492459582E-15,-22.25));
#272 = VERTEX_POINT('',#273);
#273 = CARTESIAN_POINT('',(-19.5,-3.,-22.25));
#274 = LINE('',#275,#276);
#275 = CARTESIAN_POINT('',(-19.5,-4.940492459582E-15,-22.25));
#276 = VECTOR('',#277,1.);
#277 = DIRECTION('',(0.,-1.,2.22044604925E-16));
#278 = ORIENTED_EDGE('',*,*,#279,.T.);
#279 = EDGE_CURVE('',#272,#272,#280,.T.);
#280 = CIRCLE('',#281,1.25);
#281 = AXIS2_PLACEMENT_3D('',#282,#283,#284);
#282 = CARTESIAN_POINT('',(-20.75,-3.,-22.25));
#283 = DIRECTION('',(0.,-1.,2.22044604925E-16));
#284 = DIRECTION('',(1.,0.,0.));
#285 = ORIENTED_EDGE('',*,*,#269,.F.);
#286 = ORIENTED_EDGE('',*,*,#287,.F.);
#287 = EDGE_CURVE('',#270,#270,#288,.T.);
#288 = CIRCLE('',#289,1.25);
#289 = AXIS2_PLACEMENT_3D('',#290,#291,#292);
#290 = CARTESIAN_POINT('',(-20.75,-4.940492459582E-15,-22.25));
#291 = DIRECTION('',(0.,-1.,2.22044604925E-16));
#292 = DIRECTION('',(1.,0.,0.));
#293 = CYLINDRICAL_SURFACE('',#294,1.25);
#294 = AXIS2_PLACEMENT_3D('',#295,#296,#297);
#295 = CARTESIAN_POINT('',(-20.75,-4.940492459582E-15,-22.25));
#296 = DIRECTION('',(0.,1.,-2.22044604925E-16));
#297 = DIRECTION('',(1.,0.,0.));
#298 = ADVANCED_FACE('',(#299),#326,.F.);
#299 = FACE_BOUND('',#300,.T.);
#300 = EDGE_LOOP('',(#301,#311,#318,#319));
#301 = ORIENTED_EDGE('',*,*,#302,.T.);
#302 = EDGE_CURVE('',#303,#305,#307,.T.);
#303 = VERTEX_POINT('',#304);
#304 = CARTESIAN_POINT('',(22.,4.940492459582E-15,22.25));
#305 = VERTEX_POINT('',#306);
#306 = CARTESIAN_POINT('',(22.,-3.,22.25));
#307 = LINE('',#308,#309);
#308 = CARTESIAN_POINT('',(22.,4.940492459582E-15,22.25));
#309 = VECTOR('',#310,1.);
#310 = DIRECTION('',(0.,-1.,2.22044604925E-16));
#311 = ORIENTED_EDGE('',*,*,#312,.T.);
#312 = EDGE_CURVE('',#305,#305,#313,.T.);
#313 = CIRCLE('',#314,1.25);
#314 = AXIS2_PLACEMENT_3D('',#315,#316,#317);
#315 = CARTESIAN_POINT('',(20.75,-3.,22.25));
#316 = DIRECTION('',(0.,-1.,2.22044604925E-16));
#317 = DIRECTION('',(1.,0.,0.));
#318 = ORIENTED_EDGE('',*,*,#302,.F.);
#319 = ORIENTED_EDGE('',*,*,#320,.F.);
#320 = EDGE_CURVE('',#303,#303,#321,.T.);
#321 = CIRCLE('',#322,1.25);
#322 = AXIS2_PLACEMENT_3D('',#323,#324,#325);
#323 = CARTESIAN_POINT('',(20.75,4.940492459582E-15,22.25));
#324 = DIRECTION('',(0.,-1.,2.22044604925E-16));
#325 = DIRECTION('',(1.,0.,0.));
#326 = CYLINDRICAL_SURFACE('',#327,1.25);
#327 = AXIS2_PLACEMENT_3D('',#328,#329,#330);
#328 = CARTESIAN_POINT('',(20.75,4.940492459582E-15,22.25));
#329 = DIRECTION('',(0.,1.,-2.22044604925E-16));
#330 = DIRECTION('',(1.,0.,0.));
#331 = ADVANCED_FACE('',(#332),#359,.F.);
#332 = FACE_BOUND('',#333,.T.);
#333 = EDGE_LOOP('',(#334,#344,#351,#352));
#334 = ORIENTED_EDGE('',*,*,#335,.T.);
#335 = EDGE_CURVE('',#336,#338,#340,.T.);
#336 = VERTEX_POINT('',#337);
#337 = CARTESIAN_POINT('',(-19.5,4.940492459582E-15,22.25));
#338 = VERTEX_POINT('',#339);
#339 = CARTESIAN_POINT('',(-19.5,-3.,22.25));
#340 = LINE('',#341,#342);
#341 = CARTESIAN_POINT('',(-19.5,4.940492459582E-15,22.25));
#342 = VECTOR('',#343,1.);
#343 = DIRECTION('',(0.,-1.,2.22044604925E-16));
#344 = ORIENTED_EDGE('',*,*,#345,.T.);
#345 = EDGE_CURVE('',#338,#338,#346,.T.);
#346 = CIRCLE('',#347,1.25);
#347 = AXIS2_PLACEMENT_3D('',#348,#349,#350);
#348 = CARTESIAN_POINT('',(-20.75,-3.,22.25));
#349 = DIRECTION('',(0.,-1.,2.22044604925E-16));
#350 = DIRECTION('',(1.,0.,0.));
#351 = ORIENTED_EDGE('',*,*,#335,.F.);
#352 = ORIENTED_EDGE('',*,*,#353,.F.);
#353 = EDGE_CURVE('',#336,#336,#354,.T.);
#354 = CIRCLE('',#355,1.25);
#355 = AXIS2_PLACEMENT_3D('',#356,#357,#358);
#356 = CARTESIAN_POINT('',(-20.75,4.940492459582E-15,22.25));
#357 = DIRECTION('',(0.,-1.,2.22044604925E-16));
#358 = DIRECTION('',(1.,0.,0.));
#359 = CYLINDRICAL_SURFACE('',#360,1.25);
#360 = AXIS2_PLACEMENT_3D('',#361,#362,#363);
#361 = CARTESIAN_POINT('',(-20.75,4.940492459582E-15,22.25));
#362 = DIRECTION('',(0.,1.,-2.22044604925E-16));
#363 = DIRECTION('',(1.,0.,0.));
#364 = ADVANCED_FACE('',(#365,#371,#377,#380,#383),#386,.T.);
#365 = FACE_BOUND('',#366,.F.);
#366 = EDGE_LOOP('',(#367,#368,#369,#370));
#367 = ORIENTED_EDGE('',*,*,#47,.T.);
#368 = ORIENTED_EDGE('',*,*,#78,.T.);
#369 = ORIENTED_EDGE('',*,*,#109,.T.);
#370 = ORIENTED_EDGE('',*,*,#131,.T.);
#371 = FACE_BOUND('',#372,.T.);
#372 = EDGE_LOOP('',(#373,#374,#375,#376));
#373 = ORIENTED_EDGE('',*,*,#171,.T.);
#374 = ORIENTED_EDGE('',*,*,#202,.T.);
#375 = ORIENTED_EDGE('',*,*,#233,.T.);
#376 = ORIENTED_EDGE('',*,*,#255,.T.);
#377 = FACE_BOUND('',#378,.T.);
#378 = EDGE_LOOP('',(#379));
#379 = ORIENTED_EDGE('',*,*,#287,.T.);
#380 = FACE_BOUND('',#381,.T.);
#381 = EDGE_LOOP('',(#382));
#382 = ORIENTED_EDGE('',*,*,#320,.T.);
#383 = FACE_BOUND('',#384,.T.);
#384 = EDGE_LOOP('',(#385));
#385 = ORIENTED_EDGE('',*,*,#353,.T.);
#386 = PLANE('',#387);
#387 = AXIS2_PLACEMENT_3D('',#388,#389,#390);
#388 = CARTESIAN_POINT('',(-0.367750367036,8.755989953501E-17,
    0.394334730918));
#389 = DIRECTION('',(0.,1.,-4.930380657631E-32));
#390 = DIRECTION('',(0.,4.930380657631E-32,1.));
#391 = ADVANCED_FACE('',(#392,#398,#404,#407,#410),#413,.F.);
#392 = FACE_BOUND('',#393,.T.);
#393 = EDGE_LOOP('',(#394,#395,#396,#397));
#394 = ORIENTED_EDGE('',*,*,#31,.T.);
#395 = ORIENTED_EDGE('',*,*,#62,.T.);
#396 = ORIENTED_EDGE('',*,*,#93,.T.);
#397 = ORIENTED_EDGE('',*,*,#124,.T.);
#398 = FACE_BOUND('',#399,.F.);
#399 = EDGE_LOOP('',(#400,#401,#402,#403));
#400 = ORIENTED_EDGE('',*,*,#155,.T.);
#401 = ORIENTED_EDGE('',*,*,#186,.T.);
#402 = ORIENTED_EDGE('',*,*,#217,.T.);
#403 = ORIENTED_EDGE('',*,*,#248,.T.);
#404 = FACE_BOUND('',#405,.F.);
#405 = EDGE_LOOP('',(#406));
#406 = ORIENTED_EDGE('',*,*,#279,.T.);
#407 = FACE_BOUND('',#408,.F.);
#408 = EDGE_LOOP('',(#409));
#409 = ORIENTED_EDGE('',*,*,#312,.T.);
#410 = FACE_BOUND('',#411,.F.);
#411 = EDGE_LOOP('',(#412));
#412 = ORIENTED_EDGE('',*,*,#345,.T.);
#413 = PLANE('',#414);
#414 = AXIS2_PLACEMENT_3D('',#415,#416,#417);
#415 = CARTESIAN_POINT('',(-0.367750367036,-3.,0.394334730918));
#416 = DIRECTION('',(0.,1.,-4.930380657631E-32));
#417 = DIRECTION('',(0.,4.930380657631E-32,1.));
#418 = ( GEOMETRIC_REPRESENTATION_CONTEXT(3) 
GLOBAL_UNCERTAINTY_ASSIGNED_CONTEXT((#422)) GLOBAL_UNIT_ASSIGNED_CONTEXT
((#419,#420,#421)) REPRESENTATION_CONTEXT('Context #1',
  '3D Context with UNIT and UNCERTAINTY') );
#419 = ( LENGTH_UNIT() NAMED_UNIT(*) SI_UNIT(.MILLI.,.METRE.) );
#420 = ( NAMED_UNIT(*) PLANE_ANGLE_UNIT() SI_UNIT($,.RADIAN.) );
#421 = ( NAMED_UNIT(*) SI_UNIT($,.STERADIAN.) SOLID_ANGLE_UNIT() );
#422 = UNCERTAINTY_MEASURE_WITH_UNIT(LENGTH_MEASURE(1.E-07),#419,
  'distance_accuracy_value','confusion accuracy');
#423 = PRODUCT_RELATED_PRODUCT_CATEGORY('part',$,(#7));
#424 = MECHANICAL_DESIGN_GEOMETRIC_PRESENTATION_REPRESENTATION('',(#425)
  ,#418);
#425 = STYLED_ITEM('color',(#426),#15);
#426 = PRESENTATION_STYLE_ASSIGNMENT((#427,#433));
#427 = SURFACE_STYLE_USAGE(.BOTH.,#428);
#428 = SURFACE_SIDE_STYLE('',(#429));
#429 = SURFACE_STYLE_FILL_AREA(#430);
#430 = FILL_AREA_STYLE('',(#431));
#431 = FILL_AREA_STYLE_COLOUR('',#432);
#432 = COLOUR_RGB('',0.800000010877,0.800000010877,0.800000010877);
#433 = CURVE_STYLE('',#434,POSITIVE_LENGTH_MEASURE(0.1),#435);
#434 = DRAUGHTING_PRE_DEFINED_CURVE_FONT('continuous');
#435 = COLOUR_RGB('',9.803921802644E-02,9.803921802644E-02,
  9.803921802644E-02);
ENDSEC;
END-ISO-10303-21;
