<?xml version="1.0"?>
<!DOCTYPE svg PUBLIC "-//W3C//DTD SVG 1.1//EN" "http://www.w3.org/Graphics/SVG/1.1/DTD/svg11.dtd">
<svg width="5.099628503027149mm" height="12.599169659787734mm" viewBox="0 0 5.099628503027149 12.599169659787734" xmlns="http://www.w3.org/2000/svg" version="1.1">
<g id="Pad005" transform="translate(2.549632,10.049338) scale(1,-1)">
<circle cx="0.0" cy="0.0" r="2.5" stroke="#191919" stroke-width="0.35 px" style="stroke-width:0.35;stroke-miterlimit:4;stroke-dasharray:none;stroke-linecap:square;fill:#ffffff"/>
<circle cx="0.0" cy="0.0" r="1.0" stroke="#191919" stroke-width="0.35 px" style="stroke-width:0.35;stroke-miterlimit:4;stroke-dasharray:none;stroke-linecap:square;fill:#ffffff"/>
<path id="Pad005_f0002"  d="M 1.666666666666665 6.363389981249824 L 1.666666666666665 6.363389981249824 L 1.666666666666665 1.863389981249823 L 1.666666666666665 1.8633899812498227 L 1.666666666666665 6.363389981249824 Z " stroke="#191919" stroke-width="0.35 px" style="stroke-width:0.35;stroke-miterlimit:4;stroke-dasharray:none;stroke-linecap:square;fill:#ffffff;fill-opacity:1.0;fill-rule: evenodd"/>
<path id="Pad005_f0003"  d="M -1.666666666666666 6.363389981249824 L -0.373587625800669 9.742941546964552 A 0.4 0.4 0 0 0 0.373588 9.74294L 1.666666666666665 6.363389981249824 L 1.666666666666665 1.863389981249823 A 2.5 2.5 0 0 1 -1.66667 1.86339L -1.666666666666666 6.363389981249824 Z " stroke="#191919" stroke-width="0.35 px" style="stroke-width:0.35;stroke-miterlimit:4;stroke-dasharray:none;stroke-linecap:square;fill:#ffffff;fill-opacity:1.0;fill-rule: evenodd"/>
<path id="Pad005_f0004"  d="M -1.666666666666666 1.863389981249823 L -1.666666666666666 1.863389981249823 L -1.666666666666666 6.363389981249824 L -1.6666666666666656 6.363389981249824 L -1.6666666666666656 1.8633899812498231 Z " stroke="#191919" stroke-width="0.35 px" style="stroke-width:0.35;stroke-miterlimit:4;stroke-dasharray:none;stroke-linecap:square;fill:#ffffff;fill-opacity:1.0;fill-rule: evenodd"/>
<circle cx="0.0" cy="0.0" r="2.5" stroke="#191919" stroke-width="0.35 px" style="stroke-width:0.35;stroke-miterlimit:4;stroke-dasharray:none;stroke-linecap:square;fill:#ffffff"/>
<path id="Pad005_f0006"  d="M -1.666666666666666 1.863389981249823 L -1.666666666666666 6.363389981249824 L -0.373587625800669 9.742941546964552 A 0.4 0.4 0 0 0 0.373588 9.74294L 1.666666666666665 6.363389981249824 L 1.666666666666665 1.863389981249823 A 2.5 2.5 0 0 1 -1.66667 1.86339Z " stroke="#191919" stroke-width="0.35 px" style="stroke-width:0.35;stroke-miterlimit:4;stroke-dasharray:none;stroke-linecap:square;fill:#ffffff;fill-opacity:1.0;fill-rule: evenodd"/>
<circle cx="0.0" cy="0.0" r="1.0" stroke="#191919" stroke-width="0.35 px" style="stroke-width:0.35;stroke-miterlimit:4;stroke-dasharray:none;stroke-linecap:square;fill:#ffffff"/>
<path id="Pad005_f0008"  d="M 0.373587625800669 9.742941546964552 L 0.373587625800669 9.742941546964552 L 1.666666666666665 6.363389981249824 L 1.666666666666665 6.363389981249824 L 0.37358762580066945 9.742941546964552 Z " stroke="#191919" stroke-width="0.35 px" style="stroke-width:0.35;stroke-miterlimit:4;stroke-dasharray:none;stroke-linecap:square;fill:#ffffff;fill-opacity:1.0;fill-rule: evenodd"/>
<path id="Pad005_f0009"  d="M -1.666666666666666 6.363389981249824 L -1.666666666666666 6.363389981249824 L -0.373587625800669 9.742941546964552 L -0.3735876258006694 9.742941546964552 L -1.6666666666666656 6.363389981249824 Z " stroke="#191919" stroke-width="0.35 px" style="stroke-width:0.35;stroke-miterlimit:4;stroke-dasharray:none;stroke-linecap:square;fill:#ffffff;fill-opacity:1.0;fill-rule: evenodd"/>
<path id="Pad005_f0010"  d="M -0.37358762580066956 9.742941546964552 A 0.4 0.4 0 0 0 0.373588 9.74294L 0.373587625800669 9.742941546964552 A 0.4 0.4 0 0 1 -0.373588 9.74294L -0.3735876258006694 9.742941546964552 Z " stroke="#191919" stroke-width="0.35 px" style="stroke-width:0.35;stroke-miterlimit:4;stroke-dasharray:none;stroke-linecap:square;fill:#ffffff;fill-opacity:1.0;fill-rule: evenodd"/>
<circle cx="0.0" cy="0.0" r="1.0" stroke="#191919" stroke-width="0.35 px" style="stroke-width:0.35;stroke-miterlimit:4;stroke-dasharray:none;stroke-linecap:square;fill:#ffffff"/>
<title>b'Pad005'</title>
</g>
</svg>