ISO-10303-21;
HEADER;
FILE_DESCRIPTION(('FreeCAD Model'),'2;1');
FILE_NAME('Open CASCADE Shape Model','2026-04-29T20:56:40',(''),(''),
  'Open CASCADE STEP processor 7.7','FreeCAD','Unknown');
FILE_SCHEMA(('AUTOMOTIVE_DESIGN { 1 0 10303 214 1 1 1 1 }'));
ENDSEC;
DATA;
#1 = APPLICATION_PROTOCOL_DEFINITION('international standard',
  'automotive_design',2000,#2);
#2 = APPLICATION_CONTEXT(
  'core data for automotive mechanical design processes');
#3 = SHAPE_DEFINITION_REPRESENTATION(#4,#10);
#4 = PRODUCT_DEFINITION_SHAPE('','',#5);
#5 = PRODUCT_DEFINITION('design','',#6,#9);
#6 = PRODUCT_DEFINITION_FORMATION('','',#7);
#7 = PRODUCT('GX12Holder','GX12Holder','',(#8));
#8 = PRODUCT_CONTEXT('',#2,'mechanical');
#9 = PRODUCT_DEFINITION_CONTEXT('part definition',#2,'design');
#10 = ADVANCED_BREP_SHAPE_REPRESENTATION('',(#11,#15),#788);
#11 = AXIS2_PLACEMENT_3D('',#12,#13,#14);
#12 = CARTESIAN_POINT('',(0.,0.,0.));
#13 = DIRECTION('',(0.,0.,1.));
#14 = DIRECTION('',(1.,0.,-0.));
#15 = MANIFOLD_SOLID_BREP('',#16);
#16 = CLOSED_SHELL('',(#17,#57,#96,#120,#227,#252,#284,#317,#385,#416,
    #440,#457,#518,#548,#573,#598,#623,#648,#665,#691,#708,#720,#742,
    #759,#776));
#17 = ADVANCED_FACE('',(#18),#52,.T.);
#18 = FACE_BOUND('',#19,.T.);
#19 = EDGE_LOOP('',(#20,#30,#38,#46));
#20 = ORIENTED_EDGE('',*,*,#21,.T.);
#21 = EDGE_CURVE('',#22,#24,#26,.T.);
#22 = VERTEX_POINT('',#23);
#23 = CARTESIAN_POINT('',(-5.116101042813E-14,1.33226762955E-14,
    39.999999999997));
#24 = VERTEX_POINT('',#25);
#25 = CARTESIAN_POINT('',(-6.,1.731947918415E-14,39.999999999997));
#26 = LINE('',#27,#28);
#27 = CARTESIAN_POINT('',(-6.892457882213E-14,-4.4408920985E-15,
    39.999999999997));
#28 = VECTOR('',#29,1.);
#29 = DIRECTION('',(-1.,1.110223024625E-15,1.110223024625E-16));
#30 = ORIENTED_EDGE('',*,*,#31,.T.);
#31 = EDGE_CURVE('',#24,#32,#34,.T.);
#32 = VERTEX_POINT('',#33);
#33 = CARTESIAN_POINT('',(-6.,3.,39.999999999997));
#34 = LINE('',#35,#36);
#35 = CARTESIAN_POINT('',(-6.,4.884981308351E-15,39.999999999997));
#36 = VECTOR('',#37,1.);
#37 = DIRECTION('',(-4.440892098501E-16,1.,-1.443289932013E-15));
#38 = ORIENTED_EDGE('',*,*,#39,.F.);
#39 = EDGE_CURVE('',#40,#32,#42,.T.);
#40 = VERTEX_POINT('',#41);
#41 = CARTESIAN_POINT('',(-5.116101042813E-14,3.,39.999999999997));
#42 = LINE('',#43,#44);
#43 = CARTESIAN_POINT('',(-7.025684645168E-14,3.,39.999999999997));
#44 = VECTOR('',#45,1.);
#45 = DIRECTION('',(-1.,1.110223024625E-15,1.110223024625E-16));
#46 = ORIENTED_EDGE('',*,*,#47,.F.);
#47 = EDGE_CURVE('',#22,#40,#48,.T.);
#48 = LINE('',#49,#50);
#49 = CARTESIAN_POINT('',(-7.780636301913E-14,-1.33226762955E-14,
    39.999999999997));
#50 = VECTOR('',#51,1.);
#51 = DIRECTION('',(-6.661338147751E-16,1.,-1.665334536938E-15));
#52 = PLANE('',#53);
#53 = AXIS2_PLACEMENT_3D('',#54,#55,#56);
#54 = CARTESIAN_POINT('',(-6.892457882213E-14,-4.4408920985E-15,
    39.999999999997));
#55 = DIRECTION('',(1.221245327088E-15,-1.110223024625E-16,-1.));
#56 = DIRECTION('',(-4.440892098501E-16,1.,-1.443289932013E-15));
#57 = ADVANCED_FACE('',(#58),#91,.T.);
#58 = FACE_BOUND('',#59,.T.);
#59 = EDGE_LOOP('',(#60,#61,#69,#77,#85));
#60 = ORIENTED_EDGE('',*,*,#21,.F.);
#61 = ORIENTED_EDGE('',*,*,#62,.F.);
#62 = EDGE_CURVE('',#63,#22,#65,.T.);
#63 = VERTEX_POINT('',#64);
#64 = CARTESIAN_POINT('',(-6.971155173916E-14,2.492319463078E-14,55.));
#65 = LINE('',#66,#67);
#66 = CARTESIAN_POINT('',(-1.221245327088E-13,-2.442490654175E-14,55.));
#67 = VECTOR('',#68,1.);
#68 = DIRECTION('',(2.22044604925E-15,4.440892098501E-16,-1.));
#69 = ORIENTED_EDGE('',*,*,#70,.T.);
#70 = EDGE_CURVE('',#63,#71,#73,.T.);
#71 = VERTEX_POINT('',#72);
#72 = CARTESIAN_POINT('',(-17.,3.674566843329E-14,55.));
#73 = LINE('',#74,#75);
#74 = CARTESIAN_POINT('',(-9.057392780233E-14,9.964870403579E-16,55.));
#75 = VECTOR('',#76,1.);
#76 = DIRECTION('',(-1.,1.110223024625E-15,1.110223024625E-16));
#77 = ORIENTED_EDGE('',*,*,#78,.T.);
#78 = EDGE_CURVE('',#71,#79,#81,.T.);
#79 = VERTEX_POINT('',#80);
#80 = CARTESIAN_POINT('',(-17.,3.441095957191E-14,50.999999999997));
#81 = LINE('',#82,#83);
#82 = CARTESIAN_POINT('',(-17.,1.055949448616E-16,55.));
#83 = VECTOR('',#84,1.);
#84 = DIRECTION('',(1.665334536938E-15,-1.402664259457E-16,-1.));
#85 = ORIENTED_EDGE('',*,*,#86,.F.);
#86 = EDGE_CURVE('',#24,#79,#87,.T.);
#87 = LINE('',#88,#89);
#88 = CARTESIAN_POINT('',(-11.,9.583116326731E-15,44.999999999998));
#89 = VECTOR('',#90,1.);
#90 = DIRECTION('',(-0.707106781187,1.041238816169E-15,0.707106781187));
#91 = PLANE('',#92);
#92 = AXIS2_PLACEMENT_3D('',#93,#94,#95);
#93 = CARTESIAN_POINT('',(-9.057392780233E-14,9.937733645617E-16,55.));
#94 = DIRECTION('',(2.22044604925E-16,-1.,1.694578660421E-15));
#95 = DIRECTION('',(1.443289932013E-15,-3.623110308707E-16,-1.));
#96 = ADVANCED_FACE('',(#97),#115,.F.);
#97 = FACE_BOUND('',#98,.F.);
#98 = EDGE_LOOP('',(#99,#100,#101,#109));
#99 = ORIENTED_EDGE('',*,*,#86,.F.);
#100 = ORIENTED_EDGE('',*,*,#31,.T.);
#101 = ORIENTED_EDGE('',*,*,#102,.T.);
#102 = EDGE_CURVE('',#32,#103,#105,.T.);
#103 = VERTEX_POINT('',#104);
#104 = CARTESIAN_POINT('',(-17.,3.,50.999999999997));
#105 = LINE('',#106,#107);
#106 = CARTESIAN_POINT('',(-7.25,3.,41.249999999997));
#107 = VECTOR('',#108,1.);
#108 = DIRECTION('',(-0.707106781187,7.065416064077E-16,0.707106781187)
  );
#109 = ORIENTED_EDGE('',*,*,#110,.F.);
#110 = EDGE_CURVE('',#79,#103,#111,.T.);
#111 = LINE('',#112,#113);
#112 = CARTESIAN_POINT('',(-17.,1.587618925214E-14,50.999999999997));
#113 = VECTOR('',#114,1.);
#114 = DIRECTION('',(-4.440892098501E-16,1.,-1.443289932013E-15));
#115 = PLANE('',#116);
#116 = AXIS2_PLACEMENT_3D('',#117,#118,#119);
#117 = CARTESIAN_POINT('',(-11.5,1.038058528025E-14,45.499999999997));
#118 = DIRECTION('',(0.707106781187,-1.014515952582E-15,0.707106781187)
  );
#119 = DIRECTION('',(-1.152961587766E-16,1.,-1.114496880939E-15));
#120 = ADVANCED_FACE('',(#121,#178,#189,#200,#211),#222,.F.);
#121 = FACE_BOUND('',#122,.F.);
#122 = EDGE_LOOP('',(#123,#133,#141,#149,#155,#156,#164,#172));
#123 = ORIENTED_EDGE('',*,*,#124,.F.);
#124 = EDGE_CURVE('',#125,#127,#129,.T.);
#125 = VERTEX_POINT('',#126);
#126 = CARTESIAN_POINT('',(-6.261657858886E-14,20.5,47.));
#127 = VERTEX_POINT('',#128);
#128 = CARTESIAN_POINT('',(-1.86517468137E-14,20.5,14.));
#129 = LINE('',#130,#131);
#130 = CARTESIAN_POINT('',(-3.244259902477E-14,20.5,13.1455309394));
#131 = VECTOR('',#132,1.);
#132 = DIRECTION('',(4.440892098501E-16,-1.110223024625E-16,-1.));
#133 = ORIENTED_EDGE('',*,*,#134,.T.);
#134 = EDGE_CURVE('',#125,#135,#137,.T.);
#135 = VERTEX_POINT('',#136);
#136 = CARTESIAN_POINT('',(-6.315141909408E-14,20.5,51.999999999997));
#137 = LINE('',#138,#139);
#138 = CARTESIAN_POINT('',(-1.225686219186E-13,20.5,47.));
#139 = VECTOR('',#140,1.);
#140 = DIRECTION('',(-2.22044604925E-15,-4.440892098501E-16,1.));
#141 = ORIENTED_EDGE('',*,*,#142,.F.);
#142 = EDGE_CURVE('',#143,#135,#145,.T.);
#143 = VERTEX_POINT('',#144);
#144 = CARTESIAN_POINT('',(-6.315141909408E-14,3.,51.999999999997));
#145 = LINE('',#146,#147);
#146 = CARTESIAN_POINT('',(-9.978877890671E-14,3.,51.999999999997));
#147 = VECTOR('',#148,1.);
#148 = DIRECTION('',(-6.661338147751E-16,1.,-1.665334536938E-15));
#149 = ORIENTED_EDGE('',*,*,#150,.F.);
#150 = EDGE_CURVE('',#40,#143,#151,.T.);
#151 = LINE('',#152,#153);
#152 = CARTESIAN_POINT('',(-7.980476446346E-14,3.,39.999999999997));
#153 = VECTOR('',#154,1.);
#154 = DIRECTION('',(-1.665334536938E-15,-3.330669073875E-16,1.));
#155 = ORIENTED_EDGE('',*,*,#47,.F.);
#156 = ORIENTED_EDGE('',*,*,#157,.T.);
#157 = EDGE_CURVE('',#22,#158,#160,.T.);
#158 = VERTEX_POINT('',#159);
#159 = CARTESIAN_POINT('',(0.,0.,0.));
#160 = LINE('',#161,#162);
#161 = CARTESIAN_POINT('',(-1.221245327088E-13,-2.442490654175E-14,55.)
  );
#162 = VECTOR('',#163,1.);
#163 = DIRECTION('',(2.22044604925E-15,4.440892098501E-16,-1.));
#164 = ORIENTED_EDGE('',*,*,#165,.T.);
#165 = EDGE_CURVE('',#158,#166,#168,.T.);
#166 = VERTEX_POINT('',#167);
#167 = CARTESIAN_POINT('',(1.577721810442E-29,20.5,-2.731148640578E-14)
  );
#168 = LINE('',#169,#170);
#169 = CARTESIAN_POINT('',(0.,0.,0.));
#170 = VECTOR('',#171,1.);
#171 = DIRECTION('',(-8.881784197001E-16,1.,-2.22044604925E-15));
#172 = ORIENTED_EDGE('',*,*,#173,.T.);
#173 = EDGE_CURVE('',#166,#127,#174,.T.);
#174 = LINE('',#175,#176);
#175 = CARTESIAN_POINT('',(-1.820765760385E-14,20.5,-4.551914400963E-14)
  );
#176 = VECTOR('',#177,1.);
#177 = DIRECTION('',(-2.22044604925E-15,-4.440892098501E-16,1.));
#178 = FACE_BOUND('',#179,.F.);
#179 = EDGE_LOOP('',(#180));
#180 = ORIENTED_EDGE('',*,*,#181,.F.);
#181 = EDGE_CURVE('',#182,#182,#184,.T.);
#182 = VERTEX_POINT('',#183);
#183 = CARTESIAN_POINT('',(-6.661338147751E-15,18.75,5.));
#184 = CIRCLE('',#185,1.75);
#185 = AXIS2_PLACEMENT_3D('',#186,#187,#188);
#186 = CARTESIAN_POINT('',(-2.620126338115E-14,17.,5.));
#187 = DIRECTION('',(1.,8.881784197001E-16,2.22044604925E-15));
#188 = DIRECTION('',(-8.881784197001E-16,1.,-2.22044604925E-15));
#189 = FACE_BOUND('',#190,.F.);
#190 = EDGE_LOOP('',(#191));
#191 = ORIENTED_EDGE('',*,*,#192,.F.);
#192 = EDGE_CURVE('',#193,#193,#195,.T.);
#193 = VERTEX_POINT('',#194);
#194 = CARTESIAN_POINT('',(-6.661338147751E-15,6.75,5.));
#195 = CIRCLE('',#196,1.75);
#196 = AXIS2_PLACEMENT_3D('',#197,#198,#199);
#197 = CARTESIAN_POINT('',(-1.554312234475E-14,5.,5.));
#198 = DIRECTION('',(1.,8.881784197001E-16,2.22044604925E-15));
#199 = DIRECTION('',(-8.881784197001E-16,1.,-2.22044604925E-15));
#200 = FACE_BOUND('',#201,.F.);
#201 = EDGE_LOOP('',(#202));
#202 = ORIENTED_EDGE('',*,*,#203,.F.);
#203 = EDGE_CURVE('',#204,#204,#206,.T.);
#204 = VERTEX_POINT('',#205);
#205 = CARTESIAN_POINT('',(-4.662936703426E-14,18.75,35.));
#206 = CIRCLE('',#207,1.75);
#207 = AXIS2_PLACEMENT_3D('',#208,#209,#210);
#208 = CARTESIAN_POINT('',(-9.281464485866E-14,17.,35.));
#209 = DIRECTION('',(1.,8.881784197001E-16,2.22044604925E-15));
#210 = DIRECTION('',(-8.881784197001E-16,1.,-2.22044604925E-15));
#211 = FACE_BOUND('',#212,.F.);
#212 = EDGE_LOOP('',(#213));
#213 = ORIENTED_EDGE('',*,*,#214,.F.);
#214 = EDGE_CURVE('',#215,#215,#217,.T.);
#215 = VERTEX_POINT('',#216);
#216 = CARTESIAN_POINT('',(-4.662936703426E-14,6.75,35.));
#217 = CIRCLE('',#218,1.75);
#218 = AXIS2_PLACEMENT_3D('',#219,#220,#221);
#219 = CARTESIAN_POINT('',(-8.215650382226E-14,5.,35.));
#220 = DIRECTION('',(1.,8.881784197001E-16,2.22044604925E-15));
#221 = DIRECTION('',(-8.881784197001E-16,1.,-2.22044604925E-15));
#222 = PLANE('',#223);
#223 = AXIS2_PLACEMENT_3D('',#224,#225,#226);
#224 = CARTESIAN_POINT('',(-7.979865685414E-14,24.117645621247,
    26.291061878799));
#225 = DIRECTION('',(1.,-1.7763568394E-15,-4.440892098501E-16));
#226 = DIRECTION('',(-2.22044604925E-15,-4.440892098501E-16,1.));
#227 = ADVANCED_FACE('',(#228),#247,.T.);
#228 = FACE_BOUND('',#229,.T.);
#229 = EDGE_LOOP('',(#230,#231,#232,#240,#246));
#230 = ORIENTED_EDGE('',*,*,#39,.T.);
#231 = ORIENTED_EDGE('',*,*,#102,.T.);
#232 = ORIENTED_EDGE('',*,*,#233,.T.);
#233 = EDGE_CURVE('',#103,#234,#236,.T.);
#234 = VERTEX_POINT('',#235);
#235 = CARTESIAN_POINT('',(-17.,3.,51.999999999997));
#236 = LINE('',#237,#238);
#237 = CARTESIAN_POINT('',(-17.,3.,39.999999999997));
#238 = VECTOR('',#239,1.);
#239 = DIRECTION('',(-1.665334536938E-15,-3.330669073875E-16,1.));
#240 = ORIENTED_EDGE('',*,*,#241,.F.);
#241 = EDGE_CURVE('',#143,#234,#242,.T.);
#242 = LINE('',#243,#244);
#243 = CARTESIAN_POINT('',(-8.757632563584E-14,3.,51.999999999997));
#244 = VECTOR('',#245,1.);
#245 = DIRECTION('',(-1.,1.110223024625E-15,1.110223024625E-16));
#246 = ORIENTED_EDGE('',*,*,#150,.F.);
#247 = PLANE('',#248);
#248 = AXIS2_PLACEMENT_3D('',#249,#250,#251);
#249 = CARTESIAN_POINT('',(-7.025684645168E-14,3.,39.999999999997));
#250 = DIRECTION('',(-2.22044604925E-16,1.,-1.221245327088E-15));
#251 = DIRECTION('',(-1.443289932013E-15,-1.110223024625E-16,1.));
#252 = ADVANCED_FACE('',(#253),#279,.F.);
#253 = FACE_BOUND('',#254,.F.);
#254 = EDGE_LOOP('',(#255,#263,#271,#277,#278));
#255 = ORIENTED_EDGE('',*,*,#256,.T.);
#256 = EDGE_CURVE('',#63,#257,#259,.T.);
#257 = VERTEX_POINT('',#258);
#258 = CARTESIAN_POINT('',(3.,2.176037128265E-14,55.));
#259 = LINE('',#260,#261);
#260 = CARTESIAN_POINT('',(-1.099120794379E-13,-1.221245327088E-14,55.)
  );
#261 = VECTOR('',#262,1.);
#262 = DIRECTION('',(1.,-1.554312234475E-15,-2.22044604925E-16));
#263 = ORIENTED_EDGE('',*,*,#264,.T.);
#264 = EDGE_CURVE('',#257,#265,#267,.T.);
#265 = VERTEX_POINT('',#266);
#266 = CARTESIAN_POINT('',(3.,-2.6645352591E-15,1.33226762955E-15));
#267 = LINE('',#268,#269);
#268 = CARTESIAN_POINT('',(3.,-2.708944180085E-14,55.));
#269 = VECTOR('',#270,1.);
#270 = DIRECTION('',(2.22044604925E-15,4.440892098501E-16,-1.));
#271 = ORIENTED_EDGE('',*,*,#272,.F.);
#272 = EDGE_CURVE('',#158,#265,#273,.T.);
#273 = LINE('',#274,#275);
#274 = CARTESIAN_POINT('',(0.,0.,0.));
#275 = VECTOR('',#276,1.);
#276 = DIRECTION('',(1.,-1.554312234475E-15,-2.22044604925E-16));
#277 = ORIENTED_EDGE('',*,*,#157,.F.);
#278 = ORIENTED_EDGE('',*,*,#62,.F.);
#279 = PLANE('',#280);
#280 = AXIS2_PLACEMENT_3D('',#281,#282,#283);
#281 = CARTESIAN_POINT('',(-1.099120794379E-13,-1.221245327088E-14,55.)
  );
#282 = DIRECTION('',(-4.440892098501E-16,1.,-1.7763568394E-15));
#283 = DIRECTION('',(1.998401444325E-15,2.22044604925E-16,-1.));
#284 = ADVANCED_FACE('',(#285),#312,.F.);
#285 = FACE_BOUND('',#286,.F.);
#286 = EDGE_LOOP('',(#287,#288,#289,#290,#298,#306));
#287 = ORIENTED_EDGE('',*,*,#78,.T.);
#288 = ORIENTED_EDGE('',*,*,#110,.T.);
#289 = ORIENTED_EDGE('',*,*,#233,.T.);
#290 = ORIENTED_EDGE('',*,*,#291,.T.);
#291 = EDGE_CURVE('',#234,#292,#294,.T.);
#292 = VERTEX_POINT('',#293);
#293 = CARTESIAN_POINT('',(-17.,20.5,51.999999999997));
#294 = LINE('',#295,#296);
#295 = CARTESIAN_POINT('',(-17.,3.,51.999999999997));
#296 = VECTOR('',#297,1.);
#297 = DIRECTION('',(-6.661338147751E-16,1.,-1.665334536938E-15));
#298 = ORIENTED_EDGE('',*,*,#299,.T.);
#299 = EDGE_CURVE('',#292,#300,#302,.T.);
#300 = VERTEX_POINT('',#301);
#301 = CARTESIAN_POINT('',(-17.,20.5,55.));
#302 = LINE('',#303,#304);
#303 = CARTESIAN_POINT('',(-17.,20.5,51.999999999997));
#304 = VECTOR('',#305,1.);
#305 = DIRECTION('',(-1.665334536938E-15,-3.330669073875E-16,1.));
#306 = ORIENTED_EDGE('',*,*,#307,.T.);
#307 = EDGE_CURVE('',#300,#71,#308,.T.);
#308 = LINE('',#309,#310);
#309 = CARTESIAN_POINT('',(-17.,20.5,55.));
#310 = VECTOR('',#311,1.);
#311 = DIRECTION('',(6.661338147751E-16,-1.,2.011940749504E-15));
#312 = PLANE('',#313);
#313 = AXIS2_PLACEMENT_3D('',#314,#315,#316);
#314 = CARTESIAN_POINT('',(-17.,7.292253521127,50.457746478872));
#315 = DIRECTION('',(1.,-1.33226762955E-15,-3.330669073875E-16));
#316 = DIRECTION('',(-1.665334536938E-15,-3.330669073875E-16,1.));
#317 = ADVANCED_FACE('',(#318,#344),#380,.T.);
#318 = FACE_BOUND('',#319,.T.);
#319 = EDGE_LOOP('',(#320,#330,#336,#337,#338));
#320 = ORIENTED_EDGE('',*,*,#321,.T.);
#321 = EDGE_CURVE('',#322,#324,#326,.T.);
#322 = VERTEX_POINT('',#323);
#323 = CARTESIAN_POINT('',(-6.971187044292E-14,20.5,55.));
#324 = VERTEX_POINT('',#325);
#325 = CARTESIAN_POINT('',(-2.5,20.5,55.));
#326 = LINE('',#327,#328);
#327 = CARTESIAN_POINT('',(-9.967775660425E-14,20.5,55.));
#328 = VECTOR('',#329,1.);
#329 = DIRECTION('',(-1.,1.110223024625E-15,1.110223024625E-16));
#330 = ORIENTED_EDGE('',*,*,#331,.T.);
#331 = EDGE_CURVE('',#324,#300,#332,.T.);
#332 = LINE('',#333,#334);
#333 = CARTESIAN_POINT('',(-9.967775660425E-14,20.5,55.));
#334 = VECTOR('',#335,1.);
#335 = DIRECTION('',(-1.,1.110223024625E-15,1.110223024625E-16));
#336 = ORIENTED_EDGE('',*,*,#307,.T.);
#337 = ORIENTED_EDGE('',*,*,#70,.F.);
#338 = ORIENTED_EDGE('',*,*,#339,.F.);
#339 = EDGE_CURVE('',#322,#63,#340,.T.);
#340 = LINE('',#341,#342);
#341 = CARTESIAN_POINT('',(-1.403321903126E-13,20.5,55.));
#342 = VECTOR('',#343,1.);
#343 = DIRECTION('',(8.881784197001E-16,-1.,2.22044604925E-15));
#344 = FACE_BOUND('',#345,.T.);
#345 = EDGE_LOOP('',(#346,#357,#365,#374));
#346 = ORIENTED_EDGE('',*,*,#347,.F.);
#347 = EDGE_CURVE('',#348,#350,#352,.T.);
#348 = VERTEX_POINT('',#349);
#349 = CARTESIAN_POINT('',(-2.85,14.399456457513,55.));
#350 = VERTEX_POINT('',#351);
#351 = CARTESIAN_POINT('',(-14.15,14.399456457513,55.));
#352 = CIRCLE('',#353,6.1);
#353 = AXIS2_PLACEMENT_3D('',#354,#355,#356);
#354 = CARTESIAN_POINT('',(-8.5,12.1,55.));
#355 = DIRECTION('',(2.22044604925E-16,1.110223024625E-15,1.));
#356 = DIRECTION('',(6.661338147751E-16,-1.,1.110223024625E-15));
#357 = ORIENTED_EDGE('',*,*,#358,.T.);
#358 = EDGE_CURVE('',#348,#359,#361,.T.);
#359 = VERTEX_POINT('',#360);
#360 = CARTESIAN_POINT('',(-2.85,9.800543542487,55.));
#361 = LINE('',#362,#363);
#362 = CARTESIAN_POINT('',(-2.85,14.399456457513,55.));
#363 = VECTOR('',#364,1.);
#364 = DIRECTION('',(6.661338147751E-16,-1.,1.110223024625E-15));
#365 = ORIENTED_EDGE('',*,*,#366,.F.);
#366 = EDGE_CURVE('',#367,#359,#369,.T.);
#367 = VERTEX_POINT('',#368);
#368 = CARTESIAN_POINT('',(-14.15,9.800543542487,55.));
#369 = CIRCLE('',#370,6.1);
#370 = AXIS2_PLACEMENT_3D('',#371,#372,#373);
#371 = CARTESIAN_POINT('',(-8.5,12.1,55.));
#372 = DIRECTION('',(2.22044604925E-16,1.110223024625E-15,1.));
#373 = DIRECTION('',(6.661338147751E-16,-1.,1.110223024625E-15));
#374 = ORIENTED_EDGE('',*,*,#375,.F.);
#375 = EDGE_CURVE('',#350,#367,#376,.T.);
#376 = LINE('',#377,#378);
#377 = CARTESIAN_POINT('',(-14.15,14.399456457513,55.));
#378 = VECTOR('',#379,1.);
#379 = DIRECTION('',(6.661338147751E-16,-1.,1.110223024625E-15));
#380 = PLANE('',#381);
#381 = AXIS2_PLACEMENT_3D('',#382,#383,#384);
#382 = CARTESIAN_POINT('',(-9.967775660425E-14,20.5,55.));
#383 = DIRECTION('',(-1.221245327088E-15,4.576285150284E-16,1.));
#384 = DIRECTION('',(4.440892098501E-16,-1.,1.789896144579E-15));
#385 = ADVANCED_FACE('',(#386),#411,.F.);
#386 = FACE_BOUND('',#387,.F.);
#387 = EDGE_LOOP('',(#388,#389,#397,#405));
#388 = ORIENTED_EDGE('',*,*,#124,.T.);
#389 = ORIENTED_EDGE('',*,*,#390,.T.);
#390 = EDGE_CURVE('',#127,#391,#393,.T.);
#391 = VERTEX_POINT('',#392);
#392 = CARTESIAN_POINT('',(3.,20.5,14.));
#393 = LINE('',#394,#395);
#394 = CARTESIAN_POINT('',(-4.163336342344E-14,20.5,14.));
#395 = VECTOR('',#396,1.);
#396 = DIRECTION('',(1.,-1.554312234475E-15,-2.22044604925E-16));
#397 = ORIENTED_EDGE('',*,*,#398,.F.);
#398 = EDGE_CURVE('',#399,#391,#401,.T.);
#399 = VERTEX_POINT('',#400);
#400 = CARTESIAN_POINT('',(3.,20.5,47.));
#401 = LINE('',#402,#403);
#402 = CARTESIAN_POINT('',(3.,20.5,13.1455309394));
#403 = VECTOR('',#404,1.);
#404 = DIRECTION('',(4.440892098501E-16,-1.110223024625E-16,-1.));
#405 = ORIENTED_EDGE('',*,*,#406,.F.);
#406 = EDGE_CURVE('',#125,#399,#407,.T.);
#407 = LINE('',#408,#409);
#408 = CARTESIAN_POINT('',(-1.075806110862E-13,20.5,47.));
#409 = VECTOR('',#410,1.);
#410 = DIRECTION('',(1.,-1.554312234475E-15,-2.22044604925E-16));
#411 = PLANE('',#412);
#412 = AXIS2_PLACEMENT_3D('',#413,#414,#415);
#413 = CARTESIAN_POINT('',(-2.5,20.5,-7.382983113757E-15));
#414 = DIRECTION('',(-2.22044604925E-16,-1.,1.110223024625E-16));
#415 = DIRECTION('',(-3.330669073875E-16,1.110223024625E-16,1.));
#416 = ADVANCED_FACE('',(#417),#435,.F.);
#417 = FACE_BOUND('',#418,.F.);
#418 = EDGE_LOOP('',(#419,#427,#433,#434));
#419 = ORIENTED_EDGE('',*,*,#420,.T.);
#420 = EDGE_CURVE('',#166,#421,#423,.T.);
#421 = VERTEX_POINT('',#422);
#422 = CARTESIAN_POINT('',(3.,20.5,-2.597921877623E-14));
#423 = LINE('',#424,#425);
#424 = CARTESIAN_POINT('',(-1.365574320289E-14,20.5,-4.096722960867E-14)
  );
#425 = VECTOR('',#426,1.);
#426 = DIRECTION('',(1.,-1.554312234475E-15,-2.22044604925E-16));
#427 = ORIENTED_EDGE('',*,*,#428,.T.);
#428 = EDGE_CURVE('',#421,#391,#429,.T.);
#429 = LINE('',#430,#431);
#430 = CARTESIAN_POINT('',(3.,20.5,-5.195843755246E-14));
#431 = VECTOR('',#432,1.);
#432 = DIRECTION('',(-2.22044604925E-15,-4.440892098501E-16,1.));
#433 = ORIENTED_EDGE('',*,*,#390,.F.);
#434 = ORIENTED_EDGE('',*,*,#173,.F.);
#435 = PLANE('',#436);
#436 = AXIS2_PLACEMENT_3D('',#437,#438,#439);
#437 = CARTESIAN_POINT('',(-1.365574320289E-14,20.5,-4.096722960867E-14)
  );
#438 = DIRECTION('',(4.440892098501E-16,-1.,1.7763568394E-15));
#439 = DIRECTION('',(-1.998401444325E-15,-2.22044604925E-16,1.));
#440 = ADVANCED_FACE('',(#441),#452,.F.);
#441 = FACE_BOUND('',#442,.F.);
#442 = EDGE_LOOP('',(#443,#444,#450,#451));
#443 = ORIENTED_EDGE('',*,*,#272,.T.);
#444 = ORIENTED_EDGE('',*,*,#445,.T.);
#445 = EDGE_CURVE('',#265,#421,#446,.T.);
#446 = LINE('',#447,#448);
#447 = CARTESIAN_POINT('',(3.,-2.6645352591E-15,-6.661338147751E-15));
#448 = VECTOR('',#449,1.);
#449 = DIRECTION('',(-8.881784197001E-16,1.,-2.22044604925E-15));
#450 = ORIENTED_EDGE('',*,*,#420,.F.);
#451 = ORIENTED_EDGE('',*,*,#165,.F.);
#452 = PLANE('',#453);
#453 = AXIS2_PLACEMENT_3D('',#454,#455,#456);
#454 = CARTESIAN_POINT('',(0.,0.,0.));
#455 = DIRECTION('',(-1.7763568394E-15,1.627025617018E-30,1.));
#456 = DIRECTION('',(-6.661338147751E-16,1.,-1.998401444325E-15));
#457 = ADVANCED_FACE('',(#458,#477),#513,.T.);
#458 = FACE_BOUND('',#459,.T.);
#459 = EDGE_LOOP('',(#460,#461,#462,#470,#476));
#460 = ORIENTED_EDGE('',*,*,#241,.T.);
#461 = ORIENTED_EDGE('',*,*,#291,.T.);
#462 = ORIENTED_EDGE('',*,*,#463,.F.);
#463 = EDGE_CURVE('',#464,#292,#466,.T.);
#464 = VERTEX_POINT('',#465);
#465 = CARTESIAN_POINT('',(-2.5,20.5,51.999999999997));
#466 = LINE('',#467,#468);
#467 = CARTESIAN_POINT('',(-9.534788680821E-14,20.5,51.999999999997));
#468 = VECTOR('',#469,1.);
#469 = DIRECTION('',(-1.,1.110223024625E-15,1.110223024625E-16));
#470 = ORIENTED_EDGE('',*,*,#471,.F.);
#471 = EDGE_CURVE('',#135,#464,#472,.T.);
#472 = LINE('',#473,#474);
#473 = CARTESIAN_POINT('',(-9.534788680821E-14,20.5,51.999999999997));
#474 = VECTOR('',#475,1.);
#475 = DIRECTION('',(-1.,1.110223024625E-15,1.110223024625E-16));
#476 = ORIENTED_EDGE('',*,*,#142,.F.);
#477 = FACE_BOUND('',#478,.T.);
#478 = EDGE_LOOP('',(#479,#489,#498,#506));
#479 = ORIENTED_EDGE('',*,*,#480,.T.);
#480 = EDGE_CURVE('',#481,#483,#485,.T.);
#481 = VERTEX_POINT('',#482);
#482 = CARTESIAN_POINT('',(-2.85,9.800543542487,51.999999999997));
#483 = VERTEX_POINT('',#484);
#484 = CARTESIAN_POINT('',(-2.85,14.399456457513,51.999999999997));
#485 = LINE('',#486,#487);
#486 = CARTESIAN_POINT('',(-2.85,8.699728228757,51.999999999997));
#487 = VECTOR('',#488,1.);
#488 = DIRECTION('',(-4.440892098501E-16,1.,-9.992007221626E-16));
#489 = ORIENTED_EDGE('',*,*,#490,.T.);
#490 = EDGE_CURVE('',#483,#491,#493,.T.);
#491 = VERTEX_POINT('',#492);
#492 = CARTESIAN_POINT('',(-14.15,14.399456457513,51.999999999997));
#493 = CIRCLE('',#494,6.1);
#494 = AXIS2_PLACEMENT_3D('',#495,#496,#497);
#495 = CARTESIAN_POINT('',(-8.5,12.1,51.999999999997));
#496 = DIRECTION('',(2.341930812375E-31,8.881784197001E-16,1.));
#497 = DIRECTION('',(4.440892098501E-16,-1.,8.881784197001E-16));
#498 = ORIENTED_EDGE('',*,*,#499,.F.);
#499 = EDGE_CURVE('',#500,#491,#502,.T.);
#500 = VERTEX_POINT('',#501);
#501 = CARTESIAN_POINT('',(-14.15,9.800543542487,51.999999999997));
#502 = LINE('',#503,#504);
#503 = CARTESIAN_POINT('',(-14.15,8.699728228757,51.999999999997));
#504 = VECTOR('',#505,1.);
#505 = DIRECTION('',(-4.440892098501E-16,1.,-9.992007221626E-16));
#506 = ORIENTED_EDGE('',*,*,#507,.T.);
#507 = EDGE_CURVE('',#500,#481,#508,.T.);
#508 = CIRCLE('',#509,6.1);
#509 = AXIS2_PLACEMENT_3D('',#510,#511,#512);
#510 = CARTESIAN_POINT('',(-8.5,12.1,51.999999999997));
#511 = DIRECTION('',(2.341930812375E-31,8.881784197001E-16,1.));
#512 = DIRECTION('',(4.440892098501E-16,-1.,8.881784197001E-16));
#513 = PLANE('',#514);
#514 = AXIS2_PLACEMENT_3D('',#515,#516,#517);
#515 = CARTESIAN_POINT('',(-8.757632563584E-14,3.,51.999999999997));
#516 = DIRECTION('',(1.221245327088E-15,-1.110223024625E-16,-1.));
#517 = DIRECTION('',(-4.440892098501E-16,1.,-1.443289932013E-15));
#518 = ADVANCED_FACE('',(#519),#543,.F.);
#519 = FACE_BOUND('',#520,.F.);
#520 = EDGE_LOOP('',(#521,#522,#530,#536,#542));
#521 = ORIENTED_EDGE('',*,*,#406,.T.);
#522 = ORIENTED_EDGE('',*,*,#523,.T.);
#523 = EDGE_CURVE('',#399,#524,#526,.T.);
#524 = VERTEX_POINT('',#525);
#525 = CARTESIAN_POINT('',(3.,20.5,55.));
#526 = LINE('',#527,#528);
#527 = CARTESIAN_POINT('',(3.,20.5,47.));
#528 = VECTOR('',#529,1.);
#529 = DIRECTION('',(-2.22044604925E-15,-4.440892098501E-16,1.));
#530 = ORIENTED_EDGE('',*,*,#531,.F.);
#531 = EDGE_CURVE('',#322,#524,#532,.T.);
#532 = LINE('',#533,#534);
#533 = CARTESIAN_POINT('',(-1.235678226408E-13,20.5,55.));
#534 = VECTOR('',#535,1.);
#535 = DIRECTION('',(1.,-1.554312234475E-15,-2.22044604925E-16));
#536 = ORIENTED_EDGE('',*,*,#537,.F.);
#537 = EDGE_CURVE('',#135,#322,#538,.T.);
#538 = LINE('',#539,#540);
#539 = CARTESIAN_POINT('',(-1.225686219186E-13,20.5,47.));
#540 = VECTOR('',#541,1.);
#541 = DIRECTION('',(-2.22044604925E-15,-4.440892098501E-16,1.));
#542 = ORIENTED_EDGE('',*,*,#134,.F.);
#543 = PLANE('',#544);
#544 = AXIS2_PLACEMENT_3D('',#545,#546,#547);
#545 = CARTESIAN_POINT('',(-1.075806110862E-13,20.5,47.));
#546 = DIRECTION('',(4.440892098501E-16,-1.,1.7763568394E-15));
#547 = DIRECTION('',(-1.998401444325E-15,-2.22044604925E-16,1.));
#548 = ADVANCED_FACE('',(#549),#568,.F.);
#549 = FACE_BOUND('',#550,.T.);
#550 = EDGE_LOOP('',(#551,#559,#566,#567));
#551 = ORIENTED_EDGE('',*,*,#552,.T.);
#552 = EDGE_CURVE('',#182,#553,#555,.T.);
#553 = VERTEX_POINT('',#554);
#554 = CARTESIAN_POINT('',(3.,18.75,5.));
#555 = LINE('',#556,#557);
#556 = CARTESIAN_POINT('',(-2.248201624866E-14,18.75,5.));
#557 = VECTOR('',#558,1.);
#558 = DIRECTION('',(1.,-1.554312234475E-15,-2.22044604925E-16));
#559 = ORIENTED_EDGE('',*,*,#560,.T.);
#560 = EDGE_CURVE('',#553,#553,#561,.T.);
#561 = CIRCLE('',#562,1.75);
#562 = AXIS2_PLACEMENT_3D('',#563,#564,#565);
#563 = CARTESIAN_POINT('',(3.,17.,5.));
#564 = DIRECTION('',(1.,8.881784197001E-16,2.22044604925E-15));
#565 = DIRECTION('',(-8.881784197001E-16,1.,-2.22044604925E-15));
#566 = ORIENTED_EDGE('',*,*,#552,.F.);
#567 = ORIENTED_EDGE('',*,*,#181,.F.);
#568 = CYLINDRICAL_SURFACE('',#569,1.75);
#569 = AXIS2_PLACEMENT_3D('',#570,#571,#572);
#570 = CARTESIAN_POINT('',(-2.13162820728E-14,17.,5.));
#571 = DIRECTION('',(-1.,1.33226762955E-15,-1.084683744679E-30));
#572 = DIRECTION('',(-6.661338147751E-16,1.,-1.998401444325E-15));
#573 = ADVANCED_FACE('',(#574),#593,.F.);
#574 = FACE_BOUND('',#575,.T.);
#575 = EDGE_LOOP('',(#576,#584,#591,#592));
#576 = ORIENTED_EDGE('',*,*,#577,.T.);
#577 = EDGE_CURVE('',#193,#578,#580,.T.);
#578 = VERTEX_POINT('',#579);
#579 = CARTESIAN_POINT('',(3.,6.75,5.));
#580 = LINE('',#581,#582);
#581 = CARTESIAN_POINT('',(-1.448841047136E-14,6.75,5.));
#582 = VECTOR('',#583,1.);
#583 = DIRECTION('',(1.,-1.554312234475E-15,-2.22044604925E-16));
#584 = ORIENTED_EDGE('',*,*,#585,.T.);
#585 = EDGE_CURVE('',#578,#578,#586,.T.);
#586 = CIRCLE('',#587,1.75);
#587 = AXIS2_PLACEMENT_3D('',#588,#589,#590);
#588 = CARTESIAN_POINT('',(3.,5.,5.));
#589 = DIRECTION('',(1.,8.881784197001E-16,2.22044604925E-15));
#590 = DIRECTION('',(-8.881784197001E-16,1.,-2.22044604925E-15));
#591 = ORIENTED_EDGE('',*,*,#577,.F.);
#592 = ORIENTED_EDGE('',*,*,#192,.F.);
#593 = CYLINDRICAL_SURFACE('',#594,1.75);
#594 = AXIS2_PLACEMENT_3D('',#595,#596,#597);
#595 = CARTESIAN_POINT('',(-1.33226762955E-14,5.,5.));
#596 = DIRECTION('',(-1.,1.33226762955E-15,-1.084683744679E-30));
#597 = DIRECTION('',(-6.661338147751E-16,1.,-1.998401444325E-15));
#598 = ADVANCED_FACE('',(#599),#618,.F.);
#599 = FACE_BOUND('',#600,.T.);
#600 = EDGE_LOOP('',(#601,#609,#616,#617));
#601 = ORIENTED_EDGE('',*,*,#602,.T.);
#602 = EDGE_CURVE('',#204,#603,#605,.T.);
#603 = VERTEX_POINT('',#604);
#604 = CARTESIAN_POINT('',(3.,18.75,35.));
#605 = LINE('',#606,#607);
#606 = CARTESIAN_POINT('',(-8.243405957842E-14,18.75,35.));
#607 = VECTOR('',#608,1.);
#608 = DIRECTION('',(1.,-1.554312234475E-15,-2.22044604925E-16));
#609 = ORIENTED_EDGE('',*,*,#610,.T.);
#610 = EDGE_CURVE('',#603,#603,#611,.T.);
#611 = CIRCLE('',#612,1.75);
#612 = AXIS2_PLACEMENT_3D('',#613,#614,#615);
#613 = CARTESIAN_POINT('',(3.,17.,35.));
#614 = DIRECTION('',(1.,8.881784197001E-16,2.22044604925E-15));
#615 = DIRECTION('',(-8.881784197001E-16,1.,-2.22044604925E-15));
#616 = ORIENTED_EDGE('',*,*,#602,.F.);
#617 = ORIENTED_EDGE('',*,*,#203,.F.);
#618 = CYLINDRICAL_SURFACE('',#619,1.75);
#619 = AXIS2_PLACEMENT_3D('',#620,#621,#622);
#620 = CARTESIAN_POINT('',(-8.126832540256E-14,17.,35.));
#621 = DIRECTION('',(-1.,1.33226762955E-15,-1.084683744679E-30));
#622 = DIRECTION('',(-6.661338147751E-16,1.,-1.998401444325E-15));
#623 = ADVANCED_FACE('',(#624),#643,.F.);
#624 = FACE_BOUND('',#625,.T.);
#625 = EDGE_LOOP('',(#626,#634,#641,#642));
#626 = ORIENTED_EDGE('',*,*,#627,.T.);
#627 = EDGE_CURVE('',#215,#628,#630,.T.);
#628 = VERTEX_POINT('',#629);
#629 = CARTESIAN_POINT('',(3.,6.75,35.));
#630 = LINE('',#631,#632);
#631 = CARTESIAN_POINT('',(-7.444045380112E-14,6.75,35.));
#632 = VECTOR('',#633,1.);
#633 = DIRECTION('',(1.,-1.554312234475E-15,-2.22044604925E-16));
#634 = ORIENTED_EDGE('',*,*,#635,.T.);
#635 = EDGE_CURVE('',#628,#628,#636,.T.);
#636 = CIRCLE('',#637,1.75);
#637 = AXIS2_PLACEMENT_3D('',#638,#639,#640);
#638 = CARTESIAN_POINT('',(3.,5.,35.));
#639 = DIRECTION('',(1.,8.881784197001E-16,2.22044604925E-15));
#640 = DIRECTION('',(-8.881784197001E-16,1.,-2.22044604925E-15));
#641 = ORIENTED_EDGE('',*,*,#627,.F.);
#642 = ORIENTED_EDGE('',*,*,#214,.F.);
#643 = CYLINDRICAL_SURFACE('',#644,1.75);
#644 = AXIS2_PLACEMENT_3D('',#645,#646,#647);
#645 = CARTESIAN_POINT('',(-7.327471962526E-14,5.,35.));
#646 = DIRECTION('',(-1.,1.33226762955E-15,-1.084683744679E-30));
#647 = DIRECTION('',(-6.661338147751E-16,1.,-1.998401444325E-15));
#648 = ADVANCED_FACE('',(#649),#660,.F.);
#649 = FACE_BOUND('',#650,.F.);
#650 = EDGE_LOOP('',(#651,#652,#658,#659));
#651 = ORIENTED_EDGE('',*,*,#531,.T.);
#652 = ORIENTED_EDGE('',*,*,#653,.T.);
#653 = EDGE_CURVE('',#524,#257,#654,.T.);
#654 = LINE('',#655,#656);
#655 = CARTESIAN_POINT('',(3.,20.5,55.));
#656 = VECTOR('',#657,1.);
#657 = DIRECTION('',(8.881784197001E-16,-1.,2.22044604925E-15));
#658 = ORIENTED_EDGE('',*,*,#256,.F.);
#659 = ORIENTED_EDGE('',*,*,#339,.F.);
#660 = PLANE('',#661);
#661 = AXIS2_PLACEMENT_3D('',#662,#663,#664);
#662 = CARTESIAN_POINT('',(-1.235678226408E-13,20.5,55.));
#663 = DIRECTION('',(1.7763568394E-15,-1.627025617018E-30,-1.));
#664 = DIRECTION('',(6.661338147751E-16,-1.,1.998401444325E-15));
#665 = ADVANCED_FACE('',(#666,#674,#677,#680,#683),#686,.T.);
#666 = FACE_BOUND('',#667,.T.);
#667 = EDGE_LOOP('',(#668,#669,#670,#671,#672,#673));
#668 = ORIENTED_EDGE('',*,*,#398,.F.);
#669 = ORIENTED_EDGE('',*,*,#523,.T.);
#670 = ORIENTED_EDGE('',*,*,#653,.T.);
#671 = ORIENTED_EDGE('',*,*,#264,.T.);
#672 = ORIENTED_EDGE('',*,*,#445,.T.);
#673 = ORIENTED_EDGE('',*,*,#428,.T.);
#674 = FACE_BOUND('',#675,.T.);
#675 = EDGE_LOOP('',(#676));
#676 = ORIENTED_EDGE('',*,*,#560,.F.);
#677 = FACE_BOUND('',#678,.T.);
#678 = EDGE_LOOP('',(#679));
#679 = ORIENTED_EDGE('',*,*,#585,.F.);
#680 = FACE_BOUND('',#681,.T.);
#681 = EDGE_LOOP('',(#682));
#682 = ORIENTED_EDGE('',*,*,#610,.F.);
#683 = FACE_BOUND('',#684,.T.);
#684 = EDGE_LOOP('',(#685));
#685 = ORIENTED_EDGE('',*,*,#635,.F.);
#686 = PLANE('',#687);
#687 = AXIS2_PLACEMENT_3D('',#688,#689,#690);
#688 = CARTESIAN_POINT('',(3.,24.117645621247,26.291061878799));
#689 = DIRECTION('',(1.,-1.7763568394E-15,-4.440892098501E-16));
#690 = DIRECTION('',(-2.22044604925E-15,-4.440892098501E-16,1.));
#691 = ADVANCED_FACE('',(#692),#703,.T.);
#692 = FACE_BOUND('',#693,.T.);
#693 = EDGE_LOOP('',(#694,#700,#701,#702));
#694 = ORIENTED_EDGE('',*,*,#695,.F.);
#695 = EDGE_CURVE('',#464,#324,#696,.T.);
#696 = LINE('',#697,#698);
#697 = CARTESIAN_POINT('',(-2.5,20.5,-1.021405182655E-14));
#698 = VECTOR('',#699,1.);
#699 = DIRECTION('',(-5.551115123126E-16,-1.110223024625E-16,1.));
#700 = ORIENTED_EDGE('',*,*,#463,.T.);
#701 = ORIENTED_EDGE('',*,*,#299,.T.);
#702 = ORIENTED_EDGE('',*,*,#331,.F.);
#703 = PLANE('',#704);
#704 = AXIS2_PLACEMENT_3D('',#705,#706,#707);
#705 = CARTESIAN_POINT('',(-9.534788680821E-14,20.5,51.999999999997));
#706 = DIRECTION('',(-2.22044604925E-16,1.,-1.221245327088E-15));
#707 = DIRECTION('',(-1.443289932013E-15,-1.110223024625E-16,1.));
#708 = ADVANCED_FACE('',(#709),#715,.T.);
#709 = FACE_BOUND('',#710,.T.);
#710 = EDGE_LOOP('',(#711,#712,#713,#714));
#711 = ORIENTED_EDGE('',*,*,#537,.F.);
#712 = ORIENTED_EDGE('',*,*,#471,.T.);
#713 = ORIENTED_EDGE('',*,*,#695,.T.);
#714 = ORIENTED_EDGE('',*,*,#321,.F.);
#715 = PLANE('',#716);
#716 = AXIS2_PLACEMENT_3D('',#717,#718,#719);
#717 = CARTESIAN_POINT('',(-9.534788680821E-14,20.5,51.999999999997));
#718 = DIRECTION('',(-2.22044604925E-16,1.,-1.221245327088E-15));
#719 = DIRECTION('',(-1.443289932013E-15,-1.110223024625E-16,1.));
#720 = ADVANCED_FACE('',(#721),#737,.F.);
#721 = FACE_BOUND('',#722,.F.);
#722 = EDGE_LOOP('',(#723,#724,#730,#731));
#723 = ORIENTED_EDGE('',*,*,#347,.F.);
#724 = ORIENTED_EDGE('',*,*,#725,.T.);
#725 = EDGE_CURVE('',#348,#483,#726,.T.);
#726 = LINE('',#727,#728);
#727 = CARTESIAN_POINT('',(-2.85,14.399456457513,55.));
#728 = VECTOR('',#729,1.);
#729 = DIRECTION('',(8.881784197001E-16,-2.958228394579E-31,-1.));
#730 = ORIENTED_EDGE('',*,*,#490,.T.);
#731 = ORIENTED_EDGE('',*,*,#732,.F.);
#732 = EDGE_CURVE('',#350,#491,#733,.T.);
#733 = LINE('',#734,#735);
#734 = CARTESIAN_POINT('',(-14.15,14.399456457513,55.));
#735 = VECTOR('',#736,1.);
#736 = DIRECTION('',(8.881784197001E-16,-2.958228394579E-31,-1.));
#737 = CYLINDRICAL_SURFACE('',#738,6.1);
#738 = AXIS2_PLACEMENT_3D('',#739,#740,#741);
#739 = CARTESIAN_POINT('',(-8.5,12.1,55.));
#740 = DIRECTION('',(-6.661338147751E-16,2.22044604925E-16,1.));
#741 = DIRECTION('',(4.440892098501E-16,-1.,8.881784197001E-16));
#742 = ADVANCED_FACE('',(#743),#754,.F.);
#743 = FACE_BOUND('',#744,.F.);
#744 = EDGE_LOOP('',(#745,#746,#747,#748));
#745 = ORIENTED_EDGE('',*,*,#375,.F.);
#746 = ORIENTED_EDGE('',*,*,#732,.T.);
#747 = ORIENTED_EDGE('',*,*,#499,.F.);
#748 = ORIENTED_EDGE('',*,*,#749,.F.);
#749 = EDGE_CURVE('',#367,#500,#750,.T.);
#750 = LINE('',#751,#752);
#751 = CARTESIAN_POINT('',(-14.15,9.800543542487,55.));
#752 = VECTOR('',#753,1.);
#753 = DIRECTION('',(8.881784197001E-16,-2.958228394579E-31,-1.));
#754 = PLANE('',#755);
#755 = AXIS2_PLACEMENT_3D('',#756,#757,#758);
#756 = CARTESIAN_POINT('',(-14.15,14.399456457513,55.));
#757 = DIRECTION('',(-1.,2.22044604925E-16,-2.22044604925E-16));
#758 = DIRECTION('',(4.440892098501E-16,-1.,8.881784197001E-16));
#759 = ADVANCED_FACE('',(#760),#771,.F.);
#760 = FACE_BOUND('',#761,.F.);
#761 = EDGE_LOOP('',(#762,#763,#764,#765));
#762 = ORIENTED_EDGE('',*,*,#366,.F.);
#763 = ORIENTED_EDGE('',*,*,#749,.T.);
#764 = ORIENTED_EDGE('',*,*,#507,.T.);
#765 = ORIENTED_EDGE('',*,*,#766,.F.);
#766 = EDGE_CURVE('',#359,#481,#767,.T.);
#767 = LINE('',#768,#769);
#768 = CARTESIAN_POINT('',(-2.85,9.800543542487,55.));
#769 = VECTOR('',#770,1.);
#770 = DIRECTION('',(8.881784197001E-16,-2.958228394579E-31,-1.));
#771 = CYLINDRICAL_SURFACE('',#772,6.1);
#772 = AXIS2_PLACEMENT_3D('',#773,#774,#775);
#773 = CARTESIAN_POINT('',(-8.5,12.1,55.));
#774 = DIRECTION('',(-6.661338147751E-16,2.22044604925E-16,1.));
#775 = DIRECTION('',(4.440892098501E-16,-1.,8.881784197001E-16));
#776 = ADVANCED_FACE('',(#777),#783,.T.);
#777 = FACE_BOUND('',#778,.T.);
#778 = EDGE_LOOP('',(#779,#780,#781,#782));
#779 = ORIENTED_EDGE('',*,*,#358,.F.);
#780 = ORIENTED_EDGE('',*,*,#725,.T.);
#781 = ORIENTED_EDGE('',*,*,#480,.F.);
#782 = ORIENTED_EDGE('',*,*,#766,.F.);
#783 = PLANE('',#784);
#784 = AXIS2_PLACEMENT_3D('',#785,#786,#787);
#785 = CARTESIAN_POINT('',(-2.85,14.399456457513,55.));
#786 = DIRECTION('',(-1.,2.22044604925E-16,-2.22044604925E-16));
#787 = DIRECTION('',(4.440892098501E-16,-1.,8.881784197001E-16));
#788 = ( GEOMETRIC_REPRESENTATION_CONTEXT(3) 
GLOBAL_UNCERTAINTY_ASSIGNED_CONTEXT((#792)) GLOBAL_UNIT_ASSIGNED_CONTEXT
((#789,#790,#791)) REPRESENTATION_CONTEXT('Context #1',
  '3D Context with UNIT and UNCERTAINTY') );
#789 = ( LENGTH_UNIT() NAMED_UNIT(*) SI_UNIT(.MILLI.,.METRE.) );
#790 = ( NAMED_UNIT(*) PLANE_ANGLE_UNIT() SI_UNIT($,.RADIAN.) );
#791 = ( NAMED_UNIT(*) SI_UNIT($,.STERADIAN.) SOLID_ANGLE_UNIT() );
#792 = UNCERTAINTY_MEASURE_WITH_UNIT(LENGTH_MEASURE(1.E-05),#789,
  'distance_accuracy_value','confusion accuracy');
#793 = PRODUCT_RELATED_PRODUCT_CATEGORY('part',$,(#7));
#794 = MECHANICAL_DESIGN_GEOMETRIC_PRESENTATION_REPRESENTATION('',(#795)
  ,#788);
#795 = STYLED_ITEM('color',(#796),#15);
#796 = PRESENTATION_STYLE_ASSIGNMENT((#797,#803));
#797 = SURFACE_STYLE_USAGE(.BOTH.,#798);
#798 = SURFACE_SIDE_STYLE('',(#799));
#799 = SURFACE_STYLE_FILL_AREA(#800);
#800 = FILL_AREA_STYLE('',(#801));
#801 = FILL_AREA_STYLE_COLOUR('',#802);
#802 = COLOUR_RGB('',0.447058818107,0.474509808674,0.501960817233);
#803 = CURVE_STYLE('',#804,POSITIVE_LENGTH_MEASURE(0.1),#805);
#804 = DRAUGHTING_PRE_DEFINED_CURVE_FONT('continuous');
#805 = COLOUR_RGB('',9.803921802644E-02,9.803921802644E-02,
  9.803921802644E-02);
ENDSEC;
END-ISO-10303-21;
