ISO-10303-21;
HEADER;
FILE_DESCRIPTION(('FreeCAD Model'),'2;1');
FILE_NAME('Open CASCADE Shape Model','2026-04-14T16:05:22',(''),(''),
  'Open CASCADE STEP processor 7.7','FreeCAD','Unknown');
FILE_SCHEMA(('AUTOMOTIVE_DESIGN { 1 0 10303 214 1 1 1 1 }'));
ENDSEC;
DATA;
#1 = APPLICATION_PROTOCOL_DEFINITION('international standard',
  'automotive_design',2000,#2);
#2 = APPLICATION_CONTEXT(
  'core data for automotive mechanical design processes');
#3 = SHAPE_DEFINITION_REPRESENTATION(#4,#10);
#4 = PRODUCT_DEFINITION_SHAPE('','',#5);
#5 = PRODUCT_DEFINITION('design','',#6,#9);
#6 = PRODUCT_DEFINITION_FORMATION('','',#7);
#7 = PRODUCT('TopKnobPlate','TopKnobPlate','',(#8));
#8 = PRODUCT_CONTEXT('',#2,'mechanical');
#9 = PRODUCT_DEFINITION_CONTEXT('part definition',#2,'design');
#10 = ADVANCED_BREP_SHAPE_REPRESENTATION('',(#11,#15),#1235);
#11 = AXIS2_PLACEMENT_3D('',#12,#13,#14);
#12 = CARTESIAN_POINT('',(0.,0.,0.));
#13 = DIRECTION('',(0.,0.,1.));
#14 = DIRECTION('',(1.,0.,-0.));
#15 = MANIFOLD_SOLID_BREP('',#16);
#16 = CLOSED_SHELL('',(#17,#57,#90,#123,#290,#314,#340,#365,#532,#550,
    #574,#599,#624,#648,#673,#698,#723,#747,#771,#789,#820,#844,#868,
    #885,#910,#935,#953,#971,#989,#1007,#1025,#1043,#1061,#1079,#1097,
    #1115,#1127,#1151,#1169,#1187,#1199,#1217));
#17 = ADVANCED_FACE('',(#18),#52,.T.);
#18 = FACE_BOUND('',#19,.T.);
#19 = EDGE_LOOP('',(#20,#30,#38,#46));
#20 = ORIENTED_EDGE('',*,*,#21,.T.);
#21 = EDGE_CURVE('',#22,#24,#26,.T.);
#22 = VERTEX_POINT('',#23);
#23 = CARTESIAN_POINT('',(-26.34674163888,-20.89075836112,0.));
#24 = VERTEX_POINT('',#25);
#25 = CARTESIAN_POINT('',(-26.34674163888,-20.89075836112,2.6));
#26 = LINE('',#27,#28);
#27 = CARTESIAN_POINT('',(-26.34674163888,-20.89075836112,0.));
#28 = VECTOR('',#29,1.);
#29 = DIRECTION('',(0.,0.,1.));
#30 = ORIENTED_EDGE('',*,*,#31,.T.);
#31 = EDGE_CURVE('',#24,#32,#34,.T.);
#32 = VERTEX_POINT('',#33);
#33 = CARTESIAN_POINT('',(-19.05,-28.1875,2.6));
#34 = LINE('',#35,#36);
#35 = CARTESIAN_POINT('',(-26.34674163888,-20.89075836112,2.6));
#36 = VECTOR('',#37,1.);
#37 = DIRECTION('',(0.707106781187,-0.707106781186,0.));
#38 = ORIENTED_EDGE('',*,*,#39,.F.);
#39 = EDGE_CURVE('',#40,#32,#42,.T.);
#40 = VERTEX_POINT('',#41);
#41 = CARTESIAN_POINT('',(-19.05,-28.1875,0.));
#42 = LINE('',#43,#44);
#43 = CARTESIAN_POINT('',(-19.05,-28.1875,0.));
#44 = VECTOR('',#45,1.);
#45 = DIRECTION('',(0.,0.,1.));
#46 = ORIENTED_EDGE('',*,*,#47,.F.);
#47 = EDGE_CURVE('',#22,#40,#48,.T.);
#48 = LINE('',#49,#50);
#49 = CARTESIAN_POINT('',(-26.665,-20.5725,0.));
#50 = VECTOR('',#51,1.);
#51 = DIRECTION('',(0.707106781187,-0.707106781186,0.));
#52 = PLANE('',#53);
#53 = AXIS2_PLACEMENT_3D('',#54,#55,#56);
#54 = CARTESIAN_POINT('',(-26.665,-20.5725,0.));
#55 = DIRECTION('',(0.707106781186,0.707106781187,0.));
#56 = DIRECTION('',(0.707106781187,-0.707106781186,0.));
#57 = ADVANCED_FACE('',(#58),#85,.T.);
#58 = FACE_BOUND('',#59,.T.);
#59 = EDGE_LOOP('',(#60,#61,#70,#78));
#60 = ORIENTED_EDGE('',*,*,#21,.F.);
#61 = ORIENTED_EDGE('',*,*,#62,.T.);
#62 = EDGE_CURVE('',#22,#63,#65,.T.);
#63 = VERTEX_POINT('',#64);
#64 = CARTESIAN_POINT('',(-27.14596868723,-20.46720029796,0.));
#65 = CIRCLE('',#66,1.54);
#66 = AXIS2_PLACEMENT_3D('',#67,#68,#69);
#67 = CARTESIAN_POINT('',(-27.4356860819,-21.97970280415,0.));
#68 = DIRECTION('',(-0.,0.,1.));
#69 = DIRECTION('',(0.,-1.,0.));
#70 = ORIENTED_EDGE('',*,*,#71,.T.);
#71 = EDGE_CURVE('',#63,#72,#74,.T.);
#72 = VERTEX_POINT('',#73);
#73 = CARTESIAN_POINT('',(-27.14596868723,-20.46720029796,2.6));
#74 = LINE('',#75,#76);
#75 = CARTESIAN_POINT('',(-27.14596868723,-20.46720029796,0.));
#76 = VECTOR('',#77,1.);
#77 = DIRECTION('',(0.,0.,1.));
#78 = ORIENTED_EDGE('',*,*,#79,.T.);
#79 = EDGE_CURVE('',#72,#24,#80,.T.);
#80 = CIRCLE('',#81,1.54);
#81 = AXIS2_PLACEMENT_3D('',#82,#83,#84);
#82 = CARTESIAN_POINT('',(-27.4356860819,-21.97970280415,2.6));
#83 = DIRECTION('',(0.,0.,-1.));
#84 = DIRECTION('',(0.188128178363,0.982144484537,0.));
#85 = CYLINDRICAL_SURFACE('',#86,1.54);
#86 = AXIS2_PLACEMENT_3D('',#87,#88,#89);
#87 = CARTESIAN_POINT('',(-27.4356860819,-21.97970280415,0.));
#88 = DIRECTION('',(0.,0.,1.));
#89 = DIRECTION('',(0.707106781186,0.707106781187,0.));
#90 = ADVANCED_FACE('',(#91),#118,.T.);
#91 = FACE_BOUND('',#92,.T.);
#92 = EDGE_LOOP('',(#93,#102,#110,#117));
#93 = ORIENTED_EDGE('',*,*,#94,.T.);
#94 = EDGE_CURVE('',#24,#95,#97,.T.);
#95 = VERTEX_POINT('',#96);
#96 = CARTESIAN_POINT('',(-26.62958435135,-21.17360107359,3.));
#97 = CIRCLE('',#98,0.4);
#98 = AXIS2_PLACEMENT_3D('',#99,#100,#101);
#99 = CARTESIAN_POINT('',(-26.62958435135,-21.17360107359,2.6));
#100 = DIRECTION('',(0.707106781187,-0.707106781186,0.));
#101 = DIRECTION('',(0.707106781186,0.707106781187,0.));
#102 = ORIENTED_EDGE('',*,*,#103,.T.);
#103 = EDGE_CURVE('',#95,#104,#106,.T.);
#104 = VERTEX_POINT('',#105);
#105 = CARTESIAN_POINT('',(-19.21568542494,-28.5875,3.));
#106 = LINE('',#107,#108);
#107 = CARTESIAN_POINT('',(-26.62958435135,-21.17360107359,3.));
#108 = VECTOR('',#109,1.);
#109 = DIRECTION('',(0.707106781187,-0.707106781186,0.));
#110 = ORIENTED_EDGE('',*,*,#111,.F.);
#111 = EDGE_CURVE('',#32,#104,#112,.T.);
#112 = ELLIPSE('',#113,0.432956880117,0.4);
#113 = AXIS2_PLACEMENT_3D('',#114,#115,#116);
#114 = CARTESIAN_POINT('',(-19.21568542494,-28.5875,2.6));
#115 = DIRECTION('',(0.923879532511,-0.382683432365,0.));
#116 = DIRECTION('',(-0.382683432365,-0.923879532511,0.));
#117 = ORIENTED_EDGE('',*,*,#31,.F.);
#118 = CYLINDRICAL_SURFACE('',#119,0.4);
#119 = AXIS2_PLACEMENT_3D('',#120,#121,#122);
#120 = CARTESIAN_POINT('',(-26.62958435135,-21.17360107359,2.6));
#121 = DIRECTION('',(0.707106781187,-0.707106781186,0.));
#122 = DIRECTION('',(0.707106781186,0.707106781187,0.));
#123 = ADVANCED_FACE('',(#124,#229,#263,#274),#285,.F.);
#124 = FACE_BOUND('',#125,.F.);
#125 = EDGE_LOOP('',(#126,#127,#128,#137,#146,#154,#163,#171,#180,#188,
    #197,#206,#215,#223));
#126 = ORIENTED_EDGE('',*,*,#47,.F.);
#127 = ORIENTED_EDGE('',*,*,#62,.T.);
#128 = ORIENTED_EDGE('',*,*,#129,.T.);
#129 = EDGE_CURVE('',#63,#130,#132,.T.);
#130 = VERTEX_POINT('',#131);
#131 = CARTESIAN_POINT('',(-38.11154970203,-31.43278131276,0.));
#132 = CIRCLE('',#133,9.370107806875);
#133 = AXIS2_PLACEMENT_3D('',#134,#135,#136);
#134 = CARTESIAN_POINT('',(-28.90875,-29.67,0.));
#135 = DIRECTION('',(0.,0.,1.));
#136 = DIRECTION('',(1.,0.,0.));
#137 = ORIENTED_EDGE('',*,*,#138,.F.);
#138 = EDGE_CURVE('',#139,#130,#141,.T.);
#139 = VERTEX_POINT('',#140);
#140 = CARTESIAN_POINT('',(-37.68799163887,-32.23200836111,0.));
#141 = CIRCLE('',#142,1.54);
#142 = AXIS2_PLACEMENT_3D('',#143,#144,#145);
#143 = CARTESIAN_POINT('',(-36.59904719585,-31.14306391808,0.));
#144 = DIRECTION('',(-0.,-0.,-1.));
#145 = DIRECTION('',(0.,-1.,0.));
#146 = ORIENTED_EDGE('',*,*,#147,.T.);
#147 = EDGE_CURVE('',#139,#148,#150,.T.);
#148 = VERTEX_POINT('',#149);
#149 = CARTESIAN_POINT('',(-29.03105555697,-40.88894444302,0.));
#150 = LINE('',#151,#152);
#151 = CARTESIAN_POINT('',(-38.00624999999,-31.91374999999,0.));
#152 = VECTOR('',#153,1.);
#153 = DIRECTION('',(0.707106781186,-0.707106781187,0.));
#154 = ORIENTED_EDGE('',*,*,#155,.F.);
#155 = EDGE_CURVE('',#156,#148,#158,.T.);
#156 = VERTEX_POINT('',#157);
#157 = CARTESIAN_POINT('',(-27.94211111394,-41.34,0.));
#158 = CIRCLE('',#159,1.54);
#159 = AXIS2_PLACEMENT_3D('',#160,#161,#162);
#160 = CARTESIAN_POINT('',(-27.94211111394,-39.8,0.));
#161 = DIRECTION('',(-0.,-0.,-1.));
#162 = DIRECTION('',(0.,-1.,0.));
#163 = ORIENTED_EDGE('',*,*,#164,.T.);
#164 = EDGE_CURVE('',#156,#165,#167,.T.);
#165 = VERTEX_POINT('',#166);
#166 = CARTESIAN_POINT('',(27.942111113904,-41.34,0.));
#167 = LINE('',#168,#169);
#168 = CARTESIAN_POINT('',(-28.58,-41.34,0.));
#169 = VECTOR('',#170,1.);
#170 = DIRECTION('',(1.,-1.243076864522E-16,0.));
#171 = ORIENTED_EDGE('',*,*,#172,.F.);
#172 = EDGE_CURVE('',#173,#165,#175,.T.);
#173 = VERTEX_POINT('',#174);
#174 = CARTESIAN_POINT('',(29.031055556929,-40.88894444302,0.));
#175 = CIRCLE('',#176,1.54);
#176 = AXIS2_PLACEMENT_3D('',#177,#178,#179);
#177 = CARTESIAN_POINT('',(27.942111113904,-39.8,0.));
#178 = DIRECTION('',(-0.,-0.,-1.));
#179 = DIRECTION('',(0.,-1.,0.));
#180 = ORIENTED_EDGE('',*,*,#181,.F.);
#181 = EDGE_CURVE('',#182,#173,#184,.T.);
#182 = VERTEX_POINT('',#183);
#183 = CARTESIAN_POINT('',(37.687991638874,-32.23200836111,0.));
#184 = LINE('',#185,#186);
#185 = CARTESIAN_POINT('',(38.006249999997,-31.91374999999,0.));
#186 = VECTOR('',#187,1.);
#187 = DIRECTION('',(-0.707106781188,-0.707106781185,0.));
#188 = ORIENTED_EDGE('',*,*,#189,.F.);
#189 = EDGE_CURVE('',#190,#182,#192,.T.);
#190 = VERTEX_POINT('',#191);
#191 = CARTESIAN_POINT('',(38.111549702035,-31.43278131276,0.));
#192 = CIRCLE('',#193,1.54);
#193 = AXIS2_PLACEMENT_3D('',#194,#195,#196);
#194 = CARTESIAN_POINT('',(36.599047195848,-31.14306391808,0.));
#195 = DIRECTION('',(-0.,-0.,-1.));
#196 = DIRECTION('',(0.,-1.,0.));
#197 = ORIENTED_EDGE('',*,*,#198,.T.);
#198 = EDGE_CURVE('',#190,#199,#201,.T.);
#199 = VERTEX_POINT('',#200);
#200 = CARTESIAN_POINT('',(27.145968687228,-20.46720029796,0.));
#201 = CIRCLE('',#202,9.370107806875);
#202 = AXIS2_PLACEMENT_3D('',#203,#204,#205);
#203 = CARTESIAN_POINT('',(28.908749999997,-29.66999999999,0.));
#204 = DIRECTION('',(0.,0.,1.));
#205 = DIRECTION('',(1.,0.,0.));
#206 = ORIENTED_EDGE('',*,*,#207,.F.);
#207 = EDGE_CURVE('',#208,#199,#210,.T.);
#208 = VERTEX_POINT('',#209);
#209 = CARTESIAN_POINT('',(26.346741638879,-20.89075836112,0.));
#210 = CIRCLE('',#211,1.54);
#211 = AXIS2_PLACEMENT_3D('',#212,#213,#214);
#212 = CARTESIAN_POINT('',(27.435686081906,-21.97970280414,0.));
#213 = DIRECTION('',(-0.,-0.,-1.));
#214 = DIRECTION('',(0.,-1.,0.));
#215 = ORIENTED_EDGE('',*,*,#216,.F.);
#216 = EDGE_CURVE('',#217,#208,#219,.T.);
#217 = VERTEX_POINT('',#218);
#218 = CARTESIAN_POINT('',(19.05,-28.1875,0.));
#219 = LINE('',#220,#221);
#220 = CARTESIAN_POINT('',(19.05,-28.1875,0.));
#221 = VECTOR('',#222,1.);
#222 = DIRECTION('',(0.707106781187,0.707106781187,0.));
#223 = ORIENTED_EDGE('',*,*,#224,.F.);
#224 = EDGE_CURVE('',#40,#217,#225,.T.);
#225 = LINE('',#226,#227);
#226 = CARTESIAN_POINT('',(-19.05,-28.1875,0.));
#227 = VECTOR('',#228,1.);
#228 = DIRECTION('',(1.,0.,0.));
#229 = FACE_BOUND('',#230,.T.);
#230 = EDGE_LOOP('',(#231,#241,#249,#257));
#231 = ORIENTED_EDGE('',*,*,#232,.T.);
#232 = EDGE_CURVE('',#233,#235,#237,.T.);
#233 = VERTEX_POINT('',#234);
#234 = CARTESIAN_POINT('',(-4.5,-31.34,0.));
#235 = VERTEX_POINT('',#236);
#236 = CARTESIAN_POINT('',(-4.5,-38.34,0.));
#237 = LINE('',#238,#239);
#238 = CARTESIAN_POINT('',(-4.5,-31.34,0.));
#239 = VECTOR('',#240,1.);
#240 = DIRECTION('',(0.,-1.,0.));
#241 = ORIENTED_EDGE('',*,*,#242,.T.);
#242 = EDGE_CURVE('',#235,#243,#245,.T.);
#243 = VERTEX_POINT('',#244);
#244 = CARTESIAN_POINT('',(4.5,-38.34,0.));
#245 = LINE('',#246,#247);
#246 = CARTESIAN_POINT('',(-4.5,-38.34,0.));
#247 = VECTOR('',#248,1.);
#248 = DIRECTION('',(1.,0.,0.));
#249 = ORIENTED_EDGE('',*,*,#250,.T.);
#250 = EDGE_CURVE('',#243,#251,#253,.T.);
#251 = VERTEX_POINT('',#252);
#252 = CARTESIAN_POINT('',(4.5,-31.34,0.));
#253 = LINE('',#254,#255);
#254 = CARTESIAN_POINT('',(4.5,-38.34,0.));
#255 = VECTOR('',#256,1.);
#256 = DIRECTION('',(0.,1.,0.));
#257 = ORIENTED_EDGE('',*,*,#258,.T.);
#258 = EDGE_CURVE('',#251,#233,#259,.T.);
#259 = LINE('',#260,#261);
#260 = CARTESIAN_POINT('',(4.5,-31.34,0.));
#261 = VECTOR('',#262,1.);
#262 = DIRECTION('',(-1.,0.,0.));
#263 = FACE_BOUND('',#264,.T.);
#264 = EDGE_LOOP('',(#265));
#265 = ORIENTED_EDGE('',*,*,#266,.T.);
#266 = EDGE_CURVE('',#267,#267,#269,.T.);
#267 = VERTEX_POINT('',#268);
#268 = CARTESIAN_POINT('',(32.658749999997,-29.66999999999,0.));
#269 = CIRCLE('',#270,3.75);
#270 = AXIS2_PLACEMENT_3D('',#271,#272,#273);
#271 = CARTESIAN_POINT('',(28.908749999997,-29.66999999999,0.));
#272 = DIRECTION('',(0.,0.,1.));
#273 = DIRECTION('',(1.,0.,0.));
#274 = FACE_BOUND('',#275,.T.);
#275 = EDGE_LOOP('',(#276));
#276 = ORIENTED_EDGE('',*,*,#277,.T.);
#277 = EDGE_CURVE('',#278,#278,#280,.T.);
#278 = VERTEX_POINT('',#279);
#279 = CARTESIAN_POINT('',(-25.15875,-29.67,0.));
#280 = CIRCLE('',#281,3.75);
#281 = AXIS2_PLACEMENT_3D('',#282,#283,#284);
#282 = CARTESIAN_POINT('',(-28.90875,-29.67,0.));
#283 = DIRECTION('',(0.,0.,1.));
#284 = DIRECTION('',(1.,0.,0.));
#285 = PLANE('',#286);
#286 = AXIS2_PLACEMENT_3D('',#287,#288,#289);
#287 = CARTESIAN_POINT('',(-2.725204683407E-12,-32.23700577486,0.));
#288 = DIRECTION('',(0.,0.,1.));
#289 = DIRECTION('',(1.,0.,0.));
#290 = ADVANCED_FACE('',(#291),#309,.T.);
#291 = FACE_BOUND('',#292,.T.);
#292 = EDGE_LOOP('',(#293,#294,#302,#308));
#293 = ORIENTED_EDGE('',*,*,#39,.T.);
#294 = ORIENTED_EDGE('',*,*,#295,.T.);
#295 = EDGE_CURVE('',#32,#296,#298,.T.);
#296 = VERTEX_POINT('',#297);
#297 = CARTESIAN_POINT('',(19.05,-28.1875,2.6));
#298 = LINE('',#299,#300);
#299 = CARTESIAN_POINT('',(-19.05,-28.1875,2.6));
#300 = VECTOR('',#301,1.);
#301 = DIRECTION('',(1.,0.,0.));
#302 = ORIENTED_EDGE('',*,*,#303,.F.);
#303 = EDGE_CURVE('',#217,#296,#304,.T.);
#304 = LINE('',#305,#306);
#305 = CARTESIAN_POINT('',(19.05,-28.1875,0.));
#306 = VECTOR('',#307,1.);
#307 = DIRECTION('',(0.,0.,1.));
#308 = ORIENTED_EDGE('',*,*,#224,.F.);
#309 = PLANE('',#310);
#310 = AXIS2_PLACEMENT_3D('',#311,#312,#313);
#311 = CARTESIAN_POINT('',(-19.05,-28.1875,0.));
#312 = DIRECTION('',(0.,1.,0.));
#313 = DIRECTION('',(1.,0.,0.));
#314 = ADVANCED_FACE('',(#315),#335,.T.);
#315 = FACE_BOUND('',#316,.F.);
#316 = EDGE_LOOP('',(#317,#326,#327,#328));
#317 = ORIENTED_EDGE('',*,*,#318,.F.);
#318 = EDGE_CURVE('',#72,#319,#321,.T.);
#319 = VERTEX_POINT('',#320);
#320 = CARTESIAN_POINT('',(-27.22121995857,-20.86005809177,3.));
#321 = CIRCLE('',#322,0.4);
#322 = AXIS2_PLACEMENT_3D('',#323,#324,#325);
#323 = CARTESIAN_POINT('',(-27.22121995857,-20.86005809177,2.6));
#324 = DIRECTION('',(0.982144484537,-0.188128178363,0.));
#325 = DIRECTION('',(0.188128178363,0.982144484537,0.));
#326 = ORIENTED_EDGE('',*,*,#79,.T.);
#327 = ORIENTED_EDGE('',*,*,#94,.T.);
#328 = ORIENTED_EDGE('',*,*,#329,.F.);
#329 = EDGE_CURVE('',#319,#95,#330,.T.);
#330 = CIRCLE('',#331,1.14);
#331 = AXIS2_PLACEMENT_3D('',#332,#333,#334);
#332 = CARTESIAN_POINT('',(-27.4356860819,-21.97970280415,3.));
#333 = DIRECTION('',(0.,0.,-1.));
#334 = DIRECTION('',(0.188128178363,0.982144484537,0.));
#335 = TOROIDAL_SURFACE('',#336,1.14,0.4);
#336 = AXIS2_PLACEMENT_3D('',#337,#338,#339);
#337 = CARTESIAN_POINT('',(-27.4356860819,-21.97970280415,2.6));
#338 = DIRECTION('',(0.,0.,1.));
#339 = DIRECTION('',(0.188128178363,0.982144484537,0.));
#340 = ADVANCED_FACE('',(#341),#360,.T.);
#341 = FACE_BOUND('',#342,.F.);
#342 = EDGE_LOOP('',(#343,#344,#353,#359));
#343 = ORIENTED_EDGE('',*,*,#71,.T.);
#344 = ORIENTED_EDGE('',*,*,#345,.F.);
#345 = EDGE_CURVE('',#346,#72,#348,.T.);
#346 = VERTEX_POINT('',#347);
#347 = CARTESIAN_POINT('',(-38.11154970203,-31.43278131276,2.6));
#348 = CIRCLE('',#349,9.370107806875);
#349 = AXIS2_PLACEMENT_3D('',#350,#351,#352);
#350 = CARTESIAN_POINT('',(-28.90875,-29.67,2.6));
#351 = DIRECTION('',(-0.,0.,-1.));
#352 = DIRECTION('',(-0.982144484537,-0.188128178362,0.));
#353 = ORIENTED_EDGE('',*,*,#354,.F.);
#354 = EDGE_CURVE('',#130,#346,#355,.T.);
#355 = LINE('',#356,#357);
#356 = CARTESIAN_POINT('',(-38.11154970203,-31.43278131276,0.));
#357 = VECTOR('',#358,1.);
#358 = DIRECTION('',(0.,0.,1.));
#359 = ORIENTED_EDGE('',*,*,#129,.F.);
#360 = CYLINDRICAL_SURFACE('',#361,9.370107806875);
#361 = AXIS2_PLACEMENT_3D('',#362,#363,#364);
#362 = CARTESIAN_POINT('',(-28.90875,-29.67,0.));
#363 = DIRECTION('',(-0.,-0.,-1.));
#364 = DIRECTION('',(1.,0.,0.));
#365 = ADVANCED_FACE('',(#366,#471,#505,#516),#527,.T.);
#366 = FACE_BOUND('',#367,.T.);
#367 = EDGE_LOOP('',(#368,#378,#384,#385,#386,#395,#404,#412,#421,#429,
    #438,#446,#455,#464));
#368 = ORIENTED_EDGE('',*,*,#369,.F.);
#369 = EDGE_CURVE('',#370,#372,#374,.T.);
#370 = VERTEX_POINT('',#371);
#371 = CARTESIAN_POINT('',(19.215685424949,-28.5875,3.));
#372 = VERTEX_POINT('',#373);
#373 = CARTESIAN_POINT('',(26.629584351354,-21.17360107359,3.));
#374 = LINE('',#375,#376);
#375 = CARTESIAN_POINT('',(19.332842712475,-28.47034271247,3.));
#376 = VECTOR('',#377,1.);
#377 = DIRECTION('',(0.707106781187,0.707106781187,0.));
#378 = ORIENTED_EDGE('',*,*,#379,.F.);
#379 = EDGE_CURVE('',#104,#370,#380,.T.);
#380 = LINE('',#381,#382);
#381 = CARTESIAN_POINT('',(-19.05,-28.5875,3.));
#382 = VECTOR('',#383,1.);
#383 = DIRECTION('',(1.,0.,0.));
#384 = ORIENTED_EDGE('',*,*,#103,.F.);
#385 = ORIENTED_EDGE('',*,*,#329,.F.);
#386 = ORIENTED_EDGE('',*,*,#387,.F.);
#387 = EDGE_CURVE('',#388,#319,#390,.T.);
#388 = VERTEX_POINT('',#389);
#389 = CARTESIAN_POINT('',(-37.71869190822,-31.35753004142,3.));
#390 = CIRCLE('',#391,8.970107806875);
#391 = AXIS2_PLACEMENT_3D('',#392,#393,#394);
#392 = CARTESIAN_POINT('',(-28.90875,-29.67,3.));
#393 = DIRECTION('',(-0.,0.,-1.));
#394 = DIRECTION('',(-0.982144484537,-0.188128178362,0.));
#395 = ORIENTED_EDGE('',*,*,#396,.F.);
#396 = EDGE_CURVE('',#397,#388,#399,.T.);
#397 = VERTEX_POINT('',#398);
#398 = CARTESIAN_POINT('',(-37.4051489264,-31.94916564864,3.));
#399 = CIRCLE('',#400,1.14);
#400 = AXIS2_PLACEMENT_3D('',#401,#402,#403);
#401 = CARTESIAN_POINT('',(-36.59904719585,-31.14306391808,3.));
#402 = DIRECTION('',(-0.,0.,-1.));
#403 = DIRECTION('',(-0.707106781187,-0.707106781186,0.));
#404 = ORIENTED_EDGE('',*,*,#405,.F.);
#405 = EDGE_CURVE('',#406,#397,#408,.T.);
#406 = VERTEX_POINT('',#407);
#407 = CARTESIAN_POINT('',(-28.74821284449,-40.60610173055,3.));
#408 = LINE('',#409,#410);
#409 = CARTESIAN_POINT('',(-28.74821284449,-40.60610173055,3.));
#410 = VECTOR('',#411,1.);
#411 = DIRECTION('',(-0.707106781186,0.707106781187,0.));
#412 = ORIENTED_EDGE('',*,*,#413,.F.);
#413 = EDGE_CURVE('',#414,#406,#416,.T.);
#414 = VERTEX_POINT('',#415);
#415 = CARTESIAN_POINT('',(-27.94211111394,-40.94,3.));
#416 = CIRCLE('',#417,1.14);
#417 = AXIS2_PLACEMENT_3D('',#418,#419,#420);
#418 = CARTESIAN_POINT('',(-27.94211111394,-39.8,3.));
#419 = DIRECTION('',(-0.,-0.,-1.));
#420 = DIRECTION('',(0.,-1.,0.));
#421 = ORIENTED_EDGE('',*,*,#422,.F.);
#422 = EDGE_CURVE('',#423,#414,#425,.T.);
#423 = VERTEX_POINT('',#424);
#424 = CARTESIAN_POINT('',(27.942111113904,-40.94,3.));
#425 = LINE('',#426,#427);
#426 = CARTESIAN_POINT('',(27.942111113904,-40.94,3.));
#427 = VECTOR('',#428,1.);
#428 = DIRECTION('',(-1.,1.243076864522E-16,0.));
#429 = ORIENTED_EDGE('',*,*,#430,.F.);
#430 = EDGE_CURVE('',#431,#423,#433,.T.);
#431 = VERTEX_POINT('',#432);
#432 = CARTESIAN_POINT('',(28.748212844455,-40.60610173055,3.));
#433 = CIRCLE('',#434,1.14);
#434 = AXIS2_PLACEMENT_3D('',#435,#436,#437);
#435 = CARTESIAN_POINT('',(27.942111113904,-39.8,3.));
#436 = DIRECTION('',(0.,-0.,-1.));
#437 = DIRECTION('',(0.707106781185,-0.707106781188,0.));
#438 = ORIENTED_EDGE('',*,*,#439,.F.);
#439 = EDGE_CURVE('',#440,#431,#442,.T.);
#440 = VERTEX_POINT('',#441);
#441 = CARTESIAN_POINT('',(37.4051489264,-31.94916564863,3.));
#442 = LINE('',#443,#444);
#443 = CARTESIAN_POINT('',(37.4051489264,-31.94916564863,3.));
#444 = VECTOR('',#445,1.);
#445 = DIRECTION('',(-0.707106781188,-0.707106781185,0.));
#446 = ORIENTED_EDGE('',*,*,#447,.F.);
#447 = EDGE_CURVE('',#448,#440,#450,.T.);
#448 = VERTEX_POINT('',#449);
#449 = CARTESIAN_POINT('',(37.71869190822,-31.35753004141,3.));
#450 = CIRCLE('',#451,1.14);
#451 = AXIS2_PLACEMENT_3D('',#452,#453,#454);
#452 = CARTESIAN_POINT('',(36.599047195848,-31.14306391808,3.));
#453 = DIRECTION('',(0.,-0.,-1.));
#454 = DIRECTION('',(0.982144484537,-0.188128178362,0.));
#455 = ORIENTED_EDGE('',*,*,#456,.F.);
#456 = EDGE_CURVE('',#457,#448,#459,.T.);
#457 = VERTEX_POINT('',#458);
#458 = CARTESIAN_POINT('',(27.221219958573,-20.86005809177,3.));
#459 = CIRCLE('',#460,8.970107806875);
#460 = AXIS2_PLACEMENT_3D('',#461,#462,#463);
#461 = CARTESIAN_POINT('',(28.908749999997,-29.66999999999,3.));
#462 = DIRECTION('',(0.,0.,-1.));
#463 = DIRECTION('',(-0.188128178363,0.982144484537,0.));
#464 = ORIENTED_EDGE('',*,*,#465,.F.);
#465 = EDGE_CURVE('',#372,#457,#466,.T.);
#466 = CIRCLE('',#467,1.14);
#467 = AXIS2_PLACEMENT_3D('',#468,#469,#470);
#468 = CARTESIAN_POINT('',(27.435686081906,-21.97970280414,3.));
#469 = DIRECTION('',(0.,0.,-1.));
#470 = DIRECTION('',(-0.707106781187,0.707106781187,0.));
#471 = FACE_BOUND('',#472,.T.);
#472 = EDGE_LOOP('',(#473,#483,#491,#499));
#473 = ORIENTED_EDGE('',*,*,#474,.F.);
#474 = EDGE_CURVE('',#475,#477,#479,.T.);
#475 = VERTEX_POINT('',#476);
#476 = CARTESIAN_POINT('',(-4.9,-30.94,3.));
#477 = VERTEX_POINT('',#478);
#478 = CARTESIAN_POINT('',(-4.9,-38.74,3.));
#479 = LINE('',#480,#481);
#480 = CARTESIAN_POINT('',(-4.9,-31.34,3.));
#481 = VECTOR('',#482,1.);
#482 = DIRECTION('',(0.,-1.,0.));
#483 = ORIENTED_EDGE('',*,*,#484,.F.);
#484 = EDGE_CURVE('',#485,#475,#487,.T.);
#485 = VERTEX_POINT('',#486);
#486 = CARTESIAN_POINT('',(4.9,-30.94,3.));
#487 = LINE('',#488,#489);
#488 = CARTESIAN_POINT('',(4.5,-30.94,3.));
#489 = VECTOR('',#490,1.);
#490 = DIRECTION('',(-1.,0.,0.));
#491 = ORIENTED_EDGE('',*,*,#492,.F.);
#492 = EDGE_CURVE('',#493,#485,#495,.T.);
#493 = VERTEX_POINT('',#494);
#494 = CARTESIAN_POINT('',(4.9,-38.74,3.));
#495 = LINE('',#496,#497);
#496 = CARTESIAN_POINT('',(4.9,-38.34,3.));
#497 = VECTOR('',#498,1.);
#498 = DIRECTION('',(0.,1.,0.));
#499 = ORIENTED_EDGE('',*,*,#500,.F.);
#500 = EDGE_CURVE('',#477,#493,#501,.T.);
#501 = LINE('',#502,#503);
#502 = CARTESIAN_POINT('',(-4.5,-38.74,3.));
#503 = VECTOR('',#504,1.);
#504 = DIRECTION('',(1.,0.,0.));
#505 = FACE_BOUND('',#506,.T.);
#506 = EDGE_LOOP('',(#507));
#507 = ORIENTED_EDGE('',*,*,#508,.F.);
#508 = EDGE_CURVE('',#509,#509,#511,.T.);
#509 = VERTEX_POINT('',#510);
#510 = CARTESIAN_POINT('',(33.058749999997,-29.66999999999,3.));
#511 = CIRCLE('',#512,4.15);
#512 = AXIS2_PLACEMENT_3D('',#513,#514,#515);
#513 = CARTESIAN_POINT('',(28.908749999997,-29.66999999999,3.));
#514 = DIRECTION('',(0.,0.,1.));
#515 = DIRECTION('',(1.,0.,0.));
#516 = FACE_BOUND('',#517,.T.);
#517 = EDGE_LOOP('',(#518));
#518 = ORIENTED_EDGE('',*,*,#519,.F.);
#519 = EDGE_CURVE('',#520,#520,#522,.T.);
#520 = VERTEX_POINT('',#521);
#521 = CARTESIAN_POINT('',(-24.75875,-29.67,3.));
#522 = CIRCLE('',#523,4.15);
#523 = AXIS2_PLACEMENT_3D('',#524,#525,#526);
#524 = CARTESIAN_POINT('',(-28.90875,-29.67,3.));
#525 = DIRECTION('',(0.,0.,1.));
#526 = DIRECTION('',(1.,0.,0.));
#527 = PLANE('',#528);
#528 = AXIS2_PLACEMENT_3D('',#529,#530,#531);
#529 = CARTESIAN_POINT('',(-2.725204683407E-12,-32.23700577486,3.));
#530 = DIRECTION('',(0.,0.,1.));
#531 = DIRECTION('',(1.,0.,0.));
#532 = ADVANCED_FACE('',(#533),#545,.T.);
#533 = FACE_BOUND('',#534,.T.);
#534 = EDGE_LOOP('',(#535,#536,#537,#544));
#535 = ORIENTED_EDGE('',*,*,#111,.T.);
#536 = ORIENTED_EDGE('',*,*,#379,.T.);
#537 = ORIENTED_EDGE('',*,*,#538,.F.);
#538 = EDGE_CURVE('',#296,#370,#539,.T.);
#539 = ELLIPSE('',#540,0.432956880117,0.4);
#540 = AXIS2_PLACEMENT_3D('',#541,#542,#543);
#541 = CARTESIAN_POINT('',(19.215685424949,-28.5875,2.6));
#542 = DIRECTION('',(0.923879532511,0.382683432365,-0.));
#543 = DIRECTION('',(-0.382683432365,0.923879532511,0.));
#544 = ORIENTED_EDGE('',*,*,#295,.F.);
#545 = CYLINDRICAL_SURFACE('',#546,0.4);
#546 = AXIS2_PLACEMENT_3D('',#547,#548,#549);
#547 = CARTESIAN_POINT('',(-19.05,-28.5875,2.6));
#548 = DIRECTION('',(1.,0.,0.));
#549 = DIRECTION('',(0.,1.,0.));
#550 = ADVANCED_FACE('',(#551),#569,.T.);
#551 = FACE_BOUND('',#552,.T.);
#552 = EDGE_LOOP('',(#553,#561,#562,#563));
#553 = ORIENTED_EDGE('',*,*,#554,.F.);
#554 = EDGE_CURVE('',#208,#555,#557,.T.);
#555 = VERTEX_POINT('',#556);
#556 = CARTESIAN_POINT('',(26.346741638879,-20.89075836112,2.6));
#557 = LINE('',#558,#559);
#558 = CARTESIAN_POINT('',(26.346741638879,-20.89075836112,0.));
#559 = VECTOR('',#560,1.);
#560 = DIRECTION('',(0.,0.,1.));
#561 = ORIENTED_EDGE('',*,*,#216,.F.);
#562 = ORIENTED_EDGE('',*,*,#303,.T.);
#563 = ORIENTED_EDGE('',*,*,#564,.T.);
#564 = EDGE_CURVE('',#296,#555,#565,.T.);
#565 = LINE('',#566,#567);
#566 = CARTESIAN_POINT('',(19.05,-28.1875,2.6));
#567 = VECTOR('',#568,1.);
#568 = DIRECTION('',(0.707106781187,0.707106781187,0.));
#569 = PLANE('',#570);
#570 = AXIS2_PLACEMENT_3D('',#571,#572,#573);
#571 = CARTESIAN_POINT('',(19.05,-28.1875,0.));
#572 = DIRECTION('',(-0.707106781187,0.707106781187,0.));
#573 = DIRECTION('',(0.707106781187,0.707106781187,0.));
#574 = ADVANCED_FACE('',(#575),#594,.T.);
#575 = FACE_BOUND('',#576,.F.);
#576 = EDGE_LOOP('',(#577,#585,#586,#587));
#577 = ORIENTED_EDGE('',*,*,#578,.F.);
#578 = EDGE_CURVE('',#139,#579,#581,.T.);
#579 = VERTEX_POINT('',#580);
#580 = CARTESIAN_POINT('',(-37.68799163887,-32.23200836111,2.6));
#581 = LINE('',#582,#583);
#582 = CARTESIAN_POINT('',(-37.68799163887,-32.23200836111,0.));
#583 = VECTOR('',#584,1.);
#584 = DIRECTION('',(0.,0.,1.));
#585 = ORIENTED_EDGE('',*,*,#138,.T.);
#586 = ORIENTED_EDGE('',*,*,#354,.T.);
#587 = ORIENTED_EDGE('',*,*,#588,.F.);
#588 = EDGE_CURVE('',#579,#346,#589,.T.);
#589 = CIRCLE('',#590,1.54);
#590 = AXIS2_PLACEMENT_3D('',#591,#592,#593);
#591 = CARTESIAN_POINT('',(-36.59904719585,-31.14306391808,2.6));
#592 = DIRECTION('',(-0.,0.,-1.));
#593 = DIRECTION('',(-0.707106781187,-0.707106781186,0.));
#594 = CYLINDRICAL_SURFACE('',#595,1.54);
#595 = AXIS2_PLACEMENT_3D('',#596,#597,#598);
#596 = CARTESIAN_POINT('',(-36.59904719585,-31.14306391808,0.));
#597 = DIRECTION('',(0.,0.,1.));
#598 = DIRECTION('',(-0.707106781187,-0.707106781186,0.));
#599 = ADVANCED_FACE('',(#600),#619,.T.);
#600 = FACE_BOUND('',#601,.F.);
#601 = EDGE_LOOP('',(#602,#603,#604,#612));
#602 = ORIENTED_EDGE('',*,*,#554,.F.);
#603 = ORIENTED_EDGE('',*,*,#207,.T.);
#604 = ORIENTED_EDGE('',*,*,#605,.T.);
#605 = EDGE_CURVE('',#199,#606,#608,.T.);
#606 = VERTEX_POINT('',#607);
#607 = CARTESIAN_POINT('',(27.145968687228,-20.46720029796,2.6));
#608 = LINE('',#609,#610);
#609 = CARTESIAN_POINT('',(27.145968687228,-20.46720029796,0.));
#610 = VECTOR('',#611,1.);
#611 = DIRECTION('',(0.,0.,1.));
#612 = ORIENTED_EDGE('',*,*,#613,.F.);
#613 = EDGE_CURVE('',#555,#606,#614,.T.);
#614 = CIRCLE('',#615,1.54);
#615 = AXIS2_PLACEMENT_3D('',#616,#617,#618);
#616 = CARTESIAN_POINT('',(27.435686081906,-21.97970280414,2.6));
#617 = DIRECTION('',(0.,0.,-1.));
#618 = DIRECTION('',(-0.707106781187,0.707106781187,0.));
#619 = CYLINDRICAL_SURFACE('',#620,1.54);
#620 = AXIS2_PLACEMENT_3D('',#621,#622,#623);
#621 = CARTESIAN_POINT('',(27.435686081906,-21.97970280414,0.));
#622 = DIRECTION('',(0.,0.,1.));
#623 = DIRECTION('',(-0.707106781187,0.707106781187,0.));
#624 = ADVANCED_FACE('',(#625),#643,.F.);
#625 = FACE_BOUND('',#626,.F.);
#626 = EDGE_LOOP('',(#627,#628,#636,#642));
#627 = ORIENTED_EDGE('',*,*,#578,.T.);
#628 = ORIENTED_EDGE('',*,*,#629,.F.);
#629 = EDGE_CURVE('',#630,#579,#632,.T.);
#630 = VERTEX_POINT('',#631);
#631 = CARTESIAN_POINT('',(-29.03105555697,-40.88894444302,2.6));
#632 = LINE('',#633,#634);
#633 = CARTESIAN_POINT('',(-29.03105555697,-40.88894444302,2.6));
#634 = VECTOR('',#635,1.);
#635 = DIRECTION('',(-0.707106781186,0.707106781187,0.));
#636 = ORIENTED_EDGE('',*,*,#637,.F.);
#637 = EDGE_CURVE('',#148,#630,#638,.T.);
#638 = LINE('',#639,#640);
#639 = CARTESIAN_POINT('',(-29.03105555697,-40.88894444302,0.));
#640 = VECTOR('',#641,1.);
#641 = DIRECTION('',(0.,0.,1.));
#642 = ORIENTED_EDGE('',*,*,#147,.F.);
#643 = PLANE('',#644);
#644 = AXIS2_PLACEMENT_3D('',#645,#646,#647);
#645 = CARTESIAN_POINT('',(-38.00624999999,-31.91374999999,0.));
#646 = DIRECTION('',(0.707106781187,0.707106781186,0.));
#647 = DIRECTION('',(0.707106781186,-0.707106781187,0.));
#648 = ADVANCED_FACE('',(#649),#668,.T.);
#649 = FACE_BOUND('',#650,.F.);
#650 = EDGE_LOOP('',(#651,#659,#666,#667));
#651 = ORIENTED_EDGE('',*,*,#652,.T.);
#652 = EDGE_CURVE('',#190,#653,#655,.T.);
#653 = VERTEX_POINT('',#654);
#654 = CARTESIAN_POINT('',(38.111549702035,-31.43278131276,2.6));
#655 = LINE('',#656,#657);
#656 = CARTESIAN_POINT('',(38.111549702035,-31.43278131276,0.));
#657 = VECTOR('',#658,1.);
#658 = DIRECTION('',(0.,0.,1.));
#659 = ORIENTED_EDGE('',*,*,#660,.F.);
#660 = EDGE_CURVE('',#606,#653,#661,.T.);
#661 = CIRCLE('',#662,9.370107806875);
#662 = AXIS2_PLACEMENT_3D('',#663,#664,#665);
#663 = CARTESIAN_POINT('',(28.908749999997,-29.66999999999,2.6));
#664 = DIRECTION('',(0.,0.,-1.));
#665 = DIRECTION('',(-0.188128178363,0.982144484537,0.));
#666 = ORIENTED_EDGE('',*,*,#605,.F.);
#667 = ORIENTED_EDGE('',*,*,#198,.F.);
#668 = CYLINDRICAL_SURFACE('',#669,9.370107806875);
#669 = AXIS2_PLACEMENT_3D('',#670,#671,#672);
#670 = CARTESIAN_POINT('',(28.908749999997,-29.66999999999,0.));
#671 = DIRECTION('',(-0.,-0.,-1.));
#672 = DIRECTION('',(1.,0.,0.));
#673 = ADVANCED_FACE('',(#674),#693,.T.);
#674 = FACE_BOUND('',#675,.F.);
#675 = EDGE_LOOP('',(#676,#684,#685,#686));
#676 = ORIENTED_EDGE('',*,*,#677,.F.);
#677 = EDGE_CURVE('',#156,#678,#680,.T.);
#678 = VERTEX_POINT('',#679);
#679 = CARTESIAN_POINT('',(-27.94211111394,-41.34,2.6));
#680 = LINE('',#681,#682);
#681 = CARTESIAN_POINT('',(-27.94211111394,-41.34,0.));
#682 = VECTOR('',#683,1.);
#683 = DIRECTION('',(0.,0.,1.));
#684 = ORIENTED_EDGE('',*,*,#155,.T.);
#685 = ORIENTED_EDGE('',*,*,#637,.T.);
#686 = ORIENTED_EDGE('',*,*,#687,.F.);
#687 = EDGE_CURVE('',#678,#630,#688,.T.);
#688 = CIRCLE('',#689,1.54);
#689 = AXIS2_PLACEMENT_3D('',#690,#691,#692);
#690 = CARTESIAN_POINT('',(-27.94211111394,-39.8,2.6));
#691 = DIRECTION('',(-0.,-0.,-1.));
#692 = DIRECTION('',(0.,-1.,0.));
#693 = CYLINDRICAL_SURFACE('',#694,1.54);
#694 = AXIS2_PLACEMENT_3D('',#695,#696,#697);
#695 = CARTESIAN_POINT('',(-27.94211111394,-39.8,0.));
#696 = DIRECTION('',(0.,0.,1.));
#697 = DIRECTION('',(-1.243076864522E-16,-1.,0.));
#698 = ADVANCED_FACE('',(#699),#718,.T.);
#699 = FACE_BOUND('',#700,.F.);
#700 = EDGE_LOOP('',(#701,#702,#703,#711));
#701 = ORIENTED_EDGE('',*,*,#652,.F.);
#702 = ORIENTED_EDGE('',*,*,#189,.T.);
#703 = ORIENTED_EDGE('',*,*,#704,.T.);
#704 = EDGE_CURVE('',#182,#705,#707,.T.);
#705 = VERTEX_POINT('',#706);
#706 = CARTESIAN_POINT('',(37.687991638874,-32.23200836111,2.6));
#707 = LINE('',#708,#709);
#708 = CARTESIAN_POINT('',(37.687991638874,-32.23200836111,0.));
#709 = VECTOR('',#710,1.);
#710 = DIRECTION('',(0.,0.,1.));
#711 = ORIENTED_EDGE('',*,*,#712,.F.);
#712 = EDGE_CURVE('',#653,#705,#713,.T.);
#713 = CIRCLE('',#714,1.54);
#714 = AXIS2_PLACEMENT_3D('',#715,#716,#717);
#715 = CARTESIAN_POINT('',(36.599047195848,-31.14306391808,2.6));
#716 = DIRECTION('',(0.,-0.,-1.));
#717 = DIRECTION('',(0.982144484537,-0.188128178362,0.));
#718 = CYLINDRICAL_SURFACE('',#719,1.54);
#719 = AXIS2_PLACEMENT_3D('',#720,#721,#722);
#720 = CARTESIAN_POINT('',(36.599047195848,-31.14306391808,0.));
#721 = DIRECTION('',(0.,0.,1.));
#722 = DIRECTION('',(0.982144484537,-0.188128178362,0.));
#723 = ADVANCED_FACE('',(#724),#742,.F.);
#724 = FACE_BOUND('',#725,.F.);
#725 = EDGE_LOOP('',(#726,#727,#735,#741));
#726 = ORIENTED_EDGE('',*,*,#677,.T.);
#727 = ORIENTED_EDGE('',*,*,#728,.F.);
#728 = EDGE_CURVE('',#729,#678,#731,.T.);
#729 = VERTEX_POINT('',#730);
#730 = CARTESIAN_POINT('',(27.942111113904,-41.34,2.6));
#731 = LINE('',#732,#733);
#732 = CARTESIAN_POINT('',(27.942111113904,-41.34,2.6));
#733 = VECTOR('',#734,1.);
#734 = DIRECTION('',(-1.,1.243076864522E-16,0.));
#735 = ORIENTED_EDGE('',*,*,#736,.F.);
#736 = EDGE_CURVE('',#165,#729,#737,.T.);
#737 = LINE('',#738,#739);
#738 = CARTESIAN_POINT('',(27.942111113904,-41.34,0.));
#739 = VECTOR('',#740,1.);
#740 = DIRECTION('',(0.,0.,1.));
#741 = ORIENTED_EDGE('',*,*,#164,.F.);
#742 = PLANE('',#743);
#743 = AXIS2_PLACEMENT_3D('',#744,#745,#746);
#744 = CARTESIAN_POINT('',(-28.58,-41.34,0.));
#745 = DIRECTION('',(1.243076864522E-16,1.,0.));
#746 = DIRECTION('',(1.,-1.243076864522E-16,0.));
#747 = ADVANCED_FACE('',(#748),#766,.T.);
#748 = FACE_BOUND('',#749,.T.);
#749 = EDGE_LOOP('',(#750,#751,#759,#765));
#750 = ORIENTED_EDGE('',*,*,#704,.T.);
#751 = ORIENTED_EDGE('',*,*,#752,.T.);
#752 = EDGE_CURVE('',#705,#753,#755,.T.);
#753 = VERTEX_POINT('',#754);
#754 = CARTESIAN_POINT('',(29.031055556929,-40.88894444302,2.6));
#755 = LINE('',#756,#757);
#756 = CARTESIAN_POINT('',(37.687991638874,-32.23200836111,2.6));
#757 = VECTOR('',#758,1.);
#758 = DIRECTION('',(-0.707106781188,-0.707106781185,0.));
#759 = ORIENTED_EDGE('',*,*,#760,.F.);
#760 = EDGE_CURVE('',#173,#753,#761,.T.);
#761 = LINE('',#762,#763);
#762 = CARTESIAN_POINT('',(29.031055556929,-40.88894444302,0.));
#763 = VECTOR('',#764,1.);
#764 = DIRECTION('',(0.,0.,1.));
#765 = ORIENTED_EDGE('',*,*,#181,.F.);
#766 = PLANE('',#767);
#767 = AXIS2_PLACEMENT_3D('',#768,#769,#770);
#768 = CARTESIAN_POINT('',(38.006249999997,-31.91374999999,0.));
#769 = DIRECTION('',(0.707106781185,-0.707106781188,0.));
#770 = DIRECTION('',(-0.707106781188,-0.707106781185,0.));
#771 = ADVANCED_FACE('',(#772),#784,.T.);
#772 = FACE_BOUND('',#773,.F.);
#773 = EDGE_LOOP('',(#774,#775,#776,#777));
#774 = ORIENTED_EDGE('',*,*,#760,.F.);
#775 = ORIENTED_EDGE('',*,*,#172,.T.);
#776 = ORIENTED_EDGE('',*,*,#736,.T.);
#777 = ORIENTED_EDGE('',*,*,#778,.F.);
#778 = EDGE_CURVE('',#753,#729,#779,.T.);
#779 = CIRCLE('',#780,1.54);
#780 = AXIS2_PLACEMENT_3D('',#781,#782,#783);
#781 = CARTESIAN_POINT('',(27.942111113904,-39.8,2.6));
#782 = DIRECTION('',(0.,-0.,-1.));
#783 = DIRECTION('',(0.707106781185,-0.707106781188,0.));
#784 = CYLINDRICAL_SURFACE('',#785,1.54);
#785 = AXIS2_PLACEMENT_3D('',#786,#787,#788);
#786 = CARTESIAN_POINT('',(27.942111113904,-39.8,0.));
#787 = DIRECTION('',(0.,0.,1.));
#788 = DIRECTION('',(0.707106781185,-0.707106781188,0.));
#789 = ADVANCED_FACE('',(#790),#815,.T.);
#790 = FACE_BOUND('',#791,.T.);
#791 = EDGE_LOOP('',(#792,#800,#808,#814));
#792 = ORIENTED_EDGE('',*,*,#793,.T.);
#793 = EDGE_CURVE('',#233,#794,#796,.T.);
#794 = VERTEX_POINT('',#795);
#795 = CARTESIAN_POINT('',(-4.5,-31.34,2.6));
#796 = LINE('',#797,#798);
#797 = CARTESIAN_POINT('',(-4.5,-31.34,0.));
#798 = VECTOR('',#799,1.);
#799 = DIRECTION('',(0.,0.,1.));
#800 = ORIENTED_EDGE('',*,*,#801,.T.);
#801 = EDGE_CURVE('',#794,#802,#804,.T.);
#802 = VERTEX_POINT('',#803);
#803 = CARTESIAN_POINT('',(-4.5,-38.34,2.6));
#804 = LINE('',#805,#806);
#805 = CARTESIAN_POINT('',(-4.5,-31.34,2.6));
#806 = VECTOR('',#807,1.);
#807 = DIRECTION('',(0.,-1.,0.));
#808 = ORIENTED_EDGE('',*,*,#809,.F.);
#809 = EDGE_CURVE('',#235,#802,#810,.T.);
#810 = LINE('',#811,#812);
#811 = CARTESIAN_POINT('',(-4.5,-38.34,0.));
#812 = VECTOR('',#813,1.);
#813 = DIRECTION('',(0.,0.,1.));
#814 = ORIENTED_EDGE('',*,*,#232,.F.);
#815 = PLANE('',#816);
#816 = AXIS2_PLACEMENT_3D('',#817,#818,#819);
#817 = CARTESIAN_POINT('',(-4.5,-31.34,0.));
#818 = DIRECTION('',(1.,0.,0.));
#819 = DIRECTION('',(0.,-1.,0.));
#820 = ADVANCED_FACE('',(#821),#839,.T.);
#821 = FACE_BOUND('',#822,.T.);
#822 = EDGE_LOOP('',(#823,#824,#832,#838));
#823 = ORIENTED_EDGE('',*,*,#809,.T.);
#824 = ORIENTED_EDGE('',*,*,#825,.T.);
#825 = EDGE_CURVE('',#802,#826,#828,.T.);
#826 = VERTEX_POINT('',#827);
#827 = CARTESIAN_POINT('',(4.5,-38.34,2.6));
#828 = LINE('',#829,#830);
#829 = CARTESIAN_POINT('',(-4.5,-38.34,2.6));
#830 = VECTOR('',#831,1.);
#831 = DIRECTION('',(1.,0.,0.));
#832 = ORIENTED_EDGE('',*,*,#833,.F.);
#833 = EDGE_CURVE('',#243,#826,#834,.T.);
#834 = LINE('',#835,#836);
#835 = CARTESIAN_POINT('',(4.5,-38.34,0.));
#836 = VECTOR('',#837,1.);
#837 = DIRECTION('',(0.,0.,1.));
#838 = ORIENTED_EDGE('',*,*,#242,.F.);
#839 = PLANE('',#840);
#840 = AXIS2_PLACEMENT_3D('',#841,#842,#843);
#841 = CARTESIAN_POINT('',(-4.5,-38.34,0.));
#842 = DIRECTION('',(0.,1.,0.));
#843 = DIRECTION('',(1.,0.,0.));
#844 = ADVANCED_FACE('',(#845),#863,.T.);
#845 = FACE_BOUND('',#846,.T.);
#846 = EDGE_LOOP('',(#847,#848,#856,#862));
#847 = ORIENTED_EDGE('',*,*,#833,.T.);
#848 = ORIENTED_EDGE('',*,*,#849,.T.);
#849 = EDGE_CURVE('',#826,#850,#852,.T.);
#850 = VERTEX_POINT('',#851);
#851 = CARTESIAN_POINT('',(4.5,-31.34,2.6));
#852 = LINE('',#853,#854);
#853 = CARTESIAN_POINT('',(4.5,-38.34,2.6));
#854 = VECTOR('',#855,1.);
#855 = DIRECTION('',(0.,1.,0.));
#856 = ORIENTED_EDGE('',*,*,#857,.F.);
#857 = EDGE_CURVE('',#251,#850,#858,.T.);
#858 = LINE('',#859,#860);
#859 = CARTESIAN_POINT('',(4.5,-31.34,0.));
#860 = VECTOR('',#861,1.);
#861 = DIRECTION('',(0.,0.,1.));
#862 = ORIENTED_EDGE('',*,*,#250,.F.);
#863 = PLANE('',#864);
#864 = AXIS2_PLACEMENT_3D('',#865,#866,#867);
#865 = CARTESIAN_POINT('',(4.5,-38.34,0.));
#866 = DIRECTION('',(-1.,0.,0.));
#867 = DIRECTION('',(0.,1.,0.));
#868 = ADVANCED_FACE('',(#869),#880,.T.);
#869 = FACE_BOUND('',#870,.T.);
#870 = EDGE_LOOP('',(#871,#872,#878,#879));
#871 = ORIENTED_EDGE('',*,*,#857,.T.);
#872 = ORIENTED_EDGE('',*,*,#873,.T.);
#873 = EDGE_CURVE('',#850,#794,#874,.T.);
#874 = LINE('',#875,#876);
#875 = CARTESIAN_POINT('',(4.5,-31.34,2.6));
#876 = VECTOR('',#877,1.);
#877 = DIRECTION('',(-1.,0.,0.));
#878 = ORIENTED_EDGE('',*,*,#793,.F.);
#879 = ORIENTED_EDGE('',*,*,#258,.F.);
#880 = PLANE('',#881);
#881 = AXIS2_PLACEMENT_3D('',#882,#883,#884);
#882 = CARTESIAN_POINT('',(4.5,-31.34,0.));
#883 = DIRECTION('',(0.,-1.,0.));
#884 = DIRECTION('',(-1.,0.,0.));
#885 = ADVANCED_FACE('',(#886),#905,.F.);
#886 = FACE_BOUND('',#887,.T.);
#887 = EDGE_LOOP('',(#888,#896,#903,#904));
#888 = ORIENTED_EDGE('',*,*,#889,.T.);
#889 = EDGE_CURVE('',#267,#890,#892,.T.);
#890 = VERTEX_POINT('',#891);
#891 = CARTESIAN_POINT('',(32.658749999997,-29.66999999999,2.6));
#892 = LINE('',#893,#894);
#893 = CARTESIAN_POINT('',(32.658749999997,-29.66999999999,0.));
#894 = VECTOR('',#895,1.);
#895 = DIRECTION('',(0.,0.,1.));
#896 = ORIENTED_EDGE('',*,*,#897,.T.);
#897 = EDGE_CURVE('',#890,#890,#898,.T.);
#898 = CIRCLE('',#899,3.75);
#899 = AXIS2_PLACEMENT_3D('',#900,#901,#902);
#900 = CARTESIAN_POINT('',(28.908749999997,-29.66999999999,2.6));
#901 = DIRECTION('',(0.,0.,1.));
#902 = DIRECTION('',(1.,0.,0.));
#903 = ORIENTED_EDGE('',*,*,#889,.F.);
#904 = ORIENTED_EDGE('',*,*,#266,.F.);
#905 = CYLINDRICAL_SURFACE('',#906,3.75);
#906 = AXIS2_PLACEMENT_3D('',#907,#908,#909);
#907 = CARTESIAN_POINT('',(28.908749999997,-29.66999999999,0.));
#908 = DIRECTION('',(-0.,-0.,-1.));
#909 = DIRECTION('',(1.,0.,0.));
#910 = ADVANCED_FACE('',(#911),#930,.F.);
#911 = FACE_BOUND('',#912,.T.);
#912 = EDGE_LOOP('',(#913,#921,#928,#929));
#913 = ORIENTED_EDGE('',*,*,#914,.T.);
#914 = EDGE_CURVE('',#278,#915,#917,.T.);
#915 = VERTEX_POINT('',#916);
#916 = CARTESIAN_POINT('',(-25.15875,-29.67,2.6));
#917 = LINE('',#918,#919);
#918 = CARTESIAN_POINT('',(-25.15875,-29.67,0.));
#919 = VECTOR('',#920,1.);
#920 = DIRECTION('',(0.,0.,1.));
#921 = ORIENTED_EDGE('',*,*,#922,.T.);
#922 = EDGE_CURVE('',#915,#915,#923,.T.);
#923 = CIRCLE('',#924,3.75);
#924 = AXIS2_PLACEMENT_3D('',#925,#926,#927);
#925 = CARTESIAN_POINT('',(-28.90875,-29.67,2.6));
#926 = DIRECTION('',(0.,0.,1.));
#927 = DIRECTION('',(1.,0.,0.));
#928 = ORIENTED_EDGE('',*,*,#914,.F.);
#929 = ORIENTED_EDGE('',*,*,#277,.F.);
#930 = CYLINDRICAL_SURFACE('',#931,3.75);
#931 = AXIS2_PLACEMENT_3D('',#932,#933,#934);
#932 = CARTESIAN_POINT('',(-28.90875,-29.67,0.));
#933 = DIRECTION('',(-0.,-0.,-1.));
#934 = DIRECTION('',(1.,0.,0.));
#935 = ADVANCED_FACE('',(#936),#948,.T.);
#936 = FACE_BOUND('',#937,.F.);
#937 = EDGE_LOOP('',(#938,#945,#946,#947));
#938 = ORIENTED_EDGE('',*,*,#939,.F.);
#939 = EDGE_CURVE('',#346,#388,#940,.T.);
#940 = CIRCLE('',#941,0.4);
#941 = AXIS2_PLACEMENT_3D('',#942,#943,#944);
#942 = CARTESIAN_POINT('',(-37.71869190822,-31.35753004142,2.6));
#943 = DIRECTION('',(-0.188128178362,0.982144484537,0.));
#944 = DIRECTION('',(-0.982144484537,-0.188128178362,0.));
#945 = ORIENTED_EDGE('',*,*,#345,.T.);
#946 = ORIENTED_EDGE('',*,*,#318,.T.);
#947 = ORIENTED_EDGE('',*,*,#387,.F.);
#948 = TOROIDAL_SURFACE('',#949,8.970107806875,0.4);
#949 = AXIS2_PLACEMENT_3D('',#950,#951,#952);
#950 = CARTESIAN_POINT('',(-28.90875,-29.67,2.6));
#951 = DIRECTION('',(0.,0.,1.));
#952 = DIRECTION('',(-0.982144484537,-0.188128178362,0.));
#953 = ADVANCED_FACE('',(#954),#966,.T.);
#954 = FACE_BOUND('',#955,.T.);
#955 = EDGE_LOOP('',(#956,#957,#958,#965));
#956 = ORIENTED_EDGE('',*,*,#538,.T.);
#957 = ORIENTED_EDGE('',*,*,#369,.T.);
#958 = ORIENTED_EDGE('',*,*,#959,.F.);
#959 = EDGE_CURVE('',#555,#372,#960,.T.);
#960 = CIRCLE('',#961,0.4);
#961 = AXIS2_PLACEMENT_3D('',#962,#963,#964);
#962 = CARTESIAN_POINT('',(26.629584351354,-21.17360107359,2.6));
#963 = DIRECTION('',(0.707106781187,0.707106781187,-0.));
#964 = DIRECTION('',(-0.707106781187,0.707106781187,0.));
#965 = ORIENTED_EDGE('',*,*,#564,.F.);
#966 = CYLINDRICAL_SURFACE('',#967,0.4);
#967 = AXIS2_PLACEMENT_3D('',#968,#969,#970);
#968 = CARTESIAN_POINT('',(19.332842712475,-28.47034271247,2.6));
#969 = DIRECTION('',(0.707106781187,0.707106781187,0.));
#970 = DIRECTION('',(-0.707106781187,0.707106781187,0.));
#971 = ADVANCED_FACE('',(#972),#984,.T.);
#972 = FACE_BOUND('',#973,.F.);
#973 = EDGE_LOOP('',(#974,#975,#976,#983));
#974 = ORIENTED_EDGE('',*,*,#959,.F.);
#975 = ORIENTED_EDGE('',*,*,#613,.T.);
#976 = ORIENTED_EDGE('',*,*,#977,.T.);
#977 = EDGE_CURVE('',#606,#457,#978,.T.);
#978 = CIRCLE('',#979,0.4);
#979 = AXIS2_PLACEMENT_3D('',#980,#981,#982);
#980 = CARTESIAN_POINT('',(27.221219958573,-20.86005809177,2.6));
#981 = DIRECTION('',(0.982144484537,0.188128178363,-0.));
#982 = DIRECTION('',(-0.188128178363,0.982144484537,0.));
#983 = ORIENTED_EDGE('',*,*,#465,.F.);
#984 = TOROIDAL_SURFACE('',#985,1.14,0.4);
#985 = AXIS2_PLACEMENT_3D('',#986,#987,#988);
#986 = CARTESIAN_POINT('',(27.435686081906,-21.97970280414,2.6));
#987 = DIRECTION('',(0.,0.,1.));
#988 = DIRECTION('',(-0.707106781187,0.707106781187,0.));
#989 = ADVANCED_FACE('',(#990),#1002,.T.);
#990 = FACE_BOUND('',#991,.F.);
#991 = EDGE_LOOP('',(#992,#993,#994,#1001));
#992 = ORIENTED_EDGE('',*,*,#977,.F.);
#993 = ORIENTED_EDGE('',*,*,#660,.T.);
#994 = ORIENTED_EDGE('',*,*,#995,.T.);
#995 = EDGE_CURVE('',#653,#448,#996,.T.);
#996 = CIRCLE('',#997,0.4);
#997 = AXIS2_PLACEMENT_3D('',#998,#999,#1000);
#998 = CARTESIAN_POINT('',(37.71869190822,-31.35753004141,2.6));
#999 = DIRECTION('',(-0.188128178362,-0.982144484537,0.));
#1000 = DIRECTION('',(0.982144484537,-0.188128178362,0.));
#1001 = ORIENTED_EDGE('',*,*,#456,.F.);
#1002 = TOROIDAL_SURFACE('',#1003,8.970107806875,0.4);
#1003 = AXIS2_PLACEMENT_3D('',#1004,#1005,#1006);
#1004 = CARTESIAN_POINT('',(28.908749999997,-29.66999999999,2.6));
#1005 = DIRECTION('',(0.,0.,1.));
#1006 = DIRECTION('',(-0.188128178363,0.982144484537,0.));
#1007 = ADVANCED_FACE('',(#1008),#1020,.T.);
#1008 = FACE_BOUND('',#1009,.F.);
#1009 = EDGE_LOOP('',(#1010,#1011,#1012,#1019));
#1010 = ORIENTED_EDGE('',*,*,#995,.F.);
#1011 = ORIENTED_EDGE('',*,*,#712,.T.);
#1012 = ORIENTED_EDGE('',*,*,#1013,.T.);
#1013 = EDGE_CURVE('',#705,#440,#1014,.T.);
#1014 = CIRCLE('',#1015,0.4);
#1015 = AXIS2_PLACEMENT_3D('',#1016,#1017,#1018);
#1016 = CARTESIAN_POINT('',(37.4051489264,-31.94916564863,2.6));
#1017 = DIRECTION('',(-0.707106781188,-0.707106781185,0.));
#1018 = DIRECTION('',(0.707106781185,-0.707106781188,0.));
#1019 = ORIENTED_EDGE('',*,*,#447,.F.);
#1020 = TOROIDAL_SURFACE('',#1021,1.14,0.4);
#1021 = AXIS2_PLACEMENT_3D('',#1022,#1023,#1024);
#1022 = CARTESIAN_POINT('',(36.599047195848,-31.14306391808,2.6));
#1023 = DIRECTION('',(0.,0.,1.));
#1024 = DIRECTION('',(0.982144484537,-0.188128178362,0.));
#1025 = ADVANCED_FACE('',(#1026),#1038,.T.);
#1026 = FACE_BOUND('',#1027,.T.);
#1027 = EDGE_LOOP('',(#1028,#1029,#1030,#1037));
#1028 = ORIENTED_EDGE('',*,*,#1013,.T.);
#1029 = ORIENTED_EDGE('',*,*,#439,.T.);
#1030 = ORIENTED_EDGE('',*,*,#1031,.F.);
#1031 = EDGE_CURVE('',#753,#431,#1032,.T.);
#1032 = CIRCLE('',#1033,0.4);
#1033 = AXIS2_PLACEMENT_3D('',#1034,#1035,#1036);
#1034 = CARTESIAN_POINT('',(28.748212844455,-40.60610173055,2.6));
#1035 = DIRECTION('',(-0.707106781188,-0.707106781185,0.));
#1036 = DIRECTION('',(0.707106781185,-0.707106781188,0.));
#1037 = ORIENTED_EDGE('',*,*,#752,.F.);
#1038 = CYLINDRICAL_SURFACE('',#1039,0.4);
#1039 = AXIS2_PLACEMENT_3D('',#1040,#1041,#1042);
#1040 = CARTESIAN_POINT('',(37.4051489264,-31.94916564863,2.6));
#1041 = DIRECTION('',(-0.707106781188,-0.707106781185,0.));
#1042 = DIRECTION('',(0.707106781185,-0.707106781188,0.));
#1043 = ADVANCED_FACE('',(#1044),#1056,.T.);
#1044 = FACE_BOUND('',#1045,.F.);
#1045 = EDGE_LOOP('',(#1046,#1053,#1054,#1055));
#1046 = ORIENTED_EDGE('',*,*,#1047,.F.);
#1047 = EDGE_CURVE('',#579,#397,#1048,.T.);
#1048 = CIRCLE('',#1049,0.4);
#1049 = AXIS2_PLACEMENT_3D('',#1050,#1051,#1052);
#1050 = CARTESIAN_POINT('',(-37.4051489264,-31.94916564864,2.6));
#1051 = DIRECTION('',(-0.707106781186,0.707106781187,0.));
#1052 = DIRECTION('',(-0.707106781187,-0.707106781186,-0.));
#1053 = ORIENTED_EDGE('',*,*,#588,.T.);
#1054 = ORIENTED_EDGE('',*,*,#939,.T.);
#1055 = ORIENTED_EDGE('',*,*,#396,.F.);
#1056 = TOROIDAL_SURFACE('',#1057,1.14,0.4);
#1057 = AXIS2_PLACEMENT_3D('',#1058,#1059,#1060);
#1058 = CARTESIAN_POINT('',(-36.59904719585,-31.14306391808,2.6));
#1059 = DIRECTION('',(0.,0.,1.));
#1060 = DIRECTION('',(-0.707106781187,-0.707106781186,0.));
#1061 = ADVANCED_FACE('',(#1062),#1074,.T.);
#1062 = FACE_BOUND('',#1063,.F.);
#1063 = EDGE_LOOP('',(#1064,#1065,#1066,#1073));
#1064 = ORIENTED_EDGE('',*,*,#1031,.F.);
#1065 = ORIENTED_EDGE('',*,*,#778,.T.);
#1066 = ORIENTED_EDGE('',*,*,#1067,.T.);
#1067 = EDGE_CURVE('',#729,#423,#1068,.T.);
#1068 = CIRCLE('',#1069,0.4);
#1069 = AXIS2_PLACEMENT_3D('',#1070,#1071,#1072);
#1070 = CARTESIAN_POINT('',(27.942111113904,-40.94,2.6));
#1071 = DIRECTION('',(-1.,-5.551115123126E-16,0.));
#1072 = DIRECTION('',(5.551115123126E-16,-1.,0.));
#1073 = ORIENTED_EDGE('',*,*,#430,.F.);
#1074 = TOROIDAL_SURFACE('',#1075,1.14,0.4);
#1075 = AXIS2_PLACEMENT_3D('',#1076,#1077,#1078);
#1076 = CARTESIAN_POINT('',(27.942111113904,-39.8,2.6));
#1077 = DIRECTION('',(0.,0.,1.));
#1078 = DIRECTION('',(0.707106781185,-0.707106781188,0.));
#1079 = ADVANCED_FACE('',(#1080),#1092,.T.);
#1080 = FACE_BOUND('',#1081,.T.);
#1081 = EDGE_LOOP('',(#1082,#1089,#1090,#1091));
#1082 = ORIENTED_EDGE('',*,*,#1083,.T.);
#1083 = EDGE_CURVE('',#630,#406,#1084,.T.);
#1084 = CIRCLE('',#1085,0.4);
#1085 = AXIS2_PLACEMENT_3D('',#1086,#1087,#1088);
#1086 = CARTESIAN_POINT('',(-28.74821284449,-40.60610173055,2.6));
#1087 = DIRECTION('',(-0.707106781186,0.707106781187,0.));
#1088 = DIRECTION('',(-0.707106781187,-0.707106781186,0.));
#1089 = ORIENTED_EDGE('',*,*,#405,.T.);
#1090 = ORIENTED_EDGE('',*,*,#1047,.F.);
#1091 = ORIENTED_EDGE('',*,*,#629,.F.);
#1092 = CYLINDRICAL_SURFACE('',#1093,0.4);
#1093 = AXIS2_PLACEMENT_3D('',#1094,#1095,#1096);
#1094 = CARTESIAN_POINT('',(-28.74821284449,-40.60610173055,2.6));
#1095 = DIRECTION('',(-0.707106781186,0.707106781187,0.));
#1096 = DIRECTION('',(-0.707106781187,-0.707106781186,-0.));
#1097 = ADVANCED_FACE('',(#1098),#1110,.T.);
#1098 = FACE_BOUND('',#1099,.T.);
#1099 = EDGE_LOOP('',(#1100,#1101,#1102,#1109));
#1100 = ORIENTED_EDGE('',*,*,#1067,.T.);
#1101 = ORIENTED_EDGE('',*,*,#422,.T.);
#1102 = ORIENTED_EDGE('',*,*,#1103,.F.);
#1103 = EDGE_CURVE('',#678,#414,#1104,.T.);
#1104 = CIRCLE('',#1105,0.4);
#1105 = AXIS2_PLACEMENT_3D('',#1106,#1107,#1108);
#1106 = CARTESIAN_POINT('',(-27.94211111394,-40.94,2.6));
#1107 = DIRECTION('',(-1.,1.243076864522E-16,0.));
#1108 = DIRECTION('',(-1.243076864522E-16,-1.,-0.));
#1109 = ORIENTED_EDGE('',*,*,#728,.F.);
#1110 = CYLINDRICAL_SURFACE('',#1111,0.4);
#1111 = AXIS2_PLACEMENT_3D('',#1112,#1113,#1114);
#1112 = CARTESIAN_POINT('',(27.942111113904,-40.94,2.6));
#1113 = DIRECTION('',(-1.,1.243076864522E-16,0.));
#1114 = DIRECTION('',(-1.243076864522E-16,-1.,-0.));
#1115 = ADVANCED_FACE('',(#1116),#1122,.T.);
#1116 = FACE_BOUND('',#1117,.F.);
#1117 = EDGE_LOOP('',(#1118,#1119,#1120,#1121));
#1118 = ORIENTED_EDGE('',*,*,#1103,.F.);
#1119 = ORIENTED_EDGE('',*,*,#687,.T.);
#1120 = ORIENTED_EDGE('',*,*,#1083,.T.);
#1121 = ORIENTED_EDGE('',*,*,#413,.F.);
#1122 = TOROIDAL_SURFACE('',#1123,1.14,0.4);
#1123 = AXIS2_PLACEMENT_3D('',#1124,#1125,#1126);
#1124 = CARTESIAN_POINT('',(-27.94211111394,-39.8,2.6));
#1125 = DIRECTION('',(0.,0.,1.));
#1126 = DIRECTION('',(0.,-1.,0.));
#1127 = ADVANCED_FACE('',(#1128),#1146,.T.);
#1128 = FACE_BOUND('',#1129,.F.);
#1129 = EDGE_LOOP('',(#1130,#1137,#1138,#1145));
#1130 = ORIENTED_EDGE('',*,*,#1131,.T.);
#1131 = EDGE_CURVE('',#475,#794,#1132,.T.);
#1132 = ELLIPSE('',#1133,0.565685424949,0.4);
#1133 = AXIS2_PLACEMENT_3D('',#1134,#1135,#1136);
#1134 = CARTESIAN_POINT('',(-4.9,-30.94,2.6));
#1135 = DIRECTION('',(0.707106781187,0.707106781187,0.));
#1136 = DIRECTION('',(0.707106781187,-0.707106781187,0.));
#1137 = ORIENTED_EDGE('',*,*,#801,.T.);
#1138 = ORIENTED_EDGE('',*,*,#1139,.F.);
#1139 = EDGE_CURVE('',#477,#802,#1140,.T.);
#1140 = ELLIPSE('',#1141,0.565685424949,0.4);
#1141 = AXIS2_PLACEMENT_3D('',#1142,#1143,#1144);
#1142 = CARTESIAN_POINT('',(-4.9,-38.74,2.6));
#1143 = DIRECTION('',(-0.707106781187,0.707106781187,0.));
#1144 = DIRECTION('',(-0.707106781187,-0.707106781187,0.));
#1145 = ORIENTED_EDGE('',*,*,#474,.F.);
#1146 = CYLINDRICAL_SURFACE('',#1147,0.4);
#1147 = AXIS2_PLACEMENT_3D('',#1148,#1149,#1150);
#1148 = CARTESIAN_POINT('',(-4.9,-31.34,2.6));
#1149 = DIRECTION('',(0.,-1.,0.));
#1150 = DIRECTION('',(0.,0.,1.));
#1151 = ADVANCED_FACE('',(#1152),#1164,.T.);
#1152 = FACE_BOUND('',#1153,.F.);
#1153 = EDGE_LOOP('',(#1154,#1161,#1162,#1163));
#1154 = ORIENTED_EDGE('',*,*,#1155,.T.);
#1155 = EDGE_CURVE('',#485,#850,#1156,.T.);
#1156 = ELLIPSE('',#1157,0.565685424949,0.4);
#1157 = AXIS2_PLACEMENT_3D('',#1158,#1159,#1160);
#1158 = CARTESIAN_POINT('',(4.9,-30.94,2.6));
#1159 = DIRECTION('',(0.707106781187,-0.707106781187,0.));
#1160 = DIRECTION('',(0.707106781187,0.707106781187,0.));
#1161 = ORIENTED_EDGE('',*,*,#873,.T.);
#1162 = ORIENTED_EDGE('',*,*,#1131,.F.);
#1163 = ORIENTED_EDGE('',*,*,#484,.F.);
#1164 = CYLINDRICAL_SURFACE('',#1165,0.4);
#1165 = AXIS2_PLACEMENT_3D('',#1166,#1167,#1168);
#1166 = CARTESIAN_POINT('',(4.5,-30.94,2.6));
#1167 = DIRECTION('',(-1.,0.,0.));
#1168 = DIRECTION('',(0.,0.,1.));
#1169 = ADVANCED_FACE('',(#1170),#1182,.T.);
#1170 = FACE_BOUND('',#1171,.F.);
#1171 = EDGE_LOOP('',(#1172,#1173,#1174,#1181));
#1172 = ORIENTED_EDGE('',*,*,#1139,.T.);
#1173 = ORIENTED_EDGE('',*,*,#825,.T.);
#1174 = ORIENTED_EDGE('',*,*,#1175,.F.);
#1175 = EDGE_CURVE('',#493,#826,#1176,.T.);
#1176 = ELLIPSE('',#1177,0.565685424949,0.4);
#1177 = AXIS2_PLACEMENT_3D('',#1178,#1179,#1180);
#1178 = CARTESIAN_POINT('',(4.9,-38.74,2.6));
#1179 = DIRECTION('',(-0.707106781187,-0.707106781187,0.));
#1180 = DIRECTION('',(0.707106781187,-0.707106781187,0.));
#1181 = ORIENTED_EDGE('',*,*,#500,.F.);
#1182 = CYLINDRICAL_SURFACE('',#1183,0.4);
#1183 = AXIS2_PLACEMENT_3D('',#1184,#1185,#1186);
#1184 = CARTESIAN_POINT('',(-4.5,-38.74,2.6));
#1185 = DIRECTION('',(1.,0.,0.));
#1186 = DIRECTION('',(0.,0.,1.));
#1187 = ADVANCED_FACE('',(#1188),#1194,.T.);
#1188 = FACE_BOUND('',#1189,.F.);
#1189 = EDGE_LOOP('',(#1190,#1191,#1192,#1193));
#1190 = ORIENTED_EDGE('',*,*,#1175,.T.);
#1191 = ORIENTED_EDGE('',*,*,#849,.T.);
#1192 = ORIENTED_EDGE('',*,*,#1155,.F.);
#1193 = ORIENTED_EDGE('',*,*,#492,.F.);
#1194 = CYLINDRICAL_SURFACE('',#1195,0.4);
#1195 = AXIS2_PLACEMENT_3D('',#1196,#1197,#1198);
#1196 = CARTESIAN_POINT('',(4.9,-38.34,2.6));
#1197 = DIRECTION('',(0.,1.,0.));
#1198 = DIRECTION('',(0.,0.,1.));
#1199 = ADVANCED_FACE('',(#1200),#1212,.T.);
#1200 = FACE_BOUND('',#1201,.T.);
#1201 = EDGE_LOOP('',(#1202,#1209,#1210,#1211));
#1202 = ORIENTED_EDGE('',*,*,#1203,.F.);
#1203 = EDGE_CURVE('',#509,#890,#1204,.T.);
#1204 = CIRCLE('',#1205,0.4);
#1205 = AXIS2_PLACEMENT_3D('',#1206,#1207,#1208);
#1206 = CARTESIAN_POINT('',(33.058749999997,-29.66999999999,2.6));
#1207 = DIRECTION('',(0.,-1.,0.));
#1208 = DIRECTION('',(1.,0.,0.));
#1209 = ORIENTED_EDGE('',*,*,#508,.T.);
#1210 = ORIENTED_EDGE('',*,*,#1203,.T.);
#1211 = ORIENTED_EDGE('',*,*,#897,.F.);
#1212 = TOROIDAL_SURFACE('',#1213,4.15,0.4);
#1213 = AXIS2_PLACEMENT_3D('',#1214,#1215,#1216);
#1214 = CARTESIAN_POINT('',(28.908749999997,-29.66999999999,2.6));
#1215 = DIRECTION('',(0.,0.,1.));
#1216 = DIRECTION('',(1.,0.,0.));
#1217 = ADVANCED_FACE('',(#1218),#1230,.T.);
#1218 = FACE_BOUND('',#1219,.T.);
#1219 = EDGE_LOOP('',(#1220,#1227,#1228,#1229));
#1220 = ORIENTED_EDGE('',*,*,#1221,.F.);
#1221 = EDGE_CURVE('',#520,#915,#1222,.T.);
#1222 = CIRCLE('',#1223,0.4);
#1223 = AXIS2_PLACEMENT_3D('',#1224,#1225,#1226);
#1224 = CARTESIAN_POINT('',(-24.75875,-29.67,2.6));
#1225 = DIRECTION('',(0.,-1.,0.));
#1226 = DIRECTION('',(1.,0.,0.));
#1227 = ORIENTED_EDGE('',*,*,#519,.T.);
#1228 = ORIENTED_EDGE('',*,*,#1221,.T.);
#1229 = ORIENTED_EDGE('',*,*,#922,.F.);
#1230 = TOROIDAL_SURFACE('',#1231,4.15,0.4);
#1231 = AXIS2_PLACEMENT_3D('',#1232,#1233,#1234);
#1232 = CARTESIAN_POINT('',(-28.90875,-29.67,2.6));
#1233 = DIRECTION('',(0.,0.,1.));
#1234 = DIRECTION('',(1.,0.,0.));
#1235 = ( GEOMETRIC_REPRESENTATION_CONTEXT(3) 
GLOBAL_UNCERTAINTY_ASSIGNED_CONTEXT((#1239)) 
GLOBAL_UNIT_ASSIGNED_CONTEXT((#1236,#1237,#1238)) REPRESENTATION_CONTEXT
('Context #1','3D Context with UNIT and UNCERTAINTY') );
#1236 = ( LENGTH_UNIT() NAMED_UNIT(*) SI_UNIT(.MILLI.,.METRE.) );
#1237 = ( NAMED_UNIT(*) PLANE_ANGLE_UNIT() SI_UNIT($,.RADIAN.) );
#1238 = ( NAMED_UNIT(*) SI_UNIT($,.STERADIAN.) SOLID_ANGLE_UNIT() );
#1239 = UNCERTAINTY_MEASURE_WITH_UNIT(LENGTH_MEASURE(2.E-07),#1236,
  'distance_accuracy_value','confusion accuracy');
#1240 = PRODUCT_RELATED_PRODUCT_CATEGORY('part',$,(#7));
#1241 = MECHANICAL_DESIGN_GEOMETRIC_PRESENTATION_REPRESENTATION('',(
    #1242),#1235);
#1242 = STYLED_ITEM('color',(#1243),#15);
#1243 = PRESENTATION_STYLE_ASSIGNMENT((#1244,#1250));
#1244 = SURFACE_STYLE_USAGE(.BOTH.,#1245);
#1245 = SURFACE_SIDE_STYLE('',(#1246));
#1246 = SURFACE_STYLE_FILL_AREA(#1247);
#1247 = FILL_AREA_STYLE('',(#1248));
#1248 = FILL_AREA_STYLE_COLOUR('',#1249);
#1249 = COLOUR_RGB('',0.577657110947,0.415037372709,3.246450115927E-02);
#1250 = CURVE_STYLE('',#1251,POSITIVE_LENGTH_MEASURE(0.1),#1252);
#1251 = DRAUGHTING_PRE_DEFINED_CURVE_FONT('continuous');
#1252 = COLOUR_RGB('',9.803921802644E-02,9.803921802644E-02,
  9.803921802644E-02);
ENDSEC;
END-ISO-10303-21;
