ISO-10303-21;
HEADER;
FILE_DESCRIPTION(('FreeCAD Model'),'2;1');
FILE_NAME('Open CASCADE Shape Model','2026-04-28T10:03:05',(''),(''),
  'Open CASCADE STEP processor 7.8','FreeCAD','Unknown');
FILE_SCHEMA(('AUTOMOTIVE_DESIGN { 1 0 10303 214 1 1 1 1 }'));
ENDSEC;
DATA;
#1 = APPLICATION_PROTOCOL_DEFINITION('international standard',
  'automotive_design',2000,#2);
#2 = APPLICATION_CONTEXT(
  'core data for automotive mechanical design processes');
#3 = SHAPE_DEFINITION_REPRESENTATION(#4,#10);
#4 = PRODUCT_DEFINITION_SHAPE('','',#5);
#5 = PRODUCT_DEFINITION('design','',#6,#9);
#6 = PRODUCT_DEFINITION_FORMATION('','',#7);
#7 = PRODUCT('23017PushBlock','23017PushBlock','',(#8));
#8 = PRODUCT_CONTEXT('',#2,'mechanical');
#9 = PRODUCT_DEFINITION_CONTEXT('part definition',#2,'design');
#10 = ADVANCED_BREP_SHAPE_REPRESENTATION('',(#11,#15),#274);
#11 = AXIS2_PLACEMENT_3D('',#12,#13,#14);
#12 = CARTESIAN_POINT('',(0.,0.,0.));
#13 = DIRECTION('',(0.,0.,1.));
#14 = DIRECTION('',(1.,0.,-0.));
#15 = MANIFOLD_SOLID_BREP('',#16);
#16 = CLOSED_SHELL('',(#17,#57,#117,#142,#167,#211,#228,#245,#257));
#17 = ADVANCED_FACE('',(#18),#52,.F.);
#18 = FACE_BOUND('',#19,.F.);
#19 = EDGE_LOOP('',(#20,#30,#38,#46));
#20 = ORIENTED_EDGE('',*,*,#21,.F.);
#21 = EDGE_CURVE('',#22,#24,#26,.T.);
#22 = VERTEX_POINT('',#23);
#23 = CARTESIAN_POINT('',(-1.4E-14,3.3,41.9));
#24 = VERTEX_POINT('',#25);
#25 = CARTESIAN_POINT('',(-1.4E-14,-2.7,41.9));
#26 = LINE('',#27,#28);
#27 = CARTESIAN_POINT('',(-1.491E-14,4.3,41.9));
#28 = VECTOR('',#29,1.);
#29 = DIRECTION('',(2.2E-16,-1.,3.3E-16));
#30 = ORIENTED_EDGE('',*,*,#31,.T.);
#31 = EDGE_CURVE('',#22,#32,#34,.T.);
#32 = VERTEX_POINT('',#33);
#33 = CARTESIAN_POINT('',(2.5,3.3,41.9));
#34 = LINE('',#35,#36);
#35 = CARTESIAN_POINT('',(-1.418E-14,3.3,41.9));
#36 = VECTOR('',#37,1.);
#37 = DIRECTION('',(1.,-2.2E-16,1.1E-16));
#38 = ORIENTED_EDGE('',*,*,#39,.T.);
#39 = EDGE_CURVE('',#32,#40,#42,.T.);
#40 = VERTEX_POINT('',#41);
#41 = CARTESIAN_POINT('',(2.5,-2.7,41.9));
#42 = LINE('',#43,#44);
#43 = CARTESIAN_POINT('',(2.5,4.3,41.9));
#44 = VECTOR('',#45,1.);
#45 = DIRECTION('',(2.2E-16,-1.,3.3E-16));
#46 = ORIENTED_EDGE('',*,*,#47,.F.);
#47 = EDGE_CURVE('',#24,#40,#48,.T.);
#48 = LINE('',#49,#50);
#49 = CARTESIAN_POINT('',(-1.373E-14,-2.7,41.9));
#50 = VECTOR('',#51,1.);
#51 = DIRECTION('',(1.,-2.2E-16,1.1E-16));
#52 = PLANE('',#53);
#53 = AXIS2_PLACEMENT_3D('',#54,#55,#56);
#54 = CARTESIAN_POINT('',(-1.396E-14,4.3,41.9));
#55 = DIRECTION('',(1.1E-16,-3.3E-16,-1.));
#56 = DIRECTION('',(0.,-1.,3.3E-16));
#57 = ADVANCED_FACE('',(#58,#101),#112,.F.);
#58 = FACE_BOUND('',#59,.F.);
#59 = EDGE_LOOP('',(#60,#61,#70,#78,#86,#94));
#60 = ORIENTED_EDGE('',*,*,#21,.T.);
#61 = ORIENTED_EDGE('',*,*,#62,.T.);
#62 = EDGE_CURVE('',#24,#63,#65,.T.);
#63 = VERTEX_POINT('',#64);
#64 = CARTESIAN_POINT('',(-1.4E-14,-3.7,40.9));
#65 = CIRCLE('',#66,1.);
#66 = AXIS2_PLACEMENT_3D('',#67,#68,#69);
#67 = CARTESIAN_POINT('',(-1.335E-14,-2.7,40.9));
#68 = DIRECTION('',(1.,-2.2E-16,1.1E-16));
#69 = DIRECTION('',(-2.2E-16,-1.,1.1E-16));
#70 = ORIENTED_EDGE('',*,*,#71,.T.);
#71 = EDGE_CURVE('',#63,#72,#74,.T.);
#72 = VERTEX_POINT('',#73);
#73 = CARTESIAN_POINT('',(-1.1E-14,-3.7,30.9));
#74 = LINE('',#75,#76);
#75 = CARTESIAN_POINT('',(-1.313E-14,-3.7,41.9));
#76 = VECTOR('',#77,1.);
#77 = DIRECTION('',(3.3E-16,1.1E-16,-1.));
#78 = ORIENTED_EDGE('',*,*,#79,.T.);
#79 = EDGE_CURVE('',#72,#80,#82,.T.);
#80 = VERTEX_POINT('',#81);
#81 = CARTESIAN_POINT('',(-1.E-14,4.3,30.9));
#82 = LINE('',#83,#84);
#83 = CARTESIAN_POINT('',(-9.47E-15,-3.7,30.9));
#84 = VECTOR('',#85,1.);
#85 = DIRECTION('',(-2.2E-16,1.,-3.3E-16));
#86 = ORIENTED_EDGE('',*,*,#87,.T.);
#87 = EDGE_CURVE('',#80,#88,#90,.T.);
#88 = VERTEX_POINT('',#89);
#89 = CARTESIAN_POINT('',(-1.3E-14,4.3,40.9));
#90 = LINE('',#91,#92);
#91 = CARTESIAN_POINT('',(-1.125E-14,4.3,30.9));
#92 = VECTOR('',#93,1.);
#93 = DIRECTION('',(-3.3E-16,-1.1E-16,1.));
#94 = ORIENTED_EDGE('',*,*,#95,.F.);
#95 = EDGE_CURVE('',#22,#88,#96,.T.);
#96 = CIRCLE('',#97,1.);
#97 = AXIS2_PLACEMENT_3D('',#98,#99,#100);
#98 = CARTESIAN_POINT('',(-1.202E-14,3.3,40.9));
#99 = DIRECTION('',(-1.,2.2E-16,-1.1E-16));
#100 = DIRECTION('',(-2.2E-16,-1.,1.1E-16));
#101 = FACE_BOUND('',#102,.T.);
#102 = EDGE_LOOP('',(#103));
#103 = ORIENTED_EDGE('',*,*,#104,.T.);
#104 = EDGE_CURVE('',#105,#105,#107,.T.);
#105 = VERTEX_POINT('',#106);
#106 = CARTESIAN_POINT('',(-1.2E-14,2.05,37.9));
#107 = CIRCLE('',#108,1.75);
#108 = AXIS2_PLACEMENT_3D('',#109,#110,#111);
#109 = CARTESIAN_POINT('',(-1.269E-14,0.3,37.9));
#110 = DIRECTION('',(1.,2.2E-16,3.3E-16));
#111 = DIRECTION('',(-2.2E-16,1.,-3.3E-16));
#112 = PLANE('',#113);
#113 = AXIS2_PLACEMENT_3D('',#114,#115,#116);
#114 = CARTESIAN_POINT('',(-1.229E-14,0.3,36.689635887546));
#115 = DIRECTION('',(1.,-2.2E-16,-1.1E-16));
#116 = DIRECTION('',(1.1E-16,-1.1E-16,1.));
#117 = ADVANCED_FACE('',(#118),#137,.T.);
#118 = FACE_BOUND('',#119,.F.);
#119 = EDGE_LOOP('',(#120,#121,#129,#136));
#120 = ORIENTED_EDGE('',*,*,#95,.T.);
#121 = ORIENTED_EDGE('',*,*,#122,.T.);
#122 = EDGE_CURVE('',#88,#123,#125,.T.);
#123 = VERTEX_POINT('',#124);
#124 = CARTESIAN_POINT('',(2.5,4.3,40.9));
#125 = LINE('',#126,#127);
#126 = CARTESIAN_POINT('',(-1.384E-14,4.3,40.9));
#127 = VECTOR('',#128,1.);
#128 = DIRECTION('',(1.,-2.2E-16,1.1E-16));
#129 = ORIENTED_EDGE('',*,*,#130,.F.);
#130 = EDGE_CURVE('',#32,#123,#131,.T.);
#131 = CIRCLE('',#132,1.);
#132 = AXIS2_PLACEMENT_3D('',#133,#134,#135);
#133 = CARTESIAN_POINT('',(2.5,3.3,40.9));
#134 = DIRECTION('',(-1.,2.2E-16,-1.1E-16));
#135 = DIRECTION('',(-2.2E-16,-1.,1.1E-16));
#136 = ORIENTED_EDGE('',*,*,#31,.F.);
#137 = CYLINDRICAL_SURFACE('',#138,1.);
#138 = AXIS2_PLACEMENT_3D('',#139,#140,#141);
#139 = CARTESIAN_POINT('',(-1.407E-14,3.3,40.9));
#140 = DIRECTION('',(1.,-2.2E-16,1.1E-16));
#141 = DIRECTION('',(-1.1E-16,3.3E-16,1.));
#142 = ADVANCED_FACE('',(#143),#162,.T.);
#143 = FACE_BOUND('',#144,.T.);
#144 = EDGE_LOOP('',(#145,#146,#154,#161));
#145 = ORIENTED_EDGE('',*,*,#62,.T.);
#146 = ORIENTED_EDGE('',*,*,#147,.T.);
#147 = EDGE_CURVE('',#63,#148,#150,.T.);
#148 = VERTEX_POINT('',#149);
#149 = CARTESIAN_POINT('',(2.5,-3.7,40.9));
#150 = LINE('',#151,#152);
#151 = CARTESIAN_POINT('',(-1.384E-14,-3.7,40.9));
#152 = VECTOR('',#153,1.);
#153 = DIRECTION('',(1.,-2.2E-16,1.1E-16));
#154 = ORIENTED_EDGE('',*,*,#155,.F.);
#155 = EDGE_CURVE('',#40,#148,#156,.T.);
#156 = CIRCLE('',#157,1.);
#157 = AXIS2_PLACEMENT_3D('',#158,#159,#160);
#158 = CARTESIAN_POINT('',(2.5,-2.7,40.9));
#159 = DIRECTION('',(1.,-2.2E-16,1.1E-16));
#160 = DIRECTION('',(-2.2E-16,-1.,1.1E-16));
#161 = ORIENTED_EDGE('',*,*,#47,.F.);
#162 = CYLINDRICAL_SURFACE('',#163,1.);
#163 = AXIS2_PLACEMENT_3D('',#164,#165,#166);
#164 = CARTESIAN_POINT('',(-1.362E-14,-2.7,40.9));
#165 = DIRECTION('',(1.,-2.2E-16,1.1E-16));
#166 = DIRECTION('',(-1.1E-16,3.3E-16,1.));
#167 = ADVANCED_FACE('',(#168,#195),#206,.T.);
#168 = FACE_BOUND('',#169,.T.);
#169 = EDGE_LOOP('',(#170,#171,#172,#180,#188,#194));
#170 = ORIENTED_EDGE('',*,*,#39,.T.);
#171 = ORIENTED_EDGE('',*,*,#155,.T.);
#172 = ORIENTED_EDGE('',*,*,#173,.T.);
#173 = EDGE_CURVE('',#148,#174,#176,.T.);
#174 = VERTEX_POINT('',#175);
#175 = CARTESIAN_POINT('',(2.5,-3.7,30.9));
#176 = LINE('',#177,#178);
#177 = CARTESIAN_POINT('',(2.5,-3.7,41.9));
#178 = VECTOR('',#179,1.);
#179 = DIRECTION('',(3.3E-16,1.1E-16,-1.));
#180 = ORIENTED_EDGE('',*,*,#181,.T.);
#181 = EDGE_CURVE('',#174,#182,#184,.T.);
#182 = VERTEX_POINT('',#183);
#183 = CARTESIAN_POINT('',(2.5,4.3,30.9));
#184 = LINE('',#185,#186);
#185 = CARTESIAN_POINT('',(2.5,-3.7,30.9));
#186 = VECTOR('',#187,1.);
#187 = DIRECTION('',(-2.2E-16,1.,-3.3E-16));
#188 = ORIENTED_EDGE('',*,*,#189,.T.);
#189 = EDGE_CURVE('',#182,#123,#190,.T.);
#190 = LINE('',#191,#192);
#191 = CARTESIAN_POINT('',(2.5,4.3,30.9));
#192 = VECTOR('',#193,1.);
#193 = DIRECTION('',(-3.3E-16,-1.1E-16,1.));
#194 = ORIENTED_EDGE('',*,*,#130,.F.);
#195 = FACE_BOUND('',#196,.F.);
#196 = EDGE_LOOP('',(#197));
#197 = ORIENTED_EDGE('',*,*,#198,.T.);
#198 = EDGE_CURVE('',#199,#199,#201,.T.);
#199 = VERTEX_POINT('',#200);
#200 = CARTESIAN_POINT('',(2.5,2.05,37.9));
#201 = CIRCLE('',#202,1.75);
#202 = AXIS2_PLACEMENT_3D('',#203,#204,#205);
#203 = CARTESIAN_POINT('',(2.5,0.3,37.9));
#204 = DIRECTION('',(1.,2.2E-16,3.3E-16));
#205 = DIRECTION('',(-2.2E-16,1.,-3.3E-16));
#206 = PLANE('',#207);
#207 = AXIS2_PLACEMENT_3D('',#208,#209,#210);
#208 = CARTESIAN_POINT('',(2.5,0.3,36.689635887546));
#209 = DIRECTION('',(1.,-2.2E-16,-1.1E-16));
#210 = DIRECTION('',(1.1E-16,-1.1E-16,1.));
#211 = ADVANCED_FACE('',(#212),#223,.F.);
#212 = FACE_BOUND('',#213,.F.);
#213 = EDGE_LOOP('',(#214,#215,#221,#222));
#214 = ORIENTED_EDGE('',*,*,#87,.F.);
#215 = ORIENTED_EDGE('',*,*,#216,.T.);
#216 = EDGE_CURVE('',#80,#182,#217,.T.);
#217 = LINE('',#218,#219);
#218 = CARTESIAN_POINT('',(-1.029E-14,4.3,30.9));
#219 = VECTOR('',#220,1.);
#220 = DIRECTION('',(1.,-2.2E-16,1.1E-16));
#221 = ORIENTED_EDGE('',*,*,#189,.T.);
#222 = ORIENTED_EDGE('',*,*,#122,.F.);
#223 = PLANE('',#224);
#224 = AXIS2_PLACEMENT_3D('',#225,#226,#227);
#225 = CARTESIAN_POINT('',(-1.029E-14,4.3,30.9));
#226 = DIRECTION('',(-2.2E-16,-1.,1.1E-16));
#227 = DIRECTION('',(-3.3E-16,1.1E-16,1.));
#228 = ADVANCED_FACE('',(#229),#240,.F.);
#229 = FACE_BOUND('',#230,.F.);
#230 = EDGE_LOOP('',(#231,#232,#233,#234));
#231 = ORIENTED_EDGE('',*,*,#71,.F.);
#232 = ORIENTED_EDGE('',*,*,#147,.T.);
#233 = ORIENTED_EDGE('',*,*,#173,.T.);
#234 = ORIENTED_EDGE('',*,*,#235,.F.);
#235 = EDGE_CURVE('',#72,#174,#236,.T.);
#236 = LINE('',#237,#238);
#237 = CARTESIAN_POINT('',(-1.029E-14,-3.7,30.9));
#238 = VECTOR('',#239,1.);
#239 = DIRECTION('',(1.,-2.2E-16,1.1E-16));
#240 = PLANE('',#241);
#241 = AXIS2_PLACEMENT_3D('',#242,#243,#244);
#242 = CARTESIAN_POINT('',(-1.396E-14,-3.7,41.9));
#243 = DIRECTION('',(2.2E-16,1.,-1.1E-16));
#244 = DIRECTION('',(3.3E-16,-1.1E-16,-1.));
#245 = ADVANCED_FACE('',(#246),#252,.F.);
#246 = FACE_BOUND('',#247,.F.);
#247 = EDGE_LOOP('',(#248,#249,#250,#251));
#248 = ORIENTED_EDGE('',*,*,#235,.T.);
#249 = ORIENTED_EDGE('',*,*,#181,.T.);
#250 = ORIENTED_EDGE('',*,*,#216,.F.);
#251 = ORIENTED_EDGE('',*,*,#79,.F.);
#252 = PLANE('',#253);
#253 = AXIS2_PLACEMENT_3D('',#254,#255,#256);
#254 = CARTESIAN_POINT('',(-1.029E-14,-3.7,30.9));
#255 = DIRECTION('',(-1.1E-16,3.3E-16,1.));
#256 = DIRECTION('',(0.,1.,-3.3E-16));
#257 = ADVANCED_FACE('',(#258),#269,.F.);
#258 = FACE_BOUND('',#259,.T.);
#259 = EDGE_LOOP('',(#260,#266,#267,#268));
#260 = ORIENTED_EDGE('',*,*,#261,.T.);
#261 = EDGE_CURVE('',#105,#199,#262,.T.);
#262 = LINE('',#263,#264);
#263 = CARTESIAN_POINT('',(-1.262E-14,2.05,37.9));
#264 = VECTOR('',#265,1.);
#265 = DIRECTION('',(1.,-2.2E-16,1.1E-16));
#266 = ORIENTED_EDGE('',*,*,#198,.T.);
#267 = ORIENTED_EDGE('',*,*,#261,.F.);
#268 = ORIENTED_EDGE('',*,*,#104,.F.);
#269 = CYLINDRICAL_SURFACE('',#270,1.75);
#270 = AXIS2_PLACEMENT_3D('',#271,#272,#273);
#271 = CARTESIAN_POINT('',(-1.262E-14,0.3,37.9));
#272 = DIRECTION('',(-1.,-0.,-3.3E-16));
#273 = DIRECTION('',(1.089E-31,1.,-3.3E-16));
#274 = ( GEOMETRIC_REPRESENTATION_CONTEXT(3) 
GLOBAL_UNCERTAINTY_ASSIGNED_CONTEXT((#278)) GLOBAL_UNIT_ASSIGNED_CONTEXT
((#275,#276,#277)) REPRESENTATION_CONTEXT('Context #1',
  '3D Context with UNIT and UNCERTAINTY') );
#275 = ( LENGTH_UNIT() NAMED_UNIT(*) SI_UNIT(.MILLI.,.METRE.) );
#276 = ( NAMED_UNIT(*) PLANE_ANGLE_UNIT() SI_UNIT($,.RADIAN.) );
#277 = ( NAMED_UNIT(*) SI_UNIT($,.STERADIAN.) SOLID_ANGLE_UNIT() );
#278 = UNCERTAINTY_MEASURE_WITH_UNIT(LENGTH_MEASURE(1.E-07),#275,
  'distance_accuracy_value','confusion accuracy');
#279 = PRODUCT_RELATED_PRODUCT_CATEGORY('part',$,(#7));
#280 = MECHANICAL_DESIGN_GEOMETRIC_PRESENTATION_REPRESENTATION('',(#281)
  ,#274);
#281 = STYLED_ITEM('color',(#282),#15);
#282 = PRESENTATION_STYLE_ASSIGNMENT((#283,#289));
#283 = SURFACE_STYLE_USAGE(.BOTH.,#284);
#284 = SURFACE_SIDE_STYLE('',(#285));
#285 = SURFACE_STYLE_FILL_AREA(#286);
#286 = FILL_AREA_STYLE('',(#287));
#287 = FILL_AREA_STYLE_COLOUR('',#288);
#288 = COLOUR_RGB('',0.447058818107,0.474509808674,0.501960817233);
#289 = CURVE_STYLE('',#290,POSITIVE_LENGTH_MEASURE(0.1),#291);
#290 = DRAUGHTING_PRE_DEFINED_CURVE_FONT('continuous');
#291 = COLOUR_RGB('',9.803921802644E-02,9.803921802644E-02,
  9.803921802644E-02);
ENDSEC;
END-ISO-10303-21;
