ISO-10303-21;
HEADER;
FILE_DESCRIPTION(('FreeCAD Model'),'2;1');
FILE_NAME('Open CASCADE Shape Model','2026-04-27T10:45:45',(''),(''),
  'Open CASCADE STEP processor 7.8','FreeCAD','Unknown');
FILE_SCHEMA(('AUTOMOTIVE_DESIGN { 1 0 10303 214 1 1 1 1 }'));
ENDSEC;
DATA;
#1 = APPLICATION_PROTOCOL_DEFINITION('international standard',
  'automotive_design',2000,#2);
#2 = APPLICATION_CONTEXT(
  'core data for automotive mechanical design processes');
#3 = SHAPE_DEFINITION_REPRESENTATION(#4,#10);
#4 = PRODUCT_DEFINITION_SHAPE('','',#5);
#5 = PRODUCT_DEFINITION('design','',#6,#9);
#6 = PRODUCT_DEFINITION_FORMATION('','',#7);
#7 = PRODUCT('boardMountHelper','boardMountHelper','',(#8));
#8 = PRODUCT_CONTEXT('',#2,'mechanical');
#9 = PRODUCT_DEFINITION_CONTEXT('part definition',#2,'design');
#10 = ADVANCED_BREP_SHAPE_REPRESENTATION('',(#11,#15),#623);
#11 = AXIS2_PLACEMENT_3D('',#12,#13,#14);
#12 = CARTESIAN_POINT('',(0.,0.,0.));
#13 = DIRECTION('',(0.,0.,1.));
#14 = DIRECTION('',(1.,0.,-0.));
#15 = MANIFOLD_SOLID_BREP('',#16);
#16 = CLOSED_SHELL('',(#17,#59,#90,#121,#185,#249,#280,#297,#314,#331,
    #403,#420,#437,#509,#526,#543,#560,#577,#589,#606));
#17 = ADVANCED_FACE('',(#18),#54,.T.);
#18 = FACE_BOUND('',#19,.F.);
#19 = EDGE_LOOP('',(#20,#30,#39,#47));
#20 = ORIENTED_EDGE('',*,*,#21,.T.);
#21 = EDGE_CURVE('',#22,#24,#26,.T.);
#22 = VERTEX_POINT('',#23);
#23 = CARTESIAN_POINT('',(-9.E-15,-20.14895757739,19.739794732785));
#24 = VERTEX_POINT('',#25);
#25 = CARTESIAN_POINT('',(2.,-20.14895757739,19.739794732785));
#26 = LINE('',#27,#28);
#27 = CARTESIAN_POINT('',(-6.57E-15,-20.14895757739,19.739794732785));
#28 = VECTOR('',#29,1.);
#29 = DIRECTION('',(1.,-2.2E-16,1.1E-16));
#30 = ORIENTED_EDGE('',*,*,#31,.T.);
#31 = EDGE_CURVE('',#24,#32,#34,.T.);
#32 = VERTEX_POINT('',#33);
#33 = CARTESIAN_POINT('',(2.,-22.16229141803,17.515724849408));
#34 = CIRCLE('',#35,3.5);
#35 = AXIS2_PLACEMENT_3D('',#36,#37,#38);
#36 = CARTESIAN_POINT('',(2.,-23.5,20.75));
#37 = DIRECTION('',(1.,2.2E-16,3.3E-16));
#38 = DIRECTION('',(-2.2E-16,1.,-3.3E-16));
#39 = ORIENTED_EDGE('',*,*,#40,.F.);
#40 = EDGE_CURVE('',#41,#32,#43,.T.);
#41 = VERTEX_POINT('',#42);
#42 = CARTESIAN_POINT('',(-8.E-15,-22.16229141803,17.515724849408));
#43 = LINE('',#44,#45);
#44 = CARTESIAN_POINT('',(-5.83E-15,-22.16229141803,17.515724849408));
#45 = VECTOR('',#46,1.);
#46 = DIRECTION('',(1.,-2.2E-16,1.1E-16));
#47 = ORIENTED_EDGE('',*,*,#48,.F.);
#48 = EDGE_CURVE('',#22,#41,#49,.T.);
#49 = CIRCLE('',#50,3.5);
#50 = AXIS2_PLACEMENT_3D('',#51,#52,#53);
#51 = CARTESIAN_POINT('',(-1.69E-15,-23.5,20.75));
#52 = DIRECTION('',(1.,2.2E-16,3.3E-16));
#53 = DIRECTION('',(-2.2E-16,1.,-3.3E-16));
#54 = CYLINDRICAL_SURFACE('',#55,3.5);
#55 = AXIS2_PLACEMENT_3D('',#56,#57,#58);
#56 = CARTESIAN_POINT('',(-6.91E-15,-23.5,20.75));
#57 = DIRECTION('',(-1.,-0.,-3.3E-16));
#58 = DIRECTION('',(1.089E-31,1.,-3.3E-16));
#59 = ADVANCED_FACE('',(#60),#85,.T.);
#60 = FACE_BOUND('',#61,.T.);
#61 = EDGE_LOOP('',(#62,#63,#71,#79));
#62 = ORIENTED_EDGE('',*,*,#21,.T.);
#63 = ORIENTED_EDGE('',*,*,#64,.T.);
#64 = EDGE_CURVE('',#24,#65,#67,.T.);
#65 = VERTEX_POINT('',#66);
#66 = CARTESIAN_POINT('',(2.,0.,1.5));
#67 = LINE('',#68,#69);
#68 = CARTESIAN_POINT('',(2.,-20.14895757739,19.739794732785));
#69 = VECTOR('',#70,1.);
#70 = DIRECTION('',(6.E-17,0.741356627792,-0.671111280213));
#71 = ORIENTED_EDGE('',*,*,#72,.F.);
#72 = EDGE_CURVE('',#73,#65,#75,.T.);
#73 = VERTEX_POINT('',#74);
#74 = CARTESIAN_POINT('',(0.,1.E-15,1.5));
#75 = LINE('',#76,#77);
#76 = CARTESIAN_POINT('',(-5.E-16,1.7E-16,1.5));
#77 = VECTOR('',#78,1.);
#78 = DIRECTION('',(1.,-2.2E-16,1.1E-16));
#79 = ORIENTED_EDGE('',*,*,#80,.F.);
#80 = EDGE_CURVE('',#22,#73,#81,.T.);
#81 = LINE('',#82,#83);
#82 = CARTESIAN_POINT('',(-2.1E-15,-20.14895757739,19.739794732785));
#83 = VECTOR('',#84,1.);
#84 = DIRECTION('',(6.E-17,0.741356627792,-0.671111280213));
#85 = PLANE('',#86);
#86 = AXIS2_PLACEMENT_3D('',#87,#88,#89);
#87 = CARTESIAN_POINT('',(-6.57E-15,-20.14895757739,19.739794732785));
#88 = DIRECTION('',(7.E-17,0.671111280213,0.741356627792));
#89 = DIRECTION('',(2.2E-16,0.741356627792,-0.671111280213));
#90 = ADVANCED_FACE('',(#91),#116,.F.);
#91 = FACE_BOUND('',#92,.F.);
#92 = EDGE_LOOP('',(#93,#94,#102,#110));
#93 = ORIENTED_EDGE('',*,*,#40,.T.);
#94 = ORIENTED_EDGE('',*,*,#95,.T.);
#95 = EDGE_CURVE('',#32,#96,#98,.T.);
#96 = VERTEX_POINT('',#97);
#97 = CARTESIAN_POINT('',(2.,-2.813192258836,1.E-15));
#98 = LINE('',#99,#100);
#99 = CARTESIAN_POINT('',(2.,-22.16229141803,17.515724849408));
#100 = VECTOR('',#101,1.);
#101 = DIRECTION('',(6.E-17,0.741356627792,-0.671111280213));
#102 = ORIENTED_EDGE('',*,*,#103,.F.);
#103 = EDGE_CURVE('',#104,#96,#106,.T.);
#104 = VERTEX_POINT('',#105);
#105 = CARTESIAN_POINT('',(0.,-2.813192258836,1.E-15));
#106 = LINE('',#107,#108);
#107 = CARTESIAN_POINT('',(0.,-2.813192258836,9.4E-16));
#108 = VECTOR('',#109,1.);
#109 = DIRECTION('',(1.,-2.2E-16,1.1E-16));
#110 = ORIENTED_EDGE('',*,*,#111,.F.);
#111 = EDGE_CURVE('',#41,#104,#112,.T.);
#112 = LINE('',#113,#114);
#113 = CARTESIAN_POINT('',(-9.1E-16,-22.16229141803,17.515724849408));
#114 = VECTOR('',#115,1.);
#115 = DIRECTION('',(6.E-17,0.741356627792,-0.671111280213));
#116 = PLANE('',#117);
#117 = AXIS2_PLACEMENT_3D('',#118,#119,#120);
#118 = CARTESIAN_POINT('',(-5.83E-15,-22.16229141803,17.515724849408));
#119 = DIRECTION('',(7.E-17,0.671111280213,0.741356627792));
#120 = DIRECTION('',(2.2E-16,0.741356627792,-0.671111280213));
#121 = ADVANCED_FACE('',(#122,#158,#169),#180,.F.);
#122 = FACE_BOUND('',#123,.F.);
#123 = EDGE_LOOP('',(#124,#125,#126,#134,#143,#151,#157));
#124 = ORIENTED_EDGE('',*,*,#48,.T.);
#125 = ORIENTED_EDGE('',*,*,#111,.T.);
#126 = ORIENTED_EDGE('',*,*,#127,.F.);
#127 = EDGE_CURVE('',#128,#104,#130,.T.);
#128 = VERTEX_POINT('',#129);
#129 = CARTESIAN_POINT('',(3.E-15,-22.16229141803,-17.5157248494));
#130 = LINE('',#131,#132);
#131 = CARTESIAN_POINT('',(1.075E-14,-22.16229141803,-17.5157248494));
#132 = VECTOR('',#133,1.);
#133 = DIRECTION('',(-3.9E-16,0.741356627792,0.671111280213));
#134 = ORIENTED_EDGE('',*,*,#135,.T.);
#135 = EDGE_CURVE('',#128,#136,#138,.T.);
#136 = VERTEX_POINT('',#137);
#137 = CARTESIAN_POINT('',(4.E-15,-20.14895757739,-19.73979473278));
#138 = CIRCLE('',#139,3.5);
#139 = AXIS2_PLACEMENT_3D('',#140,#141,#142);
#140 = CARTESIAN_POINT('',(1.213E-14,-23.5,-20.75));
#141 = DIRECTION('',(1.,2.2E-16,3.3E-16));
#142 = DIRECTION('',(-2.2E-16,1.,-3.3E-16));
#143 = ORIENTED_EDGE('',*,*,#144,.T.);
#144 = EDGE_CURVE('',#136,#145,#147,.T.);
#145 = VERTEX_POINT('',#146);
#146 = CARTESIAN_POINT('',(0.,-1.E-15,-1.5));
#147 = LINE('',#148,#149);
#148 = CARTESIAN_POINT('',(1.105E-14,-20.14895757739,-19.73979473278));
#149 = VECTOR('',#150,1.);
#150 = DIRECTION('',(-3.9E-16,0.741356627792,0.671111280213));
#151 = ORIENTED_EDGE('',*,*,#152,.T.);
#152 = EDGE_CURVE('',#145,#73,#153,.T.);
#153 = LINE('',#154,#155);
#154 = CARTESIAN_POINT('',(5.E-16,1.7E-16,-1.5));
#155 = VECTOR('',#156,1.);
#156 = DIRECTION('',(-3.3E-16,-1.1E-16,1.));
#157 = ORIENTED_EDGE('',*,*,#80,.F.);
#158 = FACE_BOUND('',#159,.T.);
#159 = EDGE_LOOP('',(#160));
#160 = ORIENTED_EDGE('',*,*,#161,.T.);
#161 = EDGE_CURVE('',#162,#162,#164,.T.);
#162 = VERTEX_POINT('',#163);
#163 = CARTESIAN_POINT('',(5.E-15,-21.5,-20.75));
#164 = CIRCLE('',#165,2.);
#165 = AXIS2_PLACEMENT_3D('',#166,#167,#168);
#166 = CARTESIAN_POINT('',(1.213E-14,-23.5,-20.75));
#167 = DIRECTION('',(1.,2.2E-16,3.3E-16));
#168 = DIRECTION('',(-2.2E-16,1.,-3.3E-16));
#169 = FACE_BOUND('',#170,.T.);
#170 = EDGE_LOOP('',(#171));
#171 = ORIENTED_EDGE('',*,*,#172,.T.);
#172 = EDGE_CURVE('',#173,#173,#175,.T.);
#173 = VERTEX_POINT('',#174);
#174 = CARTESIAN_POINT('',(-9.E-15,-21.5,20.75));
#175 = CIRCLE('',#176,2.);
#176 = AXIS2_PLACEMENT_3D('',#177,#178,#179);
#177 = CARTESIAN_POINT('',(-1.69E-15,-23.5,20.75));
#178 = DIRECTION('',(1.,2.2E-16,3.3E-16));
#179 = DIRECTION('',(-2.2E-16,1.,-3.3E-16));
#180 = PLANE('',#181);
#181 = AXIS2_PLACEMENT_3D('',#182,#183,#184);
#182 = CARTESIAN_POINT('',(3.36E-15,-15.13495107992,3.91E-15));
#183 = DIRECTION('',(1.,-2.2E-16,-1.1E-16));
#184 = DIRECTION('',(1.1E-16,-1.1E-16,1.));
#185 = ADVANCED_FACE('',(#186,#222,#233),#244,.T.);
#186 = FACE_BOUND('',#187,.T.);
#187 = EDGE_LOOP('',(#188,#189,#190,#198,#207,#215,#221));
#188 = ORIENTED_EDGE('',*,*,#31,.T.);
#189 = ORIENTED_EDGE('',*,*,#95,.T.);
#190 = ORIENTED_EDGE('',*,*,#191,.F.);
#191 = EDGE_CURVE('',#192,#96,#194,.T.);
#192 = VERTEX_POINT('',#193);
#193 = CARTESIAN_POINT('',(2.,-22.16229141803,-17.5157248494));
#194 = LINE('',#195,#196);
#195 = CARTESIAN_POINT('',(2.,-22.16229141803,-17.5157248494));
#196 = VECTOR('',#197,1.);
#197 = DIRECTION('',(-3.9E-16,0.741356627792,0.671111280213));
#198 = ORIENTED_EDGE('',*,*,#199,.T.);
#199 = EDGE_CURVE('',#192,#200,#202,.T.);
#200 = VERTEX_POINT('',#201);
#201 = CARTESIAN_POINT('',(2.,-20.14895757739,-19.73979473278));
#202 = CIRCLE('',#203,3.5);
#203 = AXIS2_PLACEMENT_3D('',#204,#205,#206);
#204 = CARTESIAN_POINT('',(2.,-23.5,-20.75));
#205 = DIRECTION('',(1.,2.2E-16,3.3E-16));
#206 = DIRECTION('',(-2.2E-16,1.,-3.3E-16));
#207 = ORIENTED_EDGE('',*,*,#208,.T.);
#208 = EDGE_CURVE('',#200,#209,#211,.T.);
#209 = VERTEX_POINT('',#210);
#210 = CARTESIAN_POINT('',(2.,-1.E-15,-1.5));
#211 = LINE('',#212,#213);
#212 = CARTESIAN_POINT('',(2.,-20.14895757739,-19.73979473278));
#213 = VECTOR('',#214,1.);
#214 = DIRECTION('',(-3.9E-16,0.741356627792,0.671111280213));
#215 = ORIENTED_EDGE('',*,*,#216,.T.);
#216 = EDGE_CURVE('',#209,#65,#217,.T.);
#217 = LINE('',#218,#219);
#218 = CARTESIAN_POINT('',(2.,1.7E-16,-1.5));
#219 = VECTOR('',#220,1.);
#220 = DIRECTION('',(-3.3E-16,-1.1E-16,1.));
#221 = ORIENTED_EDGE('',*,*,#64,.F.);
#222 = FACE_BOUND('',#223,.F.);
#223 = EDGE_LOOP('',(#224));
#224 = ORIENTED_EDGE('',*,*,#225,.T.);
#225 = EDGE_CURVE('',#226,#226,#228,.T.);
#226 = VERTEX_POINT('',#227);
#227 = CARTESIAN_POINT('',(2.,-21.5,-20.75));
#228 = CIRCLE('',#229,2.);
#229 = AXIS2_PLACEMENT_3D('',#230,#231,#232);
#230 = CARTESIAN_POINT('',(2.,-23.5,-20.75));
#231 = DIRECTION('',(1.,2.2E-16,3.3E-16));
#232 = DIRECTION('',(-2.2E-16,1.,-3.3E-16));
#233 = FACE_BOUND('',#234,.F.);
#234 = EDGE_LOOP('',(#235));
#235 = ORIENTED_EDGE('',*,*,#236,.T.);
#236 = EDGE_CURVE('',#237,#237,#239,.T.);
#237 = VERTEX_POINT('',#238);
#238 = CARTESIAN_POINT('',(2.,-21.5,20.75));
#239 = CIRCLE('',#240,2.);
#240 = AXIS2_PLACEMENT_3D('',#241,#242,#243);
#241 = CARTESIAN_POINT('',(2.,-23.5,20.75));
#242 = DIRECTION('',(1.,2.2E-16,3.3E-16));
#243 = DIRECTION('',(-2.2E-16,1.,-3.3E-16));
#244 = PLANE('',#245);
#245 = AXIS2_PLACEMENT_3D('',#246,#247,#248);
#246 = CARTESIAN_POINT('',(2.,-15.13495107992,3.552713678801E-15));
#247 = DIRECTION('',(1.,-2.2E-16,-1.1E-16));
#248 = DIRECTION('',(1.1E-16,-1.1E-16,1.));
#249 = ADVANCED_FACE('',(#250),#275,.T.);
#250 = FACE_BOUND('',#251,.F.);
#251 = EDGE_LOOP('',(#252,#262,#268,#269));
#252 = ORIENTED_EDGE('',*,*,#253,.T.);
#253 = EDGE_CURVE('',#254,#256,#258,.T.);
#254 = VERTEX_POINT('',#255);
#255 = CARTESIAN_POINT('',(5.E-15,20.148957577396,19.739794732785));
#256 = VERTEX_POINT('',#257);
#257 = CARTESIAN_POINT('',(2.,20.148957577396,19.739794732785));
#258 = LINE('',#259,#260);
#259 = CARTESIAN_POINT('',(-1.31E-14,20.148957577396,19.739794732785));
#260 = VECTOR('',#261,1.);
#261 = DIRECTION('',(1.,-3.3E-16,-3.3E-16));
#262 = ORIENTED_EDGE('',*,*,#263,.T.);
#263 = EDGE_CURVE('',#256,#65,#264,.T.);
#264 = LINE('',#265,#266);
#265 = CARTESIAN_POINT('',(2.,20.148957577396,19.739794732785));
#266 = VECTOR('',#267,1.);
#267 = DIRECTION('',(9.2E-16,-0.741356627792,-0.671111280213));
#268 = ORIENTED_EDGE('',*,*,#72,.F.);
#269 = ORIENTED_EDGE('',*,*,#270,.F.);
#270 = EDGE_CURVE('',#254,#73,#271,.T.);
#271 = LINE('',#272,#273);
#272 = CARTESIAN_POINT('',(-2.643E-14,20.148957577396,19.739794732785));
#273 = VECTOR('',#274,1.);
#274 = DIRECTION('',(9.2E-16,-0.741356627792,-0.671111280213));
#275 = PLANE('',#276);
#276 = AXIS2_PLACEMENT_3D('',#277,#278,#279);
#277 = CARTESIAN_POINT('',(-1.31E-14,20.148957577396,19.739794732785));
#278 = DIRECTION('',(-3.4E-16,-0.671111280213,0.741356627792));
#279 = DIRECTION('',(-4.4E-16,0.741356627792,0.671111280213));
#280 = ADVANCED_FACE('',(#281),#292,.T.);
#281 = FACE_BOUND('',#282,.T.);
#282 = EDGE_LOOP('',(#283,#289,#290,#291));
#283 = ORIENTED_EDGE('',*,*,#284,.T.);
#284 = EDGE_CURVE('',#128,#192,#285,.T.);
#285 = LINE('',#286,#287);
#286 = CARTESIAN_POINT('',(5.83E-15,-22.16229141803,-17.5157248494));
#287 = VECTOR('',#288,1.);
#288 = DIRECTION('',(1.,-2.2E-16,1.1E-16));
#289 = ORIENTED_EDGE('',*,*,#191,.T.);
#290 = ORIENTED_EDGE('',*,*,#103,.F.);
#291 = ORIENTED_EDGE('',*,*,#127,.F.);
#292 = PLANE('',#293);
#293 = AXIS2_PLACEMENT_3D('',#294,#295,#296);
#294 = CARTESIAN_POINT('',(5.83E-15,-22.16229141803,-17.5157248494));
#295 = DIRECTION('',(-2.3E-16,-0.671111280213,0.741356627792));
#296 = DIRECTION('',(-2.2E-16,0.741356627792,0.671111280213));
#297 = ADVANCED_FACE('',(#298),#309,.T.);
#298 = FACE_BOUND('',#299,.F.);
#299 = EDGE_LOOP('',(#300,#301,#302,#308));
#300 = ORIENTED_EDGE('',*,*,#284,.T.);
#301 = ORIENTED_EDGE('',*,*,#199,.T.);
#302 = ORIENTED_EDGE('',*,*,#303,.F.);
#303 = EDGE_CURVE('',#136,#200,#304,.T.);
#304 = LINE('',#305,#306);
#305 = CARTESIAN_POINT('',(6.57E-15,-20.14895757739,-19.73979473278));
#306 = VECTOR('',#307,1.);
#307 = DIRECTION('',(1.,-2.2E-16,1.1E-16));
#308 = ORIENTED_EDGE('',*,*,#135,.F.);
#309 = CYLINDRICAL_SURFACE('',#310,3.5);
#310 = AXIS2_PLACEMENT_3D('',#311,#312,#313);
#311 = CARTESIAN_POINT('',(6.91E-15,-23.5,-20.75));
#312 = DIRECTION('',(-1.,-0.,-3.3E-16));
#313 = DIRECTION('',(1.089E-31,1.,-3.3E-16));
#314 = ADVANCED_FACE('',(#315),#326,.F.);
#315 = FACE_BOUND('',#316,.F.);
#316 = EDGE_LOOP('',(#317,#318,#319,#325));
#317 = ORIENTED_EDGE('',*,*,#303,.T.);
#318 = ORIENTED_EDGE('',*,*,#208,.T.);
#319 = ORIENTED_EDGE('',*,*,#320,.F.);
#320 = EDGE_CURVE('',#145,#209,#321,.T.);
#321 = LINE('',#322,#323);
#322 = CARTESIAN_POINT('',(5.E-16,-1.7E-16,-1.5));
#323 = VECTOR('',#324,1.);
#324 = DIRECTION('',(1.,-2.2E-16,1.1E-16));
#325 = ORIENTED_EDGE('',*,*,#144,.F.);
#326 = PLANE('',#327);
#327 = AXIS2_PLACEMENT_3D('',#328,#329,#330);
#328 = CARTESIAN_POINT('',(6.57E-15,-20.14895757739,-19.73979473278));
#329 = DIRECTION('',(-2.3E-16,-0.671111280213,0.741356627792));
#330 = DIRECTION('',(-2.2E-16,0.741356627792,0.671111280213));
#331 = ADVANCED_FACE('',(#332,#376,#387),#398,.F.);
#332 = FACE_BOUND('',#333,.T.);
#333 = EDGE_LOOP('',(#334,#343,#351,#359,#368,#374,#375));
#334 = ORIENTED_EDGE('',*,*,#335,.T.);
#335 = EDGE_CURVE('',#254,#336,#338,.T.);
#336 = VERTEX_POINT('',#337);
#337 = CARTESIAN_POINT('',(6.E-15,22.162291418034,17.515724849408));
#338 = CIRCLE('',#339,3.5);
#339 = AXIS2_PLACEMENT_3D('',#340,#341,#342);
#340 = CARTESIAN_POINT('',(-2.856E-14,23.5,20.75));
#341 = DIRECTION('',(-1.,-3.3E-16,-1.E-15));
#342 = DIRECTION('',(3.3E-16,-1.,1.11E-15));
#343 = ORIENTED_EDGE('',*,*,#344,.T.);
#344 = EDGE_CURVE('',#336,#345,#347,.T.);
#345 = VERTEX_POINT('',#346);
#346 = CARTESIAN_POINT('',(1.E-15,2.813192258836,-1.E-15));
#347 = LINE('',#348,#349);
#348 = CARTESIAN_POINT('',(-2.488E-14,22.162291418034,17.515724849408));
#349 = VECTOR('',#350,1.);
#350 = DIRECTION('',(9.2E-16,-0.741356627792,-0.671111280213));
#351 = ORIENTED_EDGE('',*,*,#352,.F.);
#352 = EDGE_CURVE('',#353,#345,#355,.T.);
#353 = VERTEX_POINT('',#354);
#354 = CARTESIAN_POINT('',(1.4E-14,22.162291418034,-17.5157248494));
#355 = LINE('',#356,#357);
#356 = CARTESIAN_POINT('',(1.012E-14,22.162291418034,-17.5157248494));
#357 = VECTOR('',#358,1.);
#358 = DIRECTION('',(-4.2E-16,-0.741356627792,0.671111280213));
#359 = ORIENTED_EDGE('',*,*,#360,.T.);
#360 = EDGE_CURVE('',#353,#361,#363,.T.);
#361 = VERTEX_POINT('',#362);
#362 = CARTESIAN_POINT('',(1.3E-14,20.148957577396,-19.73979473278));
#363 = CIRCLE('',#364,3.5);
#364 = AXIS2_PLACEMENT_3D('',#365,#366,#367);
#365 = CARTESIAN_POINT('',(1.291E-14,23.5,-20.75));
#366 = DIRECTION('',(-1.,-3.3E-16,-1.E-15));
#367 = DIRECTION('',(3.3E-16,-1.,1.11E-15));
#368 = ORIENTED_EDGE('',*,*,#369,.T.);
#369 = EDGE_CURVE('',#361,#145,#370,.T.);
#370 = LINE('',#371,#372);
#371 = CARTESIAN_POINT('',(1.301E-14,20.148957577396,-19.73979473278));
#372 = VECTOR('',#373,1.);
#373 = DIRECTION('',(-4.2E-16,-0.741356627792,0.671111280213));
#374 = ORIENTED_EDGE('',*,*,#152,.T.);
#375 = ORIENTED_EDGE('',*,*,#270,.F.);
#376 = FACE_BOUND('',#377,.F.);
#377 = EDGE_LOOP('',(#378));
#378 = ORIENTED_EDGE('',*,*,#379,.T.);
#379 = EDGE_CURVE('',#380,#380,#382,.T.);
#380 = VERTEX_POINT('',#381);
#381 = CARTESIAN_POINT('',(1.4E-14,21.5,-20.75));
#382 = CIRCLE('',#383,2.);
#383 = AXIS2_PLACEMENT_3D('',#384,#385,#386);
#384 = CARTESIAN_POINT('',(1.291E-14,23.5,-20.75));
#385 = DIRECTION('',(-1.,-3.3E-16,-1.E-15));
#386 = DIRECTION('',(3.3E-16,-1.,1.11E-15));
#387 = FACE_BOUND('',#388,.F.);
#388 = EDGE_LOOP('',(#389));
#389 = ORIENTED_EDGE('',*,*,#390,.T.);
#390 = EDGE_CURVE('',#391,#391,#393,.T.);
#391 = VERTEX_POINT('',#392);
#392 = CARTESIAN_POINT('',(5.E-15,21.5,20.75));
#393 = CIRCLE('',#394,2.);
#394 = AXIS2_PLACEMENT_3D('',#395,#396,#397);
#395 = CARTESIAN_POINT('',(-2.856E-14,23.5,20.75));
#396 = DIRECTION('',(-1.,-3.3E-16,-1.E-15));
#397 = DIRECTION('',(3.3E-16,-1.,1.11E-15));
#398 = PLANE('',#399);
#399 = AXIS2_PLACEMENT_3D('',#400,#401,#402);
#400 = CARTESIAN_POINT('',(-5.04E-15,15.134951079923,-1.793E-14));
#401 = DIRECTION('',(1.,-5.6E-16,-7.8E-16));
#402 = DIRECTION('',(-7.8E-16,-2.2E-16,-1.));
#403 = ADVANCED_FACE('',(#404),#415,.F.);
#404 = FACE_BOUND('',#405,.T.);
#405 = EDGE_LOOP('',(#406,#412,#413,#414));
#406 = ORIENTED_EDGE('',*,*,#407,.T.);
#407 = EDGE_CURVE('',#162,#226,#408,.T.);
#408 = LINE('',#409,#410);
#409 = CARTESIAN_POINT('',(6.91E-15,-21.5,-20.75));
#410 = VECTOR('',#411,1.);
#411 = DIRECTION('',(1.,-2.2E-16,1.1E-16));
#412 = ORIENTED_EDGE('',*,*,#225,.T.);
#413 = ORIENTED_EDGE('',*,*,#407,.F.);
#414 = ORIENTED_EDGE('',*,*,#161,.F.);
#415 = CYLINDRICAL_SURFACE('',#416,2.);
#416 = AXIS2_PLACEMENT_3D('',#417,#418,#419);
#417 = CARTESIAN_POINT('',(6.91E-15,-23.5,-20.75));
#418 = DIRECTION('',(-1.,-0.,-3.3E-16));
#419 = DIRECTION('',(1.089E-31,1.,-3.3E-16));
#420 = ADVANCED_FACE('',(#421),#432,.F.);
#421 = FACE_BOUND('',#422,.T.);
#422 = EDGE_LOOP('',(#423,#429,#430,#431));
#423 = ORIENTED_EDGE('',*,*,#424,.T.);
#424 = EDGE_CURVE('',#173,#237,#425,.T.);
#425 = LINE('',#426,#427);
#426 = CARTESIAN_POINT('',(-6.91E-15,-21.5,20.75));
#427 = VECTOR('',#428,1.);
#428 = DIRECTION('',(1.,-2.2E-16,1.1E-16));
#429 = ORIENTED_EDGE('',*,*,#236,.T.);
#430 = ORIENTED_EDGE('',*,*,#424,.F.);
#431 = ORIENTED_EDGE('',*,*,#172,.F.);
#432 = CYLINDRICAL_SURFACE('',#433,2.);
#433 = AXIS2_PLACEMENT_3D('',#434,#435,#436);
#434 = CARTESIAN_POINT('',(-6.91E-15,-23.5,20.75));
#435 = DIRECTION('',(-1.,-0.,-3.3E-16));
#436 = DIRECTION('',(1.089E-31,1.,-3.3E-16));
#437 = ADVANCED_FACE('',(#438,#482,#493),#504,.T.);
#438 = FACE_BOUND('',#439,.F.);
#439 = EDGE_LOOP('',(#440,#449,#457,#465,#474,#480,#481));
#440 = ORIENTED_EDGE('',*,*,#441,.T.);
#441 = EDGE_CURVE('',#256,#442,#444,.T.);
#442 = VERTEX_POINT('',#443);
#443 = CARTESIAN_POINT('',(2.,22.162291418034,17.515724849408));
#444 = CIRCLE('',#445,3.5);
#445 = AXIS2_PLACEMENT_3D('',#446,#447,#448);
#446 = CARTESIAN_POINT('',(2.,23.5,20.75));
#447 = DIRECTION('',(-1.,-3.3E-16,-1.E-15));
#448 = DIRECTION('',(3.3E-16,-1.,1.11E-15));
#449 = ORIENTED_EDGE('',*,*,#450,.T.);
#450 = EDGE_CURVE('',#442,#451,#453,.T.);
#451 = VERTEX_POINT('',#452);
#452 = CARTESIAN_POINT('',(2.,2.813192258836,-2.E-15));
#453 = LINE('',#454,#455);
#454 = CARTESIAN_POINT('',(2.,22.162291418034,17.515724849408));
#455 = VECTOR('',#456,1.);
#456 = DIRECTION('',(9.2E-16,-0.741356627792,-0.671111280213));
#457 = ORIENTED_EDGE('',*,*,#458,.F.);
#458 = EDGE_CURVE('',#459,#451,#461,.T.);
#459 = VERTEX_POINT('',#460);
#460 = CARTESIAN_POINT('',(2.,22.162291418034,-17.5157248494));
#461 = LINE('',#462,#463);
#462 = CARTESIAN_POINT('',(2.,22.162291418034,-17.5157248494));
#463 = VECTOR('',#464,1.);
#464 = DIRECTION('',(-4.2E-16,-0.741356627792,0.671111280213));
#465 = ORIENTED_EDGE('',*,*,#466,.T.);
#466 = EDGE_CURVE('',#459,#467,#469,.T.);
#467 = VERTEX_POINT('',#468);
#468 = CARTESIAN_POINT('',(2.,20.148957577396,-19.73979473278));
#469 = CIRCLE('',#470,3.5);
#470 = AXIS2_PLACEMENT_3D('',#471,#472,#473);
#471 = CARTESIAN_POINT('',(2.,23.5,-20.75));
#472 = DIRECTION('',(-1.,-3.3E-16,-1.E-15));
#473 = DIRECTION('',(3.3E-16,-1.,1.11E-15));
#474 = ORIENTED_EDGE('',*,*,#475,.T.);
#475 = EDGE_CURVE('',#467,#209,#476,.T.);
#476 = LINE('',#477,#478);
#477 = CARTESIAN_POINT('',(2.,20.148957577396,-19.73979473278));
#478 = VECTOR('',#479,1.);
#479 = DIRECTION('',(-4.2E-16,-0.741356627792,0.671111280213));
#480 = ORIENTED_EDGE('',*,*,#216,.T.);
#481 = ORIENTED_EDGE('',*,*,#263,.F.);
#482 = FACE_BOUND('',#483,.T.);
#483 = EDGE_LOOP('',(#484));
#484 = ORIENTED_EDGE('',*,*,#485,.T.);
#485 = EDGE_CURVE('',#486,#486,#488,.T.);
#486 = VERTEX_POINT('',#487);
#487 = CARTESIAN_POINT('',(2.,21.5,-20.75));
#488 = CIRCLE('',#489,2.);
#489 = AXIS2_PLACEMENT_3D('',#490,#491,#492);
#490 = CARTESIAN_POINT('',(2.,23.5,-20.75));
#491 = DIRECTION('',(-1.,-3.3E-16,-1.E-15));
#492 = DIRECTION('',(3.3E-16,-1.,1.11E-15));
#493 = FACE_BOUND('',#494,.T.);
#494 = EDGE_LOOP('',(#495));
#495 = ORIENTED_EDGE('',*,*,#496,.T.);
#496 = EDGE_CURVE('',#497,#497,#499,.T.);
#497 = VERTEX_POINT('',#498);
#498 = CARTESIAN_POINT('',(2.,21.5,20.75));
#499 = CIRCLE('',#500,2.);
#500 = AXIS2_PLACEMENT_3D('',#501,#502,#503);
#501 = CARTESIAN_POINT('',(2.,23.5,20.75));
#502 = DIRECTION('',(-1.,-3.3E-16,-1.E-15));
#503 = DIRECTION('',(3.3E-16,-1.,1.11E-15));
#504 = PLANE('',#505);
#505 = AXIS2_PLACEMENT_3D('',#506,#507,#508);
#506 = CARTESIAN_POINT('',(2.,15.134951079923,-1.95399252334E-14));
#507 = DIRECTION('',(1.,-5.6E-16,-7.8E-16));
#508 = DIRECTION('',(-7.8E-16,-2.2E-16,-1.));
#509 = ADVANCED_FACE('',(#510),#521,.T.);
#510 = FACE_BOUND('',#511,.T.);
#511 = EDGE_LOOP('',(#512,#513,#514,#520));
#512 = ORIENTED_EDGE('',*,*,#253,.T.);
#513 = ORIENTED_EDGE('',*,*,#441,.T.);
#514 = ORIENTED_EDGE('',*,*,#515,.F.);
#515 = EDGE_CURVE('',#336,#442,#516,.T.);
#516 = LINE('',#517,#518);
#517 = CARTESIAN_POINT('',(-1.115E-14,22.162291418034,17.515724849408));
#518 = VECTOR('',#519,1.);
#519 = DIRECTION('',(1.,-3.3E-16,-3.3E-16));
#520 = ORIENTED_EDGE('',*,*,#335,.F.);
#521 = CYLINDRICAL_SURFACE('',#522,3.5);
#522 = AXIS2_PLACEMENT_3D('',#523,#524,#525);
#523 = CARTESIAN_POINT('',(-1.352E-14,23.5,20.75));
#524 = DIRECTION('',(-1.,5.6E-16,1.1E-16));
#525 = DIRECTION('',(-5.6E-16,-1.,8.9E-16));
#526 = ADVANCED_FACE('',(#527),#538,.F.);
#527 = FACE_BOUND('',#528,.T.);
#528 = EDGE_LOOP('',(#529,#535,#536,#537));
#529 = ORIENTED_EDGE('',*,*,#530,.T.);
#530 = EDGE_CURVE('',#361,#467,#531,.T.);
#531 = LINE('',#532,#533);
#532 = CARTESIAN_POINT('',(1.758E-14,20.148957577396,-19.73979473278));
#533 = VECTOR('',#534,1.);
#534 = DIRECTION('',(1.,-3.3E-16,-3.3E-16));
#535 = ORIENTED_EDGE('',*,*,#475,.T.);
#536 = ORIENTED_EDGE('',*,*,#320,.F.);
#537 = ORIENTED_EDGE('',*,*,#369,.F.);
#538 = PLANE('',#539);
#539 = AXIS2_PLACEMENT_3D('',#540,#541,#542);
#540 = CARTESIAN_POINT('',(1.758E-14,20.148957577396,-19.73979473278));
#541 = DIRECTION('',(-4.9E-16,0.671111280213,0.741356627792));
#542 = DIRECTION('',(6.E-16,0.741356627792,-0.671111280213));
#543 = ADVANCED_FACE('',(#544),#555,.F.);
#544 = FACE_BOUND('',#545,.T.);
#545 = EDGE_LOOP('',(#546,#547,#548,#554));
#546 = ORIENTED_EDGE('',*,*,#515,.T.);
#547 = ORIENTED_EDGE('',*,*,#450,.T.);
#548 = ORIENTED_EDGE('',*,*,#549,.F.);
#549 = EDGE_CURVE('',#345,#451,#550,.T.);
#550 = LINE('',#551,#552);
#551 = CARTESIAN_POINT('',(3.1E-16,2.813192258836,-2.5E-15));
#552 = VECTOR('',#553,1.);
#553 = DIRECTION('',(1.,-3.3E-16,-3.3E-16));
#554 = ORIENTED_EDGE('',*,*,#344,.F.);
#555 = PLANE('',#556);
#556 = AXIS2_PLACEMENT_3D('',#557,#558,#559);
#557 = CARTESIAN_POINT('',(-1.115E-14,22.162291418034,17.515724849408));
#558 = DIRECTION('',(-3.4E-16,-0.671111280213,0.741356627792));
#559 = DIRECTION('',(-4.4E-16,0.741356627792,0.671111280213));
#560 = ADVANCED_FACE('',(#561),#572,.T.);
#561 = FACE_BOUND('',#562,.F.);
#562 = EDGE_LOOP('',(#563,#569,#570,#571));
#563 = ORIENTED_EDGE('',*,*,#564,.T.);
#564 = EDGE_CURVE('',#353,#459,#565,.T.);
#565 = LINE('',#566,#567);
#566 = CARTESIAN_POINT('',(1.607E-14,22.162291418034,-17.5157248494));
#567 = VECTOR('',#568,1.);
#568 = DIRECTION('',(1.,-3.3E-16,-3.3E-16));
#569 = ORIENTED_EDGE('',*,*,#458,.T.);
#570 = ORIENTED_EDGE('',*,*,#549,.F.);
#571 = ORIENTED_EDGE('',*,*,#352,.F.);
#572 = PLANE('',#573);
#573 = AXIS2_PLACEMENT_3D('',#574,#575,#576);
#574 = CARTESIAN_POINT('',(1.607E-14,22.162291418034,-17.5157248494));
#575 = DIRECTION('',(-4.9E-16,0.671111280213,0.741356627792));
#576 = DIRECTION('',(6.E-16,0.741356627792,-0.671111280213));
#577 = ADVANCED_FACE('',(#578),#584,.T.);
#578 = FACE_BOUND('',#579,.T.);
#579 = EDGE_LOOP('',(#580,#581,#582,#583));
#580 = ORIENTED_EDGE('',*,*,#564,.T.);
#581 = ORIENTED_EDGE('',*,*,#466,.T.);
#582 = ORIENTED_EDGE('',*,*,#530,.F.);
#583 = ORIENTED_EDGE('',*,*,#360,.F.);
#584 = CYLINDRICAL_SURFACE('',#585,3.5);
#585 = AXIS2_PLACEMENT_3D('',#586,#587,#588);
#586 = CARTESIAN_POINT('',(1.874E-14,23.5,-20.75));
#587 = DIRECTION('',(-1.,5.6E-16,1.1E-16));
#588 = DIRECTION('',(-5.6E-16,-1.,8.9E-16));
#589 = ADVANCED_FACE('',(#590),#601,.F.);
#590 = FACE_BOUND('',#591,.F.);
#591 = EDGE_LOOP('',(#592,#598,#599,#600));
#592 = ORIENTED_EDGE('',*,*,#593,.T.);
#593 = EDGE_CURVE('',#380,#486,#594,.T.);
#594 = LINE('',#595,#596);
#595 = CARTESIAN_POINT('',(1.851E-14,21.5,-20.75));
#596 = VECTOR('',#597,1.);
#597 = DIRECTION('',(1.,-3.3E-16,-3.3E-16));
#598 = ORIENTED_EDGE('',*,*,#485,.T.);
#599 = ORIENTED_EDGE('',*,*,#593,.F.);
#600 = ORIENTED_EDGE('',*,*,#379,.F.);
#601 = CYLINDRICAL_SURFACE('',#602,2.);
#602 = AXIS2_PLACEMENT_3D('',#603,#604,#605);
#603 = CARTESIAN_POINT('',(1.874E-14,23.5,-20.75));
#604 = DIRECTION('',(-1.,5.6E-16,1.1E-16));
#605 = DIRECTION('',(-5.6E-16,-1.,8.9E-16));
#606 = ADVANCED_FACE('',(#607),#618,.F.);
#607 = FACE_BOUND('',#608,.F.);
#608 = EDGE_LOOP('',(#609,#615,#616,#617));
#609 = ORIENTED_EDGE('',*,*,#610,.T.);
#610 = EDGE_CURVE('',#391,#497,#611,.T.);
#611 = LINE('',#612,#613);
#612 = CARTESIAN_POINT('',(-1.374E-14,21.5,20.75));
#613 = VECTOR('',#614,1.);
#614 = DIRECTION('',(1.,-3.3E-16,-3.3E-16));
#615 = ORIENTED_EDGE('',*,*,#496,.T.);
#616 = ORIENTED_EDGE('',*,*,#610,.F.);
#617 = ORIENTED_EDGE('',*,*,#390,.F.);
#618 = CYLINDRICAL_SURFACE('',#619,2.);
#619 = AXIS2_PLACEMENT_3D('',#620,#621,#622);
#620 = CARTESIAN_POINT('',(-1.352E-14,23.5,20.75));
#621 = DIRECTION('',(-1.,5.6E-16,1.1E-16));
#622 = DIRECTION('',(-5.6E-16,-1.,8.9E-16));
#623 = ( GEOMETRIC_REPRESENTATION_CONTEXT(3) 
GLOBAL_UNCERTAINTY_ASSIGNED_CONTEXT((#627)) GLOBAL_UNIT_ASSIGNED_CONTEXT
((#624,#625,#626)) REPRESENTATION_CONTEXT('Context #1',
  '3D Context with UNIT and UNCERTAINTY') );
#624 = ( LENGTH_UNIT() NAMED_UNIT(*) SI_UNIT(.MILLI.,.METRE.) );
#625 = ( NAMED_UNIT(*) PLANE_ANGLE_UNIT() SI_UNIT($,.RADIAN.) );
#626 = ( NAMED_UNIT(*) SI_UNIT($,.STERADIAN.) SOLID_ANGLE_UNIT() );
#627 = UNCERTAINTY_MEASURE_WITH_UNIT(LENGTH_MEASURE(1.E-07),#624,
  'distance_accuracy_value','confusion accuracy');
#628 = PRODUCT_RELATED_PRODUCT_CATEGORY('part',$,(#7));
#629 = MECHANICAL_DESIGN_GEOMETRIC_PRESENTATION_REPRESENTATION('',(#630)
  ,#623);
#630 = STYLED_ITEM('color',(#631),#15);
#631 = PRESENTATION_STYLE_ASSIGNMENT((#632,#638));
#632 = SURFACE_STYLE_USAGE(.BOTH.,#633);
#633 = SURFACE_SIDE_STYLE('',(#634));
#634 = SURFACE_STYLE_FILL_AREA(#635);
#635 = FILL_AREA_STYLE('',(#636));
#636 = FILL_AREA_STYLE_COLOUR('',#637);
#637 = COLOUR_RGB('',0.447058818107,0.474509808674,0.501960817233);
#638 = CURVE_STYLE('',#639,POSITIVE_LENGTH_MEASURE(0.1),#640);
#639 = DRAUGHTING_PRE_DEFINED_CURVE_FONT('continuous');
#640 = COLOUR_RGB('',9.803921802644E-02,9.803921802644E-02,
  9.803921802644E-02);
ENDSEC;
END-ISO-10303-21;
