ISO-10303-21;
HEADER;
FILE_DESCRIPTION(('FreeCAD Model'),'2;1');
FILE_NAME('Open CASCADE Shape Model','2026-04-14T19:09:24',(''),(''),
  'Open CASCADE STEP processor 7.7','FreeCAD','Unknown');
FILE_SCHEMA(('AUTOMOTIVE_DESIGN { 1 0 10303 214 1 1 1 1 }'));
ENDSEC;
DATA;
#1 = APPLICATION_PROTOCOL_DEFINITION('international standard',
  'automotive_design',2000,#2);
#2 = APPLICATION_CONTEXT(
  'core data for automotive mechanical design processes');
#3 = SHAPE_DEFINITION_REPRESENTATION(#4,#10);
#4 = PRODUCT_DEFINITION_SHAPE('','',#5);
#5 = PRODUCT_DEFINITION('design','',#6,#9);
#6 = PRODUCT_DEFINITION_FORMATION('','',#7);
#7 = PRODUCT('PCB','PCB','',(#8));
#8 = PRODUCT_CONTEXT('',#2,'mechanical');
#9 = PRODUCT_DEFINITION_CONTEXT('part definition',#2,'design');
#10 = ADVANCED_BREP_SHAPE_REPRESENTATION('',(#11,#15),#701);
#11 = AXIS2_PLACEMENT_3D('',#12,#13,#14);
#12 = CARTESIAN_POINT('',(0.,0.,0.));
#13 = DIRECTION('',(0.,0.,1.));
#14 = DIRECTION('',(1.,0.,-0.));
#15 = MANIFOLD_SOLID_BREP('',#16);
#16 = CLOSED_SHELL('',(#17,#57,#88,#119,#150,#181,#212,#243,#274,#305,
    #336,#367,#389,#429,#460,#491,#513,#553,#584,#615,#637,#669));
#17 = ADVANCED_FACE('',(#18),#52,.T.);
#18 = FACE_BOUND('',#19,.T.);
#19 = EDGE_LOOP('',(#20,#30,#38,#46));
#20 = ORIENTED_EDGE('',*,*,#21,.T.);
#21 = EDGE_CURVE('',#22,#24,#26,.T.);
#22 = VERTEX_POINT('',#23);
#23 = CARTESIAN_POINT('',(-28.00010101263,-39.94,0.));
#24 = VERTEX_POINT('',#25);
#25 = CARTESIAN_POINT('',(-28.00010101263,-39.94,1.6));
#26 = LINE('',#27,#28);
#27 = CARTESIAN_POINT('',(-28.00010101263,-39.94,0.));
#28 = VECTOR('',#29,1.);
#29 = DIRECTION('',(0.,0.,1.));
#30 = ORIENTED_EDGE('',*,*,#31,.T.);
#31 = EDGE_CURVE('',#24,#32,#34,.T.);
#32 = VERTEX_POINT('',#33);
#33 = CARTESIAN_POINT('',(-39.94,-28.00010101267,1.6));
#34 = LINE('',#35,#36);
#35 = CARTESIAN_POINT('',(-28.00010101263,-39.94,1.6));
#36 = VECTOR('',#37,1.);
#37 = DIRECTION('',(-0.707106781188,0.707106781185,0.));
#38 = ORIENTED_EDGE('',*,*,#39,.F.);
#39 = EDGE_CURVE('',#40,#32,#42,.T.);
#40 = VERTEX_POINT('',#41);
#41 = CARTESIAN_POINT('',(-39.94,-28.00010101267,0.));
#42 = LINE('',#43,#44);
#43 = CARTESIAN_POINT('',(-39.94,-28.00010101267,0.));
#44 = VECTOR('',#45,1.);
#45 = DIRECTION('',(0.,0.,1.));
#46 = ORIENTED_EDGE('',*,*,#47,.F.);
#47 = EDGE_CURVE('',#22,#40,#48,.T.);
#48 = LINE('',#49,#50);
#49 = CARTESIAN_POINT('',(-28.00010101263,-39.94,0.));
#50 = VECTOR('',#51,1.);
#51 = DIRECTION('',(-0.707106781188,0.707106781185,0.));
#52 = PLANE('',#53);
#53 = AXIS2_PLACEMENT_3D('',#54,#55,#56);
#54 = CARTESIAN_POINT('',(-28.00010101263,-39.94,0.));
#55 = DIRECTION('',(-0.707106781185,-0.707106781188,0.));
#56 = DIRECTION('',(-0.707106781188,0.707106781185,0.));
#57 = ADVANCED_FACE('',(#58),#83,.T.);
#58 = FACE_BOUND('',#59,.T.);
#59 = EDGE_LOOP('',(#60,#61,#69,#77));
#60 = ORIENTED_EDGE('',*,*,#39,.T.);
#61 = ORIENTED_EDGE('',*,*,#62,.T.);
#62 = EDGE_CURVE('',#32,#63,#65,.T.);
#63 = VERTEX_POINT('',#64);
#64 = CARTESIAN_POINT('',(-39.94,-7.565786437626,1.6));
#65 = LINE('',#66,#67);
#66 = CARTESIAN_POINT('',(-39.94,-28.00010101267,1.6));
#67 = VECTOR('',#68,1.);
#68 = DIRECTION('',(0.,1.,0.));
#69 = ORIENTED_EDGE('',*,*,#70,.F.);
#70 = EDGE_CURVE('',#71,#63,#73,.T.);
#71 = VERTEX_POINT('',#72);
#72 = CARTESIAN_POINT('',(-39.94,-7.565786437626,0.));
#73 = LINE('',#74,#75);
#74 = CARTESIAN_POINT('',(-39.94,-7.565786437626,0.));
#75 = VECTOR('',#76,1.);
#76 = DIRECTION('',(0.,0.,1.));
#77 = ORIENTED_EDGE('',*,*,#78,.F.);
#78 = EDGE_CURVE('',#40,#71,#79,.T.);
#79 = LINE('',#80,#81);
#80 = CARTESIAN_POINT('',(-39.94,-28.00010101267,0.));
#81 = VECTOR('',#82,1.);
#82 = DIRECTION('',(0.,1.,0.));
#83 = PLANE('',#84);
#84 = AXIS2_PLACEMENT_3D('',#85,#86,#87);
#85 = CARTESIAN_POINT('',(-39.94,-28.00010101267,0.));
#86 = DIRECTION('',(-1.,0.,0.));
#87 = DIRECTION('',(0.,1.,0.));
#88 = ADVANCED_FACE('',(#89),#114,.T.);
#89 = FACE_BOUND('',#90,.T.);
#90 = EDGE_LOOP('',(#91,#92,#100,#108));
#91 = ORIENTED_EDGE('',*,*,#70,.T.);
#92 = ORIENTED_EDGE('',*,*,#93,.T.);
#93 = EDGE_CURVE('',#63,#94,#96,.T.);
#94 = VERTEX_POINT('',#95);
#95 = CARTESIAN_POINT('',(-32.565,-7.565786437626,1.6));
#96 = LINE('',#97,#98);
#97 = CARTESIAN_POINT('',(-39.94,-7.565786437626,1.6));
#98 = VECTOR('',#99,1.);
#99 = DIRECTION('',(1.,0.,0.));
#100 = ORIENTED_EDGE('',*,*,#101,.F.);
#101 = EDGE_CURVE('',#102,#94,#104,.T.);
#102 = VERTEX_POINT('',#103);
#103 = CARTESIAN_POINT('',(-32.565,-7.565786437626,0.));
#104 = LINE('',#105,#106);
#105 = CARTESIAN_POINT('',(-32.565,-7.565786437626,0.));
#106 = VECTOR('',#107,1.);
#107 = DIRECTION('',(0.,0.,1.));
#108 = ORIENTED_EDGE('',*,*,#109,.F.);
#109 = EDGE_CURVE('',#71,#102,#110,.T.);
#110 = LINE('',#111,#112);
#111 = CARTESIAN_POINT('',(-39.94,-7.565786437626,0.));
#112 = VECTOR('',#113,1.);
#113 = DIRECTION('',(1.,0.,0.));
#114 = PLANE('',#115);
#115 = AXIS2_PLACEMENT_3D('',#116,#117,#118);
#116 = CARTESIAN_POINT('',(-39.94,-7.565786437626,0.));
#117 = DIRECTION('',(0.,1.,0.));
#118 = DIRECTION('',(1.,0.,0.));
#119 = ADVANCED_FACE('',(#120),#145,.T.);
#120 = FACE_BOUND('',#121,.T.);
#121 = EDGE_LOOP('',(#122,#123,#131,#139));
#122 = ORIENTED_EDGE('',*,*,#101,.T.);
#123 = ORIENTED_EDGE('',*,*,#124,.T.);
#124 = EDGE_CURVE('',#94,#125,#127,.T.);
#125 = VERTEX_POINT('',#126);
#126 = CARTESIAN_POINT('',(-32.565,-16.65239898736,1.6));
#127 = LINE('',#128,#129);
#128 = CARTESIAN_POINT('',(-32.565,-7.565786437626,1.6));
#129 = VECTOR('',#130,1.);
#130 = DIRECTION('',(0.,-1.,0.));
#131 = ORIENTED_EDGE('',*,*,#132,.F.);
#132 = EDGE_CURVE('',#133,#125,#135,.T.);
#133 = VERTEX_POINT('',#134);
#134 = CARTESIAN_POINT('',(-32.565,-16.65239898736,0.));
#135 = LINE('',#136,#137);
#136 = CARTESIAN_POINT('',(-32.565,-16.65239898736,0.));
#137 = VECTOR('',#138,1.);
#138 = DIRECTION('',(0.,0.,1.));
#139 = ORIENTED_EDGE('',*,*,#140,.F.);
#140 = EDGE_CURVE('',#102,#133,#141,.T.);
#141 = LINE('',#142,#143);
#142 = CARTESIAN_POINT('',(-32.565,-7.565786437626,0.));
#143 = VECTOR('',#144,1.);
#144 = DIRECTION('',(0.,-1.,0.));
#145 = PLANE('',#146);
#146 = AXIS2_PLACEMENT_3D('',#147,#148,#149);
#147 = CARTESIAN_POINT('',(-32.565,-7.565786437626,0.));
#148 = DIRECTION('',(1.,0.,0.));
#149 = DIRECTION('',(0.,-1.,0.));
#150 = ADVANCED_FACE('',(#151),#176,.T.);
#151 = FACE_BOUND('',#152,.T.);
#152 = EDGE_LOOP('',(#153,#154,#162,#170));
#153 = ORIENTED_EDGE('',*,*,#132,.T.);
#154 = ORIENTED_EDGE('',*,*,#155,.T.);
#155 = EDGE_CURVE('',#125,#156,#158,.T.);
#156 = VERTEX_POINT('',#157);
#157 = CARTESIAN_POINT('',(-19.62989898732,-29.5875,1.6));
#158 = LINE('',#159,#160);
#159 = CARTESIAN_POINT('',(-32.565,-16.65239898736,1.6));
#160 = VECTOR('',#161,1.);
#161 = DIRECTION('',(0.707106781188,-0.707106781185,0.));
#162 = ORIENTED_EDGE('',*,*,#163,.F.);
#163 = EDGE_CURVE('',#164,#156,#166,.T.);
#164 = VERTEX_POINT('',#165);
#165 = CARTESIAN_POINT('',(-19.62989898732,-29.5875,0.));
#166 = LINE('',#167,#168);
#167 = CARTESIAN_POINT('',(-19.62989898732,-29.5875,0.));
#168 = VECTOR('',#169,1.);
#169 = DIRECTION('',(0.,0.,1.));
#170 = ORIENTED_EDGE('',*,*,#171,.F.);
#171 = EDGE_CURVE('',#133,#164,#172,.T.);
#172 = LINE('',#173,#174);
#173 = CARTESIAN_POINT('',(-32.565,-16.65239898736,0.));
#174 = VECTOR('',#175,1.);
#175 = DIRECTION('',(0.707106781188,-0.707106781185,0.));
#176 = PLANE('',#177);
#177 = AXIS2_PLACEMENT_3D('',#178,#179,#180);
#178 = CARTESIAN_POINT('',(-32.565,-16.65239898736,0.));
#179 = DIRECTION('',(0.707106781185,0.707106781188,0.));
#180 = DIRECTION('',(0.707106781188,-0.707106781185,0.));
#181 = ADVANCED_FACE('',(#182),#207,.T.);
#182 = FACE_BOUND('',#183,.T.);
#183 = EDGE_LOOP('',(#184,#185,#193,#201));
#184 = ORIENTED_EDGE('',*,*,#163,.T.);
#185 = ORIENTED_EDGE('',*,*,#186,.T.);
#186 = EDGE_CURVE('',#156,#187,#189,.T.);
#187 = VERTEX_POINT('',#188);
#188 = CARTESIAN_POINT('',(19.629898987366,-29.5875,1.6));
#189 = LINE('',#190,#191);
#190 = CARTESIAN_POINT('',(-19.62989898732,-29.5875,1.6));
#191 = VECTOR('',#192,1.);
#192 = DIRECTION('',(1.,0.,0.));
#193 = ORIENTED_EDGE('',*,*,#194,.F.);
#194 = EDGE_CURVE('',#195,#187,#197,.T.);
#195 = VERTEX_POINT('',#196);
#196 = CARTESIAN_POINT('',(19.629898987366,-29.5875,0.));
#197 = LINE('',#198,#199);
#198 = CARTESIAN_POINT('',(19.629898987366,-29.5875,0.));
#199 = VECTOR('',#200,1.);
#200 = DIRECTION('',(0.,0.,1.));
#201 = ORIENTED_EDGE('',*,*,#202,.F.);
#202 = EDGE_CURVE('',#164,#195,#203,.T.);
#203 = LINE('',#204,#205);
#204 = CARTESIAN_POINT('',(-19.62989898732,-29.5875,0.));
#205 = VECTOR('',#206,1.);
#206 = DIRECTION('',(1.,0.,0.));
#207 = PLANE('',#208);
#208 = AXIS2_PLACEMENT_3D('',#209,#210,#211);
#209 = CARTESIAN_POINT('',(-19.62989898732,-29.5875,0.));
#210 = DIRECTION('',(0.,1.,0.));
#211 = DIRECTION('',(1.,0.,0.));
#212 = ADVANCED_FACE('',(#213),#238,.T.);
#213 = FACE_BOUND('',#214,.T.);
#214 = EDGE_LOOP('',(#215,#216,#224,#232));
#215 = ORIENTED_EDGE('',*,*,#194,.T.);
#216 = ORIENTED_EDGE('',*,*,#217,.T.);
#217 = EDGE_CURVE('',#187,#218,#220,.T.);
#218 = VERTEX_POINT('',#219);
#219 = CARTESIAN_POINT('',(32.565,-16.65239898736,1.6));
#220 = LINE('',#221,#222);
#221 = CARTESIAN_POINT('',(19.629898987366,-29.5875,1.6));
#222 = VECTOR('',#223,1.);
#223 = DIRECTION('',(0.707106781187,0.707106781187,0.));
#224 = ORIENTED_EDGE('',*,*,#225,.F.);
#225 = EDGE_CURVE('',#226,#218,#228,.T.);
#226 = VERTEX_POINT('',#227);
#227 = CARTESIAN_POINT('',(32.565,-16.65239898736,0.));
#228 = LINE('',#229,#230);
#229 = CARTESIAN_POINT('',(32.565,-16.65239898736,0.));
#230 = VECTOR('',#231,1.);
#231 = DIRECTION('',(0.,0.,1.));
#232 = ORIENTED_EDGE('',*,*,#233,.F.);
#233 = EDGE_CURVE('',#195,#226,#234,.T.);
#234 = LINE('',#235,#236);
#235 = CARTESIAN_POINT('',(19.629898987366,-29.5875,0.));
#236 = VECTOR('',#237,1.);
#237 = DIRECTION('',(0.707106781187,0.707106781187,0.));
#238 = PLANE('',#239);
#239 = AXIS2_PLACEMENT_3D('',#240,#241,#242);
#240 = CARTESIAN_POINT('',(19.629898987366,-29.5875,0.));
#241 = DIRECTION('',(-0.707106781187,0.707106781187,0.));
#242 = DIRECTION('',(0.707106781187,0.707106781187,0.));
#243 = ADVANCED_FACE('',(#244),#269,.T.);
#244 = FACE_BOUND('',#245,.T.);
#245 = EDGE_LOOP('',(#246,#247,#255,#263));
#246 = ORIENTED_EDGE('',*,*,#225,.T.);
#247 = ORIENTED_EDGE('',*,*,#248,.T.);
#248 = EDGE_CURVE('',#218,#249,#251,.T.);
#249 = VERTEX_POINT('',#250);
#250 = CARTESIAN_POINT('',(32.565,-7.565786437626,1.6));
#251 = LINE('',#252,#253);
#252 = CARTESIAN_POINT('',(32.565,-16.65239898736,1.6));
#253 = VECTOR('',#254,1.);
#254 = DIRECTION('',(0.,1.,0.));
#255 = ORIENTED_EDGE('',*,*,#256,.F.);
#256 = EDGE_CURVE('',#257,#249,#259,.T.);
#257 = VERTEX_POINT('',#258);
#258 = CARTESIAN_POINT('',(32.565,-7.565786437626,0.));
#259 = LINE('',#260,#261);
#260 = CARTESIAN_POINT('',(32.565,-7.565786437626,0.));
#261 = VECTOR('',#262,1.);
#262 = DIRECTION('',(0.,0.,1.));
#263 = ORIENTED_EDGE('',*,*,#264,.F.);
#264 = EDGE_CURVE('',#226,#257,#265,.T.);
#265 = LINE('',#266,#267);
#266 = CARTESIAN_POINT('',(32.565,-16.65239898736,0.));
#267 = VECTOR('',#268,1.);
#268 = DIRECTION('',(0.,1.,0.));
#269 = PLANE('',#270);
#270 = AXIS2_PLACEMENT_3D('',#271,#272,#273);
#271 = CARTESIAN_POINT('',(32.565,-16.65239898736,0.));
#272 = DIRECTION('',(-1.,0.,0.));
#273 = DIRECTION('',(0.,1.,0.));
#274 = ADVANCED_FACE('',(#275),#300,.T.);
#275 = FACE_BOUND('',#276,.T.);
#276 = EDGE_LOOP('',(#277,#278,#286,#294));
#277 = ORIENTED_EDGE('',*,*,#256,.T.);
#278 = ORIENTED_EDGE('',*,*,#279,.T.);
#279 = EDGE_CURVE('',#249,#280,#282,.T.);
#280 = VERTEX_POINT('',#281);
#281 = CARTESIAN_POINT('',(39.94,-7.565786437626,1.6));
#282 = LINE('',#283,#284);
#283 = CARTESIAN_POINT('',(32.565,-7.565786437626,1.6));
#284 = VECTOR('',#285,1.);
#285 = DIRECTION('',(1.,0.,0.));
#286 = ORIENTED_EDGE('',*,*,#287,.F.);
#287 = EDGE_CURVE('',#288,#280,#290,.T.);
#288 = VERTEX_POINT('',#289);
#289 = CARTESIAN_POINT('',(39.94,-7.565786437626,0.));
#290 = LINE('',#291,#292);
#291 = CARTESIAN_POINT('',(39.94,-7.565786437626,0.));
#292 = VECTOR('',#293,1.);
#293 = DIRECTION('',(0.,0.,1.));
#294 = ORIENTED_EDGE('',*,*,#295,.F.);
#295 = EDGE_CURVE('',#257,#288,#296,.T.);
#296 = LINE('',#297,#298);
#297 = CARTESIAN_POINT('',(32.565,-7.565786437626,0.));
#298 = VECTOR('',#299,1.);
#299 = DIRECTION('',(1.,0.,0.));
#300 = PLANE('',#301);
#301 = AXIS2_PLACEMENT_3D('',#302,#303,#304);
#302 = CARTESIAN_POINT('',(32.565,-7.565786437626,0.));
#303 = DIRECTION('',(0.,1.,0.));
#304 = DIRECTION('',(1.,0.,0.));
#305 = ADVANCED_FACE('',(#306),#331,.T.);
#306 = FACE_BOUND('',#307,.T.);
#307 = EDGE_LOOP('',(#308,#309,#317,#325));
#308 = ORIENTED_EDGE('',*,*,#287,.T.);
#309 = ORIENTED_EDGE('',*,*,#310,.T.);
#310 = EDGE_CURVE('',#280,#311,#313,.T.);
#311 = VERTEX_POINT('',#312);
#312 = CARTESIAN_POINT('',(39.94,-28.00010101267,1.6));
#313 = LINE('',#314,#315);
#314 = CARTESIAN_POINT('',(39.94,-7.565786437626,1.6));
#315 = VECTOR('',#316,1.);
#316 = DIRECTION('',(0.,-1.,0.));
#317 = ORIENTED_EDGE('',*,*,#318,.F.);
#318 = EDGE_CURVE('',#319,#311,#321,.T.);
#319 = VERTEX_POINT('',#320);
#320 = CARTESIAN_POINT('',(39.94,-28.00010101267,0.));
#321 = LINE('',#322,#323);
#322 = CARTESIAN_POINT('',(39.94,-28.00010101267,0.));
#323 = VECTOR('',#324,1.);
#324 = DIRECTION('',(0.,0.,1.));
#325 = ORIENTED_EDGE('',*,*,#326,.F.);
#326 = EDGE_CURVE('',#288,#319,#327,.T.);
#327 = LINE('',#328,#329);
#328 = CARTESIAN_POINT('',(39.94,-7.565786437626,0.));
#329 = VECTOR('',#330,1.);
#330 = DIRECTION('',(0.,-1.,0.));
#331 = PLANE('',#332);
#332 = AXIS2_PLACEMENT_3D('',#333,#334,#335);
#333 = CARTESIAN_POINT('',(39.94,-7.565786437626,0.));
#334 = DIRECTION('',(1.,0.,0.));
#335 = DIRECTION('',(0.,-1.,0.));
#336 = ADVANCED_FACE('',(#337),#362,.T.);
#337 = FACE_BOUND('',#338,.T.);
#338 = EDGE_LOOP('',(#339,#340,#348,#356));
#339 = ORIENTED_EDGE('',*,*,#318,.T.);
#340 = ORIENTED_EDGE('',*,*,#341,.T.);
#341 = EDGE_CURVE('',#311,#342,#344,.T.);
#342 = VERTEX_POINT('',#343);
#343 = CARTESIAN_POINT('',(28.000101012636,-39.94,1.6));
#344 = LINE('',#345,#346);
#345 = CARTESIAN_POINT('',(39.94,-28.00010101267,1.6));
#346 = VECTOR('',#347,1.);
#347 = DIRECTION('',(-0.707106781188,-0.707106781185,0.));
#348 = ORIENTED_EDGE('',*,*,#349,.F.);
#349 = EDGE_CURVE('',#350,#342,#352,.T.);
#350 = VERTEX_POINT('',#351);
#351 = CARTESIAN_POINT('',(28.000101012636,-39.94,0.));
#352 = LINE('',#353,#354);
#353 = CARTESIAN_POINT('',(28.000101012636,-39.94,0.));
#354 = VECTOR('',#355,1.);
#355 = DIRECTION('',(0.,0.,1.));
#356 = ORIENTED_EDGE('',*,*,#357,.F.);
#357 = EDGE_CURVE('',#319,#350,#358,.T.);
#358 = LINE('',#359,#360);
#359 = CARTESIAN_POINT('',(39.94,-28.00010101267,0.));
#360 = VECTOR('',#361,1.);
#361 = DIRECTION('',(-0.707106781188,-0.707106781185,0.));
#362 = PLANE('',#363);
#363 = AXIS2_PLACEMENT_3D('',#364,#365,#366);
#364 = CARTESIAN_POINT('',(39.94,-28.00010101267,0.));
#365 = DIRECTION('',(0.707106781185,-0.707106781188,0.));
#366 = DIRECTION('',(-0.707106781188,-0.707106781185,0.));
#367 = ADVANCED_FACE('',(#368),#384,.F.);
#368 = FACE_BOUND('',#369,.F.);
#369 = EDGE_LOOP('',(#370,#371,#377,#378));
#370 = ORIENTED_EDGE('',*,*,#21,.T.);
#371 = ORIENTED_EDGE('',*,*,#372,.T.);
#372 = EDGE_CURVE('',#24,#342,#373,.T.);
#373 = LINE('',#374,#375);
#374 = CARTESIAN_POINT('',(-28.00010101263,-39.94,1.6));
#375 = VECTOR('',#376,1.);
#376 = DIRECTION('',(1.,0.,0.));
#377 = ORIENTED_EDGE('',*,*,#349,.F.);
#378 = ORIENTED_EDGE('',*,*,#379,.F.);
#379 = EDGE_CURVE('',#22,#350,#380,.T.);
#380 = LINE('',#381,#382);
#381 = CARTESIAN_POINT('',(-28.00010101263,-39.94,0.));
#382 = VECTOR('',#383,1.);
#383 = DIRECTION('',(1.,0.,0.));
#384 = PLANE('',#385);
#385 = AXIS2_PLACEMENT_3D('',#386,#387,#388);
#386 = CARTESIAN_POINT('',(-28.00010101263,-39.94,0.));
#387 = DIRECTION('',(0.,1.,0.));
#388 = DIRECTION('',(1.,0.,0.));
#389 = ADVANCED_FACE('',(#390),#424,.F.);
#390 = FACE_BOUND('',#391,.F.);
#391 = EDGE_LOOP('',(#392,#402,#410,#418));
#392 = ORIENTED_EDGE('',*,*,#393,.T.);
#393 = EDGE_CURVE('',#394,#396,#398,.T.);
#394 = VERTEX_POINT('',#395);
#395 = CARTESIAN_POINT('',(28.908749999997,-35.32685424949,0.));
#396 = VERTEX_POINT('',#397);
#397 = CARTESIAN_POINT('',(28.908749999997,-35.32685424949,1.6));
#398 = LINE('',#399,#400);
#399 = CARTESIAN_POINT('',(28.908749999997,-35.32685424949,0.));
#400 = VECTOR('',#401,1.);
#401 = DIRECTION('',(0.,0.,1.));
#402 = ORIENTED_EDGE('',*,*,#403,.T.);
#403 = EDGE_CURVE('',#396,#404,#406,.T.);
#404 = VERTEX_POINT('',#405);
#405 = CARTESIAN_POINT('',(23.251895750505,-29.66999999999,1.6));
#406 = LINE('',#407,#408);
#407 = CARTESIAN_POINT('',(28.908749999997,-35.32685424949,1.6));
#408 = VECTOR('',#409,1.);
#409 = DIRECTION('',(-0.707106781187,0.707106781187,0.));
#410 = ORIENTED_EDGE('',*,*,#411,.F.);
#411 = EDGE_CURVE('',#412,#404,#414,.T.);
#412 = VERTEX_POINT('',#413);
#413 = CARTESIAN_POINT('',(23.251895750505,-29.66999999999,0.));
#414 = LINE('',#415,#416);
#415 = CARTESIAN_POINT('',(23.251895750505,-29.66999999999,0.));
#416 = VECTOR('',#417,1.);
#417 = DIRECTION('',(0.,0.,1.));
#418 = ORIENTED_EDGE('',*,*,#419,.F.);
#419 = EDGE_CURVE('',#394,#412,#420,.T.);
#420 = LINE('',#421,#422);
#421 = CARTESIAN_POINT('',(28.908749999997,-35.32685424949,0.));
#422 = VECTOR('',#423,1.);
#423 = DIRECTION('',(-0.707106781187,0.707106781187,0.));
#424 = PLANE('',#425);
#425 = AXIS2_PLACEMENT_3D('',#426,#427,#428);
#426 = CARTESIAN_POINT('',(28.908749999997,-35.32685424949,0.));
#427 = DIRECTION('',(-0.707106781187,-0.707106781187,0.));
#428 = DIRECTION('',(-0.707106781187,0.707106781187,0.));
#429 = ADVANCED_FACE('',(#430),#455,.F.);
#430 = FACE_BOUND('',#431,.F.);
#431 = EDGE_LOOP('',(#432,#433,#441,#449));
#432 = ORIENTED_EDGE('',*,*,#411,.T.);
#433 = ORIENTED_EDGE('',*,*,#434,.T.);
#434 = EDGE_CURVE('',#404,#435,#437,.T.);
#435 = VERTEX_POINT('',#436);
#436 = CARTESIAN_POINT('',(28.908749999997,-24.0131457505,1.6));
#437 = LINE('',#438,#439);
#438 = CARTESIAN_POINT('',(23.251895750505,-29.66999999999,1.6));
#439 = VECTOR('',#440,1.);
#440 = DIRECTION('',(0.707106781187,0.707106781187,0.));
#441 = ORIENTED_EDGE('',*,*,#442,.F.);
#442 = EDGE_CURVE('',#443,#435,#445,.T.);
#443 = VERTEX_POINT('',#444);
#444 = CARTESIAN_POINT('',(28.908749999997,-24.0131457505,0.));
#445 = LINE('',#446,#447);
#446 = CARTESIAN_POINT('',(28.908749999997,-24.0131457505,0.));
#447 = VECTOR('',#448,1.);
#448 = DIRECTION('',(0.,0.,1.));
#449 = ORIENTED_EDGE('',*,*,#450,.F.);
#450 = EDGE_CURVE('',#412,#443,#451,.T.);
#451 = LINE('',#452,#453);
#452 = CARTESIAN_POINT('',(23.251895750505,-29.66999999999,0.));
#453 = VECTOR('',#454,1.);
#454 = DIRECTION('',(0.707106781187,0.707106781187,0.));
#455 = PLANE('',#456);
#456 = AXIS2_PLACEMENT_3D('',#457,#458,#459);
#457 = CARTESIAN_POINT('',(23.251895750505,-29.66999999999,0.));
#458 = DIRECTION('',(-0.707106781187,0.707106781187,0.));
#459 = DIRECTION('',(0.707106781187,0.707106781187,0.));
#460 = ADVANCED_FACE('',(#461),#486,.F.);
#461 = FACE_BOUND('',#462,.F.);
#462 = EDGE_LOOP('',(#463,#464,#472,#480));
#463 = ORIENTED_EDGE('',*,*,#442,.T.);
#464 = ORIENTED_EDGE('',*,*,#465,.T.);
#465 = EDGE_CURVE('',#435,#466,#468,.T.);
#466 = VERTEX_POINT('',#467);
#467 = CARTESIAN_POINT('',(34.56560424949,-29.66999999999,1.6));
#468 = LINE('',#469,#470);
#469 = CARTESIAN_POINT('',(28.908749999997,-24.0131457505,1.6));
#470 = VECTOR('',#471,1.);
#471 = DIRECTION('',(0.707106781187,-0.707106781187,0.));
#472 = ORIENTED_EDGE('',*,*,#473,.F.);
#473 = EDGE_CURVE('',#474,#466,#476,.T.);
#474 = VERTEX_POINT('',#475);
#475 = CARTESIAN_POINT('',(34.56560424949,-29.66999999999,0.));
#476 = LINE('',#477,#478);
#477 = CARTESIAN_POINT('',(34.56560424949,-29.66999999999,0.));
#478 = VECTOR('',#479,1.);
#479 = DIRECTION('',(0.,0.,1.));
#480 = ORIENTED_EDGE('',*,*,#481,.F.);
#481 = EDGE_CURVE('',#443,#474,#482,.T.);
#482 = LINE('',#483,#484);
#483 = CARTESIAN_POINT('',(28.908749999997,-24.0131457505,0.));
#484 = VECTOR('',#485,1.);
#485 = DIRECTION('',(0.707106781187,-0.707106781187,0.));
#486 = PLANE('',#487);
#487 = AXIS2_PLACEMENT_3D('',#488,#489,#490);
#488 = CARTESIAN_POINT('',(28.908749999997,-24.0131457505,0.));
#489 = DIRECTION('',(0.707106781187,0.707106781187,0.));
#490 = DIRECTION('',(0.707106781187,-0.707106781187,0.));
#491 = ADVANCED_FACE('',(#492),#508,.F.);
#492 = FACE_BOUND('',#493,.F.);
#493 = EDGE_LOOP('',(#494,#495,#501,#502));
#494 = ORIENTED_EDGE('',*,*,#473,.T.);
#495 = ORIENTED_EDGE('',*,*,#496,.T.);
#496 = EDGE_CURVE('',#466,#396,#497,.T.);
#497 = LINE('',#498,#499);
#498 = CARTESIAN_POINT('',(34.56560424949,-29.66999999999,1.6));
#499 = VECTOR('',#500,1.);
#500 = DIRECTION('',(-0.707106781187,-0.707106781187,0.));
#501 = ORIENTED_EDGE('',*,*,#393,.F.);
#502 = ORIENTED_EDGE('',*,*,#503,.F.);
#503 = EDGE_CURVE('',#474,#394,#504,.T.);
#504 = LINE('',#505,#506);
#505 = CARTESIAN_POINT('',(34.56560424949,-29.66999999999,0.));
#506 = VECTOR('',#507,1.);
#507 = DIRECTION('',(-0.707106781187,-0.707106781187,0.));
#508 = PLANE('',#509);
#509 = AXIS2_PLACEMENT_3D('',#510,#511,#512);
#510 = CARTESIAN_POINT('',(34.56560424949,-29.66999999999,0.));
#511 = DIRECTION('',(0.707106781187,-0.707106781187,0.));
#512 = DIRECTION('',(-0.707106781187,-0.707106781187,0.));
#513 = ADVANCED_FACE('',(#514),#548,.F.);
#514 = FACE_BOUND('',#515,.F.);
#515 = EDGE_LOOP('',(#516,#526,#534,#542));
#516 = ORIENTED_EDGE('',*,*,#517,.T.);
#517 = EDGE_CURVE('',#518,#520,#522,.T.);
#518 = VERTEX_POINT('',#519);
#519 = CARTESIAN_POINT('',(-34.56560424949,-29.67,0.));
#520 = VERTEX_POINT('',#521);
#521 = CARTESIAN_POINT('',(-34.56560424949,-29.67,1.6));
#522 = LINE('',#523,#524);
#523 = CARTESIAN_POINT('',(-34.56560424949,-29.67,0.));
#524 = VECTOR('',#525,1.);
#525 = DIRECTION('',(0.,0.,1.));
#526 = ORIENTED_EDGE('',*,*,#527,.T.);
#527 = EDGE_CURVE('',#520,#528,#530,.T.);
#528 = VERTEX_POINT('',#529);
#529 = CARTESIAN_POINT('',(-28.90875,-24.0131457505,1.6));
#530 = LINE('',#531,#532);
#531 = CARTESIAN_POINT('',(-34.56560424949,-29.67,1.6));
#532 = VECTOR('',#533,1.);
#533 = DIRECTION('',(0.707106781185,0.707106781188,0.));
#534 = ORIENTED_EDGE('',*,*,#535,.F.);
#535 = EDGE_CURVE('',#536,#528,#538,.T.);
#536 = VERTEX_POINT('',#537);
#537 = CARTESIAN_POINT('',(-28.90875,-24.0131457505,0.));
#538 = LINE('',#539,#540);
#539 = CARTESIAN_POINT('',(-28.90875,-24.0131457505,0.));
#540 = VECTOR('',#541,1.);
#541 = DIRECTION('',(0.,0.,1.));
#542 = ORIENTED_EDGE('',*,*,#543,.F.);
#543 = EDGE_CURVE('',#518,#536,#544,.T.);
#544 = LINE('',#545,#546);
#545 = CARTESIAN_POINT('',(-34.56560424949,-29.67,0.));
#546 = VECTOR('',#547,1.);
#547 = DIRECTION('',(0.707106781185,0.707106781188,0.));
#548 = PLANE('',#549);
#549 = AXIS2_PLACEMENT_3D('',#550,#551,#552);
#550 = CARTESIAN_POINT('',(-34.56560424949,-29.67,0.));
#551 = DIRECTION('',(-0.707106781188,0.707106781185,0.));
#552 = DIRECTION('',(0.707106781185,0.707106781188,0.));
#553 = ADVANCED_FACE('',(#554),#579,.F.);
#554 = FACE_BOUND('',#555,.F.);
#555 = EDGE_LOOP('',(#556,#557,#565,#573));
#556 = ORIENTED_EDGE('',*,*,#535,.T.);
#557 = ORIENTED_EDGE('',*,*,#558,.T.);
#558 = EDGE_CURVE('',#528,#559,#561,.T.);
#559 = VERTEX_POINT('',#560);
#560 = CARTESIAN_POINT('',(-23.2518957505,-29.66999999998,1.6));
#561 = LINE('',#562,#563);
#562 = CARTESIAN_POINT('',(-28.90875,-24.0131457505,1.6));
#563 = VECTOR('',#564,1.);
#564 = DIRECTION('',(0.707106781188,-0.707106781185,0.));
#565 = ORIENTED_EDGE('',*,*,#566,.F.);
#566 = EDGE_CURVE('',#567,#559,#569,.T.);
#567 = VERTEX_POINT('',#568);
#568 = CARTESIAN_POINT('',(-23.2518957505,-29.66999999998,0.));
#569 = LINE('',#570,#571);
#570 = CARTESIAN_POINT('',(-23.2518957505,-29.66999999998,0.));
#571 = VECTOR('',#572,1.);
#572 = DIRECTION('',(0.,0.,1.));
#573 = ORIENTED_EDGE('',*,*,#574,.F.);
#574 = EDGE_CURVE('',#536,#567,#575,.T.);
#575 = LINE('',#576,#577);
#576 = CARTESIAN_POINT('',(-28.90875,-24.0131457505,0.));
#577 = VECTOR('',#578,1.);
#578 = DIRECTION('',(0.707106781188,-0.707106781185,0.));
#579 = PLANE('',#580);
#580 = AXIS2_PLACEMENT_3D('',#581,#582,#583);
#581 = CARTESIAN_POINT('',(-28.90875,-24.0131457505,0.));
#582 = DIRECTION('',(0.707106781185,0.707106781188,0.));
#583 = DIRECTION('',(0.707106781188,-0.707106781185,0.));
#584 = ADVANCED_FACE('',(#585),#610,.F.);
#585 = FACE_BOUND('',#586,.F.);
#586 = EDGE_LOOP('',(#587,#588,#596,#604));
#587 = ORIENTED_EDGE('',*,*,#566,.T.);
#588 = ORIENTED_EDGE('',*,*,#589,.T.);
#589 = EDGE_CURVE('',#559,#590,#592,.T.);
#590 = VERTEX_POINT('',#591);
#591 = CARTESIAN_POINT('',(-28.90874999998,-35.32685424949,1.6));
#592 = LINE('',#593,#594);
#593 = CARTESIAN_POINT('',(-23.2518957505,-29.66999999998,1.6));
#594 = VECTOR('',#595,1.);
#595 = DIRECTION('',(-0.707106781185,-0.707106781188,0.));
#596 = ORIENTED_EDGE('',*,*,#597,.F.);
#597 = EDGE_CURVE('',#598,#590,#600,.T.);
#598 = VERTEX_POINT('',#599);
#599 = CARTESIAN_POINT('',(-28.90874999998,-35.32685424949,0.));
#600 = LINE('',#601,#602);
#601 = CARTESIAN_POINT('',(-28.90874999998,-35.32685424949,0.));
#602 = VECTOR('',#603,1.);
#603 = DIRECTION('',(0.,0.,1.));
#604 = ORIENTED_EDGE('',*,*,#605,.F.);
#605 = EDGE_CURVE('',#567,#598,#606,.T.);
#606 = LINE('',#607,#608);
#607 = CARTESIAN_POINT('',(-23.2518957505,-29.66999999998,0.));
#608 = VECTOR('',#609,1.);
#609 = DIRECTION('',(-0.707106781185,-0.707106781188,0.));
#610 = PLANE('',#611);
#611 = AXIS2_PLACEMENT_3D('',#612,#613,#614);
#612 = CARTESIAN_POINT('',(-23.2518957505,-29.66999999998,0.));
#613 = DIRECTION('',(0.707106781188,-0.707106781185,0.));
#614 = DIRECTION('',(-0.707106781185,-0.707106781188,0.));
#615 = ADVANCED_FACE('',(#616),#632,.F.);
#616 = FACE_BOUND('',#617,.F.);
#617 = EDGE_LOOP('',(#618,#619,#625,#626));
#618 = ORIENTED_EDGE('',*,*,#597,.T.);
#619 = ORIENTED_EDGE('',*,*,#620,.T.);
#620 = EDGE_CURVE('',#590,#520,#621,.T.);
#621 = LINE('',#622,#623);
#622 = CARTESIAN_POINT('',(-28.90874999998,-35.32685424949,1.6));
#623 = VECTOR('',#624,1.);
#624 = DIRECTION('',(-0.707106781188,0.707106781185,0.));
#625 = ORIENTED_EDGE('',*,*,#517,.F.);
#626 = ORIENTED_EDGE('',*,*,#627,.F.);
#627 = EDGE_CURVE('',#598,#518,#628,.T.);
#628 = LINE('',#629,#630);
#629 = CARTESIAN_POINT('',(-28.90874999998,-35.32685424949,0.));
#630 = VECTOR('',#631,1.);
#631 = DIRECTION('',(-0.707106781188,0.707106781185,0.));
#632 = PLANE('',#633);
#633 = AXIS2_PLACEMENT_3D('',#634,#635,#636);
#634 = CARTESIAN_POINT('',(-28.90874999998,-35.32685424949,0.));
#635 = DIRECTION('',(-0.707106781185,-0.707106781188,0.));
#636 = DIRECTION('',(-0.707106781188,0.707106781185,0.));
#637 = ADVANCED_FACE('',(#638,#652,#658),#664,.F.);
#638 = FACE_BOUND('',#639,.T.);
#639 = EDGE_LOOP('',(#640,#641,#642,#643,#644,#645,#646,#647,#648,#649,
    #650,#651));
#640 = ORIENTED_EDGE('',*,*,#47,.T.);
#641 = ORIENTED_EDGE('',*,*,#78,.T.);
#642 = ORIENTED_EDGE('',*,*,#109,.T.);
#643 = ORIENTED_EDGE('',*,*,#140,.T.);
#644 = ORIENTED_EDGE('',*,*,#171,.T.);
#645 = ORIENTED_EDGE('',*,*,#202,.T.);
#646 = ORIENTED_EDGE('',*,*,#233,.T.);
#647 = ORIENTED_EDGE('',*,*,#264,.T.);
#648 = ORIENTED_EDGE('',*,*,#295,.T.);
#649 = ORIENTED_EDGE('',*,*,#326,.T.);
#650 = ORIENTED_EDGE('',*,*,#357,.T.);
#651 = ORIENTED_EDGE('',*,*,#379,.F.);
#652 = FACE_BOUND('',#653,.F.);
#653 = EDGE_LOOP('',(#654,#655,#656,#657));
#654 = ORIENTED_EDGE('',*,*,#419,.T.);
#655 = ORIENTED_EDGE('',*,*,#450,.T.);
#656 = ORIENTED_EDGE('',*,*,#481,.T.);
#657 = ORIENTED_EDGE('',*,*,#503,.T.);
#658 = FACE_BOUND('',#659,.F.);
#659 = EDGE_LOOP('',(#660,#661,#662,#663));
#660 = ORIENTED_EDGE('',*,*,#543,.T.);
#661 = ORIENTED_EDGE('',*,*,#574,.T.);
#662 = ORIENTED_EDGE('',*,*,#605,.T.);
#663 = ORIENTED_EDGE('',*,*,#627,.T.);
#664 = PLANE('',#665);
#665 = AXIS2_PLACEMENT_3D('',#666,#667,#668);
#666 = CARTESIAN_POINT('',(1.511720412275E-12,-27.51606727881,0.));
#667 = DIRECTION('',(0.,0.,1.));
#668 = DIRECTION('',(1.,0.,0.));
#669 = ADVANCED_FACE('',(#670,#684,#690),#696,.T.);
#670 = FACE_BOUND('',#671,.F.);
#671 = EDGE_LOOP('',(#672,#673,#674,#675,#676,#677,#678,#679,#680,#681,
    #682,#683));
#672 = ORIENTED_EDGE('',*,*,#31,.T.);
#673 = ORIENTED_EDGE('',*,*,#62,.T.);
#674 = ORIENTED_EDGE('',*,*,#93,.T.);
#675 = ORIENTED_EDGE('',*,*,#124,.T.);
#676 = ORIENTED_EDGE('',*,*,#155,.T.);
#677 = ORIENTED_EDGE('',*,*,#186,.T.);
#678 = ORIENTED_EDGE('',*,*,#217,.T.);
#679 = ORIENTED_EDGE('',*,*,#248,.T.);
#680 = ORIENTED_EDGE('',*,*,#279,.T.);
#681 = ORIENTED_EDGE('',*,*,#310,.T.);
#682 = ORIENTED_EDGE('',*,*,#341,.T.);
#683 = ORIENTED_EDGE('',*,*,#372,.F.);
#684 = FACE_BOUND('',#685,.T.);
#685 = EDGE_LOOP('',(#686,#687,#688,#689));
#686 = ORIENTED_EDGE('',*,*,#403,.T.);
#687 = ORIENTED_EDGE('',*,*,#434,.T.);
#688 = ORIENTED_EDGE('',*,*,#465,.T.);
#689 = ORIENTED_EDGE('',*,*,#496,.T.);
#690 = FACE_BOUND('',#691,.T.);
#691 = EDGE_LOOP('',(#692,#693,#694,#695));
#692 = ORIENTED_EDGE('',*,*,#527,.T.);
#693 = ORIENTED_EDGE('',*,*,#558,.T.);
#694 = ORIENTED_EDGE('',*,*,#589,.T.);
#695 = ORIENTED_EDGE('',*,*,#620,.T.);
#696 = PLANE('',#697);
#697 = AXIS2_PLACEMENT_3D('',#698,#699,#700);
#698 = CARTESIAN_POINT('',(1.511720412275E-12,-27.51606727881,1.6));
#699 = DIRECTION('',(0.,0.,1.));
#700 = DIRECTION('',(1.,0.,0.));
#701 = ( GEOMETRIC_REPRESENTATION_CONTEXT(3) 
GLOBAL_UNCERTAINTY_ASSIGNED_CONTEXT((#705)) GLOBAL_UNIT_ASSIGNED_CONTEXT
((#702,#703,#704)) REPRESENTATION_CONTEXT('Context #1',
  '3D Context with UNIT and UNCERTAINTY') );
#702 = ( LENGTH_UNIT() NAMED_UNIT(*) SI_UNIT(.MILLI.,.METRE.) );
#703 = ( NAMED_UNIT(*) PLANE_ANGLE_UNIT() SI_UNIT($,.RADIAN.) );
#704 = ( NAMED_UNIT(*) SI_UNIT($,.STERADIAN.) SOLID_ANGLE_UNIT() );
#705 = UNCERTAINTY_MEASURE_WITH_UNIT(LENGTH_MEASURE(1.E-07),#702,
  'distance_accuracy_value','confusion accuracy');
#706 = PRODUCT_RELATED_PRODUCT_CATEGORY('part',$,(#7));
#707 = MECHANICAL_DESIGN_GEOMETRIC_PRESENTATION_REPRESENTATION('',(#708)
  ,#701);
#708 = STYLED_ITEM('color',(#709),#15);
#709 = PRESENTATION_STYLE_ASSIGNMENT((#710,#716));
#710 = SURFACE_STYLE_USAGE(.BOTH.,#711);
#711 = SURFACE_SIDE_STYLE('',(#712));
#712 = SURFACE_STYLE_FILL_AREA(#713);
#713 = FILL_AREA_STYLE('',(#714));
#714 = FILL_AREA_STYLE_COLOUR('',#715);
#715 = COLOUR_RGB('',0.800000010877,0.800000010877,0.800000010877);
#716 = CURVE_STYLE('',#717,POSITIVE_LENGTH_MEASURE(0.1),#718);
#717 = DRAUGHTING_PRE_DEFINED_CURVE_FONT('continuous');
#718 = COLOUR_RGB('',9.803921802644E-02,9.803921802644E-02,
  9.803921802644E-02);
ENDSEC;
END-ISO-10303-21;
