ISO-10303-21;
HEADER;
FILE_DESCRIPTION(('FreeCAD Model'),'2;1');
FILE_NAME('Open CASCADE Shape Model','2026-04-27T10:45:48',(''),(''),
  'Open CASCADE STEP processor 7.8','FreeCAD','Unknown');
FILE_SCHEMA(('AUTOMOTIVE_DESIGN { 1 0 10303 214 1 1 1 1 }'));
ENDSEC;
DATA;
#1 = APPLICATION_PROTOCOL_DEFINITION('international standard',
  'automotive_design',2000,#2);
#2 = APPLICATION_CONTEXT(
  'core data for automotive mechanical design processes');
#3 = SHAPE_DEFINITION_REPRESENTATION(#4,#10);
#4 = PRODUCT_DEFINITION_SHAPE('','',#5);
#5 = PRODUCT_DEFINITION('design','',#6,#9);
#6 = PRODUCT_DEFINITION_FORMATION('','',#7);
#7 = PRODUCT('cableFix','cableFix','',(#8));
#8 = PRODUCT_CONTEXT('',#2,'mechanical');
#9 = PRODUCT_DEFINITION_CONTEXT('part definition',#2,'design');
#10 = ADVANCED_BREP_SHAPE_REPRESENTATION('',(#11,#15),#694);
#11 = AXIS2_PLACEMENT_3D('',#12,#13,#14);
#12 = CARTESIAN_POINT('',(0.,0.,0.));
#13 = DIRECTION('',(0.,0.,1.));
#14 = DIRECTION('',(1.,0.,-0.));
#15 = MANIFOLD_SOLID_BREP('',#16);
#16 = CLOSED_SHELL('',(#17,#57,#225,#250,#275,#427,#444,#461,#478,#495,
    #507,#529,#546,#563,#575,#597,#614,#631,#643,#660,#677));
#17 = ADVANCED_FACE('',(#18),#52,.F.);
#18 = FACE_BOUND('',#19,.F.);
#19 = EDGE_LOOP('',(#20,#30,#38,#46));
#20 = ORIENTED_EDGE('',*,*,#21,.F.);
#21 = EDGE_CURVE('',#22,#24,#26,.T.);
#22 = VERTEX_POINT('',#23);
#23 = CARTESIAN_POINT('',(2.E-15,23.,3.));
#24 = VERTEX_POINT('',#25);
#25 = CARTESIAN_POINT('',(-1.8E-14,23.,62.));
#26 = LINE('',#27,#28);
#27 = CARTESIAN_POINT('',(-5.11E-15,23.,-7.66E-15));
#28 = VECTOR('',#29,1.);
#29 = DIRECTION('',(-3.3E-16,-1.1E-16,1.));
#30 = ORIENTED_EDGE('',*,*,#31,.T.);
#31 = EDGE_CURVE('',#22,#32,#34,.T.);
#32 = VERTEX_POINT('',#33);
#33 = CARTESIAN_POINT('',(4.,23.,3.));
#34 = LINE('',#35,#36);
#35 = CARTESIAN_POINT('',(-3.3E-16,23.,3.));
#36 = VECTOR('',#37,1.);
#37 = DIRECTION('',(1.,-2.2E-16,1.1E-16));
#38 = ORIENTED_EDGE('',*,*,#39,.T.);
#39 = EDGE_CURVE('',#32,#40,#42,.T.);
#40 = VERTEX_POINT('',#41);
#41 = CARTESIAN_POINT('',(4.,23.,62.));
#42 = LINE('',#43,#44);
#43 = CARTESIAN_POINT('',(4.,23.,-8.881784197001E-15));
#44 = VECTOR('',#45,1.);
#45 = DIRECTION('',(-3.3E-16,-1.1E-16,1.));
#46 = ORIENTED_EDGE('',*,*,#47,.F.);
#47 = EDGE_CURVE('',#24,#40,#48,.T.);
#48 = LINE('',#49,#50);
#49 = CARTESIAN_POINT('',(-2.132E-14,23.,62.));
#50 = VECTOR('',#51,1.);
#51 = DIRECTION('',(1.,-2.2E-16,1.1E-16));
#52 = PLANE('',#53);
#53 = AXIS2_PLACEMENT_3D('',#54,#55,#56);
#54 = CARTESIAN_POINT('',(0.,23.,-7.66E-15));
#55 = DIRECTION('',(-2.2E-16,-1.,1.1E-16));
#56 = DIRECTION('',(-3.3E-16,1.1E-16,1.));
#57 = ADVANCED_FACE('',(#58,#119,#153,#187,#198,#209),#220,.F.);
#58 = FACE_BOUND('',#59,.F.);
#59 = EDGE_LOOP('',(#60,#61,#70,#78,#87,#95,#104,#112));
#60 = ORIENTED_EDGE('',*,*,#21,.T.);
#61 = ORIENTED_EDGE('',*,*,#62,.T.);
#62 = EDGE_CURVE('',#24,#63,#65,.T.);
#63 = VERTEX_POINT('',#64);
#64 = CARTESIAN_POINT('',(-1.9E-14,20.,65.));
#65 = CIRCLE('',#66,3.);
#66 = AXIS2_PLACEMENT_3D('',#67,#68,#69);
#67 = CARTESIAN_POINT('',(-1.257E-14,20.,62.));
#68 = DIRECTION('',(1.,-2.2E-16,1.1E-16));
#69 = DIRECTION('',(-2.2E-16,-1.,1.1E-16));
#70 = ORIENTED_EDGE('',*,*,#71,.T.);
#71 = EDGE_CURVE('',#63,#72,#74,.T.);
#72 = VERTEX_POINT('',#73);
#73 = CARTESIAN_POINT('',(-2.1E-14,3.,65.));
#74 = LINE('',#75,#76);
#75 = CARTESIAN_POINT('',(-2.676E-14,23.,65.));
#76 = VECTOR('',#77,1.);
#77 = DIRECTION('',(2.2E-16,-1.,3.3E-16));
#78 = ORIENTED_EDGE('',*,*,#79,.T.);
#79 = EDGE_CURVE('',#72,#80,#82,.T.);
#80 = VERTEX_POINT('',#81);
#81 = CARTESIAN_POINT('',(-2.1E-14,1.4E-14,62.));
#82 = CIRCLE('',#83,3.);
#83 = AXIS2_PLACEMENT_3D('',#84,#85,#86);
#84 = CARTESIAN_POINT('',(-1.634E-14,3.,62.));
#85 = DIRECTION('',(1.,-2.2E-16,1.1E-16));
#86 = DIRECTION('',(-2.2E-16,-1.,1.1E-16));
#87 = ORIENTED_EDGE('',*,*,#88,.T.);
#88 = EDGE_CURVE('',#80,#89,#91,.T.);
#89 = VERTEX_POINT('',#90);
#90 = CARTESIAN_POINT('',(-1.E-15,1.E-15,3.));
#91 = LINE('',#92,#93);
#92 = CARTESIAN_POINT('',(-2.165E-14,-7.22E-15,65.));
#93 = VECTOR('',#94,1.);
#94 = DIRECTION('',(3.3E-16,1.1E-16,-1.));
#95 = ORIENTED_EDGE('',*,*,#96,.T.);
#96 = EDGE_CURVE('',#89,#97,#99,.T.);
#97 = VERTEX_POINT('',#98);
#98 = CARTESIAN_POINT('',(0.,3.,-2.E-15));
#99 = CIRCLE('',#100,3.);
#100 = AXIS2_PLACEMENT_3D('',#101,#102,#103);
#101 = CARTESIAN_POINT('',(-9.79E-15,3.,3.));
#102 = DIRECTION('',(1.,-2.2E-16,1.1E-16));
#103 = DIRECTION('',(-2.2E-16,-1.,1.1E-16));
#104 = ORIENTED_EDGE('',*,*,#105,.T.);
#105 = EDGE_CURVE('',#97,#106,#108,.T.);
#106 = VERTEX_POINT('',#107);
#107 = CARTESIAN_POINT('',(2.E-15,20.,-9.E-15));
#108 = LINE('',#109,#110);
#109 = CARTESIAN_POINT('',(0.,0.,0.));
#110 = VECTOR('',#111,1.);
#111 = DIRECTION('',(-2.2E-16,1.,-3.3E-16));
#112 = ORIENTED_EDGE('',*,*,#113,.F.);
#113 = EDGE_CURVE('',#22,#106,#114,.T.);
#114 = CIRCLE('',#115,3.);
#115 = AXIS2_PLACEMENT_3D('',#116,#117,#118);
#116 = CARTESIAN_POINT('',(-6.02E-15,20.,3.));
#117 = DIRECTION('',(-1.,2.2E-16,-1.1E-16));
#118 = DIRECTION('',(-2.2E-16,-1.,1.1E-16));
#119 = FACE_BOUND('',#120,.T.);
#120 = EDGE_LOOP('',(#121,#131,#139,#147));
#121 = ORIENTED_EDGE('',*,*,#122,.T.);
#122 = EDGE_CURVE('',#123,#125,#127,.T.);
#123 = VERTEX_POINT('',#124);
#124 = CARTESIAN_POINT('',(-1.9E-14,12.,61.));
#125 = VERTEX_POINT('',#126);
#126 = CARTESIAN_POINT('',(-1.7E-14,12.,55.));
#127 = LINE('',#128,#129);
#128 = CARTESIAN_POINT('',(-2.298E-14,12.,61.));
#129 = VECTOR('',#130,1.);
#130 = DIRECTION('',(3.3E-16,1.1E-16,-1.));
#131 = ORIENTED_EDGE('',*,*,#132,.T.);
#132 = EDGE_CURVE('',#125,#133,#135,.T.);
#133 = VERTEX_POINT('',#134);
#134 = CARTESIAN_POINT('',(-1.7E-14,14.,55.));
#135 = LINE('',#136,#137);
#136 = CARTESIAN_POINT('',(-2.098E-14,12.,55.));
#137 = VECTOR('',#138,1.);
#138 = DIRECTION('',(-2.2E-16,1.,-3.3E-16));
#139 = ORIENTED_EDGE('',*,*,#140,.T.);
#140 = EDGE_CURVE('',#133,#141,#143,.T.);
#141 = VERTEX_POINT('',#142);
#142 = CARTESIAN_POINT('',(-1.9E-14,14.,61.));
#143 = LINE('',#144,#145);
#144 = CARTESIAN_POINT('',(-2.143E-14,14.,55.));
#145 = VECTOR('',#146,1.);
#146 = DIRECTION('',(-3.3E-16,-1.1E-16,1.));
#147 = ORIENTED_EDGE('',*,*,#148,.T.);
#148 = EDGE_CURVE('',#141,#123,#149,.T.);
#149 = LINE('',#150,#151);
#150 = CARTESIAN_POINT('',(-2.343E-14,14.,61.));
#151 = VECTOR('',#152,1.);
#152 = DIRECTION('',(2.2E-16,-1.,3.3E-16));
#153 = FACE_BOUND('',#154,.T.);
#154 = EDGE_LOOP('',(#155,#165,#173,#181));
#155 = ORIENTED_EDGE('',*,*,#156,.T.);
#156 = EDGE_CURVE('',#157,#159,#161,.T.);
#157 = VERTEX_POINT('',#158);
#158 = CARTESIAN_POINT('',(-2.E-14,6.,61.));
#159 = VERTEX_POINT('',#160);
#160 = CARTESIAN_POINT('',(-1.8E-14,6.,55.));
#161 = LINE('',#162,#163);
#162 = CARTESIAN_POINT('',(-2.165E-14,6.,61.));
#163 = VECTOR('',#164,1.);
#164 = DIRECTION('',(3.3E-16,1.1E-16,-1.));
#165 = ORIENTED_EDGE('',*,*,#166,.T.);
#166 = EDGE_CURVE('',#159,#167,#169,.T.);
#167 = VERTEX_POINT('',#168);
#168 = CARTESIAN_POINT('',(-1.7E-14,8.,55.));
#169 = LINE('',#170,#171);
#170 = CARTESIAN_POINT('',(-1.965E-14,6.,55.));
#171 = VECTOR('',#172,1.);
#172 = DIRECTION('',(-2.2E-16,1.,-3.3E-16));
#173 = ORIENTED_EDGE('',*,*,#174,.T.);
#174 = EDGE_CURVE('',#167,#175,#177,.T.);
#175 = VERTEX_POINT('',#176);
#176 = CARTESIAN_POINT('',(-1.9E-14,8.,61.));
#177 = LINE('',#178,#179);
#178 = CARTESIAN_POINT('',(-2.01E-14,8.,55.));
#179 = VECTOR('',#180,1.);
#180 = DIRECTION('',(-3.3E-16,-1.1E-16,1.));
#181 = ORIENTED_EDGE('',*,*,#182,.T.);
#182 = EDGE_CURVE('',#175,#157,#183,.T.);
#183 = LINE('',#184,#185);
#184 = CARTESIAN_POINT('',(-2.209E-14,8.,61.));
#185 = VECTOR('',#186,1.);
#186 = DIRECTION('',(2.2E-16,-1.,3.3E-16));
#187 = FACE_BOUND('',#188,.T.);
#188 = EDGE_LOOP('',(#189));
#189 = ORIENTED_EDGE('',*,*,#190,.T.);
#190 = EDGE_CURVE('',#191,#191,#193,.T.);
#191 = VERTEX_POINT('',#192);
#192 = CARTESIAN_POINT('',(0.,12.25,5.));
#193 = CIRCLE('',#194,1.75);
#194 = AXIS2_PLACEMENT_3D('',#195,#196,#197);
#195 = CARTESIAN_POINT('',(-4.E-15,10.5,5.));
#196 = DIRECTION('',(1.,2.2E-16,3.3E-16));
#197 = DIRECTION('',(-2.2E-16,1.,-3.3E-16));
#198 = FACE_BOUND('',#199,.T.);
#199 = EDGE_LOOP('',(#200));
#200 = ORIENTED_EDGE('',*,*,#201,.T.);
#201 = EDGE_CURVE('',#202,#202,#204,.T.);
#202 = VERTEX_POINT('',#203);
#203 = CARTESIAN_POINT('',(-6.E-15,12.25,22.));
#204 = CIRCLE('',#205,1.75);
#205 = AXIS2_PLACEMENT_3D('',#206,#207,#208);
#206 = CARTESIAN_POINT('',(-9.66E-15,10.5,22.));
#207 = DIRECTION('',(1.,2.2E-16,3.3E-16));
#208 = DIRECTION('',(-2.2E-16,1.,-3.3E-16));
#209 = FACE_BOUND('',#210,.T.);
#210 = EDGE_LOOP('',(#211));
#211 = ORIENTED_EDGE('',*,*,#212,.T.);
#212 = EDGE_CURVE('',#213,#213,#215,.T.);
#213 = VERTEX_POINT('',#214);
#214 = CARTESIAN_POINT('',(-5.E-15,20.75,22.));
#215 = CIRCLE('',#216,1.75);
#216 = AXIS2_PLACEMENT_3D('',#217,#218,#219);
#217 = CARTESIAN_POINT('',(-1.155E-14,19.,22.));
#218 = DIRECTION('',(1.,2.2E-16,3.3E-16));
#219 = DIRECTION('',(-2.2E-16,1.,-3.3E-16));
#220 = PLANE('',#221);
#221 = AXIS2_PLACEMENT_3D('',#222,#223,#224);
#222 = CARTESIAN_POINT('',(-1.391E-14,11.508555630644,34.093747371315));
#223 = DIRECTION('',(1.,-2.2E-16,-1.1E-16));
#224 = DIRECTION('',(1.1E-16,-1.1E-16,1.));
#225 = ADVANCED_FACE('',(#226),#245,.T.);
#226 = FACE_BOUND('',#227,.F.);
#227 = EDGE_LOOP('',(#228,#229,#237,#244));
#228 = ORIENTED_EDGE('',*,*,#113,.T.);
#229 = ORIENTED_EDGE('',*,*,#230,.T.);
#230 = EDGE_CURVE('',#106,#231,#233,.T.);
#231 = VERTEX_POINT('',#232);
#232 = CARTESIAN_POINT('',(4.,20.,-8.E-15));
#233 = LINE('',#234,#235);
#234 = CARTESIAN_POINT('',(-6.7E-16,20.,-6.66E-15));
#235 = VECTOR('',#236,1.);
#236 = DIRECTION('',(1.,-2.2E-16,1.1E-16));
#237 = ORIENTED_EDGE('',*,*,#238,.F.);
#238 = EDGE_CURVE('',#32,#231,#239,.T.);
#239 = CIRCLE('',#240,3.);
#240 = AXIS2_PLACEMENT_3D('',#241,#242,#243);
#241 = CARTESIAN_POINT('',(4.,20.,3.));
#242 = DIRECTION('',(-1.,2.2E-16,-1.1E-16));
#243 = DIRECTION('',(-2.2E-16,-1.,1.1E-16));
#244 = ORIENTED_EDGE('',*,*,#31,.F.);
#245 = CYLINDRICAL_SURFACE('',#246,3.);
#246 = AXIS2_PLACEMENT_3D('',#247,#248,#249);
#247 = CARTESIAN_POINT('',(-1.E-15,20.,3.));
#248 = DIRECTION('',(1.,-2.2E-16,1.1E-16));
#249 = DIRECTION('',(2.2E-16,1.,-1.1E-16));
#250 = ADVANCED_FACE('',(#251),#270,.T.);
#251 = FACE_BOUND('',#252,.T.);
#252 = EDGE_LOOP('',(#253,#254,#262,#269));
#253 = ORIENTED_EDGE('',*,*,#62,.T.);
#254 = ORIENTED_EDGE('',*,*,#255,.T.);
#255 = EDGE_CURVE('',#63,#256,#258,.T.);
#256 = VERTEX_POINT('',#257);
#257 = CARTESIAN_POINT('',(4.,20.,65.));
#258 = LINE('',#259,#260);
#259 = CARTESIAN_POINT('',(-2.232E-14,20.,65.));
#260 = VECTOR('',#261,1.);
#261 = DIRECTION('',(1.,-2.2E-16,1.1E-16));
#262 = ORIENTED_EDGE('',*,*,#263,.F.);
#263 = EDGE_CURVE('',#40,#256,#264,.T.);
#264 = CIRCLE('',#265,3.);
#265 = AXIS2_PLACEMENT_3D('',#266,#267,#268);
#266 = CARTESIAN_POINT('',(4.,20.,62.));
#267 = DIRECTION('',(1.,-2.2E-16,1.1E-16));
#268 = DIRECTION('',(-2.2E-16,-1.,1.1E-16));
#269 = ORIENTED_EDGE('',*,*,#47,.F.);
#270 = CYLINDRICAL_SURFACE('',#271,3.);
#271 = AXIS2_PLACEMENT_3D('',#272,#273,#274);
#272 = CARTESIAN_POINT('',(-2.198E-14,20.,62.));
#273 = DIRECTION('',(1.,-2.2E-16,1.1E-16));
#274 = DIRECTION('',(2.2E-16,1.,-1.1E-16));
#275 = ADVANCED_FACE('',(#276,#321,#355,#389,#400,#411),#422,.T.);
#276 = FACE_BOUND('',#277,.T.);
#277 = EDGE_LOOP('',(#278,#279,#280,#288,#297,#305,#314,#320));
#278 = ORIENTED_EDGE('',*,*,#39,.T.);
#279 = ORIENTED_EDGE('',*,*,#263,.T.);
#280 = ORIENTED_EDGE('',*,*,#281,.T.);
#281 = EDGE_CURVE('',#256,#282,#284,.T.);
#282 = VERTEX_POINT('',#283);
#283 = CARTESIAN_POINT('',(4.,3.,65.));
#284 = LINE('',#285,#286);
#285 = CARTESIAN_POINT('',(4.,23.,65.));
#286 = VECTOR('',#287,1.);
#287 = DIRECTION('',(2.2E-16,-1.,3.3E-16));
#288 = ORIENTED_EDGE('',*,*,#289,.T.);
#289 = EDGE_CURVE('',#282,#290,#292,.T.);
#290 = VERTEX_POINT('',#291);
#291 = CARTESIAN_POINT('',(4.,1.2E-14,62.));
#292 = CIRCLE('',#293,3.);
#293 = AXIS2_PLACEMENT_3D('',#294,#295,#296);
#294 = CARTESIAN_POINT('',(4.,3.,62.));
#295 = DIRECTION('',(1.,-2.2E-16,1.1E-16));
#296 = DIRECTION('',(-2.2E-16,-1.,1.1E-16));
#297 = ORIENTED_EDGE('',*,*,#298,.T.);
#298 = EDGE_CURVE('',#290,#299,#301,.T.);
#299 = VERTEX_POINT('',#300);
#300 = CARTESIAN_POINT('',(4.,-1.E-15,3.));
#301 = LINE('',#302,#303);
#302 = CARTESIAN_POINT('',(4.,-7.22E-15,65.));
#303 = VECTOR('',#304,1.);
#304 = DIRECTION('',(3.3E-16,1.1E-16,-1.));
#305 = ORIENTED_EDGE('',*,*,#306,.T.);
#306 = EDGE_CURVE('',#299,#307,#309,.T.);
#307 = VERTEX_POINT('',#308);
#308 = CARTESIAN_POINT('',(4.,3.,-2.E-15));
#309 = CIRCLE('',#310,3.);
#310 = AXIS2_PLACEMENT_3D('',#311,#312,#313);
#311 = CARTESIAN_POINT('',(4.,3.,3.));
#312 = DIRECTION('',(1.,-2.2E-16,1.1E-16));
#313 = DIRECTION('',(-2.2E-16,-1.,1.1E-16));
#314 = ORIENTED_EDGE('',*,*,#315,.T.);
#315 = EDGE_CURVE('',#307,#231,#316,.T.);
#316 = LINE('',#317,#318);
#317 = CARTESIAN_POINT('',(4.,0.,-8.881784197001E-16));
#318 = VECTOR('',#319,1.);
#319 = DIRECTION('',(-2.2E-16,1.,-3.3E-16));
#320 = ORIENTED_EDGE('',*,*,#238,.F.);
#321 = FACE_BOUND('',#322,.F.);
#322 = EDGE_LOOP('',(#323,#333,#341,#349));
#323 = ORIENTED_EDGE('',*,*,#324,.T.);
#324 = EDGE_CURVE('',#325,#327,#329,.T.);
#325 = VERTEX_POINT('',#326);
#326 = CARTESIAN_POINT('',(4.,12.,61.));
#327 = VERTEX_POINT('',#328);
#328 = CARTESIAN_POINT('',(4.,12.,55.));
#329 = LINE('',#330,#331);
#330 = CARTESIAN_POINT('',(4.,12.,61.));
#331 = VECTOR('',#332,1.);
#332 = DIRECTION('',(3.3E-16,1.1E-16,-1.));
#333 = ORIENTED_EDGE('',*,*,#334,.T.);
#334 = EDGE_CURVE('',#327,#335,#337,.T.);
#335 = VERTEX_POINT('',#336);
#336 = CARTESIAN_POINT('',(4.,14.,55.));
#337 = LINE('',#338,#339);
#338 = CARTESIAN_POINT('',(4.,12.,55.));
#339 = VECTOR('',#340,1.);
#340 = DIRECTION('',(-2.2E-16,1.,-3.3E-16));
#341 = ORIENTED_EDGE('',*,*,#342,.T.);
#342 = EDGE_CURVE('',#335,#343,#345,.T.);
#343 = VERTEX_POINT('',#344);
#344 = CARTESIAN_POINT('',(4.,14.,61.));
#345 = LINE('',#346,#347);
#346 = CARTESIAN_POINT('',(4.,14.,55.));
#347 = VECTOR('',#348,1.);
#348 = DIRECTION('',(-3.3E-16,-1.1E-16,1.));
#349 = ORIENTED_EDGE('',*,*,#350,.T.);
#350 = EDGE_CURVE('',#343,#325,#351,.T.);
#351 = LINE('',#352,#353);
#352 = CARTESIAN_POINT('',(4.,14.,61.));
#353 = VECTOR('',#354,1.);
#354 = DIRECTION('',(2.2E-16,-1.,3.3E-16));
#355 = FACE_BOUND('',#356,.F.);
#356 = EDGE_LOOP('',(#357,#367,#375,#383));
#357 = ORIENTED_EDGE('',*,*,#358,.T.);
#358 = EDGE_CURVE('',#359,#361,#363,.T.);
#359 = VERTEX_POINT('',#360);
#360 = CARTESIAN_POINT('',(4.,6.,61.));
#361 = VERTEX_POINT('',#362);
#362 = CARTESIAN_POINT('',(4.,6.,55.));
#363 = LINE('',#364,#365);
#364 = CARTESIAN_POINT('',(4.,6.,61.));
#365 = VECTOR('',#366,1.);
#366 = DIRECTION('',(3.3E-16,1.1E-16,-1.));
#367 = ORIENTED_EDGE('',*,*,#368,.T.);
#368 = EDGE_CURVE('',#361,#369,#371,.T.);
#369 = VERTEX_POINT('',#370);
#370 = CARTESIAN_POINT('',(4.,8.,55.));
#371 = LINE('',#372,#373);
#372 = CARTESIAN_POINT('',(4.,6.,55.));
#373 = VECTOR('',#374,1.);
#374 = DIRECTION('',(-2.2E-16,1.,-3.3E-16));
#375 = ORIENTED_EDGE('',*,*,#376,.T.);
#376 = EDGE_CURVE('',#369,#377,#379,.T.);
#377 = VERTEX_POINT('',#378);
#378 = CARTESIAN_POINT('',(4.,8.,61.));
#379 = LINE('',#380,#381);
#380 = CARTESIAN_POINT('',(4.,8.,55.));
#381 = VECTOR('',#382,1.);
#382 = DIRECTION('',(-3.3E-16,-1.1E-16,1.));
#383 = ORIENTED_EDGE('',*,*,#384,.T.);
#384 = EDGE_CURVE('',#377,#359,#385,.T.);
#385 = LINE('',#386,#387);
#386 = CARTESIAN_POINT('',(4.,8.,61.));
#387 = VECTOR('',#388,1.);
#388 = DIRECTION('',(2.2E-16,-1.,3.3E-16));
#389 = FACE_BOUND('',#390,.F.);
#390 = EDGE_LOOP('',(#391));
#391 = ORIENTED_EDGE('',*,*,#392,.T.);
#392 = EDGE_CURVE('',#393,#393,#395,.T.);
#393 = VERTEX_POINT('',#394);
#394 = CARTESIAN_POINT('',(4.,12.25,5.));
#395 = CIRCLE('',#396,1.75);
#396 = AXIS2_PLACEMENT_3D('',#397,#398,#399);
#397 = CARTESIAN_POINT('',(4.,10.5,5.));
#398 = DIRECTION('',(1.,2.2E-16,3.3E-16));
#399 = DIRECTION('',(-2.2E-16,1.,-3.3E-16));
#400 = FACE_BOUND('',#401,.F.);
#401 = EDGE_LOOP('',(#402));
#402 = ORIENTED_EDGE('',*,*,#403,.T.);
#403 = EDGE_CURVE('',#404,#404,#406,.T.);
#404 = VERTEX_POINT('',#405);
#405 = CARTESIAN_POINT('',(4.,12.25,22.));
#406 = CIRCLE('',#407,1.75);
#407 = AXIS2_PLACEMENT_3D('',#408,#409,#410);
#408 = CARTESIAN_POINT('',(4.,10.5,22.));
#409 = DIRECTION('',(1.,2.2E-16,3.3E-16));
#410 = DIRECTION('',(-2.2E-16,1.,-3.3E-16));
#411 = FACE_BOUND('',#412,.F.);
#412 = EDGE_LOOP('',(#413));
#413 = ORIENTED_EDGE('',*,*,#414,.T.);
#414 = EDGE_CURVE('',#415,#415,#417,.T.);
#415 = VERTEX_POINT('',#416);
#416 = CARTESIAN_POINT('',(4.,20.75,22.));
#417 = CIRCLE('',#418,1.75);
#418 = AXIS2_PLACEMENT_3D('',#419,#420,#421);
#419 = CARTESIAN_POINT('',(4.,19.,22.));
#420 = DIRECTION('',(1.,2.2E-16,3.3E-16));
#421 = DIRECTION('',(-2.2E-16,1.,-3.3E-16));
#422 = PLANE('',#423);
#423 = AXIS2_PLACEMENT_3D('',#424,#425,#426);
#424 = CARTESIAN_POINT('',(4.,11.508555630644,34.093747371315));
#425 = DIRECTION('',(1.,-2.2E-16,-1.1E-16));
#426 = DIRECTION('',(1.1E-16,-1.1E-16,1.));
#427 = ADVANCED_FACE('',(#428),#439,.F.);
#428 = FACE_BOUND('',#429,.F.);
#429 = EDGE_LOOP('',(#430,#431,#437,#438));
#430 = ORIENTED_EDGE('',*,*,#105,.F.);
#431 = ORIENTED_EDGE('',*,*,#432,.T.);
#432 = EDGE_CURVE('',#97,#307,#433,.T.);
#433 = LINE('',#434,#435);
#434 = CARTESIAN_POINT('',(6.7E-16,3.,-1.67E-15));
#435 = VECTOR('',#436,1.);
#436 = DIRECTION('',(1.,-2.2E-16,1.1E-16));
#437 = ORIENTED_EDGE('',*,*,#315,.T.);
#438 = ORIENTED_EDGE('',*,*,#230,.F.);
#439 = PLANE('',#440);
#440 = AXIS2_PLACEMENT_3D('',#441,#442,#443);
#441 = CARTESIAN_POINT('',(0.,0.,0.));
#442 = DIRECTION('',(-1.1E-16,3.3E-16,1.));
#443 = DIRECTION('',(0.,1.,-3.3E-16));
#444 = ADVANCED_FACE('',(#445),#456,.F.);
#445 = FACE_BOUND('',#446,.F.);
#446 = EDGE_LOOP('',(#447,#448,#449,#450));
#447 = ORIENTED_EDGE('',*,*,#71,.F.);
#448 = ORIENTED_EDGE('',*,*,#255,.T.);
#449 = ORIENTED_EDGE('',*,*,#281,.T.);
#450 = ORIENTED_EDGE('',*,*,#451,.F.);
#451 = EDGE_CURVE('',#72,#282,#452,.T.);
#452 = LINE('',#453,#454);
#453 = CARTESIAN_POINT('',(-2.098E-14,3.,65.));
#454 = VECTOR('',#455,1.);
#455 = DIRECTION('',(1.,-2.2E-16,1.1E-16));
#456 = PLANE('',#457);
#457 = AXIS2_PLACEMENT_3D('',#458,#459,#460);
#458 = CARTESIAN_POINT('',(-2.165E-14,23.,65.));
#459 = DIRECTION('',(1.1E-16,-3.3E-16,-1.));
#460 = DIRECTION('',(0.,-1.,3.3E-16));
#461 = ADVANCED_FACE('',(#462),#473,.T.);
#462 = FACE_BOUND('',#463,.T.);
#463 = EDGE_LOOP('',(#464,#465,#466,#467));
#464 = ORIENTED_EDGE('',*,*,#96,.T.);
#465 = ORIENTED_EDGE('',*,*,#432,.T.);
#466 = ORIENTED_EDGE('',*,*,#306,.F.);
#467 = ORIENTED_EDGE('',*,*,#468,.F.);
#468 = EDGE_CURVE('',#89,#299,#469,.T.);
#469 = LINE('',#470,#471);
#470 = CARTESIAN_POINT('',(-3.3E-16,3.3E-16,3.));
#471 = VECTOR('',#472,1.);
#472 = DIRECTION('',(1.,-2.2E-16,1.1E-16));
#473 = CYLINDRICAL_SURFACE('',#474,3.);
#474 = AXIS2_PLACEMENT_3D('',#475,#476,#477);
#475 = CARTESIAN_POINT('',(3.3E-16,3.,3.));
#476 = DIRECTION('',(1.,-2.2E-16,1.1E-16));
#477 = DIRECTION('',(-2.2E-16,-1.,1.1E-16));
#478 = ADVANCED_FACE('',(#479),#490,.T.);
#479 = FACE_BOUND('',#480,.T.);
#480 = EDGE_LOOP('',(#481,#482,#488,#489));
#481 = ORIENTED_EDGE('',*,*,#79,.T.);
#482 = ORIENTED_EDGE('',*,*,#483,.T.);
#483 = EDGE_CURVE('',#80,#290,#484,.T.);
#484 = LINE('',#485,#486);
#485 = CARTESIAN_POINT('',(-2.132E-14,6.88E-15,62.));
#486 = VECTOR('',#487,1.);
#487 = DIRECTION('',(1.,-2.2E-16,1.1E-16));
#488 = ORIENTED_EDGE('',*,*,#289,.F.);
#489 = ORIENTED_EDGE('',*,*,#451,.F.);
#490 = CYLINDRICAL_SURFACE('',#491,3.);
#491 = AXIS2_PLACEMENT_3D('',#492,#493,#494);
#492 = CARTESIAN_POINT('',(-2.065E-14,3.,62.));
#493 = DIRECTION('',(1.,-2.2E-16,1.1E-16));
#494 = DIRECTION('',(-1.1E-16,3.3E-16,1.));
#495 = ADVANCED_FACE('',(#496),#502,.F.);
#496 = FACE_BOUND('',#497,.F.);
#497 = EDGE_LOOP('',(#498,#499,#500,#501));
#498 = ORIENTED_EDGE('',*,*,#88,.F.);
#499 = ORIENTED_EDGE('',*,*,#483,.T.);
#500 = ORIENTED_EDGE('',*,*,#298,.T.);
#501 = ORIENTED_EDGE('',*,*,#468,.F.);
#502 = PLANE('',#503);
#503 = AXIS2_PLACEMENT_3D('',#504,#505,#506);
#504 = CARTESIAN_POINT('',(-2.165E-14,7.22E-15,65.));
#505 = DIRECTION('',(2.2E-16,1.,-1.1E-16));
#506 = DIRECTION('',(3.3E-16,-1.1E-16,-1.));
#507 = ADVANCED_FACE('',(#508),#524,.T.);
#508 = FACE_BOUND('',#509,.T.);
#509 = EDGE_LOOP('',(#510,#516,#517,#523));
#510 = ORIENTED_EDGE('',*,*,#511,.T.);
#511 = EDGE_CURVE('',#123,#325,#512,.T.);
#512 = LINE('',#513,#514);
#513 = CARTESIAN_POINT('',(-2.032E-14,12.,61.));
#514 = VECTOR('',#515,1.);
#515 = DIRECTION('',(1.,-2.2E-16,1.1E-16));
#516 = ORIENTED_EDGE('',*,*,#324,.T.);
#517 = ORIENTED_EDGE('',*,*,#518,.F.);
#518 = EDGE_CURVE('',#125,#327,#519,.T.);
#519 = LINE('',#520,#521);
#520 = CARTESIAN_POINT('',(-1.832E-14,12.,55.));
#521 = VECTOR('',#522,1.);
#522 = DIRECTION('',(1.,-2.2E-16,1.1E-16));
#523 = ORIENTED_EDGE('',*,*,#122,.F.);
#524 = PLANE('',#525);
#525 = AXIS2_PLACEMENT_3D('',#526,#527,#528);
#526 = CARTESIAN_POINT('',(-2.032E-14,12.,61.));
#527 = DIRECTION('',(2.2E-16,1.,-1.1E-16));
#528 = DIRECTION('',(3.3E-16,-1.1E-16,-1.));
#529 = ADVANCED_FACE('',(#530),#541,.T.);
#530 = FACE_BOUND('',#531,.T.);
#531 = EDGE_LOOP('',(#532,#533,#534,#540));
#532 = ORIENTED_EDGE('',*,*,#518,.T.);
#533 = ORIENTED_EDGE('',*,*,#334,.T.);
#534 = ORIENTED_EDGE('',*,*,#535,.F.);
#535 = EDGE_CURVE('',#133,#335,#536,.T.);
#536 = LINE('',#537,#538);
#537 = CARTESIAN_POINT('',(-1.832E-14,14.,55.));
#538 = VECTOR('',#539,1.);
#539 = DIRECTION('',(1.,-2.2E-16,1.1E-16));
#540 = ORIENTED_EDGE('',*,*,#132,.F.);
#541 = PLANE('',#542);
#542 = AXIS2_PLACEMENT_3D('',#543,#544,#545);
#543 = CARTESIAN_POINT('',(-1.832E-14,12.,55.));
#544 = DIRECTION('',(-1.1E-16,3.3E-16,1.));
#545 = DIRECTION('',(0.,1.,-3.3E-16));
#546 = ADVANCED_FACE('',(#547),#558,.T.);
#547 = FACE_BOUND('',#548,.T.);
#548 = EDGE_LOOP('',(#549,#550,#551,#557));
#549 = ORIENTED_EDGE('',*,*,#535,.T.);
#550 = ORIENTED_EDGE('',*,*,#342,.T.);
#551 = ORIENTED_EDGE('',*,*,#552,.F.);
#552 = EDGE_CURVE('',#141,#343,#553,.T.);
#553 = LINE('',#554,#555);
#554 = CARTESIAN_POINT('',(-2.032E-14,14.,61.));
#555 = VECTOR('',#556,1.);
#556 = DIRECTION('',(1.,-2.2E-16,1.1E-16));
#557 = ORIENTED_EDGE('',*,*,#140,.F.);
#558 = PLANE('',#559);
#559 = AXIS2_PLACEMENT_3D('',#560,#561,#562);
#560 = CARTESIAN_POINT('',(-1.832E-14,14.,55.));
#561 = DIRECTION('',(-2.2E-16,-1.,1.1E-16));
#562 = DIRECTION('',(-3.3E-16,1.1E-16,1.));
#563 = ADVANCED_FACE('',(#564),#570,.T.);
#564 = FACE_BOUND('',#565,.T.);
#565 = EDGE_LOOP('',(#566,#567,#568,#569));
#566 = ORIENTED_EDGE('',*,*,#552,.T.);
#567 = ORIENTED_EDGE('',*,*,#350,.T.);
#568 = ORIENTED_EDGE('',*,*,#511,.F.);
#569 = ORIENTED_EDGE('',*,*,#148,.F.);
#570 = PLANE('',#571);
#571 = AXIS2_PLACEMENT_3D('',#572,#573,#574);
#572 = CARTESIAN_POINT('',(-2.032E-14,14.,61.));
#573 = DIRECTION('',(1.1E-16,-3.3E-16,-1.));
#574 = DIRECTION('',(0.,-1.,3.3E-16));
#575 = ADVANCED_FACE('',(#576),#592,.T.);
#576 = FACE_BOUND('',#577,.T.);
#577 = EDGE_LOOP('',(#578,#584,#585,#591));
#578 = ORIENTED_EDGE('',*,*,#579,.T.);
#579 = EDGE_CURVE('',#157,#359,#580,.T.);
#580 = LINE('',#581,#582);
#581 = CARTESIAN_POINT('',(-2.032E-14,6.,61.));
#582 = VECTOR('',#583,1.);
#583 = DIRECTION('',(1.,-2.2E-16,1.1E-16));
#584 = ORIENTED_EDGE('',*,*,#358,.T.);
#585 = ORIENTED_EDGE('',*,*,#586,.F.);
#586 = EDGE_CURVE('',#159,#361,#587,.T.);
#587 = LINE('',#588,#589);
#588 = CARTESIAN_POINT('',(-1.832E-14,6.,55.));
#589 = VECTOR('',#590,1.);
#590 = DIRECTION('',(1.,-2.2E-16,1.1E-16));
#591 = ORIENTED_EDGE('',*,*,#156,.F.);
#592 = PLANE('',#593);
#593 = AXIS2_PLACEMENT_3D('',#594,#595,#596);
#594 = CARTESIAN_POINT('',(-2.032E-14,6.,61.));
#595 = DIRECTION('',(2.2E-16,1.,-1.1E-16));
#596 = DIRECTION('',(3.3E-16,-1.1E-16,-1.));
#597 = ADVANCED_FACE('',(#598),#609,.T.);
#598 = FACE_BOUND('',#599,.T.);
#599 = EDGE_LOOP('',(#600,#601,#602,#608));
#600 = ORIENTED_EDGE('',*,*,#586,.T.);
#601 = ORIENTED_EDGE('',*,*,#368,.T.);
#602 = ORIENTED_EDGE('',*,*,#603,.F.);
#603 = EDGE_CURVE('',#167,#369,#604,.T.);
#604 = LINE('',#605,#606);
#605 = CARTESIAN_POINT('',(-1.832E-14,8.,55.));
#606 = VECTOR('',#607,1.);
#607 = DIRECTION('',(1.,-2.2E-16,1.1E-16));
#608 = ORIENTED_EDGE('',*,*,#166,.F.);
#609 = PLANE('',#610);
#610 = AXIS2_PLACEMENT_3D('',#611,#612,#613);
#611 = CARTESIAN_POINT('',(-1.832E-14,6.,55.));
#612 = DIRECTION('',(-1.1E-16,3.3E-16,1.));
#613 = DIRECTION('',(0.,1.,-3.3E-16));
#614 = ADVANCED_FACE('',(#615),#626,.T.);
#615 = FACE_BOUND('',#616,.T.);
#616 = EDGE_LOOP('',(#617,#618,#619,#625));
#617 = ORIENTED_EDGE('',*,*,#603,.T.);
#618 = ORIENTED_EDGE('',*,*,#376,.T.);
#619 = ORIENTED_EDGE('',*,*,#620,.F.);
#620 = EDGE_CURVE('',#175,#377,#621,.T.);
#621 = LINE('',#622,#623);
#622 = CARTESIAN_POINT('',(-2.032E-14,8.,61.));
#623 = VECTOR('',#624,1.);
#624 = DIRECTION('',(1.,-2.2E-16,1.1E-16));
#625 = ORIENTED_EDGE('',*,*,#174,.F.);
#626 = PLANE('',#627);
#627 = AXIS2_PLACEMENT_3D('',#628,#629,#630);
#628 = CARTESIAN_POINT('',(-1.832E-14,8.,55.));
#629 = DIRECTION('',(-2.2E-16,-1.,1.1E-16));
#630 = DIRECTION('',(-3.3E-16,1.1E-16,1.));
#631 = ADVANCED_FACE('',(#632),#638,.T.);
#632 = FACE_BOUND('',#633,.T.);
#633 = EDGE_LOOP('',(#634,#635,#636,#637));
#634 = ORIENTED_EDGE('',*,*,#620,.T.);
#635 = ORIENTED_EDGE('',*,*,#384,.T.);
#636 = ORIENTED_EDGE('',*,*,#579,.F.);
#637 = ORIENTED_EDGE('',*,*,#182,.F.);
#638 = PLANE('',#639);
#639 = AXIS2_PLACEMENT_3D('',#640,#641,#642);
#640 = CARTESIAN_POINT('',(-2.032E-14,8.,61.));
#641 = DIRECTION('',(1.1E-16,-3.3E-16,-1.));
#642 = DIRECTION('',(0.,-1.,3.3E-16));
#643 = ADVANCED_FACE('',(#644),#655,.F.);
#644 = FACE_BOUND('',#645,.T.);
#645 = EDGE_LOOP('',(#646,#652,#653,#654));
#646 = ORIENTED_EDGE('',*,*,#647,.T.);
#647 = EDGE_CURVE('',#191,#393,#648,.T.);
#648 = LINE('',#649,#650);
#649 = CARTESIAN_POINT('',(-1.67E-15,12.25,5.));
#650 = VECTOR('',#651,1.);
#651 = DIRECTION('',(1.,-2.2E-16,1.1E-16));
#652 = ORIENTED_EDGE('',*,*,#392,.T.);
#653 = ORIENTED_EDGE('',*,*,#647,.F.);
#654 = ORIENTED_EDGE('',*,*,#190,.F.);
#655 = CYLINDRICAL_SURFACE('',#656,1.75);
#656 = AXIS2_PLACEMENT_3D('',#657,#658,#659);
#657 = CARTESIAN_POINT('',(-1.67E-15,10.5,5.));
#658 = DIRECTION('',(-1.,-0.,-3.3E-16));
#659 = DIRECTION('',(1.089E-31,1.,-3.3E-16));
#660 = ADVANCED_FACE('',(#661),#672,.F.);
#661 = FACE_BOUND('',#662,.T.);
#662 = EDGE_LOOP('',(#663,#669,#670,#671));
#663 = ORIENTED_EDGE('',*,*,#664,.T.);
#664 = EDGE_CURVE('',#202,#404,#665,.T.);
#665 = LINE('',#666,#667);
#666 = CARTESIAN_POINT('',(-7.33E-15,12.25,22.));
#667 = VECTOR('',#668,1.);
#668 = DIRECTION('',(1.,-2.2E-16,1.1E-16));
#669 = ORIENTED_EDGE('',*,*,#403,.T.);
#670 = ORIENTED_EDGE('',*,*,#664,.F.);
#671 = ORIENTED_EDGE('',*,*,#201,.F.);
#672 = CYLINDRICAL_SURFACE('',#673,1.75);
#673 = AXIS2_PLACEMENT_3D('',#674,#675,#676);
#674 = CARTESIAN_POINT('',(-7.33E-15,10.5,22.));
#675 = DIRECTION('',(-1.,-0.,-3.3E-16));
#676 = DIRECTION('',(1.089E-31,1.,-3.3E-16));
#677 = ADVANCED_FACE('',(#678),#689,.F.);
#678 = FACE_BOUND('',#679,.T.);
#679 = EDGE_LOOP('',(#680,#686,#687,#688));
#680 = ORIENTED_EDGE('',*,*,#681,.T.);
#681 = EDGE_CURVE('',#213,#415,#682,.T.);
#682 = LINE('',#683,#684);
#683 = CARTESIAN_POINT('',(-7.33E-15,20.75,22.));
#684 = VECTOR('',#685,1.);
#685 = DIRECTION('',(1.,-2.2E-16,1.1E-16));
#686 = ORIENTED_EDGE('',*,*,#414,.T.);
#687 = ORIENTED_EDGE('',*,*,#681,.F.);
#688 = ORIENTED_EDGE('',*,*,#212,.F.);
#689 = CYLINDRICAL_SURFACE('',#690,1.75);
#690 = AXIS2_PLACEMENT_3D('',#691,#692,#693);
#691 = CARTESIAN_POINT('',(-7.33E-15,19.,22.));
#692 = DIRECTION('',(-1.,-0.,-3.3E-16));
#693 = DIRECTION('',(1.089E-31,1.,-3.3E-16));
#694 = ( GEOMETRIC_REPRESENTATION_CONTEXT(3) 
GLOBAL_UNCERTAINTY_ASSIGNED_CONTEXT((#698)) GLOBAL_UNIT_ASSIGNED_CONTEXT
((#695,#696,#697)) REPRESENTATION_CONTEXT('Context #1',
  '3D Context with UNIT and UNCERTAINTY') );
#695 = ( LENGTH_UNIT() NAMED_UNIT(*) SI_UNIT(.MILLI.,.METRE.) );
#696 = ( NAMED_UNIT(*) PLANE_ANGLE_UNIT() SI_UNIT($,.RADIAN.) );
#697 = ( NAMED_UNIT(*) SI_UNIT($,.STERADIAN.) SOLID_ANGLE_UNIT() );
#698 = UNCERTAINTY_MEASURE_WITH_UNIT(LENGTH_MEASURE(1.E-07),#695,
  'distance_accuracy_value','confusion accuracy');
#699 = PRODUCT_RELATED_PRODUCT_CATEGORY('part',$,(#7));
#700 = MECHANICAL_DESIGN_GEOMETRIC_PRESENTATION_REPRESENTATION('',(#701)
  ,#694);
#701 = STYLED_ITEM('color',(#702),#15);
#702 = PRESENTATION_STYLE_ASSIGNMENT((#703,#709));
#703 = SURFACE_STYLE_USAGE(.BOTH.,#704);
#704 = SURFACE_SIDE_STYLE('',(#705));
#705 = SURFACE_STYLE_FILL_AREA(#706);
#706 = FILL_AREA_STYLE('',(#707));
#707 = FILL_AREA_STYLE_COLOUR('',#708);
#708 = COLOUR_RGB('',0.196078429142,0.929411760963,0.215686275495);
#709 = CURVE_STYLE('',#710,POSITIVE_LENGTH_MEASURE(0.1),#711);
#710 = DRAUGHTING_PRE_DEFINED_CURVE_FONT('continuous');
#711 = COLOUR_RGB('',9.803921802644E-02,9.803921802644E-02,
  9.803921802644E-02);
ENDSEC;
END-ISO-10303-21;
