ISO-10303-21;
HEADER;
FILE_DESCRIPTION(('FreeCAD Model'),'2;1');
FILE_NAME('Open CASCADE Shape Model','2026-04-28T11:57:07',(''),(''),
  'Open CASCADE STEP processor 7.7','FreeCAD','Unknown');
FILE_SCHEMA(('AUTOMOTIVE_DESIGN { 1 0 10303 214 1 1 1 1 }'));
ENDSEC;
DATA;
#1 = APPLICATION_PROTOCOL_DEFINITION('international standard',
  'automotive_design',2000,#2);
#2 = APPLICATION_CONTEXT(
  'core data for automotive mechanical design processes');
#3 = SHAPE_DEFINITION_REPRESENTATION(#4,#10);
#4 = PRODUCT_DEFINITION_SHAPE('','',#5);
#5 = PRODUCT_DEFINITION('design','',#6,#9);
#6 = PRODUCT_DEFINITION_FORMATION('','',#7);
#7 = PRODUCT('23017Holder','23017Holder','',(#8));
#8 = PRODUCT_CONTEXT('',#2,'mechanical');
#9 = PRODUCT_DEFINITION_CONTEXT('part definition',#2,'design');
#10 = ADVANCED_BREP_SHAPE_REPRESENTATION('',(#11,#15),#2014);
#11 = AXIS2_PLACEMENT_3D('',#12,#13,#14);
#12 = CARTESIAN_POINT('',(0.,0.,0.));
#13 = DIRECTION('',(0.,0.,1.));
#14 = DIRECTION('',(1.,0.,-0.));
#15 = MANIFOLD_SOLID_BREP('',#16);
#16 = CLOSED_SHELL('',(#17,#57,#96,#120,#243,#268,#300,#333,#393,#424,
    #463,#487,#504,#557,#594,#626,#651,#676,#701,#726,#743,#846,#858,
    #880,#897,#914,#926,#950,#974,#1005,#1029,#1053,#1077,#1101,#1125,
    #1149,#1166,#1191,#1216,#1240,#1264,#1288,#1312,#1417,#1441,#1467,
    #1484,#1509,#1534,#1551,#1568,#1585,#1602,#1614,#1645,#1685,#1709,
    #1742,#1759,#1776,#1807,#1831,#1853,#1884,#1908,#1932,#1956,#1973,
    #1985,#2002));
#17 = ADVANCED_FACE('',(#18),#52,.T.);
#18 = FACE_BOUND('',#19,.T.);
#19 = EDGE_LOOP('',(#20,#30,#38,#46));
#20 = ORIENTED_EDGE('',*,*,#21,.T.);
#21 = EDGE_CURVE('',#22,#24,#26,.T.);
#22 = VERTEX_POINT('',#23);
#23 = CARTESIAN_POINT('',(-4.6645352591E-14,8.881784197001E-15,
    39.999999999997));
#24 = VERTEX_POINT('',#25);
#25 = CARTESIAN_POINT('',(-6.,1.25463194561E-14,39.999999999997));
#26 = LINE('',#27,#28);
#27 = CARTESIAN_POINT('',(-6.4478920985E-14,-8.881784197001E-15,
    39.999999999997));
#28 = VECTOR('',#29,1.);
#29 = DIRECTION('',(-1.,1.1081784197E-15,2.22044604925E-16));
#30 = ORIENTED_EDGE('',*,*,#31,.T.);
#31 = EDGE_CURVE('',#24,#32,#34,.T.);
#32 = VERTEX_POINT('',#33);
#33 = CARTESIAN_POINT('',(-6.,3.,39.999999999997));
#34 = LINE('',#35,#36);
#35 = CARTESIAN_POINT('',(-6.,4.472863212002E-16,39.999999999997));
#36 = VECTOR('',#37,1.);
#37 = DIRECTION('',(-4.440892098501E-16,1.,-1.330223024625E-15));
#38 = ORIENTED_EDGE('',*,*,#39,.F.);
#39 = EDGE_CURVE('',#40,#32,#42,.T.);
#40 = VERTEX_POINT('',#41);
#41 = CARTESIAN_POINT('',(-4.6645352591E-14,3.,39.999999999997));
#42 = LINE('',#43,#44);
#43 = CARTESIAN_POINT('',(-6.581118861455E-14,3.,39.999999999997));
#44 = VECTOR('',#45,1.);
#45 = DIRECTION('',(-1.,1.1081784197E-15,2.22044604925E-16));
#46 = ORIENTED_EDGE('',*,*,#47,.F.);
#47 = EDGE_CURVE('',#22,#40,#48,.T.);
#48 = LINE('',#49,#50);
#49 = CARTESIAN_POINT('',(-5.5408920985E-14,-8.881784197001E-15,
    39.999999999997));
#50 = VECTOR('',#51,1.);
#51 = DIRECTION('',(-4.440892098501E-16,1.,-1.110223024625E-15));
#52 = PLANE('',#53);
#53 = AXIS2_PLACEMENT_3D('',#54,#55,#56);
#54 = CARTESIAN_POINT('',(-6.4478920985E-14,-8.881784197001E-15,
    39.999999999997));
#55 = DIRECTION('',(1.110223024625E-15,2.044604925031E-18,-1.));
#56 = DIRECTION('',(-4.440892098501E-16,1.,-1.330223024625E-15));
#57 = ADVANCED_FACE('',(#58),#91,.T.);
#58 = FACE_BOUND('',#59,.T.);
#59 = EDGE_LOOP('',(#60,#61,#69,#77,#85));
#60 = ORIENTED_EDGE('',*,*,#21,.F.);
#61 = ORIENTED_EDGE('',*,*,#62,.F.);
#62 = EDGE_CURVE('',#63,#22,#65,.T.);
#63 = VERTEX_POINT('',#64);
#64 = CARTESIAN_POINT('',(-6.363735981263E-14,1.921245327088E-14,55.));
#65 = LINE('',#66,#67);
#66 = CARTESIAN_POINT('',(-6.106226635438E-14,-1.221245327088E-14,55.));
#67 = VECTOR('',#68,1.);
#68 = DIRECTION('',(1.110223024625E-15,2.22044604925E-16,-1.));
#69 = ORIENTED_EDGE('',*,*,#70,.T.);
#70 = EDGE_CURVE('',#63,#71,#73,.T.);
#71 = VERTEX_POINT('',#72);
#72 = CARTESIAN_POINT('',(-17.,3.076196983833E-14,55.));
#73 = LINE('',#74,#75);
#74 = CARTESIAN_POINT('',(-8.447226635438E-14,-5.102453270877E-15,55.));
#75 = VECTOR('',#76,1.);
#76 = DIRECTION('',(-1.,1.1081784197E-15,2.22044604925E-16));
#77 = ORIENTED_EDGE('',*,*,#78,.T.);
#78 = EDGE_CURVE('',#71,#79,#81,.T.);
#79 = VERTEX_POINT('',#80);
#80 = CARTESIAN_POINT('',(-17.,2.887379141863E-14,50.999999999997));
#81 = LINE('',#82,#83);
#82 = CARTESIAN_POINT('',(-17.,6.447063296574E-15,55.));
#83 = VECTOR('',#84,1.);
#84 = DIRECTION('',(1.110223024625E-15,-2.47955395075E-16,-1.));
#85 = ORIENTED_EDGE('',*,*,#86,.F.);
#86 = EDGE_CURVE('',#24,#79,#87,.T.);
#87 = LINE('',#88,#89);
#88 = CARTESIAN_POINT('',(-11.,4.587955395076E-15,44.999999999998));
#89 = VECTOR('',#90,1.);
#90 = DIRECTION('',(-0.707106781187,9.610277376051E-16,0.707106781187));
#91 = PLANE('',#92);
#92 = AXIS2_PLACEMENT_3D('',#93,#94,#95);
#93 = CARTESIAN_POINT('',(-8.447226635438E-14,-5.102453270877E-15,55.));
#94 = DIRECTION('',(2.240892098501E-16,-1.,1.580223024625E-15));
#95 = DIRECTION('',(1.330223024625E-15,-2.47955395075E-16,-1.));
#96 = ADVANCED_FACE('',(#97),#115,.F.);
#97 = FACE_BOUND('',#98,.F.);
#98 = EDGE_LOOP('',(#99,#100,#101,#109));
#99 = ORIENTED_EDGE('',*,*,#86,.F.);
#100 = ORIENTED_EDGE('',*,*,#31,.T.);
#101 = ORIENTED_EDGE('',*,*,#102,.T.);
#102 = EDGE_CURVE('',#32,#103,#105,.T.);
#103 = VERTEX_POINT('',#104);
#104 = CARTESIAN_POINT('',(-17.,3.,50.999999999997));
#105 = LINE('',#106,#107);
#106 = CARTESIAN_POINT('',(-7.25,3.,41.249999999997));
#107 = VECTOR('',#108,1.);
#108 = DIRECTION('',(-0.707106781187,6.310277376051E-16,0.707106781187)
  );
#109 = ORIENTED_EDGE('',*,*,#110,.F.);
#110 = EDGE_CURVE('',#79,#103,#111,.T.);
#111 = LINE('',#112,#113);
#112 = CARTESIAN_POINT('',(-17.,1.021475828373E-14,50.999999999997));
#113 = VECTOR('',#114,1.);
#114 = DIRECTION('',(-4.440892098501E-16,1.,-1.330223024625E-15));
#115 = PLANE('',#116);
#116 = AXIS2_PLACEMENT_3D('',#117,#118,#119);
#117 = CARTESIAN_POINT('',(-11.5,5.331022302463E-15,45.499999999997));
#118 = DIRECTION('',(0.707106781187,-1.095046229342E-15,0.707106781187)
  );
#119 = DIRECTION('',(-1.148861076822E-16,1.,-1.001019922457E-15));
#120 = ADVANCED_FACE('',(#121,#194,#205,#216,#227),#238,.F.);
#121 = FACE_BOUND('',#122,.F.);
#122 = EDGE_LOOP('',(#123,#133,#141,#149,#157,#163,#164,#172,#180,#188)
  );
#123 = ORIENTED_EDGE('',*,*,#124,.F.);
#124 = EDGE_CURVE('',#125,#127,#129,.T.);
#125 = VERTEX_POINT('',#126);
#126 = CARTESIAN_POINT('',(-3.130828929443E-14,23.5,47.));
#127 = VERTEX_POINT('',#128);
#128 = CARTESIAN_POINT('',(-9.325873406851E-15,23.5,14.));
#129 = LINE('',#130,#131);
#130 = CARTESIAN_POINT('',(-6.261657858886E-14,23.5,47.));
#131 = VECTOR('',#132,1.);
#132 = DIRECTION('',(1.110223024625E-15,2.22044604925E-16,-1.));
#133 = ORIENTED_EDGE('',*,*,#134,.T.);
#134 = EDGE_CURVE('',#125,#135,#137,.T.);
#135 = VERTEX_POINT('',#136);
#136 = CARTESIAN_POINT('',(-3.130828929443E-14,20.5,47.));
#137 = LINE('',#138,#139);
#138 = CARTESIAN_POINT('',(-6.439293542826E-14,27.5,47.));
#139 = VECTOR('',#140,1.);
#140 = DIRECTION('',(4.440892098501E-16,-1.,1.110223024625E-15));
#141 = ORIENTED_EDGE('',*,*,#142,.T.);
#142 = EDGE_CURVE('',#135,#143,#145,.T.);
#143 = VERTEX_POINT('',#144);
#144 = CARTESIAN_POINT('',(-5.76389583683E-14,20.5,51.999999999997));
#145 = LINE('',#146,#147);
#146 = CARTESIAN_POINT('',(-6.128431095931E-14,20.5,47.));
#147 = VECTOR('',#148,1.);
#148 = DIRECTION('',(-1.110223024625E-15,-2.22044604925E-16,1.));
#149 = ORIENTED_EDGE('',*,*,#150,.F.);
#150 = EDGE_CURVE('',#151,#143,#153,.T.);
#151 = VERTEX_POINT('',#152);
#152 = CARTESIAN_POINT('',(-5.76389583683E-14,3.,51.999999999997));
#153 = LINE('',#154,#155);
#154 = CARTESIAN_POINT('',(-7.006386491006E-14,3.,51.999999999997));
#155 = VECTOR('',#156,1.);
#156 = DIRECTION('',(-4.440892098501E-16,1.,-1.110223024625E-15));
#157 = ORIENTED_EDGE('',*,*,#158,.F.);
#158 = EDGE_CURVE('',#40,#151,#159,.T.);
#159 = LINE('',#160,#161);
#160 = CARTESIAN_POINT('',(-5.674118861455E-14,3.,39.999999999997));
#161 = VECTOR('',#162,1.);
#162 = DIRECTION('',(-1.110223024625E-15,-2.22044604925E-16,1.));
#163 = ORIENTED_EDGE('',*,*,#47,.F.);
#164 = ORIENTED_EDGE('',*,*,#165,.T.);
#165 = EDGE_CURVE('',#22,#166,#168,.T.);
#166 = VERTEX_POINT('',#167);
#167 = CARTESIAN_POINT('',(0.,0.,0.));
#168 = LINE('',#169,#170);
#169 = CARTESIAN_POINT('',(-6.106226635438E-14,-1.221245327088E-14,55.)
  );
#170 = VECTOR('',#171,1.);
#171 = DIRECTION('',(1.110223024625E-15,2.22044604925E-16,-1.));
#172 = ORIENTED_EDGE('',*,*,#173,.T.);
#173 = EDGE_CURVE('',#166,#174,#176,.T.);
#174 = VERTEX_POINT('',#175);
#175 = CARTESIAN_POINT('',(3.155443620884E-30,20.5,-1.365574320289E-14)
  );
#176 = LINE('',#177,#178);
#177 = CARTESIAN_POINT('',(0.,0.,0.));
#178 = VECTOR('',#179,1.);
#179 = DIRECTION('',(-4.440892098501E-16,1.,-1.110223024625E-15));
#180 = ORIENTED_EDGE('',*,*,#181,.T.);
#181 = EDGE_CURVE('',#174,#182,#184,.T.);
#182 = VERTEX_POINT('',#183);
#183 = CARTESIAN_POINT('',(-9.325873406851E-15,20.5,14.));
#184 = LINE('',#185,#186);
#185 = CARTESIAN_POINT('',(-9.103828801926E-15,20.5,-2.275957200482E-14)
  );
#186 = VECTOR('',#187,1.);
#187 = DIRECTION('',(-1.110223024625E-15,-2.22044604925E-16,1.));
#188 = ORIENTED_EDGE('',*,*,#189,.T.);
#189 = EDGE_CURVE('',#182,#127,#190,.T.);
#190 = LINE('',#191,#192);
#191 = CARTESIAN_POINT('',(-2.464695114668E-14,20.5,14.));
#192 = VECTOR('',#193,1.);
#193 = DIRECTION('',(-4.440892098501E-16,1.,-1.110223024625E-15));
#194 = FACE_BOUND('',#195,.F.);
#195 = EDGE_LOOP('',(#196));
#196 = ORIENTED_EDGE('',*,*,#197,.F.);
#197 = EDGE_CURVE('',#198,#198,#200,.T.);
#198 = VERTEX_POINT('',#199);
#199 = CARTESIAN_POINT('',(-3.330669073875E-15,18.75,5.));
#200 = CIRCLE('',#201,1.75);
#201 = AXIS2_PLACEMENT_3D('',#202,#203,#204);
#202 = CARTESIAN_POINT('',(-1.310063169058E-14,17.,5.));
#203 = DIRECTION('',(1.,4.440892098501E-16,1.110223024625E-15));
#204 = DIRECTION('',(-4.440892098501E-16,1.,-1.110223024625E-15));
#205 = FACE_BOUND('',#206,.F.);
#206 = EDGE_LOOP('',(#207));
#207 = ORIENTED_EDGE('',*,*,#208,.F.);
#208 = EDGE_CURVE('',#209,#209,#211,.T.);
#209 = VERTEX_POINT('',#210);
#210 = CARTESIAN_POINT('',(-3.330669073875E-15,6.75,5.));
#211 = CIRCLE('',#212,1.75);
#212 = AXIS2_PLACEMENT_3D('',#213,#214,#215);
#213 = CARTESIAN_POINT('',(-7.771561172376E-15,5.,5.));
#214 = DIRECTION('',(1.,4.440892098501E-16,1.110223024625E-15));
#215 = DIRECTION('',(-4.440892098501E-16,1.,-1.110223024625E-15));
#216 = FACE_BOUND('',#217,.F.);
#217 = EDGE_LOOP('',(#218));
#218 = ORIENTED_EDGE('',*,*,#219,.F.);
#219 = EDGE_CURVE('',#220,#220,#222,.T.);
#220 = VERTEX_POINT('',#221);
#221 = CARTESIAN_POINT('',(-2.331468351713E-14,18.75,35.));
#222 = CIRCLE('',#223,1.75);
#223 = AXIS2_PLACEMENT_3D('',#224,#225,#226);
#224 = CARTESIAN_POINT('',(-4.640732242933E-14,17.,35.));
#225 = DIRECTION('',(1.,4.440892098501E-16,1.110223024625E-15));
#226 = DIRECTION('',(-4.440892098501E-16,1.,-1.110223024625E-15));
#227 = FACE_BOUND('',#228,.F.);
#228 = EDGE_LOOP('',(#229));
#229 = ORIENTED_EDGE('',*,*,#230,.F.);
#230 = EDGE_CURVE('',#231,#231,#233,.T.);
#231 = VERTEX_POINT('',#232);
#232 = CARTESIAN_POINT('',(-2.331468351713E-14,6.75,35.));
#233 = CIRCLE('',#234,1.75);
#234 = AXIS2_PLACEMENT_3D('',#235,#236,#237);
#235 = CARTESIAN_POINT('',(-4.107825191113E-14,5.,35.));
#236 = DIRECTION('',(1.,4.440892098501E-16,1.110223024625E-15));
#237 = DIRECTION('',(-4.440892098501E-16,1.,-1.110223024625E-15));
#238 = PLANE('',#239);
#239 = AXIS2_PLACEMENT_3D('',#240,#241,#242);
#240 = CARTESIAN_POINT('',(-3.989932842707E-14,24.117645621247,
    26.291061878799));
#241 = DIRECTION('',(1.,-8.881784197001E-16,-2.22044604925E-16));
#242 = DIRECTION('',(-1.110223024625E-15,-2.22044604925E-16,1.));
#243 = ADVANCED_FACE('',(#244),#263,.T.);
#244 = FACE_BOUND('',#245,.T.);
#245 = EDGE_LOOP('',(#246,#247,#248,#256,#262));
#246 = ORIENTED_EDGE('',*,*,#39,.T.);
#247 = ORIENTED_EDGE('',*,*,#102,.T.);
#248 = ORIENTED_EDGE('',*,*,#249,.T.);
#249 = EDGE_CURVE('',#103,#250,#252,.T.);
#250 = VERTEX_POINT('',#251);
#251 = CARTESIAN_POINT('',(-17.,3.,51.999999999997));
#252 = LINE('',#253,#254);
#253 = CARTESIAN_POINT('',(-17.,3.,39.999999999997));
#254 = VECTOR('',#255,1.);
#255 = DIRECTION('',(-1.110223024625E-15,-2.22044604925E-16,1.));
#256 = ORIENTED_EDGE('',*,*,#257,.F.);
#257 = EDGE_CURVE('',#151,#250,#258,.T.);
#258 = LINE('',#259,#260);
#259 = CARTESIAN_POINT('',(-8.180386491006E-14,3.,51.999999999997));
#260 = VECTOR('',#261,1.);
#261 = DIRECTION('',(-1.,1.1081784197E-15,2.22044604925E-16));
#262 = ORIENTED_EDGE('',*,*,#158,.F.);
#263 = PLANE('',#264);
#264 = AXIS2_PLACEMENT_3D('',#265,#266,#267);
#265 = CARTESIAN_POINT('',(-6.581118861455E-14,3.,39.999999999997));
#266 = DIRECTION('',(-2.240892098501E-16,1.,-1.110223024625E-15));
#267 = DIRECTION('',(-1.330223024625E-15,-2.22044604925E-16,1.));
#268 = ADVANCED_FACE('',(#269),#295,.F.);
#269 = FACE_BOUND('',#270,.F.);
#270 = EDGE_LOOP('',(#271,#279,#287,#293,#294));
#271 = ORIENTED_EDGE('',*,*,#272,.T.);
#272 = EDGE_CURVE('',#63,#273,#275,.T.);
#273 = VERTEX_POINT('',#274);
#274 = CARTESIAN_POINT('',(3.,9.880185641327E-15,55.));
#275 = LINE('',#276,#277);
#276 = CARTESIAN_POINT('',(-7.327226635438E-14,-1.221245327088E-14,55.)
  );
#277 = VECTOR('',#278,1.);
#278 = DIRECTION('',(1.,-1.1081784197E-15,-2.22044604925E-16));
#279 = ORIENTED_EDGE('',*,*,#280,.T.);
#280 = EDGE_CURVE('',#273,#281,#283,.T.);
#281 = VERTEX_POINT('',#282);
#282 = CARTESIAN_POINT('',(3.,-2.33226762955E-15,6.661338147751E-16));
#283 = LINE('',#284,#285);
#284 = CARTESIAN_POINT('',(3.,-1.454472090043E-14,55.));
#285 = VECTOR('',#286,1.);
#286 = DIRECTION('',(1.110223024625E-15,2.22044604925E-16,-1.));
#287 = ORIENTED_EDGE('',*,*,#288,.F.);
#288 = EDGE_CURVE('',#166,#281,#289,.T.);
#289 = LINE('',#290,#291);
#290 = CARTESIAN_POINT('',(0.,0.,0.));
#291 = VECTOR('',#292,1.);
#292 = DIRECTION('',(1.,-1.1081784197E-15,-2.22044604925E-16));
#293 = ORIENTED_EDGE('',*,*,#165,.F.);
#294 = ORIENTED_EDGE('',*,*,#62,.F.);
#295 = PLANE('',#296);
#296 = AXIS2_PLACEMENT_3D('',#297,#298,#299);
#297 = CARTESIAN_POINT('',(-7.327226635438E-14,-1.221245327088E-14,55.)
  );
#298 = DIRECTION('',(-2.240892098501E-16,1.,-1.110223024625E-15));
#299 = DIRECTION('',(1.330223024625E-15,2.22044604925E-16,-1.));
#300 = ADVANCED_FACE('',(#301),#328,.F.);
#301 = FACE_BOUND('',#302,.F.);
#302 = EDGE_LOOP('',(#303,#304,#305,#306,#314,#322));
#303 = ORIENTED_EDGE('',*,*,#78,.T.);
#304 = ORIENTED_EDGE('',*,*,#110,.T.);
#305 = ORIENTED_EDGE('',*,*,#249,.T.);
#306 = ORIENTED_EDGE('',*,*,#307,.T.);
#307 = EDGE_CURVE('',#250,#308,#310,.T.);
#308 = VERTEX_POINT('',#309);
#309 = CARTESIAN_POINT('',(-17.,20.5,51.999999999997));
#310 = LINE('',#311,#312);
#311 = CARTESIAN_POINT('',(-17.,3.,51.999999999997));
#312 = VECTOR('',#313,1.);
#313 = DIRECTION('',(-4.440892098501E-16,1.,-1.110223024625E-15));
#314 = ORIENTED_EDGE('',*,*,#315,.T.);
#315 = EDGE_CURVE('',#308,#316,#318,.T.);
#316 = VERTEX_POINT('',#317);
#317 = CARTESIAN_POINT('',(-17.,20.5,55.));
#318 = LINE('',#319,#320);
#319 = CARTESIAN_POINT('',(-17.,20.5,51.999999999997));
#320 = VECTOR('',#321,1.);
#321 = DIRECTION('',(-1.110223024625E-15,-2.22044604925E-16,1.));
#322 = ORIENTED_EDGE('',*,*,#323,.T.);
#323 = EDGE_CURVE('',#316,#71,#324,.T.);
#324 = LINE('',#325,#326);
#325 = CARTESIAN_POINT('',(-17.,20.5,55.));
#326 = VECTOR('',#327,1.);
#327 = DIRECTION('',(4.440892098501E-16,-1.,1.460223024625E-15));
#328 = PLANE('',#329);
#329 = AXIS2_PLACEMENT_3D('',#330,#331,#332);
#330 = CARTESIAN_POINT('',(-17.,7.292253521127,50.457746478872));
#331 = DIRECTION('',(1.,-8.881784197001E-16,-2.22044604925E-16));
#332 = DIRECTION('',(-1.110223024625E-15,-2.22044604925E-16,1.));
#333 = ADVANCED_FACE('',(#334,#352),#388,.T.);
#334 = FACE_BOUND('',#335,.T.);
#335 = EDGE_LOOP('',(#336,#344,#345,#346));
#336 = ORIENTED_EDGE('',*,*,#337,.T.);
#337 = EDGE_CURVE('',#338,#316,#340,.T.);
#338 = VERTEX_POINT('',#339);
#339 = CARTESIAN_POINT('',(-6.363735981263E-14,20.5,55.));
#340 = LINE('',#341,#342);
#341 = CARTESIAN_POINT('',(-9.357609515631E-14,20.5,55.));
#342 = VECTOR('',#343,1.);
#343 = DIRECTION('',(-1.,1.1081784197E-15,2.22044604925E-16));
#344 = ORIENTED_EDGE('',*,*,#323,.T.);
#345 = ORIENTED_EDGE('',*,*,#70,.F.);
#346 = ORIENTED_EDGE('',*,*,#347,.F.);
#347 = EDGE_CURVE('',#338,#63,#348,.T.);
#348 = LINE('',#349,#350);
#349 = CARTESIAN_POINT('',(-7.016609515631E-14,20.5,55.));
#350 = VECTOR('',#351,1.);
#351 = DIRECTION('',(4.440892098501E-16,-1.,1.110223024625E-15));
#352 = FACE_BOUND('',#353,.T.);
#353 = EDGE_LOOP('',(#354,#365,#373,#382));
#354 = ORIENTED_EDGE('',*,*,#355,.F.);
#355 = EDGE_CURVE('',#356,#358,#360,.T.);
#356 = VERTEX_POINT('',#357);
#357 = CARTESIAN_POINT('',(-2.95,14.631304011769,55.));
#358 = VERTEX_POINT('',#359);
#359 = CARTESIAN_POINT('',(-14.05,14.631304011769,55.));
#360 = CIRCLE('',#361,6.1);
#361 = AXIS2_PLACEMENT_3D('',#362,#363,#364);
#362 = CARTESIAN_POINT('',(-8.5,12.1,55.));
#363 = DIRECTION('',(2.22044604925E-16,1.110223024625E-15,1.));
#364 = DIRECTION('',(4.440892098501E-16,-1.,1.110223024625E-15));
#365 = ORIENTED_EDGE('',*,*,#366,.T.);
#366 = EDGE_CURVE('',#356,#367,#369,.T.);
#367 = VERTEX_POINT('',#368);
#368 = CARTESIAN_POINT('',(-2.95,9.568695988231,55.));
#369 = LINE('',#370,#371);
#370 = CARTESIAN_POINT('',(-2.95,14.631304011769,55.));
#371 = VECTOR('',#372,1.);
#372 = DIRECTION('',(4.440892098501E-16,-1.,1.110223024625E-15));
#373 = ORIENTED_EDGE('',*,*,#374,.F.);
#374 = EDGE_CURVE('',#375,#367,#377,.T.);
#375 = VERTEX_POINT('',#376);
#376 = CARTESIAN_POINT('',(-14.05,9.568695988231,55.));
#377 = CIRCLE('',#378,6.1);
#378 = AXIS2_PLACEMENT_3D('',#379,#380,#381);
#379 = CARTESIAN_POINT('',(-8.5,12.1,55.));
#380 = DIRECTION('',(2.22044604925E-16,1.110223024625E-15,1.));
#381 = DIRECTION('',(4.440892098501E-16,-1.,1.110223024625E-15));
#382 = ORIENTED_EDGE('',*,*,#383,.F.);
#383 = EDGE_CURVE('',#358,#375,#384,.T.);
#384 = LINE('',#385,#386);
#385 = CARTESIAN_POINT('',(-14.05,14.631304011769,55.));
#386 = VECTOR('',#387,1.);
#387 = DIRECTION('',(4.440892098501E-16,-1.,1.110223024625E-15));
#388 = PLANE('',#389);
#389 = AXIS2_PLACEMENT_3D('',#390,#391,#392);
#390 = CARTESIAN_POINT('',(-9.357609515631E-14,20.5,55.));
#391 = DIRECTION('',(-1.110223024625E-15,3.47955395075E-16,1.));
#392 = DIRECTION('',(4.440892098501E-16,-1.,1.680223024625E-15));
#393 = ADVANCED_FACE('',(#394),#419,.T.);
#394 = FACE_BOUND('',#395,.T.);
#395 = EDGE_LOOP('',(#396,#404,#412,#418));
#396 = ORIENTED_EDGE('',*,*,#397,.T.);
#397 = EDGE_CURVE('',#125,#398,#400,.T.);
#398 = VERTEX_POINT('',#399);
#399 = CARTESIAN_POINT('',(-2.5,23.5,47.));
#400 = LINE('',#401,#402);
#401 = CARTESIAN_POINT('',(-4.696243394164E-14,23.5,47.));
#402 = VECTOR('',#403,1.);
#403 = DIRECTION('',(-1.,6.661338147751E-16,-3.574525976783E-31));
#404 = ORIENTED_EDGE('',*,*,#405,.T.);
#405 = EDGE_CURVE('',#398,#406,#408,.T.);
#406 = VERTEX_POINT('',#407);
#407 = CARTESIAN_POINT('',(-2.5,23.5,14.));
#408 = LINE('',#409,#410);
#409 = CARTESIAN_POINT('',(-2.5,23.5,47.));
#410 = VECTOR('',#411,1.);
#411 = DIRECTION('',(1.110223024625E-15,2.22044604925E-16,-1.));
#412 = ORIENTED_EDGE('',*,*,#413,.F.);
#413 = EDGE_CURVE('',#127,#406,#414,.T.);
#414 = LINE('',#415,#416);
#415 = CARTESIAN_POINT('',(-1.765254609154E-14,23.5,14.));
#416 = VECTOR('',#417,1.);
#417 = DIRECTION('',(-1.,6.661338147751E-16,-3.574525976783E-31));
#418 = ORIENTED_EDGE('',*,*,#124,.F.);
#419 = PLANE('',#420);
#420 = AXIS2_PLACEMENT_3D('',#421,#422,#423);
#421 = CARTESIAN_POINT('',(-4.696243394164E-14,23.5,47.));
#422 = DIRECTION('',(-1.479114197289E-31,-1.,6.661338147751E-16));
#423 = DIRECTION('',(8.881784197001E-16,-2.958228394579E-31,-1.));
#424 = ADVANCED_FACE('',(#425),#458,.F.);
#425 = FACE_BOUND('',#426,.F.);
#426 = EDGE_LOOP('',(#427,#435,#443,#451,#457));
#427 = ORIENTED_EDGE('',*,*,#428,.T.);
#428 = EDGE_CURVE('',#182,#429,#431,.T.);
#429 = VERTEX_POINT('',#430);
#430 = CARTESIAN_POINT('',(3.,20.5,14.));
#431 = LINE('',#432,#433);
#432 = CARTESIAN_POINT('',(-2.775695114668E-14,20.5,14.));
#433 = VECTOR('',#434,1.);
#434 = DIRECTION('',(1.,-1.1081784197E-15,-2.22044604925E-16));
#435 = ORIENTED_EDGE('',*,*,#436,.T.);
#436 = EDGE_CURVE('',#429,#437,#439,.T.);
#437 = VERTEX_POINT('',#438);
#438 = CARTESIAN_POINT('',(3.,27.5,14.));
#439 = LINE('',#440,#441);
#440 = CARTESIAN_POINT('',(3.,20.5,14.));
#441 = VECTOR('',#442,1.);
#442 = DIRECTION('',(-4.440892098501E-16,1.,-1.110223024625E-15));
#443 = ORIENTED_EDGE('',*,*,#444,.F.);
#444 = EDGE_CURVE('',#445,#437,#447,.T.);
#445 = VERTEX_POINT('',#446);
#446 = CARTESIAN_POINT('',(-9.325873406851E-15,27.5,14.));
#447 = LINE('',#448,#449);
#448 = CARTESIAN_POINT('',(-3.086557561563E-14,27.5,14.));
#449 = VECTOR('',#450,1.);
#450 = DIRECTION('',(1.,-1.1081784197E-15,-2.22044604925E-16));
#451 = ORIENTED_EDGE('',*,*,#452,.F.);
#452 = EDGE_CURVE('',#127,#445,#453,.T.);
#453 = LINE('',#454,#455);
#454 = CARTESIAN_POINT('',(-2.464695114668E-14,20.5,14.));
#455 = VECTOR('',#456,1.);
#456 = DIRECTION('',(-4.440892098501E-16,1.,-1.110223024625E-15));
#457 = ORIENTED_EDGE('',*,*,#189,.F.);
#458 = PLANE('',#459);
#459 = AXIS2_PLACEMENT_3D('',#460,#461,#462);
#460 = CARTESIAN_POINT('',(-2.775695114668E-14,20.5,14.));
#461 = DIRECTION('',(-1.110223024625E-15,-2.044604925031E-18,1.));
#462 = DIRECTION('',(-4.440892098501E-16,1.,-1.330223024625E-15));
#463 = ADVANCED_FACE('',(#464),#482,.F.);
#464 = FACE_BOUND('',#465,.F.);
#465 = EDGE_LOOP('',(#466,#474,#480,#481));
#466 = ORIENTED_EDGE('',*,*,#467,.T.);
#467 = EDGE_CURVE('',#174,#468,#470,.T.);
#468 = VERTEX_POINT('',#469);
#469 = CARTESIAN_POINT('',(3.,20.5,-1.298960938811E-14));
#470 = LINE('',#471,#472);
#471 = CARTESIAN_POINT('',(-9.103828801926E-15,20.5,-2.730957200482E-14)
  );
#472 = VECTOR('',#473,1.);
#473 = DIRECTION('',(1.,-1.1081784197E-15,-2.22044604925E-16));
#474 = ORIENTED_EDGE('',*,*,#475,.T.);
#475 = EDGE_CURVE('',#468,#429,#476,.T.);
#476 = LINE('',#477,#478);
#477 = CARTESIAN_POINT('',(3.,20.5,-2.620126338115E-14));
#478 = VECTOR('',#479,1.);
#479 = DIRECTION('',(-1.110223024625E-15,-2.22044604925E-16,1.));
#480 = ORIENTED_EDGE('',*,*,#428,.F.);
#481 = ORIENTED_EDGE('',*,*,#181,.F.);
#482 = PLANE('',#483);
#483 = AXIS2_PLACEMENT_3D('',#484,#485,#486);
#484 = CARTESIAN_POINT('',(-9.103828801926E-15,20.5,-2.730957200482E-14)
  );
#485 = DIRECTION('',(2.240892098501E-16,-1.,1.110223024625E-15));
#486 = DIRECTION('',(-1.330223024625E-15,-2.22044604925E-16,1.));
#487 = ADVANCED_FACE('',(#488),#499,.F.);
#488 = FACE_BOUND('',#489,.F.);
#489 = EDGE_LOOP('',(#490,#491,#497,#498));
#490 = ORIENTED_EDGE('',*,*,#288,.T.);
#491 = ORIENTED_EDGE('',*,*,#492,.T.);
#492 = EDGE_CURVE('',#281,#468,#493,.T.);
#493 = LINE('',#494,#495);
#494 = CARTESIAN_POINT('',(3.,-2.33226762955E-15,-3.10862446895E-15));
#495 = VECTOR('',#496,1.);
#496 = DIRECTION('',(-4.440892098501E-16,1.,-1.110223024625E-15));
#497 = ORIENTED_EDGE('',*,*,#467,.F.);
#498 = ORIENTED_EDGE('',*,*,#173,.F.);
#499 = PLANE('',#500);
#500 = AXIS2_PLACEMENT_3D('',#501,#502,#503);
#501 = CARTESIAN_POINT('',(0.,0.,0.));
#502 = DIRECTION('',(-1.110223024625E-15,-2.044604925031E-18,1.));
#503 = DIRECTION('',(-4.440892098501E-16,1.,-1.330223024625E-15));
#504 = ADVANCED_FACE('',(#505,#516),#552,.T.);
#505 = FACE_BOUND('',#506,.T.);
#506 = EDGE_LOOP('',(#507,#508,#509,#515));
#507 = ORIENTED_EDGE('',*,*,#257,.T.);
#508 = ORIENTED_EDGE('',*,*,#307,.T.);
#509 = ORIENTED_EDGE('',*,*,#510,.F.);
#510 = EDGE_CURVE('',#143,#308,#511,.T.);
#511 = LINE('',#512,#513);
#512 = CARTESIAN_POINT('',(-8.957542608243E-14,20.5,51.999999999997));
#513 = VECTOR('',#514,1.);
#514 = DIRECTION('',(-1.,1.1081784197E-15,2.22044604925E-16));
#515 = ORIENTED_EDGE('',*,*,#150,.F.);
#516 = FACE_BOUND('',#517,.T.);
#517 = EDGE_LOOP('',(#518,#528,#537,#545));
#518 = ORIENTED_EDGE('',*,*,#519,.T.);
#519 = EDGE_CURVE('',#520,#522,#524,.T.);
#520 = VERTEX_POINT('',#521);
#521 = CARTESIAN_POINT('',(-2.95,9.568695988231,51.999999999997));
#522 = VERTEX_POINT('',#523);
#523 = CARTESIAN_POINT('',(-2.95,14.631304011769,51.999999999997));
#524 = LINE('',#525,#526);
#525 = CARTESIAN_POINT('',(-2.95,8.815652005885,51.999999999997));
#526 = VECTOR('',#527,1.);
#527 = DIRECTION('',(-6.640892098501E-16,1.,-1.440223024625E-15));
#528 = ORIENTED_EDGE('',*,*,#529,.T.);
#529 = EDGE_CURVE('',#522,#530,#532,.T.);
#530 = VERTEX_POINT('',#531);
#531 = CARTESIAN_POINT('',(-14.05,14.631304011769,51.999999999997));
#532 = CIRCLE('',#533,6.1);
#533 = AXIS2_PLACEMENT_3D('',#534,#535,#536);
#534 = CARTESIAN_POINT('',(-8.5,12.1,51.999999999997));
#535 = DIRECTION('',(2.22044604925E-16,1.330223024625E-15,1.));
#536 = DIRECTION('',(6.640892098501E-16,-1.,1.330223024625E-15));
#537 = ORIENTED_EDGE('',*,*,#538,.F.);
#538 = EDGE_CURVE('',#539,#530,#541,.T.);
#539 = VERTEX_POINT('',#540);
#540 = CARTESIAN_POINT('',(-14.05,9.568695988231,51.999999999997));
#541 = LINE('',#542,#543);
#542 = CARTESIAN_POINT('',(-14.05,8.815652005885,51.999999999997));
#543 = VECTOR('',#544,1.);
#544 = DIRECTION('',(-6.640892098501E-16,1.,-1.440223024625E-15));
#545 = ORIENTED_EDGE('',*,*,#546,.T.);
#546 = EDGE_CURVE('',#539,#520,#547,.T.);
#547 = CIRCLE('',#548,6.1);
#548 = AXIS2_PLACEMENT_3D('',#549,#550,#551);
#549 = CARTESIAN_POINT('',(-8.5,12.1,51.999999999997));
#550 = DIRECTION('',(2.22044604925E-16,1.330223024625E-15,1.));
#551 = DIRECTION('',(6.640892098501E-16,-1.,1.330223024625E-15));
#552 = PLANE('',#553);
#553 = AXIS2_PLACEMENT_3D('',#554,#555,#556);
#554 = CARTESIAN_POINT('',(-8.180386491006E-14,3.,51.999999999997));
#555 = DIRECTION('',(1.110223024625E-15,2.044604925031E-18,-1.));
#556 = DIRECTION('',(-4.440892098501E-16,1.,-1.330223024625E-15));
#557 = ADVANCED_FACE('',(#558),#589,.F.);
#558 = FACE_BOUND('',#559,.F.);
#559 = EDGE_LOOP('',(#560,#568,#576,#582,#588));
#560 = ORIENTED_EDGE('',*,*,#561,.T.);
#561 = EDGE_CURVE('',#135,#562,#564,.T.);
#562 = VERTEX_POINT('',#563);
#563 = CARTESIAN_POINT('',(3.,20.5,47.));
#564 = LINE('',#565,#566);
#565 = CARTESIAN_POINT('',(-7.172431095931E-14,20.5,47.));
#566 = VECTOR('',#567,1.);
#567 = DIRECTION('',(1.,-1.1081784197E-15,-2.22044604925E-16));
#568 = ORIENTED_EDGE('',*,*,#569,.T.);
#569 = EDGE_CURVE('',#562,#570,#572,.T.);
#570 = VERTEX_POINT('',#571);
#571 = CARTESIAN_POINT('',(3.,20.5,55.));
#572 = LINE('',#573,#574);
#573 = CARTESIAN_POINT('',(3.,20.5,47.));
#574 = VECTOR('',#575,1.);
#575 = DIRECTION('',(-1.110223024625E-15,-2.22044604925E-16,1.));
#576 = ORIENTED_EDGE('',*,*,#577,.F.);
#577 = EDGE_CURVE('',#338,#570,#578,.T.);
#578 = LINE('',#579,#580);
#579 = CARTESIAN_POINT('',(-8.237609515631E-14,20.5,55.));
#580 = VECTOR('',#581,1.);
#581 = DIRECTION('',(1.,-1.1081784197E-15,-2.22044604925E-16));
#582 = ORIENTED_EDGE('',*,*,#583,.F.);
#583 = EDGE_CURVE('',#143,#338,#584,.T.);
#584 = LINE('',#585,#586);
#585 = CARTESIAN_POINT('',(-6.128431095931E-14,20.5,47.));
#586 = VECTOR('',#587,1.);
#587 = DIRECTION('',(-1.110223024625E-15,-2.22044604925E-16,1.));
#588 = ORIENTED_EDGE('',*,*,#142,.F.);
#589 = PLANE('',#590);
#590 = AXIS2_PLACEMENT_3D('',#591,#592,#593);
#591 = CARTESIAN_POINT('',(-7.172431095931E-14,20.5,47.));
#592 = DIRECTION('',(2.240892098501E-16,-1.,1.110223024625E-15));
#593 = DIRECTION('',(-1.330223024625E-15,-2.22044604925E-16,1.));
#594 = ADVANCED_FACE('',(#595),#621,.F.);
#595 = FACE_BOUND('',#596,.F.);
#596 = EDGE_LOOP('',(#597,#607,#613,#614,#615));
#597 = ORIENTED_EDGE('',*,*,#598,.T.);
#598 = EDGE_CURVE('',#599,#601,#603,.T.);
#599 = VERTEX_POINT('',#600);
#600 = CARTESIAN_POINT('',(-3.130828929443E-14,27.5,47.));
#601 = VERTEX_POINT('',#602);
#602 = CARTESIAN_POINT('',(3.,27.5,47.));
#603 = LINE('',#604,#605);
#604 = CARTESIAN_POINT('',(-7.483293542826E-14,27.5,47.));
#605 = VECTOR('',#606,1.);
#606 = DIRECTION('',(1.,-1.1081784197E-15,-2.22044604925E-16));
#607 = ORIENTED_EDGE('',*,*,#608,.T.);
#608 = EDGE_CURVE('',#601,#562,#609,.T.);
#609 = LINE('',#610,#611);
#610 = CARTESIAN_POINT('',(3.,27.5,47.));
#611 = VECTOR('',#612,1.);
#612 = DIRECTION('',(4.440892098501E-16,-1.,1.110223024625E-15));
#613 = ORIENTED_EDGE('',*,*,#561,.F.);
#614 = ORIENTED_EDGE('',*,*,#134,.F.);
#615 = ORIENTED_EDGE('',*,*,#616,.F.);
#616 = EDGE_CURVE('',#599,#125,#617,.T.);
#617 = LINE('',#618,#619);
#618 = CARTESIAN_POINT('',(-6.439293542826E-14,27.5,47.));
#619 = VECTOR('',#620,1.);
#620 = DIRECTION('',(4.440892098501E-16,-1.,1.110223024625E-15));
#621 = PLANE('',#622);
#622 = AXIS2_PLACEMENT_3D('',#623,#624,#625);
#623 = CARTESIAN_POINT('',(-7.483293542826E-14,27.5,47.));
#624 = DIRECTION('',(1.110223024625E-15,2.044604925031E-18,-1.));
#625 = DIRECTION('',(4.440892098501E-16,-1.,1.330223024625E-15));
#626 = ADVANCED_FACE('',(#627),#646,.F.);
#627 = FACE_BOUND('',#628,.T.);
#628 = EDGE_LOOP('',(#629,#637,#644,#645));
#629 = ORIENTED_EDGE('',*,*,#630,.T.);
#630 = EDGE_CURVE('',#198,#631,#633,.T.);
#631 = VERTEX_POINT('',#632);
#632 = CARTESIAN_POINT('',(3.,18.75,5.));
#633 = LINE('',#634,#635);
#634 = CARTESIAN_POINT('',(-1.498778780781E-14,18.75,5.));
#635 = VECTOR('',#636,1.);
#636 = DIRECTION('',(1.,-1.1081784197E-15,-2.22044604925E-16));
#637 = ORIENTED_EDGE('',*,*,#638,.T.);
#638 = EDGE_CURVE('',#631,#631,#639,.T.);
#639 = CIRCLE('',#640,1.75);
#640 = AXIS2_PLACEMENT_3D('',#641,#642,#643);
#641 = CARTESIAN_POINT('',(3.,17.,5.));
#642 = DIRECTION('',(1.,4.440892098501E-16,1.110223024625E-15));
#643 = DIRECTION('',(-4.440892098501E-16,1.,-1.110223024625E-15));
#644 = ORIENTED_EDGE('',*,*,#630,.F.);
#645 = ORIENTED_EDGE('',*,*,#197,.F.);
#646 = CYLINDRICAL_SURFACE('',#647,1.75);
#647 = AXIS2_PLACEMENT_3D('',#648,#649,#650);
#648 = CARTESIAN_POINT('',(-1.421063169058E-14,17.,5.));
#649 = DIRECTION('',(-1.,8.881784197001E-16,2.044604925031E-18));
#650 = DIRECTION('',(-4.440892098501E-16,1.,-1.330223024625E-15));
#651 = ADVANCED_FACE('',(#652),#671,.F.);
#652 = FACE_BOUND('',#653,.T.);
#653 = EDGE_LOOP('',(#654,#662,#669,#670));
#654 = ORIENTED_EDGE('',*,*,#655,.T.);
#655 = EDGE_CURVE('',#209,#656,#658,.T.);
#656 = VERTEX_POINT('',#657);
#657 = CARTESIAN_POINT('',(3.,6.75,5.));
#658 = LINE('',#659,#660);
#659 = CARTESIAN_POINT('',(-9.658717289614E-15,6.75,5.));
#660 = VECTOR('',#661,1.);
#661 = DIRECTION('',(1.,-1.1081784197E-15,-2.22044604925E-16));
#662 = ORIENTED_EDGE('',*,*,#663,.T.);
#663 = EDGE_CURVE('',#656,#656,#664,.T.);
#664 = CIRCLE('',#665,1.75);
#665 = AXIS2_PLACEMENT_3D('',#666,#667,#668);
#666 = CARTESIAN_POINT('',(3.,5.,5.));
#667 = DIRECTION('',(1.,4.440892098501E-16,1.110223024625E-15));
#668 = DIRECTION('',(-4.440892098501E-16,1.,-1.110223024625E-15));
#669 = ORIENTED_EDGE('',*,*,#655,.F.);
#670 = ORIENTED_EDGE('',*,*,#208,.F.);
#671 = CYLINDRICAL_SURFACE('',#672,1.75);
#672 = AXIS2_PLACEMENT_3D('',#673,#674,#675);
#673 = CARTESIAN_POINT('',(-8.881561172376E-15,5.,5.));
#674 = DIRECTION('',(-1.,8.881784197001E-16,2.044604925031E-18));
#675 = DIRECTION('',(-4.440892098501E-16,1.,-1.330223024625E-15));
#676 = ADVANCED_FACE('',(#677),#696,.F.);
#677 = FACE_BOUND('',#678,.T.);
#678 = EDGE_LOOP('',(#679,#687,#694,#695));
#679 = ORIENTED_EDGE('',*,*,#680,.T.);
#680 = EDGE_CURVE('',#220,#681,#683,.T.);
#681 = VERTEX_POINT('',#682);
#682 = CARTESIAN_POINT('',(3.,18.75,35.));
#683 = LINE('',#684,#685);
#684 = CARTESIAN_POINT('',(-5.495447854657E-14,18.75,35.));
#685 = VECTOR('',#686,1.);
#686 = DIRECTION('',(1.,-1.1081784197E-15,-2.22044604925E-16));
#687 = ORIENTED_EDGE('',*,*,#688,.T.);
#688 = EDGE_CURVE('',#681,#681,#689,.T.);
#689 = CIRCLE('',#690,1.75);
#690 = AXIS2_PLACEMENT_3D('',#691,#692,#693);
#691 = CARTESIAN_POINT('',(3.,17.,35.));
#692 = DIRECTION('',(1.,4.440892098501E-16,1.110223024625E-15));
#693 = DIRECTION('',(-4.440892098501E-16,1.,-1.110223024625E-15));
#694 = ORIENTED_EDGE('',*,*,#680,.F.);
#695 = ORIENTED_EDGE('',*,*,#219,.F.);
#696 = CYLINDRICAL_SURFACE('',#697,1.75);
#697 = AXIS2_PLACEMENT_3D('',#698,#699,#700);
#698 = CARTESIAN_POINT('',(-5.417732242933E-14,17.,35.));
#699 = DIRECTION('',(-1.,8.881784197001E-16,2.044604925031E-18));
#700 = DIRECTION('',(-4.440892098501E-16,1.,-1.330223024625E-15));
#701 = ADVANCED_FACE('',(#702),#721,.F.);
#702 = FACE_BOUND('',#703,.T.);
#703 = EDGE_LOOP('',(#704,#712,#719,#720));
#704 = ORIENTED_EDGE('',*,*,#705,.T.);
#705 = EDGE_CURVE('',#231,#706,#708,.T.);
#706 = VERTEX_POINT('',#707);
#707 = CARTESIAN_POINT('',(3.,6.75,35.));
#708 = LINE('',#709,#710);
#709 = CARTESIAN_POINT('',(-4.962540802837E-14,6.75,35.));
#710 = VECTOR('',#711,1.);
#711 = DIRECTION('',(1.,-1.1081784197E-15,-2.22044604925E-16));
#712 = ORIENTED_EDGE('',*,*,#713,.T.);
#713 = EDGE_CURVE('',#706,#706,#714,.T.);
#714 = CIRCLE('',#715,1.75);
#715 = AXIS2_PLACEMENT_3D('',#716,#717,#718);
#716 = CARTESIAN_POINT('',(3.,5.,35.));
#717 = DIRECTION('',(1.,4.440892098501E-16,1.110223024625E-15));
#718 = DIRECTION('',(-4.440892098501E-16,1.,-1.110223024625E-15));
#719 = ORIENTED_EDGE('',*,*,#705,.F.);
#720 = ORIENTED_EDGE('',*,*,#230,.F.);
#721 = CYLINDRICAL_SURFACE('',#722,1.75);
#722 = AXIS2_PLACEMENT_3D('',#723,#724,#725);
#723 = CARTESIAN_POINT('',(-4.884825191113E-14,5.,35.));
#724 = DIRECTION('',(-1.,8.881784197001E-16,2.044604925031E-18));
#725 = DIRECTION('',(-4.440892098501E-16,1.,-1.330223024625E-15));
#726 = ADVANCED_FACE('',(#727),#738,.F.);
#727 = FACE_BOUND('',#728,.F.);
#728 = EDGE_LOOP('',(#729,#730,#736,#737));
#729 = ORIENTED_EDGE('',*,*,#577,.T.);
#730 = ORIENTED_EDGE('',*,*,#731,.T.);
#731 = EDGE_CURVE('',#570,#273,#732,.T.);
#732 = LINE('',#733,#734);
#733 = CARTESIAN_POINT('',(3.,20.5,55.));
#734 = VECTOR('',#735,1.);
#735 = DIRECTION('',(4.440892098501E-16,-1.,1.110223024625E-15));
#736 = ORIENTED_EDGE('',*,*,#272,.F.);
#737 = ORIENTED_EDGE('',*,*,#347,.F.);
#738 = PLANE('',#739);
#739 = AXIS2_PLACEMENT_3D('',#740,#741,#742);
#740 = CARTESIAN_POINT('',(-8.237609515631E-14,20.5,55.));
#741 = DIRECTION('',(1.110223024625E-15,2.044604925031E-18,-1.));
#742 = DIRECTION('',(4.440892098501E-16,-1.,1.330223024625E-15));
#743 = ADVANCED_FACE('',(#744,#807,#818,#829,#832,#835,#838),#841,.T.);
#744 = FACE_BOUND('',#745,.T.);
#745 = EDGE_LOOP('',(#746,#747,#748,#749,#750,#751,#752,#753,#761,#769,
    #777,#785,#793,#801));
#746 = ORIENTED_EDGE('',*,*,#608,.T.);
#747 = ORIENTED_EDGE('',*,*,#569,.T.);
#748 = ORIENTED_EDGE('',*,*,#731,.T.);
#749 = ORIENTED_EDGE('',*,*,#280,.T.);
#750 = ORIENTED_EDGE('',*,*,#492,.T.);
#751 = ORIENTED_EDGE('',*,*,#475,.T.);
#752 = ORIENTED_EDGE('',*,*,#436,.T.);
#753 = ORIENTED_EDGE('',*,*,#754,.T.);
#754 = EDGE_CURVE('',#437,#755,#757,.T.);
#755 = VERTEX_POINT('',#756);
#756 = CARTESIAN_POINT('',(3.,27.5,-1.765254609154E-14));
#757 = LINE('',#758,#759);
#758 = CARTESIAN_POINT('',(3.,27.5,14.));
#759 = VECTOR('',#760,1.);
#760 = DIRECTION('',(1.110223024625E-15,2.22044604925E-16,-1.));
#761 = ORIENTED_EDGE('',*,*,#762,.T.);
#762 = EDGE_CURVE('',#755,#763,#765,.T.);
#763 = VERTEX_POINT('',#764);
#764 = CARTESIAN_POINT('',(3.,50.5,-3.297362383137E-14));
#765 = LINE('',#766,#767);
#766 = CARTESIAN_POINT('',(3.,27.5,-3.330669073875E-14));
#767 = VECTOR('',#768,1.);
#768 = DIRECTION('',(-4.440892098501E-16,1.,-1.110223024625E-15));
#769 = ORIENTED_EDGE('',*,*,#770,.T.);
#770 = EDGE_CURVE('',#763,#771,#773,.T.);
#771 = VERTEX_POINT('',#772);
#772 = CARTESIAN_POINT('',(3.,50.5,14.));
#773 = LINE('',#774,#775);
#774 = CARTESIAN_POINT('',(3.,50.5,-5.906386491006E-14));
#775 = VECTOR('',#776,1.);
#776 = DIRECTION('',(-1.110223024625E-15,-2.22044604925E-16,1.));
#777 = ORIENTED_EDGE('',*,*,#778,.T.);
#778 = EDGE_CURVE('',#771,#779,#781,.T.);
#779 = VERTEX_POINT('',#780);
#780 = CARTESIAN_POINT('',(3.,50.5,47.));
#781 = LINE('',#782,#783);
#782 = CARTESIAN_POINT('',(3.,50.5,14.));
#783 = VECTOR('',#784,1.);
#784 = DIRECTION('',(-1.110223024625E-15,-2.22044604925E-16,1.));
#785 = ORIENTED_EDGE('',*,*,#786,.F.);
#786 = EDGE_CURVE('',#787,#779,#789,.T.);
#787 = VERTEX_POINT('',#788);
#788 = CARTESIAN_POINT('',(3.,50.5,55.));
#789 = LINE('',#790,#791);
#790 = CARTESIAN_POINT('',(3.,50.5,55.));
#791 = VECTOR('',#792,1.);
#792 = DIRECTION('',(1.110223024625E-15,2.22044604925E-16,-1.));
#793 = ORIENTED_EDGE('',*,*,#794,.F.);
#794 = EDGE_CURVE('',#795,#787,#797,.T.);
#795 = VERTEX_POINT('',#796);
#796 = CARTESIAN_POINT('',(3.,27.5,55.));
#797 = LINE('',#798,#799);
#798 = CARTESIAN_POINT('',(3.,27.5,55.));
#799 = VECTOR('',#800,1.);
#800 = DIRECTION('',(-4.440892098501E-16,1.,-1.110223024625E-15));
#801 = ORIENTED_EDGE('',*,*,#802,.F.);
#802 = EDGE_CURVE('',#601,#795,#803,.T.);
#803 = LINE('',#804,#805);
#804 = CARTESIAN_POINT('',(3.,27.5,47.));
#805 = VECTOR('',#806,1.);
#806 = DIRECTION('',(-1.110223024625E-15,-2.22044604925E-16,1.));
#807 = FACE_BOUND('',#808,.F.);
#808 = EDGE_LOOP('',(#809));
#809 = ORIENTED_EDGE('',*,*,#810,.T.);
#810 = EDGE_CURVE('',#811,#811,#813,.T.);
#811 = VERTEX_POINT('',#812);
#812 = CARTESIAN_POINT('',(3.,39.25,13.5));
#813 = CIRCLE('',#814,1.75);
#814 = AXIS2_PLACEMENT_3D('',#815,#816,#817);
#815 = CARTESIAN_POINT('',(3.,37.5,13.5));
#816 = DIRECTION('',(1.,4.440892098501E-16,1.110223024625E-15));
#817 = DIRECTION('',(-4.440892098501E-16,1.,-1.110223024625E-15));
#818 = FACE_BOUND('',#819,.F.);
#819 = EDGE_LOOP('',(#820));
#820 = ORIENTED_EDGE('',*,*,#821,.T.);
#821 = EDGE_CURVE('',#822,#822,#824,.T.);
#822 = VERTEX_POINT('',#823);
#823 = CARTESIAN_POINT('',(3.,39.25,47.5));
#824 = CIRCLE('',#825,1.75);
#825 = AXIS2_PLACEMENT_3D('',#826,#827,#828);
#826 = CARTESIAN_POINT('',(3.,37.5,47.5));
#827 = DIRECTION('',(1.,4.440892098501E-16,1.110223024625E-15));
#828 = DIRECTION('',(-4.440892098501E-16,1.,-1.110223024625E-15));
#829 = FACE_BOUND('',#830,.F.);
#830 = EDGE_LOOP('',(#831));
#831 = ORIENTED_EDGE('',*,*,#638,.T.);
#832 = FACE_BOUND('',#833,.F.);
#833 = EDGE_LOOP('',(#834));
#834 = ORIENTED_EDGE('',*,*,#663,.T.);
#835 = FACE_BOUND('',#836,.F.);
#836 = EDGE_LOOP('',(#837));
#837 = ORIENTED_EDGE('',*,*,#688,.T.);
#838 = FACE_BOUND('',#839,.F.);
#839 = EDGE_LOOP('',(#840));
#840 = ORIENTED_EDGE('',*,*,#713,.T.);
#841 = PLANE('',#842);
#842 = AXIS2_PLACEMENT_3D('',#843,#844,#845);
#843 = CARTESIAN_POINT('',(3.,24.117645621247,26.291061878799));
#844 = DIRECTION('',(1.,-8.881784197001E-16,-2.22044604925E-16));
#845 = DIRECTION('',(-1.110223024625E-15,-2.22044604925E-16,1.));
#846 = ADVANCED_FACE('',(#847),#853,.T.);
#847 = FACE_BOUND('',#848,.T.);
#848 = EDGE_LOOP('',(#849,#850,#851,#852));
#849 = ORIENTED_EDGE('',*,*,#510,.T.);
#850 = ORIENTED_EDGE('',*,*,#315,.T.);
#851 = ORIENTED_EDGE('',*,*,#337,.F.);
#852 = ORIENTED_EDGE('',*,*,#583,.F.);
#853 = PLANE('',#854);
#854 = AXIS2_PLACEMENT_3D('',#855,#856,#857);
#855 = CARTESIAN_POINT('',(-8.957542608243E-14,20.5,51.999999999997));
#856 = DIRECTION('',(-2.240892098501E-16,1.,-1.110223024625E-15));
#857 = DIRECTION('',(-1.330223024625E-15,-2.22044604925E-16,1.));
#858 = ADVANCED_FACE('',(#859),#875,.F.);
#859 = FACE_BOUND('',#860,.F.);
#860 = EDGE_LOOP('',(#861,#862,#868,#869));
#861 = ORIENTED_EDGE('',*,*,#355,.F.);
#862 = ORIENTED_EDGE('',*,*,#863,.T.);
#863 = EDGE_CURVE('',#356,#522,#864,.T.);
#864 = LINE('',#865,#866);
#865 = CARTESIAN_POINT('',(-2.95,14.631304011769,55.));
#866 = VECTOR('',#867,1.);
#867 = DIRECTION('',(1.330223024625E-15,2.22044604925E-16,-1.));
#868 = ORIENTED_EDGE('',*,*,#529,.T.);
#869 = ORIENTED_EDGE('',*,*,#870,.F.);
#870 = EDGE_CURVE('',#358,#530,#871,.T.);
#871 = LINE('',#872,#873);
#872 = CARTESIAN_POINT('',(-14.05,14.631304011769,55.));
#873 = VECTOR('',#874,1.);
#874 = DIRECTION('',(1.330223024625E-15,2.22044604925E-16,-1.));
#875 = CYLINDRICAL_SURFACE('',#876,6.1);
#876 = AXIS2_PLACEMENT_3D('',#877,#878,#879);
#877 = CARTESIAN_POINT('',(-8.5,12.1,55.));
#878 = DIRECTION('',(-1.110223024625E-15,-2.044604925031E-18,1.));
#879 = DIRECTION('',(6.640892098501E-16,-1.,1.330223024625E-15));
#880 = ADVANCED_FACE('',(#881),#892,.F.);
#881 = FACE_BOUND('',#882,.F.);
#882 = EDGE_LOOP('',(#883,#884,#885,#886));
#883 = ORIENTED_EDGE('',*,*,#383,.F.);
#884 = ORIENTED_EDGE('',*,*,#870,.T.);
#885 = ORIENTED_EDGE('',*,*,#538,.F.);
#886 = ORIENTED_EDGE('',*,*,#887,.F.);
#887 = EDGE_CURVE('',#375,#539,#888,.T.);
#888 = LINE('',#889,#890);
#889 = CARTESIAN_POINT('',(-14.05,9.568695988231,55.));
#890 = VECTOR('',#891,1.);
#891 = DIRECTION('',(1.330223024625E-15,2.22044604925E-16,-1.));
#892 = PLANE('',#893);
#893 = AXIS2_PLACEMENT_3D('',#894,#895,#896);
#894 = CARTESIAN_POINT('',(-14.05,14.631304011769,55.));
#895 = DIRECTION('',(-1.,6.681784197001E-16,2.044604925031E-18));
#896 = DIRECTION('',(6.640892098501E-16,-1.,1.330223024625E-15));
#897 = ADVANCED_FACE('',(#898),#909,.F.);
#898 = FACE_BOUND('',#899,.F.);
#899 = EDGE_LOOP('',(#900,#901,#902,#903));
#900 = ORIENTED_EDGE('',*,*,#374,.F.);
#901 = ORIENTED_EDGE('',*,*,#887,.T.);
#902 = ORIENTED_EDGE('',*,*,#546,.T.);
#903 = ORIENTED_EDGE('',*,*,#904,.F.);
#904 = EDGE_CURVE('',#367,#520,#905,.T.);
#905 = LINE('',#906,#907);
#906 = CARTESIAN_POINT('',(-2.95,9.568695988231,55.));
#907 = VECTOR('',#908,1.);
#908 = DIRECTION('',(1.330223024625E-15,2.22044604925E-16,-1.));
#909 = CYLINDRICAL_SURFACE('',#910,6.1);
#910 = AXIS2_PLACEMENT_3D('',#911,#912,#913);
#911 = CARTESIAN_POINT('',(-8.5,12.1,55.));
#912 = DIRECTION('',(-1.110223024625E-15,-2.044604925031E-18,1.));
#913 = DIRECTION('',(6.640892098501E-16,-1.,1.330223024625E-15));
#914 = ADVANCED_FACE('',(#915),#921,.T.);
#915 = FACE_BOUND('',#916,.T.);
#916 = EDGE_LOOP('',(#917,#918,#919,#920));
#917 = ORIENTED_EDGE('',*,*,#366,.F.);
#918 = ORIENTED_EDGE('',*,*,#863,.T.);
#919 = ORIENTED_EDGE('',*,*,#519,.F.);
#920 = ORIENTED_EDGE('',*,*,#904,.F.);
#921 = PLANE('',#922);
#922 = AXIS2_PLACEMENT_3D('',#923,#924,#925);
#923 = CARTESIAN_POINT('',(-2.95,14.631304011769,55.));
#924 = DIRECTION('',(-1.,6.681784197001E-16,2.044604925031E-18));
#925 = DIRECTION('',(6.640892098501E-16,-1.,1.330223024625E-15));
#926 = ADVANCED_FACE('',(#927),#945,.T.);
#927 = FACE_BOUND('',#928,.T.);
#928 = EDGE_LOOP('',(#929,#937,#943,#944));
#929 = ORIENTED_EDGE('',*,*,#930,.T.);
#930 = EDGE_CURVE('',#599,#931,#933,.T.);
#931 = VERTEX_POINT('',#932);
#932 = CARTESIAN_POINT('',(-2.5,27.5,47.));
#933 = LINE('',#934,#935);
#934 = CARTESIAN_POINT('',(-4.785061236134E-14,27.5,47.));
#935 = VECTOR('',#936,1.);
#936 = DIRECTION('',(-1.,6.661338147751E-16,-3.574525976783E-31));
#937 = ORIENTED_EDGE('',*,*,#938,.T.);
#938 = EDGE_CURVE('',#931,#398,#939,.T.);
#939 = LINE('',#940,#941);
#940 = CARTESIAN_POINT('',(-2.5,27.5,47.));
#941 = VECTOR('',#942,1.);
#942 = DIRECTION('',(4.440892098501E-16,-1.,1.110223024625E-15));
#943 = ORIENTED_EDGE('',*,*,#397,.F.);
#944 = ORIENTED_EDGE('',*,*,#616,.F.);
#945 = PLANE('',#946);
#946 = AXIS2_PLACEMENT_3D('',#947,#948,#949);
#947 = CARTESIAN_POINT('',(-4.785061236134E-14,27.5,47.));
#948 = DIRECTION('',(-6.661338147751E-16,2.22044604925E-16,1.));
#949 = DIRECTION('',(2.22044604925E-16,-1.,8.881784197001E-16));
#950 = ADVANCED_FACE('',(#951),#969,.T.);
#951 = FACE_BOUND('',#952,.T.);
#952 = EDGE_LOOP('',(#953,#954,#962,#968));
#953 = ORIENTED_EDGE('',*,*,#413,.T.);
#954 = ORIENTED_EDGE('',*,*,#955,.T.);
#955 = EDGE_CURVE('',#406,#956,#958,.T.);
#956 = VERTEX_POINT('',#957);
#957 = CARTESIAN_POINT('',(-2.5,27.5,14.));
#958 = LINE('',#959,#960);
#959 = CARTESIAN_POINT('',(-2.5,23.5,14.));
#960 = VECTOR('',#961,1.);
#961 = DIRECTION('',(-4.440892098501E-16,1.,-1.110223024625E-15));
#962 = ORIENTED_EDGE('',*,*,#963,.F.);
#963 = EDGE_CURVE('',#445,#956,#964,.T.);
#964 = LINE('',#965,#966);
#965 = CARTESIAN_POINT('',(-1.854072451124E-14,27.5,14.));
#966 = VECTOR('',#967,1.);
#967 = DIRECTION('',(-1.,6.661338147751E-16,-3.574525976783E-31));
#968 = ORIENTED_EDGE('',*,*,#452,.F.);
#969 = PLANE('',#970);
#970 = AXIS2_PLACEMENT_3D('',#971,#972,#973);
#971 = CARTESIAN_POINT('',(-1.765254609154E-14,23.5,14.));
#972 = DIRECTION('',(6.661338147751E-16,-2.22044604925E-16,-1.));
#973 = DIRECTION('',(-2.22044604925E-16,1.,-8.881784197001E-16));
#974 = ADVANCED_FACE('',(#975),#1000,.T.);
#975 = FACE_BOUND('',#976,.T.);
#976 = EDGE_LOOP('',(#977,#985,#993,#999));
#977 = ORIENTED_EDGE('',*,*,#978,.T.);
#978 = EDGE_CURVE('',#398,#979,#981,.T.);
#979 = VERTEX_POINT('',#980);
#980 = CARTESIAN_POINT('',(-4.2,23.5,47.));
#981 = LINE('',#982,#983);
#982 = CARTESIAN_POINT('',(-2.5,23.5,47.));
#983 = VECTOR('',#984,1.);
#984 = DIRECTION('',(-1.,2.22044604925E-16,-1.110223024625E-16));
#985 = ORIENTED_EDGE('',*,*,#986,.T.);
#986 = EDGE_CURVE('',#979,#987,#989,.T.);
#987 = VERTEX_POINT('',#988);
#988 = CARTESIAN_POINT('',(-4.2,23.5,14.));
#989 = LINE('',#990,#991);
#990 = CARTESIAN_POINT('',(-4.2,23.5,47.));
#991 = VECTOR('',#992,1.);
#992 = DIRECTION('',(5.551115123126E-16,1.110223024625E-16,-1.));
#993 = ORIENTED_EDGE('',*,*,#994,.F.);
#994 = EDGE_CURVE('',#406,#987,#995,.T.);
#995 = LINE('',#996,#997);
#996 = CARTESIAN_POINT('',(-2.5,23.5,14.));
#997 = VECTOR('',#998,1.);
#998 = DIRECTION('',(-1.,2.22044604925E-16,-1.110223024625E-16));
#999 = ORIENTED_EDGE('',*,*,#405,.F.);
#1000 = PLANE('',#1001);
#1001 = AXIS2_PLACEMENT_3D('',#1002,#1003,#1004);
#1002 = CARTESIAN_POINT('',(-2.5,23.5,47.));
#1003 = DIRECTION('',(-2.22044604925E-16,-1.,1.110223024625E-16));
#1004 = DIRECTION('',(3.330669073875E-16,-1.110223024625E-16,-1.));
#1005 = ADVANCED_FACE('',(#1006),#1024,.F.);
#1006 = FACE_BOUND('',#1007,.F.);
#1007 = EDGE_LOOP('',(#1008,#1009,#1010,#1018));
#1008 = ORIENTED_EDGE('',*,*,#444,.T.);
#1009 = ORIENTED_EDGE('',*,*,#754,.T.);
#1010 = ORIENTED_EDGE('',*,*,#1011,.F.);
#1011 = EDGE_CURVE('',#1012,#755,#1014,.T.);
#1012 = VERTEX_POINT('',#1013);
#1013 = CARTESIAN_POINT('',(4.338734978716E-30,27.5,-1.831867990632E-14)
  );
#1014 = LINE('',#1015,#1016);
#1015 = CARTESIAN_POINT('',(-1.221245327088E-14,27.5,-3.664113317719E-14
    ));
#1016 = VECTOR('',#1017,1.);
#1017 = DIRECTION('',(1.,-1.1081784197E-15,-2.22044604925E-16));
#1018 = ORIENTED_EDGE('',*,*,#1019,.F.);
#1019 = EDGE_CURVE('',#445,#1012,#1020,.T.);
#1020 = LINE('',#1021,#1022);
#1021 = CARTESIAN_POINT('',(-2.775557561563E-14,27.5,14.));
#1022 = VECTOR('',#1023,1.);
#1023 = DIRECTION('',(1.110223024625E-15,2.22044604925E-16,-1.));
#1024 = PLANE('',#1025);
#1025 = AXIS2_PLACEMENT_3D('',#1026,#1027,#1028);
#1026 = CARTESIAN_POINT('',(-3.086557561563E-14,27.5,14.));
#1027 = DIRECTION('',(-2.240892098501E-16,1.,-1.110223024625E-15));
#1028 = DIRECTION('',(1.330223024625E-15,2.22044604925E-16,-1.));
#1029 = ADVANCED_FACE('',(#1030),#1048,.T.);
#1030 = FACE_BOUND('',#1031,.T.);
#1031 = EDGE_LOOP('',(#1032,#1033,#1034,#1042));
#1032 = ORIENTED_EDGE('',*,*,#598,.T.);
#1033 = ORIENTED_EDGE('',*,*,#802,.T.);
#1034 = ORIENTED_EDGE('',*,*,#1035,.F.);
#1035 = EDGE_CURVE('',#1036,#795,#1038,.T.);
#1036 = VERTEX_POINT('',#1037);
#1037 = CARTESIAN_POINT('',(-3.663735981263E-14,27.5,55.));
#1038 = LINE('',#1039,#1040);
#1039 = CARTESIAN_POINT('',(-8.548471962526E-14,27.5,55.));
#1040 = VECTOR('',#1041,1.);
#1041 = DIRECTION('',(1.,-1.1081784197E-15,-2.22044604925E-16));
#1042 = ORIENTED_EDGE('',*,*,#1043,.F.);
#1043 = EDGE_CURVE('',#599,#1036,#1044,.T.);
#1044 = LINE('',#1045,#1046);
#1045 = CARTESIAN_POINT('',(-6.439293542826E-14,27.5,47.));
#1046 = VECTOR('',#1047,1.);
#1047 = DIRECTION('',(-1.110223024625E-15,-2.22044604925E-16,1.));
#1048 = PLANE('',#1049);
#1049 = AXIS2_PLACEMENT_3D('',#1050,#1051,#1052);
#1050 = CARTESIAN_POINT('',(-7.483293542826E-14,27.5,47.));
#1051 = DIRECTION('',(2.240892098501E-16,-1.,1.110223024625E-15));
#1052 = DIRECTION('',(-1.330223024625E-15,-2.22044604925E-16,1.));
#1053 = ADVANCED_FACE('',(#1054),#1072,.F.);
#1054 = FACE_BOUND('',#1055,.F.);
#1055 = EDGE_LOOP('',(#1056,#1057,#1058,#1066));
#1056 = ORIENTED_EDGE('',*,*,#1011,.T.);
#1057 = ORIENTED_EDGE('',*,*,#762,.T.);
#1058 = ORIENTED_EDGE('',*,*,#1059,.F.);
#1059 = EDGE_CURVE('',#1060,#763,#1062,.T.);
#1060 = VERTEX_POINT('',#1061);
#1061 = CARTESIAN_POINT('',(7.88860905221E-30,50.5,-3.363975764614E-14)
  );
#1062 = LINE('',#1063,#1064);
#1063 = CARTESIAN_POINT('',(-2.242650509743E-14,50.5,-6.727626274357E-14
    ));
#1064 = VECTOR('',#1065,1.);
#1065 = DIRECTION('',(1.,-1.1081784197E-15,-2.22044604925E-16));
#1066 = ORIENTED_EDGE('',*,*,#1067,.F.);
#1067 = EDGE_CURVE('',#1012,#1060,#1068,.T.);
#1068 = LINE('',#1069,#1070);
#1069 = CARTESIAN_POINT('',(-1.221245327088E-14,27.5,-3.053113317719E-14
    ));
#1070 = VECTOR('',#1071,1.);
#1071 = DIRECTION('',(-4.440892098501E-16,1.,-1.110223024625E-15));
#1072 = PLANE('',#1073);
#1073 = AXIS2_PLACEMENT_3D('',#1074,#1075,#1076);
#1074 = CARTESIAN_POINT('',(-1.221245327088E-14,27.5,-3.664113317719E-14
    ));
#1075 = DIRECTION('',(-1.110223024625E-15,-2.044604925031E-18,1.));
#1076 = DIRECTION('',(-4.440892098501E-16,1.,-1.330223024625E-15));
#1077 = ADVANCED_FACE('',(#1078),#1096,.F.);
#1078 = FACE_BOUND('',#1079,.F.);
#1079 = EDGE_LOOP('',(#1080,#1081,#1082,#1090));
#1080 = ORIENTED_EDGE('',*,*,#1059,.T.);
#1081 = ORIENTED_EDGE('',*,*,#770,.T.);
#1082 = ORIENTED_EDGE('',*,*,#1083,.F.);
#1083 = EDGE_CURVE('',#1084,#771,#1086,.T.);
#1084 = VERTEX_POINT('',#1085);
#1085 = CARTESIAN_POINT('',(-9.325873406851E-15,50.5,14.));
#1086 = LINE('',#1087,#1088);
#1087 = CARTESIAN_POINT('',(-4.107962744218E-14,50.5,14.));
#1088 = VECTOR('',#1089,1.);
#1089 = DIRECTION('',(1.,-1.1081784197E-15,-2.22044604925E-16));
#1090 = ORIENTED_EDGE('',*,*,#1091,.F.);
#1091 = EDGE_CURVE('',#1060,#1084,#1092,.T.);
#1092 = LINE('',#1093,#1094);
#1093 = CARTESIAN_POINT('',(-2.242650509743E-14,50.5,-5.606626274357E-14
    ));
#1094 = VECTOR('',#1095,1.);
#1095 = DIRECTION('',(-1.110223024625E-15,-2.22044604925E-16,1.));
#1096 = PLANE('',#1097);
#1097 = AXIS2_PLACEMENT_3D('',#1098,#1099,#1100);
#1098 = CARTESIAN_POINT('',(-2.242650509743E-14,50.5,-6.727626274357E-14
    ));
#1099 = DIRECTION('',(2.240892098501E-16,-1.,1.110223024625E-15));
#1100 = DIRECTION('',(-1.330223024625E-15,-2.22044604925E-16,1.));
#1101 = ADVANCED_FACE('',(#1102),#1120,.F.);
#1102 = FACE_BOUND('',#1103,.F.);
#1103 = EDGE_LOOP('',(#1104,#1105,#1106,#1114));
#1104 = ORIENTED_EDGE('',*,*,#1083,.T.);
#1105 = ORIENTED_EDGE('',*,*,#778,.T.);
#1106 = ORIENTED_EDGE('',*,*,#1107,.F.);
#1107 = EDGE_CURVE('',#1108,#779,#1110,.T.);
#1108 = VERTEX_POINT('',#1109);
#1109 = CARTESIAN_POINT('',(-3.130828929443E-14,50.5,47.));
#1110 = LINE('',#1111,#1112);
#1111 = CARTESIAN_POINT('',(-8.504698725481E-14,50.5,47.));
#1112 = VECTOR('',#1113,1.);
#1113 = DIRECTION('',(1.,-1.1081784197E-15,-2.22044604925E-16));
#1114 = ORIENTED_EDGE('',*,*,#1115,.F.);
#1115 = EDGE_CURVE('',#1084,#1108,#1116,.T.);
#1116 = LINE('',#1117,#1118);
#1117 = CARTESIAN_POINT('',(-3.796962744218E-14,50.5,14.));
#1118 = VECTOR('',#1119,1.);
#1119 = DIRECTION('',(-1.110223024625E-15,-2.22044604925E-16,1.));
#1120 = PLANE('',#1121);
#1121 = AXIS2_PLACEMENT_3D('',#1122,#1123,#1124);
#1122 = CARTESIAN_POINT('',(-4.107962744218E-14,50.5,14.));
#1123 = DIRECTION('',(2.240892098501E-16,-1.,1.110223024625E-15));
#1124 = DIRECTION('',(-1.330223024625E-15,-2.22044604925E-16,1.));
#1125 = ADVANCED_FACE('',(#1126),#1144,.T.);
#1126 = FACE_BOUND('',#1127,.T.);
#1127 = EDGE_LOOP('',(#1128,#1136,#1137,#1138));
#1128 = ORIENTED_EDGE('',*,*,#1129,.T.);
#1129 = EDGE_CURVE('',#1130,#787,#1132,.T.);
#1130 = VERTEX_POINT('',#1131);
#1131 = CARTESIAN_POINT('',(-3.663735981263E-14,50.5,55.));
#1132 = LINE('',#1133,#1134);
#1133 = CARTESIAN_POINT('',(-9.569877145181E-14,50.5,55.));
#1134 = VECTOR('',#1135,1.);
#1135 = DIRECTION('',(1.,-1.1081784197E-15,-2.22044604925E-16));
#1136 = ORIENTED_EDGE('',*,*,#786,.T.);
#1137 = ORIENTED_EDGE('',*,*,#1107,.F.);
#1138 = ORIENTED_EDGE('',*,*,#1139,.F.);
#1139 = EDGE_CURVE('',#1130,#1108,#1140,.T.);
#1140 = LINE('',#1141,#1142);
#1141 = CARTESIAN_POINT('',(-8.348877145181E-14,50.5,55.));
#1142 = VECTOR('',#1143,1.);
#1143 = DIRECTION('',(1.110223024625E-15,2.22044604925E-16,-1.));
#1144 = PLANE('',#1145);
#1145 = AXIS2_PLACEMENT_3D('',#1146,#1147,#1148);
#1146 = CARTESIAN_POINT('',(-9.569877145181E-14,50.5,55.));
#1147 = DIRECTION('',(-2.240892098501E-16,1.,-1.110223024625E-15));
#1148 = DIRECTION('',(1.330223024625E-15,2.22044604925E-16,-1.));
#1149 = ADVANCED_FACE('',(#1150),#1161,.T.);
#1150 = FACE_BOUND('',#1151,.T.);
#1151 = EDGE_LOOP('',(#1152,#1153,#1154,#1155));
#1152 = ORIENTED_EDGE('',*,*,#1035,.T.);
#1153 = ORIENTED_EDGE('',*,*,#794,.T.);
#1154 = ORIENTED_EDGE('',*,*,#1129,.F.);
#1155 = ORIENTED_EDGE('',*,*,#1156,.F.);
#1156 = EDGE_CURVE('',#1036,#1130,#1157,.T.);
#1157 = LINE('',#1158,#1159);
#1158 = CARTESIAN_POINT('',(-7.327471962526E-14,27.5,55.));
#1159 = VECTOR('',#1160,1.);
#1160 = DIRECTION('',(-4.440892098501E-16,1.,-1.110223024625E-15));
#1161 = PLANE('',#1162);
#1162 = AXIS2_PLACEMENT_3D('',#1163,#1164,#1165);
#1163 = CARTESIAN_POINT('',(-8.548471962526E-14,27.5,55.));
#1164 = DIRECTION('',(-1.110223024625E-15,-2.044604925031E-18,1.));
#1165 = DIRECTION('',(-4.440892098501E-16,1.,-1.330223024625E-15));
#1166 = ADVANCED_FACE('',(#1167),#1186,.F.);
#1167 = FACE_BOUND('',#1168,.T.);
#1168 = EDGE_LOOP('',(#1169,#1177,#1178,#1179));
#1169 = ORIENTED_EDGE('',*,*,#1170,.T.);
#1170 = EDGE_CURVE('',#1171,#811,#1173,.T.);
#1171 = VERTEX_POINT('',#1172);
#1172 = CARTESIAN_POINT('',(-8.992806499464E-15,39.25,13.5));
#1173 = LINE('',#1174,#1175);
#1174 = CARTESIAN_POINT('',(-3.541851231905E-14,39.25,13.5));
#1175 = VECTOR('',#1176,1.);
#1176 = DIRECTION('',(1.,-1.1081784197E-15,-2.22044604925E-16));
#1177 = ORIENTED_EDGE('',*,*,#810,.T.);
#1178 = ORIENTED_EDGE('',*,*,#1170,.F.);
#1179 = ORIENTED_EDGE('',*,*,#1180,.F.);
#1180 = EDGE_CURVE('',#1171,#1171,#1181,.T.);
#1181 = CIRCLE('',#1182,1.75);
#1182 = AXIS2_PLACEMENT_3D('',#1183,#1184,#1185);
#1183 = CARTESIAN_POINT('',(-3.164135620182E-14,37.5,13.5));
#1184 = DIRECTION('',(1.,4.440892098501E-16,1.110223024625E-15));
#1185 = DIRECTION('',(-4.440892098501E-16,1.,-1.110223024625E-15));
#1186 = CYLINDRICAL_SURFACE('',#1187,1.75);
#1187 = AXIS2_PLACEMENT_3D('',#1188,#1189,#1190);
#1188 = CARTESIAN_POINT('',(-3.464135620182E-14,37.5,13.5));
#1189 = DIRECTION('',(-1.,8.881784197001E-16,2.044604925031E-18));
#1190 = DIRECTION('',(-4.440892098501E-16,1.,-1.330223024625E-15));
#1191 = ADVANCED_FACE('',(#1192),#1211,.F.);
#1192 = FACE_BOUND('',#1193,.T.);
#1193 = EDGE_LOOP('',(#1194,#1202,#1203,#1204));
#1194 = ORIENTED_EDGE('',*,*,#1195,.T.);
#1195 = EDGE_CURVE('',#1196,#822,#1198,.T.);
#1196 = VERTEX_POINT('',#1197);
#1197 = CARTESIAN_POINT('',(-3.164135620182E-14,39.25,47.5));
#1198 = LINE('',#1199,#1200);
#1199 = CARTESIAN_POINT('',(-8.071609515631E-14,39.25,47.5));
#1200 = VECTOR('',#1201,1.);
#1201 = DIRECTION('',(1.,-1.1081784197E-15,-2.22044604925E-16));
#1202 = ORIENTED_EDGE('',*,*,#821,.T.);
#1203 = ORIENTED_EDGE('',*,*,#1195,.F.);
#1204 = ORIENTED_EDGE('',*,*,#1205,.F.);
#1205 = EDGE_CURVE('',#1196,#1196,#1206,.T.);
#1206 = CIRCLE('',#1207,1.75);
#1207 = AXIS2_PLACEMENT_3D('',#1208,#1209,#1210);
#1208 = CARTESIAN_POINT('',(-6.938893903907E-14,37.5,47.5));
#1209 = DIRECTION('',(1.,4.440892098501E-16,1.110223024625E-15));
#1210 = DIRECTION('',(-4.440892098501E-16,1.,-1.110223024625E-15));
#1211 = CYLINDRICAL_SURFACE('',#1212,1.75);
#1212 = AXIS2_PLACEMENT_3D('',#1213,#1214,#1215);
#1213 = CARTESIAN_POINT('',(-7.993893903907E-14,37.5,47.5));
#1214 = DIRECTION('',(-1.,8.881784197001E-16,2.044604925031E-18));
#1215 = DIRECTION('',(-4.440892098501E-16,1.,-1.330223024625E-15));
#1216 = ADVANCED_FACE('',(#1217),#1235,.T.);
#1217 = FACE_BOUND('',#1218,.T.);
#1218 = EDGE_LOOP('',(#1219,#1227,#1233,#1234));
#1219 = ORIENTED_EDGE('',*,*,#1220,.T.);
#1220 = EDGE_CURVE('',#1036,#1221,#1223,.T.);
#1221 = VERTEX_POINT('',#1222);
#1222 = CARTESIAN_POINT('',(-2.5,27.5,55.));
#1223 = LINE('',#1224,#1225);
#1224 = CARTESIAN_POINT('',(-5.495603971895E-14,27.5,55.));
#1225 = VECTOR('',#1226,1.);
#1226 = DIRECTION('',(-1.,6.661338147751E-16,-3.574525976783E-31));
#1227 = ORIENTED_EDGE('',*,*,#1228,.T.);
#1228 = EDGE_CURVE('',#1221,#931,#1229,.T.);
#1229 = LINE('',#1230,#1231);
#1230 = CARTESIAN_POINT('',(-2.5,27.5,55.));
#1231 = VECTOR('',#1232,1.);
#1232 = DIRECTION('',(1.110223024625E-15,2.22044604925E-16,-1.));
#1233 = ORIENTED_EDGE('',*,*,#930,.F.);
#1234 = ORIENTED_EDGE('',*,*,#1043,.T.);
#1235 = PLANE('',#1236);
#1236 = AXIS2_PLACEMENT_3D('',#1237,#1238,#1239);
#1237 = CARTESIAN_POINT('',(-5.495603971895E-14,27.5,55.));
#1238 = DIRECTION('',(-1.479114197289E-31,-1.,6.661338147751E-16));
#1239 = DIRECTION('',(8.881784197001E-16,-2.958228394579E-31,-1.));
#1240 = ADVANCED_FACE('',(#1241),#1259,.T.);
#1241 = FACE_BOUND('',#1242,.T.);
#1242 = EDGE_LOOP('',(#1243,#1251,#1257,#1258));
#1243 = ORIENTED_EDGE('',*,*,#1244,.T.);
#1244 = EDGE_CURVE('',#931,#1245,#1247,.T.);
#1245 = VERTEX_POINT('',#1246);
#1246 = CARTESIAN_POINT('',(-4.2,27.5,47.));
#1247 = LINE('',#1248,#1249);
#1248 = CARTESIAN_POINT('',(-2.5,27.5,47.));
#1249 = VECTOR('',#1250,1.);
#1250 = DIRECTION('',(-1.,2.22044604925E-16,-1.110223024625E-16));
#1251 = ORIENTED_EDGE('',*,*,#1252,.T.);
#1252 = EDGE_CURVE('',#1245,#979,#1253,.T.);
#1253 = LINE('',#1254,#1255);
#1254 = CARTESIAN_POINT('',(-4.2,27.5,47.));
#1255 = VECTOR('',#1256,1.);
#1256 = DIRECTION('',(2.22044604925E-16,-1.,5.551115123126E-16));
#1257 = ORIENTED_EDGE('',*,*,#978,.F.);
#1258 = ORIENTED_EDGE('',*,*,#938,.F.);
#1259 = PLANE('',#1260);
#1260 = AXIS2_PLACEMENT_3D('',#1261,#1262,#1263);
#1261 = CARTESIAN_POINT('',(-2.5,27.5,47.));
#1262 = DIRECTION('',(-1.110223024625E-16,3.330669073875E-16,1.));
#1263 = DIRECTION('',(-2.465190328816E-32,-1.,3.330669073875E-16));
#1264 = ADVANCED_FACE('',(#1265),#1283,.T.);
#1265 = FACE_BOUND('',#1266,.T.);
#1266 = EDGE_LOOP('',(#1267,#1268,#1276,#1282));
#1267 = ORIENTED_EDGE('',*,*,#963,.T.);
#1268 = ORIENTED_EDGE('',*,*,#1269,.T.);
#1269 = EDGE_CURVE('',#956,#1270,#1272,.T.);
#1270 = VERTEX_POINT('',#1271);
#1271 = CARTESIAN_POINT('',(-2.5,27.5,-1.429412144205E-14));
#1272 = LINE('',#1273,#1274);
#1273 = CARTESIAN_POINT('',(-2.5,27.5,14.));
#1274 = VECTOR('',#1275,1.);
#1275 = DIRECTION('',(1.110223024625E-15,2.22044604925E-16,-1.));
#1276 = ORIENTED_EDGE('',*,*,#1277,.F.);
#1277 = EDGE_CURVE('',#1012,#1270,#1278,.T.);
#1278 = LINE('',#1279,#1280);
#1279 = CARTESIAN_POINT('',(-6.106226635438E-15,27.5,-2.442490654175E-14
    ));
#1280 = VECTOR('',#1281,1.);
#1281 = DIRECTION('',(-1.,6.661338147751E-16,-3.574525976783E-31));
#1282 = ORIENTED_EDGE('',*,*,#1019,.F.);
#1283 = PLANE('',#1284);
#1284 = AXIS2_PLACEMENT_3D('',#1285,#1286,#1287);
#1285 = CARTESIAN_POINT('',(-1.854072451124E-14,27.5,14.));
#1286 = DIRECTION('',(-1.479114197289E-31,-1.,6.661338147751E-16));
#1287 = DIRECTION('',(8.881784197001E-16,-2.958228394579E-31,-1.));
#1288 = ADVANCED_FACE('',(#1289),#1307,.T.);
#1289 = FACE_BOUND('',#1290,.T.);
#1290 = EDGE_LOOP('',(#1291,#1292,#1300,#1306));
#1291 = ORIENTED_EDGE('',*,*,#994,.T.);
#1292 = ORIENTED_EDGE('',*,*,#1293,.T.);
#1293 = EDGE_CURVE('',#987,#1294,#1296,.T.);
#1294 = VERTEX_POINT('',#1295);
#1295 = CARTESIAN_POINT('',(-4.2,27.5,14.));
#1296 = LINE('',#1297,#1298);
#1297 = CARTESIAN_POINT('',(-4.2,23.5,14.));
#1298 = VECTOR('',#1299,1.);
#1299 = DIRECTION('',(-2.22044604925E-16,1.,-5.551115123126E-16));
#1300 = ORIENTED_EDGE('',*,*,#1301,.F.);
#1301 = EDGE_CURVE('',#956,#1294,#1302,.T.);
#1302 = LINE('',#1303,#1304);
#1303 = CARTESIAN_POINT('',(-2.5,27.5,14.));
#1304 = VECTOR('',#1305,1.);
#1305 = DIRECTION('',(-1.,2.22044604925E-16,-1.110223024625E-16));
#1306 = ORIENTED_EDGE('',*,*,#955,.F.);
#1307 = PLANE('',#1308);
#1308 = AXIS2_PLACEMENT_3D('',#1309,#1310,#1311);
#1309 = CARTESIAN_POINT('',(-2.5,23.5,14.));
#1310 = DIRECTION('',(1.110223024625E-16,-3.330669073875E-16,-1.));
#1311 = DIRECTION('',(2.465190328816E-32,1.,-3.330669073875E-16));
#1312 = ADVANCED_FACE('',(#1313,#1356,#1390,#1401),#1412,.F.);
#1313 = FACE_BOUND('',#1314,.F.);
#1314 = EDGE_LOOP('',(#1315,#1325,#1333,#1341,#1347,#1348,#1349,#1350));
#1315 = ORIENTED_EDGE('',*,*,#1316,.T.);
#1316 = EDGE_CURVE('',#1317,#1319,#1321,.T.);
#1317 = VERTEX_POINT('',#1318);
#1318 = CARTESIAN_POINT('',(-4.2,27.5,-9.903189379656E-15));
#1319 = VERTEX_POINT('',#1320);
#1320 = CARTESIAN_POINT('',(-4.2,50.5,-1.756372824957E-14));
#1321 = LINE('',#1322,#1323);
#1322 = CARTESIAN_POINT('',(-4.2,27.5,-1.33226762955E-14));
#1323 = VECTOR('',#1324,1.);
#1324 = DIRECTION('',(-2.22044604925E-16,1.,-5.551115123126E-16));
#1325 = ORIENTED_EDGE('',*,*,#1326,.T.);
#1326 = EDGE_CURVE('',#1319,#1327,#1329,.T.);
#1327 = VERTEX_POINT('',#1328);
#1328 = CARTESIAN_POINT('',(-4.2,50.5,55.));
#1329 = LINE('',#1330,#1331);
#1330 = CARTESIAN_POINT('',(-4.2,50.5,-2.6645352591E-14));
#1331 = VECTOR('',#1332,1.);
#1332 = DIRECTION('',(-5.551115123126E-16,-1.110223024625E-16,1.));
#1333 = ORIENTED_EDGE('',*,*,#1334,.T.);
#1334 = EDGE_CURVE('',#1327,#1335,#1337,.T.);
#1335 = VERTEX_POINT('',#1336);
#1336 = CARTESIAN_POINT('',(-4.2,27.5,55.));
#1337 = LINE('',#1338,#1339);
#1338 = CARTESIAN_POINT('',(-4.2,50.5,55.));
#1339 = VECTOR('',#1340,1.);
#1340 = DIRECTION('',(2.22044604925E-16,-1.,5.551115123126E-16));
#1341 = ORIENTED_EDGE('',*,*,#1342,.T.);
#1342 = EDGE_CURVE('',#1335,#1245,#1343,.T.);
#1343 = LINE('',#1344,#1345);
#1344 = CARTESIAN_POINT('',(-4.2,27.5,55.));
#1345 = VECTOR('',#1346,1.);
#1346 = DIRECTION('',(5.551115123126E-16,1.110223024625E-16,-1.));
#1347 = ORIENTED_EDGE('',*,*,#1252,.T.);
#1348 = ORIENTED_EDGE('',*,*,#986,.T.);
#1349 = ORIENTED_EDGE('',*,*,#1293,.T.);
#1350 = ORIENTED_EDGE('',*,*,#1351,.T.);
#1351 = EDGE_CURVE('',#1294,#1317,#1352,.T.);
#1352 = LINE('',#1353,#1354);
#1353 = CARTESIAN_POINT('',(-4.2,27.5,14.));
#1354 = VECTOR('',#1355,1.);
#1355 = DIRECTION('',(5.551115123126E-16,1.110223024625E-16,-1.));
#1356 = FACE_BOUND('',#1357,.F.);
#1357 = EDGE_LOOP('',(#1358,#1368,#1376,#1384));
#1358 = ORIENTED_EDGE('',*,*,#1359,.T.);
#1359 = EDGE_CURVE('',#1360,#1362,#1364,.T.);
#1360 = VERTEX_POINT('',#1361);
#1361 = CARTESIAN_POINT('',(-4.2,26.5,17.));
#1362 = VERTEX_POINT('',#1363);
#1363 = CARTESIAN_POINT('',(-4.2,26.5,44.));
#1364 = LINE('',#1365,#1366);
#1365 = CARTESIAN_POINT('',(-4.2,26.5,17.));
#1366 = VECTOR('',#1367,1.);
#1367 = DIRECTION('',(-5.551115123126E-16,-1.110223024625E-16,1.));
#1368 = ORIENTED_EDGE('',*,*,#1369,.T.);
#1369 = EDGE_CURVE('',#1362,#1370,#1372,.T.);
#1370 = VERTEX_POINT('',#1371);
#1371 = CARTESIAN_POINT('',(-4.2,48.5,44.));
#1372 = LINE('',#1373,#1374);
#1373 = CARTESIAN_POINT('',(-4.2,26.5,44.));
#1374 = VECTOR('',#1375,1.);
#1375 = DIRECTION('',(-2.22044604925E-16,1.,-5.551115123126E-16));
#1376 = ORIENTED_EDGE('',*,*,#1377,.T.);
#1377 = EDGE_CURVE('',#1370,#1378,#1380,.T.);
#1378 = VERTEX_POINT('',#1379);
#1379 = CARTESIAN_POINT('',(-4.2,48.5,17.));
#1380 = LINE('',#1381,#1382);
#1381 = CARTESIAN_POINT('',(-4.2,48.5,44.));
#1382 = VECTOR('',#1383,1.);
#1383 = DIRECTION('',(5.551115123126E-16,1.110223024625E-16,-1.));
#1384 = ORIENTED_EDGE('',*,*,#1385,.T.);
#1385 = EDGE_CURVE('',#1378,#1360,#1386,.T.);
#1386 = LINE('',#1387,#1388);
#1387 = CARTESIAN_POINT('',(-4.2,48.5,17.));
#1388 = VECTOR('',#1389,1.);
#1389 = DIRECTION('',(2.22044604925E-16,-1.,5.551115123126E-16));
#1390 = FACE_BOUND('',#1391,.F.);
#1391 = EDGE_LOOP('',(#1392));
#1392 = ORIENTED_EDGE('',*,*,#1393,.T.);
#1393 = EDGE_CURVE('',#1394,#1394,#1396,.T.);
#1394 = VERTEX_POINT('',#1395);
#1395 = CARTESIAN_POINT('',(-4.2,39.25,47.5));
#1396 = CIRCLE('',#1397,1.75);
#1397 = AXIS2_PLACEMENT_3D('',#1398,#1399,#1400);
#1398 = CARTESIAN_POINT('',(-4.2,37.5,47.5));
#1399 = DIRECTION('',(-1.,-2.22044604925E-16,-5.551115123126E-16));
#1400 = DIRECTION('',(-2.22044604925E-16,1.,-5.551115123126E-16));
#1401 = FACE_BOUND('',#1402,.F.);
#1402 = EDGE_LOOP('',(#1403));
#1403 = ORIENTED_EDGE('',*,*,#1404,.T.);
#1404 = EDGE_CURVE('',#1405,#1405,#1407,.T.);
#1405 = VERTEX_POINT('',#1406);
#1406 = CARTESIAN_POINT('',(-4.2,39.25,13.5));
#1407 = CIRCLE('',#1408,1.75);
#1408 = AXIS2_PLACEMENT_3D('',#1409,#1410,#1411);
#1409 = CARTESIAN_POINT('',(-4.2,37.5,13.5));
#1410 = DIRECTION('',(-1.,-2.22044604925E-16,-5.551115123126E-16));
#1411 = DIRECTION('',(-2.22044604925E-16,1.,-5.551115123126E-16));
#1412 = PLANE('',#1413);
#1413 = AXIS2_PLACEMENT_3D('',#1414,#1415,#1416);
#1414 = CARTESIAN_POINT('',(-4.2,37.521414305411,28.829684177936));
#1415 = DIRECTION('',(1.,-4.440892098501E-16,-1.110223024625E-16));
#1416 = DIRECTION('',(-5.551115123126E-16,-1.110223024625E-16,1.));
#1417 = ADVANCED_FACE('',(#1418),#1436,.T.);
#1418 = FACE_BOUND('',#1419,.T.);
#1419 = EDGE_LOOP('',(#1420,#1421,#1429,#1435));
#1420 = ORIENTED_EDGE('',*,*,#1277,.T.);
#1421 = ORIENTED_EDGE('',*,*,#1422,.T.);
#1422 = EDGE_CURVE('',#1270,#1423,#1425,.T.);
#1423 = VERTEX_POINT('',#1424);
#1424 = CARTESIAN_POINT('',(-2.5,50.5,-2.578492974692E-14));
#1425 = LINE('',#1426,#1427);
#1426 = CARTESIAN_POINT('',(-2.5,27.5,-2.75335310107E-14));
#1427 = VECTOR('',#1428,1.);
#1428 = DIRECTION('',(-4.440892098501E-16,1.,-1.110223024625E-15));
#1429 = ORIENTED_EDGE('',*,*,#1430,.F.);
#1430 = EDGE_CURVE('',#1060,#1423,#1431,.T.);
#1431 = LINE('',#1432,#1433);
#1432 = CARTESIAN_POINT('',(-1.121325254871E-14,50.5,-4.485301019486E-14
    ));
#1433 = VECTOR('',#1434,1.);
#1434 = DIRECTION('',(-1.,6.661338147751E-16,-3.574525976783E-31));
#1435 = ORIENTED_EDGE('',*,*,#1067,.F.);
#1436 = PLANE('',#1437);
#1437 = AXIS2_PLACEMENT_3D('',#1438,#1439,#1440);
#1438 = CARTESIAN_POINT('',(-6.106226635438E-15,27.5,-2.442490654175E-14
    ));
#1439 = DIRECTION('',(6.661338147751E-16,-2.22044604925E-16,-1.));
#1440 = DIRECTION('',(-2.22044604925E-16,1.,-8.881784197001E-16));
#1441 = ADVANCED_FACE('',(#1442),#1462,.T.);
#1442 = FACE_BOUND('',#1443,.T.);
#1443 = EDGE_LOOP('',(#1444,#1445,#1453,#1459,#1460,#1461));
#1444 = ORIENTED_EDGE('',*,*,#1430,.T.);
#1445 = ORIENTED_EDGE('',*,*,#1446,.T.);
#1446 = EDGE_CURVE('',#1423,#1447,#1449,.T.);
#1447 = VERTEX_POINT('',#1448);
#1448 = CARTESIAN_POINT('',(-2.5,50.5,55.));
#1449 = LINE('',#1450,#1451);
#1450 = CARTESIAN_POINT('',(-2.5,50.5,-5.329070518201E-14));
#1451 = VECTOR('',#1452,1.);
#1452 = DIRECTION('',(-1.110223024625E-15,-2.22044604925E-16,1.));
#1453 = ORIENTED_EDGE('',*,*,#1454,.F.);
#1454 = EDGE_CURVE('',#1130,#1447,#1455,.T.);
#1455 = LINE('',#1456,#1457);
#1456 = CARTESIAN_POINT('',(-6.006306563222E-14,50.5,55.));
#1457 = VECTOR('',#1458,1.);
#1458 = DIRECTION('',(-1.,6.661338147751E-16,-3.574525976783E-31));
#1459 = ORIENTED_EDGE('',*,*,#1139,.T.);
#1460 = ORIENTED_EDGE('',*,*,#1115,.F.);
#1461 = ORIENTED_EDGE('',*,*,#1091,.F.);
#1462 = PLANE('',#1463);
#1463 = AXIS2_PLACEMENT_3D('',#1464,#1465,#1466);
#1464 = CARTESIAN_POINT('',(-1.121325254871E-14,50.5,-4.485301019486E-14
    ));
#1465 = DIRECTION('',(1.479114197289E-31,1.,-6.661338147751E-16));
#1466 = DIRECTION('',(-8.881784197001E-16,2.958228394579E-31,1.));
#1467 = ADVANCED_FACE('',(#1468),#1479,.T.);
#1468 = FACE_BOUND('',#1469,.T.);
#1469 = EDGE_LOOP('',(#1470,#1471,#1477,#1478));
#1470 = ORIENTED_EDGE('',*,*,#1454,.T.);
#1471 = ORIENTED_EDGE('',*,*,#1472,.T.);
#1472 = EDGE_CURVE('',#1447,#1221,#1473,.T.);
#1473 = LINE('',#1474,#1475);
#1474 = CARTESIAN_POINT('',(-2.5,50.5,55.));
#1475 = VECTOR('',#1476,1.);
#1476 = DIRECTION('',(4.440892098501E-16,-1.,1.110223024625E-15));
#1477 = ORIENTED_EDGE('',*,*,#1220,.F.);
#1478 = ORIENTED_EDGE('',*,*,#1156,.T.);
#1479 = PLANE('',#1480);
#1480 = AXIS2_PLACEMENT_3D('',#1481,#1482,#1483);
#1481 = CARTESIAN_POINT('',(-6.006306563222E-14,50.5,55.));
#1482 = DIRECTION('',(-6.661338147751E-16,2.22044604925E-16,1.));
#1483 = DIRECTION('',(2.22044604925E-16,-1.,8.881784197001E-16));
#1484 = ADVANCED_FACE('',(#1485),#1504,.F.);
#1485 = FACE_BOUND('',#1486,.T.);
#1486 = EDGE_LOOP('',(#1487,#1495,#1502,#1503));
#1487 = ORIENTED_EDGE('',*,*,#1488,.T.);
#1488 = EDGE_CURVE('',#1171,#1489,#1491,.T.);
#1489 = VERTEX_POINT('',#1490);
#1490 = CARTESIAN_POINT('',(-2.5,39.25,13.5));
#1491 = LINE('',#1492,#1493);
#1492 = CARTESIAN_POINT('',(-2.070565940926E-14,39.25,13.5));
#1493 = VECTOR('',#1494,1.);
#1494 = DIRECTION('',(-1.,6.661338147751E-16,-3.574525976783E-31));
#1495 = ORIENTED_EDGE('',*,*,#1496,.T.);
#1496 = EDGE_CURVE('',#1489,#1489,#1497,.T.);
#1497 = CIRCLE('',#1498,1.75);
#1498 = AXIS2_PLACEMENT_3D('',#1499,#1500,#1501);
#1499 = CARTESIAN_POINT('',(-2.5,37.5,13.5));
#1500 = DIRECTION('',(-1.,-4.440892098501E-16,-1.110223024625E-15));
#1501 = DIRECTION('',(-4.440892098501E-16,1.,-1.110223024625E-15));
#1502 = ORIENTED_EDGE('',*,*,#1488,.F.);
#1503 = ORIENTED_EDGE('',*,*,#1180,.T.);
#1504 = CYLINDRICAL_SURFACE('',#1505,1.75);
#1505 = AXIS2_PLACEMENT_3D('',#1506,#1507,#1508);
#1506 = CARTESIAN_POINT('',(-2.031708135064E-14,37.5,13.5));
#1507 = DIRECTION('',(1.,-4.440892098501E-16,2.22044604925E-16));
#1508 = DIRECTION('',(-2.22044604925E-16,1.,-8.881784197001E-16));
#1509 = ADVANCED_FACE('',(#1510),#1529,.F.);
#1510 = FACE_BOUND('',#1511,.T.);
#1511 = EDGE_LOOP('',(#1512,#1520,#1527,#1528));
#1512 = ORIENTED_EDGE('',*,*,#1513,.T.);
#1513 = EDGE_CURVE('',#1196,#1514,#1516,.T.);
#1514 = VERTEX_POINT('',#1515);
#1515 = CARTESIAN_POINT('',(-2.5,39.25,47.5));
#1516 = LINE('',#1517,#1518);
#1517 = CARTESIAN_POINT('',(-5.090372567906E-14,39.25,47.5));
#1518 = VECTOR('',#1519,1.);
#1519 = DIRECTION('',(-1.,6.661338147751E-16,-3.574525976783E-31));
#1520 = ORIENTED_EDGE('',*,*,#1521,.T.);
#1521 = EDGE_CURVE('',#1514,#1514,#1522,.T.);
#1522 = CIRCLE('',#1523,1.75);
#1523 = AXIS2_PLACEMENT_3D('',#1524,#1525,#1526);
#1524 = CARTESIAN_POINT('',(-2.5,37.5,47.5));
#1525 = DIRECTION('',(-1.,-4.440892098501E-16,-1.110223024625E-15));
#1526 = DIRECTION('',(-4.440892098501E-16,1.,-1.110223024625E-15));
#1527 = ORIENTED_EDGE('',*,*,#1513,.F.);
#1528 = ORIENTED_EDGE('',*,*,#1205,.T.);
#1529 = CYLINDRICAL_SURFACE('',#1530,1.75);
#1530 = AXIS2_PLACEMENT_3D('',#1531,#1532,#1533);
#1531 = CARTESIAN_POINT('',(-5.051514762044E-14,37.5,47.5));
#1532 = DIRECTION('',(1.,-4.440892098501E-16,2.22044604925E-16));
#1533 = DIRECTION('',(-2.22044604925E-16,1.,-8.881784197001E-16));
#1534 = ADVANCED_FACE('',(#1535),#1546,.T.);
#1535 = FACE_BOUND('',#1536,.T.);
#1536 = EDGE_LOOP('',(#1537,#1543,#1544,#1545));
#1537 = ORIENTED_EDGE('',*,*,#1538,.T.);
#1538 = EDGE_CURVE('',#1221,#1335,#1539,.T.);
#1539 = LINE('',#1540,#1541);
#1540 = CARTESIAN_POINT('',(-2.5,27.5,55.));
#1541 = VECTOR('',#1542,1.);
#1542 = DIRECTION('',(-1.,2.22044604925E-16,-1.110223024625E-16));
#1543 = ORIENTED_EDGE('',*,*,#1342,.T.);
#1544 = ORIENTED_EDGE('',*,*,#1244,.F.);
#1545 = ORIENTED_EDGE('',*,*,#1228,.F.);
#1546 = PLANE('',#1547);
#1547 = AXIS2_PLACEMENT_3D('',#1548,#1549,#1550);
#1548 = CARTESIAN_POINT('',(-2.5,27.5,55.));
#1549 = DIRECTION('',(-2.22044604925E-16,-1.,1.110223024625E-16));
#1550 = DIRECTION('',(3.330669073875E-16,-1.110223024625E-16,-1.));
#1551 = ADVANCED_FACE('',(#1552),#1563,.T.);
#1552 = FACE_BOUND('',#1553,.T.);
#1553 = EDGE_LOOP('',(#1554,#1555,#1556,#1562));
#1554 = ORIENTED_EDGE('',*,*,#1301,.T.);
#1555 = ORIENTED_EDGE('',*,*,#1351,.T.);
#1556 = ORIENTED_EDGE('',*,*,#1557,.F.);
#1557 = EDGE_CURVE('',#1270,#1317,#1558,.T.);
#1558 = LINE('',#1559,#1560);
#1559 = CARTESIAN_POINT('',(-2.5,27.5,-9.71445146547E-15));
#1560 = VECTOR('',#1561,1.);
#1561 = DIRECTION('',(-1.,2.22044604925E-16,-1.110223024625E-16));
#1562 = ORIENTED_EDGE('',*,*,#1269,.F.);
#1563 = PLANE('',#1564);
#1564 = AXIS2_PLACEMENT_3D('',#1565,#1566,#1567);
#1565 = CARTESIAN_POINT('',(-2.5,27.5,14.));
#1566 = DIRECTION('',(-2.22044604925E-16,-1.,1.110223024625E-16));
#1567 = DIRECTION('',(3.330669073875E-16,-1.110223024625E-16,-1.));
#1568 = ADVANCED_FACE('',(#1569),#1580,.T.);
#1569 = FACE_BOUND('',#1570,.T.);
#1570 = EDGE_LOOP('',(#1571,#1572,#1573,#1579));
#1571 = ORIENTED_EDGE('',*,*,#1557,.T.);
#1572 = ORIENTED_EDGE('',*,*,#1316,.T.);
#1573 = ORIENTED_EDGE('',*,*,#1574,.F.);
#1574 = EDGE_CURVE('',#1423,#1319,#1575,.T.);
#1575 = LINE('',#1576,#1577);
#1576 = CARTESIAN_POINT('',(-2.5,50.5,-1.737499033538E-14));
#1577 = VECTOR('',#1578,1.);
#1578 = DIRECTION('',(-1.,2.22044604925E-16,-1.110223024625E-16));
#1579 = ORIENTED_EDGE('',*,*,#1422,.F.);
#1580 = PLANE('',#1581);
#1581 = AXIS2_PLACEMENT_3D('',#1582,#1583,#1584);
#1582 = CARTESIAN_POINT('',(-2.5,27.5,-9.71445146547E-15));
#1583 = DIRECTION('',(1.110223024625E-16,-3.330669073875E-16,-1.));
#1584 = DIRECTION('',(2.465190328816E-32,1.,-3.330669073875E-16));
#1585 = ADVANCED_FACE('',(#1586),#1597,.T.);
#1586 = FACE_BOUND('',#1587,.T.);
#1587 = EDGE_LOOP('',(#1588,#1589,#1590,#1596));
#1588 = ORIENTED_EDGE('',*,*,#1574,.T.);
#1589 = ORIENTED_EDGE('',*,*,#1326,.T.);
#1590 = ORIENTED_EDGE('',*,*,#1591,.F.);
#1591 = EDGE_CURVE('',#1447,#1327,#1592,.T.);
#1592 = LINE('',#1593,#1594);
#1593 = CARTESIAN_POINT('',(-2.5,50.5,55.));
#1594 = VECTOR('',#1595,1.);
#1595 = DIRECTION('',(-1.,2.22044604925E-16,-1.110223024625E-16));
#1596 = ORIENTED_EDGE('',*,*,#1446,.F.);
#1597 = PLANE('',#1598);
#1598 = AXIS2_PLACEMENT_3D('',#1599,#1600,#1601);
#1599 = CARTESIAN_POINT('',(-2.5,50.5,-1.737499033538E-14));
#1600 = DIRECTION('',(2.22044604925E-16,1.,-1.110223024625E-16));
#1601 = DIRECTION('',(-3.330669073875E-16,1.110223024625E-16,1.));
#1602 = ADVANCED_FACE('',(#1603),#1609,.T.);
#1603 = FACE_BOUND('',#1604,.T.);
#1604 = EDGE_LOOP('',(#1605,#1606,#1607,#1608));
#1605 = ORIENTED_EDGE('',*,*,#1591,.T.);
#1606 = ORIENTED_EDGE('',*,*,#1334,.T.);
#1607 = ORIENTED_EDGE('',*,*,#1538,.F.);
#1608 = ORIENTED_EDGE('',*,*,#1472,.F.);
#1609 = PLANE('',#1610);
#1610 = AXIS2_PLACEMENT_3D('',#1611,#1612,#1613);
#1611 = CARTESIAN_POINT('',(-2.5,50.5,55.));
#1612 = DIRECTION('',(-1.110223024625E-16,3.330669073875E-16,1.));
#1613 = DIRECTION('',(-2.465190328816E-32,-1.,3.330669073875E-16));
#1614 = ADVANCED_FACE('',(#1615),#1640,.T.);
#1615 = FACE_BOUND('',#1616,.T.);
#1616 = EDGE_LOOP('',(#1617,#1625,#1626,#1634));
#1617 = ORIENTED_EDGE('',*,*,#1618,.T.);
#1618 = EDGE_CURVE('',#1619,#1360,#1621,.T.);
#1619 = VERTEX_POINT('',#1620);
#1620 = CARTESIAN_POINT('',(-2.5,26.5,17.));
#1621 = LINE('',#1622,#1623);
#1622 = CARTESIAN_POINT('',(-2.5,26.5,17.));
#1623 = VECTOR('',#1624,1.);
#1624 = DIRECTION('',(-1.,2.22044604925E-16,-1.110223024625E-16));
#1625 = ORIENTED_EDGE('',*,*,#1359,.T.);
#1626 = ORIENTED_EDGE('',*,*,#1627,.F.);
#1627 = EDGE_CURVE('',#1628,#1362,#1630,.T.);
#1628 = VERTEX_POINT('',#1629);
#1629 = CARTESIAN_POINT('',(-2.5,26.5,44.));
#1630 = LINE('',#1631,#1632);
#1631 = CARTESIAN_POINT('',(-2.5,26.5,44.));
#1632 = VECTOR('',#1633,1.);
#1633 = DIRECTION('',(-1.,2.22044604925E-16,-1.110223024625E-16));
#1634 = ORIENTED_EDGE('',*,*,#1635,.F.);
#1635 = EDGE_CURVE('',#1619,#1628,#1636,.T.);
#1636 = LINE('',#1637,#1638);
#1637 = CARTESIAN_POINT('',(-2.5,26.5,17.));
#1638 = VECTOR('',#1639,1.);
#1639 = DIRECTION('',(-1.110223024625E-15,-2.22044604925E-16,1.));
#1640 = PLANE('',#1641);
#1641 = AXIS2_PLACEMENT_3D('',#1642,#1643,#1644);
#1642 = CARTESIAN_POINT('',(-2.5,26.5,17.));
#1643 = DIRECTION('',(2.22044604925E-16,1.,-1.110223024625E-16));
#1644 = DIRECTION('',(-3.330669073875E-16,1.110223024625E-16,1.));
#1645 = ADVANCED_FACE('',(#1646),#1680,.T.);
#1646 = FACE_BOUND('',#1647,.T.);
#1647 = EDGE_LOOP('',(#1648,#1649,#1650,#1658,#1666,#1674));
#1648 = ORIENTED_EDGE('',*,*,#1627,.T.);
#1649 = ORIENTED_EDGE('',*,*,#1369,.T.);
#1650 = ORIENTED_EDGE('',*,*,#1651,.F.);
#1651 = EDGE_CURVE('',#1652,#1370,#1654,.T.);
#1652 = VERTEX_POINT('',#1653);
#1653 = CARTESIAN_POINT('',(-2.5,48.5,44.));
#1654 = LINE('',#1655,#1656);
#1655 = CARTESIAN_POINT('',(-2.5,48.5,44.));
#1656 = VECTOR('',#1657,1.);
#1657 = DIRECTION('',(-1.,2.22044604925E-16,-1.110223024625E-16));
#1658 = ORIENTED_EDGE('',*,*,#1659,.F.);
#1659 = EDGE_CURVE('',#1660,#1652,#1662,.T.);
#1660 = VERTEX_POINT('',#1661);
#1661 = CARTESIAN_POINT('',(-2.5,40.999999999999,44.));
#1662 = LINE('',#1663,#1664);
#1663 = CARTESIAN_POINT('',(-2.5,40.999999999999,44.));
#1664 = VECTOR('',#1665,1.);
#1665 = DIRECTION('',(-4.440892098501E-16,1.,-1.110223024625E-15));
#1666 = ORIENTED_EDGE('',*,*,#1667,.F.);
#1667 = EDGE_CURVE('',#1668,#1660,#1670,.T.);
#1668 = VERTEX_POINT('',#1669);
#1669 = CARTESIAN_POINT('',(-2.5,33.999999999999,44.));
#1670 = LINE('',#1671,#1672);
#1671 = CARTESIAN_POINT('',(-2.5,26.5,44.));
#1672 = VECTOR('',#1673,1.);
#1673 = DIRECTION('',(-2.22044604925E-16,1.,-5.551115123126E-16));
#1674 = ORIENTED_EDGE('',*,*,#1675,.F.);
#1675 = EDGE_CURVE('',#1628,#1668,#1676,.T.);
#1676 = LINE('',#1677,#1678);
#1677 = CARTESIAN_POINT('',(-2.5,26.5,44.));
#1678 = VECTOR('',#1679,1.);
#1679 = DIRECTION('',(-4.440892098501E-16,1.,-1.110223024625E-15));
#1680 = PLANE('',#1681);
#1681 = AXIS2_PLACEMENT_3D('',#1682,#1683,#1684);
#1682 = CARTESIAN_POINT('',(-2.5,26.5,44.));
#1683 = DIRECTION('',(1.110223024625E-16,-3.330669073875E-16,-1.));
#1684 = DIRECTION('',(2.465190328816E-32,1.,-3.330669073875E-16));
#1685 = ADVANCED_FACE('',(#1686),#1704,.T.);
#1686 = FACE_BOUND('',#1687,.T.);
#1687 = EDGE_LOOP('',(#1688,#1689,#1690,#1698));
#1688 = ORIENTED_EDGE('',*,*,#1651,.T.);
#1689 = ORIENTED_EDGE('',*,*,#1377,.T.);
#1690 = ORIENTED_EDGE('',*,*,#1691,.F.);
#1691 = EDGE_CURVE('',#1692,#1378,#1694,.T.);
#1692 = VERTEX_POINT('',#1693);
#1693 = CARTESIAN_POINT('',(-2.5,48.5,17.));
#1694 = LINE('',#1695,#1696);
#1695 = CARTESIAN_POINT('',(-2.5,48.5,17.));
#1696 = VECTOR('',#1697,1.);
#1697 = DIRECTION('',(-1.,2.22044604925E-16,-1.110223024625E-16));
#1698 = ORIENTED_EDGE('',*,*,#1699,.F.);
#1699 = EDGE_CURVE('',#1652,#1692,#1700,.T.);
#1700 = LINE('',#1701,#1702);
#1701 = CARTESIAN_POINT('',(-2.5,48.5,44.));
#1702 = VECTOR('',#1703,1.);
#1703 = DIRECTION('',(1.110223024625E-15,2.22044604925E-16,-1.));
#1704 = PLANE('',#1705);
#1705 = AXIS2_PLACEMENT_3D('',#1706,#1707,#1708);
#1706 = CARTESIAN_POINT('',(-2.5,48.5,44.));
#1707 = DIRECTION('',(-2.22044604925E-16,-1.,1.110223024625E-16));
#1708 = DIRECTION('',(3.330669073875E-16,-1.110223024625E-16,-1.));
#1709 = ADVANCED_FACE('',(#1710),#1737,.T.);
#1710 = FACE_BOUND('',#1711,.T.);
#1711 = EDGE_LOOP('',(#1712,#1713,#1714,#1715,#1723,#1731));
#1712 = ORIENTED_EDGE('',*,*,#1691,.T.);
#1713 = ORIENTED_EDGE('',*,*,#1385,.T.);
#1714 = ORIENTED_EDGE('',*,*,#1618,.F.);
#1715 = ORIENTED_EDGE('',*,*,#1716,.F.);
#1716 = EDGE_CURVE('',#1717,#1619,#1719,.T.);
#1717 = VERTEX_POINT('',#1718);
#1718 = CARTESIAN_POINT('',(-2.5,33.999999999999,17.));
#1719 = LINE('',#1720,#1721);
#1720 = CARTESIAN_POINT('',(-2.5,33.999999999999,17.));
#1721 = VECTOR('',#1722,1.);
#1722 = DIRECTION('',(4.440892098501E-16,-1.,1.110223024625E-15));
#1723 = ORIENTED_EDGE('',*,*,#1724,.F.);
#1724 = EDGE_CURVE('',#1725,#1717,#1727,.T.);
#1725 = VERTEX_POINT('',#1726);
#1726 = CARTESIAN_POINT('',(-2.5,40.999999999999,17.));
#1727 = LINE('',#1728,#1729);
#1728 = CARTESIAN_POINT('',(-2.5,48.5,17.));
#1729 = VECTOR('',#1730,1.);
#1730 = DIRECTION('',(2.22044604925E-16,-1.,5.551115123126E-16));
#1731 = ORIENTED_EDGE('',*,*,#1732,.F.);
#1732 = EDGE_CURVE('',#1692,#1725,#1733,.T.);
#1733 = LINE('',#1734,#1735);
#1734 = CARTESIAN_POINT('',(-2.5,48.5,17.));
#1735 = VECTOR('',#1736,1.);
#1736 = DIRECTION('',(4.440892098501E-16,-1.,1.110223024625E-15));
#1737 = PLANE('',#1738);
#1738 = AXIS2_PLACEMENT_3D('',#1739,#1740,#1741);
#1739 = CARTESIAN_POINT('',(-2.5,48.5,17.));
#1740 = DIRECTION('',(-1.110223024625E-16,3.330669073875E-16,1.));
#1741 = DIRECTION('',(-2.465190328816E-32,-1.,3.330669073875E-16));
#1742 = ADVANCED_FACE('',(#1743),#1754,.F.);
#1743 = FACE_BOUND('',#1744,.T.);
#1744 = EDGE_LOOP('',(#1745,#1751,#1752,#1753));
#1745 = ORIENTED_EDGE('',*,*,#1746,.T.);
#1746 = EDGE_CURVE('',#1514,#1394,#1747,.T.);
#1747 = LINE('',#1748,#1749);
#1748 = CARTESIAN_POINT('',(-2.5,39.25,47.5));
#1749 = VECTOR('',#1750,1.);
#1750 = DIRECTION('',(-1.,2.22044604925E-16,-1.110223024625E-16));
#1751 = ORIENTED_EDGE('',*,*,#1393,.T.);
#1752 = ORIENTED_EDGE('',*,*,#1746,.F.);
#1753 = ORIENTED_EDGE('',*,*,#1521,.F.);
#1754 = CYLINDRICAL_SURFACE('',#1755,1.75);
#1755 = AXIS2_PLACEMENT_3D('',#1756,#1757,#1758);
#1756 = CARTESIAN_POINT('',(-2.5,37.5,47.5));
#1757 = DIRECTION('',(1.,8.628166150855E-32,3.330669073875E-16));
#1758 = DIRECTION('',(2.465190328816E-32,1.,-3.330669073875E-16));
#1759 = ADVANCED_FACE('',(#1760),#1771,.F.);
#1760 = FACE_BOUND('',#1761,.T.);
#1761 = EDGE_LOOP('',(#1762,#1768,#1769,#1770));
#1762 = ORIENTED_EDGE('',*,*,#1763,.T.);
#1763 = EDGE_CURVE('',#1489,#1405,#1764,.T.);
#1764 = LINE('',#1765,#1766);
#1765 = CARTESIAN_POINT('',(-2.5,39.25,13.5));
#1766 = VECTOR('',#1767,1.);
#1767 = DIRECTION('',(-1.,2.22044604925E-16,-1.110223024625E-16));
#1768 = ORIENTED_EDGE('',*,*,#1404,.T.);
#1769 = ORIENTED_EDGE('',*,*,#1763,.F.);
#1770 = ORIENTED_EDGE('',*,*,#1496,.F.);
#1771 = CYLINDRICAL_SURFACE('',#1772,1.75);
#1772 = AXIS2_PLACEMENT_3D('',#1773,#1774,#1775);
#1773 = CARTESIAN_POINT('',(-2.5,37.5,13.5));
#1774 = DIRECTION('',(1.,8.628166150855E-32,3.330669073875E-16));
#1775 = DIRECTION('',(2.465190328816E-32,1.,-3.330669073875E-16));
#1776 = ADVANCED_FACE('',(#1777),#1802,.T.);
#1777 = FACE_BOUND('',#1778,.T.);
#1778 = EDGE_LOOP('',(#1779,#1787,#1788,#1796));
#1779 = ORIENTED_EDGE('',*,*,#1780,.T.);
#1780 = EDGE_CURVE('',#1781,#1619,#1783,.T.);
#1781 = VERTEX_POINT('',#1782);
#1782 = CARTESIAN_POINT('',(-1.132427485118E-14,26.5,17.));
#1783 = LINE('',#1784,#1785);
#1784 = CARTESIAN_POINT('',(-2.098321516542E-14,26.5,17.));
#1785 = VECTOR('',#1786,1.);
#1786 = DIRECTION('',(-1.,6.661338147751E-16,-3.574525976783E-31));
#1787 = ORIENTED_EDGE('',*,*,#1635,.T.);
#1788 = ORIENTED_EDGE('',*,*,#1789,.F.);
#1789 = EDGE_CURVE('',#1790,#1628,#1792,.T.);
#1790 = VERTEX_POINT('',#1791);
#1791 = CARTESIAN_POINT('',(-2.93098878501E-14,26.5,44.));
#1792 = LINE('',#1793,#1794);
#1793 = CARTESIAN_POINT('',(-4.496403249732E-14,26.5,44.));
#1794 = VECTOR('',#1795,1.);
#1795 = DIRECTION('',(-1.,6.661338147751E-16,-3.574525976783E-31));
#1796 = ORIENTED_EDGE('',*,*,#1797,.F.);
#1797 = EDGE_CURVE('',#1781,#1790,#1798,.T.);
#1798 = LINE('',#1799,#1800);
#1799 = CARTESIAN_POINT('',(-3.064215547965E-14,26.5,17.));
#1800 = VECTOR('',#1801,1.);
#1801 = DIRECTION('',(-1.110223024625E-15,-2.22044604925E-16,1.));
#1802 = PLANE('',#1803);
#1803 = AXIS2_PLACEMENT_3D('',#1804,#1805,#1806);
#1804 = CARTESIAN_POINT('',(-2.098321516542E-14,26.5,17.));
#1805 = DIRECTION('',(1.479114197289E-31,1.,-6.661338147751E-16));
#1806 = DIRECTION('',(-8.881784197001E-16,2.958228394579E-31,1.));
#1807 = ADVANCED_FACE('',(#1808),#1826,.T.);
#1808 = FACE_BOUND('',#1809,.T.);
#1809 = EDGE_LOOP('',(#1810,#1811,#1812,#1820));
#1810 = ORIENTED_EDGE('',*,*,#1789,.T.);
#1811 = ORIENTED_EDGE('',*,*,#1675,.T.);
#1812 = ORIENTED_EDGE('',*,*,#1813,.F.);
#1813 = EDGE_CURVE('',#1814,#1668,#1816,.T.);
#1814 = VERTEX_POINT('',#1815);
#1815 = CARTESIAN_POINT('',(-2.93098878501E-14,33.999999999999,44.));
#1816 = LINE('',#1817,#1818);
#1817 = CARTESIAN_POINT('',(-4.662936703426E-14,33.999999999999,44.));
#1818 = VECTOR('',#1819,1.);
#1819 = DIRECTION('',(-1.,6.661338147751E-16,-3.574525976783E-31));
#1820 = ORIENTED_EDGE('',*,*,#1821,.F.);
#1821 = EDGE_CURVE('',#1790,#1814,#1822,.T.);
#1822 = LINE('',#1823,#1824);
#1823 = CARTESIAN_POINT('',(-6.061817714453E-14,26.5,44.));
#1824 = VECTOR('',#1825,1.);
#1825 = DIRECTION('',(-4.440892098501E-16,1.,-1.110223024625E-15));
#1826 = PLANE('',#1827);
#1827 = AXIS2_PLACEMENT_3D('',#1828,#1829,#1830);
#1828 = CARTESIAN_POINT('',(-4.496403249732E-14,26.5,44.));
#1829 = DIRECTION('',(6.661338147751E-16,-2.22044604925E-16,-1.));
#1830 = DIRECTION('',(-2.22044604925E-16,1.,-8.881784197001E-16));
#1831 = ADVANCED_FACE('',(#1832),#1848,.F.);
#1832 = FACE_BOUND('',#1833,.F.);
#1833 = EDGE_LOOP('',(#1834,#1835,#1841,#1842));
#1834 = ORIENTED_EDGE('',*,*,#1724,.F.);
#1835 = ORIENTED_EDGE('',*,*,#1836,.T.);
#1836 = EDGE_CURVE('',#1725,#1660,#1837,.T.);
#1837 = LINE('',#1838,#1839);
#1838 = CARTESIAN_POINT('',(-2.5,40.999999999999,17.));
#1839 = VECTOR('',#1840,1.);
#1840 = DIRECTION('',(-1.110223024625E-15,-2.22044604925E-16,1.));
#1841 = ORIENTED_EDGE('',*,*,#1667,.F.);
#1842 = ORIENTED_EDGE('',*,*,#1843,.T.);
#1843 = EDGE_CURVE('',#1668,#1717,#1844,.T.);
#1844 = LINE('',#1845,#1846);
#1845 = CARTESIAN_POINT('',(-2.5,33.999999999999,44.));
#1846 = VECTOR('',#1847,1.);
#1847 = DIRECTION('',(1.110223024625E-15,2.22044604925E-16,-1.));
#1848 = PLANE('',#1849);
#1849 = AXIS2_PLACEMENT_3D('',#1850,#1851,#1852);
#1850 = CARTESIAN_POINT('',(-2.5,37.518739076671,29.038352019636));
#1851 = DIRECTION('',(1.,-8.881784197001E-16,-2.22044604925E-16));
#1852 = DIRECTION('',(-1.110223024625E-15,-2.22044604925E-16,1.));
#1853 = ADVANCED_FACE('',(#1854),#1879,.T.);
#1854 = FACE_BOUND('',#1855,.T.);
#1855 = EDGE_LOOP('',(#1856,#1864,#1865,#1873));
#1856 = ORIENTED_EDGE('',*,*,#1857,.T.);
#1857 = EDGE_CURVE('',#1858,#1660,#1860,.T.);
#1858 = VERTEX_POINT('',#1859);
#1859 = CARTESIAN_POINT('',(-2.93098878501E-14,40.999999999999,44.));
#1860 = LINE('',#1861,#1862);
#1861 = CARTESIAN_POINT('',(-4.818367926873E-14,40.999999999999,44.));
#1862 = VECTOR('',#1863,1.);
#1863 = DIRECTION('',(-1.,6.661338147751E-16,-3.574525976783E-31));
#1864 = ORIENTED_EDGE('',*,*,#1659,.T.);
#1865 = ORIENTED_EDGE('',*,*,#1866,.F.);
#1866 = EDGE_CURVE('',#1867,#1652,#1869,.T.);
#1867 = VERTEX_POINT('',#1868);
#1868 = CARTESIAN_POINT('',(-2.93098878501E-14,48.5,44.));
#1869 = LINE('',#1870,#1871);
#1870 = CARTESIAN_POINT('',(-4.984901380567E-14,48.5,44.));
#1871 = VECTOR('',#1872,1.);
#1872 = DIRECTION('',(-1.,6.661338147751E-16,-3.574525976783E-31));
#1873 = ORIENTED_EDGE('',*,*,#1874,.F.);
#1874 = EDGE_CURVE('',#1858,#1867,#1875,.T.);
#1875 = LINE('',#1876,#1877);
#1876 = CARTESIAN_POINT('',(-6.705747068736E-14,40.999999999999,44.));
#1877 = VECTOR('',#1878,1.);
#1878 = DIRECTION('',(-4.440892098501E-16,1.,-1.110223024625E-15));
#1879 = PLANE('',#1880);
#1880 = AXIS2_PLACEMENT_3D('',#1881,#1882,#1883);
#1881 = CARTESIAN_POINT('',(-4.818367926873E-14,40.999999999999,44.));
#1882 = DIRECTION('',(6.661338147751E-16,-2.22044604925E-16,-1.));
#1883 = DIRECTION('',(-2.22044604925E-16,1.,-8.881784197001E-16));
#1884 = ADVANCED_FACE('',(#1885),#1903,.T.);
#1885 = FACE_BOUND('',#1886,.T.);
#1886 = EDGE_LOOP('',(#1887,#1888,#1889,#1897));
#1887 = ORIENTED_EDGE('',*,*,#1866,.T.);
#1888 = ORIENTED_EDGE('',*,*,#1699,.T.);
#1889 = ORIENTED_EDGE('',*,*,#1890,.F.);
#1890 = EDGE_CURVE('',#1891,#1692,#1893,.T.);
#1891 = VERTEX_POINT('',#1892);
#1892 = CARTESIAN_POINT('',(-1.132427485118E-14,48.5,17.));
#1893 = LINE('',#1894,#1895);
#1894 = CARTESIAN_POINT('',(-2.586819647377E-14,48.5,17.));
#1895 = VECTOR('',#1896,1.);
#1896 = DIRECTION('',(-1.,6.661338147751E-16,-3.574525976783E-31));
#1897 = ORIENTED_EDGE('',*,*,#1898,.F.);
#1898 = EDGE_CURVE('',#1867,#1891,#1899,.T.);
#1899 = LINE('',#1900,#1901);
#1900 = CARTESIAN_POINT('',(-7.038813976123E-14,48.5,44.));
#1901 = VECTOR('',#1902,1.);
#1902 = DIRECTION('',(1.110223024625E-15,2.22044604925E-16,-1.));
#1903 = PLANE('',#1904);
#1904 = AXIS2_PLACEMENT_3D('',#1905,#1906,#1907);
#1905 = CARTESIAN_POINT('',(-4.984901380567E-14,48.5,44.));
#1906 = DIRECTION('',(-1.479114197289E-31,-1.,6.661338147751E-16));
#1907 = DIRECTION('',(8.881784197001E-16,-2.958228394579E-31,-1.));
#1908 = ADVANCED_FACE('',(#1909),#1927,.T.);
#1909 = FACE_BOUND('',#1910,.T.);
#1910 = EDGE_LOOP('',(#1911,#1912,#1913,#1921));
#1911 = ORIENTED_EDGE('',*,*,#1890,.T.);
#1912 = ORIENTED_EDGE('',*,*,#1732,.T.);
#1913 = ORIENTED_EDGE('',*,*,#1914,.F.);
#1914 = EDGE_CURVE('',#1915,#1725,#1917,.T.);
#1915 = VERTEX_POINT('',#1916);
#1916 = CARTESIAN_POINT('',(-1.132427485118E-14,40.999999999999,17.));
#1917 = LINE('',#1918,#1919);
#1918 = CARTESIAN_POINT('',(-2.420286193683E-14,40.999999999999,17.));
#1919 = VECTOR('',#1920,1.);
#1920 = DIRECTION('',(-1.,6.661338147751E-16,-3.574525976783E-31));
#1921 = ORIENTED_EDGE('',*,*,#1922,.F.);
#1922 = EDGE_CURVE('',#1891,#1915,#1923,.T.);
#1923 = LINE('',#1924,#1925);
#1924 = CARTESIAN_POINT('',(-4.041211809636E-14,48.5,17.));
#1925 = VECTOR('',#1926,1.);
#1926 = DIRECTION('',(4.440892098501E-16,-1.,1.110223024625E-15));
#1927 = PLANE('',#1928);
#1928 = AXIS2_PLACEMENT_3D('',#1929,#1930,#1931);
#1929 = CARTESIAN_POINT('',(-2.586819647377E-14,48.5,17.));
#1930 = DIRECTION('',(-6.661338147751E-16,2.22044604925E-16,1.));
#1931 = DIRECTION('',(2.22044604925E-16,-1.,8.881784197001E-16));
#1932 = ADVANCED_FACE('',(#1933),#1951,.T.);
#1933 = FACE_BOUND('',#1934,.T.);
#1934 = EDGE_LOOP('',(#1935,#1943,#1944,#1945));
#1935 = ORIENTED_EDGE('',*,*,#1936,.T.);
#1936 = EDGE_CURVE('',#1937,#1717,#1939,.T.);
#1937 = VERTEX_POINT('',#1938);
#1938 = CARTESIAN_POINT('',(-1.132427485118E-14,33.999999999999,17.));
#1939 = LINE('',#1940,#1941);
#1940 = CARTESIAN_POINT('',(-2.264854970235E-14,33.999999999999,17.));
#1941 = VECTOR('',#1942,1.);
#1942 = DIRECTION('',(-1.,6.661338147751E-16,-3.574525976783E-31));
#1943 = ORIENTED_EDGE('',*,*,#1716,.T.);
#1944 = ORIENTED_EDGE('',*,*,#1780,.F.);
#1945 = ORIENTED_EDGE('',*,*,#1946,.F.);
#1946 = EDGE_CURVE('',#1937,#1781,#1947,.T.);
#1947 = LINE('',#1948,#1949);
#1948 = CARTESIAN_POINT('',(-3.397282455353E-14,33.999999999999,17.));
#1949 = VECTOR('',#1950,1.);
#1950 = DIRECTION('',(4.440892098501E-16,-1.,1.110223024625E-15));
#1951 = PLANE('',#1952);
#1952 = AXIS2_PLACEMENT_3D('',#1953,#1954,#1955);
#1953 = CARTESIAN_POINT('',(-2.264854970235E-14,33.999999999999,17.));
#1954 = DIRECTION('',(-6.661338147751E-16,2.22044604925E-16,1.));
#1955 = DIRECTION('',(2.22044604925E-16,-1.,8.881784197001E-16));
#1956 = ADVANCED_FACE('',(#1957),#1968,.F.);
#1957 = FACE_BOUND('',#1958,.F.);
#1958 = EDGE_LOOP('',(#1959,#1960,#1961,#1967));
#1959 = ORIENTED_EDGE('',*,*,#1797,.F.);
#1960 = ORIENTED_EDGE('',*,*,#1946,.F.);
#1961 = ORIENTED_EDGE('',*,*,#1962,.F.);
#1962 = EDGE_CURVE('',#1814,#1937,#1963,.T.);
#1963 = LINE('',#1964,#1965);
#1964 = CARTESIAN_POINT('',(-6.394884621841E-14,33.999999999999,44.));
#1965 = VECTOR('',#1966,1.);
#1966 = DIRECTION('',(1.110223024625E-15,2.22044604925E-16,-1.));
#1967 = ORIENTED_EDGE('',*,*,#1821,.F.);
#1968 = PLANE('',#1969);
#1969 = AXIS2_PLACEMENT_3D('',#1970,#1971,#1972);
#1970 = CARTESIAN_POINT('',(-3.989932842707E-14,24.117645621247,
    26.291061878799));
#1971 = DIRECTION('',(1.,-8.881784197001E-16,-2.22044604925E-16));
#1972 = DIRECTION('',(-1.110223024625E-15,-2.22044604925E-16,1.));
#1973 = ADVANCED_FACE('',(#1974),#1980,.T.);
#1974 = FACE_BOUND('',#1975,.T.);
#1975 = EDGE_LOOP('',(#1976,#1977,#1978,#1979));
#1976 = ORIENTED_EDGE('',*,*,#1813,.T.);
#1977 = ORIENTED_EDGE('',*,*,#1843,.T.);
#1978 = ORIENTED_EDGE('',*,*,#1936,.F.);
#1979 = ORIENTED_EDGE('',*,*,#1962,.F.);
#1980 = PLANE('',#1981);
#1981 = AXIS2_PLACEMENT_3D('',#1982,#1983,#1984);
#1982 = CARTESIAN_POINT('',(-4.662936703426E-14,33.999999999999,44.));
#1983 = DIRECTION('',(-1.479114197289E-31,-1.,6.661338147751E-16));
#1984 = DIRECTION('',(8.881784197001E-16,-2.958228394579E-31,-1.));
#1985 = ADVANCED_FACE('',(#1986),#1997,.T.);
#1986 = FACE_BOUND('',#1987,.T.);
#1987 = EDGE_LOOP('',(#1988,#1989,#1990,#1991));
#1988 = ORIENTED_EDGE('',*,*,#1914,.T.);
#1989 = ORIENTED_EDGE('',*,*,#1836,.T.);
#1990 = ORIENTED_EDGE('',*,*,#1857,.F.);
#1991 = ORIENTED_EDGE('',*,*,#1992,.F.);
#1992 = EDGE_CURVE('',#1915,#1858,#1993,.T.);
#1993 = LINE('',#1994,#1995);
#1994 = CARTESIAN_POINT('',(-3.708144902248E-14,40.999999999999,17.));
#1995 = VECTOR('',#1996,1.);
#1996 = DIRECTION('',(-1.110223024625E-15,-2.22044604925E-16,1.));
#1997 = PLANE('',#1998);
#1998 = AXIS2_PLACEMENT_3D('',#1999,#2000,#2001);
#1999 = CARTESIAN_POINT('',(-2.420286193683E-14,40.999999999999,17.));
#2000 = DIRECTION('',(1.479114197289E-31,1.,-6.661338147751E-16));
#2001 = DIRECTION('',(-8.881784197001E-16,2.958228394579E-31,1.));
#2002 = ADVANCED_FACE('',(#2003),#2009,.F.);
#2003 = FACE_BOUND('',#2004,.F.);
#2004 = EDGE_LOOP('',(#2005,#2006,#2007,#2008));
#2005 = ORIENTED_EDGE('',*,*,#1922,.F.);
#2006 = ORIENTED_EDGE('',*,*,#1898,.F.);
#2007 = ORIENTED_EDGE('',*,*,#1874,.F.);
#2008 = ORIENTED_EDGE('',*,*,#1992,.F.);
#2009 = PLANE('',#2010);
#2010 = AXIS2_PLACEMENT_3D('',#2011,#2012,#2013);
#2011 = CARTESIAN_POINT('',(-3.989932842707E-14,24.117645621247,
    26.291061878799));
#2012 = DIRECTION('',(1.,-8.881784197001E-16,-2.22044604925E-16));
#2013 = DIRECTION('',(-1.110223024625E-15,-2.22044604925E-16,1.));
#2014 = ( GEOMETRIC_REPRESENTATION_CONTEXT(3) 
GLOBAL_UNCERTAINTY_ASSIGNED_CONTEXT((#2018)) 
GLOBAL_UNIT_ASSIGNED_CONTEXT((#2015,#2016,#2017)) REPRESENTATION_CONTEXT
('Context #1','3D Context with UNIT and UNCERTAINTY') );
#2015 = ( LENGTH_UNIT() NAMED_UNIT(*) SI_UNIT(.MILLI.,.METRE.) );
#2016 = ( NAMED_UNIT(*) PLANE_ANGLE_UNIT() SI_UNIT($,.RADIAN.) );
#2017 = ( NAMED_UNIT(*) SI_UNIT($,.STERADIAN.) SOLID_ANGLE_UNIT() );
#2018 = UNCERTAINTY_MEASURE_WITH_UNIT(LENGTH_MEASURE(1.E-06),#2015,
  'distance_accuracy_value','confusion accuracy');
#2019 = PRODUCT_RELATED_PRODUCT_CATEGORY('part',$,(#7));
#2020 = MECHANICAL_DESIGN_GEOMETRIC_PRESENTATION_REPRESENTATION('',(
    #2021),#2014);
#2021 = STYLED_ITEM('color',(#2022),#15);
#2022 = PRESENTATION_STYLE_ASSIGNMENT((#2023,#2029));
#2023 = SURFACE_STYLE_USAGE(.BOTH.,#2024);
#2024 = SURFACE_SIDE_STYLE('',(#2025));
#2025 = SURFACE_STYLE_FILL_AREA(#2026);
#2026 = FILL_AREA_STYLE('',(#2027));
#2027 = FILL_AREA_STYLE_COLOUR('',#2028);
#2028 = COLOUR_RGB('',0.447058818107,0.474509808674,0.501960817233);
#2029 = CURVE_STYLE('',#2030,POSITIVE_LENGTH_MEASURE(0.1),#2031);
#2030 = DRAUGHTING_PRE_DEFINED_CURVE_FONT('continuous');
#2031 = COLOUR_RGB('',9.803921802644E-02,9.803921802644E-02,
  9.803921802644E-02);
ENDSEC;
END-ISO-10303-21;
