ISO-10303-21;
HEADER;
FILE_DESCRIPTION(('FreeCAD Model'),'2;1');
FILE_NAME('Open CASCADE Shape Model','2026-04-14T16:14:25',(''),(''),
  'Open CASCADE STEP processor 7.7','FreeCAD','Unknown');
FILE_SCHEMA(('AUTOMOTIVE_DESIGN { 1 0 10303 214 1 1 1 1 }'));
ENDSEC;
DATA;
#1 = APPLICATION_PROTOCOL_DEFINITION('international standard',
  'automotive_design',2000,#2);
#2 = APPLICATION_CONTEXT(
  'core data for automotive mechanical design processes');
#3 = SHAPE_DEFINITION_REPRESENTATION(#4,#10);
#4 = PRODUCT_DEFINITION_SHAPE('','',#5);
#5 = PRODUCT_DEFINITION('design','',#6,#9);
#6 = PRODUCT_DEFINITION_FORMATION('','',#7);
#7 = PRODUCT('ModeKnob','ModeKnob','',(#8));
#8 = PRODUCT_CONTEXT('',#2,'mechanical');
#9 = PRODUCT_DEFINITION_CONTEXT('part definition',#2,'design');
#10 = ADVANCED_BREP_SHAPE_REPRESENTATION('',(#11,#15),#657);
#11 = AXIS2_PLACEMENT_3D('',#12,#13,#14);
#12 = CARTESIAN_POINT('',(0.,0.,0.));
#13 = DIRECTION('',(0.,0.,1.));
#14 = DIRECTION('',(1.,0.,-0.));
#15 = MANIFOLD_SOLID_BREP('',#16);
#16 = CLOSED_SHELL('',(#17,#57,#90,#123,#216,#241,#258,#282,#299,#330,
    #354,#379,#404,#421,#452,#476,#500,#517,#535,#553,#577,#588,#599,
    #645));
#17 = ADVANCED_FACE('',(#18),#52,.F.);
#18 = FACE_BOUND('',#19,.F.);
#19 = EDGE_LOOP('',(#20,#30,#38,#46));
#20 = ORIENTED_EDGE('',*,*,#21,.F.);
#21 = EDGE_CURVE('',#22,#24,#26,.T.);
#22 = VERTEX_POINT('',#23);
#23 = CARTESIAN_POINT('',(3.8,-37.94,2.));
#24 = VERTEX_POINT('',#25);
#25 = CARTESIAN_POINT('',(3.8,-37.94,8.2));
#26 = LINE('',#27,#28);
#27 = CARTESIAN_POINT('',(3.8,-37.94,2.));
#28 = VECTOR('',#29,1.);
#29 = DIRECTION('',(0.,0.,1.));
#30 = ORIENTED_EDGE('',*,*,#31,.T.);
#31 = EDGE_CURVE('',#22,#32,#34,.T.);
#32 = VERTEX_POINT('',#33);
#33 = CARTESIAN_POINT('',(-3.8,-37.94,2.));
#34 = LINE('',#35,#36);
#35 = CARTESIAN_POINT('',(-2.05,-37.94,2.));
#36 = VECTOR('',#37,1.);
#37 = DIRECTION('',(-1.,0.,0.));
#38 = ORIENTED_EDGE('',*,*,#39,.T.);
#39 = EDGE_CURVE('',#32,#40,#42,.T.);
#40 = VERTEX_POINT('',#41);
#41 = CARTESIAN_POINT('',(-3.8,-37.94,8.2));
#42 = LINE('',#43,#44);
#43 = CARTESIAN_POINT('',(-3.8,-37.94,2.));
#44 = VECTOR('',#45,1.);
#45 = DIRECTION('',(0.,0.,1.));
#46 = ORIENTED_EDGE('',*,*,#47,.T.);
#47 = EDGE_CURVE('',#40,#24,#48,.T.);
#48 = LINE('',#49,#50);
#49 = CARTESIAN_POINT('',(-3.8,-37.94,8.2));
#50 = VECTOR('',#51,1.);
#51 = DIRECTION('',(1.,0.,0.));
#52 = PLANE('',#53);
#53 = AXIS2_PLACEMENT_3D('',#54,#55,#56);
#54 = CARTESIAN_POINT('',(-4.1,-37.94,0.));
#55 = DIRECTION('',(0.,1.,0.));
#56 = DIRECTION('',(1.,0.,0.));
#57 = ADVANCED_FACE('',(#58),#85,.T.);
#58 = FACE_BOUND('',#59,.T.);
#59 = EDGE_LOOP('',(#60,#61,#70,#78));
#60 = ORIENTED_EDGE('',*,*,#21,.F.);
#61 = ORIENTED_EDGE('',*,*,#62,.T.);
#62 = EDGE_CURVE('',#22,#63,#65,.T.);
#63 = VERTEX_POINT('',#64);
#64 = CARTESIAN_POINT('',(4.1,-37.64,2.));
#65 = CIRCLE('',#66,0.3);
#66 = AXIS2_PLACEMENT_3D('',#67,#68,#69);
#67 = CARTESIAN_POINT('',(3.8,-37.64,2.));
#68 = DIRECTION('',(-0.,0.,1.));
#69 = DIRECTION('',(0.,-1.,0.));
#70 = ORIENTED_EDGE('',*,*,#71,.T.);
#71 = EDGE_CURVE('',#63,#72,#74,.T.);
#72 = VERTEX_POINT('',#73);
#73 = CARTESIAN_POINT('',(4.1,-37.64,8.2));
#74 = LINE('',#75,#76);
#75 = CARTESIAN_POINT('',(4.1,-37.64,2.));
#76 = VECTOR('',#77,1.);
#77 = DIRECTION('',(0.,0.,1.));
#78 = ORIENTED_EDGE('',*,*,#79,.F.);
#79 = EDGE_CURVE('',#24,#72,#80,.T.);
#80 = CIRCLE('',#81,0.3);
#81 = AXIS2_PLACEMENT_3D('',#82,#83,#84);
#82 = CARTESIAN_POINT('',(3.8,-37.64,8.2));
#83 = DIRECTION('',(-0.,0.,1.));
#84 = DIRECTION('',(0.,-1.,0.));
#85 = CYLINDRICAL_SURFACE('',#86,0.3);
#86 = AXIS2_PLACEMENT_3D('',#87,#88,#89);
#87 = CARTESIAN_POINT('',(3.8,-37.64,2.));
#88 = DIRECTION('',(0.,0.,1.));
#89 = DIRECTION('',(0.,-1.,0.));
#90 = ADVANCED_FACE('',(#91),#118,.T.);
#91 = FACE_BOUND('',#92,.F.);
#92 = EDGE_LOOP('',(#93,#102,#110,#117));
#93 = ORIENTED_EDGE('',*,*,#94,.T.);
#94 = EDGE_CURVE('',#40,#95,#97,.T.);
#95 = VERTEX_POINT('',#96);
#96 = CARTESIAN_POINT('',(-3.8,-37.64,8.5));
#97 = CIRCLE('',#98,0.3);
#98 = AXIS2_PLACEMENT_3D('',#99,#100,#101);
#99 = CARTESIAN_POINT('',(-3.8,-37.64,8.2));
#100 = DIRECTION('',(-1.,6.123233995737E-17,0.));
#101 = DIRECTION('',(-6.123233995737E-17,-1.,0.));
#102 = ORIENTED_EDGE('',*,*,#103,.T.);
#103 = EDGE_CURVE('',#95,#104,#106,.T.);
#104 = VERTEX_POINT('',#105);
#105 = CARTESIAN_POINT('',(3.8,-37.64,8.5));
#106 = LINE('',#107,#108);
#107 = CARTESIAN_POINT('',(-3.8,-37.64,8.5));
#108 = VECTOR('',#109,1.);
#109 = DIRECTION('',(1.,0.,0.));
#110 = ORIENTED_EDGE('',*,*,#111,.F.);
#111 = EDGE_CURVE('',#24,#104,#112,.T.);
#112 = CIRCLE('',#113,0.3);
#113 = AXIS2_PLACEMENT_3D('',#114,#115,#116);
#114 = CARTESIAN_POINT('',(3.8,-37.64,8.2));
#115 = DIRECTION('',(-1.,0.,0.));
#116 = DIRECTION('',(0.,-1.,0.));
#117 = ORIENTED_EDGE('',*,*,#47,.F.);
#118 = CYLINDRICAL_SURFACE('',#119,0.3);
#119 = AXIS2_PLACEMENT_3D('',#120,#121,#122);
#120 = CARTESIAN_POINT('',(-3.8,-37.64,8.2));
#121 = DIRECTION('',(1.,0.,0.));
#122 = DIRECTION('',(0.,-1.,0.));
#123 = ADVANCED_FACE('',(#124,#177),#211,.T.);
#124 = FACE_BOUND('',#125,.T.);
#125 = EDGE_LOOP('',(#126,#127,#136,#144,#153,#161,#170,#176));
#126 = ORIENTED_EDGE('',*,*,#31,.T.);
#127 = ORIENTED_EDGE('',*,*,#128,.T.);
#128 = EDGE_CURVE('',#32,#129,#131,.T.);
#129 = VERTEX_POINT('',#130);
#130 = CARTESIAN_POINT('',(-4.1,-37.64,2.));
#131 = CIRCLE('',#132,0.3);
#132 = AXIS2_PLACEMENT_3D('',#133,#134,#135);
#133 = CARTESIAN_POINT('',(-3.8,-37.64,2.));
#134 = DIRECTION('',(-0.,-0.,-1.));
#135 = DIRECTION('',(0.,-1.,0.));
#136 = ORIENTED_EDGE('',*,*,#137,.T.);
#137 = EDGE_CURVE('',#129,#138,#140,.T.);
#138 = VERTEX_POINT('',#139);
#139 = CARTESIAN_POINT('',(-4.1,-32.04,2.));
#140 = LINE('',#141,#142);
#141 = CARTESIAN_POINT('',(-4.1,-33.29,2.));
#142 = VECTOR('',#143,1.);
#143 = DIRECTION('',(0.,1.,0.));
#144 = ORIENTED_EDGE('',*,*,#145,.F.);
#145 = EDGE_CURVE('',#146,#138,#148,.T.);
#146 = VERTEX_POINT('',#147);
#147 = CARTESIAN_POINT('',(-3.8,-31.74,2.));
#148 = CIRCLE('',#149,0.3);
#149 = AXIS2_PLACEMENT_3D('',#150,#151,#152);
#150 = CARTESIAN_POINT('',(-3.8,-32.04,2.));
#151 = DIRECTION('',(-0.,0.,1.));
#152 = DIRECTION('',(0.,-1.,0.));
#153 = ORIENTED_EDGE('',*,*,#154,.T.);
#154 = EDGE_CURVE('',#146,#155,#157,.T.);
#155 = VERTEX_POINT('',#156);
#156 = CARTESIAN_POINT('',(3.8,-31.74,2.));
#157 = LINE('',#158,#159);
#158 = CARTESIAN_POINT('',(2.05,-31.74,2.));
#159 = VECTOR('',#160,1.);
#160 = DIRECTION('',(1.,0.,0.));
#161 = ORIENTED_EDGE('',*,*,#162,.F.);
#162 = EDGE_CURVE('',#163,#155,#165,.T.);
#163 = VERTEX_POINT('',#164);
#164 = CARTESIAN_POINT('',(4.1,-32.04,2.));
#165 = CIRCLE('',#166,0.3);
#166 = AXIS2_PLACEMENT_3D('',#167,#168,#169);
#167 = CARTESIAN_POINT('',(3.8,-32.04,2.));
#168 = DIRECTION('',(-0.,0.,1.));
#169 = DIRECTION('',(0.,-1.,0.));
#170 = ORIENTED_EDGE('',*,*,#171,.T.);
#171 = EDGE_CURVE('',#163,#63,#172,.T.);
#172 = LINE('',#173,#174);
#173 = CARTESIAN_POINT('',(4.1,-36.39,2.));
#174 = VECTOR('',#175,1.);
#175 = DIRECTION('',(0.,-1.,0.));
#176 = ORIENTED_EDGE('',*,*,#62,.F.);
#177 = FACE_BOUND('',#178,.T.);
#178 = EDGE_LOOP('',(#179,#189,#197,#205));
#179 = ORIENTED_EDGE('',*,*,#180,.T.);
#180 = EDGE_CURVE('',#181,#183,#185,.T.);
#181 = VERTEX_POINT('',#182);
#182 = CARTESIAN_POINT('',(-6.,-30.34,2.));
#183 = VERTEX_POINT('',#184);
#184 = CARTESIAN_POINT('',(-6.,-39.34,2.));
#185 = LINE('',#186,#187);
#186 = CARTESIAN_POINT('',(-6.,-30.34,2.));
#187 = VECTOR('',#188,1.);
#188 = DIRECTION('',(0.,-1.,0.));
#189 = ORIENTED_EDGE('',*,*,#190,.T.);
#190 = EDGE_CURVE('',#183,#191,#193,.T.);
#191 = VERTEX_POINT('',#192);
#192 = CARTESIAN_POINT('',(6.,-39.34,2.));
#193 = LINE('',#194,#195);
#194 = CARTESIAN_POINT('',(-6.,-39.34,2.));
#195 = VECTOR('',#196,1.);
#196 = DIRECTION('',(1.,0.,0.));
#197 = ORIENTED_EDGE('',*,*,#198,.T.);
#198 = EDGE_CURVE('',#191,#199,#201,.T.);
#199 = VERTEX_POINT('',#200);
#200 = CARTESIAN_POINT('',(6.,-30.34,2.));
#201 = LINE('',#202,#203);
#202 = CARTESIAN_POINT('',(6.,-39.34,2.));
#203 = VECTOR('',#204,1.);
#204 = DIRECTION('',(0.,1.,0.));
#205 = ORIENTED_EDGE('',*,*,#206,.T.);
#206 = EDGE_CURVE('',#199,#181,#207,.T.);
#207 = LINE('',#208,#209);
#208 = CARTESIAN_POINT('',(6.,-30.34,2.));
#209 = VECTOR('',#210,1.);
#210 = DIRECTION('',(-1.,0.,0.));
#211 = PLANE('',#212);
#212 = AXIS2_PLACEMENT_3D('',#213,#214,#215);
#213 = CARTESIAN_POINT('',(0.,-34.84,2.));
#214 = DIRECTION('',(0.,0.,1.));
#215 = DIRECTION('',(1.,0.,0.));
#216 = ADVANCED_FACE('',(#217),#236,.T.);
#217 = FACE_BOUND('',#218,.F.);
#218 = EDGE_LOOP('',(#219,#220,#221,#229));
#219 = ORIENTED_EDGE('',*,*,#39,.F.);
#220 = ORIENTED_EDGE('',*,*,#128,.T.);
#221 = ORIENTED_EDGE('',*,*,#222,.T.);
#222 = EDGE_CURVE('',#129,#223,#225,.T.);
#223 = VERTEX_POINT('',#224);
#224 = CARTESIAN_POINT('',(-4.1,-37.64,8.2));
#225 = LINE('',#226,#227);
#226 = CARTESIAN_POINT('',(-4.1,-37.64,2.));
#227 = VECTOR('',#228,1.);
#228 = DIRECTION('',(0.,0.,1.));
#229 = ORIENTED_EDGE('',*,*,#230,.T.);
#230 = EDGE_CURVE('',#223,#40,#231,.T.);
#231 = CIRCLE('',#232,0.3);
#232 = AXIS2_PLACEMENT_3D('',#233,#234,#235);
#233 = CARTESIAN_POINT('',(-3.8,-37.64,8.2));
#234 = DIRECTION('',(0.,0.,1.));
#235 = DIRECTION('',(-1.,0.,0.));
#236 = CYLINDRICAL_SURFACE('',#237,0.3);
#237 = AXIS2_PLACEMENT_3D('',#238,#239,#240);
#238 = CARTESIAN_POINT('',(-3.8,-37.64,2.));
#239 = DIRECTION('',(0.,0.,1.));
#240 = DIRECTION('',(0.,-1.,0.));
#241 = ADVANCED_FACE('',(#242),#253,.T.);
#242 = FACE_BOUND('',#243,.T.);
#243 = EDGE_LOOP('',(#244,#245,#246));
#244 = ORIENTED_EDGE('',*,*,#111,.F.);
#245 = ORIENTED_EDGE('',*,*,#79,.T.);
#246 = ORIENTED_EDGE('',*,*,#247,.T.);
#247 = EDGE_CURVE('',#72,#104,#248,.T.);
#248 = CIRCLE('',#249,0.3);
#249 = AXIS2_PLACEMENT_3D('',#250,#251,#252);
#250 = CARTESIAN_POINT('',(3.8,-37.64,8.2));
#251 = DIRECTION('',(-6.123233995737E-17,-1.,0.));
#252 = DIRECTION('',(1.,-6.123233995737E-17,0.));
#253 = SPHERICAL_SURFACE('',#254,0.3);
#254 = AXIS2_PLACEMENT_3D('',#255,#256,#257);
#255 = CARTESIAN_POINT('',(3.8,-37.64,8.2));
#256 = DIRECTION('',(0.,0.,1.));
#257 = DIRECTION('',(0.,-1.,0.));
#258 = ADVANCED_FACE('',(#259),#277,.F.);
#259 = FACE_BOUND('',#260,.F.);
#260 = EDGE_LOOP('',(#261,#269,#270,#271));
#261 = ORIENTED_EDGE('',*,*,#262,.F.);
#262 = EDGE_CURVE('',#163,#263,#265,.T.);
#263 = VERTEX_POINT('',#264);
#264 = CARTESIAN_POINT('',(4.1,-32.04,8.2));
#265 = LINE('',#266,#267);
#266 = CARTESIAN_POINT('',(4.1,-32.04,2.));
#267 = VECTOR('',#268,1.);
#268 = DIRECTION('',(0.,0.,1.));
#269 = ORIENTED_EDGE('',*,*,#171,.T.);
#270 = ORIENTED_EDGE('',*,*,#71,.T.);
#271 = ORIENTED_EDGE('',*,*,#272,.T.);
#272 = EDGE_CURVE('',#72,#263,#273,.T.);
#273 = LINE('',#274,#275);
#274 = CARTESIAN_POINT('',(4.1,-37.64,8.2));
#275 = VECTOR('',#276,1.);
#276 = DIRECTION('',(0.,1.,0.));
#277 = PLANE('',#278);
#278 = AXIS2_PLACEMENT_3D('',#279,#280,#281);
#279 = CARTESIAN_POINT('',(4.1,-37.94,0.));
#280 = DIRECTION('',(-1.,0.,0.));
#281 = DIRECTION('',(0.,1.,0.));
#282 = ADVANCED_FACE('',(#283),#294,.T.);
#283 = FACE_BOUND('',#284,.T.);
#284 = EDGE_LOOP('',(#285,#292,#293));
#285 = ORIENTED_EDGE('',*,*,#286,.F.);
#286 = EDGE_CURVE('',#223,#95,#287,.T.);
#287 = CIRCLE('',#288,0.3);
#288 = AXIS2_PLACEMENT_3D('',#289,#290,#291);
#289 = CARTESIAN_POINT('',(-3.8,-37.64,8.2));
#290 = DIRECTION('',(0.,1.,-0.));
#291 = DIRECTION('',(-1.,0.,0.));
#292 = ORIENTED_EDGE('',*,*,#230,.T.);
#293 = ORIENTED_EDGE('',*,*,#94,.T.);
#294 = SPHERICAL_SURFACE('',#295,0.3);
#295 = AXIS2_PLACEMENT_3D('',#296,#297,#298);
#296 = CARTESIAN_POINT('',(-3.8,-37.64,8.2));
#297 = DIRECTION('',(0.,0.,1.));
#298 = DIRECTION('',(-1.,0.,0.));
#299 = ADVANCED_FACE('',(#300),#325,.T.);
#300 = FACE_BOUND('',#301,.T.);
#301 = EDGE_LOOP('',(#302,#310,#311,#319));
#302 = ORIENTED_EDGE('',*,*,#303,.T.);
#303 = EDGE_CURVE('',#304,#95,#306,.T.);
#304 = VERTEX_POINT('',#305);
#305 = CARTESIAN_POINT('',(-3.8,-32.04,8.5));
#306 = LINE('',#307,#308);
#307 = CARTESIAN_POINT('',(-3.8,-32.04,8.5));
#308 = VECTOR('',#309,1.);
#309 = DIRECTION('',(0.,-1.,0.));
#310 = ORIENTED_EDGE('',*,*,#103,.T.);
#311 = ORIENTED_EDGE('',*,*,#312,.T.);
#312 = EDGE_CURVE('',#104,#313,#315,.T.);
#313 = VERTEX_POINT('',#314);
#314 = CARTESIAN_POINT('',(3.8,-32.04,8.5));
#315 = LINE('',#316,#317);
#316 = CARTESIAN_POINT('',(3.8,-37.64,8.5));
#317 = VECTOR('',#318,1.);
#318 = DIRECTION('',(0.,1.,0.));
#319 = ORIENTED_EDGE('',*,*,#320,.T.);
#320 = EDGE_CURVE('',#313,#304,#321,.T.);
#321 = LINE('',#322,#323);
#322 = CARTESIAN_POINT('',(3.8,-32.04,8.5));
#323 = VECTOR('',#324,1.);
#324 = DIRECTION('',(-1.,0.,0.));
#325 = PLANE('',#326);
#326 = AXIS2_PLACEMENT_3D('',#327,#328,#329);
#327 = CARTESIAN_POINT('',(1.233581138472E-16,-34.84,8.5));
#328 = DIRECTION('',(0.,0.,1.));
#329 = DIRECTION('',(1.,0.,0.));
#330 = ADVANCED_FACE('',(#331),#349,.F.);
#331 = FACE_BOUND('',#332,.F.);
#332 = EDGE_LOOP('',(#333,#334,#335,#343));
#333 = ORIENTED_EDGE('',*,*,#222,.F.);
#334 = ORIENTED_EDGE('',*,*,#137,.T.);
#335 = ORIENTED_EDGE('',*,*,#336,.T.);
#336 = EDGE_CURVE('',#138,#337,#339,.T.);
#337 = VERTEX_POINT('',#338);
#338 = CARTESIAN_POINT('',(-4.1,-32.04,8.2));
#339 = LINE('',#340,#341);
#340 = CARTESIAN_POINT('',(-4.1,-32.04,2.));
#341 = VECTOR('',#342,1.);
#342 = DIRECTION('',(0.,0.,1.));
#343 = ORIENTED_EDGE('',*,*,#344,.T.);
#344 = EDGE_CURVE('',#337,#223,#345,.T.);
#345 = LINE('',#346,#347);
#346 = CARTESIAN_POINT('',(-4.1,-32.04,8.2));
#347 = VECTOR('',#348,1.);
#348 = DIRECTION('',(0.,-1.,0.));
#349 = PLANE('',#350);
#350 = AXIS2_PLACEMENT_3D('',#351,#352,#353);
#351 = CARTESIAN_POINT('',(-4.1,-31.74,0.));
#352 = DIRECTION('',(1.,0.,0.));
#353 = DIRECTION('',(0.,-1.,0.));
#354 = ADVANCED_FACE('',(#355),#374,.T.);
#355 = FACE_BOUND('',#356,.T.);
#356 = EDGE_LOOP('',(#357,#358,#359,#367));
#357 = ORIENTED_EDGE('',*,*,#262,.F.);
#358 = ORIENTED_EDGE('',*,*,#162,.T.);
#359 = ORIENTED_EDGE('',*,*,#360,.T.);
#360 = EDGE_CURVE('',#155,#361,#363,.T.);
#361 = VERTEX_POINT('',#362);
#362 = CARTESIAN_POINT('',(3.8,-31.74,8.2));
#363 = LINE('',#364,#365);
#364 = CARTESIAN_POINT('',(3.8,-31.74,2.));
#365 = VECTOR('',#366,1.);
#366 = DIRECTION('',(0.,0.,1.));
#367 = ORIENTED_EDGE('',*,*,#368,.F.);
#368 = EDGE_CURVE('',#263,#361,#369,.T.);
#369 = CIRCLE('',#370,0.3);
#370 = AXIS2_PLACEMENT_3D('',#371,#372,#373);
#371 = CARTESIAN_POINT('',(3.8,-32.04,8.2));
#372 = DIRECTION('',(0.,0.,1.));
#373 = DIRECTION('',(1.,0.,0.));
#374 = CYLINDRICAL_SURFACE('',#375,0.3);
#375 = AXIS2_PLACEMENT_3D('',#376,#377,#378);
#376 = CARTESIAN_POINT('',(3.8,-32.04,2.));
#377 = DIRECTION('',(0.,0.,1.));
#378 = DIRECTION('',(1.,0.,0.));
#379 = ADVANCED_FACE('',(#380),#399,.T.);
#380 = FACE_BOUND('',#381,.T.);
#381 = EDGE_LOOP('',(#382,#390,#391,#392));
#382 = ORIENTED_EDGE('',*,*,#383,.F.);
#383 = EDGE_CURVE('',#146,#384,#386,.T.);
#384 = VERTEX_POINT('',#385);
#385 = CARTESIAN_POINT('',(-3.8,-31.74,8.2));
#386 = LINE('',#387,#388);
#387 = CARTESIAN_POINT('',(-3.8,-31.74,2.));
#388 = VECTOR('',#389,1.);
#389 = DIRECTION('',(0.,0.,1.));
#390 = ORIENTED_EDGE('',*,*,#145,.T.);
#391 = ORIENTED_EDGE('',*,*,#336,.T.);
#392 = ORIENTED_EDGE('',*,*,#393,.F.);
#393 = EDGE_CURVE('',#384,#337,#394,.T.);
#394 = CIRCLE('',#395,0.3);
#395 = AXIS2_PLACEMENT_3D('',#396,#397,#398);
#396 = CARTESIAN_POINT('',(-3.8,-32.04,8.2));
#397 = DIRECTION('',(0.,-0.,1.));
#398 = DIRECTION('',(0.,1.,0.));
#399 = CYLINDRICAL_SURFACE('',#400,0.3);
#400 = AXIS2_PLACEMENT_3D('',#401,#402,#403);
#401 = CARTESIAN_POINT('',(-3.8,-32.04,2.));
#402 = DIRECTION('',(0.,0.,1.));
#403 = DIRECTION('',(0.,1.,0.));
#404 = ADVANCED_FACE('',(#405),#416,.F.);
#405 = FACE_BOUND('',#406,.F.);
#406 = EDGE_LOOP('',(#407,#408,#409,#410));
#407 = ORIENTED_EDGE('',*,*,#383,.F.);
#408 = ORIENTED_EDGE('',*,*,#154,.T.);
#409 = ORIENTED_EDGE('',*,*,#360,.T.);
#410 = ORIENTED_EDGE('',*,*,#411,.T.);
#411 = EDGE_CURVE('',#361,#384,#412,.T.);
#412 = LINE('',#413,#414);
#413 = CARTESIAN_POINT('',(3.8,-31.74,8.2));
#414 = VECTOR('',#415,1.);
#415 = DIRECTION('',(-1.,0.,0.));
#416 = PLANE('',#417);
#417 = AXIS2_PLACEMENT_3D('',#418,#419,#420);
#418 = CARTESIAN_POINT('',(4.1,-31.74,0.));
#419 = DIRECTION('',(0.,-1.,0.));
#420 = DIRECTION('',(-1.,0.,0.));
#421 = ADVANCED_FACE('',(#422),#447,.F.);
#422 = FACE_BOUND('',#423,.F.);
#423 = EDGE_LOOP('',(#424,#432,#433,#441));
#424 = ORIENTED_EDGE('',*,*,#425,.T.);
#425 = EDGE_CURVE('',#426,#181,#428,.T.);
#426 = VERTEX_POINT('',#427);
#427 = CARTESIAN_POINT('',(-6.,-30.34,0.));
#428 = LINE('',#429,#430);
#429 = CARTESIAN_POINT('',(-6.,-30.34,0.));
#430 = VECTOR('',#431,1.);
#431 = DIRECTION('',(0.,0.,1.));
#432 = ORIENTED_EDGE('',*,*,#180,.T.);
#433 = ORIENTED_EDGE('',*,*,#434,.F.);
#434 = EDGE_CURVE('',#435,#183,#437,.T.);
#435 = VERTEX_POINT('',#436);
#436 = CARTESIAN_POINT('',(-6.,-39.34,0.));
#437 = LINE('',#438,#439);
#438 = CARTESIAN_POINT('',(-6.,-39.34,0.));
#439 = VECTOR('',#440,1.);
#440 = DIRECTION('',(0.,0.,1.));
#441 = ORIENTED_EDGE('',*,*,#442,.F.);
#442 = EDGE_CURVE('',#426,#435,#443,.T.);
#443 = LINE('',#444,#445);
#444 = CARTESIAN_POINT('',(-6.,-30.34,0.));
#445 = VECTOR('',#446,1.);
#446 = DIRECTION('',(0.,-1.,0.));
#447 = PLANE('',#448);
#448 = AXIS2_PLACEMENT_3D('',#449,#450,#451);
#449 = CARTESIAN_POINT('',(-6.,-30.34,0.));
#450 = DIRECTION('',(1.,0.,0.));
#451 = DIRECTION('',(0.,-1.,0.));
#452 = ADVANCED_FACE('',(#453),#471,.F.);
#453 = FACE_BOUND('',#454,.F.);
#454 = EDGE_LOOP('',(#455,#463,#464,#465));
#455 = ORIENTED_EDGE('',*,*,#456,.T.);
#456 = EDGE_CURVE('',#457,#199,#459,.T.);
#457 = VERTEX_POINT('',#458);
#458 = CARTESIAN_POINT('',(6.,-30.34,0.));
#459 = LINE('',#460,#461);
#460 = CARTESIAN_POINT('',(6.,-30.34,0.));
#461 = VECTOR('',#462,1.);
#462 = DIRECTION('',(0.,0.,1.));
#463 = ORIENTED_EDGE('',*,*,#206,.T.);
#464 = ORIENTED_EDGE('',*,*,#425,.F.);
#465 = ORIENTED_EDGE('',*,*,#466,.F.);
#466 = EDGE_CURVE('',#457,#426,#467,.T.);
#467 = LINE('',#468,#469);
#468 = CARTESIAN_POINT('',(6.,-30.34,0.));
#469 = VECTOR('',#470,1.);
#470 = DIRECTION('',(-1.,0.,0.));
#471 = PLANE('',#472);
#472 = AXIS2_PLACEMENT_3D('',#473,#474,#475);
#473 = CARTESIAN_POINT('',(6.,-30.34,0.));
#474 = DIRECTION('',(0.,-1.,0.));
#475 = DIRECTION('',(-1.,0.,0.));
#476 = ADVANCED_FACE('',(#477),#495,.F.);
#477 = FACE_BOUND('',#478,.F.);
#478 = EDGE_LOOP('',(#479,#480,#481,#489));
#479 = ORIENTED_EDGE('',*,*,#434,.T.);
#480 = ORIENTED_EDGE('',*,*,#190,.T.);
#481 = ORIENTED_EDGE('',*,*,#482,.F.);
#482 = EDGE_CURVE('',#483,#191,#485,.T.);
#483 = VERTEX_POINT('',#484);
#484 = CARTESIAN_POINT('',(6.,-39.34,0.));
#485 = LINE('',#486,#487);
#486 = CARTESIAN_POINT('',(6.,-39.34,0.));
#487 = VECTOR('',#488,1.);
#488 = DIRECTION('',(0.,0.,1.));
#489 = ORIENTED_EDGE('',*,*,#490,.F.);
#490 = EDGE_CURVE('',#435,#483,#491,.T.);
#491 = LINE('',#492,#493);
#492 = CARTESIAN_POINT('',(-6.,-39.34,0.));
#493 = VECTOR('',#494,1.);
#494 = DIRECTION('',(1.,0.,0.));
#495 = PLANE('',#496);
#496 = AXIS2_PLACEMENT_3D('',#497,#498,#499);
#497 = CARTESIAN_POINT('',(-6.,-39.34,0.));
#498 = DIRECTION('',(0.,1.,0.));
#499 = DIRECTION('',(1.,0.,0.));
#500 = ADVANCED_FACE('',(#501),#512,.F.);
#501 = FACE_BOUND('',#502,.F.);
#502 = EDGE_LOOP('',(#503,#504,#505,#506));
#503 = ORIENTED_EDGE('',*,*,#482,.T.);
#504 = ORIENTED_EDGE('',*,*,#198,.T.);
#505 = ORIENTED_EDGE('',*,*,#456,.F.);
#506 = ORIENTED_EDGE('',*,*,#507,.F.);
#507 = EDGE_CURVE('',#483,#457,#508,.T.);
#508 = LINE('',#509,#510);
#509 = CARTESIAN_POINT('',(6.,-39.34,0.));
#510 = VECTOR('',#511,1.);
#511 = DIRECTION('',(0.,1.,0.));
#512 = PLANE('',#513);
#513 = AXIS2_PLACEMENT_3D('',#514,#515,#516);
#514 = CARTESIAN_POINT('',(6.,-39.34,0.));
#515 = DIRECTION('',(-1.,0.,0.));
#516 = DIRECTION('',(0.,1.,0.));
#517 = ADVANCED_FACE('',(#518),#530,.T.);
#518 = FACE_BOUND('',#519,.F.);
#519 = EDGE_LOOP('',(#520,#521,#522,#529));
#520 = ORIENTED_EDGE('',*,*,#247,.T.);
#521 = ORIENTED_EDGE('',*,*,#312,.T.);
#522 = ORIENTED_EDGE('',*,*,#523,.F.);
#523 = EDGE_CURVE('',#263,#313,#524,.T.);
#524 = CIRCLE('',#525,0.3);
#525 = AXIS2_PLACEMENT_3D('',#526,#527,#528);
#526 = CARTESIAN_POINT('',(3.8,-32.04,8.2));
#527 = DIRECTION('',(0.,-1.,0.));
#528 = DIRECTION('',(1.,0.,0.));
#529 = ORIENTED_EDGE('',*,*,#272,.F.);
#530 = CYLINDRICAL_SURFACE('',#531,0.3);
#531 = AXIS2_PLACEMENT_3D('',#532,#533,#534);
#532 = CARTESIAN_POINT('',(3.8,-37.64,8.2));
#533 = DIRECTION('',(0.,1.,0.));
#534 = DIRECTION('',(1.,0.,0.));
#535 = ADVANCED_FACE('',(#536),#548,.T.);
#536 = FACE_BOUND('',#537,.F.);
#537 = EDGE_LOOP('',(#538,#545,#546,#547));
#538 = ORIENTED_EDGE('',*,*,#539,.T.);
#539 = EDGE_CURVE('',#337,#304,#540,.T.);
#540 = CIRCLE('',#541,0.3);
#541 = AXIS2_PLACEMENT_3D('',#542,#543,#544);
#542 = CARTESIAN_POINT('',(-3.8,-32.04,8.2));
#543 = DIRECTION('',(0.,1.,-0.));
#544 = DIRECTION('',(-1.,0.,0.));
#545 = ORIENTED_EDGE('',*,*,#303,.T.);
#546 = ORIENTED_EDGE('',*,*,#286,.F.);
#547 = ORIENTED_EDGE('',*,*,#344,.F.);
#548 = CYLINDRICAL_SURFACE('',#549,0.3);
#549 = AXIS2_PLACEMENT_3D('',#550,#551,#552);
#550 = CARTESIAN_POINT('',(-3.8,-32.04,8.2));
#551 = DIRECTION('',(0.,-1.,0.));
#552 = DIRECTION('',(-1.,0.,0.));
#553 = ADVANCED_FACE('',(#554),#572,.T.);
#554 = FACE_BOUND('',#555,.F.);
#555 = EDGE_LOOP('',(#556,#563,#564,#571));
#556 = ORIENTED_EDGE('',*,*,#557,.T.);
#557 = EDGE_CURVE('',#361,#313,#558,.T.);
#558 = CIRCLE('',#559,0.3);
#559 = AXIS2_PLACEMENT_3D('',#560,#561,#562);
#560 = CARTESIAN_POINT('',(3.8,-32.04,8.2));
#561 = DIRECTION('',(1.,-6.123233995737E-17,0.));
#562 = DIRECTION('',(6.123233995737E-17,1.,0.));
#563 = ORIENTED_EDGE('',*,*,#320,.T.);
#564 = ORIENTED_EDGE('',*,*,#565,.F.);
#565 = EDGE_CURVE('',#384,#304,#566,.T.);
#566 = CIRCLE('',#567,0.3);
#567 = AXIS2_PLACEMENT_3D('',#568,#569,#570);
#568 = CARTESIAN_POINT('',(-3.8,-32.04,8.2));
#569 = DIRECTION('',(1.,0.,0.));
#570 = DIRECTION('',(0.,1.,0.));
#571 = ORIENTED_EDGE('',*,*,#411,.F.);
#572 = CYLINDRICAL_SURFACE('',#573,0.3);
#573 = AXIS2_PLACEMENT_3D('',#574,#575,#576);
#574 = CARTESIAN_POINT('',(3.8,-32.04,8.2));
#575 = DIRECTION('',(-1.,0.,0.));
#576 = DIRECTION('',(0.,1.,0.));
#577 = ADVANCED_FACE('',(#578),#583,.T.);
#578 = FACE_BOUND('',#579,.T.);
#579 = EDGE_LOOP('',(#580,#581,#582));
#580 = ORIENTED_EDGE('',*,*,#523,.F.);
#581 = ORIENTED_EDGE('',*,*,#368,.T.);
#582 = ORIENTED_EDGE('',*,*,#557,.T.);
#583 = SPHERICAL_SURFACE('',#584,0.3);
#584 = AXIS2_PLACEMENT_3D('',#585,#586,#587);
#585 = CARTESIAN_POINT('',(3.8,-32.04,8.2));
#586 = DIRECTION('',(0.,0.,1.));
#587 = DIRECTION('',(1.,0.,0.));
#588 = ADVANCED_FACE('',(#589),#594,.T.);
#589 = FACE_BOUND('',#590,.T.);
#590 = EDGE_LOOP('',(#591,#592,#593));
#591 = ORIENTED_EDGE('',*,*,#565,.F.);
#592 = ORIENTED_EDGE('',*,*,#393,.T.);
#593 = ORIENTED_EDGE('',*,*,#539,.T.);
#594 = SPHERICAL_SURFACE('',#595,0.3);
#595 = AXIS2_PLACEMENT_3D('',#596,#597,#598);
#596 = CARTESIAN_POINT('',(-3.8,-32.04,8.2));
#597 = DIRECTION('',(0.,0.,1.));
#598 = DIRECTION('',(0.,1.,0.));
#599 = ADVANCED_FACE('',(#600,#606),#640,.F.);
#600 = FACE_BOUND('',#601,.F.);
#601 = EDGE_LOOP('',(#602,#603,#604,#605));
#602 = ORIENTED_EDGE('',*,*,#442,.T.);
#603 = ORIENTED_EDGE('',*,*,#490,.T.);
#604 = ORIENTED_EDGE('',*,*,#507,.T.);
#605 = ORIENTED_EDGE('',*,*,#466,.T.);
#606 = FACE_BOUND('',#607,.F.);
#607 = EDGE_LOOP('',(#608,#618,#626,#634));
#608 = ORIENTED_EDGE('',*,*,#609,.F.);
#609 = EDGE_CURVE('',#610,#612,#614,.T.);
#610 = VERTEX_POINT('',#611);
#611 = CARTESIAN_POINT('',(-4.1,-31.74,0.));
#612 = VERTEX_POINT('',#613);
#613 = CARTESIAN_POINT('',(-4.1,-37.94,0.));
#614 = LINE('',#615,#616);
#615 = CARTESIAN_POINT('',(-4.1,-31.74,0.));
#616 = VECTOR('',#617,1.);
#617 = DIRECTION('',(0.,-1.,0.));
#618 = ORIENTED_EDGE('',*,*,#619,.F.);
#619 = EDGE_CURVE('',#620,#610,#622,.T.);
#620 = VERTEX_POINT('',#621);
#621 = CARTESIAN_POINT('',(4.1,-31.74,0.));
#622 = LINE('',#623,#624);
#623 = CARTESIAN_POINT('',(4.1,-31.74,0.));
#624 = VECTOR('',#625,1.);
#625 = DIRECTION('',(-1.,0.,0.));
#626 = ORIENTED_EDGE('',*,*,#627,.F.);
#627 = EDGE_CURVE('',#628,#620,#630,.T.);
#628 = VERTEX_POINT('',#629);
#629 = CARTESIAN_POINT('',(4.1,-37.94,0.));
#630 = LINE('',#631,#632);
#631 = CARTESIAN_POINT('',(4.1,-37.94,0.));
#632 = VECTOR('',#633,1.);
#633 = DIRECTION('',(0.,1.,0.));
#634 = ORIENTED_EDGE('',*,*,#635,.F.);
#635 = EDGE_CURVE('',#612,#628,#636,.T.);
#636 = LINE('',#637,#638);
#637 = CARTESIAN_POINT('',(-4.1,-37.94,0.));
#638 = VECTOR('',#639,1.);
#639 = DIRECTION('',(1.,0.,0.));
#640 = PLANE('',#641);
#641 = AXIS2_PLACEMENT_3D('',#642,#643,#644);
#642 = CARTESIAN_POINT('',(0.,-34.84,0.));
#643 = DIRECTION('',(0.,0.,1.));
#644 = DIRECTION('',(1.,0.,0.));
#645 = ADVANCED_FACE('',(#646),#652,.F.);
#646 = FACE_BOUND('',#647,.F.);
#647 = EDGE_LOOP('',(#648,#649,#650,#651));
#648 = ORIENTED_EDGE('',*,*,#619,.T.);
#649 = ORIENTED_EDGE('',*,*,#609,.T.);
#650 = ORIENTED_EDGE('',*,*,#635,.T.);
#651 = ORIENTED_EDGE('',*,*,#627,.T.);
#652 = PLANE('',#653);
#653 = AXIS2_PLACEMENT_3D('',#654,#655,#656);
#654 = CARTESIAN_POINT('',(0.,-34.84,0.));
#655 = DIRECTION('',(0.,0.,1.));
#656 = DIRECTION('',(1.,0.,0.));
#657 = ( GEOMETRIC_REPRESENTATION_CONTEXT(3) 
GLOBAL_UNCERTAINTY_ASSIGNED_CONTEXT((#661)) GLOBAL_UNIT_ASSIGNED_CONTEXT
((#658,#659,#660)) REPRESENTATION_CONTEXT('Context #1',
  '3D Context with UNIT and UNCERTAINTY') );
#658 = ( LENGTH_UNIT() NAMED_UNIT(*) SI_UNIT(.MILLI.,.METRE.) );
#659 = ( NAMED_UNIT(*) PLANE_ANGLE_UNIT() SI_UNIT($,.RADIAN.) );
#660 = ( NAMED_UNIT(*) SI_UNIT($,.STERADIAN.) SOLID_ANGLE_UNIT() );
#661 = UNCERTAINTY_MEASURE_WITH_UNIT(LENGTH_MEASURE(2.E-06),#658,
  'distance_accuracy_value','confusion accuracy');
#662 = PRODUCT_RELATED_PRODUCT_CATEGORY('part',$,(#7));
#663 = MECHANICAL_DESIGN_GEOMETRIC_PRESENTATION_REPRESENTATION('',(#664)
  ,#657);
#664 = STYLED_ITEM('color',(#665),#15);
#665 = PRESENTATION_STYLE_ASSIGNMENT((#666,#672));
#666 = SURFACE_STYLE_USAGE(.BOTH.,#667);
#667 = SURFACE_SIDE_STYLE('',(#668));
#668 = SURFACE_STYLE_FILL_AREA(#669);
#669 = FILL_AREA_STYLE('',(#670));
#670 = FILL_AREA_STYLE_COLOUR('',#671);
#671 = COLOUR_RGB('',0.800000010877,0.800000010877,0.800000010877);
#672 = CURVE_STYLE('',#673,POSITIVE_LENGTH_MEASURE(0.1),#674);
#673 = DRAUGHTING_PRE_DEFINED_CURVE_FONT('continuous');
#674 = COLOUR_RGB('',9.803921802644E-02,9.803921802644E-02,
  9.803921802644E-02);
ENDSEC;
END-ISO-10303-21;
