<?xml version="1.0" standalone="no"?>
 <!DOCTYPE svg PUBLIC "-//W3C//DTD SVG 1.1//EN" 
 "http://www.w3.org/Graphics/SVG/1.1/DTD/svg11.dtd"> 
<svg
  xmlns:svg="http://www.w3.org/2000/svg"
  xmlns="http://www.w3.org/2000/svg"
  xmlns:xlink="http://www.w3.org/1999/xlink"
  version="1.1"
  width="28.0162mm" height="39.4462mm" viewBox="0.0000 0.0000 28.0162 39.4462">
<title>SVG Image created as MAX7219Board-brd.svg date 2023/06/21 23:09:40 </title>
  <desc>Image generated by PCBNEW </desc>
<g style="fill:#000000; fill-opacity:1.0000;stroke:#000000; stroke-opacity:1.0000;
stroke-linecap:round; stroke-linejoin:round;"
 transform="translate(0 0) scale(1 1)">
</g>
<g style="fill:#000000; fill-opacity:0.0; 
stroke:#000000; stroke-width:0.0000; stroke-opacity:1; 
stroke-linecap:round; stroke-linejoin:round;">
</g>
<g style="fill:#FF26E2; fill-opacity:0.0; 
stroke:#FF26E2; stroke-width:0.0000; stroke-opacity:1; 
stroke-linecap:round; stroke-linejoin:round;">
</g>
<g style="fill:#FF26E2; fill-opacity:0.0; 
stroke:#FF26E2; stroke-width:0.0500; stroke-opacity:1; 
stroke-linecap:round; stroke-linejoin:round;">
<path d="M9.8900 1.0400
L9.8900 32.0900
" />
<path d="M9.8900 32.0900
L22.1900 32.0900
" />
<path d="M22.1900 32.0900
L22.1900 1.0400
" />
<path d="M22.1900 1.0400
L9.8900 1.0400
" />
<path d="M10.9650 35.9300
L19.6150 35.9300
" />
<path d="M10.9650 32.3300
L10.9650 35.9300
" />
<path d="M19.6150 35.9300
L19.6150 32.3300
" />
<path d="M19.6150 32.3300
L10.9650 32.3300
" />
<path d="M4.6000 25.9500
L8.2000 25.9500
" />
<path d="M8.2000 4.6000
L4.6000 4.6000
" />
<path d="M4.6000 4.6000
L4.6000 25.9500
" />
<path d="M8.2000 25.9500
L8.2000 4.6000
" />
<path d="M23.6500 27.2500
L27.2500 27.2500
" />
<path d="M27.2500 8.4000
L23.6500 8.4000
" />
<path d="M27.2500 27.2500
L27.2500 8.4000
" />
<path d="M23.6500 8.4000
L23.6500 27.2500
" />
<path d="M4.6000 26.2200
L4.6000 34.8700
" />
<path d="M8.2000 26.2200
L4.6000 26.2200
" />
<path d="M4.6000 34.8700
L8.2000 34.8700
" />
<path d="M8.2000 34.8700
L8.2000 26.2200
" />
<g >
</g>
<g >
</g>
<g >
</g>
<g >
</g>
<g >
</g>
<g >
</g>
<g >
</g>
<g >
</g>
</g>
<g style="fill:#000000; fill-opacity:0.0; 
stroke:#000000; stroke-width:0.0500; stroke-opacity:1; 
stroke-linecap:round; stroke-linejoin:round;">
</g>
<g style="fill:#AFAFAF; fill-opacity:0.0; 
stroke:#AFAFAF; stroke-width:0.0500; stroke-opacity:1; 
stroke-linecap:round; stroke-linejoin:round;">
</g>
<g style="fill:#AFAFAF; fill-opacity:0.0; 
stroke:#AFAFAF; stroke-width:0.2000; stroke-opacity:1; 
stroke-linecap:round; stroke-linejoin:round;">
<text x="12.7500" y="3.8600"
textLength="3.6333" font-size="1.3333" lengthAdjust="spacingAndGlyphs"
text-anchor="start" opacity="0">Pin1</text>
<g class="stroked-text"><desc>Pin1</desc>
<path d="M13.1197 3.7272
L13.1197 2.7272
" />
<path d="M13.1197 2.7272
L13.5006 2.7272
" />
<path d="M13.5006 2.7272
L13.5959 2.7748
" />
<path d="M13.5959 2.7748
L13.6435 2.8225
" />
<path d="M13.6435 2.8225
L13.6911 2.9177
" />
<path d="M13.6911 2.9177
L13.6911 3.0606
" />
<path d="M13.6911 3.0606
L13.6435 3.1558
" />
<path d="M13.6435 3.1558
L13.5959 3.2034
" />
<path d="M13.5959 3.2034
L13.5006 3.2510
" />
<path d="M13.5006 3.2510
L13.1197 3.2510
" />
<path d="M14.1197 3.7272
L14.1197 3.0606
" />
<path d="M14.1197 2.7272
L14.0721 2.7748
" />
<path d="M14.0721 2.7748
L14.1197 2.8225
" />
<path d="M14.1197 2.8225
L14.1673 2.7748
" />
<path d="M14.1673 2.7748
L14.1197 2.7272
" />
<path d="M14.1197 2.7272
L14.1197 2.8225
" />
<path d="M14.5959 3.0606
L14.5959 3.7272
" />
<path d="M14.5959 3.1558
L14.6435 3.1082
" />
<path d="M14.6435 3.1082
L14.7387 3.0606
" />
<path d="M14.7387 3.0606
L14.8816 3.0606
" />
<path d="M14.8816 3.0606
L14.9768 3.1082
" />
<path d="M14.9768 3.1082
L15.0244 3.2034
" />
<path d="M15.0244 3.2034
L15.0244 3.7272
" />
<path d="M16.0244 3.7272
L15.4530 3.7272
" />
<path d="M15.7387 3.7272
L15.7387 2.7272
" />
<path d="M15.7387 2.7272
L15.6435 2.8701
" />
<path d="M15.6435 2.8701
L15.5482 2.9653
" />
<path d="M15.5482 2.9653
L15.4530 3.0129
" />
</g></g>
<g style="fill:#AFAFAF; fill-opacity:0.0; 
stroke:#AFAFAF; stroke-width:0.1500; stroke-opacity:1; 
stroke-linecap:round; stroke-linejoin:round;">
<text x="16.0200" y="7.9600"
textLength="6.9369" font-size="1.3333" lengthAdjust="spacingAndGlyphs"
text-anchor="middle" opacity="0">MAX7219</text>
<g class="stroked-text"><desc>MAX7219</desc>
<path d="M12.8771 7.9148
L12.8771 6.9148
" />
<path d="M12.8771 6.9148
L13.2105 7.6291
" />
<path d="M13.2105 7.6291
L13.5438 6.9148
" />
<path d="M13.5438 6.9148
L13.5438 7.9148
" />
<path d="M13.9724 7.6291
L14.4486 7.6291
" />
<path d="M13.8771 7.9148
L14.2105 6.9148
" />
<path d="M14.2105 6.9148
L14.5438 7.9148
" />
<path d="M14.7819 6.9148
L15.4486 7.9148
" />
<path d="M15.4486 6.9148
L14.7819 7.9148
" />
<path d="M15.7343 6.9148
L16.4010 6.9148
" />
<path d="M16.4010 6.9148
L15.9724 7.9148
" />
<path d="M16.7343 7.0101
L16.7819 6.9624
" />
<path d="M16.7819 6.9624
L16.8771 6.9148
" />
<path d="M16.8771 6.9148
L17.1152 6.9148
" />
<path d="M17.1152 6.9148
L17.2105 6.9624
" />
<path d="M17.2105 6.9624
L17.2581 7.0101
" />
<path d="M17.2581 7.0101
L17.3057 7.1053
" />
<path d="M17.3057 7.1053
L17.3057 7.2005
" />
<path d="M17.3057 7.2005
L17.2581 7.3434
" />
<path d="M17.2581 7.3434
L16.6867 7.9148
" />
<path d="M16.6867 7.9148
L17.3057 7.9148
" />
<path d="M18.2581 7.9148
L17.6867 7.9148
" />
<path d="M17.9724 7.9148
L17.9724 6.9148
" />
<path d="M17.9724 6.9148
L17.8771 7.0577
" />
<path d="M17.8771 7.0577
L17.7819 7.1529
" />
<path d="M17.7819 7.1529
L17.6867 7.2005
" />
<path d="M18.7343 7.9148
L18.9248 7.9148
" />
<path d="M18.9248 7.9148
L19.0200 7.8672
" />
<path d="M19.0200 7.8672
L19.0676 7.8196
" />
<path d="M19.0676 7.8196
L19.1629 7.6767
" />
<path d="M19.1629 7.6767
L19.2105 7.4862
" />
<path d="M19.2105 7.4862
L19.2105 7.1053
" />
<path d="M19.2105 7.1053
L19.1629 7.0101
" />
<path d="M19.1629 7.0101
L19.1152 6.9624
" />
<path d="M19.1152 6.9624
L19.0200 6.9148
" />
<path d="M19.0200 6.9148
L18.8295 6.9148
" />
<path d="M18.8295 6.9148
L18.7343 6.9624
" />
<path d="M18.7343 6.9624
L18.6867 7.0101
" />
<path d="M18.6867 7.0101
L18.6390 7.1053
" />
<path d="M18.6390 7.1053
L18.6390 7.3434
" />
<path d="M18.6390 7.3434
L18.6867 7.4386
" />
<path d="M18.6867 7.4386
L18.7343 7.4862
" />
<path d="M18.7343 7.4862
L18.8295 7.5339
" />
<path d="M18.8295 7.5339
L19.0200 7.5339
" />
<path d="M19.0200 7.5339
L19.1152 7.4862
" />
<path d="M19.1152 7.4862
L19.1629 7.4386
" />
<path d="M19.1629 7.4386
L19.2105 7.3434
" />
</g><text x="16.0200" y="17.0600"
textLength="2.1750" font-size="1.3333" lengthAdjust="spacingAndGlyphs"
text-anchor="middle" opacity="0">U1</text>
<g class="stroked-text"><desc>U1</desc>
<path d="M15.2581 16.0148
L15.2581 16.8243
" />
<path d="M15.2581 16.8243
L15.3057 16.9196
" />
<path d="M15.3057 16.9196
L15.3533 16.9672
" />
<path d="M15.3533 16.9672
L15.4486 17.0148
" />
<path d="M15.4486 17.0148
L15.6390 17.0148
" />
<path d="M15.6390 17.0148
L15.7343 16.9672
" />
<path d="M15.7343 16.9672
L15.7819 16.9196
" />
<path d="M15.7819 16.9196
L15.8295 16.8243
" />
<path d="M15.8295 16.8243
L15.8295 16.0148
" />
<path d="M16.8295 17.0148
L16.2581 17.0148
" />
<path d="M16.5438 17.0148
L16.5438 16.0148
" />
<path d="M16.5438 16.0148
L16.4486 16.1577
" />
<path d="M16.4486 16.1577
L16.3533 16.2529
" />
<path d="M16.3533 16.2529
L16.2581 16.3005
" />
</g><text x="15.2900" y="37.3800"
textLength="3.3179" font-size="1.3333" lengthAdjust="spacingAndGlyphs"
text-anchor="middle" opacity="0">PWR</text>
<g class="stroked-text"><desc>PWR</desc>
<path d="M13.9567 37.3348
L13.9567 36.3348
" />
<path d="M13.9567 36.3348
L14.3376 36.3348
" />
<path d="M14.3376 36.3348
L14.4329 36.3824
" />
<path d="M14.4329 36.3824
L14.4805 36.4301
" />
<path d="M14.4805 36.4301
L14.5281 36.5253
" />
<path d="M14.5281 36.5253
L14.5281 36.6682
" />
<path d="M14.5281 36.6682
L14.4805 36.7634
" />
<path d="M14.4805 36.7634
L14.4329 36.8110
" />
<path d="M14.4329 36.8110
L14.3376 36.8586
" />
<path d="M14.3376 36.8586
L13.9567 36.8586
" />
<path d="M14.8614 36.3348
L15.0995 37.3348
" />
<path d="M15.0995 37.3348
L15.2900 36.6205
" />
<path d="M15.2900 36.6205
L15.4805 37.3348
" />
<path d="M15.4805 37.3348
L15.7186 36.3348
" />
<path d="M16.6710 37.3348
L16.3376 36.8586
" />
<path d="M16.0995 37.3348
L16.0995 36.3348
" />
<path d="M16.0995 36.3348
L16.4805 36.3348
" />
<path d="M16.4805 36.3348
L16.5757 36.3824
" />
<path d="M16.5757 36.3824
L16.6233 36.4301
" />
<path d="M16.6233 36.4301
L16.6710 36.5253
" />
<path d="M16.6710 36.5253
L16.6710 36.6682
" />
<path d="M16.6710 36.6682
L16.6233 36.7634
" />
<path d="M16.6233 36.7634
L16.5757 36.8110
" />
<path d="M16.5757 36.8110
L16.4805 36.8586
" />
<path d="M16.4805 36.8586
L16.0995 36.8586
" />
</g><text x="10.2100" y="34.8400"
textLength="1.8893" font-size="1.3333" lengthAdjust="spacingAndGlyphs"
text-anchor="middle" opacity="0">J5</text>
<g class="stroked-text"><desc>J5</desc>
<path d="M9.8767 33.7948
L9.8767 34.5091
" />
<path d="M9.8767 34.5091
L9.8290 34.6520
" />
<path d="M9.8290 34.6520
L9.7338 34.7472
" />
<path d="M9.7338 34.7472
L9.5910 34.7948
" />
<path d="M9.5910 34.7948
L9.4957 34.7948
" />
<path d="M10.8290 33.7948
L10.3529 33.7948
" />
<path d="M10.3529 33.7948
L10.3052 34.2710
" />
<path d="M10.3052 34.2710
L10.3529 34.2234
" />
<path d="M10.3529 34.2234
L10.4481 34.1758
" />
<path d="M10.4481 34.1758
L10.6862 34.1758
" />
<path d="M10.6862 34.1758
L10.7814 34.2234
" />
<path d="M10.7814 34.2234
L10.8290 34.2710
" />
<path d="M10.8290 34.2710
L10.8767 34.3662
" />
<path d="M10.8767 34.3662
L10.8767 34.6043
" />
<path d="M10.8767 34.6043
L10.8290 34.6996
" />
<path d="M10.8290 34.6996
L10.7814 34.7472
" />
<path d="M10.7814 34.7472
L10.6862 34.7948
" />
<path d="M10.6862 34.7948
L10.4481 34.7948
" />
<path d="M10.4481 34.7948
L10.3529 34.7472
" />
<path d="M10.3529 34.7472
L10.3052 34.6996
" />
</g><g transform="rotate(-90.000000 2.5900 15.2900)">
<text x="2.5900" y="15.7900"
textLength="4.4131" font-size="1.3333" lengthAdjust="spacingAndGlyphs"
text-anchor="middle" opacity="0">Digits</text>
</g>
<g class="stroked-text"><desc>Digits</desc>
<path d="M3.0448 17.1710
L2.0448 17.1710
" />
<path d="M2.0448 17.1710
L2.0448 16.9329
" />
<path d="M2.0448 16.9329
L2.0924 16.7900
" />
<path d="M2.0924 16.7900
L2.1877 16.6948
" />
<path d="M2.1877 16.6948
L2.2829 16.6471
" />
<path d="M2.2829 16.6471
L2.4734 16.5995
" />
<path d="M2.4734 16.5995
L2.6162 16.5995
" />
<path d="M2.6162 16.5995
L2.8067 16.6471
" />
<path d="M2.8067 16.6471
L2.9020 16.6948
" />
<path d="M2.9020 16.6948
L2.9972 16.7900
" />
<path d="M2.9972 16.7900
L3.0448 16.9329
" />
<path d="M3.0448 16.9329
L3.0448 17.1710
" />
<path d="M3.0448 16.1710
L2.3782 16.1710
" />
<path d="M2.0448 16.1710
L2.0924 16.2186
" />
<path d="M2.0924 16.2186
L2.1401 16.1710
" />
<path d="M2.1401 16.1710
L2.0924 16.1233
" />
<path d="M2.0924 16.1233
L2.0448 16.1710
" />
<path d="M2.0448 16.1710
L2.1401 16.1710
" />
<path d="M2.3782 15.2662
L3.1877 15.2662
" />
<path d="M3.1877 15.2662
L3.2829 15.3138
" />
<path d="M3.2829 15.3138
L3.3305 15.3614
" />
<path d="M3.3305 15.3614
L3.3782 15.4567
" />
<path d="M3.3782 15.4567
L3.3782 15.5995
" />
<path d="M3.3782 15.5995
L3.3305 15.6948
" />
<path d="M2.9972 15.2662
L3.0448 15.3614
" />
<path d="M3.0448 15.3614
L3.0448 15.5519
" />
<path d="M3.0448 15.5519
L2.9972 15.6471
" />
<path d="M2.9972 15.6471
L2.9496 15.6948
" />
<path d="M2.9496 15.6948
L2.8543 15.7424
" />
<path d="M2.8543 15.7424
L2.5686 15.7424
" />
<path d="M2.5686 15.7424
L2.4734 15.6948
" />
<path d="M2.4734 15.6948
L2.4258 15.6471
" />
<path d="M2.4258 15.6471
L2.3782 15.5519
" />
<path d="M2.3782 15.5519
L2.3782 15.3614
" />
<path d="M2.3782 15.3614
L2.4258 15.2662
" />
<path d="M3.0448 14.7900
L2.3782 14.7900
" />
<path d="M2.0448 14.7900
L2.0924 14.8376
" />
<path d="M2.0924 14.8376
L2.1401 14.7900
" />
<path d="M2.1401 14.7900
L2.0924 14.7424
" />
<path d="M2.0924 14.7424
L2.0448 14.7900
" />
<path d="M2.0448 14.7900
L2.1401 14.7900
" />
<path d="M2.3782 14.4567
L2.3782 14.0757
" />
<path d="M2.0448 14.3138
L2.9020 14.3138
" />
<path d="M2.9020 14.3138
L2.9972 14.2662
" />
<path d="M2.9972 14.2662
L3.0448 14.1710
" />
<path d="M3.0448 14.1710
L3.0448 14.0757
" />
<path d="M2.9972 13.7900
L3.0448 13.6948
" />
<path d="M3.0448 13.6948
L3.0448 13.5043
" />
<path d="M3.0448 13.5043
L2.9972 13.4090
" />
<path d="M2.9972 13.4090
L2.9020 13.3614
" />
<path d="M2.9020 13.3614
L2.8543 13.3614
" />
<path d="M2.8543 13.3614
L2.7591 13.4090
" />
<path d="M2.7591 13.4090
L2.7115 13.5043
" />
<path d="M2.7115 13.5043
L2.7115 13.6471
" />
<path d="M2.7115 13.6471
L2.6639 13.7424
" />
<path d="M2.6639 13.7424
L2.5686 13.7900
" />
<path d="M2.5686 13.7900
L2.5210 13.7900
" />
<path d="M2.5210 13.7900
L2.4258 13.7424
" />
<path d="M2.4258 13.7424
L2.3782 13.6471
" />
<path d="M2.3782 13.6471
L2.3782 13.5043
" />
<path d="M2.3782 13.5043
L2.4258 13.4090
" />
</g><text x="6.4000" y="4.3600"
textLength="1.8893" font-size="1.3333" lengthAdjust="spacingAndGlyphs"
text-anchor="middle" opacity="0">J4</text>
<g class="stroked-text"><desc>J4</desc>
<path d="M6.0667 3.3148
L6.0667 4.0291
" />
<path d="M6.0667 4.0291
L6.0190 4.1720
" />
<path d="M6.0190 4.1720
L5.9238 4.2672
" />
<path d="M5.9238 4.2672
L5.7810 4.3148
" />
<path d="M5.7810 4.3148
L5.6857 4.3148
" />
<path d="M6.9714 3.6482
L6.9714 4.3148
" />
<path d="M6.7333 3.2672
L6.4952 3.9815
" />
<path d="M6.4952 3.9815
L7.1143 3.9815
" />
</g><text x="25.4500" y="29.7600"
textLength="3.6988" font-size="1.3333" lengthAdjust="spacingAndGlyphs"
text-anchor="middle" opacity="0">Segs</text>
<g class="stroked-text"><desc>Segs</desc>
<path d="M23.8786 29.6672
L24.0214 29.7148
" />
<path d="M24.0214 29.7148
L24.2595 29.7148
" />
<path d="M24.2595 29.7148
L24.3548 29.6672
" />
<path d="M24.3548 29.6672
L24.4024 29.6196
" />
<path d="M24.4024 29.6196
L24.4500 29.5243
" />
<path d="M24.4500 29.5243
L24.4500 29.4291
" />
<path d="M24.4500 29.4291
L24.4024 29.3339
" />
<path d="M24.4024 29.3339
L24.3548 29.2862
" />
<path d="M24.3548 29.2862
L24.2595 29.2386
" />
<path d="M24.2595 29.2386
L24.0690 29.1910
" />
<path d="M24.0690 29.1910
L23.9738 29.1434
" />
<path d="M23.9738 29.1434
L23.9262 29.0958
" />
<path d="M23.9262 29.0958
L23.8786 29.0005
" />
<path d="M23.8786 29.0005
L23.8786 28.9053
" />
<path d="M23.8786 28.9053
L23.9262 28.8101
" />
<path d="M23.9262 28.8101
L23.9738 28.7624
" />
<path d="M23.9738 28.7624
L24.0690 28.7148
" />
<path d="M24.0690 28.7148
L24.3071 28.7148
" />
<path d="M24.3071 28.7148
L24.4500 28.7624
" />
<path d="M25.2595 29.6672
L25.1643 29.7148
" />
<path d="M25.1643 29.7148
L24.9738 29.7148
" />
<path d="M24.9738 29.7148
L24.8786 29.6672
" />
<path d="M24.8786 29.6672
L24.8310 29.5720
" />
<path d="M24.8310 29.5720
L24.8310 29.1910
" />
<path d="M24.8310 29.1910
L24.8786 29.0958
" />
<path d="M24.8786 29.0958
L24.9738 29.0482
" />
<path d="M24.9738 29.0482
L25.1643 29.0482
" />
<path d="M25.1643 29.0482
L25.2595 29.0958
" />
<path d="M25.2595 29.0958
L25.3071 29.1910
" />
<path d="M25.3071 29.1910
L25.3071 29.2862
" />
<path d="M25.3071 29.2862
L24.8310 29.3815
" />
<path d="M26.1643 29.0482
L26.1643 29.8577
" />
<path d="M26.1643 29.8577
L26.1167 29.9529
" />
<path d="M26.1167 29.9529
L26.0690 30.0005
" />
<path d="M26.0690 30.0005
L25.9738 30.0482
" />
<path d="M25.9738 30.0482
L25.8310 30.0482
" />
<path d="M25.8310 30.0482
L25.7357 30.0005
" />
<path d="M26.1643 29.6672
L26.0690 29.7148
" />
<path d="M26.0690 29.7148
L25.8786 29.7148
" />
<path d="M25.8786 29.7148
L25.7833 29.6672
" />
<path d="M25.7833 29.6672
L25.7357 29.6196
" />
<path d="M25.7357 29.6196
L25.6881 29.5243
" />
<path d="M25.6881 29.5243
L25.6881 29.2386
" />
<path d="M25.6881 29.2386
L25.7357 29.1434
" />
<path d="M25.7357 29.1434
L25.7833 29.0958
" />
<path d="M25.7833 29.0958
L25.8786 29.0482
" />
<path d="M25.8786 29.0482
L26.0690 29.0482
" />
<path d="M26.0690 29.0482
L26.1643 29.0958
" />
<path d="M26.5929 29.6672
L26.6881 29.7148
" />
<path d="M26.6881 29.7148
L26.8786 29.7148
" />
<path d="M26.8786 29.7148
L26.9738 29.6672
" />
<path d="M26.9738 29.6672
L27.0214 29.5720
" />
<path d="M27.0214 29.5720
L27.0214 29.5243
" />
<path d="M27.0214 29.5243
L26.9738 29.4291
" />
<path d="M26.9738 29.4291
L26.8786 29.3815
" />
<path d="M26.8786 29.3815
L26.7357 29.3815
" />
<path d="M26.7357 29.3815
L26.6405 29.3339
" />
<path d="M26.6405 29.3339
L26.5929 29.2386
" />
<path d="M26.5929 29.2386
L26.5929 29.1910
" />
<path d="M26.5929 29.1910
L26.6405 29.0958
" />
<path d="M26.6405 29.0958
L26.7357 29.0482
" />
<path d="M26.7357 29.0482
L26.8786 29.0482
" />
<path d="M26.8786 29.0482
L26.9738 29.0958
" />
</g><text x="24.1800" y="28.4900"
textLength="1.8893" font-size="1.3333" lengthAdjust="spacingAndGlyphs"
text-anchor="middle" opacity="0">J3</text>
<g class="stroked-text"><desc>J3</desc>
<path d="M23.8467 27.4448
L23.8467 28.1591
" />
<path d="M23.8467 28.1591
L23.7990 28.3020
" />
<path d="M23.7990 28.3020
L23.7038 28.3972
" />
<path d="M23.7038 28.3972
L23.5610 28.4448
" />
<path d="M23.5610 28.4448
L23.4657 28.4448
" />
<path d="M24.2276 27.4448
L24.8467 27.4448
" />
<path d="M24.8467 27.4448
L24.5133 27.8258
" />
<path d="M24.5133 27.8258
L24.6562 27.8258
" />
<path d="M24.6562 27.8258
L24.7514 27.8734
" />
<path d="M24.7514 27.8734
L24.7990 27.9210
" />
<path d="M24.7990 27.9210
L24.8467 28.0162
" />
<path d="M24.8467 28.0162
L24.8467 28.2543
" />
<path d="M24.8467 28.2543
L24.7990 28.3496
" />
<path d="M24.7990 28.3496
L24.7514 28.3972
" />
<path d="M24.7514 28.3972
L24.6562 28.4448
" />
<path d="M24.6562 28.4448
L24.3705 28.4448
" />
<path d="M24.3705 28.4448
L24.2752 28.3972
" />
<path d="M24.2752 28.3972
L24.2276 28.3496
" />
</g><g transform="rotate(-90.000000 2.5900 30.5300)">
<text x="2.5900" y="31.0300"
textLength="3.5560" font-size="1.3333" lengthAdjust="spacingAndGlyphs"
text-anchor="middle" opacity="0">Data</text>
</g>
<g class="stroked-text"><desc>Data</desc>
<path d="M3.0448 31.9824
L2.0448 31.9824
" />
<path d="M2.0448 31.9824
L2.0448 31.7443
" />
<path d="M2.0448 31.7443
L2.0924 31.6014
" />
<path d="M2.0924 31.6014
L2.1877 31.5062
" />
<path d="M2.1877 31.5062
L2.2829 31.4586
" />
<path d="M2.2829 31.4586
L2.4734 31.4110
" />
<path d="M2.4734 31.4110
L2.6162 31.4110
" />
<path d="M2.6162 31.4110
L2.8067 31.4586
" />
<path d="M2.8067 31.4586
L2.9020 31.5062
" />
<path d="M2.9020 31.5062
L2.9972 31.6014
" />
<path d="M2.9972 31.6014
L3.0448 31.7443
" />
<path d="M3.0448 31.7443
L3.0448 31.9824
" />
<path d="M3.0448 30.5538
L2.5210 30.5538
" />
<path d="M2.5210 30.5538
L2.4258 30.6014
" />
<path d="M2.4258 30.6014
L2.3782 30.6967
" />
<path d="M2.3782 30.6967
L2.3782 30.8871
" />
<path d="M2.3782 30.8871
L2.4258 30.9824
" />
<path d="M2.9972 30.5538
L3.0448 30.6490
" />
<path d="M3.0448 30.6490
L3.0448 30.8871
" />
<path d="M3.0448 30.8871
L2.9972 30.9824
" />
<path d="M2.9972 30.9824
L2.9020 31.0300
" />
<path d="M2.9020 31.0300
L2.8067 31.0300
" />
<path d="M2.8067 31.0300
L2.7115 30.9824
" />
<path d="M2.7115 30.9824
L2.6639 30.8871
" />
<path d="M2.6639 30.8871
L2.6639 30.6490
" />
<path d="M2.6639 30.6490
L2.6162 30.5538
" />
<path d="M2.3782 30.2205
L2.3782 29.8395
" />
<path d="M2.0448 30.0776
L2.9020 30.0776
" />
<path d="M2.9020 30.0776
L2.9972 30.0300
" />
<path d="M2.9972 30.0300
L3.0448 29.9348
" />
<path d="M3.0448 29.9348
L3.0448 29.8395
" />
<path d="M3.0448 29.0776
L2.5210 29.0776
" />
<path d="M2.5210 29.0776
L2.4258 29.1252
" />
<path d="M2.4258 29.1252
L2.3782 29.2205
" />
<path d="M2.3782 29.2205
L2.3782 29.4110
" />
<path d="M2.3782 29.4110
L2.4258 29.5062
" />
<path d="M2.9972 29.0776
L3.0448 29.1729
" />
<path d="M3.0448 29.1729
L3.0448 29.4110
" />
<path d="M3.0448 29.4110
L2.9972 29.5062
" />
<path d="M2.9972 29.5062
L2.9020 29.5538
" />
<path d="M2.9020 29.5538
L2.8067 29.5538
" />
<path d="M2.8067 29.5538
L2.7115 29.5062
" />
<path d="M2.7115 29.5062
L2.6639 29.4110
" />
<path d="M2.6639 29.4110
L2.6639 29.1729
" />
<path d="M2.6639 29.1729
L2.6162 29.0776
" />
</g><text x="6.4000" y="36.1100"
textLength="1.8893" font-size="1.3333" lengthAdjust="spacingAndGlyphs"
text-anchor="middle" opacity="0">J2</text>
<g class="stroked-text"><desc>J2</desc>
<path d="M6.0667 35.0648
L6.0667 35.7791
" />
<path d="M6.0667 35.7791
L6.0190 35.9220
" />
<path d="M6.0190 35.9220
L5.9238 36.0172
" />
<path d="M5.9238 36.0172
L5.7810 36.0648
" />
<path d="M5.7810 36.0648
L5.6857 36.0648
" />
<path d="M6.4952 35.1601
L6.5429 35.1124
" />
<path d="M6.5429 35.1124
L6.6381 35.0648
" />
<path d="M6.6381 35.0648
L6.8762 35.0648
" />
<path d="M6.8762 35.0648
L6.9714 35.1124
" />
<path d="M6.9714 35.1124
L7.0190 35.1601
" />
<path d="M7.0190 35.1601
L7.0667 35.2553
" />
<path d="M7.0667 35.2553
L7.0667 35.3505
" />
<path d="M7.0667 35.3505
L7.0190 35.4934
" />
<path d="M7.0190 35.4934
L6.4476 36.0648
" />
<path d="M6.4476 36.0648
L7.0667 36.0648
" />
</g></g>
<g style="fill:#AFAFAF; fill-opacity:0.0; 
stroke:#AFAFAF; stroke-width:0.1000; stroke-opacity:1; 
stroke-linecap:round; stroke-linejoin:round;">
<path d="M11.4500 2.3200
L12.4500 1.3200
" />
<path d="M20.5900 31.8000
L11.4500 31.8000
" />
<path d="M12.4500 1.3200
L20.5900 1.3200
" />
<path d="M11.4500 31.8000
L11.4500 2.3200
" />
<path d="M20.5900 1.3200
L20.5900 31.8000
" />
<path d="M19.1150 35.4000
L12.1300 35.4000
" />
<path d="M11.4950 32.8600
L19.1150 32.8600
" />
<path d="M12.1300 35.4000
L11.4950 34.7650
" />
<path d="M11.4950 34.7650
L11.4950 32.8600
" />
<path d="M19.1150 32.8600
L19.1150 35.4000
" />
<path d="M7.6700 25.4500
L5.1300 25.4500
" />
<path d="M5.1300 5.7650
L5.7650 5.1300
" />
<path d="M5.1300 25.4500
L5.1300 5.7650
" />
<path d="M5.7650 5.1300
L7.6700 5.1300
" />
<path d="M7.6700 5.1300
L7.6700 25.4500
" />
<path d="M26.7200 26.0850
L26.0850 26.7200
" />
<path d="M26.0850 26.7200
L24.1800 26.7200
" />
<path d="M24.1800 8.9400
L26.7200 8.9400
" />
<path d="M26.7200 8.9400
L26.7200 26.0850
" />
<path d="M24.1800 26.7200
L24.1800 8.9400
" />
<path d="M5.1300 26.7200
L7.6700 26.7200
" />
<path d="M7.0350 34.3400
L5.1300 34.3400
" />
<path d="M7.6700 33.7050
L7.0350 34.3400
" />
<path d="M5.1300 34.3400
L5.1300 26.7200
" />
<path d="M7.6700 26.7200
L7.6700 33.7050
" />
<g >
</g>
<g >
</g>
<g >
</g>
<g >
</g>
<g >
</g>
<g >
</g>
<g >
</g>
<g >
</g>
</g>
<g style="fill:#000000; fill-opacity:0.0; 
stroke:#000000; stroke-width:0.1000; stroke-opacity:1; 
stroke-linecap:round; stroke-linejoin:round;">
</g>
<g style="fill:#D0D2CD; fill-opacity:0.0; 
stroke:#D0D2CD; stroke-width:0.1000; stroke-opacity:1; 
stroke-linecap:round; stroke-linejoin:round;">
<path style="fill:#D0D2CD; fill-opacity:0.0; 
stroke:#D0D2CD; stroke-width:0.1000; stroke-opacity:1; 
stroke-linecap:round; stroke-linejoin:round;fill:none"
d="M 0.0500,0.0500
27.9900,0.0500
27.9900,39.4200
0.0500,39.4200
Z" /> 
<g >
</g>
<g >
</g>
<g >
</g>
<g >
</g>
<g >
</g>
<g >
</g>
<g >
</g>
<g >
</g>
</g> 
</svg>
