%TF.GenerationSoftware,KiCad,Pcbnew,7.0.11+dfsg-1build4*%
%TF.CreationDate,2026-05-05T17:08:17+02:00*%
%TF.ProjectId,eHSI_pcb,65485349-5f70-4636-922e-6b696361645f,rev?*%
%TF.SameCoordinates,PX65bcec0PY8db4db0*%
%TF.FileFunction,Copper,L1,Top*%
%TF.FilePolarity,Positive*%
%FSLAX46Y46*%
G04 Gerber Fmt 4.6, Leading zero omitted, Abs format (unit mm)*
G04 Created by KiCad (PCBNEW 7.0.11+dfsg-1build4) date 2026-05-05 17:08:17*
%MOMM*%
%LPD*%
G01*
G04 APERTURE LIST*
G04 Aperture macros list*
%AMRotRect*
0 Rectangle, with rotation*
0 The origin of the aperture is its center*
0 $1 length*
0 $2 width*
0 $3 Rotation angle, in degrees counterclockwise*
0 Add horizontal line*
21,1,$1,$2,0,0,$3*%
G04 Aperture macros list end*
%TA.AperFunction,ComponentPad*%
%ADD10R,1.700000X1.700000*%
%TD*%
%TA.AperFunction,ComponentPad*%
%ADD11O,1.700000X1.700000*%
%TD*%
%TA.AperFunction,SMDPad,CuDef*%
%ADD12RotRect,2.000000X2.000000X225.000000*%
%TD*%
%TA.AperFunction,SMDPad,CuDef*%
%ADD13C,2.000000*%
%TD*%
%TA.AperFunction,SMDPad,CuDef*%
%ADD14RotRect,2.000000X2.000000X315.000000*%
%TD*%
%TA.AperFunction,SMDPad,CuDef*%
%ADD15R,2.160000X1.120000*%
%TD*%
%TA.AperFunction,Conductor*%
%ADD16C,0.600000*%
%TD*%
%TA.AperFunction,Conductor*%
%ADD17C,0.200000*%
%TD*%
G04 APERTURE END LIST*
D10*
%TO.P,J1,1,Pin_1*%
%TO.N,Net-(J1-Pin_1)*%
X5400000Y31900000D03*
D11*
%TO.P,J1,2,Pin_2*%
%TO.N,Net-(J1-Pin_2)*%
X5400000Y29360000D03*
%TO.P,J1,3,Pin_3*%
%TO.N,Net-(J1-Pin_3)*%
X5400000Y26820000D03*
%TD*%
D12*
%TO.P,SW2,A,A*%
%TO.N,Net-(J2-Pin_1)*%
X77314291Y15348757D03*
%TO.P,SW2,B,B*%
%TO.N,Net-(J2-Pin_2)*%
X73778758Y18884289D03*
%TO.P,SW2,C,C*%
%TO.N,GND*%
X75546525Y17116522D03*
%TO.P,SW2,S1,S1*%
%TO.N,unconnected-(SW2-PadS1)*%
X63525709Y8631243D03*
D13*
%TO.P,SW2,S2,S2*%
%TO.N,unconnected-(SW2-PadS2)*%
X67061244Y5095709D03*
%TD*%
D14*
%TO.P,SW1,A,A*%
%TO.N,Net-(J1-Pin_2)*%
X9012444Y19003968D03*
%TO.P,SW1,B,B*%
%TO.N,Net-(J1-Pin_3)*%
X5476911Y15468435D03*
%TO.P,SW1,C,C*%
%TO.N,GND*%
X7244678Y17236202D03*
%TO.P,SW1,S1,S1*%
%TO.N,unconnected-(SW1-PadS1)*%
X15729958Y5215386D03*
D13*
%TO.P,SW1,S2,S2*%
%TO.N,unconnected-(SW1-PadS2)*%
X19265492Y8750920D03*
%TD*%
D10*
%TO.P,J2,1,Pin_1*%
%TO.N,Net-(J2-Pin_1)*%
X77720000Y26490000D03*
D11*
%TO.P,J2,2,Pin_2*%
%TO.N,Net-(J2-Pin_2)*%
X77720000Y29030000D03*
%TO.P,J2,3,Pin_3*%
%TO.N,GND*%
X77720000Y31570000D03*
%TD*%
D15*
%TO.P,SW3,1,1*%
%TO.N,Net-(J1-Pin_1)*%
X38113255Y6564385D03*
%TO.P,SW3,2,2*%
%TO.N,GND*%
X44843255Y6564385D03*
%TD*%
D16*
%TO.N,Net-(J2-Pin_2)*%
X73778758Y18884289D02*
X75300000Y20405531D01*
X75300000Y20405531D02*
X75300000Y28100000D01*
X75300000Y28100000D02*
X76230000Y29030000D01*
X76230000Y29030000D02*
X77720000Y29030000D01*
%TO.N,Net-(J2-Pin_1)*%
X77314291Y15348757D02*
X79500000Y17534466D01*
X79500000Y17534466D02*
X79500000Y24710000D01*
X79500000Y24710000D02*
X77720000Y26490000D01*
%TO.N,Net-(J1-Pin_1)*%
X38113255Y6564385D02*
X38113255Y5513255D01*
X5300000Y11900000D02*
X3000000Y14200000D01*
X38113255Y5513255D02*
X36600000Y4000000D01*
X12700000Y11900000D02*
X5300000Y11900000D01*
X36600000Y4000000D02*
X20600000Y4000000D01*
X3000000Y31200000D02*
X3700000Y31900000D01*
X20600000Y4000000D02*
X12700000Y11900000D01*
X3000000Y14200000D02*
X3000000Y31200000D01*
X3700000Y31900000D02*
X5400000Y31900000D01*
%TO.N,Net-(J1-Pin_2)*%
X6840000Y29360000D02*
X7600000Y28600000D01*
X5400000Y29360000D02*
X6840000Y29360000D01*
X7600000Y28600000D02*
X7600000Y20416412D01*
X7600000Y20416412D02*
X9012444Y19003968D01*
%TO.N,Net-(J1-Pin_3)*%
X5476911Y15468435D02*
X4700000Y16245346D01*
X4700000Y16245346D02*
X4700000Y18600000D01*
X4700000Y18600000D02*
X5400000Y19300000D01*
X5400000Y19300000D02*
X5400000Y26820000D01*
D17*
%TO.N,Net-(J1-Pin_1)*%
X37755000Y6990000D02*
X37360000Y6990000D01*
%TD*%
%TA.AperFunction,Conductor*%
%TO.N,GND*%
G36*
X80870129Y33547895D02*
G01*
X80915884Y33495091D01*
X80927090Y33443580D01*
X80927090Y13892442D01*
X80907405Y13825403D01*
X80890771Y13804761D01*
X75963733Y8877724D01*
X75902410Y8844239D01*
X75832718Y8849223D01*
X75776785Y8891095D01*
X75771058Y8899433D01*
X75661590Y9073650D01*
X75509730Y9239791D01*
X75509729Y9239792D01*
X75509728Y9239793D01*
X75330637Y9376153D01*
X75330633Y9376155D01*
X75330632Y9376156D01*
X75130078Y9478344D01*
X74914491Y9543082D01*
X74690821Y9568283D01*
X74690810Y9568284D01*
X74466234Y9553142D01*
X74466229Y9553142D01*
X74247963Y9498143D01*
X74247960Y9498142D01*
X74043019Y9405054D01*
X74043009Y9405048D01*
X73857987Y9276865D01*
X72819463Y8238341D01*
X72711336Y8108827D01*
X72711332Y8108821D01*
X72600251Y7913053D01*
X72525906Y7700594D01*
X72525905Y7700591D01*
X72490693Y7478271D01*
X72495744Y7253229D01*
X72540894Y7032719D01*
X72540898Y7032706D01*
X72624696Y6823799D01*
X72744455Y6633203D01*
X72852922Y6514536D01*
X72896318Y6467059D01*
X73075409Y6330699D01*
X73075412Y6330698D01*
X73075414Y6330696D01*
X73149436Y6292980D01*
X73200233Y6245006D01*
X73217028Y6177185D01*
X73194491Y6111050D01*
X73180823Y6094814D01*
X69316696Y2230685D01*
X69255373Y2197200D01*
X69229015Y2194366D01*
X13746165Y2194366D01*
X13679126Y2214051D01*
X13658484Y2230685D01*
X10673783Y5215386D01*
X13810098Y5215386D01*
X13830578Y5072931D01*
X13830579Y5072927D01*
X13890365Y4942016D01*
X13890366Y4942015D01*
X13890367Y4942013D01*
X13927986Y4895330D01*
X13927989Y4895327D01*
X13927994Y4895321D01*
X15187179Y3636139D01*
X15409902Y3413416D01*
X15409906Y3413413D01*
X15409908Y3413411D01*
X15456584Y3375795D01*
X15587498Y3316008D01*
X15587499Y3316008D01*
X15587501Y3316007D01*
X15729958Y3295526D01*
X15872415Y3316007D01*
X16003331Y3375795D01*
X16050014Y3413414D01*
X17531928Y4895330D01*
X17569549Y4942013D01*
X17629337Y5072929D01*
X17649818Y5215386D01*
X17629337Y5357843D01*
X17619695Y5378955D01*
X17569550Y5488757D01*
X17569549Y5488758D01*
X17569549Y5488759D01*
X17531930Y5535442D01*
X17531925Y5535447D01*
X17531921Y5535452D01*
X16050017Y7017353D01*
X16050011Y7017358D01*
X16030967Y7032706D01*
X16003331Y7054978D01*
X15872417Y7114765D01*
X15872413Y7114766D01*
X15729958Y7135246D01*
X15587502Y7114766D01*
X15587498Y7114765D01*
X15456587Y7054979D01*
X15409892Y7017350D01*
X13927991Y5535446D01*
X13927982Y5535436D01*
X13890366Y5488760D01*
X13830579Y5357846D01*
X13830578Y5357842D01*
X13810098Y5215386D01*
X10673783Y5215386D01*
X9651964Y6237205D01*
X9618479Y6298528D01*
X9623463Y6368220D01*
X9665335Y6424153D01*
X9673658Y6429871D01*
X9808401Y6514534D01*
X9974547Y6666398D01*
X10110907Y6845489D01*
X10213098Y7046049D01*
X10277835Y7261633D01*
X10303037Y7485311D01*
X10297479Y7567740D01*
X10287895Y7709892D01*
X10287895Y7709897D01*
X10232896Y7928163D01*
X10232895Y7928166D01*
X10184570Y8034557D01*
X10139806Y8133110D01*
X10011619Y8318138D01*
X8973090Y9356667D01*
X8843580Y9464790D01*
X8843574Y9464794D01*
X8647806Y9575875D01*
X8435347Y9650220D01*
X8435344Y9650221D01*
X8213021Y9685433D01*
X7987982Y9680382D01*
X7767472Y9635232D01*
X7767459Y9635228D01*
X7558552Y9551430D01*
X7367956Y9431671D01*
X7201815Y9279811D01*
X7171344Y9239791D01*
X7065453Y9100717D01*
X7051662Y9073650D01*
X7049436Y9069282D01*
X7001461Y9018487D01*
X6933639Y9001693D01*
X6867505Y9024232D01*
X6851271Y9037898D01*
X4972343Y10916826D01*
X4938858Y10978149D01*
X4943842Y11047841D01*
X4985714Y11103774D01*
X5051178Y11128191D01*
X5100979Y11121549D01*
X5120745Y11114632D01*
X5158790Y11110346D01*
X5172479Y11108020D01*
X5209806Y11099500D01*
X5255046Y11099500D01*
X12317060Y11099500D01*
X12384099Y11079815D01*
X12404741Y11063181D01*
X19970184Y3497738D01*
X20097738Y3370184D01*
X20130157Y3349814D01*
X20141486Y3341775D01*
X20171411Y3317910D01*
X20171412Y3317909D01*
X20205894Y3301304D01*
X20218067Y3294576D01*
X20231984Y3285832D01*
X20250478Y3274211D01*
X20275506Y3265454D01*
X20286606Y3261569D01*
X20299450Y3256250D01*
X20330514Y3241290D01*
X20333941Y3239639D01*
X20371249Y3231124D01*
X20384612Y3227275D01*
X20420742Y3214633D01*
X20420745Y3214632D01*
X20458790Y3210346D01*
X20472479Y3208020D01*
X20509806Y3199500D01*
X20509808Y3199500D01*
X36690194Y3199500D01*
X36727517Y3208019D01*
X36741211Y3210346D01*
X36779255Y3214632D01*
X36815392Y3227278D01*
X36828726Y3231119D01*
X36866061Y3239640D01*
X36900561Y3256255D01*
X36913398Y3261571D01*
X36949519Y3274210D01*
X36949518Y3274210D01*
X36949522Y3274211D01*
X36981939Y3294581D01*
X36994103Y3301303D01*
X36994105Y3301304D01*
X37028587Y3317909D01*
X37058515Y3341778D01*
X37069847Y3349818D01*
X37102262Y3370184D01*
X37229816Y3497738D01*
X38711081Y4979003D01*
X38743071Y5010993D01*
X38763435Y5043404D01*
X38771470Y5054730D01*
X38795347Y5084669D01*
X38800661Y5095704D01*
X65555601Y5095704D01*
X65576134Y4847897D01*
X65576136Y4847885D01*
X65637180Y4606828D01*
X65737070Y4379103D01*
X65873077Y4170927D01*
X65873080Y4170924D01*
X66041500Y3987971D01*
X66237735Y3835235D01*
X66456434Y3716881D01*
X66691630Y3636138D01*
X66936909Y3595209D01*
X67185579Y3595209D01*
X67430858Y3636138D01*
X67666054Y3716881D01*
X67884753Y3835235D01*
X68080988Y3987971D01*
X68249408Y4170924D01*
X68385417Y4379102D01*
X68485307Y4606828D01*
X68546352Y4847888D01*
X68546353Y4847897D01*
X68566887Y5095704D01*
X68566887Y5095715D01*
X68546353Y5343522D01*
X68546351Y5343534D01*
X68485307Y5584591D01*
X68385417Y5812316D01*
X68249410Y6020492D01*
X68227801Y6043965D01*
X68080988Y6203447D01*
X67884753Y6356183D01*
X67884751Y6356184D01*
X67884750Y6356185D01*
X67666055Y6474537D01*
X67666046Y6474540D01*
X67430860Y6555280D01*
X67185579Y6596209D01*
X66936909Y6596209D01*
X66691627Y6555280D01*
X66456441Y6474540D01*
X66456432Y6474537D01*
X66237737Y6356185D01*
X66041501Y6203448D01*
X65873077Y6020492D01*
X65737070Y5812316D01*
X65637180Y5584591D01*
X65576136Y5343534D01*
X65576134Y5343522D01*
X65555601Y5095715D01*
X65555601Y5095704D01*
X38800661Y5095704D01*
X38811960Y5119169D01*
X38818678Y5131324D01*
X38839044Y5163733D01*
X38851687Y5199864D01*
X38857002Y5212699D01*
X38873615Y5247194D01*
X38882136Y5284529D01*
X38885977Y5297863D01*
X38898623Y5334000D01*
X38902909Y5372044D01*
X38905238Y5385745D01*
X38910200Y5407482D01*
X38944310Y5468460D01*
X39005973Y5501315D01*
X39031090Y5503886D01*
X39241126Y5503886D01*
X39241127Y5503886D01*
X39300738Y5510294D01*
X39435586Y5560589D01*
X39550801Y5646839D01*
X39637051Y5762054D01*
X39687346Y5896902D01*
X39693755Y5956512D01*
X39693755Y6314385D01*
X43263255Y6314385D01*
X43263255Y5956541D01*
X43269656Y5897013D01*
X43269658Y5897006D01*
X43319900Y5762299D01*
X43319904Y5762292D01*
X43406064Y5647198D01*
X43406067Y5647195D01*
X43521161Y5561035D01*
X43521168Y5561031D01*
X43655875Y5510789D01*
X43655882Y5510787D01*
X43715410Y5504386D01*
X43715427Y5504385D01*
X44593255Y5504385D01*
X44593255Y6314385D01*
X45093255Y6314385D01*
X45093255Y5504385D01*
X45971083Y5504385D01*
X45971099Y5504386D01*
X46030627Y5510787D01*
X46030634Y5510789D01*
X46165341Y5561031D01*
X46165348Y5561035D01*
X46280442Y5647195D01*
X46280445Y5647198D01*
X46366605Y5762292D01*
X46366609Y5762299D01*
X46416851Y5897006D01*
X46416853Y5897013D01*
X46423254Y5956541D01*
X46423255Y5956558D01*
X46423255Y6314385D01*
X45093255Y6314385D01*
X44593255Y6314385D01*
X43263255Y6314385D01*
X39693755Y6314385D01*
X39693754Y6814385D01*
X43263255Y6814385D01*
X44593255Y6814385D01*
X44593255Y7624385D01*
X45093255Y7624385D01*
X45093255Y6814385D01*
X46423255Y6814385D01*
X46423255Y7172213D01*
X46423254Y7172230D01*
X46416853Y7231758D01*
X46416851Y7231765D01*
X46366609Y7366472D01*
X46366605Y7366479D01*
X46280445Y7481573D01*
X46280442Y7481576D01*
X46165348Y7567736D01*
X46165341Y7567740D01*
X46030634Y7617982D01*
X46030627Y7617984D01*
X45971099Y7624385D01*
X45093255Y7624385D01*
X44593255Y7624385D01*
X43715410Y7624385D01*
X43655882Y7617984D01*
X43655875Y7617982D01*
X43521168Y7567740D01*
X43521161Y7567736D01*
X43406067Y7481576D01*
X43406064Y7481573D01*
X43319904Y7366479D01*
X43319900Y7366472D01*
X43269658Y7231765D01*
X43269656Y7231758D01*
X43263255Y7172230D01*
X43263255Y6814385D01*
X39693754Y6814385D01*
X39693754Y7172257D01*
X39687346Y7231868D01*
X39676244Y7261633D01*
X39637052Y7366714D01*
X39637048Y7366721D01*
X39550802Y7481930D01*
X39550799Y7481933D01*
X39435590Y7568179D01*
X39435583Y7568183D01*
X39300737Y7618477D01*
X39300738Y7618477D01*
X39241138Y7624884D01*
X39241136Y7624885D01*
X39241128Y7624885D01*
X39241119Y7624885D01*
X36985384Y7624885D01*
X36985378Y7624884D01*
X36925771Y7618477D01*
X36790926Y7568183D01*
X36790919Y7568179D01*
X36675710Y7481933D01*
X36675707Y7481930D01*
X36589461Y7366721D01*
X36589457Y7366714D01*
X36539163Y7231868D01*
X36536986Y7211615D01*
X36532756Y7172262D01*
X36532755Y7172250D01*
X36532755Y5956515D01*
X36532756Y5956509D01*
X36539163Y5896902D01*
X36589457Y5762057D01*
X36589461Y5762050D01*
X36675707Y5646841D01*
X36675710Y5646838D01*
X36790919Y5560592D01*
X36798709Y5556338D01*
X36796971Y5553156D01*
X36839122Y5521599D01*
X36863536Y5456134D01*
X36848682Y5387861D01*
X36827533Y5359612D01*
X36304741Y4836819D01*
X36243418Y4803334D01*
X36217060Y4800500D01*
X20982940Y4800500D01*
X20915901Y4820185D01*
X20895259Y4836819D01*
X18581786Y7150292D01*
X18548301Y7211615D01*
X18553285Y7281307D01*
X18595157Y7337240D01*
X18660621Y7361657D01*
X18709728Y7355255D01*
X18895878Y7291349D01*
X19141157Y7250420D01*
X19389827Y7250420D01*
X19635106Y7291349D01*
X19870302Y7372092D01*
X20089001Y7490446D01*
X20285236Y7643182D01*
X20453656Y7826135D01*
X20589665Y8034313D01*
X20689555Y8262039D01*
X20750600Y8503099D01*
X20750601Y8503108D01*
X20761219Y8631243D01*
X61605849Y8631243D01*
X61626329Y8488788D01*
X61626330Y8488784D01*
X61686116Y8357873D01*
X61686117Y8357872D01*
X61686118Y8357870D01*
X61723737Y8311187D01*
X61723740Y8311184D01*
X61723745Y8311178D01*
X62979947Y7054979D01*
X63205653Y6829273D01*
X63205657Y6829270D01*
X63205659Y6829268D01*
X63252335Y6791652D01*
X63383249Y6731865D01*
X63383250Y6731865D01*
X63383252Y6731864D01*
X63525709Y6711383D01*
X63668166Y6731864D01*
X63799082Y6791652D01*
X63845765Y6829271D01*
X65327679Y8311187D01*
X65365300Y8357870D01*
X65425088Y8488786D01*
X65445569Y8631243D01*
X65425088Y8773700D01*
X65390597Y8849223D01*
X65365301Y8904614D01*
X65365300Y8904615D01*
X65365300Y8904616D01*
X65327681Y8951299D01*
X65327676Y8951304D01*
X65327672Y8951309D01*
X63845768Y10433210D01*
X63845762Y10433215D01*
X63845758Y10433219D01*
X63799082Y10470835D01*
X63668168Y10530622D01*
X63668164Y10530623D01*
X63525709Y10551103D01*
X63383253Y10530623D01*
X63383249Y10530622D01*
X63252338Y10470836D01*
X63205643Y10433207D01*
X61723742Y8951303D01*
X61723733Y8951293D01*
X61686117Y8904617D01*
X61626330Y8773703D01*
X61626329Y8773699D01*
X61605849Y8631243D01*
X20761219Y8631243D01*
X20771135Y8750915D01*
X20771135Y8750926D01*
X20750601Y8998733D01*
X20750599Y8998745D01*
X20689555Y9239802D01*
X20589665Y9467527D01*
X20453658Y9675703D01*
X20432049Y9699176D01*
X20285236Y9858658D01*
X20089001Y10011394D01*
X20088999Y10011395D01*
X20088998Y10011396D01*
X19870303Y10129748D01*
X19870294Y10129751D01*
X19635108Y10210491D01*
X19389827Y10251420D01*
X19141157Y10251420D01*
X18895875Y10210491D01*
X18660689Y10129751D01*
X18660680Y10129748D01*
X18441985Y10011396D01*
X18245749Y9858659D01*
X18077325Y9675703D01*
X17941318Y9467527D01*
X17841428Y9239802D01*
X17780384Y8998745D01*
X17780382Y8998733D01*
X17759849Y8750926D01*
X17759849Y8750915D01*
X17780382Y8503108D01*
X17780384Y8503096D01*
X17841429Y8262039D01*
X17866950Y8203856D01*
X17875853Y8134556D01*
X17845875Y8071443D01*
X17786536Y8034557D01*
X17716674Y8035608D01*
X17665713Y8066365D01*
X13202262Y12529816D01*
X13202259Y12529818D01*
X13169849Y12550183D01*
X13158510Y12558229D01*
X13128589Y12582090D01*
X13094093Y12598704D01*
X13081927Y12605428D01*
X13049524Y12625788D01*
X13049525Y12625788D01*
X13042652Y12628193D01*
X13013393Y12638432D01*
X13000554Y12643750D01*
X12966061Y12660361D01*
X12928735Y12668881D01*
X12915380Y12672729D01*
X12879260Y12685367D01*
X12879256Y12685368D01*
X12879255Y12685368D01*
X12861139Y12687410D01*
X12841217Y12689655D01*
X12827518Y12691983D01*
X12790200Y12700499D01*
X12790196Y12700500D01*
X12790194Y12700500D01*
X12790191Y12700500D01*
X5682940Y12700500D01*
X5615901Y12720185D01*
X5595259Y12736819D01*
X3836819Y14495259D01*
X3803334Y14556582D01*
X3800500Y14582940D01*
X3800500Y14723458D01*
X3820185Y14790497D01*
X3872989Y14836252D01*
X3942147Y14846196D01*
X4005703Y14817171D01*
X4012168Y14811151D01*
X5156855Y13666465D01*
X5156859Y13666462D01*
X5156861Y13666460D01*
X5203537Y13628844D01*
X5334451Y13569057D01*
X5334452Y13569057D01*
X5334454Y13569056D01*
X5476911Y13548575D01*
X5619368Y13569056D01*
X5750284Y13628844D01*
X5796967Y13666463D01*
X7278881Y15148379D01*
X7316502Y15195062D01*
X7360795Y15292050D01*
X7406548Y15344851D01*
X7422077Y15353330D01*
X7517774Y15397034D01*
X7564410Y15434615D01*
X8128561Y15998766D01*
X6007241Y18120086D01*
X6007240Y18120086D01*
X5712181Y17825026D01*
X5650858Y17791541D01*
X5581167Y17796525D01*
X5525233Y17838396D01*
X5500816Y17903861D01*
X5500500Y17912707D01*
X5500500Y18217060D01*
X5520185Y18284099D01*
X5536819Y18304741D01*
X6029815Y18797737D01*
X6045031Y18821954D01*
X6050182Y18830153D01*
X6058222Y18841485D01*
X6082091Y18871413D01*
X6098704Y18905912D01*
X6105413Y18918052D01*
X6125789Y18950478D01*
X6138430Y18986605D01*
X6143752Y18999455D01*
X6145925Y19003968D01*
X6160359Y19033939D01*
X6168877Y19071263D01*
X6172722Y19084607D01*
X6185368Y19120745D01*
X6189655Y19158799D01*
X6191982Y19172489D01*
X6199254Y19204345D01*
X6200500Y19209805D01*
X6200500Y19390194D01*
X6200500Y25667310D01*
X6220185Y25734349D01*
X6253375Y25768884D01*
X6271401Y25781505D01*
X6438495Y25948599D01*
X6573925Y26142014D01*
X6628502Y26185638D01*
X6698000Y26192832D01*
X6760355Y26161309D01*
X6795769Y26101079D01*
X6799500Y26070890D01*
X6799500Y20326221D01*
X6799501Y20326212D01*
X6808017Y20288894D01*
X6810345Y20275195D01*
X6814633Y20237152D01*
X6827271Y20201032D01*
X6831119Y20187677D01*
X6839639Y20150351D01*
X6856250Y20115858D01*
X6861570Y20103015D01*
X6874212Y20066887D01*
X6894572Y20034485D01*
X6901296Y20022319D01*
X6917910Y19987823D01*
X6941771Y19957902D01*
X6949817Y19946563D01*
X6970182Y19914153D01*
X6970184Y19914150D01*
X7297710Y19586624D01*
X7331195Y19525301D01*
X7326211Y19455609D01*
X7297711Y19411263D01*
X7210478Y19324029D01*
X7210468Y19324018D01*
X7172852Y19277342D01*
X7128560Y19180356D01*
X7082805Y19127552D01*
X7067278Y19119074D01*
X6971580Y19075370D01*
X6924940Y19037786D01*
X6360794Y18473640D01*
X6360794Y18473639D01*
X7244678Y17589755D01*
X8482113Y16352319D01*
X8482114Y16352319D01*
X9046265Y16916470D01*
X9083843Y16963103D01*
X9127548Y17058802D01*
X9173303Y17111606D01*
X9188820Y17120080D01*
X9285817Y17164377D01*
X9332500Y17201996D01*
X10814414Y18683912D01*
X10852035Y18730595D01*
X10911823Y18861511D01*
X10932304Y19003968D01*
X10911823Y19146425D01*
X10906691Y19157662D01*
X10852036Y19277339D01*
X10852035Y19277340D01*
X10852035Y19277341D01*
X10814416Y19324024D01*
X10814411Y19324029D01*
X10814407Y19324034D01*
X9332503Y20805935D01*
X9332497Y20805940D01*
X9332493Y20805944D01*
X9285817Y20843560D01*
X9154903Y20903347D01*
X9154899Y20903348D01*
X9012444Y20923828D01*
X8869988Y20903348D01*
X8869984Y20903347D01*
X8739073Y20843561D01*
X8692378Y20805932D01*
X8612181Y20725734D01*
X8550858Y20692249D01*
X8481166Y20697233D01*
X8425233Y20739105D01*
X8400816Y20804569D01*
X8400500Y20813415D01*
X8400500Y24494959D01*
X8420185Y24561998D01*
X8472989Y24607753D01*
X8542147Y24617697D01*
X8591543Y24599272D01*
X8595523Y24596714D01*
X8616161Y24580082D01*
X15521653Y17674591D01*
X15555138Y17613268D01*
X15550154Y17543576D01*
X15508282Y17487643D01*
X15480146Y17471828D01*
X15478150Y17471028D01*
X15478148Y17471027D01*
X15287551Y17351267D01*
X15121410Y17199407D01*
X14985045Y17020309D01*
X14882857Y16819755D01*
X14818119Y16604168D01*
X14792918Y16380498D01*
X14792917Y16380487D01*
X14808059Y16155911D01*
X14808059Y16155906D01*
X14863058Y15937640D01*
X14863059Y15937637D01*
X14956147Y15732696D01*
X14956153Y15732686D01*
X15000402Y15668816D01*
X15084336Y15547664D01*
X16122865Y14509135D01*
X16252376Y14401012D01*
X16252377Y14401011D01*
X16252379Y14401010D01*
X16277682Y14386653D01*
X16448149Y14289927D01*
X16660605Y14215584D01*
X16660611Y14215582D01*
X16727699Y14204957D01*
X16882934Y14180370D01*
X17107972Y14185420D01*
X17328490Y14230572D01*
X17537403Y14314373D01*
X17727996Y14434130D01*
X17894142Y14585994D01*
X18030502Y14765085D01*
X18088257Y14878436D01*
X18136232Y14929231D01*
X18204053Y14946026D01*
X18270187Y14923489D01*
X18286423Y14909821D01*
X21456305Y11739939D01*
X21472941Y11719295D01*
X21475548Y11715238D01*
X21513081Y11682716D01*
X21519560Y11676683D01*
X21529087Y11667156D01*
X21529094Y11667150D01*
X21529098Y11667146D01*
X21529101Y11667144D01*
X21529102Y11667143D01*
X21539889Y11659068D01*
X21546782Y11653513D01*
X21584313Y11620992D01*
X21584315Y11620991D01*
X21584316Y11620991D01*
X21584318Y11620989D01*
X21588701Y11618987D01*
X21611498Y11605461D01*
X21615360Y11602570D01*
X21661903Y11585211D01*
X21670051Y11581836D01*
X21697364Y11569362D01*
X21715231Y11561202D01*
X21715232Y11561202D01*
X21715234Y11561201D01*
X21720003Y11560516D01*
X21745693Y11553959D01*
X21750208Y11552275D01*
X21799740Y11548733D01*
X21808534Y11547787D01*
X21821892Y11545866D01*
X21835383Y11545866D01*
X21844229Y11545551D01*
X21893764Y11542007D01*
X21898476Y11543032D01*
X21924834Y11545866D01*
X61050346Y11545866D01*
X61076704Y11543032D01*
X61081416Y11542007D01*
X61130950Y11545551D01*
X61139797Y11545866D01*
X61153288Y11545866D01*
X61166645Y11547787D01*
X61175440Y11548733D01*
X61224972Y11552275D01*
X61229481Y11553958D01*
X61255174Y11560516D01*
X61259946Y11561201D01*
X61305126Y11581836D01*
X61313290Y11585217D01*
X61359820Y11602570D01*
X61363678Y11605459D01*
X61386484Y11618991D01*
X61390862Y11620989D01*
X61428396Y11653513D01*
X61435267Y11659050D01*
X61446082Y11667145D01*
X61455644Y11676708D01*
X61462098Y11682716D01*
X61499632Y11715238D01*
X61502240Y11719298D01*
X61518870Y11739935D01*
X64524625Y14745690D01*
X64585946Y14779173D01*
X64655638Y14774189D01*
X64711571Y14732317D01*
X64717298Y14723979D01*
X64824858Y14552797D01*
X64933323Y14434132D01*
X64976721Y14386653D01*
X65155812Y14250293D01*
X65356372Y14148102D01*
X65571956Y14083365D01*
X65795634Y14058163D01*
X65795636Y14058164D01*
X65795638Y14058163D01*
X65907422Y14065700D01*
X66020219Y14073305D01*
X66238490Y14128305D01*
X66443433Y14221394D01*
X66628461Y14349581D01*
X67666990Y15388110D01*
X67775113Y15517621D01*
X67886198Y15713394D01*
X67960543Y15925857D01*
X67989874Y16111046D01*
X67995755Y16148175D01*
X67995755Y16148179D01*
X67990705Y16373217D01*
X67945553Y16593735D01*
X67861752Y16802648D01*
X67741995Y16993241D01*
X67741994Y16993242D01*
X67741993Y16993244D01*
X67590133Y17159385D01*
X67590132Y17159386D01*
X67590131Y17159387D01*
X67411040Y17295747D01*
X67411034Y17295750D01*
X67411033Y17295751D01*
X67340285Y17331800D01*
X67289490Y17379774D01*
X67272695Y17447596D01*
X67295233Y17513730D01*
X67308894Y17529959D01*
X74287819Y24508885D01*
X74349142Y24542369D01*
X74418834Y24537385D01*
X74474767Y24495513D01*
X74499184Y24430049D01*
X74499500Y24421203D01*
X74499500Y20788472D01*
X74479815Y20721433D01*
X74463181Y20700790D01*
X74361412Y20599022D01*
X74300089Y20565538D01*
X74230397Y20570522D01*
X74186050Y20599023D01*
X74098817Y20686256D01*
X74098811Y20686261D01*
X74098807Y20686265D01*
X74052131Y20723881D01*
X73921217Y20783668D01*
X73921213Y20783669D01*
X73778758Y20804149D01*
X73636302Y20783669D01*
X73636298Y20783668D01*
X73505387Y20723882D01*
X73458692Y20686253D01*
X71976791Y19204349D01*
X71976782Y19204339D01*
X71939166Y19157663D01*
X71879379Y19026749D01*
X71879378Y19026745D01*
X71858898Y18884289D01*
X71879378Y18741834D01*
X71879379Y18741830D01*
X71939165Y18610919D01*
X71939166Y18610918D01*
X71939167Y18610916D01*
X71976786Y18564233D01*
X71976789Y18564230D01*
X71976794Y18564224D01*
X73221936Y17319085D01*
X73458702Y17082319D01*
X73458706Y17082316D01*
X73458708Y17082314D01*
X73505384Y17044698D01*
X73602371Y17000405D01*
X73655175Y16954650D01*
X73663653Y16939123D01*
X73707357Y16843425D01*
X73744937Y16796790D01*
X74309088Y16232639D01*
X75546525Y17470075D01*
X76430408Y18353959D01*
X75866257Y18918110D01*
X75819622Y18955690D01*
X75723924Y18999394D01*
X75671120Y19045149D01*
X75662642Y19060676D01*
X75618349Y19157662D01*
X75618348Y19157664D01*
X75580738Y19204335D01*
X75580727Y19204348D01*
X75493491Y19291584D01*
X75460006Y19352907D01*
X75464990Y19422599D01*
X75493488Y19466943D01*
X75897826Y19871279D01*
X75929816Y19903269D01*
X75950182Y19935684D01*
X75958222Y19947016D01*
X75982091Y19976944D01*
X75998698Y20011431D01*
X76005419Y20023592D01*
X76025789Y20056009D01*
X76038429Y20092134D01*
X76043745Y20104970D01*
X76060360Y20139470D01*
X76068881Y20176805D01*
X76072722Y20190139D01*
X76085368Y20226276D01*
X76089654Y20264320D01*
X76091982Y20278019D01*
X76100500Y20315337D01*
X76100500Y20495725D01*
X76100500Y27717060D01*
X76120185Y27784099D01*
X76136819Y27804741D01*
X76307430Y27975352D01*
X76498753Y28166676D01*
X76560074Y28200159D01*
X76629765Y28195175D01*
X76677038Y28161791D01*
X76677676Y28162428D01*
X76681378Y28158726D01*
X76681429Y28158690D01*
X76681501Y28158604D01*
X76681505Y28158599D01*
X76803431Y28036673D01*
X76836915Y27975352D01*
X76831931Y27905660D01*
X76790060Y27849726D01*
X76759083Y27832811D01*
X76627669Y27783797D01*
X76627664Y27783794D01*
X76512455Y27697548D01*
X76512452Y27697545D01*
X76426206Y27582336D01*
X76426202Y27582329D01*
X76375908Y27447483D01*
X76369501Y27387884D01*
X76369501Y27387877D01*
X76369500Y27387865D01*
X76369500Y25592130D01*
X76369501Y25592124D01*
X76375908Y25532517D01*
X76426202Y25397672D01*
X76426206Y25397665D01*
X76512452Y25282456D01*
X76512455Y25282453D01*
X76627664Y25196207D01*
X76627671Y25196203D01*
X76762517Y25145909D01*
X76762516Y25145909D01*
X76769444Y25145165D01*
X76822127Y25139500D01*
X77887059Y25139501D01*
X77954098Y25119817D01*
X77974740Y25103182D01*
X78663181Y24414741D01*
X78696666Y24353418D01*
X78699500Y24327060D01*
X78699500Y17917407D01*
X78679815Y17850368D01*
X78663181Y17829726D01*
X77896945Y17063491D01*
X77835622Y17030006D01*
X77765930Y17034990D01*
X77721583Y17063491D01*
X77634350Y17150724D01*
X77634344Y17150729D01*
X77632100Y17152538D01*
X77587664Y17188349D01*
X77490678Y17232641D01*
X77437874Y17278396D01*
X77429396Y17293923D01*
X77385692Y17389621D01*
X77348112Y17436255D01*
X76783961Y18000406D01*
X76783960Y18000406D01*
X75546525Y16762969D01*
X74662641Y15879086D01*
X75226792Y15314935D01*
X75273425Y15277357D01*
X75369125Y15233652D01*
X75421929Y15187897D01*
X75430408Y15172369D01*
X75474698Y15075387D01*
X75474699Y15075386D01*
X75474700Y15075384D01*
X75512319Y15028701D01*
X75512322Y15028698D01*
X75512327Y15028692D01*
X76769609Y13771413D01*
X76994235Y13546787D01*
X76994239Y13546784D01*
X76994241Y13546782D01*
X77040917Y13509166D01*
X77171831Y13449379D01*
X77171832Y13449379D01*
X77171834Y13449378D01*
X77314291Y13428897D01*
X77456748Y13449378D01*
X77587664Y13509166D01*
X77634347Y13546785D01*
X79116261Y15028701D01*
X79153882Y15075384D01*
X79213670Y15206300D01*
X79234151Y15348757D01*
X79213670Y15491214D01*
X79201608Y15517625D01*
X79153882Y15622130D01*
X79153881Y15622132D01*
X79116271Y15668803D01*
X79116260Y15668816D01*
X79029024Y15756052D01*
X78995539Y15817375D01*
X79000523Y15887067D01*
X79029022Y15931411D01*
X80097826Y17000214D01*
X80129816Y17032204D01*
X80150182Y17064619D01*
X80158222Y17075951D01*
X80182091Y17105879D01*
X80198704Y17140378D01*
X80205413Y17152518D01*
X80225789Y17184944D01*
X80238430Y17221071D01*
X80243752Y17233921D01*
X80260359Y17268405D01*
X80268877Y17305729D01*
X80272722Y17319073D01*
X80285368Y17355211D01*
X80289655Y17393265D01*
X80291982Y17406955D01*
X80300499Y17444268D01*
X80300500Y17444271D01*
X80300500Y17624660D01*
X80300500Y24754954D01*
X80300500Y24800194D01*
X80291980Y24837521D01*
X80289654Y24851210D01*
X80285368Y24889255D01*
X80272725Y24925388D01*
X80268876Y24938751D01*
X80260361Y24976059D01*
X80243753Y25010545D01*
X80238431Y25023394D01*
X80234272Y25035280D01*
X80225789Y25059522D01*
X80205424Y25091933D01*
X80198696Y25104106D01*
X80182091Y25138588D01*
X80182090Y25138589D01*
X80158225Y25168514D01*
X80150186Y25179843D01*
X80129816Y25212262D01*
X80002262Y25339816D01*
X79106818Y26235260D01*
X79073333Y26296583D01*
X79070499Y26322941D01*
X79070499Y27387871D01*
X79070498Y27387877D01*
X79070497Y27387884D01*
X79065299Y27436243D01*
X79064091Y27447484D01*
X79013797Y27582329D01*
X79013793Y27582336D01*
X78927547Y27697545D01*
X78927544Y27697548D01*
X78812335Y27783794D01*
X78812328Y27783798D01*
X78680917Y27832811D01*
X78624983Y27874682D01*
X78600566Y27940147D01*
X78615418Y28008420D01*
X78636563Y28036668D01*
X78758495Y28158599D01*
X78894035Y28352170D01*
X78993903Y28566337D01*
X79055063Y28794592D01*
X79075659Y29030000D01*
X79055063Y29265408D01*
X78993903Y29493663D01*
X78894035Y29707829D01*
X78874713Y29735425D01*
X78758494Y29901403D01*
X78591402Y30068494D01*
X78591401Y30068495D01*
X78405405Y30198731D01*
X78361781Y30253308D01*
X78354588Y30322807D01*
X78386110Y30385161D01*
X78405405Y30401881D01*
X78591082Y30531895D01*
X78758105Y30698918D01*
X78893600Y30892422D01*
X78993429Y31106508D01*
X78993432Y31106514D01*
X79050636Y31320000D01*
X78153686Y31320000D01*
X78179493Y31360156D01*
X78220000Y31498111D01*
X78220000Y31641889D01*
X78179493Y31779844D01*
X78153686Y31820000D01*
X79050636Y31820000D01*
X79050635Y31820001D01*
X78993432Y32033487D01*
X78993429Y32033493D01*
X78893600Y32247578D01*
X78893599Y32247580D01*
X78758113Y32441074D01*
X78758108Y32441080D01*
X78591082Y32608106D01*
X78397578Y32743601D01*
X78183492Y32843430D01*
X78183486Y32843433D01*
X77970000Y32900636D01*
X77970000Y32005502D01*
X77862315Y32054680D01*
X77755763Y32070000D01*
X77684237Y32070000D01*
X77577685Y32054680D01*
X77470000Y32005502D01*
X77470000Y32900636D01*
X77469999Y32900636D01*
X77256513Y32843433D01*
X77256507Y32843430D01*
X77042422Y32743601D01*
X77042420Y32743600D01*
X76848926Y32608114D01*
X76848920Y32608109D01*
X76681891Y32441080D01*
X76681886Y32441074D01*
X76546400Y32247580D01*
X76546399Y32247578D01*
X76446570Y32033493D01*
X76446567Y32033487D01*
X76389364Y31820001D01*
X76389364Y31820000D01*
X77286314Y31820000D01*
X77260507Y31779844D01*
X77220000Y31641889D01*
X77220000Y31498111D01*
X77260507Y31360156D01*
X77286314Y31320000D01*
X76389364Y31320000D01*
X76446567Y31106514D01*
X76446570Y31106508D01*
X76546399Y30892422D01*
X76681894Y30698918D01*
X76848917Y30531895D01*
X77034595Y30401881D01*
X77078219Y30347304D01*
X77085412Y30277805D01*
X77053890Y30215451D01*
X77034595Y30198731D01*
X76848594Y30068492D01*
X76681508Y29901406D01*
X76668884Y29883376D01*
X76614307Y29839752D01*
X76567309Y29830500D01*
X76320195Y29830500D01*
X76139806Y29830500D01*
X76132334Y29828795D01*
X76102478Y29821982D01*
X76088781Y29819655D01*
X76050743Y29815368D01*
X76014621Y29802729D01*
X76001269Y29798882D01*
X75963935Y29790359D01*
X75929440Y29773749D01*
X75916605Y29768432D01*
X75880480Y29755790D01*
X75880476Y29755788D01*
X75848067Y29735425D01*
X75835903Y29728703D01*
X75801417Y29712095D01*
X75771482Y29688223D01*
X75760145Y29680180D01*
X75727741Y29659819D01*
X75727739Y29659818D01*
X74764771Y28696849D01*
X74703448Y28663364D01*
X74633756Y28668348D01*
X74577823Y28710220D01*
X74553406Y28775684D01*
X74553090Y28784530D01*
X74553090Y33443580D01*
X74572775Y33510619D01*
X74625579Y33556374D01*
X74677090Y33567580D01*
X80803090Y33567580D01*
X80870129Y33547895D01*
G37*
%TD.AperFunction*%
%TD*%
M02*
